ISO-10303-21;
HEADER;
FILE_DESCRIPTION (( 'STEP AP203' ),
    '1' );
FILE_NAME ('Lower Leg Shaft V.3.STEP',
    '2026-03-09T22:01:25',
    ( '' ),
    ( '' ),
    'SwSTEP 2.0',
    'SolidWorks 2025',
    '' );
FILE_SCHEMA (( 'CONFIG_CONTROL_DESIGN' ));
ENDSEC;

DATA;
#1 = CARTESIAN_POINT ( 'NONE',  ( 0.000000000000000000, 0.000000000000000000, 0.000000000000000000 ) ) ;
#2 = CIRCLE ( 'NONE', #73, 4.750000000000000000 ) ;
#3 = MECHANICAL_CONTEXT ( 'NONE', #77, 'mechanical' ) ;
#4 = ORIENTED_EDGE ( 'NONE', *, *, #38, .F. ) ;
#5 = EDGE_CURVE ( 'NONE', #155, #126, #24, .T. ) ;
#6 = PLANE ( 'NONE',  #58 ) ;
#7 = DIRECTION ( 'NONE',  ( 0.000000000000000000, 0.000000000000000000, 1.000000000000000000 ) ) ;
#8 = EDGE_CURVE ( 'NONE', #126, #31, #152, .T. ) ;
#9 = CC_DESIGN_SECURITY_CLASSIFICATION ( #39, ( #14 ) ) ;
#10 = PERSON_AND_ORGANIZATION_ROLE ( 'classification_officer' ) ;
#11 = ORIENTED_EDGE ( 'NONE', *, *, #105, .F. ) ;
#12 = ORIENTED_EDGE ( 'NONE', *, *, #8, .T. ) ;
#13 = CARTESIAN_POINT ( 'NONE',  ( 0.000000000000000000, 0.000000000000000000, 25.00000000000000000 ) ) ;
#14 = PRODUCT_DEFINITION_FORMATION_WITH_SPECIFIED_SOURCE ( 'ANY', '', #131, .NOT_KNOWN. ) ;
#15 = PERSON ( 'UNSPECIFIED', 'UNSPECIFIED', 'UNSPECIFIED', ('UNSPECIFIED'), ('UNSPECIFIED'), ('UNSPECIFIED') ) ;
#16 = SECURITY_CLASSIFICATION_LEVEL ( 'unclassified' ) ;
#17 = PERSON_AND_ORGANIZATION ( #15, #119 ) ;
#18 = VECTOR ( 'NONE', #117, 1000.000000000000000 ) ;
#19 =( LENGTH_UNIT ( ) NAMED_UNIT ( * ) SI_UNIT ( .MILLI., .METRE. ) );
#20 = CALENDAR_DATE ( 2026, 9, 3 ) ;
#21 =( GEOMETRIC_REPRESENTATION_CONTEXT ( 3 ) GLOBAL_UNCERTAINTY_ASSIGNED_CONTEXT ( ( #94 ) ) GLOBAL_UNIT_ASSIGNED_CONTEXT ( ( #19, #46, #65 ) ) REPRESENTATION_CONTEXT ( 'NONE', 'WORKASPACE' ) );
#22 = DIRECTION ( 'NONE',  ( -0.000000000000000000, -0.000000000000000000, -1.000000000000000000 ) ) ;
#23 = DIRECTION ( 'NONE',  ( 1.000000000000000000, 0.000000000000000000, 0.000000000000000000 ) ) ;
#24 = LINE ( 'NONE', #37, #91 ) ;
#25 = DIRECTION ( 'NONE',  ( 1.000000000000000000, 0.000000000000000000, 0.000000000000000000 ) ) ;
#26 = EDGE_CURVE ( 'NONE', #166, #155, #103, .T. ) ;
#27 = ORIENTED_EDGE ( 'NONE', *, *, #26, .F. ) ;
#28 = COORDINATED_UNIVERSAL_TIME_OFFSET ( 7, 0, .BEHIND. ) ;
#29 = CARTESIAN_POINT ( 'NONE',  ( 4.750000000000000000, 5.817072295949927426E-16, 0.000000000000000000 ) ) ;
#30 = PERSON_AND_ORGANIZATION_ROLE ( 'creator' ) ;
#31 = VERTEX_POINT ( 'NONE', #61 ) ;
#32 = APPROVAL_ROLE ( '' ) ;
#33 = EDGE_LOOP ( 'NONE', ( #68, #153 ) ) ;
#34 = CALENDAR_DATE ( 2026, 9, 3 ) ;
#35 = FACE_OUTER_BOUND ( 'NONE', #121, .T. ) ;
#36 = CC_DESIGN_PERSON_AND_ORGANIZATION_ASSIGNMENT ( #143, #10, ( #39 ) ) ;
#37 = CARTESIAN_POINT ( 'NONE',  ( 4.750000000000000000, 5.817072295949927426E-16, 25.00000000000000000 ) ) ;
#38 = EDGE_CURVE ( 'NONE', #155, #166, #2, .T. ) ;
#39 = SECURITY_CLASSIFICATION ( '', '', #16 ) ;
#40 = CARTESIAN_POINT ( 'NONE',  ( -4.750000000000000000, 0.000000000000000000, 25.00000000000000000 ) ) ;
#41 = DATE_AND_TIME ( #102, #64 ) ;
#42 = AXIS2_PLACEMENT_3D ( 'NONE', #1, #175, #120 ) ;
#43 = CC_DESIGN_PERSON_AND_ORGANIZATION_ASSIGNMENT ( #17, #80, ( #131 ) ) ;
#44 = APPROVAL_DATE_TIME ( #159, #99 ) ;
#45 = CC_DESIGN_APPROVAL ( #69, ( #39 ) ) ;
#46 =( NAMED_UNIT ( * ) PLANE_ANGLE_UNIT ( ) SI_UNIT ( $, .RADIAN. ) );
#47 = DATE_AND_TIME ( #34, #156 ) ;
#48 = LOCAL_TIME ( 16, 1, 25.00000000000000000, #137 ) ;
#49 = APPROVAL_ROLE ( '' ) ;
#50 = DIRECTION ( 'NONE',  ( 0.000000000000000000, 0.000000000000000000, 1.000000000000000000 ) ) ;
#51 = APPROVAL_STATUS ( 'not_yet_approved' ) ;
#52 = DATE_AND_TIME ( #163, #169 ) ;
#53 = AXIS2_PLACEMENT_3D ( 'NONE', #57, #97, #109 ) ;
#54 = DIRECTION ( 'NONE',  ( 1.000000000000000000, 0.000000000000000000, -0.000000000000000000 ) ) ;
#55 = PRODUCT_DEFINITION ( 'UNKNOWN', '', #14, #165 ) ;
#56 = COORDINATED_UNIVERSAL_TIME_OFFSET ( 7, 0, .BEHIND. ) ;
#57 = CARTESIAN_POINT ( 'NONE',  ( 0.000000000000000000, 0.000000000000000000, 0.000000000000000000 ) ) ;
#58 = AXIS2_PLACEMENT_3D ( 'NONE', #118, #147, #54 ) ;
#59 = LINE ( 'NONE', #40, #18 ) ;
#60 = COORDINATED_UNIVERSAL_TIME_OFFSET ( 7, 0, .BEHIND. ) ;
#61 = CARTESIAN_POINT ( 'NONE',  ( -4.750000000000000000, 0.000000000000000000, 0.000000000000000000 ) ) ;
#62 = CARTESIAN_POINT ( 'NONE',  ( 0.000000000000000000, 0.000000000000000000, 25.00000000000000000 ) ) ;
#63 = APPROVAL_PERSON_ORGANIZATION ( #136, #99, #86 ) ;
#64 = LOCAL_TIME ( 16, 1, 25.00000000000000000, #60 ) ;
#65 =( NAMED_UNIT ( * ) SI_UNIT ( $, .STERADIAN. ) SOLID_ANGLE_UNIT ( ) );
#66 = APPLICATION_PROTOCOL_DEFINITION ( 'international standard', 'config_control_design', 1994, #77 ) ;
#67 = LOCAL_TIME ( 16, 1, 25.00000000000000000, #28 ) ;
#68 = ORIENTED_EDGE ( 'NONE', *, *, #26, .T. ) ;
#69 = APPROVAL ( #51, 'UNSPECIFIED' ) ;
#70 = DIRECTION ( 'NONE',  ( 1.000000000000000000, 0.000000000000000000, -0.000000000000000000 ) ) ;
#71 = EDGE_LOOP ( 'NONE', ( #4, #141, #12, #11 ) ) ;
#72 = COORDINATED_UNIVERSAL_TIME_OFFSET ( 7, 0, .BEHIND. ) ;
#73 = AXIS2_PLACEMENT_3D ( 'NONE', #114, #50, #23 ) ;
#74 = DIRECTION ( 'NONE',  ( -1.000000000000000000, 0.000000000000000000, 0.000000000000000000 ) ) ;
#75 = ORIENTED_EDGE ( 'NONE', *, *, #5, .F. ) ;
#76 = ADVANCED_FACE ( 'NONE', ( #101 ), #128, .T. ) ;
#77 = APPLICATION_CONTEXT ( 'configuration controlled 3d designs of mechanical parts and assemblies' ) ;
#78 = CC_DESIGN_PERSON_AND_ORGANIZATION_ASSIGNMENT ( #92, #30, ( #14 ) ) ;
#79 = CALENDAR_DATE ( 2026, 9, 3 ) ;
#80 = PERSON_AND_ORGANIZATION_ROLE ( 'design_owner' ) ;
#81 = MANIFOLD_SOLID_BREP ( 'Boss-Extrude1', #135 ) ;
#82 = APPLICATION_PROTOCOL_DEFINITION ( 'international standard', 'config_control_design', 1994, #151 ) ;
#83 = CARTESIAN_POINT ( 'NONE',  ( 0.000000000000000000, 0.000000000000000000, 0.000000000000000000 ) ) ;
#84 = ORIENTED_EDGE ( 'NONE', *, *, #8, .F. ) ;
#85 = DATE_TIME_ROLE ( 'creation_date' ) ;
#86 = APPROVAL_ROLE ( '' ) ;
#87 = CYLINDRICAL_SURFACE ( 'NONE', #146, 4.750000000000000000 ) ;
#88 = DIRECTION ( 'NONE',  ( -0.000000000000000000, -0.000000000000000000, -1.000000000000000000 ) ) ;
#89 = AXIS2_PLACEMENT_3D ( 'NONE', #62, #127, #98 ) ;
#90 = CC_DESIGN_DATE_AND_TIME_ASSIGNMENT ( #47, #85, ( #55 ) ) ;
#91 = VECTOR ( 'NONE', #88, 1000.000000000000000 ) ;
#92 = PERSON_AND_ORGANIZATION ( #15, #119 ) ;
#93 = ADVANCED_FACE ( 'NONE', ( #35 ), #87, .T. ) ;
#94 = UNCERTAINTY_MEASURE_WITH_UNIT (LENGTH_MEASURE( 1.000000000000000082E-05 ), #19, 'distance_accuracy_value', 'NONE');
#95 = APPROVAL_DATE_TIME ( #52, #149 ) ;
#96 = CIRCLE ( 'NONE', #53, 4.750000000000000000 ) ;
#97 = DIRECTION ( 'NONE',  ( 0.000000000000000000, 0.000000000000000000, 1.000000000000000000 ) ) ;
#98 = DIRECTION ( 'NONE',  ( 1.000000000000000000, 0.000000000000000000, 0.000000000000000000 ) ) ;
#99 = APPROVAL ( #104, 'UNSPECIFIED' ) ;
#100 = ORIENTED_EDGE ( 'NONE', *, *, #161, .F. ) ;
#101 = FACE_OUTER_BOUND ( 'NONE', #71, .T. ) ;
#102 = CALENDAR_DATE ( 2026, 9, 3 ) ;
#103 = CIRCLE ( 'NONE', #89, 4.750000000000000000 ) ;
#104 = APPROVAL_STATUS ( 'not_yet_approved' ) ;
#105 = EDGE_CURVE ( 'NONE', #166, #31, #59, .T. ) ;
#106 = APPROVAL_PERSON_ORGANIZATION ( #108, #149, #32 ) ;
#107 = PERSON_AND_ORGANIZATION_ROLE ( 'design_supplier' ) ;
#108 = PERSON_AND_ORGANIZATION ( #15, #119 ) ;
#109 = DIRECTION ( 'NONE',  ( 1.000000000000000000, 0.000000000000000000, 0.000000000000000000 ) ) ;
#110 = CC_DESIGN_APPROVAL ( #99, ( #14 ) ) ;
#111 = ORIENTED_EDGE ( 'NONE', *, *, #161, .T. ) ;
#112 = SHAPE_DEFINITION_REPRESENTATION ( #115, #167 ) ;
#113 = EDGE_LOOP ( 'NONE', ( #100, #84 ) ) ;
#114 = CARTESIAN_POINT ( 'NONE',  ( 0.000000000000000000, 0.000000000000000000, 25.00000000000000000 ) ) ;
#115 = PRODUCT_DEFINITION_SHAPE ( 'NONE', 'NONE',  #55 ) ;
#116 = DIRECTION ( 'NONE',  ( -0.000000000000000000, -0.000000000000000000, -1.000000000000000000 ) ) ;
#117 = DIRECTION ( 'NONE',  ( -0.000000000000000000, -0.000000000000000000, -1.000000000000000000 ) ) ;
#118 = CARTESIAN_POINT ( 'NONE',  ( 0.000000000000000000, 0.000000000000000000, 25.00000000000000000 ) ) ;
#119 = ORGANIZATION ( 'UNSPECIFIED', 'UNSPECIFIED', '' ) ;
#120 = DIRECTION ( 'NONE',  ( 1.000000000000000000, 0.000000000000000000, 0.000000000000000000 ) ) ;
#121 = EDGE_LOOP ( 'NONE', ( #75, #27, #123, #111 ) ) ;
#122 = CARTESIAN_POINT ( 'NONE',  ( 4.750000000000000000, 5.817072295949927426E-16, 25.00000000000000000 ) ) ;
#123 = ORIENTED_EDGE ( 'NONE', *, *, #105, .T. ) ;
#124 = PERSON_AND_ORGANIZATION_ROLE ( 'creator' ) ;
#125 = AXIS2_PLACEMENT_3D ( 'NONE', #142, #7, #25 ) ;
#126 = VERTEX_POINT ( 'NONE', #29 ) ;
#127 = DIRECTION ( 'NONE',  ( 0.000000000000000000, 0.000000000000000000, 1.000000000000000000 ) ) ;
#128 = CYLINDRICAL_SURFACE ( 'NONE', #130, 4.750000000000000000 ) ;
#129 = DATE_TIME_ROLE ( 'classification_date' ) ;
#130 = AXIS2_PLACEMENT_3D ( 'NONE', #13, #116, #170 ) ;
#131 = PRODUCT ( 'Lower Leg Shaft V.3', 'Lower Leg Shaft V.3', '', ( #3 ) ) ;
#132 = ADVANCED_FACE ( 'NONE', ( #173 ), #158, .F. ) ;
#133 = PERSON_AND_ORGANIZATION ( #15, #119 ) ;
#134 = FACE_OUTER_BOUND ( 'NONE', #33, .T. ) ;
#135 = CLOSED_SHELL ( 'NONE', ( #76, #93, #144, #132 ) ) ;
#136 = PERSON_AND_ORGANIZATION ( #15, #119 ) ;
#137 = COORDINATED_UNIVERSAL_TIME_OFFSET ( 7, 0, .BEHIND. ) ;
#138 = CC_DESIGN_PERSON_AND_ORGANIZATION_ASSIGNMENT ( #150, #124, ( #55 ) ) ;
#139 = CC_DESIGN_APPROVAL ( #149, ( #55 ) ) ;
#140 = CARTESIAN_POINT ( 'NONE',  ( 0.000000000000000000, 0.000000000000000000, 25.00000000000000000 ) ) ;
#141 = ORIENTED_EDGE ( 'NONE', *, *, #5, .T. ) ;
#142 = CARTESIAN_POINT ( 'NONE',  ( 0.000000000000000000, 0.000000000000000000, 0.000000000000000000 ) ) ;
#143 = PERSON_AND_ORGANIZATION ( #15, #119 ) ;
#144 = ADVANCED_FACE ( 'NONE', ( #134 ), #6, .T. ) ;
#145 = AXIS2_PLACEMENT_3D ( 'NONE', #83, #162, #70 ) ;
#146 = AXIS2_PLACEMENT_3D ( 'NONE', #140, #22, #74 ) ;
#147 = DIRECTION ( 'NONE',  ( 0.000000000000000000, 0.000000000000000000, 1.000000000000000000 ) ) ;
#148 = APPROVAL_STATUS ( 'not_yet_approved' ) ;
#149 = APPROVAL ( #148, 'UNSPECIFIED' ) ;
#150 = PERSON_AND_ORGANIZATION ( #15, #119 ) ;
#151 = APPLICATION_CONTEXT ( 'configuration controlled 3d designs of mechanical parts and assemblies' ) ;
#152 = CIRCLE ( 'NONE', #125, 4.750000000000000000 ) ;
#153 = ORIENTED_EDGE ( 'NONE', *, *, #38, .T. ) ;
#154 = APPROVAL_DATE_TIME ( #41, #69 ) ;
#155 = VERTEX_POINT ( 'NONE', #122 ) ;
#156 = LOCAL_TIME ( 16, 1, 25.00000000000000000, #72 ) ;
#157 = CC_DESIGN_DATE_AND_TIME_ASSIGNMENT ( #168, #129, ( #39 ) ) ;
#158 = PLANE ( 'NONE',  #145 ) ;
#159 = DATE_AND_TIME ( #20, #48 ) ;
#160 = CARTESIAN_POINT ( 'NONE',  ( -4.750000000000000000, 0.000000000000000000, 25.00000000000000000 ) ) ;
#161 = EDGE_CURVE ( 'NONE', #31, #126, #96, .T. ) ;
#162 = DIRECTION ( 'NONE',  ( 0.000000000000000000, 0.000000000000000000, 1.000000000000000000 ) ) ;
#163 = CALENDAR_DATE ( 2026, 9, 3 ) ;
#164 = PRODUCT_RELATED_PRODUCT_CATEGORY ( 'detail', '', ( #131 ) ) ;
#165 = DESIGN_CONTEXT ( 'detailed design', #151, 'design' ) ;
#166 = VERTEX_POINT ( 'NONE', #160 ) ;
#167 = ADVANCED_BREP_SHAPE_REPRESENTATION ( 'Lower Leg Shaft V.3', ( #81, #42 ), #21 ) ;
#168 = DATE_AND_TIME ( #79, #67 ) ;
#169 = LOCAL_TIME ( 16, 1, 25.00000000000000000, #56 ) ;
#170 = DIRECTION ( 'NONE',  ( -1.000000000000000000, 0.000000000000000000, 0.000000000000000000 ) ) ;
#171 = CC_DESIGN_PERSON_AND_ORGANIZATION_ASSIGNMENT ( #133, #107, ( #14 ) ) ;
#172 = PERSON_AND_ORGANIZATION ( #15, #119 ) ;
#173 = FACE_OUTER_BOUND ( 'NONE', #113, .T. ) ;
#174 = APPROVAL_PERSON_ORGANIZATION ( #172, #69, #49 ) ;
#175 = DIRECTION ( 'NONE',  ( 0.000000000000000000, 0.000000000000000000, 1.000000000000000000 ) ) ;
ENDSEC;
END-ISO-10303-21;
