ISO-10303-21;
HEADER;
FILE_DESCRIPTION (( 'STEP AP203' ),
    '1' );
FILE_NAME ('Standoff.STEP',
    '2026-03-09T22:06:10',
    ( '' ),
    ( '' ),
    'SwSTEP 2.0',
    'SolidWorks 2025',
    '' );
FILE_SCHEMA (( 'CONFIG_CONTROL_DESIGN' ));
ENDSEC;

DATA;
#1 = CARTESIAN_POINT ( 'NONE',  ( 0.000000000000000000, 35.00000000000000000, -5.000000000000000000 ) ) ;
#2 = ORGANIZATION ( 'UNSPECIFIED', 'UNSPECIFIED', '' ) ;
#3 = LINE ( 'NONE', #1, #11 ) ;
#4 = CYLINDRICAL_SURFACE ( 'NONE', #82, 1.500000000000000222 ) ;
#5 = DIRECTION ( 'NONE',  ( 0.000000000000000000, 0.000000000000000000, 1.000000000000000000 ) ) ;
#6 = CARTESIAN_POINT ( 'NONE',  ( 0.000000000000000000, 35.00000000000000000, 0.000000000000000000 ) ) ;
#7 = DIRECTION ( 'NONE',  ( 1.000000000000000000, 0.000000000000000000, 0.000000000000000000 ) ) ;
#8 = DIRECTION ( 'NONE',  ( 0.000000000000000000, 1.000000000000000000, 0.000000000000000000 ) ) ;
#9 = CIRCLE ( 'NONE', #247, 1.500000000000000222 ) ;
#10 = APPROVAL_DATE_TIME ( #136, #186 ) ;
#11 = VECTOR ( 'NONE', #71, 1000.000000000000000 ) ;
#12 = CC_DESIGN_PERSON_AND_ORGANIZATION_ASSIGNMENT ( #43, #192, ( #141 ) ) ;
#13 = DATE_AND_TIME ( #15, #180 ) ;
#14 = PERSON_AND_ORGANIZATION ( #87, #2 ) ;
#15 = CALENDAR_DATE ( 2026, 9, 3 ) ;
#16 = EDGE_LOOP ( 'NONE', ( #222, #241 ) ) ;
#17 = ORIENTED_EDGE ( 'NONE', *, *, #142, .F. ) ;
#18 = ORIENTED_EDGE ( 'NONE', *, *, #153, .T. ) ;
#19 = DESIGN_CONTEXT ( 'detailed design', #104, 'design' ) ;
#20 = DIRECTION ( 'NONE',  ( 0.000000000000000000, 1.000000000000000000, 0.000000000000000000 ) ) ;
#21 = ADVANCED_FACE ( 'NONE', ( #204, #205 ), #25, .F. ) ;
#22 = DIRECTION ( 'NONE',  ( 0.000000000000000000, -0.000000000000000000, 1.000000000000000000 ) ) ;
#23 = CARTESIAN_POINT ( 'NONE',  ( 0.000000000000000000, 35.00000000000000000, -1.500000000000000222 ) ) ;
#24 = DATE_AND_TIME ( #221, #232 ) ;
#25 = PLANE ( 'NONE',  #69 ) ;
#26 = LINE ( 'NONE', #23, #208 ) ;
#27 = DIRECTION ( 'NONE',  ( 0.000000000000000000, 0.000000000000000000, 1.000000000000000000 ) ) ;
#28 = PERSON_AND_ORGANIZATION ( #87, #2 ) ;
#29 = CC_DESIGN_SECURITY_CLASSIFICATION ( #245, ( #141 ) ) ;
#30 = ORIENTED_EDGE ( 'NONE', *, *, #39, .F. ) ;
#31 = SHAPE_DEFINITION_REPRESENTATION ( #183, #45 ) ;
#32 = APPROVAL_PERSON_ORGANIZATION ( #86, #148, #224 ) ;
#33 = AXIS2_PLACEMENT_3D ( 'NONE', #93, #216, #27 ) ;
#34 = EDGE_LOOP ( 'NONE', ( #156, #18, #217, #181 ) ) ;
#35 = VERTEX_POINT ( 'NONE', #133 ) ;
#36 = EDGE_CURVE ( 'NONE', #47, #184, #187, .T. ) ;
#37 = CC_DESIGN_APPROVAL ( #148, ( #245 ) ) ;
#38 = DIRECTION ( 'NONE',  ( 0.000000000000000000, 1.000000000000000000, 0.000000000000000000 ) ) ;
#39 = EDGE_CURVE ( 'NONE', #184, #47, #226, .T. ) ;
#40 = DIRECTION ( 'NONE',  ( 0.000000000000000000, 0.000000000000000000, -1.000000000000000000 ) ) ;
#41 = VECTOR ( 'NONE', #233, 1000.000000000000000 ) ;
#42 = CARTESIAN_POINT ( 'NONE',  ( 0.000000000000000000, 35.00000000000000000, 0.000000000000000000 ) ) ;
#43 = PERSON_AND_ORGANIZATION ( #87, #2 ) ;
#44 = FACE_BOUND ( 'NONE', #16, .T. ) ;
#45 = ADVANCED_BREP_SHAPE_REPRESENTATION ( 'Standoff', ( #177, #195 ), #54 ) ;
#46 = ADVANCED_FACE ( 'NONE', ( #137 ), #189, .T. ) ;
#47 = VERTEX_POINT ( 'NONE', #113 ) ;
#48 = ORIENTED_EDGE ( 'NONE', *, *, #77, .F. ) ;
#49 = COORDINATED_UNIVERSAL_TIME_OFFSET ( 7, 0, .BEHIND. ) ;
#50 = ORIENTED_EDGE ( 'NONE', *, *, #36, .T. ) ;
#51 = ADVANCED_FACE ( 'NONE', ( #55, #44 ), #120, .T. ) ;
#52 = EDGE_LOOP ( 'NONE', ( #30, #158, #200, #128 ) ) ;
#53 = UNCERTAINTY_MEASURE_WITH_UNIT (LENGTH_MEASURE( 1.000000000000000082E-05 ), #157, 'distance_accuracy_value', 'NONE');
#54 =( GEOMETRIC_REPRESENTATION_CONTEXT ( 3 ) GLOBAL_UNCERTAINTY_ASSIGNED_CONTEXT ( ( #53 ) ) GLOBAL_UNIT_ASSIGNED_CONTEXT ( ( #157, #139, #138 ) ) REPRESENTATION_CONTEXT ( 'NONE', 'WORKASPACE' ) );
#55 = FACE_OUTER_BOUND ( 'NONE', #230, .T. ) ;
#56 = CARTESIAN_POINT ( 'NONE',  ( 6.123233995736766282E-16, 35.00000000000000000, 5.000000000000000000 ) ) ;
#57 = CARTESIAN_POINT ( 'NONE',  ( 0.000000000000000000, 35.00000000000000000, 0.000000000000000000 ) ) ;
#58 = APPROVAL_ROLE ( '' ) ;
#59 = CC_DESIGN_PERSON_AND_ORGANIZATION_ASSIGNMENT ( #14, #65, ( #245 ) ) ;
#60 = APPROVAL_DATE_TIME ( #121, #203 ) ;
#61 = PRODUCT_RELATED_PRODUCT_CATEGORY ( 'detail', '', ( #227 ) ) ;
#62 = CIRCLE ( 'NONE', #223, 5.000000000000000000 ) ;
#63 = CARTESIAN_POINT ( 'NONE',  ( 0.000000000000000000, 0.000000000000000000, 0.000000000000000000 ) ) ;
#64 = EDGE_LOOP ( 'NONE', ( #17, #48 ) ) ;
#65 = PERSON_AND_ORGANIZATION_ROLE ( 'classification_officer' ) ;
#66 = AXIS2_PLACEMENT_3D ( 'NONE', #117, #78, #40 ) ;
#67 = DATE_AND_TIME ( #248, #145 ) ;
#68 = LINE ( 'NONE', #56, #176 ) ;
#69 = AXIS2_PLACEMENT_3D ( 'NONE', #235, #132, #22 ) ;
#70 = ORIENTED_EDGE ( 'NONE', *, *, #142, .T. ) ;
#71 = DIRECTION ( 'NONE',  ( -0.000000000000000000, -1.000000000000000000, -0.000000000000000000 ) ) ;
#72 = CC_DESIGN_APPROVAL ( #203, ( #197 ) ) ;
#73 = LINE ( 'NONE', #151, #41 ) ;
#74 = CARTESIAN_POINT ( 'NONE',  ( 0.000000000000000000, 35.00000000000000000, -1.500000000000000222 ) ) ;
#75 = DIRECTION ( 'NONE',  ( 0.000000000000000000, 1.000000000000000000, 0.000000000000000000 ) ) ;
#76 = MECHANICAL_CONTEXT ( 'NONE', #124, 'mechanical' ) ;
#77 = EDGE_CURVE ( 'NONE', #201, #162, #202, .T. ) ;
#78 = DIRECTION ( 'NONE',  ( -0.000000000000000000, -1.000000000000000000, -0.000000000000000000 ) ) ;
#79 = COORDINATED_UNIVERSAL_TIME_OFFSET ( 7, 0, .BEHIND. ) ;
#80 = CARTESIAN_POINT ( 'NONE',  ( 0.000000000000000000, 35.00000000000000000, 0.000000000000000000 ) ) ;
#81 = APPLICATION_PROTOCOL_DEFINITION ( 'international standard', 'config_control_design', 1994, #124 ) ;
#82 = AXIS2_PLACEMENT_3D ( 'NONE', #57, #134, #213 ) ;
#83 = EDGE_CURVE ( 'NONE', #47, #162, #3, .T. ) ;
#84 = AXIS2_PLACEMENT_3D ( 'NONE', #90, #130, #165 ) ;
#85 = APPROVAL_DATE_TIME ( #13, #148 ) ;
#86 = PERSON_AND_ORGANIZATION ( #87, #2 ) ;
#87 = PERSON ( 'UNSPECIFIED', 'UNSPECIFIED', 'UNSPECIFIED', ('UNSPECIFIED'), ('UNSPECIFIED'), ('UNSPECIFIED') ) ;
#88 = CC_DESIGN_PERSON_AND_ORGANIZATION_ASSIGNMENT ( #28, #194, ( #227 ) ) ;
#89 = EDGE_LOOP ( 'NONE', ( #239, #149, #112, #143 ) ) ;
#90 = CARTESIAN_POINT ( 'NONE',  ( 0.000000000000000000, 0.000000000000000000, 0.000000000000000000 ) ) ;
#91 = CARTESIAN_POINT ( 'NONE',  ( 1.836970198721030181E-16, 35.00000000000000000, 1.500000000000000222 ) ) ;
#92 = DIRECTION ( 'NONE',  ( 0.000000000000000000, 0.000000000000000000, -1.000000000000000000 ) ) ;
#93 = CARTESIAN_POINT ( 'NONE',  ( 0.000000000000000000, 0.000000000000000000, 0.000000000000000000 ) ) ;
#94 = AXIS2_PLACEMENT_3D ( 'NONE', #170, #215, #92 ) ;
#95 = DIRECTION ( 'NONE',  ( -0.000000000000000000, -1.000000000000000000, -0.000000000000000000 ) ) ;
#96 = DATE_TIME_ROLE ( 'creation_date' ) ;
#97 = DIRECTION ( 'NONE',  ( -0.000000000000000000, -1.000000000000000000, -0.000000000000000000 ) ) ;
#98 = DIRECTION ( 'NONE',  ( 0.000000000000000000, 0.000000000000000000, 1.000000000000000000 ) ) ;
#99 = DIRECTION ( 'NONE',  ( 0.000000000000000000, 1.000000000000000000, 0.000000000000000000 ) ) ;
#100 = APPROVAL_STATUS ( 'not_yet_approved' ) ;
#101 = CIRCLE ( 'NONE', #114, 1.500000000000000222 ) ;
#102 = CALENDAR_DATE ( 2026, 9, 3 ) ;
#103 = CIRCLE ( 'NONE', #33, 1.500000000000000222 ) ;
#104 = APPLICATION_CONTEXT ( 'configuration controlled 3d designs of mechanical parts and assemblies' ) ;
#105 = COORDINATED_UNIVERSAL_TIME_OFFSET ( 7, 0, .BEHIND. ) ;
#106 = EDGE_CURVE ( 'NONE', #161, #107, #73, .T. ) ;
#107 = VERTEX_POINT ( 'NONE', #209 ) ;
#108 = FACE_OUTER_BOUND ( 'NONE', #89, .T. ) ;
#109 = ADVANCED_FACE ( 'NONE', ( #108 ), #175, .F. ) ;
#110 = ORIENTED_EDGE ( 'NONE', *, *, #83, .T. ) ;
#111 = CC_DESIGN_APPROVAL ( #186, ( #141 ) ) ;
#112 = ORIENTED_EDGE ( 'NONE', *, *, #126, .F. ) ;
#113 = CARTESIAN_POINT ( 'NONE',  ( 0.000000000000000000, 35.00000000000000000, -5.000000000000000000 ) ) ;
#114 = AXIS2_PLACEMENT_3D ( 'NONE', #231, #75, #190 ) ;
#115 = DIRECTION ( 'NONE',  ( 0.000000000000000000, 0.000000000000000000, 1.000000000000000000 ) ) ;
#116 = CC_DESIGN_DATE_AND_TIME_ASSIGNMENT ( #67, #144, ( #245 ) ) ;
#117 = CARTESIAN_POINT ( 'NONE',  ( 0.000000000000000000, 35.00000000000000000, 0.000000000000000000 ) ) ;
#118 = AXIS2_PLACEMENT_3D ( 'NONE', #42, #237, #115 ) ;
#119 = DIRECTION ( 'NONE',  ( 0.000000000000000000, 0.000000000000000000, 1.000000000000000000 ) ) ;
#120 = PLANE ( 'NONE',  #242 ) ;
#121 = DATE_AND_TIME ( #218, #206 ) ;
#122 = APPROVAL_PERSON_ORGANIZATION ( #198, #186, #58 ) ;
#123 = ORIENTED_EDGE ( 'NONE', *, *, #36, .F. ) ;
#124 = APPLICATION_CONTEXT ( 'configuration controlled 3d designs of mechanical parts and assemblies' ) ;
#125 = EDGE_CURVE ( 'NONE', #184, #201, #68, .T. ) ;
#126 = EDGE_CURVE ( 'NONE', #35, #107, #103, .T. ) ;
#127 = ORIENTED_EDGE ( 'NONE', *, *, #39, .T. ) ;
#128 = ORIENTED_EDGE ( 'NONE', *, *, #83, .F. ) ;
#129 = APPROVAL_PERSON_ORGANIZATION ( #211, #203, #188 ) ;
#130 = DIRECTION ( 'NONE',  ( 0.000000000000000000, 1.000000000000000000, 0.000000000000000000 ) ) ;
#131 = EDGE_CURVE ( 'NONE', #146, #161, #249, .T. ) ;
#132 = DIRECTION ( 'NONE',  ( 0.000000000000000000, 1.000000000000000000, 0.000000000000000000 ) ) ;
#133 = CARTESIAN_POINT ( 'NONE',  ( 0.000000000000000000, 0.000000000000000000, -1.500000000000000222 ) ) ;
#134 = DIRECTION ( 'NONE',  ( -0.000000000000000000, -1.000000000000000000, -0.000000000000000000 ) ) ;
#135 = AXIS2_PLACEMENT_3D ( 'NONE', #80, #20, #119 ) ;
#136 = DATE_AND_TIME ( #102, #220 ) ;
#137 = FACE_OUTER_BOUND ( 'NONE', #185, .T. ) ;
#138 =( NAMED_UNIT ( * ) SI_UNIT ( $, .STERADIAN. ) SOLID_ANGLE_UNIT ( ) );
#139 =( NAMED_UNIT ( * ) PLANE_ANGLE_UNIT ( ) SI_UNIT ( $, .RADIAN. ) );
#140 = PERSON_AND_ORGANIZATION ( #87, #2 ) ;
#141 = PRODUCT_DEFINITION_FORMATION_WITH_SPECIFIED_SOURCE ( 'ANY', '', #227, .NOT_KNOWN. ) ;
#142 = EDGE_CURVE ( 'NONE', #162, #201, #62, .T. ) ;
#143 = ORIENTED_EDGE ( 'NONE', *, *, #182, .F. ) ;
#144 = DATE_TIME_ROLE ( 'classification_date' ) ;
#145 = LOCAL_TIME ( 16, 6, 10.00000000000000000, #49 ) ;
#147 = CLOSED_SHELL ( 'NONE', ( #109, #166, #51, #21, #46, #219 ) ) ;
#146 = VERTEX_POINT ( 'NONE', #74 ) ;
#148 = APPROVAL ( #199, 'UNSPECIFIED' ) ;
#149 = ORIENTED_EDGE ( 'NONE', *, *, #106, .T. ) ;
#150 = DIRECTION ( 'NONE',  ( 0.000000000000000000, 0.000000000000000000, -1.000000000000000000 ) ) ;
#151 = CARTESIAN_POINT ( 'NONE',  ( 1.836970198721030181E-16, 35.00000000000000000, 1.500000000000000222 ) ) ;
#152 = CARTESIAN_POINT ( 'NONE',  ( 0.000000000000000000, 0.000000000000000000, -5.000000000000000000 ) ) ;
#153 = EDGE_CURVE ( 'NONE', #161, #146, #101, .T. ) ;
#154 = CARTESIAN_POINT ( 'NONE',  ( 6.123233995736766282E-16, 0.000000000000000000, 5.000000000000000000 ) ) ;
#155 = CARTESIAN_POINT ( 'NONE',  ( 0.000000000000000000, 35.00000000000000000, 0.000000000000000000 ) ) ;
#156 = ORIENTED_EDGE ( 'NONE', *, *, #106, .F. ) ;
#157 =( LENGTH_UNIT ( ) NAMED_UNIT ( * ) SI_UNIT ( .MILLI., .METRE. ) );
#158 = ORIENTED_EDGE ( 'NONE', *, *, #125, .T. ) ;
#159 = COORDINATED_UNIVERSAL_TIME_OFFSET ( 7, 0, .BEHIND. ) ;
#160 = CC_DESIGN_DATE_AND_TIME_ASSIGNMENT ( #24, #96, ( #197 ) ) ;
#161 = VERTEX_POINT ( 'NONE', #91 ) ;
#162 = VERTEX_POINT ( 'NONE', #152 ) ;
#163 = DIRECTION ( 'NONE',  ( -0.000000000000000000, -1.000000000000000000, -0.000000000000000000 ) ) ;
#164 = AXIS2_PLACEMENT_3D ( 'NONE', #6, #99, #207 ) ;
#165 = DIRECTION ( 'NONE',  ( 0.000000000000000000, 0.000000000000000000, 1.000000000000000000 ) ) ;
#166 = ADVANCED_FACE ( 'NONE', ( #234 ), #210, .T. ) ;
#167 = DIRECTION ( 'NONE',  ( 0.000000000000000000, -0.000000000000000000, 1.000000000000000000 ) ) ;
#168 = DIRECTION ( 'NONE',  ( 0.000000000000000000, 0.000000000000000000, 1.000000000000000000 ) ) ;
#169 = CARTESIAN_POINT ( 'NONE',  ( 6.123233995736766282E-16, 35.00000000000000000, 5.000000000000000000 ) ) ;
#170 = CARTESIAN_POINT ( 'NONE',  ( 0.000000000000000000, 35.00000000000000000, 0.000000000000000000 ) ) ;
#171 = SECURITY_CLASSIFICATION_LEVEL ( 'unclassified' ) ;
#172 = CARTESIAN_POINT ( 'NONE',  ( 0.000000000000000000, 0.000000000000000000, 0.000000000000000000 ) ) ;
#173 = COORDINATED_UNIVERSAL_TIME_OFFSET ( 7, 0, .BEHIND. ) ;
#174 = APPROVAL_STATUS ( 'not_yet_approved' ) ;
#175 = CYLINDRICAL_SURFACE ( 'NONE', #212, 1.500000000000000222 ) ;
#176 = VECTOR ( 'NONE', #97, 1000.000000000000000 ) ;
#177 = MANIFOLD_SOLID_BREP ( 'Boss-Extrude1', #147 ) ;
#178 = CARTESIAN_POINT ( 'NONE',  ( 0.000000000000000000, 35.00000000000000000, 0.000000000000000000 ) ) ;
#179 = EDGE_LOOP ( 'NONE', ( #225, #228 ) ) ;
#180 = LOCAL_TIME ( 16, 6, 10.00000000000000000, #105 ) ;
#181 = ORIENTED_EDGE ( 'NONE', *, *, #246, .F. ) ;
#182 = EDGE_CURVE ( 'NONE', #146, #35, #26, .T. ) ;
#183 = PRODUCT_DEFINITION_SHAPE ( 'NONE', 'NONE',  #197 ) ;
#184 = VERTEX_POINT ( 'NONE', #169 ) ;
#185 = EDGE_LOOP ( 'NONE', ( #229, #123, #110, #70 ) ) ;
#186 = APPROVAL ( #174, 'UNSPECIFIED' ) ;
#187 = CIRCLE ( 'NONE', #118, 5.000000000000000000 ) ;
#188 = APPROVAL_ROLE ( '' ) ;
#189 = CYLINDRICAL_SURFACE ( 'NONE', #94, 5.000000000000000000 ) ;
#190 = DIRECTION ( 'NONE',  ( 0.000000000000000000, 0.000000000000000000, 1.000000000000000000 ) ) ;
#191 = CC_DESIGN_PERSON_AND_ORGANIZATION_ASSIGNMENT ( #140, #236, ( #197 ) ) ;
#192 = PERSON_AND_ORGANIZATION_ROLE ( 'design_supplier' ) ;
#193 = DIRECTION ( 'NONE',  ( 0.000000000000000000, 1.000000000000000000, 0.000000000000000000 ) ) ;
#194 = PERSON_AND_ORGANIZATION_ROLE ( 'design_owner' ) ;
#195 = AXIS2_PLACEMENT_3D ( 'NONE', #196, #5, #7 ) ;
#196 = CARTESIAN_POINT ( 'NONE',  ( 0.000000000000000000, 0.000000000000000000, 0.000000000000000000 ) ) ;
#197 = PRODUCT_DEFINITION ( 'UNKNOWN', '', #141, #19 ) ;
#198 = PERSON_AND_ORGANIZATION ( #87, #2 ) ;
#199 = APPROVAL_STATUS ( 'not_yet_approved' ) ;
#200 = ORIENTED_EDGE ( 'NONE', *, *, #77, .T. ) ;
#201 = VERTEX_POINT ( 'NONE', #154 ) ;
#202 = CIRCLE ( 'NONE', #84, 5.000000000000000000 ) ;
#203 = APPROVAL ( #100, 'UNSPECIFIED' ) ;
#204 = FACE_OUTER_BOUND ( 'NONE', #64, .T. ) ;
#205 = FACE_BOUND ( 'NONE', #179, .T. ) ;
#206 = LOCAL_TIME ( 16, 6, 10.00000000000000000, #79 ) ;
#207 = DIRECTION ( 'NONE',  ( 0.000000000000000000, 0.000000000000000000, 1.000000000000000000 ) ) ;
#208 = VECTOR ( 'NONE', #95, 1000.000000000000000 ) ;
#209 = CARTESIAN_POINT ( 'NONE',  ( 1.836970198721030181E-16, 0.000000000000000000, 1.500000000000000222 ) ) ;
#210 = CYLINDRICAL_SURFACE ( 'NONE', #66, 5.000000000000000000 ) ;
#211 = PERSON_AND_ORGANIZATION ( #87, #2 ) ;
#212 = AXIS2_PLACEMENT_3D ( 'NONE', #178, #163, #150 ) ;
#213 = DIRECTION ( 'NONE',  ( 0.000000000000000000, 0.000000000000000000, -1.000000000000000000 ) ) ;
#214 = PERSON_AND_ORGANIZATION_ROLE ( 'creator' ) ;
#215 = DIRECTION ( 'NONE',  ( -0.000000000000000000, -1.000000000000000000, -0.000000000000000000 ) ) ;
#216 = DIRECTION ( 'NONE',  ( 0.000000000000000000, 1.000000000000000000, 0.000000000000000000 ) ) ;
#217 = ORIENTED_EDGE ( 'NONE', *, *, #182, .T. ) ;
#218 = CALENDAR_DATE ( 2026, 9, 3 ) ;
#219 = ADVANCED_FACE ( 'NONE', ( #238 ), #4, .F. ) ;
#220 = LOCAL_TIME ( 16, 6, 10.00000000000000000, #159 ) ;
#221 = CALENDAR_DATE ( 2026, 9, 3 ) ;
#222 = ORIENTED_EDGE ( 'NONE', *, *, #131, .F. ) ;
#223 = AXIS2_PLACEMENT_3D ( 'NONE', #172, #38, #168 ) ;
#224 = APPROVAL_ROLE ( '' ) ;
#225 = ORIENTED_EDGE ( 'NONE', *, *, #126, .T. ) ;
#226 = CIRCLE ( 'NONE', #135, 5.000000000000000000 ) ;
#227 = PRODUCT ( 'Standoff', 'Standoff', '', ( #76 ) ) ;
#228 = ORIENTED_EDGE ( 'NONE', *, *, #246, .T. ) ;
#229 = ORIENTED_EDGE ( 'NONE', *, *, #125, .F. ) ;
#230 = EDGE_LOOP ( 'NONE', ( #50, #127 ) ) ;
#231 = CARTESIAN_POINT ( 'NONE',  ( 0.000000000000000000, 35.00000000000000000, 0.000000000000000000 ) ) ;
#232 = LOCAL_TIME ( 16, 6, 10.00000000000000000, #173 ) ;
#233 = DIRECTION ( 'NONE',  ( -0.000000000000000000, -1.000000000000000000, -0.000000000000000000 ) ) ;
#234 = FACE_OUTER_BOUND ( 'NONE', #52, .T. ) ;
#235 = CARTESIAN_POINT ( 'NONE',  ( 0.000000000000000000, 0.000000000000000000, 0.000000000000000000 ) ) ;
#236 = PERSON_AND_ORGANIZATION_ROLE ( 'creator' ) ;
#237 = DIRECTION ( 'NONE',  ( 0.000000000000000000, 1.000000000000000000, 0.000000000000000000 ) ) ;
#238 = FACE_OUTER_BOUND ( 'NONE', #34, .T. ) ;
#239 = ORIENTED_EDGE ( 'NONE', *, *, #131, .T. ) ;
#240 = APPLICATION_PROTOCOL_DEFINITION ( 'international standard', 'config_control_design', 1994, #104 ) ;
#241 = ORIENTED_EDGE ( 'NONE', *, *, #153, .F. ) ;
#242 = AXIS2_PLACEMENT_3D ( 'NONE', #155, #193, #167 ) ;
#243 = PERSON_AND_ORGANIZATION ( #87, #2 ) ;
#244 = CC_DESIGN_PERSON_AND_ORGANIZATION_ASSIGNMENT ( #243, #214, ( #141 ) ) ;
#245 = SECURITY_CLASSIFICATION ( '', '', #171 ) ;
#246 = EDGE_CURVE ( 'NONE', #107, #35, #9, .T. ) ;
#247 = AXIS2_PLACEMENT_3D ( 'NONE', #63, #8, #98 ) ;
#248 = CALENDAR_DATE ( 2026, 9, 3 ) ;
#249 = CIRCLE ( 'NONE', #164, 1.500000000000000222 ) ;
ENDSEC;
END-ISO-10303-21;
