ISO-10303-21;
HEADER;
FILE_DESCRIPTION (( 'STEP AP203' ),
    '1' );
FILE_NAME ('Upper Leg Shaft V.3.STEP',
    '2026-03-09T22:01:04',
    ( '' ),
    ( '' ),
    'SwSTEP 2.0',
    'SolidWorks 2025',
    '' );
FILE_SCHEMA (( 'CONFIG_CONTROL_DESIGN' ));
ENDSEC;

DATA;
#1 = SHAPE_DEFINITION_REPRESENTATION ( #249, #366 ) ;
#2 = CARTESIAN_POINT ( 'NONE',  ( 1.499906148903398462, -4.506970329859091962, 71.19782242897437641 ) ) ;
#3 = EDGE_CURVE ( 'NONE', #209, #140, #232, .T. ) ;
#4 = CARTESIAN_POINT ( 'NONE',  ( 0.7539737380297655278, -4.690501120195449403, 69.69959986579819144 ) ) ;
#5 = ORIENTED_EDGE ( 'NONE', *, *, #197, .T. ) ;
#6 = CARTESIAN_POINT ( 'NONE',  ( 0.9924101769434446885, -4.645706324513668939, 72.12896618097957457 ) ) ;
#7 = VERTEX_POINT ( 'NONE', #248 ) ;
#8 = CARTESIAN_POINT ( 'NONE',  ( -4.750000000000000000, 0.000000000000000000, 0.000000000000000000 ) ) ;
#9 = EDGE_LOOP ( 'NONE', ( #62, #11 ) ) ;
#10 = FACE_OUTER_BOUND ( 'NONE', #9, .T. ) ;
#11 = ORIENTED_EDGE ( 'NONE', *, *, #96, .T. ) ;
#12 = CARTESIAN_POINT ( 'NONE',  ( -1.490013199485916706, -4.510296214494494471, 70.80129784510162949 ) ) ;
#13 = B_SPLINE_CURVE_WITH_KNOTS ( 'NONE', 3,
 ( #169, #299, #417, #388, #263, #225, #70, #361, #6, #333, #352, #105, #2, #297, #235, #132, #203, #195, #170, #336, #99, #4, #133, #265, #65, #198 ),
 .UNSPECIFIED., .F., .F.,
 ( 4, 2, 2, 2, 2, 2, 2, 2, 2, 2, 2, 2, 4 ),
 ( 0.000000000000000000, 0.0002950054869393699416, 0.0005900109738787398831, 0.0008850164608181100958, 0.001180021947757479983, 0.001770032921636190918, 0.002360043895514901853, 0.002655049382454257971, 0.002950054869393613655, 0.003540065843272286426, 0.003835071330211609151, 0.004130076817150931008, 0.004720087791029576457 ),
 .UNSPECIFIED. ) ;
#14 = AXIS2_PLACEMENT_3D ( 'NONE', #157, #90, #284 ) ;
#15 = CARTESIAN_POINT ( 'NONE',  ( -1.451446459208728612, -4.522854679643828923, 70.60894366511463716 ) ) ;
#16 = CARTESIAN_POINT ( 'NONE',  ( 0.000000000000000000, 0.000000000000000000, 63.00000000000000000 ) ) ;
#17 = APPROVAL ( #362, 'UNSPECIFIED' ) ;
#18 = CC_DESIGN_SECURITY_CLASSIFICATION ( #141, ( #327 ) ) ;
#19 = DIRECTION ( 'NONE',  ( 0.000000000000000000, 0.000000000000000000, 1.000000000000000000 ) ) ;
#20 = AXIS2_PLACEMENT_3D ( 'NONE', #83, #312, #220 ) ;
#21 =( LENGTH_UNIT ( ) NAMED_UNIT ( * ) SI_UNIT ( .MILLI., .METRE. ) );
#22 = ORIENTED_EDGE ( 'NONE', *, *, #409, .T. ) ;
#23 = ADVANCED_FACE ( 'NONE', ( #59 ), #184, .F. ) ;
#24 = DIRECTION ( 'NONE',  ( -0.000000000000000000, -0.000000000000000000, 1.000000000000000000 ) ) ;
#25 = DIRECTION ( 'NONE',  ( 1.000000000000000000, 0.000000000000000000, 0.000000000000000000 ) ) ;
#26 = DIRECTION ( 'NONE',  ( 1.000000000000000000, 0.000000000000000000, -0.000000000000000000 ) ) ;
#27 = VERTEX_POINT ( 'NONE', #349 ) ;
#28 =( NAMED_UNIT ( * ) PLANE_ANGLE_UNIT ( ) SI_UNIT ( $, .RADIAN. ) );
#29 = CARTESIAN_POINT ( 'NONE',  ( 1.306669530564629200, -1.834182707828404313, 70.23832182824264692 ) ) ;
#30 = COORDINATED_UNIVERSAL_TIME_OFFSET ( 7, 0, .BEHIND. ) ;
#31 = CARTESIAN_POINT ( 'NONE',  ( 0.000000000000000000, 0.000000000000000000, 75.00000000000000000 ) ) ;
#32 = PERSON_AND_ORGANIZATION ( #194, #283 ) ;
#33 = DIRECTION ( 'NONE',  ( 1.000000000000000000, 0.000000000000000000, 0.000000000000000000 ) ) ;
#34 = APPROVAL_ROLE ( '' ) ;
#35 = CARTESIAN_POINT ( 'NONE',  ( -1.130340825161520346, -1.946943731388001364, 71.99061800022046498 ) ) ;
#36 = CARTESIAN_POINT ( 'NONE',  ( -0.4014857206207140261, -2.216150314826908829, 69.55118746389703688 ) ) ;
#37 = VERTEX_POINT ( 'NONE', #186 ) ;
#38 = CARTESIAN_POINT ( 'NONE',  ( -1.499822543238263028, -1.677209705170033427, 71.20483109064367966 ) ) ;
#39 = LOCAL_TIME ( 16, 1, 4.000000000000000000, #260 ) ;
#40 = CARTESIAN_POINT ( 'NONE',  ( -1.297418168646322645, -1.839363377510784048, 71.75876623464897364 ) ) ;
#41 = ORIENTED_EDGE ( 'NONE', *, *, #326, .F. ) ;
#42 = DIRECTION ( 'NONE',  ( -0.000000000000000000, -0.000000000000000000, 1.000000000000000000 ) ) ;
#43 = LINE ( 'NONE', #172, #202 ) ;
#44 = LINE ( 'NONE', #245, #397 ) ;
#45 = CC_DESIGN_PERSON_AND_ORGANIZATION_ASSIGNMENT ( #151, #183, ( #316 ) ) ;
#46 = CARTESIAN_POINT ( 'NONE',  ( 0.000000000000000000, 0.000000000000000000, 75.00000000000000000 ) ) ;
#47 = DIRECTION ( 'NONE',  ( 1.000000000000000000, 0.000000000000000000, 0.000000000000000000 ) ) ;
#48 = APPROVAL_DATE_TIME ( #342, #246 ) ;
#49 = EDGE_CURVE ( 'NONE', #149, #211, #88, .T. ) ;
#50 = CIRCLE ( 'NONE', #279, 4.750000000000000000 ) ;
#51 = COORDINATED_UNIVERSAL_TIME_OFFSET ( 7, 0, .BEHIND. ) ;
#52 = CARTESIAN_POINT ( 'NONE',  ( 0.000000000000000000, 0.000000000000000000, 63.00000000000000000 ) ) ;
#53 = APPROVAL_ROLE ( '' ) ;
#54 = DIRECTION ( 'NONE',  ( -0.000000000000000000, -0.000000000000000000, -1.000000000000000000 ) ) ;
#55 = CARTESIAN_POINT ( 'NONE',  ( 0.000000000000000000, 0.000000000000000000, 0.000000000000000000 ) ) ;
#56 = CARTESIAN_POINT ( 'NONE',  ( 0.000000000000000000, 0.000000000000000000, 75.00000000000000000 ) ) ;
#57 = DIRECTION ( 'NONE',  ( 0.000000000000000000, 0.000000000000000000, 1.000000000000000000 ) ) ;
#58 = FACE_OUTER_BOUND ( 'NONE', #295, .T. ) ;
#59 = FACE_OUTER_BOUND ( 'NONE', #298, .T. ) ;
#60 = CYLINDRICAL_SURFACE ( 'NONE', #335, 1.500000000000001332 ) ;
#61 = ADVANCED_FACE ( 'NONE', ( #215 ), #407, .F. ) ;
#62 = ORIENTED_EDGE ( 'NONE', *, *, #182, .T. ) ;
#63 = CARTESIAN_POINT ( 'NONE',  ( -0.1026350562658025350, -2.250000000000000000, 72.49999999999998579 ) ) ;
#64 = ORIENTED_EDGE ( 'NONE', *, *, #395, .F. ) ;
#65 = CARTESIAN_POINT ( 'NONE',  ( 0.1966447093546261904, -4.750000000000000000, 69.50000000000000000 ) ) ;
#66 = ORIENTED_EDGE ( 'NONE', *, *, #49, .T. ) ;
#67 = PRODUCT_DEFINITION ( 'UNKNOWN', '', #327, #358 ) ;
#68 = CARTESIAN_POINT ( 'NONE',  ( -0.2031706256378563447, -2.243041394769090147, 69.51037916048768750 ) ) ;
#69 = EDGE_LOOP ( 'NONE', ( #258, #281 ) ) ;
#70 = CARTESIAN_POINT ( 'NONE',  ( 0.7533808853782650861, -4.690600891770960956, 72.30076529211441994 ) ) ;
#71 = ORIENTED_EDGE ( 'NONE', *, *, #49, .F. ) ;
#72 = APPROVAL_DATE_TIME ( #289, #350 ) ;
#73 = CARTESIAN_POINT ( 'NONE',  ( -2.250000000000000000, 2.755455298081544285E-16, 75.00000000000000000 ) ) ;
#74 = CARTESIAN_POINT ( 'NONE',  ( 0.000000000000000000, -2.250000000000000000, 72.50000000000000000 ) ) ;
#75 = ORIENTED_EDGE ( 'NONE', *, *, #3, .T. ) ;
#76 = EDGE_CURVE ( 'NONE', #104, #211, #135, .T. ) ;
#77 = PLANE ( 'NONE',  #383 ) ;
#78 = ORIENTED_EDGE ( 'NONE', *, *, #189, .F. ) ;
#79 = DIRECTION ( 'NONE',  ( 0.000000000000000000, 0.000000000000000000, 1.000000000000000000 ) ) ;
#80 = ADVANCED_FACE ( 'NONE', ( #58 ), #376, .T. ) ;
#81 = CARTESIAN_POINT ( 'NONE',  ( -0.3950828736267983365, -4.737048014548292940, 69.53976184398953819 ) ) ;
#82 = CC_DESIGN_APPROVAL ( #246, ( #67 ) ) ;
#83 = CARTESIAN_POINT ( 'NONE',  ( 0.000000000000000000, 0.000000000000000000, 0.000000000000000000 ) ) ;
#84 = DIRECTION ( 'NONE',  ( -0.000000000000000000, 1.000000000000000000, -0.000000000000000000 ) ) ;
#85 = CLOSED_SHELL ( 'NONE', ( #414, #262, #80, #204, #268, #61, #23, #389, #124 ) ) ;
#86 = LINE ( 'NONE', #122, #259 ) ;
#87 = CARTESIAN_POINT ( 'NONE',  ( -4.750000000000000000, 0.000000000000000000, 75.00000000000000000 ) ) ;
#88 = LINE ( 'NONE', #323, #252 ) ;
#89 = CC_DESIGN_DATE_AND_TIME_ASSIGNMENT ( #328, #293, ( #141 ) ) ;
#90 = DIRECTION ( 'NONE',  ( -0.000000000000000000, 1.000000000000000000, -0.000000000000000000 ) ) ;
#91 = APPROVAL_PERSON_ORGANIZATION ( #372, #246, #53 ) ;
#92 = CARTESIAN_POINT ( 'NONE',  ( 0.4002957843033597141, -2.216334149654450414, 72.44909231340706413 ) ) ;
#93 = AXIS2_PLACEMENT_3D ( 'NONE', #153, #156, #374 ) ;
#94 = CARTESIAN_POINT ( 'NONE',  ( 1.457321658774973328, -1.716923134758246094, 70.59533658146182233 ) ) ;
#95 = APPROVAL_DATE_TIME ( #163, #17 ) ;
#96 = EDGE_CURVE ( 'NONE', #231, #355, #50, .T. ) ;
#97 = CARTESIAN_POINT ( 'NONE',  ( -0.3995521780807885226, -2.216459386277938481, 72.44928322928251418 ) ) ;
#98 = CALENDAR_DATE ( 2026, 9, 3 ) ;
#99 = CARTESIAN_POINT ( 'NONE',  ( 0.9160566957085063411, -4.661557388517377554, 69.80821267127130625 ) ) ;
#100 = CC_DESIGN_APPROVAL ( #350, ( #327 ) ) ;
#101 = EDGE_LOOP ( 'NONE', ( #402, #112 ) ) ;
#102 = CARTESIAN_POINT ( 'NONE',  ( -0.4964549156867405499, -2.196548544723893048, 72.41887589764202460 ) ) ;
#103 = CIRCLE ( 'NONE', #222, 4.750000000000000000 ) ;
#104 = VERTEX_POINT ( 'NONE', #118 ) ;
#105 = CARTESIAN_POINT ( 'NONE',  ( 1.459876565443155583, -4.520775035408265197, 71.39606023996537942 ) ) ;
#106 = CARTESIAN_POINT ( 'NONE',  ( -0.2030036394318011639, -2.243016646484399246, 72.48958160033819809 ) ) ;
#107 = ORIENTED_EDGE ( 'NONE', *, *, #311, .T. ) ;
#108 = CARTESIAN_POINT ( 'NONE',  ( -0.9914490213756131931, -4.645919972603881121, 69.87012690068904419 ) ) ;
#109 = CIRCLE ( 'NONE', #150, 2.250000000000000000 ) ;
#110 = PERSON_AND_ORGANIZATION_ROLE ( 'classification_officer' ) ;
#111 = DIRECTION ( 'NONE',  ( 1.000000000000000000, 0.000000000000000000, -0.000000000000000000 ) ) ;
#112 = ORIENTED_EDGE ( 'NONE', *, *, #346, .T. ) ;
#113 = FACE_OUTER_BOUND ( 'NONE', #314, .T. ) ;
#114 = FACE_OUTER_BOUND ( 'NONE', #382, .T. ) ;
#115 = CC_DESIGN_DATE_AND_TIME_ASSIGNMENT ( #410, #120, ( #67 ) ) ;
#116 = LINE ( 'NONE', #338, #313 ) ;
#117 = CARTESIAN_POINT ( 'NONE',  ( -0.4864417352220622437, -4.725906882803246667, 72.42232093146562022 ) ) ;
#118 = CARTESIAN_POINT ( 'NONE',  ( 1.836582872836440728E-16, -2.250000000000000000, 69.49999999999998579 ) ) ;
#119 = B_SPLINE_CURVE_WITH_KNOTS ( 'NONE', 3,
 ( #371, #242, #81, #210, #305, #171, #108, #271, #396, #307, #15, #12, #239, #273, #398, #241, #368, #206, #145, #406, #214, #413, #250, #117, #188, #247, #381, #315 ),
 .UNSPECIFIED., .F., .F.,
 ( 4, 2, 2, 2, 2, 2, 2, 2, 2, 2, 2, 2, 2, 4 ),
 ( 0.004720087791029576457, 0.005309942844751509849, 0.005604870371612476546, 0.005899797898473443242, 0.006489652952195377501, 0.006784580479056325983, 0.007079508005917273597, 0.007374435532778221211, 0.007669363059639168825, 0.008259218113361065788, 0.008554145640222015137, 0.008849073167082962751, 0.009144000693943912100, 0.009438928220804859714 ),
 .UNSPECIFIED. ) ;
#120 = DATE_TIME_ROLE ( 'creation_date' ) ;
#121 = CARTESIAN_POINT ( 'NONE',  ( 0.2033582357968965471, -2.242993358391666803, 72.48954713777041547 ) ) ;
#122 = CARTESIAN_POINT ( 'NONE',  ( -2.250000000000000000, 2.755455298081544285E-16, 63.00000000000000000 ) ) ;
#123 = CARTESIAN_POINT ( 'NONE',  ( 1.456586982436492983, -1.717565245562205023, 71.40728106987367596 ) ) ;
#124 = ADVANCED_FACE ( 'NONE', ( #332 ), #60, .F. ) ;
#125 = APPLICATION_CONTEXT ( 'configuration controlled 3d designs of mechanical parts and assemblies' ) ;
#126 = ORIENTED_EDGE ( 'NONE', *, *, #128, .T. ) ;
#127 = DIRECTION ( 'NONE',  ( -0.000000000000000000, -0.000000000000000000, 1.000000000000000000 ) ) ;
#128 = EDGE_CURVE ( 'NONE', #211, #104, #378, .T. ) ;
#129 = CIRCLE ( 'NONE', #20, 4.750000000000000000 ) ;
#130 = PERSON_AND_ORGANIZATION ( #194, #283 ) ;
#131 = CARTESIAN_POINT ( 'NONE',  ( -1.191356521127825419, -1.909769928139948503, 71.91634586414909336 ) ) ;
#132 = CARTESIAN_POINT ( 'NONE',  ( 1.451507474114862584, -4.522835230630198211, 70.60909741578524290 ) ) ;
#133 = CARTESIAN_POINT ( 'NONE',  ( 0.6661393537619586525, -4.703939547256647202, 69.65247014056959074 ) ) ;
#134 = ORIENTED_EDGE ( 'NONE', *, *, #326, .T. ) ;
#135 = B_SPLINE_CURVE_WITH_KNOTS ( 'NONE', 3,
 ( #318, #251, #288, #285, #321, #412, #415, #191, #29, #94, #411, #217, #123, #348, #351, #325, #254, #377, #256, #380, #92, #121, #221, #344 ),
 .UNSPECIFIED., .F., .F.,
 ( 4, 2, 2, 2, 2, 2, 2, 2, 2, 2, 2, 4 ),
 ( 0.004847959087378348256, 0.005150556218128403071, 0.005453153348878457887, 0.006058347610378551906, 0.006663541871878645925, 0.007268736133378739077, 0.007873930394878832228, 0.008479124656378926247, 0.008781721787128974124, 0.009084318917879020266, 0.009386916048629068143, 0.009689513179379116020 ),
 .UNSPECIFIED. ) ;
#136 = CARTESIAN_POINT ( 'NONE',  ( 0.000000000000000000, -2.250000000000000000, 72.50000000000000000 ) ) ;
#137 = CARTESIAN_POINT ( 'NONE',  ( -0.9231889762621036111, -2.053662835484328042, 69.81386690935151762 ) ) ;
#138 = ORIENTED_EDGE ( 'NONE', *, *, #212, .T. ) ;
#139 = DIRECTION ( 'NONE',  ( 0.000000000000000000, 0.000000000000000000, 1.000000000000000000 ) ) ;
#140 = VERTEX_POINT ( 'NONE', #229 ) ;
#141 = SECURITY_CLASSIFICATION ( '', '', #142 ) ;
#142 = SECURITY_CLASSIFICATION_LEVEL ( 'unclassified' ) ;
#143 = CARTESIAN_POINT ( 'NONE',  ( 2.250000000000000000, 0.000000000000000000, 63.00000000000000000 ) ) ;
#144 = AXIS2_PLACEMENT_3D ( 'NONE', #404, #42, #244 ) ;
#145 = CARTESIAN_POINT ( 'NONE',  ( -1.198427520905261057, -4.598494759420043820, 71.92280863979917171 ) ) ;
#146 = DIRECTION ( 'NONE',  ( 1.000000000000000000, 0.000000000000000000, 0.000000000000000000 ) ) ;
#147 = VERTEX_POINT ( 'NONE', #8 ) ;
#148 = CARTESIAN_POINT ( 'NONE',  ( 0.000000000000000000, 0.000000000000000000, 63.00000000000000000 ) ) ;
#149 = VERTEX_POINT ( 'NONE', #294 ) ;
#150 = AXIS2_PLACEMENT_3D ( 'NONE', #148, #208, #146 ) ;
#151 = PERSON_AND_ORGANIZATION ( #194, #283 ) ;
#152 = FACE_OUTER_BOUND ( 'NONE', #360, .T. ) ;
#153 = CARTESIAN_POINT ( 'NONE',  ( 0.000000000000000000, 0.000000000000000000, 0.000000000000000000 ) ) ;
#154 = LOCAL_TIME ( 16, 1, 4.000000000000000000, #51 ) ;
#155 = DIRECTION ( 'NONE',  ( 0.000000000000000000, 0.000000000000000000, 1.000000000000000000 ) ) ;
#156 = DIRECTION ( 'NONE',  ( 0.000000000000000000, 0.000000000000000000, 1.000000000000000000 ) ) ;
#157 = CARTESIAN_POINT ( 'NONE',  ( 0.000000000000000000, -4.750000000000000000, 71.00000000000000000 ) ) ;
#158 = DIRECTION ( 'NONE',  ( 0.000000000000000000, 0.000000000000000000, 1.000000000000000000 ) ) ;
#159 = CALENDAR_DATE ( 2026, 9, 3 ) ;
#160 = DIRECTION ( 'NONE',  ( 0.000000000000000000, 0.000000000000000000, 1.000000000000000000 ) ) ;
#161 = CARTESIAN_POINT ( 'NONE',  ( -1.500176323701725600, -1.676893274518989285, 70.79777627561348652 ) ) ;
#162 = CIRCLE ( 'NONE', #213, 2.250000000000000000 ) ;
#163 = DATE_AND_TIME ( #240, #39 ) ;
#164 = CARTESIAN_POINT ( 'NONE',  ( 1.836582872836440728E-16, -2.250000000000000000, 69.49999999999998579 ) ) ;
#165 = ORIENTED_EDGE ( 'NONE', *, *, #76, .T. ) ;
#166 = CARTESIAN_POINT ( 'NONE',  ( -1.456534385172964630, -1.717617135134234863, 71.40754142634457935 ) ) ;
#167 = VERTEX_POINT ( 'NONE', #199 ) ;
#168 = CC_DESIGN_PERSON_AND_ORGANIZATION_ASSIGNMENT ( #384, #110, ( #141 ) ) ;
#169 = CARTESIAN_POINT ( 'NONE',  ( 0.000000000000000000, -4.750000000000000000, 72.50000000000000000 ) ) ;
#170 = CARTESIAN_POINT ( 'NONE',  ( 1.198601159785428472, -4.598476915524595476, 70.07718306870413016 ) ) ;
#171 = CARTESIAN_POINT ( 'NONE',  ( -0.9163282150622132916, -4.661504374559902963, 69.80841848203452571 ) ) ;
#172 = CARTESIAN_POINT ( 'NONE',  ( 1.836970198721030920E-16, -4.750000000000000000, 69.49999999999998579 ) ) ;
#173 = CALENDAR_DATE ( 2026, 9, 3 ) ;
#174 = DIRECTION ( 'NONE',  ( -0.000000000000000000, -0.000000000000000000, -1.000000000000000000 ) ) ;
#175 = CIRCLE ( 'NONE', #391, 2.250000000000000000 ) ;
#176 = DIRECTION ( 'NONE',  ( 1.000000000000000000, 0.000000000000000000, 0.000000000000000000 ) ) ;
#177 = ORIENTED_EDGE ( 'NONE', *, *, #275, .T. ) ;
#178 = DIRECTION ( 'NONE',  ( -0.000000000000000000, 1.000000000000000000, -0.000000000000000000 ) ) ;
#179 = PERSON_AND_ORGANIZATION ( #194, #283 ) ;
#180 = CALENDAR_DATE ( 2026, 9, 3 ) ;
#181 = DIRECTION ( 'NONE',  ( 1.000000000000000000, 0.000000000000000000, 0.000000000000000000 ) ) ;
#182 = EDGE_CURVE ( 'NONE', #355, #231, #291, .T. ) ;
#183 = PERSON_AND_ORGANIZATION_ROLE ( 'design_owner' ) ;
#184 = CYLINDRICAL_SURFACE ( 'NONE', #272, 2.250000000000000000 ) ;
#185 = APPLICATION_PROTOCOL_DEFINITION ( 'international standard', 'config_control_design', 1994, #125 ) ;
#186 = CARTESIAN_POINT ( 'NONE',  ( 2.250000000000000000, 0.000000000000000000, 63.00000000000000000 ) ) ;
#187 = APPLICATION_CONTEXT ( 'configuration controlled 3d designs of mechanical parts and assemblies' ) ;
#188 = CARTESIAN_POINT ( 'NONE',  ( -0.3906832632712342601, -4.734891486422269757, 72.45156248041888603 ) ) ;
#189 = EDGE_CURVE ( 'NONE', #149, #167, #13, .T. ) ;
#190 = DIRECTION ( 'NONE',  ( -1.000000000000000000, 0.000000000000000000, 0.000000000000000000 ) ) ;
#191 = CARTESIAN_POINT ( 'NONE',  ( 1.198478535491364072, -1.910286100819607924, 70.07821127304336528 ) ) ;
#192 = APPROVAL_STATUS ( 'not_yet_approved' ) ;
#193 = CARTESIAN_POINT ( 'NONE',  ( -1.457876936426883763, -1.716484828240985250, 70.59672913149860562 ) ) ;
#194 = PERSON ( 'UNSPECIFIED', 'UNSPECIFIED', 'UNSPECIFIED', ('UNSPECIFIED'), ('UNSPECIFIED'), ('UNSPECIFIED') ) ;
#195 = CARTESIAN_POINT ( 'NONE',  ( 1.309167167451413150, -4.566713274582910209, 70.24163885823821829 ) ) ;
#196 = ORIENTED_EDGE ( 'NONE', *, *, #292, .F. ) ;
#197 = EDGE_CURVE ( 'NONE', #37, #27, #109, .T. ) ;
#198 = CARTESIAN_POINT ( 'NONE',  ( 1.836689093020437609E-16, -4.750000000000000000, 69.49999999999998579 ) ) ;
#199 = CARTESIAN_POINT ( 'NONE',  ( 1.836689093020437609E-16, -4.750000000000000000, 69.49999999999998579 ) ) ;
#200 = APPROVAL_PERSON_ORGANIZATION ( #130, #17, #304 ) ;
#201 = ORIENTED_EDGE ( 'NONE', *, *, #96, .F. ) ;
#202 = VECTOR ( 'NONE', #178, 1000.000000000000000 ) ;
#203 = CARTESIAN_POINT ( 'NONE',  ( 1.422951074943872962, -4.532028512648872187, 70.51526521505790868 ) ) ;
#204 = ADVANCED_FACE ( 'NONE', ( #113, #205 ), #369, .T. ) ;
#205 = FACE_BOUND ( 'NONE', #101, .T. ) ;
#206 = CARTESIAN_POINT ( 'NONE',  ( -1.309831952179031589, -4.566509599506866302, 71.75671212703868207 ) ) ;
#207 = DIRECTION ( 'NONE',  ( -0.000000000000000000, -0.000000000000000000, 1.000000000000000000 ) ) ;
#208 = DIRECTION ( 'NONE',  ( 0.000000000000000000, 0.000000000000000000, 1.000000000000000000 ) ) ;
#209 = VERTEX_POINT ( 'NONE', #73 ) ;
#210 = CARTESIAN_POINT ( 'NONE',  ( -0.6664377392624509788, -4.703898843723047563, 69.65261095929483304 ) ) ;
#211 = VERTEX_POINT ( 'NONE', #74 ) ;
#212 = EDGE_CURVE ( 'NONE', #37, #140, #337, .T. ) ;
#213 = AXIS2_PLACEMENT_3D ( 'NONE', #16, #19, #310 ) ;
#214 = CARTESIAN_POINT ( 'NONE',  ( -0.9157111231599909251, -4.661627894580721687, 72.19206523273764731 ) ) ;
#215 = FACE_OUTER_BOUND ( 'NONE', #270, .T. ) ;
#216 = FACE_OUTER_BOUND ( 'NONE', #238, .T. ) ;
#217 = CARTESIAN_POINT ( 'NONE',  ( 1.499859714412054457, -1.677176458318963448, 71.20595807680599876 ) ) ;
#218 = AXIS2_PLACEMENT_3D ( 'NONE', #55, #57, #257 ) ;
#219 = PRODUCT_RELATED_PRODUCT_CATEGORY ( 'detail', '', ( #316 ) ) ;
#220 = DIRECTION ( 'NONE',  ( 1.000000000000000000, 0.000000000000000000, 0.000000000000000000 ) ) ;
#221 = CARTESIAN_POINT ( 'NONE',  ( 0.1024994575428940097, -2.250000000000000000, 72.50000000000000000 ) ) ;
#222 = AXIS2_PLACEMENT_3D ( 'NONE', #399, #341, #47 ) ;
#223 = PERSON_AND_ORGANIZATION_ROLE ( 'creator' ) ;
#224 = ORIENTED_EDGE ( 'NONE', *, *, #230, .T. ) ;
#225 = CARTESIAN_POINT ( 'NONE',  ( 0.6674526465950200160, -4.703759834018306663, 72.34690782875796344 ) ) ;
#226 = ORIENTED_EDGE ( 'NONE', *, *, #409, .F. ) ;
#227 = PERSON_AND_ORGANIZATION ( #194, #283 ) ;
#228 = LOCAL_TIME ( 16, 1, 4.000000000000000000, #416 ) ;
#229 = CARTESIAN_POINT ( 'NONE',  ( 2.250000000000000000, 0.000000000000000000, 75.00000000000000000 ) ) ;
#230 = EDGE_CURVE ( 'NONE', #27, #37, #162, .T. ) ;
#231 = VERTEX_POINT ( 'NONE', #339 ) ;
#232 = CIRCLE ( 'NONE', #306, 2.250000000000000000 ) ;
#233 = CARTESIAN_POINT ( 'NONE',  ( -0.7646878636190981293, -2.117796354462595509, 69.70599765616255183 ) ) ;
#234 = ORIENTED_EDGE ( 'NONE', *, *, #212, .F. ) ;
#235 = CARTESIAN_POINT ( 'NONE',  ( 1.490129895617204880, -4.510257793633183354, 70.80203113389994485 ) ) ;
#236 = CARTESIAN_POINT ( 'NONE',  ( 0.000000000000000000, 0.000000000000000000, 75.00000000000000000 ) ) ;
#237 = LOCAL_TIME ( 16, 1, 4.000000000000000000, #30 ) ;
#238 = EDGE_LOOP ( 'NONE', ( #5, #224 ) ) ;
#239 = CARTESIAN_POINT ( 'NONE',  ( -1.500001128547256535, -4.506938718726756221, 70.90116563951890782 ) ) ;
#240 = CALENDAR_DATE ( 2026, 9, 3 ) ;
#241 = CARTESIAN_POINT ( 'NONE',  ( -1.451718357473307464, -4.522767501304619131, 71.39019107246780038 ) ) ;
#242 = CARTESIAN_POINT ( 'NONE',  ( -0.1965927427382881953, -4.750000000000000888, 69.50000000000001421 ) ) ;
#243 = CC_DESIGN_PERSON_AND_ORGANIZATION_ASSIGNMENT ( #179, #280, ( #67 ) ) ;
#244 = DIRECTION ( 'NONE',  ( 1.000000000000000000, 0.000000000000000000, 0.000000000000000000 ) ) ;
#245 = CARTESIAN_POINT ( 'NONE',  ( 4.750000000000000000, 5.817072295949927426E-16, 75.00000000000000000 ) ) ;
#246 = APPROVAL ( #322, 'UNSPECIFIED' ) ;
#247 = CARTESIAN_POINT ( 'NONE',  ( -0.1978622257068400059, -4.746860155938097847, 72.49014012307512189 ) ) ;
#248 = CARTESIAN_POINT ( 'NONE',  ( 4.750000000000000000, 5.817072295949927426E-16, 0.000000000000000000 ) ) ;
#249 = PRODUCT_DEFINITION_SHAPE ( 'NONE', 'NONE',  #67 ) ;
#250 = CARTESIAN_POINT ( 'NONE',  ( -0.6675344406435342881, -4.703745230903527030, 72.34685565834126919 ) ) ;
#251 = CARTESIAN_POINT ( 'NONE',  ( 0.1009960100209796319, -2.250000000000000444, 69.49999999999998579 ) ) ;
#252 = VECTOR ( 'NONE', #84, 1000.000000000000000 ) ;
#253 = CARTESIAN_POINT ( 'NONE',  ( 0.000000000000000000, 0.000000000000000000, 63.00000000000000000 ) ) ;
#254 = CARTESIAN_POINT ( 'NONE',  ( 0.9215295769842031248, -2.054421198782512725, 72.18744604536250620 ) ) ;
#255 =( NAMED_UNIT ( * ) SI_UNIT ( $, .STERADIAN. ) SOLID_ANGLE_UNIT ( ) );
#256 = CARTESIAN_POINT ( 'NONE',  ( 0.6777795110901647657, -2.147520492567468686, 72.34172401640793737 ) ) ;
#257 = DIRECTION ( 'NONE',  ( 1.000000000000000000, 0.000000000000000000, 0.000000000000000000 ) ) ;
#258 = ORIENTED_EDGE ( 'NONE', *, *, #275, .F. ) ;
#259 = VECTOR ( 'NONE', #24, 1000.000000000000000 ) ;
#260 = COORDINATED_UNIVERSAL_TIME_OFFSET ( 7, 0, .BEHIND. ) ;
#261 = CARTESIAN_POINT ( 'NONE',  ( -1.198126587363906204, -1.910581009670800912, 70.07754636422356498 ) ) ;
#262 = ADVANCED_FACE ( 'NONE', ( #401, #114 ), #276, .F. ) ;
#263 = CARTESIAN_POINT ( 'NONE',  ( 0.4860524088140880661, -4.725949922233270151, 72.42246504016868869 ) ) ;
#264 = LOCAL_TIME ( 16, 1, 4.000000000000000000, #324 ) ;
#265 = CARTESIAN_POINT ( 'NONE',  ( 0.3950230766231456192, -4.737046799477186099, 69.53977049348993944 ) ) ;
#266 = ORIENTED_EDGE ( 'NONE', *, *, #76, .F. ) ;
#267 = CARTESIAN_POINT ( 'NONE',  ( -0.6780967115270948309, -2.147452300563174266, 69.65838050883660060 ) ) ;
#268 = ADVANCED_FACE ( 'NONE', ( #302, #10 ), #77, .T. ) ;
#269 = CARTESIAN_POINT ( 'NONE',  ( -1.342931775426257524, -1.805916527992077691, 71.67522577993959487 ) ) ;
#270 = EDGE_LOOP ( 'NONE', ( #64, #196 ) ) ;
#271 = CARTESIAN_POINT ( 'NONE',  ( -1.199123319460298154, -4.598345080573198018, 70.07780653067865728 ) ) ;
#272 = AXIS2_PLACEMENT_3D ( 'NONE', #52, #127, #25 ) ;
#273 = CARTESIAN_POINT ( 'NONE',  ( -1.499998871257203437, -4.506939469998298087, 71.09886861322921447 ) ) ;
#274 = DIRECTION ( 'NONE',  ( -1.000000000000000000, 0.000000000000000000, 0.000000000000000000 ) ) ;
#275 = EDGE_CURVE ( 'NONE', #140, #209, #175, .T. ) ;
#276 = CYLINDRICAL_SURFACE ( 'NONE', #144, 2.250000000000000000 ) ;
#277 = APPROVAL_PERSON_ORGANIZATION ( #367, #350, #34 ) ;
#278 = CARTESIAN_POINT ( 'NONE',  ( 0.000000000000000000, 0.000000000000000000, 75.00000000000000000 ) ) ;
#279 = AXIS2_PLACEMENT_3D ( 'NONE', #31, #160, #33 ) ;
#280 = PERSON_AND_ORGANIZATION_ROLE ( 'creator' ) ;
#281 = ORIENTED_EDGE ( 'NONE', *, *, #3, .F. ) ;
#282 = ORIENTED_EDGE ( 'NONE', *, *, #292, .T. ) ;
#283 = ORGANIZATION ( 'UNSPECIFIED', 'UNSPECIFIED', '' ) ;
#284 = DIRECTION ( 'NONE',  ( 0.000000000000000000, 0.000000000000000000, 1.000000000000000000 ) ) ;
#285 = CARTESIAN_POINT ( 'NONE',  ( 0.4010480408779402151, -2.216210403085083325, 69.55109625112027061 ) ) ;
#286 = AXIS2_PLACEMENT_3D ( 'NONE', #236, #356, #392 ) ;
#287 = PLANE ( 'NONE',  #375 ) ;
#288 = CARTESIAN_POINT ( 'NONE',  ( 0.2035754913437665958, -2.242985755897421551, 69.51046362114452393 ) ) ;
#289 = DATE_AND_TIME ( #173, #264 ) ;
#290 = CARTESIAN_POINT ( 'NONE',  ( -0.7680263174143313609, -2.123159802349249059, 72.30339585722633444 ) ) ;
#291 = CIRCLE ( 'NONE', #286, 4.750000000000000000 ) ;
#292 = EDGE_CURVE ( 'NONE', #7, #147, #103, .T. ) ;
#293 = DATE_TIME_ROLE ( 'classification_date' ) ;
#294 = CARTESIAN_POINT ( 'NONE',  ( 0.000000000000000000, -4.750000000000000000, 72.50000000000000000 ) ) ;
#295 = EDGE_LOOP ( 'NONE', ( #201, #134, #282, #309 ) ) ;
#296 = PERSON_AND_ORGANIZATION_ROLE ( 'design_supplier' ) ;
#297 = CARTESIAN_POINT ( 'NONE',  ( 1.500046671423752587, -4.506923561143189261, 70.90215815935189880 ) ) ;
#298 = EDGE_LOOP ( 'NONE', ( #226, #300, #138, #177 ) ) ;
#299 = CARTESIAN_POINT ( 'NONE',  ( 0.09979716905904090218, -4.750000000000000888, 72.50000000000001421 ) ) ;
#300 = ORIENTED_EDGE ( 'NONE', *, *, #197, .F. ) ;
#301 = CARTESIAN_POINT ( 'NONE',  ( 0.000000000000000000, -4.750000000000000000, 71.00000000000000000 ) ) ;
#302 = FACE_BOUND ( 'NONE', #69, .T. ) ;
#303 = UNCERTAINTY_MEASURE_WITH_UNIT (LENGTH_MEASURE( 1.000000000000000082E-05 ), #21, 'distance_accuracy_value', 'NONE');
#304 = APPROVAL_ROLE ( '' ) ;
#305 = CARTESIAN_POINT ( 'NONE',  ( -0.7542076576758971473, -4.690463862014422780, 69.69973282715473317 ) ) ;
#306 = AXIS2_PLACEMENT_3D ( 'NONE', #56, #158, #181 ) ;
#307 = CARTESIAN_POINT ( 'NONE',  ( -1.422937125095562694, -4.532033235286848871, 70.51520864922065357 ) ) ;
#308 = DIRECTION ( 'NONE',  ( -0.000000000000000000, -0.000000000000000000, -1.000000000000000000 ) ) ;
#309 = ORIENTED_EDGE ( 'NONE', *, *, #311, .F. ) ;
#310 = DIRECTION ( 'NONE',  ( 1.000000000000000000, 0.000000000000000000, 0.000000000000000000 ) ) ;
#311 = EDGE_CURVE ( 'NONE', #355, #147, #116, .T. ) ;
#312 = DIRECTION ( 'NONE',  ( 0.000000000000000000, 0.000000000000000000, 1.000000000000000000 ) ) ;
#313 = VECTOR ( 'NONE', #308, 1000.000000000000000 ) ;
#314 = EDGE_LOOP ( 'NONE', ( #41, #390, #107, #334 ) ) ;
#315 = CARTESIAN_POINT ( 'NONE',  ( 0.000000000000000000, -4.750000000000000000, 72.50000000000000000 ) ) ;
#316 = PRODUCT ( 'Upper Leg Shaft V.3', 'Upper Leg Shaft V.3', '', ( #320 ) ) ;
#317 = ORIENTED_EDGE ( 'NONE', *, *, #230, .F. ) ;
#318 = CARTESIAN_POINT ( 'NONE',  ( 1.836582872836440728E-16, -2.250000000000000000, 69.49999999999998579 ) ) ;
#319 = EDGE_CURVE ( 'NONE', #167, #104, #43, .T. ) ;
#320 = MECHANICAL_CONTEXT ( 'NONE', #125, 'mechanical' ) ;
#321 = CARTESIAN_POINT ( 'NONE',  ( 0.4959738062884540000, -2.196696007338692080, 69.58088930281962803 ) ) ;
#322 = APPROVAL_STATUS ( 'not_yet_approved' ) ;
#323 = CARTESIAN_POINT ( 'NONE',  ( 0.000000000000000000, -4.750000000000000000, 72.50000000000000000 ) ) ;
#324 = COORDINATED_UNIVERSAL_TIME_OFFSET ( 7, 0, .BEHIND. ) ;
#325 = CARTESIAN_POINT ( 'NONE',  ( 0.9960512639345527885, -2.018946397208317922, 72.12555494594811023 ) ) ;
#326 = EDGE_CURVE ( 'NONE', #231, #7, #44, .T. ) ;
#327 = PRODUCT_DEFINITION_FORMATION_WITH_SPECIFIED_SOURCE ( 'ANY', '', #316, .NOT_KNOWN. ) ;
#328 = DATE_AND_TIME ( #98, #228 ) ;
#329 = DIRECTION ( 'NONE',  ( -0.000000000000000000, 1.000000000000000000, -0.000000000000000000 ) ) ;
#330 = CARTESIAN_POINT ( 'NONE',  ( -1.306292352198410001, -1.834482384198568683, 70.23735142710732759 ) ) ;
#331 = ORIENTED_EDGE ( 'NONE', *, *, #319, .F. ) ;
#332 = FACE_OUTER_BOUND ( 'NONE', #394, .T. ) ;
#333 = CARTESIAN_POINT ( 'NONE',  ( 1.198460990309689445, -4.598483674692649181, 71.92274679251239888 ) ) ;
#334 = ORIENTED_EDGE ( 'NONE', *, *, #395, .T. ) ;
#335 = AXIS2_PLACEMENT_3D ( 'NONE', #301, #329, #354 ) ;
#336 = CARTESIAN_POINT ( 'NONE',  ( 0.9911264424675186868, -4.645987736289736603, 69.86985517199200046 ) ) ;
#337 = LINE ( 'NONE', #143, #403 ) ;
#338 = CARTESIAN_POINT ( 'NONE',  ( -4.750000000000000000, 0.000000000000000000, 75.00000000000000000 ) ) ;
#339 = CARTESIAN_POINT ( 'NONE',  ( 4.750000000000000000, 5.817072295949927426E-16, 75.00000000000000000 ) ) ;
#340 = CC_DESIGN_PERSON_AND_ORGANIZATION_ASSIGNMENT ( #32, #296, ( #327 ) ) ;
#341 = DIRECTION ( 'NONE',  ( 0.000000000000000000, 0.000000000000000000, 1.000000000000000000 ) ) ;
#342 = DATE_AND_TIME ( #159, #237 ) ;
#343 = AXIS2_PLACEMENT_3D ( 'NONE', #278, #364, #274 ) ;
#344 = CARTESIAN_POINT ( 'NONE',  ( 0.000000000000000000, -2.250000000000000000, 72.50000000000000000 ) ) ;
#345 = CARTESIAN_POINT ( 'NONE',  ( 0.000000000000000000, 0.000000000000000000, 75.00000000000000000 ) ) ;
#346 = EDGE_CURVE ( 'NONE', #167, #149, #119, .T. ) ;
#347 = CYLINDRICAL_SURFACE ( 'NONE', #14, 1.500000000000001332 ) ;
#348 = CARTESIAN_POINT ( 'NONE',  ( 1.305333641292761637, -1.835151245831248668, 71.76395522917920289 ) ) ;
#349 = CARTESIAN_POINT ( 'NONE',  ( -2.250000000000000000, 2.755455298081544285E-16, 63.00000000000000000 ) ) ;
#350 = APPROVAL ( #192, 'UNSPECIFIED' ) ;
#351 = CARTESIAN_POINT ( 'NONE',  ( 1.196771797280347549, -1.911357623779139869, 71.92396184562447559 ) ) ;
#352 = CARTESIAN_POINT ( 'NONE',  ( 1.309889500885964564, -4.566490556496249908, 71.75650036052886094 ) ) ;
#353 = ORIENTED_EDGE ( 'NONE', *, *, #128, .F. ) ;
#354 = DIRECTION ( 'NONE',  ( 0.000000000000000000, 0.000000000000000000, 1.000000000000000000 ) ) ;
#355 = VERTEX_POINT ( 'NONE', #87 ) ;
#356 = DIRECTION ( 'NONE',  ( 0.000000000000000000, 0.000000000000000000, 1.000000000000000000 ) ) ;
#357 = ORIENTED_EDGE ( 'NONE', *, *, #346, .F. ) ;
#358 = DESIGN_CONTEXT ( 'detailed design', #187, 'design' ) ;
#359 = CARTESIAN_POINT ( 'NONE',  ( -0.4962985378201896780, -2.196600622492735244, 69.58104060290261828 ) ) ;
#360 = EDGE_LOOP ( 'NONE', ( #357, #405, #353, #71 ) ) ;
#361 = CARTESIAN_POINT ( 'NONE',  ( 0.9159713217907694549, -4.661578704901670811, 72.19187652098680985 ) ) ;
#362 = APPROVAL_STATUS ( 'not_yet_approved' ) ;
#363 = AXIS2_PLACEMENT_3D ( 'NONE', #345, #54, #190 ) ;
#364 = DIRECTION ( 'NONE',  ( -0.000000000000000000, -0.000000000000000000, -1.000000000000000000 ) ) ;
#365 = CC_DESIGN_PERSON_AND_ORGANIZATION_ASSIGNMENT ( #227, #223, ( #327 ) ) ;
#366 = ADVANCED_BREP_SHAPE_REPRESENTATION ( 'Upper Leg Shaft V.3', ( #408, #218 ), #387 ) ;
#367 = PERSON_AND_ORGANIZATION ( #194, #283 ) ;
#368 = CARTESIAN_POINT ( 'NONE',  ( -1.422533337740624848, -4.532156365280318511, 71.48576450009821315 ) ) ;
#369 = CYLINDRICAL_SURFACE ( 'NONE', #343, 4.750000000000000000 ) ;
#370 = CARTESIAN_POINT ( 'NONE',  ( 0.000000000000000000, 0.000000000000000000, 75.00000000000000000 ) ) ;
#371 = CARTESIAN_POINT ( 'NONE',  ( 1.836689093020437609E-16, -4.750000000000000000, 69.49999999999998579 ) ) ;
#372 = PERSON_AND_ORGANIZATION ( #194, #283 ) ;
#373 = CC_DESIGN_APPROVAL ( #17, ( #141 ) ) ;
#374 = DIRECTION ( 'NONE',  ( 1.000000000000000000, 0.000000000000000000, -0.000000000000000000 ) ) ;
#375 = AXIS2_PLACEMENT_3D ( 'NONE', #253, #155, #26 ) ;
#376 = CYLINDRICAL_SURFACE ( 'NONE', #363, 4.750000000000000000 ) ;
#377 = CARTESIAN_POINT ( 'NONE',  ( 0.7623796870174416318, -2.118641176812829929, 72.29538491759279850 ) ) ;
#378 = B_SPLINE_CURVE_WITH_KNOTS ( 'NONE', 3,
 ( #136, #63, #106, #97, #102, #290, #385, #35, #131, #40, #269, #166, #38, #161, #193, #330, #261, #386, #137, #233, #267, #359, #36, #68, #393, #164 ),
 .UNSPECIFIED., .F., .F.,
 ( 4, 2, 2, 2, 2, 2, 2, 2, 2, 2, 2, 2, 4 ),
 ( 0.000000000000000000, 0.0003029974429611500186, 0.0006059948859223001456, 0.001211989771844584896, 0.001514987214805727433, 0.001817984657766869754, 0.002423979543689154612, 0.003029974429611439687, 0.003635969315533724763, 0.003938966758494880094, 0.004241964201456036726, 0.004544961644417192491, 0.004847959087378348256 ),
 .UNSPECIFIED. ) ;
#379 = APPLICATION_PROTOCOL_DEFINITION ( 'international standard', 'config_control_design', 1994, #187 ) ;
#380 = CARTESIAN_POINT ( 'NONE',  ( 0.4974022363580103967, -2.196319727844034730, 72.41852015041223467 ) ) ;
#381 = CARTESIAN_POINT ( 'NONE',  ( -0.09977079600678322169, -4.749999999999999112, 72.50000000000001421 ) ) ;
#382 = EDGE_LOOP ( 'NONE', ( #317, #22, #75, #234 ) ) ;
#383 = AXIS2_PLACEMENT_3D ( 'NONE', #46, #139, #111 ) ;
#384 = PERSON_AND_ORGANIZATION ( #194, #283 ) ;
#385 = CARTESIAN_POINT ( 'NONE',  ( -0.9296891763037639089, -2.054560569157082739, 72.19233202129869653 ) ) ;
#386 = CARTESIAN_POINT ( 'NONE',  ( -0.9962376055646386952, -2.018871568903007230, 69.87455891285419796 ) ) ;
#387 =( GEOMETRIC_REPRESENTATION_CONTEXT ( 3 ) GLOBAL_UNCERTAINTY_ASSIGNED_CONTEXT ( ( #303 ) ) GLOBAL_UNIT_ASSIGNED_CONTEXT ( ( #21, #28, #255 ) ) REPRESENTATION_CONTEXT ( 'NONE', 'WORKASPACE' ) );
#388 = CARTESIAN_POINT ( 'NONE',  ( 0.3904184536540795114, -4.734911218803325106, 72.45162646463069223 ) ) ;
#389 = ADVANCED_FACE ( 'NONE', ( #216 ), #287, .T. ) ;
#390 = ORIENTED_EDGE ( 'NONE', *, *, #182, .F. ) ;
#391 = AXIS2_PLACEMENT_3D ( 'NONE', #370, #79, #176 ) ;
#392 = DIRECTION ( 'NONE',  ( 1.000000000000000000, 0.000000000000000000, 0.000000000000000000 ) ) ;
#393 = CARTESIAN_POINT ( 'NONE',  ( -0.1011296198010306485, -2.250000000000000000, 69.49999999999998579 ) ) ;
#394 = EDGE_LOOP ( 'NONE', ( #331, #78, #66, #266 ) ) ;
#395 = EDGE_CURVE ( 'NONE', #147, #7, #129, .T. ) ;
#396 = CARTESIAN_POINT ( 'NONE',  ( -1.309040464263351744, -4.566750955964232972, 70.24138024941085234 ) ) ;
#397 = VECTOR ( 'NONE', #174, 1000.000000000000000 ) ;
#398 = CARTESIAN_POINT ( 'NONE',  ( -1.490320993025866070, -4.510194607556153201, 71.19666875757208402 ) ) ;
#399 = CARTESIAN_POINT ( 'NONE',  ( 0.000000000000000000, 0.000000000000000000, 0.000000000000000000 ) ) ;
#400 = EDGE_LOOP ( 'NONE', ( #126, #165 ) ) ;
#401 = FACE_BOUND ( 'NONE', #400, .T. ) ;
#402 = ORIENTED_EDGE ( 'NONE', *, *, #189, .T. ) ;
#403 = VECTOR ( 'NONE', #207, 1000.000000000000000 ) ;
#404 = CARTESIAN_POINT ( 'NONE',  ( 0.000000000000000000, 0.000000000000000000, 63.00000000000000000 ) ) ;
#405 = ORIENTED_EDGE ( 'NONE', *, *, #319, .T. ) ;
#406 = CARTESIAN_POINT ( 'NONE',  ( -0.9922629348280022077, -4.645738360259401567, 72.12909935138772255 ) ) ;
#407 = PLANE ( 'NONE',  #93 ) ;
#408 = MANIFOLD_SOLID_BREP ( 'Cut-Extrude2', #85 ) ;
#409 = EDGE_CURVE ( 'NONE', #27, #209, #86, .T. ) ;
#410 = DATE_AND_TIME ( #180, #154 ) ;
#411 = CARTESIAN_POINT ( 'NONE',  ( 1.500139586193826702, -1.676926133492397497, 70.79609042628642612 ) ) ;
#412 = CARTESIAN_POINT ( 'NONE',  ( 0.7701503462868465322, -2.122550801475025839, 69.69756796967425316 ) ) ;
#413 = CARTESIAN_POINT ( 'NONE',  ( -0.7533344055152023655, -4.690606438625935404, 72.30078193931490205 ) ) ;
#414 = ADVANCED_FACE ( 'NONE', ( #152 ), #347, .F. ) ;
#415 = CARTESIAN_POINT ( 'NONE',  ( 0.9310210227591072529, -2.053958042949926899, 69.80867925714420608 ) ) ;
#416 = COORDINATED_UNIVERSAL_TIME_OFFSET ( 7, 0, .BEHIND. ) ;
#417 = CARTESIAN_POINT ( 'NONE',  ( 0.1978035778008827850, -4.746860495476184383, 72.49014083441096545 ) ) ;
ENDSEC;
END-ISO-10303-21;
