ISO-10303-21;
HEADER;
FILE_DESCRIPTION (( 'STEP AP214' ),
    '1' );
FILE_NAME ('8mm shaft.STEP',
    '2026-04-10T04:48:54',
    ( '' ),
    ( '' ),
    'SwSTEP 2.0',
    'SolidWorks 2025',
    '' );
FILE_SCHEMA (( 'AUTOMOTIVE_DESIGN' ));
ENDSEC;

DATA;
#1 = DIRECTION ( 'NONE',  ( 1.000000000000000000, 0.000000000000000000, 0.000000000000000000 ) ) ;
#2 = APPLICATION_CONTEXT ( 'automotive_design' ) ;
#3 = CARTESIAN_POINT ( 'NONE',  ( 0.000000000000000000, 0.000000000000000000, 1.000000000000000888 ) ) ;
#4 = CIRCLE ( 'NONE', #146, 1.000000000000000000 ) ;
#5 = EDGE_CURVE ( 'NONE', #74, #81, #117, .T. ) ;
#6 = EDGE_LOOP ( 'NONE', ( #24, #26, #54, #219 ) ) ;
#7 = FACE_OUTER_BOUND ( 'NONE', #244, .T. ) ;
#8 = ORIENTED_EDGE ( 'NONE', *, *, #5, .F. ) ;
#9 = VERTEX_POINT ( 'NONE', #154 ) ;
#10 = DIRECTION ( 'NONE',  ( 1.224646799147353207E-16, 1.000000000000000000, 0.000000000000000000 ) ) ;
#11 = FACE_OUTER_BOUND ( 'NONE', #176, .T. ) ;
#12 = DIRECTION ( 'NONE',  ( -0.000000000000000000, 0.000000000000000000, 1.000000000000000000 ) ) ;
#13 = TOROIDAL_SURFACE ( 'NONE', #161, 4.800000000000000711, 1.000000000000000000 ) ;
#14 = DIRECTION ( 'NONE',  ( -0.000000000000000000, 0.000000000000000000, 1.000000000000000000 ) ) ;
#15 = EDGE_LOOP ( 'NONE', ( #157, #105, #136, #177 ) ) ;
#16 = MECHANICAL_DESIGN_GEOMETRIC_PRESENTATION_REPRESENTATION (  '', ( #255 ), #189 ) ;
#17 = ADVANCED_FACE ( 'NONE', ( #237 ), #213, .T. ) ;
#18 = DIRECTION ( 'NONE',  ( -1.000000000000000000, 0.000000000000000000, 0.000000000000000000 ) ) ;
#19 = EDGE_LOOP ( 'NONE', ( #50, #103 ) ) ;
#20 = CARTESIAN_POINT ( 'NONE',  ( 0.000000000000000000, 0.000000000000000000, 0.000000000000000000 ) ) ;
#21 = ADVANCED_FACE ( 'NONE', ( #98 ), #214, .F. ) ;
#22 =( NAMED_UNIT ( * ) SI_UNIT ( $, .STERADIAN. ) SOLID_ANGLE_UNIT ( ) );
#23 = CARTESIAN_POINT ( 'NONE',  ( 4.800000000000000711, 0.000000000000000000, 4.336808689942017736E-16 ) ) ;
#24 = ORIENTED_EDGE ( 'NONE', *, *, #167, .F. ) ;
#25 = DIRECTION ( 'NONE',  ( -0.000000000000000000, -0.000000000000000000, -1.000000000000000000 ) ) ;
#26 = ORIENTED_EDGE ( 'NONE', *, *, #48, .T. ) ;
#27 = DIRECTION ( 'NONE',  ( 1.000000000000000000, 0.000000000000000000, 0.000000000000000000 ) ) ;
#28 = EDGE_CURVE ( 'NONE', #36, #153, #109, .T. ) ;
#29 = CARTESIAN_POINT ( 'NONE',  ( 0.000000000000000000, 0.000000000000000000, -3.000000000000000000 ) ) ;
#30 = CARTESIAN_POINT ( 'NONE',  ( -9.799999999999998934, 1.200153863164406148E-15, 0.000000000000000000 ) ) ;
#31 = DIRECTION ( 'NONE',  ( 1.000000000000000000, 0.000000000000000000, 0.000000000000000000 ) ) ;
#32 = DIRECTION ( 'NONE',  ( -0.000000000000000000, 0.000000000000000000, 1.000000000000000000 ) ) ;
#33 = DIRECTION ( 'NONE',  ( 1.000000000000000000, 0.000000000000000000, 0.000000000000000000 ) ) ;
#34 = EDGE_LOOP ( 'NONE', ( #62, #151, #64, #41 ) ) ;
#35 = DIRECTION ( 'NONE',  ( 0.000000000000000000, -0.000000000000000000, -1.000000000000000000 ) ) ;
#36 = VERTEX_POINT ( 'NONE', #204 ) ;
#37 = PRODUCT_DEFINITION_SHAPE ( 'NONE', 'NONE',  #49 ) ;
#38 = ORIENTED_EDGE ( 'NONE', *, *, #28, .T. ) ;
#39 = SURFACE_STYLE_FILL_AREA ( #40 ) ;
#40 = FILL_AREA_STYLE ('',( #199 ) ) ;
#41 = ORIENTED_EDGE ( 'NONE', *, *, #28, .F. ) ;
#42 = CARTESIAN_POINT ( 'NONE',  ( -3.800000000000000266, 0.000000000000000000, 1.000000000000000888 ) ) ;
#43 = FACE_OUTER_BOUND ( 'NONE', #159, .T. ) ;
#44 = CARTESIAN_POINT ( 'NONE',  ( 0.000000000000000000, 0.000000000000000000, 0.000000000000000000 ) ) ;
#45 = AXIS2_PLACEMENT_3D ( 'NONE', #124, #144, #221 ) ;
#46 = APPLICATION_PROTOCOL_DEFINITION ( 'draft international standard', 'automotive_design', 1998, #250 ) ;
#47 = DIRECTION ( 'NONE',  ( 0.000000000000000000, -1.000000000000000000, 0.000000000000000000 ) ) ;
#48 = EDGE_CURVE ( 'NONE', #239, #66, #253, .T. ) ;
#49 = PRODUCT_DEFINITION ( 'UNKNOWN', '', #82, #209 ) ;
#50 = ORIENTED_EDGE ( 'NONE', *, *, #100, .F. ) ;
#51 = FACE_OUTER_BOUND ( 'NONE', #6, .T. ) ;
#52 = DIRECTION ( 'NONE',  ( 1.000000000000000000, 0.000000000000000000, 0.000000000000000000 ) ) ;
#53 = CARTESIAN_POINT ( 'NONE',  ( 0.000000000000000000, 0.000000000000000000, 0.000000000000000000 ) ) ;
#54 = ORIENTED_EDGE ( 'NONE', *, *, #72, .T. ) ;
#55 = AXIS2_PLACEMENT_3D ( 'NONE', #20, #35, #1 ) ;
#56 = ADVANCED_FACE ( 'NONE', ( #7 ), #202, .T. ) ;
#57 = EDGE_CURVE ( 'NONE', #81, #74, #92, .T. ) ;
#58 = PRODUCT_CONTEXT ( 'NONE', #250, 'mechanical' ) ;
#59 = ORIENTED_EDGE ( 'NONE', *, *, #235, .T. ) ;
#60 = CLOSED_SHELL ( 'NONE', ( #228, #172, #17, #198, #56, #241, #21, #149, #175 ) ) ;
#61 = ORIENTED_EDGE ( 'NONE', *, *, #235, .F. ) ;
#62 = ORIENTED_EDGE ( 'NONE', *, *, #187, .F. ) ;
#63 = LINE ( 'NONE', #225, #246 ) ;
#64 = ORIENTED_EDGE ( 'NONE', *, *, #194, .T. ) ;
#65 = CARTESIAN_POINT ( 'NONE',  ( 9.799999999999998934, 0.000000000000000000, -3.000000000000000000 ) ) ;
#66 = VERTEX_POINT ( 'NONE', #65 ) ;
#67 = SURFACE_SIDE_STYLE ('',( #39 ) ) ;
#68 = CIRCLE ( 'NONE', #211, 3.800000000000000266 ) ;
#69 = CIRCLE ( 'NONE', #185, 3.800000000000000266 ) ;
#70 = FACE_BOUND ( 'NONE', #203, .T. ) ;
#71 = MANIFOLD_SOLID_BREP ( 'Fillet1', #60 ) ;
#72 = EDGE_CURVE ( 'NONE', #66, #9, #88, .T. ) ;
#73 = DIRECTION ( 'NONE',  ( -0.000000000000000000, 0.000000000000000000, 1.000000000000000000 ) ) ;
#74 = VERTEX_POINT ( 'NONE', #23 ) ;
#75 = DIRECTION ( 'NONE',  ( 1.000000000000000000, 0.000000000000000000, 0.000000000000000000 ) ) ;
#76 =( NAMED_UNIT ( * ) SI_UNIT ( $, .STERADIAN. ) SOLID_ANGLE_UNIT ( ) );
#77 = CARTESIAN_POINT ( 'NONE',  ( 4.800000000000000711, 0.000000000000000000, 1.000000000000000888 ) ) ;
#78 = ADVANCED_BREP_SHAPE_REPRESENTATION ( '8mm shaft', ( #71, #232 ), #101 ) ;
#79 = VECTOR ( 'NONE', #87, 1000.000000000000000 ) ;
#80 = TOROIDAL_SURFACE ( 'NONE', #224, 4.800000000000000711, 1.000000000000000000 ) ;
#81 = VERTEX_POINT ( 'NONE', #122 ) ;
#82 = PRODUCT_DEFINITION_FORMATION_WITH_SPECIFIED_SOURCE ( 'ANY', '', #99, .NOT_KNOWN. ) ;
#83 = ORIENTED_EDGE ( 'NONE', *, *, #108, .T. ) ;
#84 = AXIS2_PLACEMENT_3D ( 'NONE', #186, #129, #227 ) ;
#85 = CARTESIAN_POINT ( 'NONE',  ( -3.800000000000000266, 0.000000000000000000, 50.00000000000000000 ) ) ;
#86 = VERTEX_POINT ( 'NONE', #242 ) ;
#87 = DIRECTION ( 'NONE',  ( 0.000000000000000000, 0.000000000000000000, 1.000000000000000000 ) ) ;
#88 = LINE ( 'NONE', #143, #79 ) ;
#89 = DIRECTION ( 'NONE',  ( -1.000000000000000000, 1.224646799147353454E-16, 0.000000000000000000 ) ) ;
#90 = CYLINDRICAL_SURFACE ( 'NONE', #84, 3.800000000000000266 ) ;
#91 = ORIENTED_EDGE ( 'NONE', *, *, #108, .F. ) ;
#92 = CIRCLE ( 'NONE', #236, 4.800000000000000711 ) ;
#93 = DIRECTION ( 'NONE',  ( 0.000000000000000000, 0.000000000000000000, 1.000000000000000000 ) ) ;
#94 = DIRECTION ( 'NONE',  ( 0.000000000000000000, 0.000000000000000000, 1.000000000000000000 ) ) ;
#95 = DIRECTION ( 'NONE',  ( -0.000000000000000000, 0.000000000000000000, 1.000000000000000000 ) ) ;
#96 = AXIS2_PLACEMENT_3D ( 'NONE', #207, #12, #52 ) ;
#97 = SHAPE_DEFINITION_REPRESENTATION ( #37, #78 ) ;
#98 = FACE_OUTER_BOUND ( 'NONE', #19, .T. ) ;
#99 = PRODUCT ( '8mm shaft', '8mm shaft', '', ( #58 ) ) ;
#100 = EDGE_CURVE ( 'NONE', #66, #239, #223, .T. ) ;
#101 =( GEOMETRIC_REPRESENTATION_CONTEXT ( 3 ) GLOBAL_UNCERTAINTY_ASSIGNED_CONTEXT ( ( #152 ) ) GLOBAL_UNIT_ASSIGNED_CONTEXT ( ( #147, #130, #76 ) ) REPRESENTATION_CONTEXT ( 'NONE', 'WORKASPACE' ) );
#102 = AXIS2_PLACEMENT_3D ( 'NONE', #29, #120, #220 ) ;
#103 = ORIENTED_EDGE ( 'NONE', *, *, #48, .F. ) ;
#104 = DIRECTION ( 'NONE',  ( -0.000000000000000000, 0.000000000000000000, 1.000000000000000000 ) ) ;
#105 = ORIENTED_EDGE ( 'NONE', *, *, #194, .F. ) ;
#106 = ORIENTED_EDGE ( 'NONE', *, *, #187, .T. ) ;
#107 = PRESENTATION_STYLE_ASSIGNMENT (( #245 ) ) ;
#108 = EDGE_CURVE ( 'NONE', #153, #257, #68, .T. ) ;
#109 = LINE ( 'NONE', #85, #243 ) ;
#110 = AXIS2_PLACEMENT_3D ( 'NONE', #53, #208, #126 ) ;
#111 = FACE_OUTER_BOUND ( 'NONE', #123, .T. ) ;
#112 = CYLINDRICAL_SURFACE ( 'NONE', #179, 9.799999999999998934 ) ;
#113 = CIRCLE ( 'NONE', #190, 3.800000000000000266 ) ;
#114 = CARTESIAN_POINT ( 'NONE',  ( 0.000000000000000000, 0.000000000000000000, 1.000000000000000888 ) ) ;
#115 = DIRECTION ( 'NONE',  ( 0.000000000000000000, 0.000000000000000000, -1.000000000000000000 ) ) ;
#116 = EDGE_CURVE ( 'NONE', #153, #81, #184, .T. ) ;
#117 = CIRCLE ( 'NONE', #55, 4.800000000000000711 ) ;
#118 = CARTESIAN_POINT ( 'NONE',  ( 0.000000000000000000, 0.000000000000000000, 50.00000000000000000 ) ) ;
#119 = CIRCLE ( 'NONE', #110, 9.799999999999998934 ) ;
#120 = DIRECTION ( 'NONE',  ( -0.000000000000000000, 0.000000000000000000, 1.000000000000000000 ) ) ;
#121 = AXIS2_PLACEMENT_3D ( 'NONE', #231, #94, #33 ) ;
#122 = CARTESIAN_POINT ( 'NONE',  ( -4.800000000000000711, 5.878304635907295197E-16, 4.336808689942017736E-16 ) ) ;
#123 = EDGE_LOOP ( 'NONE', ( #234, #134, #38, #83 ) ) ;
#124 = CARTESIAN_POINT ( 'NONE',  ( 0.000000000000000000, 0.000000000000000000, -3.000000000000000000 ) ) ;
#125 = DIRECTION ( 'NONE',  ( 1.000000000000000000, 0.000000000000000000, 0.000000000000000000 ) ) ;
#126 = DIRECTION ( 'NONE',  ( 1.000000000000000000, 0.000000000000000000, 0.000000000000000000 ) ) ;
#127 = CARTESIAN_POINT ( 'NONE',  ( -9.799999999999998934, 1.200153863164406148E-15, -3.000000000000000000 ) ) ;
#128 = DIRECTION ( 'NONE',  ( 0.000000000000000000, 0.000000000000000000, 1.000000000000000000 ) ) ;
#129 = DIRECTION ( 'NONE',  ( -0.000000000000000000, -0.000000000000000000, -1.000000000000000000 ) ) ;
#130 =( NAMED_UNIT ( * ) PLANE_ANGLE_UNIT ( ) SI_UNIT ( $, .RADIAN. ) );
#131 = EDGE_CURVE ( 'NONE', #86, #257, #63, .T. ) ;
#132 = APPLICATION_PROTOCOL_DEFINITION ( 'draft international standard', 'automotive_design', 1998, #2 ) ;
#133 = PRODUCT_RELATED_PRODUCT_CATEGORY ( 'part', '', ( #99 ) ) ;
#134 = ORIENTED_EDGE ( 'NONE', *, *, #247, .F. ) ;
#135 = ORIENTED_EDGE ( 'NONE', *, *, #167, .T. ) ;
#136 = ORIENTED_EDGE ( 'NONE', *, *, #215, .T. ) ;
#137 = DIRECTION ( 'NONE',  ( 0.000000000000000000, -0.000000000000000000, -1.000000000000000000 ) ) ;
#138 = CARTESIAN_POINT ( 'NONE',  ( -9.799999999999998934, 1.200153863164406148E-15, -3.000000000000000000 ) ) ;
#139 = ORIENTED_EDGE ( 'NONE', *, *, #100, .T. ) ;
#140 = CARTESIAN_POINT ( 'NONE',  ( 0.000000000000000000, 0.000000000000000000, -3.000000000000000000 ) ) ;
#141 = CIRCLE ( 'NONE', #96, 3.800000000000000266 ) ;
#142 = ORIENTED_EDGE ( 'NONE', *, *, #57, .T. ) ;
#143 = CARTESIAN_POINT ( 'NONE',  ( 9.799999999999998934, 0.000000000000000000, -3.000000000000000000 ) ) ;
#144 = DIRECTION ( 'NONE',  ( -0.000000000000000000, 0.000000000000000000, 1.000000000000000000 ) ) ;
#145 = CYLINDRICAL_SURFACE ( 'NONE', #121, 9.799999999999998934 ) ;
#146 = AXIS2_PLACEMENT_3D ( 'NONE', #77, #47, #115 ) ;
#147 =( LENGTH_UNIT ( ) NAMED_UNIT ( * ) SI_UNIT ( .MILLI., .METRE. ) );
#148 = CARTESIAN_POINT ( 'NONE',  ( 0.000000000000000000, 0.000000000000000000, 50.00000000000000000 ) ) ;
#149 = ADVANCED_FACE ( 'NONE', ( #70, #43 ), #163, .T. ) ;
#150 = AXIS2_PLACEMENT_3D ( 'NONE', #210, #95, #171 ) ;
#151 = ORIENTED_EDGE ( 'NONE', *, *, #131, .T. ) ;
#152 = UNCERTAINTY_MEASURE_WITH_UNIT (LENGTH_MEASURE( 1.000000000000000082E-05 ), #147, 'distance_accuracy_value', 'NONE');
#153 = VERTEX_POINT ( 'NONE', #42 ) ;
#154 = CARTESIAN_POINT ( 'NONE',  ( 9.799999999999998934, 0.000000000000000000, 0.000000000000000000 ) ) ;
#155 = ORIENTED_EDGE ( 'NONE', *, *, #116, .T. ) ;
#156 =( LENGTH_UNIT ( ) NAMED_UNIT ( * ) SI_UNIT ( .MILLI., .METRE. ) );
#157 = ORIENTED_EDGE ( 'NONE', *, *, #116, .F. ) ;
#158 = CARTESIAN_POINT ( 'NONE',  ( 0.000000000000000000, 0.000000000000000000, 0.000000000000000000 ) ) ;
#159 = EDGE_LOOP ( 'NONE', ( #59, #230 ) ) ;
#160 = DIRECTION ( 'NONE',  ( -0.000000000000000000, -0.000000000000000000, -1.000000000000000000 ) ) ;
#161 = AXIS2_PLACEMENT_3D ( 'NONE', #114, #73, #191 ) ;
#162 = DIRECTION ( 'NONE',  ( -0.000000000000000000, 0.000000000000000000, 1.000000000000000000 ) ) ;
#163 = PLANE ( 'NONE',  #193 ) ;
#164 = UNCERTAINTY_MEASURE_WITH_UNIT (LENGTH_MEASURE( 1.000000000000000082E-05 ), #156, 'distance_accuracy_value', 'NONE');
#165 = CARTESIAN_POINT ( 'NONE',  ( 0.000000000000000000, 0.000000000000000000, 50.00000000000000000 ) ) ;
#166 = ORIENTED_EDGE ( 'NONE', *, *, #5, .T. ) ;
#167 = EDGE_CURVE ( 'NONE', #239, #197, #249, .T. ) ;
#168 = CARTESIAN_POINT ( 'NONE',  ( 3.800000000000000266, 4.653657836759942730E-16, 1.000000000000000888 ) ) ;
#169 = CARTESIAN_POINT ( 'NONE',  ( 0.000000000000000000, 0.000000000000000000, 1.000000000000000888 ) ) ;
#170 = FACE_OUTER_BOUND ( 'NONE', #15, .T. ) ;
#171 = DIRECTION ( 'NONE',  ( 1.000000000000000000, 0.000000000000000000, 0.000000000000000000 ) ) ;
#172 = ADVANCED_FACE ( 'NONE', ( #251 ), #145, .T. ) ;
#173 = AXIS2_PLACEMENT_3D ( 'NONE', #248, #10, #89 ) ;
#174 = AXIS2_PLACEMENT_3D ( 'NONE', #140, #162, #125 ) ;
#175 = ADVANCED_FACE ( 'NONE', ( #170 ), #80, .F. ) ;
#176 = EDGE_LOOP ( 'NONE', ( #91, #155, #8, #201 ) ) ;
#177 = ORIENTED_EDGE ( 'NONE', *, *, #57, .F. ) ;
#178 = CARTESIAN_POINT ( 'NONE',  ( 0.000000000000000000, 0.000000000000000000, 50.00000000000000000 ) ) ;
#179 = AXIS2_PLACEMENT_3D ( 'NONE', #188, #93, #75 ) ;
#180 = ORIENTED_EDGE ( 'NONE', *, *, #72, .F. ) ;
#181 = DIRECTION ( 'NONE',  ( -0.000000000000000000, 0.000000000000000000, 1.000000000000000000 ) ) ;
#182 = ORIENTED_EDGE ( 'NONE', *, *, #247, .T. ) ;
#183 =( NAMED_UNIT ( * ) PLANE_ANGLE_UNIT ( ) SI_UNIT ( $, .RADIAN. ) );
#184 = CIRCLE ( 'NONE', #173, 1.000000000000000000 ) ;
#185 = AXIS2_PLACEMENT_3D ( 'NONE', #148, #32, #252 ) ;
#186 = CARTESIAN_POINT ( 'NONE',  ( 0.000000000000000000, 0.000000000000000000, 50.00000000000000000 ) ) ;
#187 = EDGE_CURVE ( 'NONE', #86, #36, #113, .T. ) ;
#188 = CARTESIAN_POINT ( 'NONE',  ( 0.000000000000000000, 0.000000000000000000, -3.000000000000000000 ) ) ;
#189 =( GEOMETRIC_REPRESENTATION_CONTEXT ( 3 ) GLOBAL_UNCERTAINTY_ASSIGNED_CONTEXT ( ( #164 ) ) GLOBAL_UNIT_ASSIGNED_CONTEXT ( ( #156, #183, #22 ) ) REPRESENTATION_CONTEXT ( 'NONE', 'WORKASPACE' ) );
#190 = AXIS2_PLACEMENT_3D ( 'NONE', #165, #212, #31 ) ;
#191 = DIRECTION ( 'NONE',  ( 1.000000000000000000, 0.000000000000000000, 0.000000000000000000 ) ) ;
#192 = DIRECTION ( 'NONE',  ( -0.000000000000000000, -0.000000000000000000, -1.000000000000000000 ) ) ;
#193 = AXIS2_PLACEMENT_3D ( 'NONE', #158, #104, #226 ) ;
#194 = EDGE_CURVE ( 'NONE', #257, #153, #141, .T. ) ;
#195 = CARTESIAN_POINT ( 'NONE',  ( 0.000000000000000000, 0.000000000000000000, 0.000000000000000000 ) ) ;
#196 = EDGE_CURVE ( 'NONE', #197, #9, #119, .T. ) ;
#197 = VERTEX_POINT ( 'NONE', #30 ) ;
#198 = ADVANCED_FACE ( 'NONE', ( #111 ), #90, .T. ) ;
#199 = FILL_AREA_STYLE_COLOUR ( '', #254 ) ;
#200 = AXIS2_PLACEMENT_3D ( 'NONE', #178, #181, #205 ) ;
#201 = ORIENTED_EDGE ( 'NONE', *, *, #215, .F. ) ;
#202 = PLANE ( 'NONE',  #200 ) ;
#203 = EDGE_LOOP ( 'NONE', ( #166, #142 ) ) ;
#204 = CARTESIAN_POINT ( 'NONE',  ( -3.800000000000000266, 0.000000000000000000, 50.00000000000000000 ) ) ;
#205 = DIRECTION ( 'NONE',  ( 1.000000000000000000, 0.000000000000000000, 0.000000000000000000 ) ) ;
#206 = AXIS2_PLACEMENT_3D ( 'NONE', #118, #192, #18 ) ;
#207 = CARTESIAN_POINT ( 'NONE',  ( 0.000000000000000000, 0.000000000000000000, 1.000000000000000888 ) ) ;
#208 = DIRECTION ( 'NONE',  ( -0.000000000000000000, 0.000000000000000000, 1.000000000000000000 ) ) ;
#209 = PRODUCT_DEFINITION_CONTEXT ( 'detailed design', #2, 'design' ) ;
#210 = CARTESIAN_POINT ( 'NONE',  ( 0.000000000000000000, 0.000000000000000000, 0.000000000000000000 ) ) ;
#211 = AXIS2_PLACEMENT_3D ( 'NONE', #3, #240, #222 ) ;
#212 = DIRECTION ( 'NONE',  ( -0.000000000000000000, 0.000000000000000000, 1.000000000000000000 ) ) ;
#213 = CYLINDRICAL_SURFACE ( 'NONE', #206, 3.800000000000000266 ) ;
#214 = PLANE ( 'NONE',  #102 ) ;
#215 = EDGE_CURVE ( 'NONE', #257, #74, #4, .T. ) ;
#216 = DIRECTION ( 'NONE',  ( 1.000000000000000000, 0.000000000000000000, 0.000000000000000000 ) ) ;
#217 = EDGE_LOOP ( 'NONE', ( #139, #135, #61, #180 ) ) ;
#218 = DIRECTION ( 'NONE',  ( 0.000000000000000000, 0.000000000000000000, 1.000000000000000000 ) ) ;
#219 = ORIENTED_EDGE ( 'NONE', *, *, #196, .F. ) ;
#220 = DIRECTION ( 'NONE',  ( 1.000000000000000000, 0.000000000000000000, 0.000000000000000000 ) ) ;
#221 = DIRECTION ( 'NONE',  ( 1.000000000000000000, 0.000000000000000000, 0.000000000000000000 ) ) ;
#222 = DIRECTION ( 'NONE',  ( 1.000000000000000000, 0.000000000000000000, 0.000000000000000000 ) ) ;
#223 = CIRCLE ( 'NONE', #174, 9.799999999999998934 ) ;
#224 = AXIS2_PLACEMENT_3D ( 'NONE', #169, #14, #233 ) ;
#225 = CARTESIAN_POINT ( 'NONE',  ( 3.800000000000000266, 4.653657836759942730E-16, 50.00000000000000000 ) ) ;
#226 = DIRECTION ( 'NONE',  ( 1.000000000000000000, 0.000000000000000000, 0.000000000000000000 ) ) ;
#227 = DIRECTION ( 'NONE',  ( -1.000000000000000000, 0.000000000000000000, 0.000000000000000000 ) ) ;
#228 = ADVANCED_FACE ( 'NONE', ( #11 ), #13, .F. ) ;
#229 = CIRCLE ( 'NONE', #150, 9.799999999999998934 ) ;
#230 = ORIENTED_EDGE ( 'NONE', *, *, #196, .T. ) ;
#231 = CARTESIAN_POINT ( 'NONE',  ( 0.000000000000000000, 0.000000000000000000, -3.000000000000000000 ) ) ;
#232 = AXIS2_PLACEMENT_3D ( 'NONE', #195, #218, #216 ) ;
#233 = DIRECTION ( 'NONE',  ( 1.000000000000000000, 0.000000000000000000, 0.000000000000000000 ) ) ;
#234 = ORIENTED_EDGE ( 'NONE', *, *, #131, .F. ) ;
#235 = EDGE_CURVE ( 'NONE', #9, #197, #229, .T. ) ;
#236 = AXIS2_PLACEMENT_3D ( 'NONE', #44, #137, #27 ) ;
#237 = FACE_OUTER_BOUND ( 'NONE', #34, .T. ) ;
#238 = PRESENTATION_LAYER_ASSIGNMENT (  '', '', ( #255 ) ) ;
#239 = VERTEX_POINT ( 'NONE', #127 ) ;
#240 = DIRECTION ( 'NONE',  ( -0.000000000000000000, 0.000000000000000000, 1.000000000000000000 ) ) ;
#241 = ADVANCED_FACE ( 'NONE', ( #51 ), #112, .T. ) ;
#242 = CARTESIAN_POINT ( 'NONE',  ( 3.800000000000000266, 4.653657836759942730E-16, 50.00000000000000000 ) ) ;
#243 = VECTOR ( 'NONE', #160, 1000.000000000000000 ) ;
#244 = EDGE_LOOP ( 'NONE', ( #182, #106 ) ) ;
#245 = SURFACE_STYLE_USAGE ( .BOTH. , #67 ) ;
#246 = VECTOR ( 'NONE', #25, 1000.000000000000000 ) ;
#247 = EDGE_CURVE ( 'NONE', #36, #86, #69, .T. ) ;
#248 = CARTESIAN_POINT ( 'NONE',  ( -4.800000000000000711, 5.878304635907295197E-16, 1.000000000000000888 ) ) ;
#249 = LINE ( 'NONE', #138, #256 ) ;
#250 = APPLICATION_CONTEXT ( 'automotive_design' ) ;
#251 = FACE_OUTER_BOUND ( 'NONE', #217, .T. ) ;
#252 = DIRECTION ( 'NONE',  ( 1.000000000000000000, 0.000000000000000000, 0.000000000000000000 ) ) ;
#253 = CIRCLE ( 'NONE', #45, 9.799999999999998934 ) ;
#254 = COLOUR_RGB ( '',0.7921568627450980005, 0.8196078431372548767, 0.9333333333333333481 ) ;
#255 = STYLED_ITEM ( 'NONE', ( #107 ), #71 ) ;
#256 = VECTOR ( 'NONE', #128, 1000.000000000000000 ) ;
#257 = VERTEX_POINT ( 'NONE', #168 ) ;
ENDSEC;
END-ISO-10303-21;
