ISO-10303-21;
HEADER;
FILE_DESCRIPTION (( 'STEP AP214' ),
    '1' );
FILE_NAME ('8mmendcap.STEP',
    '2026-04-11T00:21:53',
    ( '' ),
    ( '' ),
    'SwSTEP 2.0',
    'SolidWorks 2025',
    '' );
FILE_SCHEMA (( 'AUTOMOTIVE_DESIGN' ));
ENDSEC;

DATA;
#1 = PRESENTATION_LAYER_ASSIGNMENT (  '', '', ( #66 ) ) ;
#2 = CARTESIAN_POINT ( 'NONE',  ( 4.714890176717309515E-16, 1.000000000000000000, 3.850000000000000089 ) ) ;
#3 = ORIENTED_EDGE ( 'NONE', *, *, #24, .T. ) ;
#4 = DIRECTION ( 'NONE',  ( -0.000000000000000000, -1.000000000000000000, -0.000000000000000000 ) ) ;
#5 = CARTESIAN_POINT ( 'NONE',  ( 0.000000000000000000, 4.000000000000000000, 4.850000000000000533 ) ) ;
#6 = DIRECTION ( 'NONE',  ( 0.000000000000000000, 1.000000000000000000, 0.000000000000000000 ) ) ;
#7 = AXIS2_PLACEMENT_3D ( 'NONE', #126, #11, #196 ) ;
#8 = ORIENTED_EDGE ( 'NONE', *, *, #146, .F. ) ;
#9 = ADVANCED_FACE ( 'NONE', ( #270 ), #208, .T. ) ;
#10 = AXIS2_PLACEMENT_3D ( 'NONE', #275, #109, #47 ) ;
#11 = DIRECTION ( 'NONE',  ( 0.000000000000000000, 1.000000000000000000, 0.000000000000000000 ) ) ;
#12 = ORIENTED_EDGE ( 'NONE', *, *, #41, .F. ) ;
#13 = CARTESIAN_POINT ( 'NONE',  ( 0.000000000000000000, 0.000000000000000000, 4.850000000000000533 ) ) ;
#14 = AXIS2_PLACEMENT_3D ( 'NONE', #30, #115, #187 ) ;
#15 = ORIENTED_EDGE ( 'NONE', *, *, #146, .T. ) ;
#16 = PRODUCT_RELATED_PRODUCT_CATEGORY ( 'part', '', ( #141 ) ) ;
#17 = CARTESIAN_POINT ( 'NONE',  ( 1.083812417245407876E-15, 5.000000000000000000, 8.850000000000001421 ) ) ;
#18 = AXIS2_PLACEMENT_3D ( 'NONE', #284, #262, #25 ) ;
#19 = DIRECTION ( 'NONE',  ( 0.000000000000000000, 0.000000000000000000, 1.000000000000000000 ) ) ;
#20 = CARTESIAN_POINT ( 'NONE',  ( 0.000000000000000000, 5.000000000000000000, 0.000000000000000000 ) ) ;
#21 = EDGE_LOOP ( 'NONE', ( #8, #267, #169, #40 ) ) ;
#22 = VERTEX_POINT ( 'NONE', #176 ) ;
#23 = VERTEX_POINT ( 'NONE', #172 ) ;
#24 = EDGE_CURVE ( 'NONE', #134, #264, #129, .T. ) ;
#25 = DIRECTION ( 'NONE',  ( 1.224646799147353454E-16, 0.000000000000000000, -1.000000000000000000 ) ) ;
#26 = CIRCLE ( 'NONE', #50, 4.850000000000000533 ) ;
#27 = DIRECTION ( 'NONE',  ( 0.000000000000000000, 0.000000000000000000, -1.000000000000000000 ) ) ;
#28 = DIRECTION ( 'NONE',  ( 0.000000000000000000, 1.000000000000000000, 0.000000000000000000 ) ) ;
#29 = FACE_OUTER_BOUND ( 'NONE', #101, .T. ) ;
#30 = CARTESIAN_POINT ( 'NONE',  ( 0.000000000000000000, 5.000000000000000000, 0.000000000000000000 ) ) ;
#31 = DIRECTION ( 'NONE',  ( 0.000000000000000000, 1.000000000000000000, 0.000000000000000000 ) ) ;
#32 = EDGE_CURVE ( 'NONE', #150, #205, #26, .T. ) ;
#33 = PRESENTATION_STYLE_ASSIGNMENT (( #135 ) ) ;
#34 = AXIS2_PLACEMENT_3D ( 'NONE', #213, #28, #236 ) ;
#35 = ORIENTED_EDGE ( 'NONE', *, *, #62, .F. ) ;
#36 = TOROIDAL_SURFACE ( 'NONE', #122, 4.850000000000000533, 1.000000000000000000 ) ;
#37 = CARTESIAN_POINT ( 'NONE',  ( 0.000000000000000000, 5.000000000000000000, 0.000000000000000000 ) ) ;
#38 = ORIENTED_EDGE ( 'NONE', *, *, #102, .T. ) ;
#39 = CARTESIAN_POINT ( 'NONE',  ( 0.000000000000000000, 0.000000000000000000, -8.850000000000001421 ) ) ;
#40 = ORIENTED_EDGE ( 'NONE', *, *, #265, .F. ) ;
#41 = EDGE_CURVE ( 'NONE', #22, #264, #200, .T. ) ;
#42 = ORIENTED_EDGE ( 'NONE', *, *, #76, .T. ) ;
#43 = DIRECTION ( 'NONE',  ( 0.000000000000000000, 1.000000000000000000, 0.000000000000000000 ) ) ;
#44 = AXIS2_PLACEMENT_3D ( 'NONE', #80, #79, #60 ) ;
#45 = DIRECTION ( 'NONE',  ( 0.000000000000000000, 1.000000000000000000, 0.000000000000000000 ) ) ;
#46 = COLOUR_RGB ( '',0.7921568627450980005, 0.8196078431372548767, 0.9333333333333333481 ) ;
#47 = DIRECTION ( 'NONE',  ( 0.000000000000000000, 0.000000000000000000, 1.000000000000000000 ) ) ;
#48 = ADVANCED_FACE ( 'NONE', ( #151 ), #179, .F. ) ;
#49 = ORIENTED_EDGE ( 'NONE', *, *, #189, .T. ) ;
#50 = AXIS2_PLACEMENT_3D ( 'NONE', #58, #43, #222 ) ;
#51 = AXIS2_PLACEMENT_3D ( 'NONE', #5, #70, #281 ) ;
#52 = CARTESIAN_POINT ( 'NONE',  ( 0.000000000000000000, 1.000000000000000000, 4.850000000000000533 ) ) ;
#53 = EDGE_CURVE ( 'NONE', #251, #280, #83, .T. ) ;
#54 = SHAPE_DEFINITION_REPRESENTATION ( #145, #82 ) ;
#55 = ORIENTED_EDGE ( 'NONE', *, *, #289, .F. ) ;
#56 = PLANE ( 'NONE',  #203 ) ;
#57 = ORIENTED_EDGE ( 'NONE', *, *, #53, .F. ) ;
#58 = CARTESIAN_POINT ( 'NONE',  ( 0.000000000000000000, 0.000000000000000000, 0.000000000000000000 ) ) ;
#59 = CARTESIAN_POINT ( 'NONE',  ( 0.000000000000000000, 1.000000000000000000, -3.850000000000000089 ) ) ;
#60 = DIRECTION ( 'NONE',  ( 0.000000000000000000, 0.000000000000000000, 1.000000000000000000 ) ) ;
#61 = DIRECTION ( 'NONE',  ( 0.000000000000000000, 0.000000000000000000, 1.000000000000000000 ) ) ;
#62 = EDGE_CURVE ( 'NONE', #264, #134, #218, .T. ) ;
#63 = CARTESIAN_POINT ( 'NONE',  ( 0.000000000000000000, 5.000000000000000000, 0.000000000000000000 ) ) ;
#64 = ORIENTED_EDGE ( 'NONE', *, *, #32, .T. ) ;
#65 = EDGE_CURVE ( 'NONE', #257, #22, #90, .T. ) ;
#66 = STYLED_ITEM ( 'NONE', ( #33 ), #287 ) ;
#67 = CARTESIAN_POINT ( 'NONE',  ( 0.000000000000000000, 5.000000000000000000, 0.000000000000000000 ) ) ;
#68 = CIRCLE ( 'NONE', #51, 1.000000000000000000 ) ;
#69 = DIRECTION ( 'NONE',  ( 0.000000000000000000, -0.000000000000000000, 1.000000000000000000 ) ) ;
#70 = DIRECTION ( 'NONE',  ( -1.000000000000000000, 0.000000000000000000, 0.000000000000000000 ) ) ;
#71 = DIRECTION ( 'NONE',  ( 0.000000000000000000, 0.000000000000000000, 1.000000000000000000 ) ) ;
#72 = AXIS2_PLACEMENT_3D ( 'NONE', #192, #4, #27 ) ;
#73 = ORIENTED_EDGE ( 'NONE', *, *, #114, .F. ) ;
#74 = CYLINDRICAL_SURFACE ( 'NONE', #254, 3.850000000000000089 ) ;
#75 = VERTEX_POINT ( 'NONE', #272 ) ;
#76 = EDGE_CURVE ( 'NONE', #251, #75, #156, .T. ) ;
#77 = DIRECTION ( 'NONE',  ( 0.000000000000000000, -0.000000000000000000, 1.000000000000000000 ) ) ;
#78 = AXIS2_PLACEMENT_3D ( 'NONE', #94, #6, #139 ) ;
#79 = DIRECTION ( 'NONE',  ( 0.000000000000000000, 1.000000000000000000, 0.000000000000000000 ) ) ;
#80 = CARTESIAN_POINT ( 'NONE',  ( 0.000000000000000000, 1.000000000000000000, 0.000000000000000000 ) ) ;
#81 = CIRCLE ( 'NONE', #178, 3.850000000000000089 ) ;
#82 = ADVANCED_BREP_SHAPE_REPRESENTATION ( '8mmendcap', ( #287, #261 ), #88 ) ;
#83 = LINE ( 'NONE', #182, #274 ) ;
#84 = CIRCLE ( 'NONE', #232, 1.000000000000000000 ) ;
#85 = CARTESIAN_POINT ( 'NONE',  ( 0.000000000000000000, 0.000000000000000000, 0.000000000000000000 ) ) ;
#86 = ORIENTED_EDGE ( 'NONE', *, *, #32, .F. ) ;
#87 = EDGE_CURVE ( 'NONE', #75, #159, #131, .T. ) ;
#88 =( GEOMETRIC_REPRESENTATION_CONTEXT ( 3 ) GLOBAL_UNCERTAINTY_ASSIGNED_CONTEXT ( ( #292 ) ) GLOBAL_UNIT_ASSIGNED_CONTEXT ( ( #215, #231, #190 ) ) REPRESENTATION_CONTEXT ( 'NONE', 'WORKASPACE' ) );
#89 = EDGE_LOOP ( 'NONE', ( #99, #15 ) ) ;
#90 = CIRCLE ( 'NONE', #194, 8.850000000000001421 ) ;
#91 =( LENGTH_UNIT ( ) NAMED_UNIT ( * ) SI_UNIT ( .MILLI., .METRE. ) );
#92 = AXIS2_PLACEMENT_3D ( 'NONE', #52, #260, #191 ) ;
#93 = SURFACE_STYLE_FILL_AREA ( #303 ) ;
#94 = CARTESIAN_POINT ( 'NONE',  ( 0.000000000000000000, 4.000000000000000000, 0.000000000000000000 ) ) ;
#95 = CARTESIAN_POINT ( 'NONE',  ( 0.000000000000000000, 0.000000000000000000, 0.000000000000000000 ) ) ;
#96 = CARTESIAN_POINT ( 'NONE',  ( 0.000000000000000000, 0.000000000000000000, 0.000000000000000000 ) ) ;
#97 = ADVANCED_FACE ( 'NONE', ( #226 ), #107, .T. ) ;
#98 = CLOSED_SHELL ( 'NONE', ( #227, #9, #48, #97, #246, #153, #282, #119, #181, #250 ) ) ;
#99 = ORIENTED_EDGE ( 'NONE', *, *, #65, .T. ) ;
#100 = DIRECTION ( 'NONE',  ( -0.000000000000000000, -1.000000000000000000, -0.000000000000000000 ) ) ;
#101 = EDGE_LOOP ( 'NONE', ( #175, #123, #110, #154 ) ) ;
#102 = EDGE_CURVE ( 'NONE', #159, #205, #84, .T. ) ;
#103 = DIRECTION ( 'NONE',  ( 0.000000000000000000, 1.000000000000000000, 0.000000000000000000 ) ) ;
#104 = ORIENTED_EDGE ( 'NONE', *, *, #114, .T. ) ;
#105 = VECTOR ( 'NONE', #256, 1000.000000000000000 ) ;
#106 = EDGE_LOOP ( 'NONE', ( #229, #55, #49, #171 ) ) ;
#107 = CYLINDRICAL_SURFACE ( 'NONE', #113, 8.850000000000001421 ) ;
#108 = CIRCLE ( 'NONE', #7, 8.850000000000001421 ) ;
#109 = DIRECTION ( 'NONE',  ( 0.000000000000000000, 1.000000000000000000, 0.000000000000000000 ) ) ;
#110 = ORIENTED_EDGE ( 'NONE', *, *, #193, .T. ) ;
#111 = FACE_OUTER_BOUND ( 'NONE', #162, .T. ) ;
#112 = ORIENTED_EDGE ( 'NONE', *, *, #255, .T. ) ;
#113 = AXIS2_PLACEMENT_3D ( 'NONE', #20, #247, #204 ) ;
#114 = EDGE_CURVE ( 'NONE', #23, #197, #223, .T. ) ;
#115 = DIRECTION ( 'NONE',  ( -0.000000000000000000, -1.000000000000000000, -0.000000000000000000 ) ) ;
#116 = FACE_OUTER_BOUND ( 'NONE', #89, .T. ) ;
#117 = CARTESIAN_POINT ( 'NONE',  ( 4.714890176717309515E-16, 4.000000000000000000, 3.850000000000000089 ) ) ;
#118 = CARTESIAN_POINT ( 'NONE',  ( 0.000000000000000000, 4.000000000000000000, 0.000000000000000000 ) ) ;
#119 = ADVANCED_FACE ( 'NONE', ( #293 ), #74, .F. ) ;
#120 = APPLICATION_PROTOCOL_DEFINITION ( 'draft international standard', 'automotive_design', 1998, #239 ) ;
#121 = AXIS2_PLACEMENT_3D ( 'NONE', #95, #31, #214 ) ;
#122 = AXIS2_PLACEMENT_3D ( 'NONE', #138, #283, #164 ) ;
#123 = ORIENTED_EDGE ( 'NONE', *, *, #140, .F. ) ;
#124 = FACE_BOUND ( 'NONE', #195, .T. ) ;
#125 = ORIENTED_EDGE ( 'NONE', *, *, #87, .F. ) ;
#126 = CARTESIAN_POINT ( 'NONE',  ( 0.000000000000000000, 5.000000000000000000, 0.000000000000000000 ) ) ;
#127 = EDGE_LOOP ( 'NONE', ( #243, #296, #291, #125 ) ) ;
#128 = EDGE_LOOP ( 'NONE', ( #276, #38, #86, #148 ) ) ;
#129 = CIRCLE ( 'NONE', #180, 8.850000000000001421 ) ;
#130 = CIRCLE ( 'NONE', #92, 1.000000000000000000 ) ;
#131 = LINE ( 'NONE', #132, #166 ) ;
#132 = CARTESIAN_POINT ( 'NONE',  ( 0.000000000000000000, 5.000000000000000000, -3.850000000000000089 ) ) ;
#133 = ORIENTED_EDGE ( 'NONE', *, *, #289, .T. ) ;
#134 = VERTEX_POINT ( 'NONE', #39 ) ;
#135 = SURFACE_STYLE_USAGE ( .BOTH. , #211 ) ;
#136 = AXIS2_PLACEMENT_3D ( 'NONE', #155, #249, #157 ) ;
#137 = APPLICATION_CONTEXT ( 'automotive_design' ) ;
#138 = CARTESIAN_POINT ( 'NONE',  ( 0.000000000000000000, 1.000000000000000000, 0.000000000000000000 ) ) ;
#139 = DIRECTION ( 'NONE',  ( 0.000000000000000000, 0.000000000000000000, 1.000000000000000000 ) ) ;
#140 = EDGE_CURVE ( 'NONE', #280, #159, #297, .T. ) ;
#141 = PRODUCT ( '8mmendcap', '8mmendcap', '', ( #216 ) ) ;
#142 = FACE_OUTER_BOUND ( 'NONE', #106, .T. ) ;
#143 = FACE_BOUND ( 'NONE', #228, .T. ) ;
#144 = AXIS2_PLACEMENT_3D ( 'NONE', #118, #235, #71 ) ;
#145 = PRODUCT_DEFINITION_SHAPE ( 'NONE', 'NONE',  #168 ) ;
#146 = EDGE_CURVE ( 'NONE', #22, #257, #108, .T. ) ;
#147 = CARTESIAN_POINT ( 'NONE',  ( 0.000000000000000000, 5.000000000000000000, 0.000000000000000000 ) ) ;
#148 = ORIENTED_EDGE ( 'NONE', *, *, #193, .F. ) ;
#149 = CARTESIAN_POINT ( 'NONE',  ( 0.000000000000000000, 0.000000000000000000, 0.000000000000000000 ) ) ;
#150 = VERTEX_POINT ( 'NONE', #13 ) ;
#151 = FACE_OUTER_BOUND ( 'NONE', #127, .T. ) ;
#152 = CARTESIAN_POINT ( 'NONE',  ( 0.000000000000000000, 1.000000000000000000, 0.000000000000000000 ) ) ;
#153 = ADVANCED_FACE ( 'NONE', ( #124, #170 ), #56, .F. ) ;
#154 = ORIENTED_EDGE ( 'NONE', *, *, #237, .F. ) ;
#155 = CARTESIAN_POINT ( 'NONE',  ( 0.000000000000000000, 5.000000000000000000, 0.000000000000000000 ) ) ;
#156 = CIRCLE ( 'NONE', #10, 3.850000000000000089 ) ;
#157 = DIRECTION ( 'NONE',  ( 0.000000000000000000, 0.000000000000000000, -1.000000000000000000 ) ) ;
#158 = EDGE_LOOP ( 'NONE', ( #57, #42, #201, #241 ) ) ;
#159 = VERTEX_POINT ( 'NONE', #59 ) ;
#160 = CIRCLE ( 'NONE', #121, 4.850000000000000533 ) ;
#161 =( NAMED_UNIT ( * ) SI_UNIT ( $, .STERADIAN. ) SOLID_ANGLE_UNIT ( ) );
#162 = EDGE_LOOP ( 'NONE', ( #12, #217, #206, #3 ) ) ;
#163 = CARTESIAN_POINT ( 'NONE',  ( 0.000000000000000000, 5.000000000000000000, -8.850000000000001421 ) ) ;
#164 = DIRECTION ( 'NONE',  ( 0.000000000000000000, 0.000000000000000000, 1.000000000000000000 ) ) ;
#165 = CYLINDRICAL_SURFACE ( 'NONE', #72, 8.850000000000001421 ) ;
#166 = VECTOR ( 'NONE', #299, 1000.000000000000000 ) ;
#167 = UNCERTAINTY_MEASURE_WITH_UNIT (LENGTH_MEASURE( 1.000000000000000082E-05 ), #91, 'distance_accuracy_value', 'NONE');
#168 = PRODUCT_DEFINITION ( 'UNKNOWN', '', #183, #273 ) ;
#169 = ORIENTED_EDGE ( 'NONE', *, *, #62, .T. ) ;
#170 = FACE_OUTER_BOUND ( 'NONE', #220, .T. ) ;
#171 = ORIENTED_EDGE ( 'NONE', *, *, #225, .F. ) ;
#172 = CARTESIAN_POINT ( 'NONE',  ( 5.939536975864662969E-16, 5.000000000000000000, -4.850000000000000533 ) ) ;
#173 = DIRECTION ( 'NONE',  ( -0.000000000000000000, -1.000000000000000000, -0.000000000000000000 ) ) ;
#174 = EDGE_CURVE ( 'NONE', #159, #280, #81, .T. ) ;
#175 = ORIENTED_EDGE ( 'NONE', *, *, #102, .F. ) ;
#176 = CARTESIAN_POINT ( 'NONE',  ( 1.083812417245407876E-15, 5.000000000000000000, 8.850000000000001421 ) ) ;
#177 = DIRECTION ( 'NONE',  ( 0.000000000000000000, 1.000000000000000000, 0.000000000000000000 ) ) ;
#178 = AXIS2_PLACEMENT_3D ( 'NONE', #152, #173, #219 ) ;
#179 = CYLINDRICAL_SURFACE ( 'NONE', #136, 3.850000000000000089 ) ;
#180 = AXIS2_PLACEMENT_3D ( 'NONE', #244, #245, #294 ) ;
#181 = ADVANCED_FACE ( 'NONE', ( #29 ), #36, .T. ) ;
#182 = CARTESIAN_POINT ( 'NONE',  ( 4.714890176717309515E-16, 5.000000000000000000, 3.850000000000000089 ) ) ;
#183 = PRODUCT_DEFINITION_FORMATION_WITH_SPECIFIED_SOURCE ( 'ANY', '', #141, .NOT_KNOWN. ) ;
#184 = TOROIDAL_SURFACE ( 'NONE', #144, 4.850000000000000533, 1.000000000000000000 ) ;
#185 = CARTESIAN_POINT ( 'NONE',  ( 0.000000000000000000, 5.000000000000000000, -8.850000000000001421 ) ) ;
#186 = DIRECTION ( 'NONE',  ( 1.000000000000000000, 0.000000000000000000, 0.000000000000000000 ) ) ;
#187 = DIRECTION ( 'NONE',  ( 0.000000000000000000, 0.000000000000000000, 1.000000000000000000 ) ) ;
#188 = FACE_OUTER_BOUND ( 'NONE', #300, .T. ) ;
#189 = EDGE_CURVE ( 'NONE', #197, #251, #68, .T. ) ;
#190 =( NAMED_UNIT ( * ) SI_UNIT ( $, .STERADIAN. ) SOLID_ANGLE_UNIT ( ) );
#191 = DIRECTION ( 'NONE',  ( 0.000000000000000000, 0.000000000000000000, 1.000000000000000000 ) ) ;
#192 = CARTESIAN_POINT ( 'NONE',  ( 0.000000000000000000, 5.000000000000000000, 0.000000000000000000 ) ) ;
#193 = EDGE_CURVE ( 'NONE', #280, #150, #130, .T. ) ;
#194 = AXIS2_PLACEMENT_3D ( 'NONE', #63, #45, #19 ) ;
#195 = EDGE_LOOP ( 'NONE', ( #64, #199 ) ) ;
#196 = DIRECTION ( 'NONE',  ( 0.000000000000000000, 0.000000000000000000, 1.000000000000000000 ) ) ;
#197 = VERTEX_POINT ( 'NONE', #259 ) ;
#198 = DIRECTION ( 'NONE',  ( -0.000000000000000000, -1.000000000000000000, -0.000000000000000000 ) ) ;
#199 = ORIENTED_EDGE ( 'NONE', *, *, #237, .T. ) ;
#200 = LINE ( 'NONE', #17, #302 ) ;
#201 = ORIENTED_EDGE ( 'NONE', *, *, #87, .T. ) ;
#202 = DIRECTION ( 'NONE',  ( 1.000000000000000000, -0.000000000000000000, 1.224646799147353207E-16 ) ) ;
#203 = AXIS2_PLACEMENT_3D ( 'NONE', #149, #103, #77 ) ;
#204 = DIRECTION ( 'NONE',  ( 0.000000000000000000, 0.000000000000000000, -1.000000000000000000 ) ) ;
#205 = VERTEX_POINT ( 'NONE', #233 ) ;
#206 = ORIENTED_EDGE ( 'NONE', *, *, #265, .T. ) ;
#207 = LINE ( 'NONE', #185, #105 ) ;
#208 = TOROIDAL_SURFACE ( 'NONE', #44, 4.850000000000000533, 1.000000000000000000 ) ;
#209 =( GEOMETRIC_REPRESENTATION_CONTEXT ( 3 ) GLOBAL_UNCERTAINTY_ASSIGNED_CONTEXT ( ( #167 ) ) GLOBAL_UNIT_ASSIGNED_CONTEXT ( ( #91, #258, #161 ) ) REPRESENTATION_CONTEXT ( 'NONE', 'WORKASPACE' ) );
#210 = DIRECTION ( 'NONE',  ( 0.000000000000000000, 0.000000000000000000, 1.000000000000000000 ) ) ;
#211 = SURFACE_SIDE_STYLE ('',( #93 ) ) ;
#212 = PLANE ( 'NONE',  #238 ) ;
#213 = CARTESIAN_POINT ( 'NONE',  ( 0.000000000000000000, 4.000000000000000000, 0.000000000000000000 ) ) ;
#214 = DIRECTION ( 'NONE',  ( 0.000000000000000000, 0.000000000000000000, 1.000000000000000000 ) ) ;
#215 =( LENGTH_UNIT ( ) NAMED_UNIT ( * ) SI_UNIT ( .MILLI., .METRE. ) );
#216 = PRODUCT_CONTEXT ( 'NONE', #239, 'mechanical' ) ;
#217 = ORIENTED_EDGE ( 'NONE', *, *, #65, .F. ) ;
#218 = CIRCLE ( 'NONE', #286, 8.850000000000001421 ) ;
#219 = DIRECTION ( 'NONE',  ( 0.000000000000000000, 0.000000000000000000, 1.000000000000000000 ) ) ;
#220 = EDGE_LOOP ( 'NONE', ( #253, #35 ) ) ;
#221 = DIRECTION ( 'NONE',  ( 0.000000000000000000, 0.000000000000000000, 1.000000000000000000 ) ) ;
#222 = DIRECTION ( 'NONE',  ( 0.000000000000000000, 0.000000000000000000, 1.000000000000000000 ) ) ;
#223 = CIRCLE ( 'NONE', #230, 4.850000000000000533 ) ;
#224 = CARTESIAN_POINT ( 'NONE',  ( 5.939536975864662969E-16, 1.000000000000000000, -4.850000000000000533 ) ) ;
#225 = EDGE_CURVE ( 'NONE', #75, #251, #277, .T. ) ;
#226 = FACE_OUTER_BOUND ( 'NONE', #21, .T. ) ;
#227 = ADVANCED_FACE ( 'NONE', ( #188 ), #184, .T. ) ;
#228 = EDGE_LOOP ( 'NONE', ( #133, #104 ) ) ;
#229 = ORIENTED_EDGE ( 'NONE', *, *, #255, .F. ) ;
#230 = AXIS2_PLACEMENT_3D ( 'NONE', #147, #198, #221 ) ;
#231 =( NAMED_UNIT ( * ) PLANE_ANGLE_UNIT ( ) SI_UNIT ( $, .RADIAN. ) );
#232 = AXIS2_PLACEMENT_3D ( 'NONE', #224, #202, #242 ) ;
#233 = CARTESIAN_POINT ( 'NONE',  ( 5.939536975864662969E-16, 0.000000000000000000, -4.850000000000000533 ) ) ;
#234 = DIRECTION ( 'NONE',  ( 0.000000000000000000, 1.000000000000000000, 0.000000000000000000 ) ) ;
#235 = DIRECTION ( 'NONE',  ( 0.000000000000000000, 1.000000000000000000, 0.000000000000000000 ) ) ;
#236 = DIRECTION ( 'NONE',  ( 0.000000000000000000, 0.000000000000000000, 1.000000000000000000 ) ) ;
#237 = EDGE_CURVE ( 'NONE', #205, #150, #160, .T. ) ;
#238 = AXIS2_PLACEMENT_3D ( 'NONE', #67, #234, #69 ) ;
#239 = APPLICATION_CONTEXT ( 'automotive_design' ) ;
#240 = DIRECTION ( 'NONE',  ( 0.000000000000000000, 0.000000000000000000, -1.000000000000000000 ) ) ;
#241 = ORIENTED_EDGE ( 'NONE', *, *, #174, .T. ) ;
#242 = DIRECTION ( 'NONE',  ( 1.224646799147353454E-16, 0.000000000000000000, -1.000000000000000000 ) ) ;
#243 = ORIENTED_EDGE ( 'NONE', *, *, #225, .T. ) ;
#244 = CARTESIAN_POINT ( 'NONE',  ( 0.000000000000000000, 0.000000000000000000, 0.000000000000000000 ) ) ;
#245 = DIRECTION ( 'NONE',  ( 0.000000000000000000, 1.000000000000000000, 0.000000000000000000 ) ) ;
#246 = ADVANCED_FACE ( 'NONE', ( #143, #116 ), #212, .T. ) ;
#247 = DIRECTION ( 'NONE',  ( -0.000000000000000000, -1.000000000000000000, -0.000000000000000000 ) ) ;
#248 = CIRCLE ( 'NONE', #18, 1.000000000000000000 ) ;
#249 = DIRECTION ( 'NONE',  ( -0.000000000000000000, -1.000000000000000000, -0.000000000000000000 ) ) ;
#250 = ADVANCED_FACE ( 'NONE', ( #142 ), #263, .T. ) ;
#251 = VERTEX_POINT ( 'NONE', #117 ) ;
#252 = CIRCLE ( 'NONE', #14, 4.850000000000000533 ) ;
#253 = ORIENTED_EDGE ( 'NONE', *, *, #24, .F. ) ;
#254 = AXIS2_PLACEMENT_3D ( 'NONE', #37, #266, #240 ) ;
#255 = EDGE_CURVE ( 'NONE', #23, #75, #248, .T. ) ;
#256 = DIRECTION ( 'NONE',  ( -0.000000000000000000, -1.000000000000000000, -0.000000000000000000 ) ) ;
#257 = VERTEX_POINT ( 'NONE', #163 ) ;
#258 =( NAMED_UNIT ( * ) PLANE_ANGLE_UNIT ( ) SI_UNIT ( $, .RADIAN. ) );
#259 = CARTESIAN_POINT ( 'NONE',  ( 0.000000000000000000, 5.000000000000000000, 4.850000000000000533 ) ) ;
#260 = DIRECTION ( 'NONE',  ( -1.000000000000000000, 0.000000000000000000, 0.000000000000000000 ) ) ;
#261 = AXIS2_PLACEMENT_3D ( 'NONE', #96, #210, #186 ) ;
#262 = DIRECTION ( 'NONE',  ( 1.000000000000000000, -0.000000000000000000, 1.224646799147353207E-16 ) ) ;
#263 = TOROIDAL_SURFACE ( 'NONE', #34, 4.850000000000000533, 1.000000000000000000 ) ;
#264 = VERTEX_POINT ( 'NONE', #278 ) ;
#265 = EDGE_CURVE ( 'NONE', #257, #134, #207, .T. ) ;
#266 = DIRECTION ( 'NONE',  ( -0.000000000000000000, -1.000000000000000000, -0.000000000000000000 ) ) ;
#267 = ORIENTED_EDGE ( 'NONE', *, *, #41, .T. ) ;
#268 = DIRECTION ( 'NONE',  ( -0.000000000000000000, -1.000000000000000000, -0.000000000000000000 ) ) ;
#269 = CARTESIAN_POINT ( 'NONE',  ( 0.000000000000000000, 1.000000000000000000, 0.000000000000000000 ) ) ;
#270 = FACE_OUTER_BOUND ( 'NONE', #128, .T. ) ;
#271 = AXIS2_PLACEMENT_3D ( 'NONE', #269, #100, #290 ) ;
#272 = CARTESIAN_POINT ( 'NONE',  ( 0.000000000000000000, 4.000000000000000000, -3.850000000000000089 ) ) ;
#273 = PRODUCT_DEFINITION_CONTEXT ( 'detailed design', #137, 'design' ) ;
#274 = VECTOR ( 'NONE', #298, 1000.000000000000000 ) ;
#275 = CARTESIAN_POINT ( 'NONE',  ( 0.000000000000000000, 4.000000000000000000, 0.000000000000000000 ) ) ;
#276 = ORIENTED_EDGE ( 'NONE', *, *, #174, .F. ) ;
#277 = CIRCLE ( 'NONE', #78, 3.850000000000000089 ) ;
#278 = CARTESIAN_POINT ( 'NONE',  ( 1.083812417245407876E-15, 0.000000000000000000, 8.850000000000001421 ) ) ;
#279 = FILL_AREA_STYLE_COLOUR ( '', #46 ) ;
#280 = VERTEX_POINT ( 'NONE', #2 ) ;
#281 = DIRECTION ( 'NONE',  ( 0.000000000000000000, 0.000000000000000000, 1.000000000000000000 ) ) ;
#282 = ADVANCED_FACE ( 'NONE', ( #111 ), #165, .T. ) ;
#283 = DIRECTION ( 'NONE',  ( 0.000000000000000000, 1.000000000000000000, 0.000000000000000000 ) ) ;
#284 = CARTESIAN_POINT ( 'NONE',  ( 5.939536975864662969E-16, 4.000000000000000000, -4.850000000000000533 ) ) ;
#285 = APPLICATION_PROTOCOL_DEFINITION ( 'draft international standard', 'automotive_design', 1998, #137 ) ;
#286 = AXIS2_PLACEMENT_3D ( 'NONE', #85, #177, #61 ) ;
#287 = MANIFOLD_SOLID_BREP ( 'Fillet1', #98 ) ;
#288 = ORIENTED_EDGE ( 'NONE', *, *, #76, .F. ) ;
#289 = EDGE_CURVE ( 'NONE', #197, #23, #252, .T. ) ;
#290 = DIRECTION ( 'NONE',  ( 0.000000000000000000, 0.000000000000000000, 1.000000000000000000 ) ) ;
#291 = ORIENTED_EDGE ( 'NONE', *, *, #140, .T. ) ;
#292 = UNCERTAINTY_MEASURE_WITH_UNIT (LENGTH_MEASURE( 1.000000000000000082E-05 ), #215, 'distance_accuracy_value', 'NONE');
#293 = FACE_OUTER_BOUND ( 'NONE', #158, .T. ) ;
#294 = DIRECTION ( 'NONE',  ( 0.000000000000000000, 0.000000000000000000, 1.000000000000000000 ) ) ;
#295 = MECHANICAL_DESIGN_GEOMETRIC_PRESENTATION_REPRESENTATION (  '', ( #66 ), #209 ) ;
#296 = ORIENTED_EDGE ( 'NONE', *, *, #53, .T. ) ;
#297 = CIRCLE ( 'NONE', #271, 3.850000000000000089 ) ;
#298 = DIRECTION ( 'NONE',  ( -0.000000000000000000, -1.000000000000000000, -0.000000000000000000 ) ) ;
#299 = DIRECTION ( 'NONE',  ( -0.000000000000000000, -1.000000000000000000, -0.000000000000000000 ) ) ;
#300 = EDGE_LOOP ( 'NONE', ( #73, #112, #288, #301 ) ) ;
#301 = ORIENTED_EDGE ( 'NONE', *, *, #189, .F. ) ;
#302 = VECTOR ( 'NONE', #268, 1000.000000000000000 ) ;
#303 = FILL_AREA_STYLE ('',( #279 ) ) ;
ENDSEC;
END-ISO-10303-21;
