ISO-10303-21;
HEADER;
FILE_DESCRIPTION (( 'STEP AP214' ),
    '1' );
FILE_NAME ('connector_wide_lower.STEP',
    '2026-04-09T02:38:23',
    ( '' ),
    ( '' ),
    'SwSTEP 2.0',
    'SolidWorks 2025',
    '' );
FILE_SCHEMA (( 'AUTOMOTIVE_DESIGN' ));
ENDSEC;

DATA;
#1 = CARTESIAN_POINT ( 'NONE',  ( 34.64652773554269061, -38.00706514140548364, 0.000000000000000000 ) ) ;
#2 = ORIENTED_EDGE ( 'NONE', *, *, #193, .T. ) ;
#3 = EDGE_CURVE ( 'NONE', #73, #926, #765, .T. ) ;
#4 = DIRECTION ( 'NONE',  ( -0.000000000000000000, -0.000000000000000000, 1.000000000000000000 ) ) ;
#5 = FACE_OUTER_BOUND ( 'NONE', #462, .T. ) ;
#6 = DIRECTION ( 'NONE',  ( 1.000000000000000000, 0.000000000000000000, 0.000000000000000000 ) ) ;
#7 = DIRECTION ( 'NONE',  ( -0.000000000000000000, -0.000000000000000000, -1.000000000000000000 ) ) ;
#8 = ORIENTED_EDGE ( 'NONE', *, *, #296, .T. ) ;
#9 = AXIS2_PLACEMENT_3D ( 'NONE', #241, #315, #985 ) ;
#10 = FACE_OUTER_BOUND ( 'NONE', #248, .T. ) ;
#11 = LINE ( 'NONE', #831, #758 ) ;
#12 = ORIENTED_EDGE ( 'NONE', *, *, #877, .F. ) ;
#13 = VECTOR ( 'NONE', #267, 1000.000000000000000 ) ;
#14 = ADVANCED_FACE ( 'NONE', ( #706 ), #394, .F. ) ;
#15 = LINE ( 'NONE', #627, #903 ) ;
#16 = EDGE_CURVE ( 'NONE', #106, #734, #820, .T. ) ;
#17 = ADVANCED_FACE ( 'NONE', ( #158 ), #692, .F. ) ;
#18 = CARTESIAN_POINT ( 'NONE',  ( 36.54652773554268919, -38.00706514140548364, 5.000000000000000000 ) ) ;
#19 = DIRECTION ( 'NONE',  ( -0.000000000000000000, 0.000000000000000000, 1.000000000000000000 ) ) ;
#20 = VERTEX_POINT ( 'NONE', #788 ) ;
#21 = DIRECTION ( 'NONE',  ( -0.000000000000000000, -0.000000000000000000, 1.000000000000000000 ) ) ;
#22 = CARTESIAN_POINT ( 'NONE',  ( -49.97223173593672385, -21.66209186837193812, 5.000000000000000000 ) ) ;
#23 = EDGE_LOOP ( 'NONE', ( #929, #967 ) ) ;
#24 = EDGE_CURVE ( 'NONE', #734, #106, #349, .T. ) ;
#25 = CARTESIAN_POINT ( 'NONE',  ( 4.200000000000000178, 5.143516556418883914E-16, 5.000000000000000000 ) ) ;
#26 = CIRCLE ( 'NONE', #723, 1.899999999999999023 ) ;
#27 = CARTESIAN_POINT ( 'NONE',  ( 46.17223173593674801, -21.66209186837193812, 5.000000000000000000 ) ) ;
#28 = EDGE_LOOP ( 'NONE', ( #874, #36, #192, #592 ) ) ;
#29 =( NAMED_UNIT ( * ) SI_UNIT ( $, .STERADIAN. ) SOLID_ANGLE_UNIT ( ) );
#30 = VECTOR ( 'NONE', #483, 1000.000000000000000 ) ;
#31 = CARTESIAN_POINT ( 'NONE',  ( 31.72725854464606599, -10.13638792561907920, 5.000000000000000000 ) ) ;
#32 = ORIENTED_EDGE ( 'NONE', *, *, #194, .F. ) ;
#33 = CARTESIAN_POINT ( 'NONE',  ( 0.000000000000000000, 0.000000000000000000, 0.000000000000000000 ) ) ;
#34 = EDGE_CURVE ( 'NONE', #649, #321, #354, .T. ) ;
#35 = CYLINDRICAL_SURFACE ( 'NONE', #465, 1.899999999999999023 ) ;
#36 = ORIENTED_EDGE ( 'NONE', *, *, #768, .F. ) ;
#37 = FACE_BOUND ( 'NONE', #358, .T. ) ;
#38 = VERTEX_POINT ( 'NONE', #782 ) ;
#39 = VECTOR ( 'NONE', #844, 999.9999999999998863 ) ;
#40 = ADVANCED_FACE ( 'NONE', ( #405 ), #558, .T. ) ;
#41 = DIRECTION ( 'NONE',  ( 1.000000000000000000, 0.000000000000000000, 0.000000000000000000 ) ) ;
#42 = VECTOR ( 'NONE', #739, 1000.000000000000000 ) ;
#43 = ORIENTED_EDGE ( 'NONE', *, *, #934, .T. ) ;
#44 = VECTOR ( 'NONE', #227, 1000.000000000000000 ) ;
#45 = EDGE_LOOP ( 'NONE', ( #757, #404, #885, #691 ) ) ;
#46 = CARTESIAN_POINT ( 'NONE',  ( 48.07223173593674659, -21.66209186837193812, 0.000000000000000000 ) ) ;
#47 = DIRECTION ( 'NONE',  ( -0.000000000000000000, 0.000000000000000000, 1.000000000000000000 ) ) ;
#48 = ORIENTED_EDGE ( 'NONE', *, *, #489, .T. ) ;
#49 = ORIENTED_EDGE ( 'NONE', *, *, #393, .F. ) ;
#50 = EDGE_CURVE ( 'NONE', #777, #976, #470, .T. ) ;
#51 = FACE_OUTER_BOUND ( 'NONE', #607, .T. ) ;
#52 = EDGE_CURVE ( 'NONE', #862, #937, #481, .T. ) ;
#53 = CARTESIAN_POINT ( 'NONE',  ( -48.07223173593672527, -21.66209186837193812, 0.000000000000000000 ) ) ;
#54 = DIRECTION ( 'NONE',  ( -0.000000000000000000, -0.000000000000000000, 1.000000000000000000 ) ) ;
#55 = AXIS2_PLACEMENT_3D ( 'NONE', #946, #498, #953 ) ;
#56 = VERTEX_POINT ( 'NONE', #87 ) ;
#57 = APPLICATION_CONTEXT ( 'automotive_design' ) ;
#58 = CARTESIAN_POINT ( 'NONE',  ( 20.20155454425199792, -26.48136119865263183, 5.000000000000000000 ) ) ;
#59 = CARTESIAN_POINT ( 'NONE',  ( -48.07223173593672527, -21.66209186837193812, 5.000000000000000000 ) ) ;
#60 = ORIENTED_EDGE ( 'NONE', *, *, #701, .T. ) ;
#61 = CIRCLE ( 'NONE', #626, 1.899999999999999023 ) ;
#62 = DIRECTION ( 'NONE',  ( 1.000000000000000000, 0.000000000000000000, 0.000000000000000000 ) ) ;
#63 = AXIS2_PLACEMENT_3D ( 'NONE', #568, #421, #341 ) ;
#64 = ADVANCED_FACE ( 'NONE', ( #10 ), #852, .F. ) ;
#65 = CARTESIAN_POINT ( 'NONE',  ( -18.30155460189319072, -26.48136111690976691, 0.000000000000000000 ) ) ;
#66 = DIRECTION ( 'NONE',  ( 1.000000000000000000, 0.000000000000000000, 0.000000000000000000 ) ) ;
#67 = EDGE_LOOP ( 'NONE', ( #817, #795, #778, #237 ) ) ;
#68 = DIRECTION ( 'NONE',  ( -0.000000000000000000, -0.000000000000000000, 1.000000000000000000 ) ) ;
#69 = DIRECTION ( 'NONE',  ( -0.8172486595645342966, 0.5762851971376428128, 0.000000000000000000 ) ) ;
#70 = CARTESIAN_POINT ( 'NONE',  ( -8.644277957064641527, -12.25872989346801489, 0.000000000000000000 ) ) ;
#71 = CIRCLE ( 'NONE', #636, 1.899999999999999023 ) ;
#72 = CARTESIAN_POINT ( 'NONE',  ( 5.061398722736974776, -21.92332645766778398, 0.000000000000000000 ) ) ;
#73 = VERTEX_POINT ( 'NONE', #857 ) ;
#74 = CARTESIAN_POINT ( 'NONE',  ( 36.54652773554268919, -38.00706514140548364, 5.000000000000000000 ) ) ;
#75 = CARTESIAN_POINT ( 'NONE',  ( -34.64652779318385711, -38.00706505966262938, 0.000000000000000000 ) ) ;
#76 = DIRECTION ( 'NONE',  ( 1.000000000000000000, 0.000000000000000000, 0.000000000000000000 ) ) ;
#77 = EDGE_CURVE ( 'NONE', #332, #198, #102, .T. ) ;
#78 = SURFACE_STYLE_USAGE ( .BOTH. , #532 ) ;
#79 = ORIENTED_EDGE ( 'NONE', *, *, #312, .T. ) ;
#80 = CIRCLE ( 'NONE', #420, 30.00000000000000000 ) ;
#81 = AXIS2_PLACEMENT_3D ( 'NONE', #582, #365, #665 ) ;
#82 = DIRECTION ( 'NONE',  ( -0.000000000000000000, -0.000000000000000000, 1.000000000000000000 ) ) ;
#83 = DIRECTION ( 'NONE',  ( 0.5762851971376427018, 0.8172486595645344076, 0.000000000000000000 ) ) ;
#84 = CARTESIAN_POINT ( 'NONE',  ( 18.30155454425199935, -26.48136119865263183, 5.000000000000000000 ) ) ;
#85 = DIRECTION ( 'NONE',  ( -0.000000000000000000, -0.000000000000000000, 1.000000000000000000 ) ) ;
#86 = VERTEX_POINT ( 'NONE', #333 ) ;
#87 = CARTESIAN_POINT ( 'NONE',  ( 18.30155454425199935, -26.48136119865263183, 5.000000000000000000 ) ) ;
#88 = PLANE ( 'NONE',  #104 ) ;
#89 = EDGE_CURVE ( 'NONE', #901, #981, #634, .T. ) ;
#90 = VERTEX_POINT ( 'NONE', #732 ) ;
#91 = EDGE_CURVE ( 'NONE', #282, #151, #211, .T. ) ;
#92 = ADVANCED_FACE ( 'NONE', ( #432 ), #133, .F. ) ;
#93 = CARTESIAN_POINT ( 'NONE',  ( -36.54652779318385569, -38.00706505966262938, 5.000000000000000000 ) ) ;
#94 = ORIENTED_EDGE ( 'NONE', *, *, #296, .F. ) ;
#95 = AXIS2_PLACEMENT_3D ( 'NONE', #18, #249, #181 ) ;
#96 = DIRECTION ( 'NONE',  ( -0.000000000000000000, -0.000000000000000000, 1.000000000000000000 ) ) ;
#97 = VECTOR ( 'NONE', #174, 1000.000000000000000 ) ;
#98 = DIRECTION ( 'NONE',  ( -0.000000000000000000, -0.000000000000000000, 1.000000000000000000 ) ) ;
#99 = ORIENTED_EDGE ( 'NONE', *, *, #414, .F. ) ;
#100 = CARTESIAN_POINT ( 'NONE',  ( 20.20155454425199792, -26.48136119865263183, 5.000000000000000000 ) ) ;
#101 = CARTESIAN_POINT ( 'NONE',  ( 55.03990101944763325, -20.45727455623747559, 0.000000000000000000 ) ) ;
#102 = CIRCLE ( 'NONE', #785, 1.899999999999999023 ) ;
#103 = ADVANCED_FACE ( 'NONE', ( #293, #595, #754, #893, #598, #978, #359, #659, #970, #217 ), #519, .F. ) ;
#104 = AXIS2_PLACEMENT_3D ( 'NONE', #522, #446, #902 ) ;
#105 = DIRECTION ( 'NONE',  ( 1.000000000000000000, 0.000000000000000000, 0.000000000000000000 ) ) ;
#106 = VERTEX_POINT ( 'NONE', #447 ) ;
#107 = CARTESIAN_POINT ( 'NONE',  ( 7.766293054025036421E-16, -17.41785127321485760, 5.000000000000000000 ) ) ;
#108 = DIRECTION ( 'NONE',  ( -0.000000000000000000, -0.000000000000000000, -1.000000000000000000 ) ) ;
#109 = CARTESIAN_POINT ( 'NONE',  ( 22.34995463686625783, 2.594133329268236032, 5.000000000000000000 ) ) ;
#110 = ORIENTED_EDGE ( 'NONE', *, *, #266, .T. ) ;
#111 = DIRECTION ( 'NONE',  ( -0.000000000000000000, -0.000000000000000000, 1.000000000000000000 ) ) ;
#112 = COLOUR_RGB ( '',0.7921568627450980005, 0.8196078431372548767, 0.9333333333333333481 ) ;
#113 = CARTESIAN_POINT ( 'NONE',  ( 48.07223173593674659, -21.66209186837193812, 5.000000000000000000 ) ) ;
#114 = EDGE_CURVE ( 'NONE', #336, #135, #61, .T. ) ;
#115 = ORIENTED_EDGE ( 'NONE', *, *, #804, .F. ) ;
#116 = DIRECTION ( 'NONE',  ( 1.000000000000000000, 0.000000000000000000, 0.000000000000000000 ) ) ;
#117 = VERTEX_POINT ( 'NONE', #818 ) ;
#118 = EDGE_CURVE ( 'NONE', #274, #419, #196, .T. ) ;
#119 = CARTESIAN_POINT ( 'NONE',  ( 7.766293054025036421E-16, -17.41785127321485760, 5.000000000000000000 ) ) ;
#120 = EDGE_CURVE ( 'NONE', #302, #90, #746, .T. ) ;
#121 = ORIENTED_EDGE ( 'NONE', *, *, #868, .T. ) ;
#122 = VECTOR ( 'NONE', #68, 1000.000000000000000 ) ;
#123 = DIRECTION ( 'NONE',  ( -0.8172486595645340746, -0.5762851971376432569, 0.000000000000000000 ) ) ;
#124 = ORIENTED_EDGE ( 'NONE', *, *, #798, .T. ) ;
#125 = ORIENTED_EDGE ( 'NONE', *, *, #650, .T. ) ;
#126 = VECTOR ( 'NONE', #678, 1000.000000000000000 ) ;
#127 = DIRECTION ( 'NONE',  ( -0.000000000000000000, -0.000000000000000000, 1.000000000000000000 ) ) ;
#128 = VECTOR ( 'NONE', #802, 1000.000000000000000 ) ;
#129 = EDGE_CURVE ( 'NONE', #536, #810, #832, .T. ) ;
#130 = VERTEX_POINT ( 'NONE', #137 ) ;
#131 = ORIENTED_EDGE ( 'NONE', *, *, #828, .T. ) ;
#132 = EDGE_CURVE ( 'NONE', #38, #257, #958, .T. ) ;
#133 = PLANE ( 'NONE',  #910 ) ;
#134 = DIRECTION ( 'NONE',  ( -0.000000000000000000, -0.000000000000000000, 1.000000000000000000 ) ) ;
#135 = VERTEX_POINT ( 'NONE', #827 ) ;
#136 = AXIS2_PLACEMENT_3D ( 'NONE', #673, #148, #530 ) ;
#137 = CARTESIAN_POINT ( 'NONE',  ( -29.82725854464605320, -10.13638792561907920, 0.000000000000000000 ) ) ;
#138 = CARTESIAN_POINT ( 'NONE',  ( 29.82725854464606741, -10.13638792561907920, 5.000000000000000000 ) ) ;
#139 = AXIS2_PLACEMENT_3D ( 'NONE', #641, #861, #645 ) ;
#140 = ORIENTED_EDGE ( 'NONE', *, *, #728, .F. ) ;
#141 = DIRECTION ( 'NONE',  ( -0.000000000000000000, -0.000000000000000000, 1.000000000000000000 ) ) ;
#142 = DIRECTION ( 'NONE',  ( 1.000000000000000000, 0.000000000000000000, 0.000000000000000000 ) ) ;
#143 = FACE_OUTER_BOUND ( 'NONE', #574, .T. ) ;
#144 = ORIENTED_EDGE ( 'NONE', *, *, #351, .T. ) ;
#145 = VECTOR ( 'NONE', #963, 1000.000000000000000 ) ;
#146 = CARTESIAN_POINT ( 'NONE',  ( 22.34995463686625783, 2.594133329268236032, 5.000000000000000000 ) ) ;
#147 = DIRECTION ( 'NONE',  ( -0.000000000000000000, -0.000000000000000000, 1.000000000000000000 ) ) ;
#148 = DIRECTION ( 'NONE',  ( -0.000000000000000000, -0.000000000000000000, 1.000000000000000000 ) ) ;
#149 = ADVANCED_FACE ( 'NONE', ( #888 ), #443, .F. ) ;
#150 =( NAMED_UNIT ( * ) PLANE_ANGLE_UNIT ( ) SI_UNIT ( $, .RADIAN. ) );
#151 = VERTEX_POINT ( 'NONE', #221 ) ;
#152 = LINE ( 'NONE', #681, #458 ) ;
#153 = DIRECTION ( 'NONE',  ( -0.000000000000000000, -0.000000000000000000, 1.000000000000000000 ) ) ;
#154 = CARTESIAN_POINT ( 'NONE',  ( -20.20155460189318930, -26.48136111690976691, 5.000000000000000000 ) ) ;
#155 = CIRCLE ( 'NONE', #881, 1.899999999999999023 ) ;
#156 = FILL_AREA_STYLE ('',( #906 ) ) ;
#157 = ORIENTED_EDGE ( 'NONE', *, *, #825, .F. ) ;
#158 = FACE_OUTER_BOUND ( 'NONE', #540, .T. ) ;
#159 = CARTESIAN_POINT ( 'NONE',  ( 29.82725854464606741, -10.13638792561907920, 5.000000000000000000 ) ) ;
#160 = VERTEX_POINT ( 'NONE', #65 ) ;
#161 = LINE ( 'NONE', #84, #716 ) ;
#162 = DIRECTION ( 'NONE',  ( 1.000000000000000000, 0.000000000000000000, 0.000000000000000000 ) ) ;
#163 = ADVANCED_FACE ( 'NONE', ( #373 ), #672, .T. ) ;
#164 = ORIENTED_EDGE ( 'NONE', *, *, #226, .F. ) ;
#165 = AXIS2_PLACEMENT_3D ( 'NONE', #984, #380, #6 ) ;
#166 = ORIENTED_EDGE ( 'NONE', *, *, #205, .F. ) ;
#167 = CARTESIAN_POINT ( 'NONE',  ( -22.10155460189318788, -26.48136111690976691, 5.000000000000000000 ) ) ;
#168 = EDGE_CURVE ( 'NONE', #962, #699, #378, .T. ) ;
#169 = ORIENTED_EDGE ( 'NONE', *, *, #269, .F. ) ;
#170 = DIRECTION ( 'NONE',  ( -0.000000000000000000, -0.000000000000000000, 1.000000000000000000 ) ) ;
#171 = ORIENTED_EDGE ( 'NONE', *, *, #750, .T. ) ;
#172 = DIRECTION ( 'NONE',  ( -0.000000000000000000, -0.000000000000000000, 1.000000000000000000 ) ) ;
#173 = CARTESIAN_POINT ( 'NONE',  ( -46.17223173593672669, -21.66209186837193812, 5.000000000000000000 ) ) ;
#174 = DIRECTION ( 'NONE',  ( 0.8172486595645342966, -0.5762851971376428128, 0.000000000000000000 ) ) ;
#175 = VECTOR ( 'NONE', #535, 1000.000000000000000 ) ;
#176 = EDGE_LOOP ( 'NONE', ( #140, #896 ) ) ;
#177 = DIRECTION ( 'NONE',  ( 1.000000000000000000, 0.000000000000000000, 0.000000000000000000 ) ) ;
#178 = VECTOR ( 'NONE', #85, 1000.000000000000000 ) ;
#179 = CARTESIAN_POINT ( 'NONE',  ( -8.644277957064650408, 12.25872989346801489, 0.000000000000000000 ) ) ;
#180 = EDGE_LOOP ( 'NONE', ( #12, #110, #886, #566 ) ) ;
#181 = DIRECTION ( 'NONE',  ( 1.000000000000000000, 0.000000000000000000, 0.000000000000000000 ) ) ;
#182 = CIRCLE ( 'NONE', #731, 4.200000000000000178 ) ;
#183 = DIRECTION ( 'NONE',  ( 1.000000000000000000, 0.000000000000000000, 0.000000000000000000 ) ) ;
#184 = EDGE_LOOP ( 'NONE', ( #856, #94 ) ) ;
#185 = CYLINDRICAL_SURFACE ( 'NONE', #63, 1.899999999999999023 ) ;
#186 = EDGE_CURVE ( 'NONE', #160, #920, #342, .T. ) ;
#187 = FACE_OUTER_BOUND ( 'NONE', #456, .T. ) ;
#188 = VERTEX_POINT ( 'NONE', #879 ) ;
#189 = APPLICATION_PROTOCOL_DEFINITION ( 'draft international standard', 'automotive_design', 1998, #57 ) ;
#190 = VECTOR ( 'NONE', #621, 1000.000000000000000 ) ;
#191 = CARTESIAN_POINT ( 'NONE',  ( -33.62725854464605391, -10.13638792561907920, 0.000000000000000000 ) ) ;
#192 = ORIENTED_EDGE ( 'NONE', *, *, #3, .T. ) ;
#193 = EDGE_CURVE ( 'NONE', #962, #423, #182, .T. ) ;
#194 = EDGE_CURVE ( 'NONE', #274, #981, #369, .T. ) ;
#195 = EDGE_CURVE ( 'NONE', #86, #666, #769, .T. ) ;
#196 = CIRCLE ( 'NONE', #702, 22.50000000000000000 ) ;
#197 = DIRECTION ( 'NONE',  ( -0.000000000000000000, -0.000000000000000000, 1.000000000000000000 ) ) ;
#198 = VERTEX_POINT ( 'NONE', #294 ) ;
#199 = AXIS2_PLACEMENT_3D ( 'NONE', #482, #254, #792 ) ;
#200 = LINE ( 'NONE', #806, #643 ) ;
#201 = EDGE_LOOP ( 'NONE', ( #439, #398 ) ) ;
#202 = ORIENTED_EDGE ( 'NONE', *, *, #551, .F. ) ;
#203 = ORIENTED_EDGE ( 'NONE', *, *, #947, .T. ) ;
#204 = AXIS2_PLACEMENT_3D ( 'NONE', #766, #847, #775 ) ;
#205 = EDGE_CURVE ( 'NONE', #86, #876, #520, .T. ) ;
#206 = FACE_OUTER_BOUND ( 'NONE', #430, .T. ) ;
#207 = ORIENTED_EDGE ( 'NONE', *, *, #542, .F. ) ;
#208 = ORIENTED_EDGE ( 'NONE', *, *, #114, .T. ) ;
#209 = ORIENTED_EDGE ( 'NONE', *, *, #467, .F. ) ;
#210 = AXIS2_PLACEMENT_3D ( 'NONE', #460, #610, #684 ) ;
#211 = LINE ( 'NONE', #513, #145 ) ;
#212 = CARTESIAN_POINT ( 'NONE',  ( 22.34995463686625783, 2.594133329268236032, 0.000000000000000000 ) ) ;
#213 = AXIS2_PLACEMENT_3D ( 'NONE', #602, #904, #69 ) ;
#214 = VERTEX_POINT ( 'NONE', #212 ) ;
#215 = ORIENTED_EDGE ( 'NONE', *, *, #773, .F. ) ;
#216 = ADVANCED_FACE ( 'NONE', ( #959 ), #653, .F. ) ;
#217 = FACE_BOUND ( 'NONE', #517, .T. ) ;
#218 = DIRECTION ( 'NONE',  ( -0.8172486595645340746, -0.5762851971376431459, 0.000000000000000000 ) ) ;
#219 = ORIENTED_EDGE ( 'NONE', *, *, #798, .F. ) ;
#220 = DIRECTION ( 'NONE',  ( 1.000000000000000000, 0.000000000000000000, 0.000000000000000000 ) ) ;
#221 = CARTESIAN_POINT ( 'NONE',  ( -55.03990101944762614, -20.45727455623749336, 0.000000000000000000 ) ) ;
#222 = CARTESIAN_POINT ( 'NONE',  ( 46.39562306238299527, -32.71600444970547272, 5.000000000000000000 ) ) ;
#223 = VERTEX_POINT ( 'NONE', #280 ) ;
#224 = VECTOR ( 'NONE', #850, 1000.000000000000114 ) ;
#225 = DIRECTION ( 'NONE',  ( -0.000000000000000000, -0.000000000000000000, 1.000000000000000000 ) ) ;
#226 = EDGE_CURVE ( 'NONE', #562, #38, #504, .T. ) ;
#227 = DIRECTION ( 'NONE',  ( -0.000000000000000000, -0.000000000000000000, -1.000000000000000000 ) ) ;
#228 = DIRECTION ( 'NONE',  ( -0.000000000000000000, -0.000000000000000000, -1.000000000000000000 ) ) ;
#229 =( LENGTH_UNIT ( ) NAMED_UNIT ( * ) SI_UNIT ( .MILLI., .METRE. ) );
#230 = EDGE_LOOP ( 'NONE', ( #521, #339, #507, #242 ) ) ;
#231 = VECTOR ( 'NONE', #244, 1000.000000000000114 ) ;
#232 = LINE ( 'NONE', #167, #175 ) ;
#233 = AXIS2_PLACEMENT_3D ( 'NONE', #671, #225, #262 ) ;
#234 = CYLINDRICAL_SURFACE ( 'NONE', #270, 1.899999999999999023 ) ;
#235 = CARTESIAN_POINT ( 'NONE',  ( -31.72725854464605177, -10.13638792561907920, 5.000000000000000000 ) ) ;
#236 = DIRECTION ( 'NONE',  ( -0.000000000000000000, -0.000000000000000000, -1.000000000000000000 ) ) ;
#237 = ORIENTED_EDGE ( 'NONE', *, *, #452, .T. ) ;
#238 = LINE ( 'NONE', #146, #377 ) ;
#239 = ADVANCED_FACE ( 'NONE', ( #591, #514, #37, #964, #360, #975, #350, #894, #599, #956 ), #285, .T. ) ;
#240 = DIRECTION ( 'NONE',  ( -0.000000000000000000, -0.000000000000000000, 1.000000000000000000 ) ) ;
#241 = CARTESIAN_POINT ( 'NONE',  ( 31.72725854464606599, -10.13638792561907920, 5.000000000000000000 ) ) ;
#242 = ORIENTED_EDGE ( 'NONE', *, *, #728, .T. ) ;
#243 = VECTOR ( 'NONE', #869, 1000.000000000000000 ) ;
#244 = DIRECTION ( 'NONE',  ( 0.5762851971376427018, 0.8172486595645344076, 0.000000000000000000 ) ) ;
#245 = DIRECTION ( 'NONE',  ( -0.000000000000000000, -0.000000000000000000, 1.000000000000000000 ) ) ;
#246 = DIRECTION ( 'NONE',  ( 1.000000000000000000, 0.000000000000000000, 0.000000000000000000 ) ) ;
#247 = DIRECTION ( 'NONE',  ( -0.000000000000000000, -0.000000000000000000, 1.000000000000000000 ) ) ;
#248 = EDGE_LOOP ( 'NONE', ( #657, #171, #803, #948 ) ) ;
#249 = DIRECTION ( 'NONE',  ( -0.000000000000000000, -0.000000000000000000, 1.000000000000000000 ) ) ;
#250 = DIRECTION ( 'NONE',  ( 1.000000000000000000, 0.000000000000000000, 0.000000000000000000 ) ) ;
#251 = LINE ( 'NONE', #381, #955 ) ;
#252 = ORIENTED_EDGE ( 'NONE', *, *, #34, .T. ) ;
#253 = ORIENTED_EDGE ( 'NONE', *, *, #944, .T. ) ;
#254 = DIRECTION ( 'NONE',  ( -0.000000000000000000, -0.000000000000000000, 1.000000000000000000 ) ) ;
#255 = CARTESIAN_POINT ( 'NONE',  ( -18.30155460189319072, -26.48136111690976691, 5.000000000000000000 ) ) ;
#256 = CIRCLE ( 'NONE', #299, 1.899999999999999023 ) ;
#257 = VERTEX_POINT ( 'NONE', #971 ) ;
#258 = DIRECTION ( 'NONE',  ( 1.000000000000000000, 0.000000000000000000, 0.000000000000000000 ) ) ;
#259 = FACE_OUTER_BOUND ( 'NONE', #67, .T. ) ;
#260 = ORIENTED_EDGE ( 'NONE', *, *, #887, .F. ) ;
#261 = CIRCLE ( 'NONE', #891, 1.899999999999999023 ) ;
#262 = DIRECTION ( 'NONE',  ( 1.000000000000000000, 0.000000000000000000, 0.000000000000000000 ) ) ;
#263 = AXIS2_PLACEMENT_3D ( 'NONE', #655, #127, #444 ) ;
#264 = DIRECTION ( 'NONE',  ( -0.000000000000000000, 0.000000000000000000, 1.000000000000000000 ) ) ;
#265 = VERTEX_POINT ( 'NONE', #138 ) ;
#266 = EDGE_CURVE ( 'NONE', #388, #577, #727, .T. ) ;
#267 = DIRECTION ( 'NONE',  ( -0.000000000000000000, -0.000000000000000000, 1.000000000000000000 ) ) ;
#268 = ORIENTED_EDGE ( 'NONE', *, *, #477, .F. ) ;
#269 = EDGE_CURVE ( 'NONE', #86, #282, #200, .T. ) ;
#270 = AXIS2_PLACEMENT_3D ( 'NONE', #374, #153, #748 ) ;
#271 = AXIS2_PLACEMENT_3D ( 'NONE', #113, #721, #478 ) ;
#272 = AXIS2_PLACEMENT_3D ( 'NONE', #537, #524, #66 ) ;
#273 = CARTESIAN_POINT ( 'NONE',  ( 34.64652773554269061, -38.00706514140548364, 5.000000000000000000 ) ) ;
#274 = VERTEX_POINT ( 'NONE', #291 ) ;
#275 = AXIS2_PLACEMENT_3D ( 'NONE', #529, #284, #742 ) ;
#276 = CARTESIAN_POINT ( 'NONE',  ( 4.200000000000000178, 5.143516556418883914E-16, 5.000000000000000000 ) ) ;
#277 = ORIENTED_EDGE ( 'NONE', *, *, #440, .F. ) ;
#278 = AXIS2_PLACEMENT_3D ( 'NONE', #330, #111, #853 ) ;
#279 = ADVANCED_FACE ( 'NONE', ( #206 ), #433, .T. ) ;
#280 = CARTESIAN_POINT ( 'NONE',  ( -4.200000000000000178, 0.000000000000000000, 0.000000000000000000 ) ) ;
#281 = ORIENTED_EDGE ( 'NONE', *, *, #849, .F. ) ;
#282 = VERTEX_POINT ( 'NONE', #355 ) ;
#283 = ORIENTED_EDGE ( 'NONE', *, *, #909, .F. ) ;
#284 = DIRECTION ( 'NONE',  ( -0.000000000000000000, 0.000000000000000000, 1.000000000000000000 ) ) ;
#285 = PLANE ( 'NONE',  #81 ) ;
#286 = ORIENTED_EDGE ( 'NONE', *, *, #382, .F. ) ;
#287 = ORIENTED_EDGE ( 'NONE', *, *, #118, .T. ) ;
#288 = DIRECTION ( 'NONE',  ( 1.000000000000000000, 0.000000000000000000, 0.000000000000000000 ) ) ;
#289 = AXIS2_PLACEMENT_3D ( 'NONE', #319, #240, #549 ) ;
#290 = CARTESIAN_POINT ( 'NONE',  ( -31.72725854464605177, -10.13638792561907920, 5.000000000000000000 ) ) ;
#291 = CARTESIAN_POINT ( 'NONE',  ( -5.061398722736972999, -21.92332645766779109, 0.000000000000000000 ) ) ;
#292 = ORIENTED_EDGE ( 'NONE', *, *, #205, .T. ) ;
#293 = FACE_BOUND ( 'NONE', #707, .T. ) ;
#294 = CARTESIAN_POINT ( 'NONE',  ( 18.30155454425199935, -26.48136119865263183, 0.000000000000000000 ) ) ;
#295 = ORIENTED_EDGE ( 'NONE', *, *, #168, .F. ) ;
#296 = EDGE_CURVE ( 'NONE', #20, #973, #987, .T. ) ;
#297 = EDGE_CURVE ( 'NONE', #56, #851, #683, .T. ) ;
#298 = DIRECTION ( 'NONE',  ( 1.000000000000000000, 0.000000000000000000, 0.000000000000000000 ) ) ;
#299 = AXIS2_PLACEMENT_3D ( 'NONE', #836, #977, #687 ) ;
#300 = DIRECTION ( 'NONE',  ( -0.000000000000000000, 0.000000000000000000, 1.000000000000000000 ) ) ;
#301 = PLANE ( 'NONE',  #573 ) ;
#302 = VERTEX_POINT ( 'NONE', #899 ) ;
#303 = CIRCLE ( 'NONE', #136, 1.899999999999999023 ) ;
#304 = CARTESIAN_POINT ( 'NONE',  ( 36.54652773554268919, -38.00706514140548364, 0.000000000000000000 ) ) ;
#305 = EDGE_LOOP ( 'NONE', ( #715, #685 ) ) ;
#306 = DIRECTION ( 'NONE',  ( -0.000000000000000000, -0.000000000000000000, 1.000000000000000000 ) ) ;
#307 = CARTESIAN_POINT ( 'NONE',  ( 46.17223173593674801, -21.66209186837193812, 5.000000000000000000 ) ) ;
#308 = VECTOR ( 'NONE', #428, 1000.000000000000114 ) ;
#309 = LINE ( 'NONE', #544, #39 ) ;
#310 = ORIENTED_EDGE ( 'NONE', *, *, #796, .F. ) ;
#311 = CARTESIAN_POINT ( 'NONE',  ( -22.34995463686625783, 2.594133329268236032, 0.000000000000000000 ) ) ;
#312 = EDGE_CURVE ( 'NONE', #135, #362, #608, .T. ) ;
#313 = ADVANCED_FACE ( 'NONE', ( #979 ), #234, .F. ) ;
#314 = DIRECTION ( 'NONE',  ( 1.000000000000000000, 0.000000000000000000, 0.000000000000000000 ) ) ;
#315 = DIRECTION ( 'NONE',  ( -0.000000000000000000, -0.000000000000000000, 1.000000000000000000 ) ) ;
#316 = EDGE_LOOP ( 'NONE', ( #164, #219, #808, #585 ) ) ;
#317 = ORIENTED_EDGE ( 'NONE', *, *, #193, .F. ) ;
#318 = DIRECTION ( 'NONE',  ( 1.000000000000000000, 0.000000000000000000, 0.000000000000000000 ) ) ;
#319 = CARTESIAN_POINT ( 'NONE',  ( 31.72725854464606599, -10.13638792561907920, 0.000000000000000000 ) ) ;
#320 = LINE ( 'NONE', #594, #190 ) ;
#321 = VERTEX_POINT ( 'NONE', #454 ) ;
#322 =( GEOMETRIC_REPRESENTATION_CONTEXT ( 3 ) GLOBAL_UNCERTAINTY_ASSIGNED_CONTEXT ( ( #952 ) ) GLOBAL_UNIT_ASSIGNED_CONTEXT ( ( #229, #150, #412 ) ) REPRESENTATION_CONTEXT ( 'NONE', 'WORKASPACE' ) );
#323 = CARTESIAN_POINT ( 'NONE',  ( 46.39562306238299527, -32.71600444970547272, 0.000000000000000000 ) ) ;
#324 = LINE ( 'NONE', #159, #859 ) ;
#325 = EDGE_CURVE ( 'NONE', #362, #764, #697, .T. ) ;
#326 = CARTESIAN_POINT ( 'NONE',  ( 0.000000000000000000, 0.000000000000000000, 5.000000000000000000 ) ) ;
#327 = ORIENTED_EDGE ( 'NONE', *, *, #650, .F. ) ;
#328 = ORIENTED_EDGE ( 'NONE', *, *, #947, .F. ) ;
#329 = AXIS2_PLACEMENT_3D ( 'NONE', #53, #833, #523 ) ;
#330 = CARTESIAN_POINT ( 'NONE',  ( -20.20155460189318930, -26.48136111690976691, 0.000000000000000000 ) ) ;
#331 = DIRECTION ( 'NONE',  ( 1.000000000000000000, 0.000000000000000000, 0.000000000000000000 ) ) ;
#332 = VERTEX_POINT ( 'NONE', #448 ) ;
#333 = CARTESIAN_POINT ( 'NONE',  ( -22.34995463686625783, 2.594133329268236032, 5.000000000000000000 ) ) ;
#334 = CARTESIAN_POINT ( 'NONE',  ( -48.07223173593672527, -21.66209186837193812, 5.000000000000000000 ) ) ;
#335 = CIRCLE ( 'NONE', #941, 1.899999999999999023 ) ;
#336 = VERTEX_POINT ( 'NONE', #75 ) ;
#337 = FACE_OUTER_BOUND ( 'NONE', #965, .T. ) ;
#338 = DIRECTION ( 'NONE',  ( 1.000000000000000000, 0.000000000000000000, 0.000000000000000000 ) ) ;
#339 = ORIENTED_EDGE ( 'NONE', *, *, #837, .F. ) ;
#340 = AXIS2_PLACEMENT_3D ( 'NONE', #866, #344, #183 ) ;
#341 = DIRECTION ( 'NONE',  ( 1.000000000000000000, 0.000000000000000000, 0.000000000000000000 ) ) ;
#342 = CIRCLE ( 'NONE', #784, 1.899999999999999023 ) ;
#343 = EDGE_CURVE ( 'NONE', #577, #926, #303, .T. ) ;
#344 = DIRECTION ( 'NONE',  ( -0.000000000000000000, -0.000000000000000000, 1.000000000000000000 ) ) ;
#345 = EDGE_LOOP ( 'NONE', ( #268, #260, #892, #375 ) ) ;
#346 = CYLINDRICAL_SURFACE ( 'NONE', #199, 1.899999999999999023 ) ;
#347 = DIRECTION ( 'NONE',  ( 1.000000000000000000, 0.000000000000000000, 0.000000000000000000 ) ) ;
#348 = ORIENTED_EDGE ( 'NONE', *, *, #922, .F. ) ;
#349 = CIRCLE ( 'NONE', #694, 1.899999999999999023 ) ;
#350 = FACE_BOUND ( 'NONE', #986, .T. ) ;
#351 = EDGE_CURVE ( 'NONE', #413, #274, #760, .T. ) ;
#352 = EDGE_LOOP ( 'NONE', ( #494, #545, #931, #890 ) ) ;
#353 = AXIS2_PLACEMENT_3D ( 'NONE', #119, #733, #502 ) ;
#354 = CIRCLE ( 'NONE', #609, 1.899999999999999023 ) ;
#355 = CARTESIAN_POINT ( 'NONE',  ( -55.03990101944762614, -20.45727455623749336, 5.000000000000000000 ) ) ;
#356 = EDGE_LOOP ( 'NONE', ( #718, #570, #557, #252 ) ) ;
#357 = CIRCLE ( 'NONE', #912, 1.899999999999999023 ) ;
#358 = EDGE_LOOP ( 'NONE', ( #429, #786 ) ) ;
#359 = FACE_BOUND ( 'NONE', #841, .T. ) ;
#360 = FACE_BOUND ( 'NONE', #176, .T. ) ;
#361 = ORIENTED_EDGE ( 'NONE', *, *, #414, .T. ) ;
#362 = VERTEX_POINT ( 'NONE', #911 ) ;
#363 = CARTESIAN_POINT ( 'NONE',  ( -4.200000000000000178, 0.000000000000000000, 5.000000000000000000 ) ) ;
#364 = CARTESIAN_POINT ( 'NONE',  ( 0.000000000000000000, 0.000000000000000000, 0.000000000000000000 ) ) ;
#365 = DIRECTION ( 'NONE',  ( -0.000000000000000000, 0.000000000000000000, 1.000000000000000000 ) ) ;
#366 = ORIENTED_EDGE ( 'NONE', *, *, #297, .F. ) ;
#367 = ADVANCED_FACE ( 'NONE', ( #379 ), #301, .F. ) ;
#368 = DIRECTION ( 'NONE',  ( 1.000000000000000000, 0.000000000000000000, 0.000000000000000000 ) ) ;
#369 = LINE ( 'NONE', #596, #308 ) ;
#370 = ADVANCED_FACE ( 'NONE', ( #143 ), #459, .T. ) ;
#371 = ORIENTED_EDGE ( 'NONE', *, *, #633, .T. ) ;
#372 = CYLINDRICAL_SURFACE ( 'NONE', #233, 1.899999999999999023 ) ;
#373 = FACE_OUTER_BOUND ( 'NONE', #345, .T. ) ;
#374 = CARTESIAN_POINT ( 'NONE',  ( 31.72725854464606599, -10.13638792561907920, 5.000000000000000000 ) ) ;
#375 = ORIENTED_EDGE ( 'NONE', *, *, #515, .T. ) ;
#376 = CARTESIAN_POINT ( 'NONE',  ( 20.20155454425199792, -26.48136119865263183, 5.000000000000000000 ) ) ;
#377 = VECTOR ( 'NONE', #842, 1000.000000000000000 ) ;
#378 = LINE ( 'NONE', #276, #128 ) ;
#379 = FACE_OUTER_BOUND ( 'NONE', #918, .T. ) ;
#380 = DIRECTION ( 'NONE',  ( -0.000000000000000000, -0.000000000000000000, 1.000000000000000000 ) ) ;
#381 = CARTESIAN_POINT ( 'NONE',  ( 8.644277957064639750, 12.25872989346801134, 5.000000000000000000 ) ) ;
#382 = EDGE_CURVE ( 'NONE', #419, #862, #834, .T. ) ;
#383 = ORIENTED_EDGE ( 'NONE', *, *, #343, .F. ) ;
#384 = DIRECTION ( 'NONE',  ( -0.000000000000000000, -0.000000000000000000, 1.000000000000000000 ) ) ;
#385 = AXIS2_PLACEMENT_3D ( 'NONE', #154, #386, #76 ) ;
#386 = DIRECTION ( 'NONE',  ( -0.000000000000000000, -0.000000000000000000, 1.000000000000000000 ) ) ;
#387 = ORIENTED_EDGE ( 'NONE', *, *, #564, .T. ) ;
#388 = VERTEX_POINT ( 'NONE', #1 ) ;
#389 = DIRECTION ( 'NONE',  ( -0.000000000000000000, -0.000000000000000000, 1.000000000000000000 ) ) ;
#390 = CARTESIAN_POINT ( 'NONE',  ( 4.200000000000000178, 5.143516556418883914E-16, 0.000000000000000000 ) ) ;
#391 = LINE ( 'NONE', #556, #224 ) ;
#392 = ORIENTED_EDGE ( 'NONE', *, *, #581, .F. ) ;
#393 = EDGE_CURVE ( 'NONE', #117, #188, #776, .T. ) ;
#394 = CYLINDRICAL_SURFACE ( 'NONE', #95, 1.899999999999999023 ) ;
#395 = LINE ( 'NONE', #617, #122 ) ;
#396 = CLOSED_SHELL ( 'NONE', ( #644, #17, #969, #580, #313, #589, #64, #14, #216, #40, #92, #279, #528, #370, #895, #367, #163, #476, #239, #103, #935, #149, #499, #417, #897, #658, #740, #667 ) ) ;
#397 = FACE_OUTER_BOUND ( 'NONE', #230, .T. ) ;
#398 = ORIENTED_EDGE ( 'NONE', *, *, #132, .F. ) ;
#399 = AXIS2_PLACEMENT_3D ( 'NONE', #949, #875, #347 ) ;
#400 = DIRECTION ( 'NONE',  ( 1.000000000000000000, 0.000000000000000000, 0.000000000000000000 ) ) ;
#401 = CARTESIAN_POINT ( 'NONE',  ( 37.75134510531835730, -44.97473434317350893, 5.000000000000000000 ) ) ;
#402 = CARTESIAN_POINT ( 'NONE',  ( 0.000000000000000000, 0.000000000000000000, 0.000000000000000000 ) ) ;
#403 = EDGE_CURVE ( 'NONE', #413, #901, #391, .T. ) ;
#404 = ORIENTED_EDGE ( 'NONE', *, *, #714, .F. ) ;
#405 = FACE_OUTER_BOUND ( 'NONE', #884, .T. ) ;
#406 = AXIS2_PLACEMENT_3D ( 'NONE', #46, #147, #590 ) ;
#407 = CARTESIAN_POINT ( 'NONE',  ( -37.75134510531832888, -44.97473434317352314, 0.000000000000000000 ) ) ;
#408 =( GEOMETRIC_REPRESENTATION_CONTEXT ( 3 ) GLOBAL_UNCERTAINTY_ASSIGNED_CONTEXT ( ( #711 ) ) GLOBAL_UNIT_ASSIGNED_CONTEXT ( ( #943, #933, #29 ) ) REPRESENTATION_CONTEXT ( 'NONE', 'WORKASPACE' ) );
#409 = CYLINDRICAL_SURFACE ( 'NONE', #340, 1.899999999999999023 ) ;
#410 = ORIENTED_EDGE ( 'NONE', *, *, #571, .T. ) ;
#411 = DIRECTION ( 'NONE',  ( 1.000000000000000000, 0.000000000000000000, 0.000000000000000000 ) ) ;
#412 =( NAMED_UNIT ( * ) SI_UNIT ( $, .STERADIAN. ) SOLID_ANGLE_UNIT ( ) );
#413 = VERTEX_POINT ( 'NONE', #663 ) ;
#414 = EDGE_CURVE ( 'NONE', #777, #419, #614, .T. ) ;
#415 = CARTESIAN_POINT ( 'NONE',  ( -18.30155460189319072, -26.48136111690976691, 5.000000000000000000 ) ) ;
#416 = CIRCLE ( 'NONE', #139, 22.50000000000000000 ) ;
#417 = ADVANCED_FACE ( 'NONE', ( #397 ), #756, .F. ) ;
#418 = DIRECTION ( 'NONE',  ( 1.000000000000000000, 0.000000000000000000, 0.000000000000000000 ) ) ;
#419 = VERTEX_POINT ( 'NONE', #72 ) ;
#420 = AXIS2_PLACEMENT_3D ( 'NONE', #619, #466, #246 ) ;
#421 = DIRECTION ( 'NONE',  ( -0.000000000000000000, -0.000000000000000000, 1.000000000000000000 ) ) ;
#422 = CYLINDRICAL_SURFACE ( 'NONE', #696, 1.899999999999999023 ) ;
#423 = VERTEX_POINT ( 'NONE', #917 ) ;
#424 = DIRECTION ( 'NONE',  ( 1.000000000000000000, 0.000000000000000000, 0.000000000000000000 ) ) ;
#425 = ORIENTED_EDGE ( 'NONE', *, *, #194, .T. ) ;
#426 = AXIS2_PLACEMENT_3D ( 'NONE', #625, #384, #464 ) ;
#427 = AXIS2_PLACEMENT_3D ( 'NONE', #603, #228, #983 ) ;
#428 = DIRECTION ( 'NONE',  ( -0.8172486595645339635, -0.5762851971376433680, 0.000000000000000000 ) ) ;
#429 = ORIENTED_EDGE ( 'NONE', *, *, #452, .F. ) ;
#430 = EDGE_LOOP ( 'NONE', ( #157, #880, #48, #623 ) ) ;
#431 = AXIS2_PLACEMENT_3D ( 'NONE', #508, #218, #809 ) ;
#432 = FACE_OUTER_BOUND ( 'NONE', #593, .T. ) ;
#433 = PLANE ( 'NONE',  #431 ) ;
#434 = ORIENTED_EDGE ( 'NONE', *, *, #195, .F. ) ;
#435 = ORIENTED_EDGE ( 'NONE', *, *, #77, .T. ) ;
#436 = ORIENTED_EDGE ( 'NONE', *, *, #773, .T. ) ;
#437 = CARTESIAN_POINT ( 'NONE',  ( -36.54652779318385569, -38.00706505966262938, 0.000000000000000000 ) ) ;
#438 = CARTESIAN_POINT ( 'NONE',  ( -20.20155460189318930, -26.48136111690976691, 0.000000000000000000 ) ) ;
#439 = ORIENTED_EDGE ( 'NONE', *, *, #751, .F. ) ;
#440 = EDGE_CURVE ( 'NONE', #666, #791, #251, .T. ) ;
#441 = EDGE_CURVE ( 'NONE', #90, #973, #461, .T. ) ;
#442 = AXIS2_PLACEMENT_3D ( 'NONE', #402, #264, #936 ) ;
#443 = CYLINDRICAL_SURFACE ( 'NONE', #567, 1.899999999999999023 ) ;
#444 = DIRECTION ( 'NONE',  ( 1.000000000000000000, 0.000000000000000000, 0.000000000000000000 ) ) ;
#445 = ORIENTED_EDGE ( 'NONE', *, *, #120, .F. ) ;
#446 = DIRECTION ( 'NONE',  ( 0.5762851971376428128, 0.8172486595645342966, -0.000000000000000000 ) ) ;
#447 = CARTESIAN_POINT ( 'NONE',  ( 49.97223173593674517, -21.66209186837193812, 5.000000000000000000 ) ) ;
#448 = CARTESIAN_POINT ( 'NONE',  ( 22.10155454425199650, -26.48136119865263183, 0.000000000000000000 ) ) ;
#449 = AXIS2_PLACEMENT_3D ( 'NONE', #100, #96, #700 ) ;
#450 = EDGE_LOOP ( 'NONE', ( #510, #583, #628, #49 ) ) ;
#451 = DIRECTION ( 'NONE',  ( -0.000000000000000000, -0.000000000000000000, 1.000000000000000000 ) ) ;
#452 = EDGE_CURVE ( 'NONE', #764, #362, #726, .T. ) ;
#453 = DIRECTION ( 'NONE',  ( -0.000000000000000000, -0.000000000000000000, 1.000000000000000000 ) ) ;
#454 = CARTESIAN_POINT ( 'NONE',  ( -22.10155460189318788, -26.48136111690976691, 5.000000000000000000 ) ) ;
#455 = CARTESIAN_POINT ( 'NONE',  ( 33.62725854464606101, -10.13638792561907920, 5.000000000000000000 ) ) ;
#456 = EDGE_LOOP ( 'NONE', ( #611, #410, #735, #674 ) ) ;
#457 = DIRECTION ( 'NONE',  ( 1.000000000000000000, 0.000000000000000000, 0.000000000000000000 ) ) ;
#458 = VECTOR ( 'NONE', #988, 999.9999999999998863 ) ;
#459 = CYLINDRICAL_SURFACE ( 'NONE', #427, 22.50000000000000000 ) ;
#460 = CARTESIAN_POINT ( 'NONE',  ( 31.72725854464606599, -10.13638792561907920, 5.000000000000000000 ) ) ;
#461 = LINE ( 'NONE', #771, #525 ) ;
#462 = EDGE_LOOP ( 'NONE', ( #854, #328, #597, #361 ) ) ;
#463 = DIRECTION ( 'NONE',  ( -1.000000000000000000, 0.000000000000000000, 0.000000000000000000 ) ) ;
#464 = DIRECTION ( 'NONE',  ( 1.000000000000000000, 0.000000000000000000, 0.000000000000000000 ) ) ;
#465 = AXIS2_PLACEMENT_3D ( 'NONE', #631, #490, #105 ) ;
#466 = DIRECTION ( 'NONE',  ( 0.000000000000000000, -0.000000000000000000, -1.000000000000000000 ) ) ;
#467 = EDGE_CURVE ( 'NONE', #423, #223, #468, .T. ) ;
#468 = LINE ( 'NONE', #363, #779 ) ;
#469 = EDGE_LOOP ( 'NONE', ( #310, #383 ) ) ;
#470 = LINE ( 'NONE', #846, #579 ) ;
#471 = DIRECTION ( 'NONE',  ( -0.000000000000000000, -0.000000000000000000, 1.000000000000000000 ) ) ;
#472 = DIRECTION ( 'NONE',  ( -0.000000000000000000, -0.000000000000000000, 1.000000000000000000 ) ) ;
#473 = EDGE_LOOP ( 'NONE', ( #32, #781, #954, #942 ) ) ;
#474 = DIRECTION ( 'NONE',  ( 1.000000000000000000, 0.000000000000000000, 0.000000000000000000 ) ) ;
#475 = ORIENTED_EDGE ( 'NONE', *, *, #16, .F. ) ;
#476 = ADVANCED_FACE ( 'NONE', ( #51 ), #698, .F. ) ;
#477 = EDGE_CURVE ( 'NONE', #214, #937, #15, .T. ) ;
#478 = DIRECTION ( 'NONE',  ( 1.000000000000000000, 0.000000000000000000, 0.000000000000000000 ) ) ;
#479 = EDGE_LOOP ( 'NONE', ( #434, #563, #950, #484, #509, #907, #436, #277 ) ) ;
#480 = AXIS2_PLACEMENT_3D ( 'NONE', #326, #236, #679 ) ;
#481 = LINE ( 'NONE', #323, #231 ) ;
#482 = CARTESIAN_POINT ( 'NONE',  ( 36.54652773554268919, -38.00706514140548364, 5.000000000000000000 ) ) ;
#483 = DIRECTION ( 'NONE',  ( -0.8172486595645340746, -0.5762851971376432569, 0.000000000000000000 ) ) ;
#484 = ORIENTED_EDGE ( 'NONE', *, *, #403, .F. ) ;
#485 = VECTOR ( 'NONE', #54, 1000.000000000000000 ) ;
#486 = DIRECTION ( 'NONE',  ( -0.000000000000000000, -0.000000000000000000, 1.000000000000000000 ) ) ;
#487 = AXIS2_PLACEMENT_3D ( 'NONE', #107, #863, #463 ) ;
#488 = VECTOR ( 'NONE', #108, 1000.000000000000000 ) ;
#489 = EDGE_CURVE ( 'NONE', #901, #282, #309, .T. ) ;
#490 = DIRECTION ( 'NONE',  ( -0.000000000000000000, -0.000000000000000000, 1.000000000000000000 ) ) ;
#491 = ORIENTED_EDGE ( 'NONE', *, *, #515, .F. ) ;
#492 = FACE_OUTER_BOUND ( 'NONE', #28, .T. ) ;
#493 = CYLINDRICAL_SURFACE ( 'NONE', #271, 1.899999999999999023 ) ;
#494 = ORIENTED_EDGE ( 'NONE', *, *, #750, .F. ) ;
#495 = LINE ( 'NONE', #415, #787 ) ;
#496 = PRESENTATION_LAYER_ASSIGNMENT (  '', '', ( #923 ) ) ;
#497 = ADVANCED_BREP_SHAPE_REPRESENTATION ( 'connector_wide_lower', ( #518, #501 ), #408 ) ;
#498 = DIRECTION ( 'NONE',  ( 0.5762851971376432569, -0.8172486595645340746, 0.000000000000000000 ) ) ;
#499 = ADVANCED_FACE ( 'NONE', ( #930 ), #690, .F. ) ;
#500 = ORIENTED_EDGE ( 'NONE', *, *, #129, .T. ) ;
#501 = AXIS2_PLACEMENT_3D ( 'NONE', #33, #928, #250 ) ;
#502 = DIRECTION ( 'NONE',  ( 1.000000000000000000, 0.000000000000000000, 0.000000000000000000 ) ) ;
#503 = ORIENTED_EDGE ( 'NONE', *, *, #837, .T. ) ;
#504 = LINE ( 'NONE', #743, #485 ) ;
#505 = EDGE_LOOP ( 'NONE', ( #445, #646, #8, #588 ) ) ;
#506 = CIRCLE ( 'NONE', #712, 1.899999999999999023 ) ;
#507 = ORIENTED_EDGE ( 'NONE', *, *, #393, .T. ) ;
#508 = CARTESIAN_POINT ( 'NONE',  ( -46.39562306238297396, -32.71600444970550114, 5.000000000000000000 ) ) ;
#509 = ORIENTED_EDGE ( 'NONE', *, *, #581, .T. ) ;
#510 = ORIENTED_EDGE ( 'NONE', *, *, #701, .F. ) ;
#511 = CIRCLE ( 'NONE', #767, 4.200000000000000178 ) ;
#512 = AXIS2_PLACEMENT_3D ( 'NONE', #31, #98, #418 ) ;
#513 = CARTESIAN_POINT ( 'NONE',  ( -55.03990101944762614, -20.45727455623749336, 5.000000000000000000 ) ) ;
#514 = FACE_BOUND ( 'NONE', #587, .T. ) ;
#515 = EDGE_CURVE ( 'NONE', #791, #937, #320, .T. ) ;
#516 = ORIENTED_EDGE ( 'NONE', *, *, #688, .T. ) ;
#517 = EDGE_LOOP ( 'NONE', ( #371, #387 ) ) ;
#518 = MANIFOLD_SOLID_BREP ( 'M3 Clearance Hole1', #396 ) ;
#519 = PLANE ( 'NONE',  #275 ) ;
#520 = LINE ( 'NONE', #660, #42 ) ;
#521 = ORIENTED_EDGE ( 'NONE', *, *, #763, .F. ) ;
#522 = CARTESIAN_POINT ( 'NONE',  ( -8.644277957064641527, -12.25872989346801489, 5.000000000000000000 ) ) ;
#523 = DIRECTION ( 'NONE',  ( 1.000000000000000000, 0.000000000000000000, 0.000000000000000000 ) ) ;
#524 = DIRECTION ( 'NONE',  ( -0.000000000000000000, -0.000000000000000000, 1.000000000000000000 ) ) ;
#525 = VECTOR ( 'NONE', #170, 1000.000000000000000 ) ;
#526 = ORIENTED_EDGE ( 'NONE', *, *, #564, .F. ) ;
#527 = CARTESIAN_POINT ( 'NONE',  ( 55.03990101944763325, -20.45727455623747559, 5.000000000000000000 ) ) ;
#528 = ADVANCED_FACE ( 'NONE', ( #576 ), #925, .T. ) ;
#529 = CARTESIAN_POINT ( 'NONE',  ( 0.000000000000000000, 0.000000000000000000, 0.000000000000000000 ) ) ;
#530 = DIRECTION ( 'NONE',  ( 1.000000000000000000, 0.000000000000000000, 0.000000000000000000 ) ) ;
#531 = AXIS2_PLACEMENT_3D ( 'NONE', #290, #747, #142 ) ;
#532 = SURFACE_SIDE_STYLE ('',( #762 ) ) ;
#533 = ORIENTED_EDGE ( 'NONE', *, *, #52, .F. ) ;
#534 = PRODUCT_DEFINITION_FORMATION_WITH_SPECIFIED_SOURCE ( 'ANY', '', #919, .NOT_KNOWN. ) ;
#535 = DIRECTION ( 'NONE',  ( -0.000000000000000000, -0.000000000000000000, 1.000000000000000000 ) ) ;
#536 = VERTEX_POINT ( 'NONE', #872 ) ;
#537 = CARTESIAN_POINT ( 'NONE',  ( -36.54652779318385569, -38.00706505966262938, 5.000000000000000000 ) ) ;
#538 = CYLINDRICAL_SURFACE ( 'NONE', #385, 1.899999999999999023 ) ;
#539 = CARTESIAN_POINT ( 'NONE',  ( 5.061398722736974776, -21.92332645766778398, 5.000000000000000000 ) ) ;
#540 = EDGE_LOOP ( 'NONE', ( #348, #131, #725, #283 ) ) ;
#541 = DIRECTION ( 'NONE',  ( -0.000000000000000000, -0.000000000000000000, 1.000000000000000000 ) ) ;
#542 = EDGE_CURVE ( 'NONE', #336, #764, #793, .T. ) ;
#543 = CARTESIAN_POINT ( 'NONE',  ( 29.82725854464606741, -10.13638792561907920, 0.000000000000000000 ) ) ;
#544 = CARTESIAN_POINT ( 'NONE',  ( -46.39562306238297396, -32.71600444970550114, 5.000000000000000000 ) ) ;
#545 = ORIENTED_EDGE ( 'NONE', *, *, #77, .F. ) ;
#546 = DIRECTION ( 'NONE',  ( 1.000000000000000000, 0.000000000000000000, 0.000000000000000000 ) ) ;
#547 = CARTESIAN_POINT ( 'NONE',  ( -31.72725854464605177, -10.13638792561907920, 5.000000000000000000 ) ) ;
#548 = AXIS2_PLACEMENT_3D ( 'NONE', #924, #761, #839 ) ;
#549 = DIRECTION ( 'NONE',  ( 1.000000000000000000, 0.000000000000000000, 0.000000000000000000 ) ) ;
#550 = PRESENTATION_STYLE_ASSIGNMENT (( #78 ) ) ;
#551 = EDGE_CURVE ( 'NONE', #135, #336, #575, .T. ) ;
#552 = ORIENTED_EDGE ( 'NONE', *, *, #849, .T. ) ;
#553 = CARTESIAN_POINT ( 'NONE',  ( -20.20155460189318930, -26.48136111690976691, 5.000000000000000000 ) ) ;
#554 = LINE ( 'NONE', #401, #488 ) ;
#555 = EDGE_CURVE ( 'NONE', #302, #20, #799, .T. ) ;
#556 = CARTESIAN_POINT ( 'NONE',  ( 8.644277957064645079, -12.25872989346800424, 5.000000000000000000 ) ) ;
#557 = ORIENTED_EDGE ( 'NONE', *, *, #909, .T. ) ;
#558 = CYLINDRICAL_SURFACE ( 'NONE', #487, 30.00000000000000000 ) ;
#559 = APPLICATION_PROTOCOL_DEFINITION ( 'draft international standard', 'automotive_design', 1998, #940 ) ;
#560 = AXIS2_PLACEMENT_3D ( 'NONE', #612, #471, #220 ) ;
#561 = CARTESIAN_POINT ( 'NONE',  ( -20.20155460189318930, -26.48136111690976691, 5.000000000000000000 ) ) ;
#562 = VERTEX_POINT ( 'NONE', #191 ) ;
#563 = ORIENTED_EDGE ( 'NONE', *, *, #269, .T. ) ;
#564 = EDGE_CURVE ( 'NONE', #699, #223, #873, .T. ) ;
#565 = CIRCLE ( 'NONE', #165, 1.899999999999999023 ) ;
#566 = ORIENTED_EDGE ( 'NONE', *, *, #3, .F. ) ;
#567 = AXIS2_PLACEMENT_3D ( 'NONE', #58, #453, #668 ) ;
#568 = CARTESIAN_POINT ( 'NONE',  ( -36.54652779318385569, -38.00706505966262938, 5.000000000000000000 ) ) ;
#569 = LINE ( 'NONE', #27, #13 ) ;
#570 = ORIENTED_EDGE ( 'NONE', *, *, #186, .F. ) ;
#571 = EDGE_CURVE ( 'NONE', #810, #734, #569, .T. ) ;
#572 = DIRECTION ( 'NONE',  ( -0.000000000000000000, -0.000000000000000000, 1.000000000000000000 ) ) ;
#573 = AXIS2_PLACEMENT_3D ( 'NONE', #222, #677, #838 ) ;
#574 = EDGE_LOOP ( 'NONE', ( #287, #99, #392, #144 ) ) ;
#575 = CIRCLE ( 'NONE', #399, 1.899999999999999023 ) ;
#576 = FACE_OUTER_BOUND ( 'NONE', #473, .T. ) ;
#577 = VERTEX_POINT ( 'NONE', #273 ) ;
#578 = PRODUCT_DEFINITION_SHAPE ( 'NONE', 'NONE',  #826 ) ;
#579 = VECTOR ( 'NONE', #774, 1000.000000000000000 ) ;
#580 = ADVANCED_FACE ( 'NONE', ( #708 ), #422, .F. ) ;
#581 = EDGE_CURVE ( 'NONE', #413, #777, #416, .T. ) ;
#582 = CARTESIAN_POINT ( 'NONE',  ( 0.000000000000000000, 0.000000000000000000, 5.000000000000000000 ) ) ;
#583 = ORIENTED_EDGE ( 'NONE', *, *, #763, .T. ) ;
#584 = CARTESIAN_POINT ( 'NONE',  ( 34.64652773554269061, -38.00706514140548364, 5.000000000000000000 ) ) ;
#585 = ORIENTED_EDGE ( 'NONE', *, *, #751, .T. ) ;
#586 = CIRCLE ( 'NONE', #426, 1.899999999999999023 ) ;
#587 = EDGE_LOOP ( 'NONE', ( #807, #600 ) ) ;
#588 = ORIENTED_EDGE ( 'NONE', *, *, #441, .F. ) ;
#589 = ADVANCED_FACE ( 'NONE', ( #187 ), #493, .F. ) ;
#590 = DIRECTION ( 'NONE',  ( 1.000000000000000000, 0.000000000000000000, 0.000000000000000000 ) ) ;
#591 = FACE_BOUND ( 'NONE', #201, .T. ) ;
#592 = ORIENTED_EDGE ( 'NONE', *, *, #796, .T. ) ;
#593 = EDGE_LOOP ( 'NONE', ( #125, #914, #169, #292 ) ) ;
#594 = CARTESIAN_POINT ( 'NONE',  ( 55.03990101944763325, -20.45727455623747559, 5.000000000000000000 ) ) ;
#595 = FACE_BOUND ( 'NONE', #662, .T. ) ;
#596 = CARTESIAN_POINT ( 'NONE',  ( 8.644277957064645079, -12.25872989346800424, 0.000000000000000000 ) ) ;
#597 = ORIENTED_EDGE ( 'NONE', *, *, #50, .F. ) ;
#598 = FACE_BOUND ( 'NONE', #642, .T. ) ;
#599 = FACE_OUTER_BOUND ( 'NONE', #479, .T. ) ;
#600 = ORIENTED_EDGE ( 'NONE', *, *, #622, .F. ) ;
#601 = CARTESIAN_POINT ( 'NONE',  ( 37.75134510531835730, -44.97473434317350893, 0.000000000000000000 ) ) ;
#602 = CARTESIAN_POINT ( 'NONE',  ( 8.644277957064639750, 12.25872989346801134, 5.000000000000000000 ) ) ;
#603 = CARTESIAN_POINT ( 'NONE',  ( 0.000000000000000000, 0.000000000000000000, 5.000000000000000000 ) ) ;
#604 = ORIENTED_EDGE ( 'NONE', *, *, #825, .T. ) ;
#605 = CARTESIAN_POINT ( 'NONE',  ( 5.061398722736974776, -21.92332645766778398, 5.000000000000000000 ) ) ;
#606 = AXIS2_PLACEMENT_3D ( 'NONE', #669, #882, #724 ) ;
#607 = EDGE_LOOP ( 'NONE', ( #295, #2, #709, #526 ) ) ;
#608 = LINE ( 'NONE', #905, #812 ) ;
#609 = AXIS2_PLACEMENT_3D ( 'NONE', #616, #172, #474 ) ;
#610 = DIRECTION ( 'NONE',  ( -0.000000000000000000, -0.000000000000000000, 1.000000000000000000 ) ) ;
#611 = ORIENTED_EDGE ( 'NONE', *, *, #868, .F. ) ;
#612 = CARTESIAN_POINT ( 'NONE',  ( 36.54652773554268919, -38.00706514140548364, 0.000000000000000000 ) ) ;
#613 = FACE_OUTER_BOUND ( 'NONE', #316, .T. ) ;
#614 = LINE ( 'NONE', #539, #824 ) ;
#615 = EDGE_LOOP ( 'NONE', ( #281, #722, #961, #115 ) ) ;
#616 = CARTESIAN_POINT ( 'NONE',  ( -20.20155460189318930, -26.48136111690976691, 5.000000000000000000 ) ) ;
#617 = CARTESIAN_POINT ( 'NONE',  ( 22.10155454425199650, -26.48136119865263183, 5.000000000000000000 ) ) ;
#618 = EDGE_CURVE ( 'NONE', #265, #188, #794, .T. ) ;
#619 = CARTESIAN_POINT ( 'NONE',  ( 7.766293054025036421E-16, -17.41785127321485760, 0.000000000000000000 ) ) ;
#620 = AXIS2_PLACEMENT_3D ( 'NONE', #737, #247, #288 ) ;
#621 = DIRECTION ( 'NONE',  ( -0.000000000000000000, -0.000000000000000000, -1.000000000000000000 ) ) ;
#622 = EDGE_CURVE ( 'NONE', #321, #649, #261, .T. ) ;
#623 = ORIENTED_EDGE ( 'NONE', *, *, #91, .T. ) ;
#624 = CARTESIAN_POINT ( 'NONE',  ( 38.44652773554268776, -38.00706514140548364, 5.000000000000000000 ) ) ;
#625 = CARTESIAN_POINT ( 'NONE',  ( -31.72725854464605177, -10.13638792561907920, 0.000000000000000000 ) ) ;
#626 = AXIS2_PLACEMENT_3D ( 'NONE', #437, #898, #738 ) ;
#627 = CARTESIAN_POINT ( 'NONE',  ( 8.644277957064639750, 12.25872989346801134, 0.000000000000000000 ) ) ;
#628 = ORIENTED_EDGE ( 'NONE', *, *, #618, .T. ) ;
#629 = CARTESIAN_POINT ( 'NONE',  ( 48.07223173593674659, -21.66209186837193812, 5.000000000000000000 ) ) ;
#630 = DIRECTION ( 'NONE',  ( -0.000000000000000000, -0.000000000000000000, 1.000000000000000000 ) ) ;
#631 = CARTESIAN_POINT ( 'NONE',  ( -31.72725854464605177, -10.13638792561907920, 5.000000000000000000 ) ) ;
#632 = ORIENTED_EDGE ( 'NONE', *, *, #52, .T. ) ;
#633 = EDGE_CURVE ( 'NONE', #223, #699, #511, .T. ) ;
#634 = LINE ( 'NONE', #938, #44 ) ;
#635 = CARTESIAN_POINT ( 'NONE',  ( -22.10155460189318788, -26.48136111690976691, 0.000000000000000000 ) ) ;
#636 = AXIS2_PLACEMENT_3D ( 'NONE', #74, #908, #298 ) ;
#637 = FACE_OUTER_BOUND ( 'NONE', #615, .T. ) ;
#638 = ORIENTED_EDGE ( 'NONE', *, *, #325, .T. ) ;
#639 = CARTESIAN_POINT ( 'NONE',  ( 37.75134510531835730, -44.97473434317350893, 5.000000000000000000 ) ) ;
#640 = CIRCLE ( 'NONE', #289, 1.899999999999999023 ) ;
#641 = CARTESIAN_POINT ( 'NONE',  ( 0.000000000000000000, 0.000000000000000000, 5.000000000000000000 ) ) ;
#642 = EDGE_LOOP ( 'NONE', ( #503, #60 ) ) ;
#643 = VECTOR ( 'NONE', #123, 1000.000000000000000 ) ;
#644 = ADVANCED_FACE ( 'NONE', ( #637 ), #35, .F. ) ;
#645 = DIRECTION ( 'NONE',  ( 1.000000000000000000, 0.000000000000000000, 0.000000000000000000 ) ) ;
#646 = ORIENTED_EDGE ( 'NONE', *, *, #555, .T. ) ;
#647 = AXIS2_PLACEMENT_3D ( 'NONE', #686, #82, #258 ) ;
#648 = DIRECTION ( 'NONE',  ( -0.000000000000000000, -0.000000000000000000, 1.000000000000000000 ) ) ;
#649 = VERTEX_POINT ( 'NONE', #255 ) ;
#650 = EDGE_CURVE ( 'NONE', #876, #151, #790, .T. ) ;
#651 = PRODUCT_RELATED_PRODUCT_CATEGORY ( 'part', '', ( #919 ) ) ;
#652 = AXIS2_PLACEMENT_3D ( 'NONE', #93, #472, #162 ) ;
#653 = CYLINDRICAL_SURFACE ( 'NONE', #606, 4.200000000000000178 ) ;
#654 = ORIENTED_EDGE ( 'NONE', *, *, #186, .T. ) ;
#655 = CARTESIAN_POINT ( 'NONE',  ( 20.20155454425199792, -26.48136119865263183, 5.000000000000000000 ) ) ;
#656 = ORIENTED_EDGE ( 'NONE', *, *, #633, .F. ) ;
#657 = ORIENTED_EDGE ( 'NONE', *, *, #944, .F. ) ;
#658 = ADVANCED_FACE ( 'NONE', ( #259 ), #409, .F. ) ;
#659 = FACE_BOUND ( 'NONE', #23, .T. ) ;
#660 = CARTESIAN_POINT ( 'NONE',  ( -22.34995463686625783, 2.594133329268236032, 5.000000000000000000 ) ) ;
#661 = EDGE_LOOP ( 'NONE', ( #830, #736, #741, #730 ) ) ;
#662 = EDGE_LOOP ( 'NONE', ( #654, #800 ) ) ;
#663 = CARTESIAN_POINT ( 'NONE',  ( -5.061398722736972999, -21.92332645766779109, 5.000000000000000000 ) ) ;
#664 = DIRECTION ( 'NONE',  ( 0.8172486595645340746, 0.5762851971376432569, 0.000000000000000000 ) ) ;
#665 = DIRECTION ( 'NONE',  ( 1.000000000000000000, 0.000000000000000000, 0.000000000000000000 ) ) ;
#666 = VERTEX_POINT ( 'NONE', #109 ) ;
#667 = ADVANCED_FACE ( 'NONE', ( #613 ), #989, .F. ) ;
#668 = DIRECTION ( 'NONE',  ( 1.000000000000000000, 0.000000000000000000, 0.000000000000000000 ) ) ;
#669 = CARTESIAN_POINT ( 'NONE',  ( 0.000000000000000000, 0.000000000000000000, 5.000000000000000000 ) ) ;
#670 = EDGE_LOOP ( 'NONE', ( #500, #121 ) ) ;
#671 = CARTESIAN_POINT ( 'NONE',  ( -48.07223173593672527, -21.66209186837193812, 5.000000000000000000 ) ) ;
#672 = PLANE ( 'NONE',  #213 ) ;
#673 = CARTESIAN_POINT ( 'NONE',  ( 36.54652773554268919, -38.00706514140548364, 5.000000000000000000 ) ) ;
#674 = ORIENTED_EDGE ( 'NONE', *, *, #720, .F. ) ;
#675 = VECTOR ( 'NONE', #83, 1000.000000000000114 ) ;
#676 = CARTESIAN_POINT ( 'NONE',  ( 46.39562306238299527, -32.71600444970547272, 5.000000000000000000 ) ) ;
#677 = DIRECTION ( 'NONE',  ( -0.8172486595645344076, 0.5762851971376427018, 0.000000000000000000 ) ) ;
#678 = DIRECTION ( 'NONE',  ( -0.000000000000000000, -0.000000000000000000, 1.000000000000000000 ) ) ;
#679 = DIRECTION ( 'NONE',  ( -1.000000000000000000, 0.000000000000000000, 0.000000000000000000 ) ) ;
#680 = ORIENTED_EDGE ( 'NONE', *, *, #195, .T. ) ;
#681 = CARTESIAN_POINT ( 'NONE',  ( -46.39562306238297396, -32.71600444970550114, 0.000000000000000000 ) ) ;
#682 = CIRCLE ( 'NONE', #210, 1.899999999999999023 ) ;
#683 = CIRCLE ( 'NONE', #263, 1.899999999999999023 ) ;
#684 = DIRECTION ( 'NONE',  ( 1.000000000000000000, 0.000000000000000000, 0.000000000000000000 ) ) ;
#685 = ORIENTED_EDGE ( 'NONE', *, *, #120, .T. ) ;
#686 = CARTESIAN_POINT ( 'NONE',  ( 48.07223173593674659, -21.66209186837193812, 5.000000000000000000 ) ) ;
#687 = DIRECTION ( 'NONE',  ( 1.000000000000000000, 0.000000000000000000, 0.000000000000000000 ) ) ;
#688 = EDGE_CURVE ( 'NONE', #876, #214, #80, .T. ) ;
#689 = DIRECTION ( 'NONE',  ( -0.000000000000000000, -0.000000000000000000, 1.000000000000000000 ) ) ;
#690 = CYLINDRICAL_SURFACE ( 'NONE', #620, 1.899999999999999023 ) ;
#691 = ORIENTED_EDGE ( 'NONE', *, *, #719, .T. ) ;
#692 = CYLINDRICAL_SURFACE ( 'NONE', #900, 1.899999999999999023 ) ;
#693 = CARTESIAN_POINT ( 'NONE',  ( -34.64652779318385711, -38.00706505966262938, 5.000000000000000000 ) ) ;
#694 = AXIS2_PLACEMENT_3D ( 'NONE', #629, #4, #400 ) ;
#695 = VECTOR ( 'NONE', #755, 1000.000000000000000 ) ;
#696 = AXIS2_PLACEMENT_3D ( 'NONE', #334, #648, #338 ) ;
#697 = CIRCLE ( 'NONE', #272, 1.899999999999999023 ) ;
#698 = CYLINDRICAL_SURFACE ( 'NONE', #480, 4.200000000000000178 ) ;
#699 = VERTEX_POINT ( 'NONE', #390 ) ;
#700 = DIRECTION ( 'NONE',  ( 1.000000000000000000, 0.000000000000000000, 0.000000000000000000 ) ) ;
#701 = EDGE_CURVE ( 'NONE', #744, #117, #640, .T. ) ;
#702 = AXIS2_PLACEMENT_3D ( 'NONE', #364, #300, #368 ) ;
#703 = DIRECTION ( 'NONE',  ( 1.000000000000000000, 0.000000000000000000, 0.000000000000000000 ) ) ;
#704 = EDGE_LOOP ( 'NONE', ( #208, #752 ) ) ;
#705 = CIRCLE ( 'NONE', #278, 1.899999999999999023 ) ;
#706 = FACE_OUTER_BOUND ( 'NONE', #180, .T. ) ;
#707 = EDGE_LOOP ( 'NONE', ( #124, #552 ) ) ;
#708 = FACE_OUTER_BOUND ( 'NONE', #505, .T. ) ;
#709 = ORIENTED_EDGE ( 'NONE', *, *, #467, .T. ) ;
#710 = CARTESIAN_POINT ( 'NONE',  ( 20.20155454425199792, -26.48136119865263183, 0.000000000000000000 ) ) ;
#711 = UNCERTAINTY_MEASURE_WITH_UNIT (LENGTH_MEASURE( 1.000000000000000082E-05 ), #943, 'distance_accuracy_value', 'NONE');
#712 = AXIS2_PLACEMENT_3D ( 'NONE', #376, #541, #62 ) ;
#713 = CARTESIAN_POINT ( 'NONE',  ( -34.64652779318385711, -38.00706505966262938, 5.000000000000000000 ) ) ;
#714 = EDGE_CURVE ( 'NONE', #90, #302, #972, .T. ) ;
#715 = ORIENTED_EDGE ( 'NONE', *, *, #714, .T. ) ;
#716 = VECTOR ( 'NONE', #689, 1000.000000000000000 ) ;
#717 = CARTESIAN_POINT ( 'NONE',  ( 0.000000000000000000, 0.000000000000000000, 0.000000000000000000 ) ) ;
#718 = ORIENTED_EDGE ( 'NONE', *, *, #828, .F. ) ;
#719 = EDGE_CURVE ( 'NONE', #973, #20, #565, .T. ) ;
#720 = EDGE_CURVE ( 'NONE', #536, #106, #843, .T. ) ;
#721 = DIRECTION ( 'NONE',  ( -0.000000000000000000, -0.000000000000000000, 1.000000000000000000 ) ) ;
#722 = ORIENTED_EDGE ( 'NONE', *, *, #226, .T. ) ;
#723 = AXIS2_PLACEMENT_3D ( 'NONE', #753, #389, #318 ) ;
#724 = DIRECTION ( 'NONE',  ( -1.000000000000000000, 0.000000000000000000, 0.000000000000000000 ) ) ;
#725 = ORIENTED_EDGE ( 'NONE', *, *, #622, .T. ) ;
#726 = CIRCLE ( 'NONE', #652, 1.899999999999999023 ) ;
#727 = LINE ( 'NONE', #584, #865 ) ;
#728 = EDGE_CURVE ( 'NONE', #188, #265, #682, .T. ) ;
#729 = EDGE_LOOP ( 'NONE', ( #475, #883 ) ) ;
#730 = ORIENTED_EDGE ( 'NONE', *, *, #16, .T. ) ;
#731 = AXIS2_PLACEMENT_3D ( 'NONE', #889, #47, #41 ) ;
#732 = CARTESIAN_POINT ( 'NONE',  ( -46.17223173593672669, -21.66209186837193812, 0.000000000000000000 ) ) ;
#733 = DIRECTION ( 'NONE',  ( 0.000000000000000000, -0.000000000000000000, -1.000000000000000000 ) ) ;
#734 = VERTEX_POINT ( 'NONE', #307 ) ;
#735 = ORIENTED_EDGE ( 'NONE', *, *, #24, .T. ) ;
#736 = ORIENTED_EDGE ( 'NONE', *, *, #129, .F. ) ;
#737 = CARTESIAN_POINT ( 'NONE',  ( 48.07223173593674659, -21.66209186837193812, 5.000000000000000000 ) ) ;
#738 = DIRECTION ( 'NONE',  ( 1.000000000000000000, 0.000000000000000000, 0.000000000000000000 ) ) ;
#739 = DIRECTION ( 'NONE',  ( -0.000000000000000000, -0.000000000000000000, -1.000000000000000000 ) ) ;
#740 = ADVANCED_FACE ( 'NONE', ( #913 ), #538, .F. ) ;
#741 = ORIENTED_EDGE ( 'NONE', *, *, #720, .T. ) ;
#742 = DIRECTION ( 'NONE',  ( 1.000000000000000000, 0.000000000000000000, 0.000000000000000000 ) ) ;
#743 = CARTESIAN_POINT ( 'NONE',  ( -33.62725854464605391, -10.13638792561907920, 5.000000000000000000 ) ) ;
#744 = VERTEX_POINT ( 'NONE', #543 ) ;
#745 = FACE_OUTER_BOUND ( 'NONE', #45, .T. ) ;
#746 = CIRCLE ( 'NONE', #329, 1.899999999999999023 ) ;
#747 = DIRECTION ( 'NONE',  ( -0.000000000000000000, -0.000000000000000000, 1.000000000000000000 ) ) ;
#748 = DIRECTION ( 'NONE',  ( 1.000000000000000000, 0.000000000000000000, 0.000000000000000000 ) ) ;
#749 = CIRCLE ( 'NONE', #878, 4.200000000000000178 ) ;
#750 = EDGE_CURVE ( 'NONE', #198, #56, #161, .T. ) ;
#751 = EDGE_CURVE ( 'NONE', #257, #38, #335, .T. ) ;
#752 = ORIENTED_EDGE ( 'NONE', *, *, #551, .T. ) ;
#753 = CARTESIAN_POINT ( 'NONE',  ( 31.72725854464606599, -10.13638792561907920, 0.000000000000000000 ) ) ;
#754 = FACE_BOUND ( 'NONE', #704, .T. ) ;
#755 = DIRECTION ( 'NONE',  ( -0.000000000000000000, -0.000000000000000000, -1.000000000000000000 ) ) ;
#756 = CYLINDRICAL_SURFACE ( 'NONE', #9, 1.899999999999999023 ) ;
#757 = ORIENTED_EDGE ( 'NONE', *, *, #555, .F. ) ;
#758 = VECTOR ( 'NONE', #141, 1000.000000000000000 ) ;
#759 = CARTESIAN_POINT ( 'NONE',  ( 46.17223173593674801, -21.66209186837193812, 0.000000000000000000 ) ) ;
#760 = LINE ( 'NONE', #829, #695 ) ;
#761 = DIRECTION ( 'NONE',  ( -0.000000000000000000, -0.000000000000000000, 1.000000000000000000 ) ) ;
#762 = SURFACE_STYLE_FILL_AREA ( #156 ) ;
#763 = EDGE_CURVE ( 'NONE', #744, #265, #324, .T. ) ;
#764 = VERTEX_POINT ( 'NONE', #693 ) ;
#765 = LINE ( 'NONE', #624, #951 ) ;
#766 = CARTESIAN_POINT ( 'NONE',  ( -31.72725854464605177, -10.13638792561907920, 0.000000000000000000 ) ) ;
#767 = AXIS2_PLACEMENT_3D ( 'NONE', #717, #19, #331 ) ;
#768 = EDGE_CURVE ( 'NONE', #73, #388, #155, .T. ) ;
#769 = CIRCLE ( 'NONE', #353, 30.00000000000000000 ) ;
#770 = CARTESIAN_POINT ( 'NONE',  ( 49.97223173593674517, -21.66209186837193812, 5.000000000000000000 ) ) ;
#771 = CARTESIAN_POINT ( 'NONE',  ( -46.17223173593672669, -21.66209186837193812, 5.000000000000000000 ) ) ;
#772 = ORIENTED_EDGE ( 'NONE', *, *, #477, .T. ) ;
#773 = EDGE_CURVE ( 'NONE', #976, #791, #982, .T. ) ;
#774 = DIRECTION ( 'NONE',  ( 0.8172486595645342966, -0.5762851971376428128, 0.000000000000000000 ) ) ;
#775 = DIRECTION ( 'NONE',  ( 1.000000000000000000, 0.000000000000000000, 0.000000000000000000 ) ) ;
#776 = LINE ( 'NONE', #455, #178 ) ;
#777 = VERTEX_POINT ( 'NONE', #605 ) ;
#778 = ORIENTED_EDGE ( 'NONE', *, *, #542, .T. ) ;
#779 = VECTOR ( 'NONE', #855, 1000.000000000000000 ) ;
#780 = DIRECTION ( 'NONE',  ( -0.000000000000000000, -0.000000000000000000, 1.000000000000000000 ) ) ;
#781 = ORIENTED_EDGE ( 'NONE', *, *, #351, .F. ) ;
#782 = CARTESIAN_POINT ( 'NONE',  ( -33.62725854464605391, -10.13638792561907920, 5.000000000000000000 ) ) ;
#783 = CARTESIAN_POINT ( 'NONE',  ( 38.44652773554268776, -38.00706514140548364, 5.000000000000000000 ) ) ;
#784 = AXIS2_PLACEMENT_3D ( 'NONE', #438, #197, #424 ) ;
#785 = AXIS2_PLACEMENT_3D ( 'NONE', #932, #21, #177 ) ;
#786 = ORIENTED_EDGE ( 'NONE', *, *, #325, .F. ) ;
#787 = VECTOR ( 'NONE', #630, 1000.000000000000000 ) ;
#788 = CARTESIAN_POINT ( 'NONE',  ( -49.97223173593672385, -21.66209186837193812, 5.000000000000000000 ) ) ;
#789 = DIRECTION ( 'NONE',  ( -0.000000000000000000, -0.000000000000000000, 1.000000000000000000 ) ) ;
#790 = LINE ( 'NONE', #179, #30 ) ;
#791 = VERTEX_POINT ( 'NONE', #527 ) ;
#792 = DIRECTION ( 'NONE',  ( 1.000000000000000000, 0.000000000000000000, 0.000000000000000000 ) ) ;
#793 = LINE ( 'NONE', #713, #243 ) ;
#794 = CIRCLE ( 'NONE', #512, 1.899999999999999023 ) ;
#795 = ORIENTED_EDGE ( 'NONE', *, *, #114, .F. ) ;
#796 = EDGE_CURVE ( 'NONE', #926, #577, #71, .T. ) ;
#797 = CARTESIAN_POINT ( 'NONE',  ( 0.000000000000000000, 0.000000000000000000, 5.000000000000000000 ) ) ;
#798 = EDGE_CURVE ( 'NONE', #130, #562, #805, .T. ) ;
#799 = LINE ( 'NONE', #22, #823 ) ;
#800 = ORIENTED_EDGE ( 'NONE', *, *, #922, .T. ) ;
#801 = PRODUCT_DEFINITION_CONTEXT ( 'detailed design', #57, 'design' ) ;
#802 = DIRECTION ( 'NONE',  ( -0.000000000000000000, -0.000000000000000000, -1.000000000000000000 ) ) ;
#803 = ORIENTED_EDGE ( 'NONE', *, *, #297, .T. ) ;
#804 = EDGE_CURVE ( 'NONE', #130, #257, #11, .T. ) ;
#805 = CIRCLE ( 'NONE', #204, 1.899999999999999023 ) ;
#806 = CARTESIAN_POINT ( 'NONE',  ( -8.644277957064650408, 12.25872989346801489, 5.000000000000000000 ) ) ;
#807 = ORIENTED_EDGE ( 'NONE', *, *, #34, .F. ) ;
#808 = ORIENTED_EDGE ( 'NONE', *, *, #804, .T. ) ;
#809 = DIRECTION ( 'NONE',  ( 0.5762851971376431459, -0.8172486595645340746, 0.000000000000000000 ) ) ;
#810 = VERTEX_POINT ( 'NONE', #759 ) ;
#811 = ORIENTED_EDGE ( 'NONE', *, *, #934, .F. ) ;
#812 = VECTOR ( 'NONE', #306, 1000.000000000000000 ) ;
#813 = EDGE_CURVE ( 'NONE', #851, #56, #506, .T. ) ;
#814 = DIRECTION ( 'NONE',  ( 0.5762851971376432569, -0.8172486595645340746, 0.000000000000000000 ) ) ;
#815 = DIRECTION ( 'NONE',  ( -0.000000000000000000, -0.000000000000000000, 1.000000000000000000 ) ) ;
#816 = ORIENTED_EDGE ( 'NONE', *, *, #813, .F. ) ;
#817 = ORIENTED_EDGE ( 'NONE', *, *, #312, .F. ) ;
#818 = CARTESIAN_POINT ( 'NONE',  ( 33.62725854464606101, -10.13638792561907920, 0.000000000000000000 ) ) ;
#819 = DIRECTION ( 'NONE',  ( 1.000000000000000000, 0.000000000000000000, 0.000000000000000000 ) ) ;
#820 = CIRCLE ( 'NONE', #647, 1.899999999999999023 ) ;
#821 = ORIENTED_EDGE ( 'NONE', *, *, #688, .F. ) ;
#822 = CARTESIAN_POINT ( 'NONE',  ( 22.10155454425199650, -26.48136119865263183, 5.000000000000000000 ) ) ;
#823 = VECTOR ( 'NONE', #572, 1000.000000000000000 ) ;
#824 = VECTOR ( 'NONE', #7, 1000.000000000000000 ) ;
#825 = EDGE_CURVE ( 'NONE', #981, #151, #152, .T. ) ;
#826 = PRODUCT_DEFINITION ( 'UNKNOWN', '', #534, #801 ) ;
#827 = CARTESIAN_POINT ( 'NONE',  ( -38.44652779318385427, -38.00706505966262938, 0.000000000000000000 ) ) ;
#828 = EDGE_CURVE ( 'NONE', #920, #321, #232, .T. ) ;
#829 = CARTESIAN_POINT ( 'NONE',  ( -5.061398722736972999, -21.92332645766779109, 5.000000000000000000 ) ) ;
#830 = ORIENTED_EDGE ( 'NONE', *, *, #571, .F. ) ;
#831 = CARTESIAN_POINT ( 'NONE',  ( -29.82725854464605320, -10.13638792561907920, 5.000000000000000000 ) ) ;
#832 = CIRCLE ( 'NONE', #406, 1.899999999999999023 ) ;
#833 = DIRECTION ( 'NONE',  ( -0.000000000000000000, -0.000000000000000000, 1.000000000000000000 ) ) ;
#834 = LINE ( 'NONE', #70, #97 ) ;
#835 = ORIENTED_EDGE ( 'NONE', *, *, #168, .T. ) ;
#836 = CARTESIAN_POINT ( 'NONE',  ( 48.07223173593674659, -21.66209186837193812, 0.000000000000000000 ) ) ;
#837 = EDGE_CURVE ( 'NONE', #117, #744, #26, .T. ) ;
#838 = DIRECTION ( 'NONE',  ( -0.5762851971376427018, -0.8172486595645344076, 0.000000000000000000 ) ) ;
#839 = DIRECTION ( 'NONE',  ( 1.000000000000000000, 0.000000000000000000, 0.000000000000000000 ) ) ;
#840 = DIRECTION ( 'NONE',  ( 0.8172486595645342966, -0.5762851971376428128, 0.000000000000000000 ) ) ;
#841 = EDGE_LOOP ( 'NONE', ( #435, #253 ) ) ;
#842 = DIRECTION ( 'NONE',  ( -0.000000000000000000, -0.000000000000000000, -1.000000000000000000 ) ) ;
#843 = LINE ( 'NONE', #770, #126 ) ;
#844 = DIRECTION ( 'NONE',  ( -0.5762851971376432569, 0.8172486595645340746, 0.000000000000000000 ) ) ;
#845 = EDGE_LOOP ( 'NONE', ( #516, #772, #533, #286, #870, #425, #604, #327 ) ) ;
#846 = CARTESIAN_POINT ( 'NONE',  ( -8.644277957064641527, -12.25872989346801489, 5.000000000000000000 ) ) ;
#847 = DIRECTION ( 'NONE',  ( -0.000000000000000000, -0.000000000000000000, 1.000000000000000000 ) ) ;
#848 = AXIS2_PLACEMENT_3D ( 'NONE', #235, #916, #314 ) ;
#849 = EDGE_CURVE ( 'NONE', #562, #130, #586, .T. ) ;
#850 = DIRECTION ( 'NONE',  ( -0.8172486595645339635, -0.5762851971376433680, 0.000000000000000000 ) ) ;
#851 = VERTEX_POINT ( 'NONE', #822 ) ;
#852 = CYLINDRICAL_SURFACE ( 'NONE', #449, 1.899999999999999023 ) ;
#853 = DIRECTION ( 'NONE',  ( 1.000000000000000000, 0.000000000000000000, 0.000000000000000000 ) ) ;
#854 = ORIENTED_EDGE ( 'NONE', *, *, #382, .T. ) ;
#855 = DIRECTION ( 'NONE',  ( -0.000000000000000000, -0.000000000000000000, -1.000000000000000000 ) ) ;
#856 = ORIENTED_EDGE ( 'NONE', *, *, #719, .F. ) ;
#857 = CARTESIAN_POINT ( 'NONE',  ( 38.44652773554268776, -38.00706514140548364, 0.000000000000000000 ) ) ;
#858 = PRODUCT_CONTEXT ( 'NONE', #940, 'mechanical' ) ;
#859 = VECTOR ( 'NONE', #245, 1000.000000000000000 ) ;
#860 = EDGE_CURVE ( 'NONE', #332, #851, #395, .T. ) ;
#861 = DIRECTION ( 'NONE',  ( -0.000000000000000000, 0.000000000000000000, 1.000000000000000000 ) ) ;
#862 = VERTEX_POINT ( 'NONE', #601 ) ;
#863 = DIRECTION ( 'NONE',  ( -0.000000000000000000, -0.000000000000000000, -1.000000000000000000 ) ) ;
#864 = SHAPE_DEFINITION_REPRESENTATION ( #578, #497 ) ;
#865 = VECTOR ( 'NONE', #815, 1000.000000000000000 ) ;
#866 = CARTESIAN_POINT ( 'NONE',  ( -36.54652779318385569, -38.00706505966262938, 5.000000000000000000 ) ) ;
#867 = EDGE_LOOP ( 'NONE', ( #43, #835, #656, #209 ) ) ;
#868 = EDGE_CURVE ( 'NONE', #810, #536, #256, .T. ) ;
#869 = DIRECTION ( 'NONE',  ( -0.000000000000000000, -0.000000000000000000, 1.000000000000000000 ) ) ;
#870 = ORIENTED_EDGE ( 'NONE', *, *, #118, .F. ) ;
#871 = DIRECTION ( 'NONE',  ( -0.000000000000000000, 0.000000000000000000, 1.000000000000000000 ) ) ;
#872 = CARTESIAN_POINT ( 'NONE',  ( 49.97223173593674517, -21.66209186837193812, 0.000000000000000000 ) ) ;
#873 = CIRCLE ( 'NONE', #442, 4.200000000000000178 ) ;
#874 = ORIENTED_EDGE ( 'NONE', *, *, #266, .F. ) ;
#875 = DIRECTION ( 'NONE',  ( -0.000000000000000000, -0.000000000000000000, 1.000000000000000000 ) ) ;
#876 = VERTEX_POINT ( 'NONE', #311 ) ;
#877 = EDGE_CURVE ( 'NONE', #388, #73, #980, .T. ) ;
#878 = AXIS2_PLACEMENT_3D ( 'NONE', #797, #871, #411 ) ;
#879 = CARTESIAN_POINT ( 'NONE',  ( 33.62725854464606101, -10.13638792561907920, 5.000000000000000000 ) ) ;
#880 = ORIENTED_EDGE ( 'NONE', *, *, #89, .F. ) ;
#881 = AXIS2_PLACEMENT_3D ( 'NONE', #304, #451, #915 ) ;
#882 = DIRECTION ( 'NONE',  ( -0.000000000000000000, -0.000000000000000000, -1.000000000000000000 ) ) ;
#883 = ORIENTED_EDGE ( 'NONE', *, *, #24, .F. ) ;
#884 = EDGE_LOOP ( 'NONE', ( #821, #166, #680, #960 ) ) ;
#885 = ORIENTED_EDGE ( 'NONE', *, *, #441, .T. ) ;
#886 = ORIENTED_EDGE ( 'NONE', *, *, #343, .T. ) ;
#887 = EDGE_CURVE ( 'NONE', #666, #214, #238, .T. ) ;
#888 = FACE_OUTER_BOUND ( 'NONE', #352, .T. ) ;
#889 = CARTESIAN_POINT ( 'NONE',  ( 0.000000000000000000, 0.000000000000000000, 5.000000000000000000 ) ) ;
#890 = ORIENTED_EDGE ( 'NONE', *, *, #813, .T. ) ;
#891 = AXIS2_PLACEMENT_3D ( 'NONE', #561, #780, #703 ) ;
#892 = ORIENTED_EDGE ( 'NONE', *, *, #440, .T. ) ;
#893 = FACE_BOUND ( 'NONE', #305, .T. ) ;
#894 = FACE_BOUND ( 'NONE', #469, .T. ) ;
#895 = ADVANCED_FACE ( 'NONE', ( #5 ), #88, .F. ) ;
#896 = ORIENTED_EDGE ( 'NONE', *, *, #618, .F. ) ;
#897 = ADVANCED_FACE ( 'NONE', ( #745 ), #372, .F. ) ;
#898 = DIRECTION ( 'NONE',  ( -0.000000000000000000, -0.000000000000000000, 1.000000000000000000 ) ) ;
#899 = CARTESIAN_POINT ( 'NONE',  ( -49.97223173593672385, -21.66209186837193812, 0.000000000000000000 ) ) ;
#900 = AXIS2_PLACEMENT_3D ( 'NONE', #553, #486, #546 ) ;
#901 = VERTEX_POINT ( 'NONE', #939 ) ;
#902 = DIRECTION ( 'NONE',  ( -0.8172486595645342966, 0.5762851971376428128, 0.000000000000000000 ) ) ;
#903 = VECTOR ( 'NONE', #840, 1000.000000000000000 ) ;
#904 = DIRECTION ( 'NONE',  ( 0.5762851971376428128, 0.8172486595645342966, -0.000000000000000000 ) ) ;
#905 = CARTESIAN_POINT ( 'NONE',  ( -38.44652779318385427, -38.00706505966262938, 5.000000000000000000 ) ) ;
#906 = FILL_AREA_STYLE_COLOUR ( '', #112 ) ;
#907 = ORIENTED_EDGE ( 'NONE', *, *, #50, .T. ) ;
#908 = DIRECTION ( 'NONE',  ( -0.000000000000000000, -0.000000000000000000, 1.000000000000000000 ) ) ;
#909 = EDGE_CURVE ( 'NONE', #160, #649, #495, .T. ) ;
#910 = AXIS2_PLACEMENT_3D ( 'NONE', #974, #814, #664 ) ;
#911 = CARTESIAN_POINT ( 'NONE',  ( -38.44652779318385427, -38.00706505966262938, 5.000000000000000000 ) ) ;
#912 = AXIS2_PLACEMENT_3D ( 'NONE', #710, #789, #116 ) ;
#913 = FACE_OUTER_BOUND ( 'NONE', #356, .T. ) ;
#914 = ORIENTED_EDGE ( 'NONE', *, *, #91, .F. ) ;
#915 = DIRECTION ( 'NONE',  ( 1.000000000000000000, 0.000000000000000000, 0.000000000000000000 ) ) ;
#916 = DIRECTION ( 'NONE',  ( -0.000000000000000000, -0.000000000000000000, 1.000000000000000000 ) ) ;
#917 = CARTESIAN_POINT ( 'NONE',  ( -4.200000000000000178, 0.000000000000000000, 5.000000000000000000 ) ) ;
#918 = EDGE_LOOP ( 'NONE', ( #632, #491, #215, #203 ) ) ;
#919 = PRODUCT ( 'connector_wide_lower', 'connector_wide_lower', '', ( #858 ) ) ;
#920 = VERTEX_POINT ( 'NONE', #635 ) ;
#921 = DIRECTION ( 'NONE',  ( -0.000000000000000000, -0.000000000000000000, 1.000000000000000000 ) ) ;
#922 = EDGE_CURVE ( 'NONE', #920, #160, #705, .T. ) ;
#923 = STYLED_ITEM ( 'NONE', ( #550 ), #518 ) ;
#924 = CARTESIAN_POINT ( 'NONE',  ( -48.07223173593672527, -21.66209186837193812, 0.000000000000000000 ) ) ;
#925 = PLANE ( 'NONE',  #55 ) ;
#926 = VERTEX_POINT ( 'NONE', #783 ) ;
#927 = DIRECTION ( 'NONE',  ( -0.000000000000000000, -0.000000000000000000, 1.000000000000000000 ) ) ;
#928 = DIRECTION ( 'NONE',  ( 0.000000000000000000, 0.000000000000000000, 1.000000000000000000 ) ) ;
#929 = ORIENTED_EDGE ( 'NONE', *, *, #768, .T. ) ;
#930 = FACE_OUTER_BOUND ( 'NONE', #661, .T. ) ;
#931 = ORIENTED_EDGE ( 'NONE', *, *, #860, .T. ) ;
#932 = CARTESIAN_POINT ( 'NONE',  ( 20.20155454425199792, -26.48136119865263183, 0.000000000000000000 ) ) ;
#933 =( NAMED_UNIT ( * ) PLANE_ANGLE_UNIT ( ) SI_UNIT ( $, .RADIAN. ) );
#934 = EDGE_CURVE ( 'NONE', #423, #962, #749, .T. ) ;
#935 = ADVANCED_FACE ( 'NONE', ( #492 ), #346, .F. ) ;
#936 = DIRECTION ( 'NONE',  ( 1.000000000000000000, 0.000000000000000000, 0.000000000000000000 ) ) ;
#937 = VERTEX_POINT ( 'NONE', #101 ) ;
#938 = CARTESIAN_POINT ( 'NONE',  ( -37.75134510531832888, -44.97473434317352314, 5.000000000000000000 ) ) ;
#939 = CARTESIAN_POINT ( 'NONE',  ( -37.75134510531832888, -44.97473434317352314, 5.000000000000000000 ) ) ;
#940 = APPLICATION_CONTEXT ( 'automotive_design' ) ;
#941 = AXIS2_PLACEMENT_3D ( 'NONE', #547, #921, #457 ) ;
#942 = ORIENTED_EDGE ( 'NONE', *, *, #89, .T. ) ;
#943 =( LENGTH_UNIT ( ) NAMED_UNIT ( * ) SI_UNIT ( .MILLI., .METRE. ) );
#944 = EDGE_CURVE ( 'NONE', #198, #332, #357, .T. ) ;
#945 = AXIS2_PLACEMENT_3D ( 'NONE', #59, #134, #819 ) ;
#946 = CARTESIAN_POINT ( 'NONE',  ( 8.644277957064645079, -12.25872989346800424, 5.000000000000000000 ) ) ;
#947 = EDGE_CURVE ( 'NONE', #976, #862, #554, .T. ) ;
#948 = ORIENTED_EDGE ( 'NONE', *, *, #860, .F. ) ;
#949 = CARTESIAN_POINT ( 'NONE',  ( -36.54652779318385569, -38.00706505966262938, 0.000000000000000000 ) ) ;
#950 = ORIENTED_EDGE ( 'NONE', *, *, #489, .F. ) ;
#951 = VECTOR ( 'NONE', #927, 1000.000000000000000 ) ;
#952 = UNCERTAINTY_MEASURE_WITH_UNIT (LENGTH_MEASURE( 1.000000000000000082E-05 ), #229, 'distance_accuracy_value', 'NONE');
#953 = DIRECTION ( 'NONE',  ( 0.8172486595645340746, 0.5762851971376432569, 0.000000000000000000 ) ) ;
#954 = ORIENTED_EDGE ( 'NONE', *, *, #403, .T. ) ;
#955 = VECTOR ( 'NONE', #968, 1000.000000000000000 ) ;
#956 = FACE_BOUND ( 'NONE', #957, .T. ) ;
#957 = EDGE_LOOP ( 'NONE', ( #811, #317 ) ) ;
#958 = CIRCLE ( 'NONE', #531, 1.899999999999999023 ) ;
#959 = FACE_OUTER_BOUND ( 'NONE', #867, .T. ) ;
#960 = ORIENTED_EDGE ( 'NONE', *, *, #887, .T. ) ;
#961 = ORIENTED_EDGE ( 'NONE', *, *, #132, .T. ) ;
#962 = VERTEX_POINT ( 'NONE', #25 ) ;
#963 = DIRECTION ( 'NONE',  ( -0.000000000000000000, -0.000000000000000000, -1.000000000000000000 ) ) ;
#964 = FACE_BOUND ( 'NONE', #184, .T. ) ;
#965 = EDGE_LOOP ( 'NONE', ( #202, #79, #638, #207 ) ) ;
#966 = MECHANICAL_DESIGN_GEOMETRIC_PRESENTATION_REPRESENTATION (  '', ( #923 ), #322 ) ;
#967 = ORIENTED_EDGE ( 'NONE', *, *, #877, .T. ) ;
#968 = DIRECTION ( 'NONE',  ( 0.8172486595645342966, -0.5762851971376428128, 0.000000000000000000 ) ) ;
#969 = ADVANCED_FACE ( 'NONE', ( #337 ), #185, .F. ) ;
#970 = FACE_OUTER_BOUND ( 'NONE', #845, .T. ) ;
#971 = CARTESIAN_POINT ( 'NONE',  ( -29.82725854464605320, -10.13638792561907920, 5.000000000000000000 ) ) ;
#972 = CIRCLE ( 'NONE', #548, 1.899999999999999023 ) ;
#973 = VERTEX_POINT ( 'NONE', #173 ) ;
#974 = CARTESIAN_POINT ( 'NONE',  ( -8.644277957064650408, 12.25872989346801489, 5.000000000000000000 ) ) ;
#975 = FACE_BOUND ( 'NONE', #729, .T. ) ;
#976 = VERTEX_POINT ( 'NONE', #639 ) ;
#977 = DIRECTION ( 'NONE',  ( -0.000000000000000000, -0.000000000000000000, 1.000000000000000000 ) ) ;
#978 = FACE_BOUND ( 'NONE', #670, .T. ) ;
#979 = FACE_OUTER_BOUND ( 'NONE', #450, .T. ) ;
#980 = CIRCLE ( 'NONE', #560, 1.899999999999999023 ) ;
#981 = VERTEX_POINT ( 'NONE', #407 ) ;
#982 = LINE ( 'NONE', #676, #675 ) ;
#983 = DIRECTION ( 'NONE',  ( -1.000000000000000000, 0.000000000000000000, 0.000000000000000000 ) ) ;
#984 = CARTESIAN_POINT ( 'NONE',  ( -48.07223173593672527, -21.66209186837193812, 5.000000000000000000 ) ) ;
#985 = DIRECTION ( 'NONE',  ( 1.000000000000000000, 0.000000000000000000, 0.000000000000000000 ) ) ;
#986 = EDGE_LOOP ( 'NONE', ( #816, #366 ) ) ;
#987 = CIRCLE ( 'NONE', #945, 1.899999999999999023 ) ;
#988 = DIRECTION ( 'NONE',  ( -0.5762851971376432569, 0.8172486595645340746, 0.000000000000000000 ) ) ;
#989 = CYLINDRICAL_SURFACE ( 'NONE', #848, 1.899999999999999023 ) ;
ENDSEC;
END-ISO-10303-21;
