ISO-10303-21;
HEADER;
FILE_DESCRIPTION (( 'STEP AP214' ),
    '1' );
FILE_NAME ('connector_wide_upper.STEP',
    '2026-04-08T04:34:29',
    ( '' ),
    ( '' ),
    'SwSTEP 2.0',
    'SolidWorks 2025',
    '' );
FILE_SCHEMA (( 'AUTOMOTIVE_DESIGN' ));
ENDSEC;

DATA;
#1 = DIRECTION ( 'NONE',  ( -1.000000000000000000, 0.000000000000000000, 0.000000000000000000 ) ) ;
#2 = CARTESIAN_POINT ( 'NONE',  ( 12.49999999999999467, 7.500000000000001776, 15.00000000000000000 ) ) ;
#3 = ADVANCED_BREP_SHAPE_REPRESENTATION ( 'connector_wide_upper', ( #940, #255 ), #642 ) ;
#4 = EDGE_LOOP ( 'NONE', ( #531, #975 ) ) ;
#5 = FACE_BOUND ( 'NONE', #550, .T. ) ;
#6 = ORIENTED_EDGE ( 'NONE', *, *, #1118, .T. ) ;
#7 = CARTESIAN_POINT ( 'NONE',  ( -5.742853048390424054E-15, 7.500000000000000000, 5.000000000000000000 ) ) ;
#8 = ADVANCED_FACE ( 'NONE', ( #796, #699 ), #326, .T. ) ;
#9 = CARTESIAN_POINT ( 'NONE',  ( 40.01018370056877416, -24.22118473819242723, 5.000000000000000000 ) ) ;
#10 = ORIENTED_EDGE ( 'NONE', *, *, #100, .T. ) ;
#11 = FACE_OUTER_BOUND ( 'NONE', #690, .T. ) ;
#12 = VECTOR ( 'NONE', #805, 1000.000000000000114 ) ;
#13 = ORIENTED_EDGE ( 'NONE', *, *, #775, .F. ) ;
#14 = AXIS2_PLACEMENT_3D ( 'NONE', #459, #554, #281 ) ;
#15 = CYLINDRICAL_SURFACE ( 'NONE', #1186, 5.999999999999996447 ) ;
#16 = CYLINDRICAL_SURFACE ( 'NONE', #516, 22.50000000000000000 ) ;
#17 = EDGE_CURVE ( 'NONE', #978, #1058, #770, .T. ) ;
#18 = ORIENTED_EDGE ( 'NONE', *, *, #1132, .T. ) ;
#19 = DIRECTION ( 'NONE',  ( 0.8554575061278696380, -0.5178730106980724557, 0.000000000000000000 ) ) ;
#20 = VERTEX_POINT ( 'NONE', #1068 ) ;
#21 = LINE ( 'NONE', #672, #227 ) ;
#22 = DIRECTION ( 'NONE',  ( 1.000000000000000000, 0.000000000000000000, 0.000000000000000000 ) ) ;
#23 = ORIENTED_EDGE ( 'NONE', *, *, #692, .T. ) ;
#24 = ORIENTED_EDGE ( 'NONE', *, *, #547, .F. ) ;
#25 = FACE_BOUND ( 'NONE', #889, .T. ) ;
#26 = CARTESIAN_POINT ( 'NONE',  ( 11.74501594039133145, -19.82893453201930356, -4.336808689942017736E-15 ) ) ;
#27 = ORIENTED_EDGE ( 'NONE', *, *, #624, .F. ) ;
#28 = ORIENTED_EDGE ( 'NONE', *, *, #481, .F. ) ;
#29 = ADVANCED_FACE ( 'NONE', ( #1161 ), #790, .F. ) ;
#30 = DIRECTION ( 'NONE',  ( -0.5178730106980725667, -0.8554575061278695269, 0.000000000000000000 ) ) ;
#31 = ORIENTED_EDGE ( 'NONE', *, *, #1021, .F. ) ;
#32 = ORIENTED_EDGE ( 'NONE', *, *, #93, .F. ) ;
#33 = CYLINDRICAL_SURFACE ( 'NONE', #899, 1.699999999999987965 ) ;
#34 = AXIS2_PLACEMENT_3D ( 'NONE', #322, #313, #756 ) ;
#35 = PLANE ( 'NONE',  #34 ) ;
#36 = CARTESIAN_POINT ( 'NONE',  ( 22.10247615435278234, -2.719784409461915686, 5.000000000000001776 ) ) ;
#37 = CARTESIAN_POINT ( 'NONE',  ( -7.768095160471088612, -12.83186259191804446, 5.000000000000000000 ) ) ;
#38 = ORIENTED_EDGE ( 'NONE', *, *, #613, .F. ) ;
#39 = VERTEX_POINT ( 'NONE', #426 ) ;
#40 = DIRECTION ( 'NONE',  ( -0.000000000000000000, -0.000000000000000000, -1.000000000000000000 ) ) ;
#41 = FACE_OUTER_BOUND ( 'NONE', #605, .T. ) ;
#42 =( LENGTH_UNIT ( ) NAMED_UNIT ( * ) SI_UNIT ( .MILLI., .METRE. ) );
#43 = EDGE_CURVE ( 'NONE', #572, #196, #402, .T. ) ;
#44 = CARTESIAN_POINT ( 'NONE',  ( -30.55416606294868487, -30.18639474598078110, 5.000000000000000000 ) ) ;
#45 = LINE ( 'NONE', #296, #1168 ) ;
#46 = ORIENTED_EDGE ( 'NONE', *, *, #800, .F. ) ;
#47 = CARTESIAN_POINT ( 'NONE',  ( 32.24208854009769709, -37.05304733011047347, 0.000000000000000000 ) ) ;
#48 =( NAMED_UNIT ( * ) PLANE_ANGLE_UNIT ( ) SI_UNIT ( $, .RADIAN. ) );
#49 = CIRCLE ( 'NONE', #456, 1.699999999999986189 ) ;
#50 = DIRECTION ( 'NONE',  ( -0.000000000000000000, -0.000000000000000000, -1.000000000000000000 ) ) ;
#51 = ORIENTED_EDGE ( 'NONE', *, *, #724, .T. ) ;
#52 = EDGE_CURVE ( 'NONE', #74, #515, #604, .T. ) ;
#53 = VERTEX_POINT ( 'NONE', #616 ) ;
#54 = CARTESIAN_POINT ( 'NONE',  ( 12.49999999999999467, 7.500000000000001776, 6.999999999999999112 ) ) ;
#55 = EDGE_CURVE ( 'NONE', #305, #124, #827, .T. ) ;
#56 = AXIS2_PLACEMENT_3D ( 'NONE', #182, #289, #194 ) ;
#57 = LINE ( 'NONE', #843, #415 ) ;
#58 = DIRECTION ( 'NONE',  ( -0.000000000000000000, 0.000000000000000000, 1.000000000000000000 ) ) ;
#59 = EDGE_LOOP ( 'NONE', ( #717, #934, #824, #522 ) ) ;
#60 = EDGE_CURVE ( 'NONE', #898, #1024, #286, .T. ) ;
#61 = DIRECTION ( 'NONE',  ( 1.000000000000000000, 0.000000000000000000, 0.000000000000000000 ) ) ;
#62 = VECTOR ( 'NONE', #570, 1000.000000000000000 ) ;
#63 = CARTESIAN_POINT ( 'NONE',  ( 40.91162627691016240, -13.07724462342336302, 5.000000000000000000 ) ) ;
#64 = ORIENTED_EDGE ( 'NONE', *, *, #955, .F. ) ;
#65 = CARTESIAN_POINT ( 'NONE',  ( -13.44501594039130055, -19.82893453201931422, 5.000000000000000000 ) ) ;
#66 = DIRECTION ( 'NONE',  ( -0.000000000000000000, -0.000000000000000000, 1.000000000000000000 ) ) ;
#67 = VECTOR ( 'NONE', #603, 1000.000000000000000 ) ;
#68 = TOROIDAL_SURFACE ( 'NONE', #743, 14.50000000000000000, 2.000000000000000000 ) ;
#69 = ORIENTED_EDGE ( 'NONE', *, *, #992, .T. ) ;
#70 = DIRECTION ( 'NONE',  ( 1.000000000000000000, 0.000000000000000000, 0.000000000000000000 ) ) ;
#71 =( LENGTH_UNIT ( ) NAMED_UNIT ( * ) SI_UNIT ( .MILLI., .METRE. ) );
#72 = AXIS2_PLACEMENT_3D ( 'NONE', #484, #495, #207 ) ;
#73 = AXIS2_PLACEMENT_3D ( 'NONE', #154, #526, #520 ) ;
#74 = VERTEX_POINT ( 'NONE', #332 ) ;
#75 = DIRECTION ( 'NONE',  ( -0.000000000000000000, 0.000000000000000000, 1.000000000000000000 ) ) ;
#76 = CARTESIAN_POINT ( 'NONE',  ( -40.01018370056877416, -24.22118473819244144, 5.000000000000000000 ) ) ;
#77 = EDGE_CURVE ( 'NONE', #746, #1012, #959, .T. ) ;
#78 = ORIENTED_EDGE ( 'NONE', *, *, #421, .F. ) ;
#79 = CYLINDRICAL_SURFACE ( 'NONE', #360, 1.699999999999986189 ) ;
#80 = VERTEX_POINT ( 'NONE', #1075 ) ;
#81 = CARTESIAN_POINT ( 'NONE',  ( 6.578363356261610839, -21.51685700916829092, 0.000000000000000000 ) ) ;
#82 = SURFACE_STYLE_USAGE ( .BOTH. , #341 ) ;
#83 = ORIENTED_EDGE ( 'NONE', *, *, #608, .T. ) ;
#84 = VECTOR ( 'NONE', #1011, 1000.000000000000114 ) ;
#85 = EDGE_CURVE ( 'NONE', #1012, #1095, #147, .T. ) ;
#86 = DIRECTION ( 'NONE',  ( -0.000000000000000000, -0.000000000000000000, 1.000000000000000000 ) ) ;
#87 = DIRECTION ( 'NONE',  ( -0.000000000000000000, -0.000000000000000000, 1.000000000000000000 ) ) ;
#88 = CIRCLE ( 'NONE', #718, 1.699999999999986189 ) ;
#89 = EDGE_LOOP ( 'NONE', ( #361, #210, #493, #393 ) ) ;
#90 = AXIS2_PLACEMENT_3D ( 'NONE', #783, #58, #883 ) ;
#91 = PLANE ( 'NONE',  #1088 ) ;
#92 = ORIENTED_EDGE ( 'NONE', *, *, #897, .F. ) ;
#93 = EDGE_CURVE ( 'NONE', #196, #363, #1133, .T. ) ;
#94 = DIRECTION ( 'NONE',  ( -0.000000000000000000, -0.000000000000000000, 1.000000000000000000 ) ) ;
#95 = DIRECTION ( 'NONE',  ( -0.000000000000000000, -0.000000000000000000, -1.000000000000000000 ) ) ;
#96 = ORIENTED_EDGE ( 'NONE', *, *, #562, .T. ) ;
#97 = CARTESIAN_POINT ( 'NONE',  ( -40.91162627691014819, -13.07724462342339500, 5.000000000000000000 ) ) ;
#98 = EDGE_LOOP ( 'NONE', ( #1019, #909 ) ) ;
#99 = CARTESIAN_POINT ( 'NONE',  ( -5.742853048390424054E-15, 7.500000000000000000, 15.00000000000000000 ) ) ;
#100 = EDGE_CURVE ( 'NONE', #305, #427, #45, .T. ) ;
#101 = LINE ( 'NONE', #1097, #62 ) ;
#102 = ORIENTED_EDGE ( 'NONE', *, *, #1074, .F. ) ;
#103 = DIRECTION ( 'NONE',  ( 0.8554575061278696380, -0.5178730106980724557, 0.000000000000000000 ) ) ;
#104 = PRODUCT_DEFINITION ( 'UNKNOWN', '', #944, #653 ) ;
#105 = AXIS2_PLACEMENT_3D ( 'NONE', #787, #135, #1150 ) ;
#106 = DIRECTION ( 'NONE',  ( 0.5178730106980733439, -0.8554575061278691939, 0.000000000000000000 ) ) ;
#107 = CARTESIAN_POINT ( 'NONE',  ( 42.61162627691014393, -13.07724462342336302, 5.000000000000001776 ) ) ;
#108 = EDGE_LOOP ( 'NONE', ( #842, #368, #548, #952 ) ) ;
#109 = ORIENTED_EDGE ( 'NONE', *, *, #397, .F. ) ;
#110 = CIRCLE ( 'NONE', #1015, 1.699999999999986189 ) ;
#111 = DIRECTION ( 'NONE',  ( -0.000000000000000000, 0.000000000000000000, 1.000000000000000000 ) ) ;
#112 = EDGE_CURVE ( 'NONE', #80, #1095, #1077, .T. ) ;
#113 = ORIENTED_EDGE ( 'NONE', *, *, #228, .F. ) ;
#114 = EDGE_LOOP ( 'NONE', ( #893, #185, #651, #1153 ) ) ;
#115 = DIRECTION ( 'NONE',  ( -0.8554575061278691939, -0.5178730106980732328, 0.000000000000000000 ) ) ;
#116 = DIRECTION ( 'NONE',  ( -0.000000000000000000, -0.000000000000000000, 1.000000000000000000 ) ) ;
#117 = CARTESIAN_POINT ( 'NONE',  ( 30.55416606294870974, -30.18639474598075623, 5.000000000000001776 ) ) ;
#118 = EDGE_LOOP ( 'NONE', ( #759, #831 ) ) ;
#119 = ORIENTED_EDGE ( 'NONE', *, *, #301, .T. ) ;
#120 = CARTESIAN_POINT ( 'NONE',  ( 32.25416606294869837, -30.18639474598075623, 5.000000000000001776 ) ) ;
#121 = VECTOR ( 'NONE', #244, 1000.000000000000114 ) ;
#122 = CYLINDRICAL_SURFACE ( 'NONE', #508, 5.999999999999996447 ) ;
#123 = FACE_OUTER_BOUND ( 'NONE', #1008, .T. ) ;
#124 = VERTEX_POINT ( 'NONE', #1139 ) ;
#125 = ORIENTED_EDGE ( 'NONE', *, *, #1096, .T. ) ;
#126 = LINE ( 'NONE', #867, #1076 ) ;
#127 = EDGE_CURVE ( 'NONE', #491, #914, #666, .T. ) ;
#128 = AXIS2_PLACEMENT_3D ( 'NONE', #545, #94, #1184 ) ;
#129 = AXIS2_PLACEMENT_3D ( 'NONE', #337, #1147, #610 ) ;
#130 = CARTESIAN_POINT ( 'NONE',  ( 25.50247615435275605, -2.719784409461915686, -4.336808689942017736E-15 ) ) ;
#131 = DIRECTION ( 'NONE',  ( 1.000000000000000000, 0.000000000000000000, 0.000000000000000000 ) ) ;
#132 = DIRECTION ( 'NONE',  ( 1.000000000000000000, 0.000000000000000000, 0.000000000000000000 ) ) ;
#133 = EDGE_LOOP ( 'NONE', ( #288, #1169, #399, #926 ) ) ;
#134 = ORIENTED_EDGE ( 'NONE', *, *, #1167, .T. ) ;
#135 = DIRECTION ( 'NONE',  ( -0.000000000000000000, 0.000000000000000000, 1.000000000000000000 ) ) ;
#136 = EDGE_CURVE ( 'NONE', #20, #1023, #229, .T. ) ;
#137 = DIRECTION ( 'NONE',  ( 1.000000000000000000, 0.000000000000000000, 0.000000000000000000 ) ) ;
#138 = APPLICATION_PROTOCOL_DEFINITION ( 'draft international standard', 'automotive_design', 1998, #232 ) ;
#139 = EDGE_CURVE ( 'NONE', #189, #914, #619, .T. ) ;
#140 = CARTESIAN_POINT ( 'NONE',  ( -42.61162627691013682, -13.07724462342339500, 5.000000000000000000 ) ) ;
#141 = ORIENTED_EDGE ( 'NONE', *, *, #136, .F. ) ;
#142 = ORIENTED_EDGE ( 'NONE', *, *, #847, .T. ) ;
#143 = CARTESIAN_POINT ( 'NONE',  ( -7.768095160471088612, -12.83186259191804446, 5.000000000000000000 ) ) ;
#144 = AXIS2_PLACEMENT_3D ( 'NONE', #499, #566, #477 ) ;
#145 = VECTOR ( 'NONE', #595, 1000.000000000000114 ) ;
#146 = LINE ( 'NONE', #927, #340 ) ;
#147 = LINE ( 'NONE', #802, #921 ) ;
#148 = EDGE_LOOP ( 'NONE', ( #1124, #941, #527, #1050 ) ) ;
#149 = DIRECTION ( 'NONE',  ( 0.000000000000000000, -0.000000000000000000, -1.000000000000000000 ) ) ;
#150 = DIRECTION ( 'NONE',  ( 1.000000000000000000, 0.000000000000000000, 0.000000000000000000 ) ) ;
#151 = AXIS2_PLACEMENT_3D ( 'NONE', #1125, #504, #396 ) ;
#152 = AXIS2_PLACEMENT_3D ( 'NONE', #937, #486, #688 ) ;
#153 = CARTESIAN_POINT ( 'NONE',  ( -22.10247615435277524, -2.719784409461932118, -4.336808689942017736E-15 ) ) ;
#154 = CARTESIAN_POINT ( 'NONE',  ( 30.55416606294870974, -30.18639474598075623, -4.336808689942017736E-15 ) ) ;
#155 = ADVANCED_FACE ( 'NONE', ( #762 ), #35, .F. ) ;
#156 = ORIENTED_EDGE ( 'NONE', *, *, #1118, .F. ) ;
#157 = ADVANCED_FACE ( 'NONE', ( #696 ), #1053, .F. ) ;
#158 = DIRECTION ( 'NONE',  ( 0.000000000000000000, -1.000000000000000000, 0.000000000000000000 ) ) ;
#159 = SURFACE_STYLE_FILL_AREA ( #162 ) ;
#160 = ORIENTED_EDGE ( 'NONE', *, *, #715, .F. ) ;
#161 = CYLINDRICAL_SURFACE ( 'NONE', #769, 1.699999999999989742 ) ;
#162 = FILL_AREA_STYLE ('',( #1080 ) ) ;
#163 = VECTOR ( 'NONE', #1177, 1000.000000000000000 ) ;
#164 = CIRCLE ( 'NONE', #841, 1.699999999999987965 ) ;
#165 = VERTEX_POINT ( 'NONE', #130 ) ;
#166 = DIRECTION ( 'NONE',  ( -0.000000000000000000, 0.000000000000000000, 1.000000000000000000 ) ) ;
#167 = EDGE_CURVE ( 'NONE', #1064, #338, #1017, .T. ) ;
#168 = DIRECTION ( 'NONE',  ( -0.000000000000000000, -0.000000000000000000, -1.000000000000000000 ) ) ;
#169 = ORIENTED_EDGE ( 'NONE', *, *, #870, .T. ) ;
#170 = LINE ( 'NONE', #543, #727 ) ;
#171 = CARTESIAN_POINT ( 'NONE',  ( -15.14501594039128918, -19.82893453201931422, 5.000000000000001776 ) ) ;
#172 = ORIENTED_EDGE ( 'NONE', *, *, #353, .T. ) ;
#173 = CARTESIAN_POINT ( 'NONE',  ( 23.80247615435277098, -2.719784409461915686, 5.000000000000000000 ) ) ;
#174 = ORIENTED_EDGE ( 'NONE', *, *, #324, .T. ) ;
#175 = CYLINDRICAL_SURFACE ( 'NONE', #329, 1.699999999999986189 ) ;
#176 = DIRECTION ( 'NONE',  ( -0.000000000000000000, -0.000000000000000000, -1.000000000000000000 ) ) ;
#177 = EDGE_CURVE ( 'NONE', #664, #911, #306, .T. ) ;
#178 = EDGE_LOOP ( 'NONE', ( #628, #559 ) ) ;
#179 = VECTOR ( 'NONE', #292, 1000.000000000000000 ) ;
#180 = CARTESIAN_POINT ( 'NONE',  ( -5.742853048390424054E-15, 7.500000000000000000, 5.000000000000000000 ) ) ;
#181 = ORIENTED_EDGE ( 'NONE', *, *, #533, .T. ) ;
#182 = CARTESIAN_POINT ( 'NONE',  ( 40.91162627691016240, -13.07724462342336302, 5.000000000000001776 ) ) ;
#183 = LINE ( 'NONE', #1108, #261 ) ;
#184 = CIRCLE ( 'NONE', #807, 1.699999999999989742 ) ;
#185 = ORIENTED_EDGE ( 'NONE', *, *, #77, .F. ) ;
#186 = ADVANCED_FACE ( 'NONE', ( #41 ), #400, .F. ) ;
#187 = AXIS2_PLACEMENT_3D ( 'NONE', #872, #420, #972 ) ;
#188 = DIRECTION ( 'NONE',  ( -0.000000000000000000, -0.000000000000000000, 1.000000000000000000 ) ) ;
#189 = VERTEX_POINT ( 'NONE', #1034 ) ;
#190 = EDGE_CURVE ( 'NONE', #124, #305, #676, .T. ) ;
#191 = DIRECTION ( 'NONE',  ( 1.000000000000000000, 0.000000000000000000, 0.000000000000000000 ) ) ;
#192 = EDGE_LOOP ( 'NONE', ( #46, #141, #389, #69 ) ) ;
#193 = LINE ( 'NONE', #37, #1087 ) ;
#194 = DIRECTION ( 'NONE',  ( 1.000000000000000000, 0.000000000000000000, 0.000000000000000000 ) ) ;
#195 = FACE_OUTER_BOUND ( 'NONE', #1014, .T. ) ;
#196 = VERTEX_POINT ( 'NONE', #490 ) ;
#197 = VECTOR ( 'NONE', #473, 1000.000000000000000 ) ;
#198 = VERTEX_POINT ( 'NONE', #26 ) ;
#199 = AXIS2_PLACEMENT_3D ( 'NONE', #1020, #425, #951 ) ;
#200 = FACE_BOUND ( 'NONE', #705, .T. ) ;
#201 = EDGE_CURVE ( 'NONE', #20, #488, #410, .T. ) ;
#202 = CARTESIAN_POINT ( 'NONE',  ( -15.14501594039128918, -19.82893453201931422, 5.000000000000000000 ) ) ;
#203 = CARTESIAN_POINT ( 'NONE',  ( -40.01018370056877416, -24.22118473819244144, 5.000000000000000000 ) ) ;
#204 = VERTEX_POINT ( 'NONE', #1046 ) ;
#205 = ORIENTED_EDGE ( 'NONE', *, *, #1027, .T. ) ;
#206 = CIRCLE ( 'NONE', #72, 1.699999999999987965 ) ;
#207 = DIRECTION ( 'NONE',  ( 1.000000000000000000, 0.000000000000000000, 0.000000000000000000 ) ) ;
#208 = DIRECTION ( 'NONE',  ( -0.000000000000000000, -0.000000000000000000, 1.000000000000000000 ) ) ;
#209 = CARTESIAN_POINT ( 'NONE',  ( -40.01018370056877416, -24.22118473819244144, 0.000000000000000000 ) ) ;
#210 = ORIENTED_EDGE ( 'NONE', *, *, #760, .F. ) ;
#211 = ORIENTED_EDGE ( 'NONE', *, *, #731, .F. ) ;
#212 = FACE_OUTER_BOUND ( 'NONE', #1006, .T. ) ;
#213 = DIRECTION ( 'NONE',  ( -0.000000000000000000, -0.000000000000000000, 1.000000000000000000 ) ) ;
#214 = CARTESIAN_POINT ( 'NONE',  ( -47.77827886103986543, -11.38932214627441830, 5.000000000000000000 ) ) ;
#215 = DIRECTION ( 'NONE',  ( -0.000000000000000000, -0.000000000000000000, 1.000000000000000000 ) ) ;
#216 = ORIENTED_EDGE ( 'NONE', *, *, #397, .T. ) ;
#217 = EDGE_LOOP ( 'NONE', ( #1103, #181 ) ) ;
#218 = CYLINDRICAL_SURFACE ( 'NONE', #151, 1.699999999999986189 ) ;
#219 = VECTOR ( 'NONE', #50, 1000.000000000000000 ) ;
#220 = DIRECTION ( 'NONE',  ( 1.000000000000000000, 0.000000000000000000, 0.000000000000000000 ) ) ;
#221 = CARTESIAN_POINT ( 'NONE',  ( -5.742853048390424054E-15, 7.500000000000000000, 5.000000000000000000 ) ) ;
#222 = LINE ( 'NONE', #776, #145 ) ;
#223 = VERTEX_POINT ( 'NONE', #594 ) ;
#224 = EDGE_LOOP ( 'NONE', ( #1117, #1031, #38, #1037 ) ) ;
#225 = EDGE_CURVE ( 'NONE', #1064, #572, #510, .T. ) ;
#226 = DIRECTION ( 'NONE',  ( 1.000000000000000000, 0.000000000000000000, 0.000000000000000000 ) ) ;
#227 = VECTOR ( 'NONE', #300, 1000.000000000000000 ) ;
#228 = EDGE_CURVE ( 'NONE', #658, #585, #714, .T. ) ;
#229 = CIRCLE ( 'NONE', #540, 1.699999999999986189 ) ;
#230 = CARTESIAN_POINT ( 'NONE',  ( -5.742853048390424054E-15, 7.500000000000000000, 15.00000000000000000 ) ) ;
#231 = LINE ( 'NONE', #209, #469 ) ;
#232 = APPLICATION_CONTEXT ( 'automotive_design' ) ;
#233 = DIRECTION ( 'NONE',  ( 1.000000000000000000, 0.000000000000000000, 0.000000000000000000 ) ) ;
#234 = DIRECTION ( 'NONE',  ( -0.000000000000000000, 0.000000000000000000, 1.000000000000000000 ) ) ;
#235 = ORIENTED_EDGE ( 'NONE', *, *, #970, .T. ) ;
#236 = FACE_OUTER_BOUND ( 'NONE', #765, .T. ) ;
#237 = DIRECTION ( 'NONE',  ( -0.000000000000000000, -0.000000000000000000, -1.000000000000000000 ) ) ;
#238 = DIRECTION ( 'NONE',  ( 1.000000000000000000, 0.000000000000000000, 0.000000000000000000 ) ) ;
#239 = DIRECTION ( 'NONE',  ( 1.000000000000000000, 0.000000000000000000, 0.000000000000000000 ) ) ;
#240 = ORIENTED_EDGE ( 'NONE', *, *, #622, .T. ) ;
#241 = FACE_OUTER_BOUND ( 'NONE', #1183, .T. ) ;
#242 = AXIS2_PLACEMENT_3D ( 'NONE', #44, #406, #505 ) ;
#243 = EDGE_CURVE ( 'NONE', #711, #980, #936, .T. ) ;
#244 = DIRECTION ( 'NONE',  ( -0.8554575061278691939, -0.5178730106980733439, 0.000000000000000000 ) ) ;
#245 = CARTESIAN_POINT ( 'NONE',  ( 32.24208854009769709, -37.05304733011047347, 5.000000000000000000 ) ) ;
#246 = ORIENTED_EDGE ( 'NONE', *, *, #190, .F. ) ;
#247 = LINE ( 'NONE', #804, #345 ) ;
#248 = CARTESIAN_POINT ( 'NONE',  ( 5.196152422706623142, 10.49999999999999822, 5.000000000000000000 ) ) ;
#249 = CIRCLE ( 'NONE', #56, 1.699999999999986189 ) ;
#250 = AXIS2_PLACEMENT_3D ( 'NONE', #63, #1057, #514 ) ;
#251 = DIRECTION ( 'NONE',  ( 1.669238443041289401E-16, -1.000000000000000000, 0.000000000000000000 ) ) ;
#252 = DIRECTION ( 'NONE',  ( 1.224646799147353207E-16, 1.000000000000000000, 0.000000000000000000 ) ) ;
#253 = ORIENTED_EDGE ( 'NONE', *, *, #444, .F. ) ;
#254 = CARTESIAN_POINT ( 'NONE',  ( 22.11455367720378717, 4.146868174667797113, 5.000000000000000000 ) ) ;
#255 = AXIS2_PLACEMENT_3D ( 'NONE', #418, #957, #1140 ) ;
#256 = ORIENTED_EDGE ( 'NONE', *, *, #673, .F. ) ;
#257 = ADVANCED_FACE ( 'NONE', ( #1171 ), #259, .F. ) ;
#258 = DIRECTION ( 'NONE',  ( -0.000000000000000000, -0.000000000000000000, -1.000000000000000000 ) ) ;
#259 = CYLINDRICAL_SURFACE ( 'NONE', #1093, 1.699999999999987965 ) ;
#260 = CARTESIAN_POINT ( 'NONE',  ( -5.742853048390424054E-15, 7.500000000000000000, 0.000000000000000000 ) ) ;
#261 = VECTOR ( 'NONE', #95, 1000.000000000000000 ) ;
#262 = CIRCLE ( 'NONE', #932, 22.50000000000000000 ) ;
#263 = ORIENTED_EDGE ( 'NONE', *, *, #301, .F. ) ;
#264 = FACE_BOUND ( 'NONE', #273, .T. ) ;
#265 = CARTESIAN_POINT ( 'NONE',  ( 7.768095160471098382, -12.83186259191803558, 0.000000000000000000 ) ) ;
#266 = VECTOR ( 'NONE', #115, 1000.000000000000114 ) ;
#267 = ORIENTED_EDGE ( 'NONE', *, *, #444, .T. ) ;
#268 = CYLINDRICAL_SURFACE ( 'NONE', #536, 5.999999999999996447 ) ;
#269 = ORIENTED_EDGE ( 'NONE', *, *, #562, .F. ) ;
#270 = FACE_OUTER_BOUND ( 'NONE', #1142, .T. ) ;
#271 = LINE ( 'NONE', #757, #1040 ) ;
#272 = AXIS2_PLACEMENT_3D ( 'NONE', #667, #1029, #576 ) ;
#273 = EDGE_LOOP ( 'NONE', ( #904, #544 ) ) ;
#274 = CARTESIAN_POINT ( 'NONE',  ( -28.85416606294869624, -30.18639474598078110, 5.000000000000000000 ) ) ;
#275 = FACE_OUTER_BOUND ( 'NONE', #754, .T. ) ;
#276 = DIRECTION ( 'NONE',  ( 1.000000000000000000, 0.000000000000000000, 0.000000000000000000 ) ) ;
#277 = EDGE_CURVE ( 'NONE', #1051, #923, #993, .T. ) ;
#278 = ADVANCED_FACE ( 'NONE', ( #839 ), #563, .T. ) ;
#279 = EDGE_LOOP ( 'NONE', ( #174, #24, #865, #1154 ) ) ;
#280 = AXIS2_PLACEMENT_3D ( 'NONE', #336, #709, #801 ) ;
#281 = DIRECTION ( 'NONE',  ( 1.000000000000000000, 0.000000000000000000, 0.000000000000000000 ) ) ;
#282 = ORIENTED_EDGE ( 'NONE', *, *, #472, .T. ) ;
#283 = DIRECTION ( 'NONE',  ( -0.000000000000000000, 0.000000000000000000, 1.000000000000000000 ) ) ;
#284 = VECTOR ( 'NONE', #1072, 1000.000000000000000 ) ;
#285 = ORIENTED_EDGE ( 'NONE', *, *, #861, .T. ) ;
#286 = CIRCLE ( 'NONE', #187, 22.50000000000000000 ) ;
#287 = LINE ( 'NONE', #877, #895 ) ;
#288 = ORIENTED_EDGE ( 'NONE', *, *, #970, .F. ) ;
#289 = DIRECTION ( 'NONE',  ( -0.000000000000000000, -0.000000000000000000, 1.000000000000000000 ) ) ;
#290 = DIRECTION ( 'NONE',  ( -0.000000000000000000, -0.000000000000000000, -1.000000000000000000 ) ) ;
#291 = VERTEX_POINT ( 'NONE', #736 ) ;
#292 = DIRECTION ( 'NONE',  ( -0.000000000000000000, -0.000000000000000000, 1.000000000000000000 ) ) ;
#293 = ORIENTED_EDGE ( 'NONE', *, *, #52, .T. ) ;
#294 = ADVANCED_FACE ( 'NONE', ( #275 ), #15, .F. ) ;
#295 = FACE_BOUND ( 'NONE', #4, .T. ) ;
#296 = CARTESIAN_POINT ( 'NONE',  ( 32.25416606294869837, -30.18639474598075623, 5.000000000000000000 ) ) ;
#297 = DIRECTION ( 'NONE',  ( 0.5178730106980725667, 0.8554575061278695269, 0.000000000000000000 ) ) ;
#298 = ORIENTED_EDGE ( 'NONE', *, *, #811, .T. ) ;
#299 = VERTEX_POINT ( 'NONE', #364 ) ;
#300 = DIRECTION ( 'NONE',  ( -0.000000000000000000, -0.000000000000000000, 1.000000000000000000 ) ) ;
#301 = EDGE_CURVE ( 'NONE', #988, #451, #249, .T. ) ;
#302 = CARTESIAN_POINT ( 'NONE',  ( 30.55416606294870974, -30.18639474598075623, -4.336808689942017736E-15 ) ) ;
#303 = VERTEX_POINT ( 'NONE', #1003 ) ;
#304 = AXIS2_PLACEMENT_3D ( 'NONE', #702, #158, #1059 ) ;
#305 = VERTEX_POINT ( 'NONE', #1176 ) ;
#306 = CIRCLE ( 'NONE', #979, 5.999999999999996447 ) ;
#307 = FACE_BOUND ( 'NONE', #371, .T. ) ;
#308 = DIRECTION ( 'NONE',  ( -0.000000000000000000, 0.000000000000000000, 1.000000000000000000 ) ) ;
#309 = EDGE_CURVE ( 'NONE', #1143, #729, #110, .T. ) ;
#310 = EDGE_LOOP ( 'NONE', ( #27, #574 ) ) ;
#311 = VERTEX_POINT ( 'NONE', #567 ) ;
#312 = CARTESIAN_POINT ( 'NONE',  ( 13.44501594039132009, -19.82893453201930356, 5.000000000000000000 ) ) ;
#313 = DIRECTION ( 'NONE',  ( 0.5178730106980732328, -0.8554575061278691939, 0.000000000000000000 ) ) ;
#314 = FACE_OUTER_BOUND ( 'NONE', #623, .T. ) ;
#315 = ADVANCED_FACE ( 'NONE', ( #270 ), #555, .F. ) ;
#316 = ORIENTED_EDGE ( 'NONE', *, *, #547, .T. ) ;
#317 = EDGE_CURVE ( 'NONE', #1058, #980, #920, .T. ) ;
#318 = ORIENTED_EDGE ( 'NONE', *, *, #930, .F. ) ;
#319 =( GEOMETRIC_REPRESENTATION_CONTEXT ( 3 ) GLOBAL_UNCERTAINTY_ASSIGNED_CONTEXT ( ( #351 ) ) GLOBAL_UNIT_ASSIGNED_CONTEXT ( ( #71, #358, #795 ) ) REPRESENTATION_CONTEXT ( 'NONE', 'WORKASPACE' ) );
#320 = FACE_OUTER_BOUND ( 'NONE', #1070, .T. ) ;
#321 = AXIS2_PLACEMENT_3D ( 'NONE', #532, #896, #70 ) ;
#322 = CARTESIAN_POINT ( 'NONE',  ( -7.768095160471097493, 12.83186259191803735, 5.000000000000000000 ) ) ;
#323 = FACE_OUTER_BOUND ( 'NONE', #413, .T. ) ;
#324 = EDGE_CURVE ( 'NONE', #664, #658, #467, .T. ) ;
#325 = DIRECTION ( 'NONE',  ( -0.000000000000000000, -0.000000000000000000, 1.000000000000000000 ) ) ;
#326 = PLANE ( 'NONE',  #90 ) ;
#327 = VERTEX_POINT ( 'NONE', #81 ) ;
#328 = PLANE ( 'NONE',  #377 ) ;
#329 = AXIS2_PLACEMENT_3D ( 'NONE', #740, #1107, #654 ) ;
#330 = DIRECTION ( 'NONE',  ( -0.5178730106980730108, 0.8554575061278694159, 0.000000000000000000 ) ) ;
#331 = CARTESIAN_POINT ( 'NONE',  ( 47.77827886103987964, -11.38932214627437922, 0.000000000000000000 ) ) ;
#332 = CARTESIAN_POINT ( 'NONE',  ( 32.24208854009769709, -37.05304733011047347, 5.000000000000000000 ) ) ;
#333 = EDGE_LOOP ( 'NONE', ( #263, #408 ) ) ;
#334 = CYLINDRICAL_SURFACE ( 'NONE', #1166, 1.699999999999987965 ) ;
#335 = ADVANCED_FACE ( 'NONE', ( #373 ), #175, .F. ) ;
#336 = CARTESIAN_POINT ( 'NONE',  ( 13.44501594039132009, -19.82893453201930356, -4.336808689942017736E-15 ) ) ;
#337 = CARTESIAN_POINT ( 'NONE',  ( -23.80247615435276742, -2.719784409461932118, -4.336808689942017736E-15 ) ) ;
#338 = VERTEX_POINT ( 'NONE', #1016 ) ;
#339 = DIRECTION ( 'NONE',  ( 1.000000000000000000, 0.000000000000000000, 0.000000000000000000 ) ) ;
#340 = VECTOR ( 'NONE', #103, 1000.000000000000114 ) ;
#341 = SURFACE_SIDE_STYLE ('',( #159 ) ) ;
#342 = DIRECTION ( 'NONE',  ( -0.000000000000000000, -0.000000000000000000, 1.000000000000000000 ) ) ;
#343 = EDGE_LOOP ( 'NONE', ( #172, #235 ) ) ;
#344 = LINE ( 'NONE', #719, #700 ) ;
#345 = VECTOR ( 'NONE', #1065, 1000.000000000000000 ) ;
#346 = AXIS2_PLACEMENT_3D ( 'NONE', #405, #208, #220 ) ;
#347 = CARTESIAN_POINT ( 'NONE',  ( 47.77827886103987964, -11.38932214627437922, 5.000000000000000000 ) ) ;
#348 = EDGE_CURVE ( 'NONE', #669, #1038, #845, .T. ) ;
#349 = VERTEX_POINT ( 'NONE', #1033 ) ;
#350 = DIRECTION ( 'NONE',  ( 1.000000000000000000, 0.000000000000000000, 0.000000000000000000 ) ) ;
#351 = UNCERTAINTY_MEASURE_WITH_UNIT (LENGTH_MEASURE( 1.000000000000000082E-05 ), #71, 'distance_accuracy_value', 'NONE');
#352 = DIRECTION ( 'NONE',  ( -0.000000000000000000, -0.000000000000000000, 1.000000000000000000 ) ) ;
#353 = EDGE_CURVE ( 'NONE', #1051, #198, #206, .T. ) ;
#354 = ORIENTED_EDGE ( 'NONE', *, *, #825, .F. ) ;
#355 = ADVANCED_FACE ( 'NONE', ( #1119 ), #580, .T. ) ;
#356 = FACE_OUTER_BOUND ( 'NONE', #192, .T. ) ;
#357 = CARTESIAN_POINT ( 'NONE',  ( -25.50247615435275605, -2.719784409461932118, 5.000000000000000000 ) ) ;
#358 =( NAMED_UNIT ( * ) PLANE_ANGLE_UNIT ( ) SI_UNIT ( $, .RADIAN. ) );
#359 = CIRCLE ( 'NONE', #1026, 12.50000000000000000 ) ;
#360 = AXIS2_PLACEMENT_3D ( 'NONE', #173, #1182, #549 ) ;
#361 = ORIENTED_EDGE ( 'NONE', *, *, #622, .F. ) ;
#362 = DIRECTION ( 'NONE',  ( -0.000000000000000000, -0.000000000000000000, 1.000000000000000000 ) ) ;
#363 = VERTEX_POINT ( 'NONE', #489 ) ;
#364 = CARTESIAN_POINT ( 'NONE',  ( 6.578363356261610839, -21.51685700916829092, 5.000000000000000000 ) ) ;
#365 = DIRECTION ( 'NONE',  ( -1.000000000000000000, 0.000000000000000000, 0.000000000000000000 ) ) ;
#366 = ORIENTED_EDGE ( 'NONE', *, *, #613, .T. ) ;
#367 = CARTESIAN_POINT ( 'NONE',  ( 0.000000000000000000, 0.000000000000000000, 5.000000000000000000 ) ) ;
#368 = ORIENTED_EDGE ( 'NONE', *, *, #317, .T. ) ;
#369 = EDGE_CURVE ( 'NONE', #338, #196, #844, .T. ) ;
#370 = DIRECTION ( 'NONE',  ( 1.000000000000000000, 1.669238443041289401E-16, 0.000000000000000000 ) ) ;
#371 = EDGE_LOOP ( 'NONE', ( #553, #1044 ) ) ;
#372 = DIRECTION ( 'NONE',  ( -1.000000000000000000, 0.000000000000000000, 0.000000000000000000 ) ) ;
#373 = FACE_OUTER_BOUND ( 'NONE', #644, .T. ) ;
#374 = CARTESIAN_POINT ( 'NONE',  ( -5.742853048390424054E-15, 7.500000000000000000, 15.00000000000000000 ) ) ;
#375 = CIRCLE ( 'NONE', #280, 1.699999999999987965 ) ;
#376 = ORIENTED_EDGE ( 'NONE', *, *, #535, .F. ) ;
#377 = AXIS2_PLACEMENT_3D ( 'NONE', #143, #517, #881 ) ;
#378 = CARTESIAN_POINT ( 'NONE',  ( 25.50247615435275605, -2.719784409461915686, 5.000000000000000000 ) ) ;
#379 = ORIENTED_EDGE ( 'NONE', *, *, #868, .F. ) ;
#380 = DIRECTION ( 'NONE',  ( 1.000000000000000000, 0.000000000000000000, 0.000000000000000000 ) ) ;
#381 = ADVANCED_FACE ( 'NONE', ( #403, #681, #479, #307, #1025, #1039, #295, #200, #320, #25 ), #854, .F. ) ;
#382 = CIRCLE ( 'NONE', #826, 1.699999999999987965 ) ;
#383 = ORIENTED_EDGE ( 'NONE', *, *, #897, .T. ) ;
#384 = AXIS2_PLACEMENT_3D ( 'NONE', #956, #767, #963 ) ;
#385 = CARTESIAN_POINT ( 'NONE',  ( 23.80247615435277098, -2.719784409461915686, -4.336808689942017736E-15 ) ) ;
#386 = CARTESIAN_POINT ( 'NONE',  ( 39.21162627691017377, -13.07724462342336302, 5.000000000000001776 ) ) ;
#387 = DIRECTION ( 'NONE',  ( 1.000000000000000000, 0.000000000000000000, 0.000000000000000000 ) ) ;
#388 = ORIENTED_EDGE ( 'NONE', *, *, #816, .F. ) ;
#389 = ORIENTED_EDGE ( 'NONE', *, *, #201, .T. ) ;
#390 = ADVANCED_FACE ( 'NONE', ( #391 ), #1144, .F. ) ;
#391 = FACE_OUTER_BOUND ( 'NONE', #829, .T. ) ;
#392 = ADVANCED_FACE ( 'NONE', ( #212 ), #218, .F. ) ;
#393 = ORIENTED_EDGE ( 'NONE', *, *, #903, .T. ) ;
#394 = AXIS2_PLACEMENT_3D ( 'NONE', #938, #564, #387 ) ;
#395 = ORIENTED_EDGE ( 'NONE', *, *, #692, .F. ) ;
#396 = DIRECTION ( 'NONE',  ( 1.000000000000000000, 0.000000000000000000, 0.000000000000000000 ) ) ;
#397 = EDGE_CURVE ( 'NONE', #1038, #988, #21, .T. ) ;
#398 = CARTESIAN_POINT ( 'NONE',  ( -39.21162627691015956, -13.07724462342339500, 5.000000000000000000 ) ) ;
#399 = ORIENTED_EDGE ( 'NONE', *, *, #1115, .T. ) ;
#400 = TOROIDAL_SURFACE ( 'NONE', #655, 14.50000000000000000, 2.000000000000000000 ) ;
#401 = ORIENTED_EDGE ( 'NONE', *, *, #868, .T. ) ;
#402 = CIRCLE ( 'NONE', #463, 12.50000000000000000 ) ;
#403 = FACE_BOUND ( 'NONE', #947, .T. ) ;
#404 = EDGE_CURVE ( 'NONE', #223, #39, #586, .T. ) ;
#405 = CARTESIAN_POINT ( 'NONE',  ( -30.55416606294868487, -30.18639474598078110, 5.000000000000000000 ) ) ;
#406 = DIRECTION ( 'NONE',  ( -0.000000000000000000, -0.000000000000000000, 1.000000000000000000 ) ) ;
#407 = EDGE_LOOP ( 'NONE', ( #678, #298, #953, #109 ) ) ;
#408 = ORIENTED_EDGE ( 'NONE', *, *, #636, .F. ) ;
#409 = DIRECTION ( 'NONE',  ( 1.000000000000000000, 0.000000000000000000, 0.000000000000000000 ) ) ;
#410 = LINE ( 'NONE', #398, #424 ) ;
#411 = DIRECTION ( 'NONE',  ( -0.000000000000000000, -0.000000000000000000, -1.000000000000000000 ) ) ;
#412 = CYLINDRICAL_SURFACE ( 'NONE', #242, 1.699999999999989742 ) ;
#413 = EDGE_LOOP ( 'NONE', ( #961, #316, #797, #64 ) ) ;
#414 = ORIENTED_EDGE ( 'NONE', *, *, #528, .T. ) ;
#415 = VECTOR ( 'NONE', #892, 1000.000000000000000 ) ;
#416 = DIRECTION ( 'NONE',  ( -1.000000000000000000, 0.000000000000000000, 0.000000000000000000 ) ) ;
#417 = CIRCLE ( 'NONE', #14, 1.699999999999987965 ) ;
#418 = CARTESIAN_POINT ( 'NONE',  ( 0.000000000000000000, 0.000000000000000000, 0.000000000000000000 ) ) ;
#419 = CYLINDRICAL_SURFACE ( 'NONE', #144, 1.699999999999986189 ) ;
#420 = DIRECTION ( 'NONE',  ( -0.000000000000000000, 0.000000000000000000, 1.000000000000000000 ) ) ;
#421 = EDGE_CURVE ( 'NONE', #664, #596, #755, .T. ) ;
#422 = VERTEX_POINT ( 'NONE', #1138 ) ;
#423 = CARTESIAN_POINT ( 'NONE',  ( 22.10247615435278234, -2.719784409461915686, -4.336808689942017736E-15 ) ) ;
#424 = VECTOR ( 'NONE', #774, 1000.000000000000000 ) ;
#425 = DIRECTION ( 'NONE',  ( -0.000000000000000000, 0.000000000000000000, 1.000000000000000000 ) ) ;
#426 = CARTESIAN_POINT ( 'NONE',  ( -47.77827886103986543, -11.38932214627441830, 0.000000000000000000 ) ) ;
#427 = VERTEX_POINT ( 'NONE', #120 ) ;
#428 = CARTESIAN_POINT ( 'NONE',  ( -39.21162627691015956, -13.07724462342339500, 5.000000000000001776 ) ) ;
#429 = VECTOR ( 'NONE', #176, 1000.000000000000000 ) ;
#430 = FACE_OUTER_BOUND ( 'NONE', #507, .T. ) ;
#431 = DIRECTION ( 'NONE',  ( -0.000000000000000000, -0.000000000000000000, -1.000000000000000000 ) ) ;
#432 = ORIENTED_EDGE ( 'NONE', *, *, #404, .T. ) ;
#433 = DIRECTION ( 'NONE',  ( -0.000000000000000000, -0.000000000000000000, 1.000000000000000000 ) ) ;
#434 = PRESENTATION_LAYER_ASSIGNMENT (  '', '', ( #784 ) ) ;
#435 = ADVANCED_FACE ( 'NONE', ( #860 ), #33, .F. ) ;
#436 = CIRCLE ( 'NONE', #630, 1.699999999999986189 ) ;
#437 = DIRECTION ( 'NONE',  ( 1.000000000000000000, 0.000000000000000000, 0.000000000000000000 ) ) ;
#438 = ORIENTED_EDGE ( 'NONE', *, *, #139, .T. ) ;
#439 = LINE ( 'NONE', #722, #1145 ) ;
#440 = VECTOR ( 'NONE', #1090, 1000.000000000000000 ) ;
#441 = EDGE_CURVE ( 'NONE', #1024, #223, #126, .T. ) ;
#442 = AXIS2_PLACEMENT_3D ( 'NONE', #716, #252, #621 ) ;
#443 = DIRECTION ( 'NONE',  ( -1.000000000000000000, 0.000000000000000000, 0.000000000000000000 ) ) ;
#444 = EDGE_CURVE ( 'NONE', #491, #422, #382, .T. ) ;
#445 = EDGE_LOOP ( 'NONE', ( #853, #457 ) ) ;
#446 = DIRECTION ( 'NONE',  ( 1.000000000000000000, 0.000000000000000000, 0.000000000000000000 ) ) ;
#447 = PRODUCT_RELATED_PRODUCT_CATEGORY ( 'part', '', ( #645 ) ) ;
#448 = CARTESIAN_POINT ( 'NONE',  ( 15.14501594039130694, -19.82893453201930356, 5.000000000000000000 ) ) ;
#449 = CIRCLE ( 'NONE', #798, 1.699999999999989742 ) ;
#450 = LINE ( 'NONE', #76, #1105 ) ;
#451 = VERTEX_POINT ( 'NONE', #386 ) ;
#452 = LINE ( 'NONE', #725, #1030 ) ;
#453 = EDGE_LOOP ( 'NONE', ( #906, #960 ) ) ;
#454 = CARTESIAN_POINT ( 'NONE',  ( 23.80247615435277098, -2.719784409461915686, 5.000000000000001776 ) ) ;
#455 = LINE ( 'NONE', #643, #429 ) ;
#456 = AXIS2_PLACEMENT_3D ( 'NONE', #781, #1152, #233 ) ;
#457 = ORIENTED_EDGE ( 'NONE', *, *, #1167, .F. ) ;
#458 = ADVANCED_FACE ( 'NONE', ( #665 ), #808, .T. ) ;
#459 = CARTESIAN_POINT ( 'NONE',  ( 13.44501594039132009, -19.82893453201930356, 5.000000000000001776 ) ) ;
#460 = ORIENTED_EDGE ( 'NONE', *, *, #724, .F. ) ;
#461 = AXIS2_PLACEMENT_3D ( 'NONE', #509, #1084, #793 ) ;
#462 = CARTESIAN_POINT ( 'NONE',  ( 42.61162627691014393, -13.07724462342336302, -4.336808689942017736E-15 ) ) ;
#463 = AXIS2_PLACEMENT_3D ( 'NONE', #878, #234, #710 ) ;
#464 = ORIENTED_EDGE ( 'NONE', *, *, #903, .F. ) ;
#465 = CARTESIAN_POINT ( 'NONE',  ( 0.000000000000000000, 0.000000000000000000, 5.000000000000000000 ) ) ;
#466 = VERTEX_POINT ( 'NONE', #423 ) ;
#467 = LINE ( 'NONE', #641, #440 ) ;
#468 = CARTESIAN_POINT ( 'NONE',  ( 40.91162627691016240, -13.07724462342336302, -4.336808689942017736E-15 ) ) ;
#469 = VECTOR ( 'NONE', #330, 999.9999999999998863 ) ;
#470 = ORIENTED_EDGE ( 'NONE', *, *, #1005, .F. ) ;
#471 = LINE ( 'NONE', #378, #573 ) ;
#472 = EDGE_CURVE ( 'NONE', #53, #363, #524, .T. ) ;
#473 = DIRECTION ( 'NONE',  ( -0.000000000000000000, -0.000000000000000000, -1.000000000000000000 ) ) ;
#474 = AXIS2_PLACEMENT_3D ( 'NONE', #468, #1018, #480 ) ;
#475 = ORIENTED_EDGE ( 'NONE', *, *, #17, .F. ) ;
#476 = VECTOR ( 'NONE', #730, 1000.000000000000114 ) ;
#477 = DIRECTION ( 'NONE',  ( 1.000000000000000000, 0.000000000000000000, 0.000000000000000000 ) ) ;
#478 = ORIENTED_EDGE ( 'NONE', *, *, #309, .T. ) ;
#479 = FACE_BOUND ( 'NONE', #487, .T. ) ;
#480 = DIRECTION ( 'NONE',  ( 1.000000000000000000, 0.000000000000000000, 0.000000000000000000 ) ) ;
#481 = EDGE_CURVE ( 'NONE', #572, #53, #556, .T. ) ;
#482 = ORIENTED_EDGE ( 'NONE', *, *, #870, .F. ) ;
#483 = ORIENTED_EDGE ( 'NONE', *, *, #60, .T. ) ;
#484 = CARTESIAN_POINT ( 'NONE',  ( 13.44501594039132009, -19.82893453201930356, -4.336808689942017736E-15 ) ) ;
#485 = ADVANCED_FACE ( 'NONE', ( #236 ), #334, .F. ) ;
#486 = DIRECTION ( 'NONE',  ( -0.000000000000000000, 0.000000000000000000, 1.000000000000000000 ) ) ;
#487 = EDGE_LOOP ( 'NONE', ( #967, #267 ) ) ;
#488 = VERTEX_POINT ( 'NONE', #428 ) ;
#489 = CARTESIAN_POINT ( 'NONE',  ( -14.50000000000000533, 7.500000000000001776, 4.999999999999999112 ) ) ;
#490 = CARTESIAN_POINT ( 'NONE',  ( -12.50000000000000533, 7.500000000000000000, 6.999999999999999112 ) ) ;
#491 = VERTEX_POINT ( 'NONE', #1158 ) ;
#492 = VECTOR ( 'NONE', #627, 1000.000000000000000 ) ;
#493 = ORIENTED_EDGE ( 'NONE', *, *, #535, .T. ) ;
#494 = ADVANCED_FACE ( 'NONE', ( #969 ), #523, .F. ) ;
#495 = DIRECTION ( 'NONE',  ( -0.000000000000000000, -0.000000000000000000, 1.000000000000000000 ) ) ;
#496 = ADVANCED_FACE ( 'NONE', ( #713 ), #161, .F. ) ;
#497 = DIRECTION ( 'NONE',  ( -0.000000000000000000, -0.000000000000000000, 1.000000000000000000 ) ) ;
#498 = PRODUCT_CONTEXT ( 'NONE', #1173, 'mechanical' ) ;
#499 = CARTESIAN_POINT ( 'NONE',  ( 30.55416606294870974, -30.18639474598075623, 5.000000000000000000 ) ) ;
#500 = ORIENTED_EDGE ( 'NONE', *, *, #85, .T. ) ;
#501 = AXIS2_PLACEMENT_3D ( 'NONE', #935, #111, #779 ) ;
#502 = ORIENTED_EDGE ( 'NONE', *, *, #1085, .T. ) ;
#503 = AXIS2_PLACEMENT_3D ( 'NONE', #704, #1063, #239 ) ;
#504 = DIRECTION ( 'NONE',  ( -0.000000000000000000, -0.000000000000000000, 1.000000000000000000 ) ) ;
#505 = DIRECTION ( 'NONE',  ( 1.000000000000000000, 0.000000000000000000, 0.000000000000000000 ) ) ;
#506 = ORIENTED_EDGE ( 'NONE', *, *, #421, .T. ) ;
#507 = EDGE_LOOP ( 'NONE', ( #269, #113, #565, #506 ) ) ;
#508 = AXIS2_PLACEMENT_3D ( 'NONE', #221, #411, #949 ) ;
#509 = CARTESIAN_POINT ( 'NONE',  ( -23.80247615435276742, -2.719784409461932118, 5.000000000000000000 ) ) ;
#510 = LINE ( 'NONE', #1120, #284 ) ;
#511 = PLANE ( 'NONE',  #890 ) ;
#512 = ADVANCED_FACE ( 'NONE', ( #1071 ), #986, .F. ) ;
#513 = CARTESIAN_POINT ( 'NONE',  ( 39.21162627691017377, -13.07724462342336302, 5.000000000000000000 ) ) ;
#514 = DIRECTION ( 'NONE',  ( 1.000000000000000000, 0.000000000000000000, 0.000000000000000000 ) ) ;
#515 = VERTEX_POINT ( 'NONE', #47 ) ;
#516 = AXIS2_PLACEMENT_3D ( 'NONE', #742, #290, #365 ) ;
#517 = DIRECTION ( 'NONE',  ( 0.5178730106980724557, 0.8554575061278696380, -0.000000000000000000 ) ) ;
#518 = VECTOR ( 'NONE', #652, 1000.000000000000000 ) ;
#519 = DIRECTION ( 'NONE',  ( -0.000000000000000000, 0.000000000000000000, 1.000000000000000000 ) ) ;
#520 = DIRECTION ( 'NONE',  ( 1.000000000000000000, 0.000000000000000000, 0.000000000000000000 ) ) ;
#521 = EDGE_CURVE ( 'NONE', #198, #848, #247, .T. ) ;
#522 = ORIENTED_EDGE ( 'NONE', *, *, #624, .T. ) ;
#523 = CYLINDRICAL_SURFACE ( 'NONE', #1188, 1.699999999999986189 ) ;
#524 = CIRCLE ( 'NONE', #539, 14.50000000000000000 ) ;
#525 = CARTESIAN_POINT ( 'NONE',  ( -25.50247615435275605, -2.719784409461932118, 5.000000000000001776 ) ) ;
#526 = DIRECTION ( 'NONE',  ( -0.000000000000000000, -0.000000000000000000, 1.000000000000000000 ) ) ;
#527 = ORIENTED_EDGE ( 'NONE', *, *, #60, .F. ) ;
#528 = EDGE_CURVE ( 'NONE', #1023, #20, #88, .T. ) ;
#529 = DIRECTION ( 'NONE',  ( 1.000000000000000000, 0.000000000000000000, 0.000000000000000000 ) ) ;
#530 = LINE ( 'NONE', #1067, #163 ) ;
#531 = ORIENTED_EDGE ( 'NONE', *, *, #1021, .T. ) ;
#532 = CARTESIAN_POINT ( 'NONE',  ( -5.742853048390424054E-15, 7.500000000000000000, 15.00000000000000000 ) ) ;
#533 = EDGE_CURVE ( 'NONE', #1058, #978, #184, .T. ) ;
#534 = CIRCLE ( 'NONE', #763, 5.999999999999996447 ) ;
#535 = EDGE_CURVE ( 'NONE', #898, #1136, #344, .T. ) ;
#536 = AXIS2_PLACEMENT_3D ( 'NONE', #180, #258, #372 ) ;
#537 = ORIENTED_EDGE ( 'NONE', *, *, #441, .T. ) ;
#538 = FACE_BOUND ( 'NONE', #445, .T. ) ;
#539 = AXIS2_PLACEMENT_3D ( 'NONE', #962, #149, #61 ) ;
#540 = AXIS2_PLACEMENT_3D ( 'NONE', #674, #213, #587 ) ;
#541 = CARTESIAN_POINT ( 'NONE',  ( 15.14501594039130694, -19.82893453201930356, 5.000000000000001776 ) ) ;
#542 = ORIENTED_EDGE ( 'NONE', *, *, #659, .T. ) ;
#543 = CARTESIAN_POINT ( 'NONE',  ( -11.74501594039131191, -19.82893453201931422, 5.000000000000000000 ) ) ;
#544 = ORIENTED_EDGE ( 'NONE', *, *, #309, .F. ) ;
#545 = CARTESIAN_POINT ( 'NONE',  ( -13.44501594039130055, -19.82893453201931422, 5.000000000000000000 ) ) ;
#546 = CARTESIAN_POINT ( 'NONE',  ( -5.742853048390424054E-15, 7.500000000000000000, 5.000000000000000000 ) ) ;
#547 = EDGE_CURVE ( 'NONE', #1032, #658, #990, .T. ) ;
#548 = ORIENTED_EDGE ( 'NONE', *, *, #1135, .T. ) ;
#549 = DIRECTION ( 'NONE',  ( 1.000000000000000000, 0.000000000000000000, 0.000000000000000000 ) ) ;
#550 = EDGE_LOOP ( 'NONE', ( #1082, #256 ) ) ;
#551 = DIRECTION ( 'NONE',  ( -0.000000000000000000, -0.000000000000000000, 1.000000000000000000 ) ) ;
#552 = COLOUR_RGB ( '',0.7921568627450980005, 0.8196078431372548767, 0.9333333333333333481 ) ;
#553 = ORIENTED_EDGE ( 'NONE', *, *, #77, .T. ) ;
#554 = DIRECTION ( 'NONE',  ( -0.000000000000000000, -0.000000000000000000, 1.000000000000000000 ) ) ;
#555 = CYLINDRICAL_SURFACE ( 'NONE', #128, 1.699999999999987965 ) ;
#556 = CIRCLE ( 'NONE', #304, 2.000000000000000000 ) ;
#557 = LINE ( 'NONE', #922, #197 ) ;
#558 = AXIS2_PLACEMENT_3D ( 'NONE', #1028, #497, #862 ) ;
#559 = ORIENTED_EDGE ( 'NONE', *, *, #167, .T. ) ;
#560 = DIRECTION ( 'NONE',  ( 1.000000000000000000, 0.000000000000000000, 0.000000000000000000 ) ) ;
#561 = ORIENTED_EDGE ( 'NONE', *, *, #225, .T. ) ;
#562 = EDGE_CURVE ( 'NONE', #585, #596, #439, .T. ) ;
#563 = CYLINDRICAL_SURFACE ( 'NONE', #577, 12.50000000000000000 ) ;
#564 = DIRECTION ( 'NONE',  ( -0.000000000000000000, -0.000000000000000000, 1.000000000000000000 ) ) ;
#565 = ORIENTED_EDGE ( 'NONE', *, *, #324, .F. ) ;
#566 = DIRECTION ( 'NONE',  ( -0.000000000000000000, -0.000000000000000000, 1.000000000000000000 ) ) ;
#567 = CARTESIAN_POINT ( 'NONE',  ( -42.61162627691013682, -13.07724462342339500, 5.000000000000001776 ) ) ;
#568 = EDGE_CURVE ( 'NONE', #995, #327, #632, .T. ) ;
#569 = ADVANCED_FACE ( 'NONE', ( #706 ), #328, .F. ) ;
#570 = DIRECTION ( 'NONE',  ( -0.000000000000000000, -0.000000000000000000, -1.000000000000000000 ) ) ;
#571 = AXIS2_PLACEMENT_3D ( 'NONE', #546, #810, #994 ) ;
#572 = VERTEX_POINT ( 'NONE', #54 ) ;
#573 = VECTOR ( 'NONE', #997, 1000.000000000000000 ) ;
#574 = ORIENTED_EDGE ( 'NONE', *, *, #1115, .F. ) ;
#575 = CARTESIAN_POINT ( 'NONE',  ( 40.01018370056877416, -24.22118473819242723, 5.000000000000000000 ) ) ;
#576 = DIRECTION ( 'NONE',  ( 1.000000000000000000, 0.000000000000000000, 0.000000000000000000 ) ) ;
#577 = AXIS2_PLACEMENT_3D ( 'NONE', #99, #814, #1 ) ;
#578 = ORIENTED_EDGE ( 'NONE', *, *, #884, .T. ) ;
#579 = ORIENTED_EDGE ( 'NONE', *, *, #369, .T. ) ;
#580 = PLANE ( 'NONE',  #597 ) ;
#581 = DIRECTION ( 'NONE',  ( 0.5178730106980724557, 0.8554575061278696380, -0.000000000000000000 ) ) ;
#582 = ADVANCED_FACE ( 'NONE', ( #241 ), #268, .F. ) ;
#583 = EDGE_LOOP ( 'NONE', ( #1043, #933, #803, #738 ) ) ;
#584 = CIRCLE ( 'NONE', #663, 5.999999999999996447 ) ;
#585 = VERTEX_POINT ( 'NONE', #739 ) ;
#586 = LINE ( 'NONE', #942, #266 ) ;
#587 = DIRECTION ( 'NONE',  ( 1.000000000000000000, 0.000000000000000000, 0.000000000000000000 ) ) ;
#588 = DIRECTION ( 'NONE',  ( -0.8554575061278696380, 0.5178730106980724557, 0.000000000000000000 ) ) ;
#589 = DIRECTION ( 'NONE',  ( -0.000000000000000000, 0.000000000000000000, 1.000000000000000000 ) ) ;
#590 = ORIENTED_EDGE ( 'NONE', *, *, #317, .F. ) ;
#591 = CIRCLE ( 'NONE', #1181, 1.699999999999986189 ) ;
#592 = ORIENTED_EDGE ( 'NONE', *, *, #190, .T. ) ;
#593 = CARTESIAN_POINT ( 'NONE',  ( -5.196152422706635576, 10.49999999999999645, 5.000000000000000000 ) ) ;
#594 = CARTESIAN_POINT ( 'NONE',  ( -22.11455367720378007, 4.146868174667780238, 0.000000000000000000 ) ) ;
#595 = DIRECTION ( 'NONE',  ( -0.8554575061278691939, -0.5178730106980733439, 0.000000000000000000 ) ) ;
#596 = VERTEX_POINT ( 'NONE', #837 ) ;
#597 = AXIS2_PLACEMENT_3D ( 'NONE', #1130, #106, #850 ) ;
#598 = VERTEX_POINT ( 'NONE', #1094 ) ;
#599 = DIRECTION ( 'NONE',  ( -1.000000000000000000, -1.669238443041289401E-16, 0.000000000000000000 ) ) ;
#600 = ADVANCED_FACE ( 'NONE', ( #356 ), #640, .F. ) ;
#601 = CARTESIAN_POINT ( 'NONE',  ( -5.742853048390424054E-15, 7.500000000000000000, 6.999999999999999112 ) ) ;
#602 = FACE_OUTER_BOUND ( 'NONE', #89, .T. ) ;
#603 = DIRECTION ( 'NONE',  ( -0.000000000000000000, -0.000000000000000000, 1.000000000000000000 ) ) ;
#604 = LINE ( 'NONE', #245, #809 ) ;
#605 = EDGE_LOOP ( 'NONE', ( #32, #822, #764, #92 ) ) ;
#606 = DIRECTION ( 'NONE',  ( -0.000000000000000000, -0.000000000000000000, 1.000000000000000000 ) ) ;
#607 = CARTESIAN_POINT ( 'NONE',  ( -23.80247615435276742, -2.719784409461932118, 5.000000000000001776 ) ) ;
#608 = EDGE_CURVE ( 'NONE', #427, #349, #693, .T. ) ;
#609 = CARTESIAN_POINT ( 'NONE',  ( 11.74501594039133145, -19.82893453201930356, 5.000000000000001776 ) ) ;
#610 = DIRECTION ( 'NONE',  ( 1.000000000000000000, 0.000000000000000000, 0.000000000000000000 ) ) ;
#611 = ORIENTED_EDGE ( 'NONE', *, *, #834, .T. ) ;
#612 = VECTOR ( 'NONE', #215, 1000.000000000000000 ) ;
#613 = EDGE_CURVE ( 'NONE', #1110, #299, #262, .T. ) ;
#614 = CARTESIAN_POINT ( 'NONE',  ( -6.000000000000002665, 7.500000000000000000, 15.00000000000000000 ) ) ;
#615 = ADVANCED_FACE ( 'NONE', ( #629 ), #79, .F. ) ;
#616 = CARTESIAN_POINT ( 'NONE',  ( 14.49999999999999467, 7.500000000000000000, 4.999999999999999112 ) ) ;
#617 = ORIENTED_EDGE ( 'NONE', *, *, #225, .F. ) ;
#618 = CARTESIAN_POINT ( 'NONE',  ( -40.91162627691014819, -13.07724462342339500, -4.336808689942017736E-15 ) ) ;
#619 = CIRCLE ( 'NONE', #558, 1.699999999999987965 ) ;
#620 = FACE_OUTER_BOUND ( 'NONE', #224, .T. ) ;
#621 = DIRECTION ( 'NONE',  ( -1.000000000000000000, 0.000000000000000000, 0.000000000000000000 ) ) ;
#622 = EDGE_CURVE ( 'NONE', #204, #838, #910, .T. ) ;
#623 = EDGE_LOOP ( 'NONE', ( #968, #859, #10, #83 ) ) ;
#624 = EDGE_CURVE ( 'NONE', #923, #848, #417, .T. ) ;
#625 = DIRECTION ( 'NONE',  ( -0.000000000000000000, -0.000000000000000000, 1.000000000000000000 ) ) ;
#626 = CIRCLE ( 'NONE', #685, 1.699999999999986189 ) ;
#627 = DIRECTION ( 'NONE',  ( -0.000000000000000000, -0.000000000000000000, -1.000000000000000000 ) ) ;
#628 = ORIENTED_EDGE ( 'NONE', *, *, #1074, .T. ) ;
#629 = FACE_OUTER_BOUND ( 'NONE', #634, .T. ) ;
#630 = AXIS2_PLACEMENT_3D ( 'NONE', #1121, #87, #276 ) ;
#631 = DIRECTION ( 'NONE',  ( 1.000000000000000000, 0.000000000000000000, 0.000000000000000000 ) ) ;
#632 = CIRCLE ( 'NONE', #105, 22.50000000000000000 ) ;
#633 = DIRECTION ( 'NONE',  ( -0.000000000000000000, 0.000000000000000000, 1.000000000000000000 ) ) ;
#634 = EDGE_LOOP ( 'NONE', ( #388, #169, #478, #395 ) ) ;
#635 = CARTESIAN_POINT ( 'NONE',  ( -13.44501594039130055, -19.82893453201931422, 5.000000000000001776 ) ) ;
#636 = EDGE_CURVE ( 'NONE', #451, #988, #591, .T. ) ;
#637 = AXIS2_PLACEMENT_3D ( 'NONE', #575, #773, #30 ) ;
#638 = DIRECTION ( 'NONE',  ( -0.5178730106980730108, 0.8554575061278694159, 0.000000000000000000 ) ) ;
#639 = ORIENTED_EDGE ( 'NONE', *, *, #93, .T. ) ;
#640 = CYLINDRICAL_SURFACE ( 'NONE', #1048, 1.699999999999986189 ) ;
#641 = CARTESIAN_POINT ( 'NONE',  ( -1.752700365193353748E-15, 10.49999999999999822, 15.00000000000000000 ) ) ;
#642 =( GEOMETRIC_REPRESENTATION_CONTEXT ( 3 ) GLOBAL_UNCERTAINTY_ASSIGNED_CONTEXT ( ( #680 ) ) GLOBAL_UNIT_ASSIGNED_CONTEXT ( ( #42, #48, #964 ) ) REPRESENTATION_CONTEXT ( 'NONE', 'WORKASPACE' ) );
#643 = CARTESIAN_POINT ( 'NONE',  ( -6.000000000000002665, 7.500000000000000000, 5.000000000000000000 ) ) ;
#644 = EDGE_LOOP ( 'NONE', ( #1137, #31, #216, #119 ) ) ;
#645 = PRODUCT ( 'connector_wide_upper', 'connector_wide_upper', '', ( #498 ) ) ;
#646 = FACE_BOUND ( 'NONE', #98, .T. ) ;
#647 = DIRECTION ( 'NONE',  ( -1.000000000000000000, 0.000000000000000000, 0.000000000000000000 ) ) ;
#648 = DIRECTION ( 'NONE',  ( -0.000000000000000000, -0.000000000000000000, 1.000000000000000000 ) ) ;
#649 = AXIS2_PLACEMENT_3D ( 'NONE', #660, #519, #1141 ) ;
#650 = EDGE_CURVE ( 'NONE', #746, #80, #1099, .T. ) ;
#651 = ORIENTED_EDGE ( 'NONE', *, *, #650, .T. ) ;
#652 = DIRECTION ( 'NONE',  ( -0.000000000000000000, -0.000000000000000000, 1.000000000000000000 ) ) ;
#653 = PRODUCT_DEFINITION_CONTEXT ( 'detailed design', #232, 'design' ) ;
#654 = DIRECTION ( 'NONE',  ( 1.000000000000000000, 0.000000000000000000, 0.000000000000000000 ) ) ;
#655 = AXIS2_PLACEMENT_3D ( 'NONE', #601, #855, #137 ) ;
#656 = CARTESIAN_POINT ( 'NONE',  ( 23.80247615435277098, -2.719784409461915686, 5.000000000000000000 ) ) ;
#657 = CLOSED_SHELL ( 'NONE', ( #745, #458, #494, #496, #485, #782, #435, #615, #29, #392, #582, #294, #661, #1122, #915, #569, #390, #1159, #1036, #155, #1081, #355, #985, #381, #832, #335, #1083, #257, #157, #315, #512, #600, #8, #278, #186 ) ) ;
#658 = VERTEX_POINT ( 'NONE', #991 ) ;
#659 = EDGE_CURVE ( 'NONE', #303, #598, #452, .T. ) ;
#660 = CARTESIAN_POINT ( 'NONE',  ( -5.742853048390424054E-15, 7.500000000000000000, 6.999999999999999112 ) ) ;
#661 = ADVANCED_FACE ( 'NONE', ( #1007, #11, #538, #1089, #264, #817, #646, #5, #916, #900 ), #91, .T. ) ;
#662 = LINE ( 'NONE', #9, #84 ) ;
#663 = AXIS2_PLACEMENT_3D ( 'NONE', #1035, #308, #697 ) ;
#664 = VERTEX_POINT ( 'NONE', #830 ) ;
#665 = FACE_OUTER_BOUND ( 'NONE', #836, .T. ) ;
#666 = LINE ( 'NONE', #202, #751 ) ;
#667 = CARTESIAN_POINT ( 'NONE',  ( 13.44501594039132009, -19.82893453201930356, 5.000000000000001776 ) ) ;
#668 = AXIS2_PLACEMENT_3D ( 'NONE', #203, #840, #1022 ) ;
#669 = VERTEX_POINT ( 'NONE', #1013 ) ;
#670 = CIRCLE ( 'NONE', #199, 5.999999999999996447 ) ;
#671 = EDGE_LOOP ( 'NONE', ( #777, #1078, #502, #723 ) ) ;
#672 = CARTESIAN_POINT ( 'NONE',  ( 42.61162627691014393, -13.07724462342336302, 5.000000000000000000 ) ) ;
#673 = EDGE_CURVE ( 'NONE', #914, #189, #164, .T. ) ;
#674 = CARTESIAN_POINT ( 'NONE',  ( -40.91162627691014819, -13.07724462342339500, -4.336808689942017736E-15 ) ) ;
#675 = CARTESIAN_POINT ( 'NONE',  ( 23.80247615435277098, -2.719784409461915686, -4.336808689942017736E-15 ) ) ;
#676 = CIRCLE ( 'NONE', #958, 1.699999999999986189 ) ;
#677 = VECTOR ( 'NONE', #907, 1000.000000000000000 ) ;
#678 = ORIENTED_EDGE ( 'NONE', *, *, #348, .F. ) ;
#679 = ORIENTED_EDGE ( 'NONE', *, *, #167, .F. ) ;
#680 = UNCERTAINTY_MEASURE_WITH_UNIT (LENGTH_MEASURE( 1.000000000000000082E-05 ), #42, 'distance_accuracy_value', 'NONE');
#681 = FACE_BOUND ( 'NONE', #217, .T. ) ;
#682 = DIRECTION ( 'NONE',  ( -0.000000000000000000, -0.000000000000000000, 1.000000000000000000 ) ) ;
#683 = DIRECTION ( 'NONE',  ( -0.000000000000000000, 0.000000000000000000, 1.000000000000000000 ) ) ;
#684 = ORIENTED_EDGE ( 'NONE', *, *, #52, .F. ) ;
#685 = AXIS2_PLACEMENT_3D ( 'NONE', #117, #788, #876 ) ;
#686 = ORIENTED_EDGE ( 'NONE', *, *, #127, .F. ) ;
#687 = DIRECTION ( 'NONE',  ( -0.000000000000000000, -0.000000000000000000, 1.000000000000000000 ) ) ;
#688 = DIRECTION ( 'NONE',  ( 1.000000000000000000, 0.000000000000000000, 0.000000000000000000 ) ) ;
#689 = CARTESIAN_POINT ( 'NONE',  ( 25.50247615435275605, -2.719784409461915686, 5.000000000000001776 ) ) ;
#690 = EDGE_LOOP ( 'NONE', ( #366, #852, #205, #376, #483, #578, #771, #211 ) ) ;
#691 = CIRCLE ( 'NONE', #571, 14.50000000000000000 ) ;
#692 = EDGE_CURVE ( 'NONE', #165, #729, #471, .T. ) ;
#693 = CIRCLE ( 'NONE', #974, 1.699999999999986189 ) ;
#694 = ORIENTED_EDGE ( 'NONE', *, *, #1180, .T. ) ;
#695 = CARTESIAN_POINT ( 'NONE',  ( -13.44501594039130055, -19.82893453201931422, -4.336808689942017736E-15 ) ) ;
#696 = FACE_OUTER_BOUND ( 'NONE', #114, .T. ) ;
#697 = DIRECTION ( 'NONE',  ( 1.000000000000000000, 0.000000000000000000, 0.000000000000000000 ) ) ;
#698 = LINE ( 'NONE', #871, #219 ) ;
#699 = FACE_BOUND ( 'NONE', #279, .T. ) ;
#700 = VECTOR ( 'NONE', #1079, 1000.000000000000114 ) ;
#701 = ORIENTED_EDGE ( 'NONE', *, *, #744, .T. ) ;
#702 = CARTESIAN_POINT ( 'NONE',  ( 14.49999999999999467, 7.500000000000000000, 6.999999999999999112 ) ) ;
#703 = CARTESIAN_POINT ( 'NONE',  ( -5.742853048390424054E-15, 7.500000000000000000, 6.999999999999999112 ) ) ;
#704 = CARTESIAN_POINT ( 'NONE',  ( -30.55416606294868487, -30.18639474598078110, -4.336808689942017736E-15 ) ) ;
#705 = EDGE_LOOP ( 'NONE', ( #721, #592 ) ) ;
#706 = FACE_OUTER_BOUND ( 'NONE', #1114, .T. ) ;
#707 = PRODUCT_DEFINITION_SHAPE ( 'NONE', 'NONE',  #104 ) ;
#708 = DIRECTION ( 'NONE',  ( -0.000000000000000000, -0.000000000000000000, 1.000000000000000000 ) ) ;
#709 = DIRECTION ( 'NONE',  ( -0.000000000000000000, -0.000000000000000000, 1.000000000000000000 ) ) ;
#710 = DIRECTION ( 'NONE',  ( 1.000000000000000000, 0.000000000000000000, 0.000000000000000000 ) ) ;
#711 = VERTEX_POINT ( 'NONE', #747 ) ;
#712 = AXIS2_PLACEMENT_3D ( 'NONE', #385, #325, #238 ) ;
#713 = FACE_OUTER_BOUND ( 'NONE', #108, .T. ) ;
#714 = LINE ( 'NONE', #248, #749 ) ;
#715 = EDGE_CURVE ( 'NONE', #422, #189, #170, .T. ) ;
#716 = CARTESIAN_POINT ( 'NONE',  ( -14.50000000000000533, 7.500000000000001776, 6.999999999999999112 ) ) ;
#717 = ORIENTED_EDGE ( 'NONE', *, *, #521, .F. ) ;
#718 = AXIS2_PLACEMENT_3D ( 'NONE', #618, #981, #350 ) ;
#719 = CARTESIAN_POINT ( 'NONE',  ( 7.768095160471088612, 12.83186259191804446, 5.000000000000000000 ) ) ;
#720 = LINE ( 'NONE', #265, #121 ) ;
#721 = ORIENTED_EDGE ( 'NONE', *, *, #55, .T. ) ;
#722 = CARTESIAN_POINT ( 'NONE',  ( -1.752700365193353748E-15, 10.49999999999999822, 0.000000000000000000 ) ) ;
#723 = ORIENTED_EDGE ( 'NONE', *, *, #201, .F. ) ;
#724 = EDGE_CURVE ( 'NONE', #291, #1178, #670, .T. ) ;
#725 = CARTESIAN_POINT ( 'NONE',  ( -32.24208854009767578, -37.05304733011050189, 5.000000000000000000 ) ) ;
#726 = MECHANICAL_DESIGN_GEOMETRIC_PRESENTATION_REPRESENTATION (  '', ( #784 ), #319 ) ;
#727 = VECTOR ( 'NONE', #1049, 1000.000000000000000 ) ;
#728 = CARTESIAN_POINT ( 'NONE',  ( 0.000000000000000000, 0.000000000000000000, 0.000000000000000000 ) ) ;
#729 = VERTEX_POINT ( 'NONE', #689 ) ;
#730 = DIRECTION ( 'NONE',  ( 0.8554575061278696380, -0.5178730106980724557, 0.000000000000000000 ) ) ;
#731 = EDGE_CURVE ( 'NONE', #1110, #303, #222, .T. ) ;
#732 = CARTESIAN_POINT ( 'NONE',  ( -42.61162627691013682, -13.07724462342339500, -4.336808689942017736E-15 ) ) ;
#733 = ORIENTED_EDGE ( 'NONE', *, *, #946, .F. ) ;
#734 = DIRECTION ( 'NONE',  ( 1.000000000000000000, 0.000000000000000000, 0.000000000000000000 ) ) ;
#735 = EDGE_LOOP ( 'NONE', ( #617, #102, #579, #858 ) ) ;
#736 = CARTESIAN_POINT ( 'NONE',  ( -6.000000000000002665, 7.500000000000000000, 0.000000000000000000 ) ) ;
#737 = CARTESIAN_POINT ( 'NONE',  ( 5.999999999999990230, 7.500000000000000888, 15.00000000000000000 ) ) ;
#738 = ORIENTED_EDGE ( 'NONE', *, *, #1005, .T. ) ;
#739 = CARTESIAN_POINT ( 'NONE',  ( 5.196152422706623142, 10.49999999999999822, 0.000000000000000000 ) ) ;
#740 = CARTESIAN_POINT ( 'NONE',  ( 40.91162627691016240, -13.07724462342336302, 5.000000000000000000 ) ) ;
#741 = CIRCLE ( 'NONE', #712, 1.699999999999986189 ) ;
#742 = CARTESIAN_POINT ( 'NONE',  ( 0.000000000000000000, 0.000000000000000000, 5.000000000000000000 ) ) ;
#743 = AXIS2_PLACEMENT_3D ( 'NONE', #703, #683, #132 ) ;
#744 = EDGE_CURVE ( 'NONE', #978, #711, #287, .T. ) ;
#745 = ADVANCED_FACE ( 'NONE', ( #123 ), #68, .F. ) ;
#746 = VERTEX_POINT ( 'NONE', #1056 ) ;
#747 = CARTESIAN_POINT ( 'NONE',  ( -22.10247615435277524, -2.719784409461932118, 5.000000000000001776 ) ) ;
#748 = ORIENTED_EDGE ( 'NONE', *, *, #1109, .T. ) ;
#749 = VECTOR ( 'NONE', #237, 1000.000000000000000 ) ;
#750 = CARTESIAN_POINT ( 'NONE',  ( 15.14501594039130694, -19.82893453201930356, -4.336808689942017736E-15 ) ) ;
#751 = VECTOR ( 'NONE', #780, 1000.000000000000000 ) ;
#752 = ORIENTED_EDGE ( 'NONE', *, *, #884, .F. ) ;
#753 = DIRECTION ( 'NONE',  ( 1.000000000000000000, 0.000000000000000000, 0.000000000000000000 ) ) ;
#754 = EDGE_LOOP ( 'NONE', ( #778, #6, #866, #78 ) ) ;
#755 = LINE ( 'NONE', #593, #996 ) ;
#756 = DIRECTION ( 'NONE',  ( 0.8554575061278691939, 0.5178730106980732328, 0.000000000000000000 ) ) ;
#757 = CARTESIAN_POINT ( 'NONE',  ( 40.01018370056877416, -24.22118473819242723, 0.000000000000000000 ) ) ;
#758 = ORIENTED_EDGE ( 'NONE', *, *, #715, .T. ) ;
#759 = ORIENTED_EDGE ( 'NONE', *, *, #243, .F. ) ;
#760 = EDGE_CURVE ( 'NONE', #898, #204, #698, .T. ) ;
#761 = DIRECTION ( 'NONE',  ( -0.000000000000000000, -0.000000000000000000, -1.000000000000000000 ) ) ;
#762 = FACE_OUTER_BOUND ( 'NONE', #786, .T. ) ;
#763 = AXIS2_PLACEMENT_3D ( 'NONE', #971, #589, #753 ) ;
#764 = ORIENTED_EDGE ( 'NONE', *, *, #481, .T. ) ;
#765 = EDGE_LOOP ( 'NONE', ( #253, #888, #806, #160 ) ) ;
#766 = CARTESIAN_POINT ( 'NONE',  ( -12.50000000000000533, 7.500000000000000000, 15.00000000000000000 ) ) ;
#767 = DIRECTION ( 'NONE',  ( -0.000000000000000000, -0.000000000000000000, 1.000000000000000000 ) ) ;
#768 = APPLICATION_PROTOCOL_DEFINITION ( 'draft international standard', 'automotive_design', 1998, #1173 ) ;
#769 = AXIS2_PLACEMENT_3D ( 'NONE', #886, #606, #875 ) ;
#770 = CIRCLE ( 'NONE', #129, 1.699999999999989742 ) ;
#771 = ORIENTED_EDGE ( 'NONE', *, *, #874, .F. ) ;
#772 = ORIENTED_EDGE ( 'NONE', *, *, #919, .F. ) ;
#773 = DIRECTION ( 'NONE',  ( -0.8554575061278696380, 0.5178730106980726777, 0.000000000000000000 ) ) ;
#774 = DIRECTION ( 'NONE',  ( -0.000000000000000000, -0.000000000000000000, 1.000000000000000000 ) ) ;
#775 = EDGE_CURVE ( 'NONE', #196, #572, #1069, .T. ) ;
#776 = CARTESIAN_POINT ( 'NONE',  ( 7.768095160471098382, -12.83186259191803558, 5.000000000000000000 ) ) ;
#777 = ORIENTED_EDGE ( 'NONE', *, *, #528, .F. ) ;
#778 = ORIENTED_EDGE ( 'NONE', *, *, #177, .T. ) ;
#779 = DIRECTION ( 'NONE',  ( 1.000000000000000000, 0.000000000000000000, 0.000000000000000000 ) ) ;
#780 = DIRECTION ( 'NONE',  ( -0.000000000000000000, -0.000000000000000000, 1.000000000000000000 ) ) ;
#781 = CARTESIAN_POINT ( 'NONE',  ( 23.80247615435277098, -2.719784409461915686, 5.000000000000001776 ) ) ;
#782 = ADVANCED_FACE ( 'NONE', ( #1116 ), #412, .F. ) ;
#783 = CARTESIAN_POINT ( 'NONE',  ( -5.742853048390424054E-15, 7.500000000000000000, 15.00000000000000000 ) ) ;
#784 = STYLED_ITEM ( 'NONE', ( #902 ), #940 ) ;
#785 = EDGE_CURVE ( 'NONE', #729, #1143, #49, .T. ) ;
#786 = EDGE_LOOP ( 'NONE', ( #432, #470, #752, #537 ) ) ;
#787 = CARTESIAN_POINT ( 'NONE',  ( 0.000000000000000000, 0.000000000000000000, 0.000000000000000000 ) ) ;
#788 = DIRECTION ( 'NONE',  ( -0.000000000000000000, -0.000000000000000000, 1.000000000000000000 ) ) ;
#789 = CARTESIAN_POINT ( 'NONE',  ( -30.55416606294868487, -30.18639474598078110, 5.000000000000001776 ) ) ;
#790 = CYLINDRICAL_SURFACE ( 'NONE', #250, 1.699999999999986189 ) ;
#791 = VECTOR ( 'NONE', #1101, 1000.000000000000000 ) ;
#792 = ORIENTED_EDGE ( 'NONE', *, *, #43, .T. ) ;
#793 = DIRECTION ( 'NONE',  ( 1.000000000000000000, 0.000000000000000000, 0.000000000000000000 ) ) ;
#794 = CARTESIAN_POINT ( 'NONE',  ( -23.80247615435276742, -2.719784409461932118, 5.000000000000001776 ) ) ;
#795 =( NAMED_UNIT ( * ) SI_UNIT ( $, .STERADIAN. ) SOLID_ANGLE_UNIT ( ) );
#796 = FACE_OUTER_BOUND ( 'NONE', #178, .T. ) ;
#797 = ORIENTED_EDGE ( 'NONE', *, *, #228, .T. ) ;
#798 = AXIS2_PLACEMENT_3D ( 'NONE', #607, #1061, #131 ) ;
#799 = DIRECTION ( 'NONE',  ( -0.000000000000000000, -0.000000000000000000, -1.000000000000000000 ) ) ;
#800 = EDGE_CURVE ( 'NONE', #1023, #311, #864, .T. ) ;
#801 = DIRECTION ( 'NONE',  ( 1.000000000000000000, 0.000000000000000000, 0.000000000000000000 ) ) ;
#802 = CARTESIAN_POINT ( 'NONE',  ( -32.25416606294867705, -30.18639474598078110, 5.000000000000000000 ) ) ;
#803 = ORIENTED_EDGE ( 'NONE', *, *, #874, .T. ) ;
#804 = CARTESIAN_POINT ( 'NONE',  ( 11.74501594039133145, -19.82893453201930356, 5.000000000000000000 ) ) ;
#805 = DIRECTION ( 'NONE',  ( -0.8554575061278691939, -0.5178730106980732328, 0.000000000000000000 ) ) ;
#806 = ORIENTED_EDGE ( 'NONE', *, *, #673, .T. ) ;
#807 = AXIS2_PLACEMENT_3D ( 'NONE', #1155, #1164, #529 ) ;
#808 = CYLINDRICAL_SURFACE ( 'NONE', #1055, 12.50000000000000000 ) ;
#809 = VECTOR ( 'NONE', #431, 1000.000000000000000 ) ;
#810 = DIRECTION ( 'NONE',  ( 0.000000000000000000, -0.000000000000000000, -1.000000000000000000 ) ) ;
#811 = EDGE_CURVE ( 'NONE', #669, #451, #1146, .T. ) ;
#812 = ORIENTED_EDGE ( 'NONE', *, *, #731, .T. ) ;
#813 = DIRECTION ( 'NONE',  ( 1.000000000000000000, 0.000000000000000000, 0.000000000000000000 ) ) ;
#814 = DIRECTION ( 'NONE',  ( -0.000000000000000000, -0.000000000000000000, -1.000000000000000000 ) ) ;
#815 = ORIENTED_EDGE ( 'NONE', *, *, #930, .T. ) ;
#816 = EDGE_CURVE ( 'NONE', #466, #165, #741, .T. ) ;
#817 = FACE_BOUND ( 'NONE', #310, .T. ) ;
#818 = ORIENTED_EDGE ( 'NONE', *, *, #955, .T. ) ;
#819 = CIRCLE ( 'NONE', #1179, 22.50000000000000000 ) ;
#820 = DIRECTION ( 'NONE',  ( -0.000000000000000000, -0.000000000000000000, -1.000000000000000000 ) ) ;
#821 = CYLINDRICAL_SURFACE ( 'NONE', #1126, 1.699999999999986189 ) ;
#822 = ORIENTED_EDGE ( 'NONE', *, *, #43, .F. ) ;
#823 = CARTESIAN_POINT ( 'NONE',  ( 40.91162627691016240, -13.07724462342336302, 5.000000000000001776 ) ) ;
#824 = ORIENTED_EDGE ( 'NONE', *, *, #277, .T. ) ;
#825 = EDGE_CURVE ( 'NONE', #299, #74, #193, .T. ) ;
#826 = AXIS2_PLACEMENT_3D ( 'NONE', #695, #1052, #226 ) ;
#827 = CIRCLE ( 'NONE', #73, 1.699999999999986189 ) ;
#828 = CARTESIAN_POINT ( 'NONE',  ( -13.44501594039130055, -19.82893453201931422, -4.336808689942017736E-15 ) ) ;
#829 = EDGE_LOOP ( 'NONE', ( #748, #464, #1000, #293 ) ) ;
#830 = CARTESIAN_POINT ( 'NONE',  ( -5.196152422706635576, 10.49999999999999645, 15.00000000000000000 ) ) ;
#831 = ORIENTED_EDGE ( 'NONE', *, *, #1135, .F. ) ;
#832 = ADVANCED_FACE ( 'NONE', ( #314 ), #419, .F. ) ;
#833 = CIRCLE ( 'NONE', #272, 1.699999999999987965 ) ;
#834 = EDGE_CURVE ( 'NONE', #1095, #80, #857, .T. ) ;
#835 = FACE_OUTER_BOUND ( 'NONE', #148, .T. ) ;
#836 = EDGE_LOOP ( 'NONE', ( #679, #561, #792, #1187 ) ) ;
#837 = CARTESIAN_POINT ( 'NONE',  ( -5.196152422706635576, 10.49999999999999645, 0.000000000000000000 ) ) ;
#838 = VERTEX_POINT ( 'NONE', #331 ) ;
#839 = FACE_OUTER_BOUND ( 'NONE', #735, .T. ) ;
#840 = DIRECTION ( 'NONE',  ( -0.8554575061278694159, -0.5178730106980728998, 0.000000000000000000 ) ) ;
#841 = AXIS2_PLACEMENT_3D ( 'NONE', #635, #188, #560 ) ;
#842 = ORIENTED_EDGE ( 'NONE', *, *, #533, .F. ) ;
#843 = CARTESIAN_POINT ( 'NONE',  ( 22.10247615435278234, -2.719784409461915686, 5.000000000000000000 ) ) ;
#844 = LINE ( 'NONE', #766, #918 ) ;
#845 = CIRCLE ( 'NONE', #1112, 1.699999999999986189 ) ;
#846 = CARTESIAN_POINT ( 'NONE',  ( -22.11455367720378007, 4.146868174667780238, 5.000000000000000000 ) ) ;
#847 = EDGE_CURVE ( 'NONE', #124, #349, #1062, .T. ) ;
#848 = VERTEX_POINT ( 'NONE', #609 ) ;
#849 = ORIENTED_EDGE ( 'NONE', *, *, #816, .T. ) ;
#850 = DIRECTION ( 'NONE',  ( 0.8554575061278691939, 0.5178730106980733439, 0.000000000000000000 ) ) ;
#851 = DIRECTION ( 'NONE',  ( 1.000000000000000000, 0.000000000000000000, 0.000000000000000000 ) ) ;
#852 = ORIENTED_EDGE ( 'NONE', *, *, #825, .T. ) ;
#853 = ORIENTED_EDGE ( 'NONE', *, *, #608, .F. ) ;
#854 = PLANE ( 'NONE',  #501 ) ;
#855 = DIRECTION ( 'NONE',  ( -0.000000000000000000, 0.000000000000000000, 1.000000000000000000 ) ) ;
#856 = DIRECTION ( 'NONE',  ( 1.000000000000000000, 0.000000000000000000, 0.000000000000000000 ) ) ;
#857 = CIRCLE ( 'NONE', #1047, 1.699999999999989742 ) ;
#858 = ORIENTED_EDGE ( 'NONE', *, *, #775, .T. ) ;
#859 = ORIENTED_EDGE ( 'NONE', *, *, #55, .F. ) ;
#860 = FACE_OUTER_BOUND ( 'NONE', #133, .T. ) ;
#861 = EDGE_CURVE ( 'NONE', #596, #291, #534, .T. ) ;
#862 = DIRECTION ( 'NONE',  ( 1.000000000000000000, 0.000000000000000000, 0.000000000000000000 ) ) ;
#863 = DIRECTION ( 'NONE',  ( -0.000000000000000000, -0.000000000000000000, 1.000000000000000000 ) ) ;
#864 = LINE ( 'NONE', #140, #67 ) ;
#865 = ORIENTED_EDGE ( 'NONE', *, *, #1148, .F. ) ;
#866 = ORIENTED_EDGE ( 'NONE', *, *, #861, .F. ) ;
#867 = CARTESIAN_POINT ( 'NONE',  ( -22.11455367720378007, 4.146868174667780238, 5.000000000000000000 ) ) ;
#868 = EDGE_CURVE ( 'NONE', #327, #515, #146, .T. ) ;
#869 = CARTESIAN_POINT ( 'NONE',  ( 47.77827886103987964, -11.38932214627437922, 5.000000000000000000 ) ) ;
#870 = EDGE_CURVE ( 'NONE', #466, #1143, #57, .T. ) ;
#871 = CARTESIAN_POINT ( 'NONE',  ( 22.11455367720378717, 4.146868174667797113, 5.000000000000000000 ) ) ;
#872 = CARTESIAN_POINT ( 'NONE',  ( 0.000000000000000000, 0.000000000000000000, 5.000000000000000000 ) ) ;
#873 = ORIENTED_EDGE ( 'NONE', *, *, #1132, .F. ) ;
#874 = EDGE_CURVE ( 'NONE', #303, #1174, #450, .T. ) ;
#875 = DIRECTION ( 'NONE',  ( 1.000000000000000000, 0.000000000000000000, 0.000000000000000000 ) ) ;
#876 = DIRECTION ( 'NONE',  ( 1.000000000000000000, 0.000000000000000000, 0.000000000000000000 ) ) ;
#877 = CARTESIAN_POINT ( 'NONE',  ( -22.10247615435277524, -2.719784409461932118, 5.000000000000000000 ) ) ;
#878 = CARTESIAN_POINT ( 'NONE',  ( -5.742853048390424054E-15, 7.500000000000000000, 6.999999999999999112 ) ) ;
#879 = CIRCLE ( 'NONE', #474, 1.699999999999986189 ) ;
#880 = ORIENTED_EDGE ( 'NONE', *, *, #1060, .F. ) ;
#881 = DIRECTION ( 'NONE',  ( -0.8554575061278696380, 0.5178730106980724557, 0.000000000000000000 ) ) ;
#882 = DIRECTION ( 'NONE',  ( -0.000000000000000000, -0.000000000000000000, 1.000000000000000000 ) ) ;
#883 = DIRECTION ( 'NONE',  ( 1.000000000000000000, 0.000000000000000000, 0.000000000000000000 ) ) ;
#884 = EDGE_CURVE ( 'NONE', #1024, #1174, #982, .T. ) ;
#885 = ORIENTED_EDGE ( 'NONE', *, *, #100, .F. ) ;
#886 = CARTESIAN_POINT ( 'NONE',  ( -23.80247615435276742, -2.719784409461932118, 5.000000000000000000 ) ) ;
#887 = CARTESIAN_POINT ( 'NONE',  ( -30.55416606294868487, -30.18639474598078110, -4.336808689942017736E-15 ) ) ;
#888 = ORIENTED_EDGE ( 'NONE', *, *, #127, .T. ) ;
#889 = EDGE_LOOP ( 'NONE', ( #285, #51, #818, #96 ) ) ;
#890 = AXIS2_PLACEMENT_3D ( 'NONE', #1054, #581, #588 ) ;
#891 = CARTESIAN_POINT ( 'NONE',  ( -5.742853048390424054E-15, 7.500000000000000000, 15.00000000000000000 ) ) ;
#892 = DIRECTION ( 'NONE',  ( -0.000000000000000000, -0.000000000000000000, 1.000000000000000000 ) ) ;
#893 = ORIENTED_EDGE ( 'NONE', *, *, #85, .F. ) ;
#894 = AXIS2_PLACEMENT_3D ( 'NONE', #260, #633, #1091 ) ;
#895 = VECTOR ( 'NONE', #965, 1000.000000000000000 ) ;
#896 = DIRECTION ( 'NONE',  ( -0.000000000000000000, 0.000000000000000000, 1.000000000000000000 ) ) ;
#897 = EDGE_CURVE ( 'NONE', #363, #53, #691, .T. ) ;
#898 = VERTEX_POINT ( 'NONE', #254 ) ;
#899 = AXIS2_PLACEMENT_3D ( 'NONE', #312, #687, #954 ) ;
#900 = FACE_BOUND ( 'NONE', #453, .T. ) ;
#901 = EDGE_CURVE ( 'NONE', #1110, #995, #530, .T. ) ;
#902 = PRESENTATION_STYLE_ASSIGNMENT (( #82 ) ) ;
#903 = EDGE_CURVE ( 'NONE', #1136, #838, #1165, .T. ) ;
#904 = ORIENTED_EDGE ( 'NONE', *, *, #785, .F. ) ;
#905 = DIRECTION ( 'NONE',  ( 1.000000000000000000, 0.000000000000000000, 0.000000000000000000 ) ) ;
#906 = ORIENTED_EDGE ( 'NONE', *, *, #992, .F. ) ;
#907 = DIRECTION ( 'NONE',  ( -0.000000000000000000, -0.000000000000000000, 1.000000000000000000 ) ) ;
#908 = CYLINDRICAL_SURFACE ( 'NONE', #1162, 22.50000000000000000 ) ;
#909 = ORIENTED_EDGE ( 'NONE', *, *, #834, .F. ) ;
#910 = LINE ( 'NONE', #1175, #476 ) ;
#911 = VERTEX_POINT ( 'NONE', #614 ) ;
#912 = AXIS2_PLACEMENT_3D ( 'NONE', #1073, #251, #370 ) ;
#913 = CARTESIAN_POINT ( 'NONE',  ( -6.578363356261585082, -21.51685700916829802, 5.000000000000000000 ) ) ;
#914 = VERTEX_POINT ( 'NONE', #171 ) ;
#915 = ADVANCED_FACE ( 'NONE', ( #620 ), #908, .T. ) ;
#916 = FACE_BOUND ( 'NONE', #118, .T. ) ;
#917 = ORIENTED_EDGE ( 'NONE', *, *, #1148, .T. ) ;
#918 = VECTOR ( 'NONE', #761, 1000.000000000000000 ) ;
#919 = EDGE_CURVE ( 'NONE', #1012, #746, #950, .T. ) ;
#920 = LINE ( 'NONE', #357, #677 ) ;
#921 = VECTOR ( 'NONE', #342, 1000.000000000000000 ) ;
#922 = CARTESIAN_POINT ( 'NONE',  ( -47.77827886103986543, -11.38932214627441830, 5.000000000000000000 ) ) ;
#923 = VERTEX_POINT ( 'NONE', #541 ) ;
#924 = DIRECTION ( 'NONE',  ( -0.000000000000000000, -0.000000000000000000, -1.000000000000000000 ) ) ;
#925 = CARTESIAN_POINT ( 'NONE',  ( -32.25416606294867705, -30.18639474598078110, 5.000000000000001776 ) ) ;
#926 = ORIENTED_EDGE ( 'NONE', *, *, #277, .F. ) ;
#927 = CARTESIAN_POINT ( 'NONE',  ( -7.768095160471088612, -12.83186259191804446, 0.000000000000000000 ) ) ;
#928 = CARTESIAN_POINT ( 'NONE',  ( 40.91162627691016240, -13.07724462342336302, -4.336808689942017736E-15 ) ) ;
#929 = AXIS2_PLACEMENT_3D ( 'NONE', #828, #648, #22 ) ;
#930 = EDGE_CURVE ( 'NONE', #995, #598, #720, .T. ) ;
#931 = CARTESIAN_POINT ( 'NONE',  ( -6.578363356261585082, -21.51685700916829802, 0.000000000000000000 ) ) ;
#932 = AXIS2_PLACEMENT_3D ( 'NONE', #367, #166, #1104 ) ;
#933 = ORIENTED_EDGE ( 'NONE', *, *, #659, .F. ) ;
#934 = ORIENTED_EDGE ( 'NONE', *, *, #353, .F. ) ;
#935 = CARTESIAN_POINT ( 'NONE',  ( 0.000000000000000000, 0.000000000000000000, 0.000000000000000000 ) ) ;
#936 = CIRCLE ( 'NONE', #1131, 1.699999999999989742 ) ;
#937 = CARTESIAN_POINT ( 'NONE',  ( -5.742853048390424054E-15, 7.500000000000000000, 15.00000000000000000 ) ) ;
#938 = CARTESIAN_POINT ( 'NONE',  ( -40.91162627691014819, -13.07724462342339500, 5.000000000000001776 ) ) ;
#939 = EDGE_LOOP ( 'NONE', ( #590, #475, #701, #1086 ) ) ;
#940 = MANIFOLD_SOLID_BREP ( 'Fillet1', #657 ) ;
#941 = ORIENTED_EDGE ( 'NONE', *, *, #441, .F. ) ;
#942 = CARTESIAN_POINT ( 'NONE',  ( -7.768095160471097493, 12.83186259191803735, 0.000000000000000000 ) ) ;
#943 = DIRECTION ( 'NONE',  ( 1.000000000000000000, 0.000000000000000000, 0.000000000000000000 ) ) ;
#944 = PRODUCT_DEFINITION_FORMATION_WITH_SPECIFIED_SOURCE ( 'ANY', '', #645, .NOT_KNOWN. ) ;
#945 = ORIENTED_EDGE ( 'NONE', *, *, #785, .T. ) ;
#946 = EDGE_CURVE ( 'NONE', #204, #223, #819, .T. ) ;
#947 = EDGE_LOOP ( 'NONE', ( #1100, #414 ) ) ;
#948 = DIRECTION ( 'NONE',  ( -0.000000000000000000, -0.000000000000000000, -1.000000000000000000 ) ) ;
#949 = DIRECTION ( 'NONE',  ( -1.000000000000000000, 0.000000000000000000, 0.000000000000000000 ) ) ;
#950 = CIRCLE ( 'NONE', #1009, 1.699999999999989742 ) ;
#951 = DIRECTION ( 'NONE',  ( 1.000000000000000000, 0.000000000000000000, 0.000000000000000000 ) ) ;
#952 = ORIENTED_EDGE ( 'NONE', *, *, #744, .F. ) ;
#953 = ORIENTED_EDGE ( 'NONE', *, *, #636, .T. ) ;
#954 = DIRECTION ( 'NONE',  ( 1.000000000000000000, 0.000000000000000000, 0.000000000000000000 ) ) ;
#955 = EDGE_CURVE ( 'NONE', #1178, #585, #989, .T. ) ;
#956 = CARTESIAN_POINT ( 'NONE',  ( -30.55416606294868487, -30.18639474598078110, 5.000000000000001776 ) ) ;
#957 = DIRECTION ( 'NONE',  ( 0.000000000000000000, 0.000000000000000000, 1.000000000000000000 ) ) ;
#958 = AXIS2_PLACEMENT_3D ( 'NONE', #302, #116, #851 ) ;
#959 = CIRCLE ( 'NONE', #503, 1.699999999999989742 ) ;
#960 = ORIENTED_EDGE ( 'NONE', *, *, #1085, .F. ) ;
#961 = ORIENTED_EDGE ( 'NONE', *, *, #1096, .F. ) ;
#962 = CARTESIAN_POINT ( 'NONE',  ( -5.742853048390424054E-15, 7.500000000000000000, 5.000000000000000000 ) ) ;
#963 = DIRECTION ( 'NONE',  ( 1.000000000000000000, 0.000000000000000000, 0.000000000000000000 ) ) ;
#964 =( NAMED_UNIT ( * ) SI_UNIT ( $, .STERADIAN. ) SOLID_ANGLE_UNIT ( ) );
#965 = DIRECTION ( 'NONE',  ( -0.000000000000000000, -0.000000000000000000, 1.000000000000000000 ) ) ;
#966 = CIRCLE ( 'NONE', #984, 1.699999999999986189 ) ;
#967 = ORIENTED_EDGE ( 'NONE', *, *, #1060, .T. ) ;
#968 = ORIENTED_EDGE ( 'NONE', *, *, #847, .F. ) ;
#969 = FACE_OUTER_BOUND ( 'NONE', #671, .T. ) ;
#970 = EDGE_CURVE ( 'NONE', #198, #1051, #375, .T. ) ;
#971 = CARTESIAN_POINT ( 'NONE',  ( -5.742853048390424054E-15, 7.500000000000000000, 0.000000000000000000 ) ) ;
#972 = DIRECTION ( 'NONE',  ( 1.000000000000000000, 0.000000000000000000, 0.000000000000000000 ) ) ;
#973 = CIRCLE ( 'NONE', #394, 1.699999999999986189 ) ;
#974 = AXIS2_PLACEMENT_3D ( 'NONE', #1001, #86, #813 ) ;
#975 = ORIENTED_EDGE ( 'NONE', *, *, #348, .T. ) ;
#976 = DIRECTION ( 'NONE',  ( 1.000000000000000000, 0.000000000000000000, 0.000000000000000000 ) ) ;
#977 = DIRECTION ( 'NONE',  ( 1.000000000000000000, 0.000000000000000000, 0.000000000000000000 ) ) ;
#978 = VERTEX_POINT ( 'NONE', #153 ) ;
#979 = AXIS2_PLACEMENT_3D ( 'NONE', #230, #1127, #943 ) ;
#980 = VERTEX_POINT ( 'NONE', #525 ) ;
#981 = DIRECTION ( 'NONE',  ( -0.000000000000000000, -0.000000000000000000, 1.000000000000000000 ) ) ;
#982 = LINE ( 'NONE', #999, #12 ) ;
#983 = ORIENTED_EDGE ( 'NONE', *, *, #1109, .F. ) ;
#984 = AXIS2_PLACEMENT_3D ( 'NONE', #675, #863, #856 ) ;
#985 = ADVANCED_FACE ( 'NONE', ( #430 ), #1160, .T. ) ;
#986 = CYLINDRICAL_SURFACE ( 'NONE', #461, 1.699999999999989742 ) ;
#987 = DIRECTION ( 'NONE',  ( -0.000000000000000000, 0.000000000000000000, 1.000000000000000000 ) ) ;
#988 = VERTEX_POINT ( 'NONE', #107 ) ;
#989 = CIRCLE ( 'NONE', #894, 5.999999999999996447 ) ;
#990 = CIRCLE ( 'NONE', #321, 5.999999999999996447 ) ;
#991 = CARTESIAN_POINT ( 'NONE',  ( 5.196152422706619589, 10.49999999999999822, 15.00000000000000000 ) ) ;
#992 = EDGE_CURVE ( 'NONE', #488, #311, #436, .T. ) ;
#993 = LINE ( 'NONE', #448, #791 ) ;
#994 = DIRECTION ( 'NONE',  ( 1.000000000000000000, 0.000000000000000000, 0.000000000000000000 ) ) ;
#995 = VERTEX_POINT ( 'NONE', #931 ) ;
#996 = VECTOR ( 'NONE', #948, 1000.000000000000000 ) ;
#997 = DIRECTION ( 'NONE',  ( -0.000000000000000000, -0.000000000000000000, 1.000000000000000000 ) ) ;
#998 = DIRECTION ( 'NONE',  ( -0.000000000000000000, -0.000000000000000000, 1.000000000000000000 ) ) ;
#999 = CARTESIAN_POINT ( 'NONE',  ( -7.768095160471097493, 12.83186259191803735, 5.000000000000000000 ) ) ;
#1000 = ORIENTED_EDGE ( 'NONE', *, *, #1027, .F. ) ;
#1001 = CARTESIAN_POINT ( 'NONE',  ( 30.55416606294870974, -30.18639474598075623, 5.000000000000001776 ) ) ;
#1002 = ORIENTED_EDGE ( 'NONE', *, *, #404, .F. ) ;
#1003 = CARTESIAN_POINT ( 'NONE',  ( -32.24208854009767578, -37.05304733011050189, 5.000000000000000000 ) ) ;
#1004 = PLANE ( 'NONE',  #668 ) ;
#1005 = EDGE_CURVE ( 'NONE', #1174, #39, #557, .T. ) ;
#1006 = EDGE_LOOP ( 'NONE', ( #246, #142, #134, #885 ) ) ;
#1007 = FACE_BOUND ( 'NONE', #1098, .T. ) ;
#1008 = EDGE_LOOP ( 'NONE', ( #13, #639, #1123, #28 ) ) ;
#1009 = AXIS2_PLACEMENT_3D ( 'NONE', #887, #66, #437 ) ;
#1010 = DIRECTION ( 'NONE',  ( 1.000000000000000000, 0.000000000000000000, 0.000000000000000000 ) ) ;
#1011 = DIRECTION ( 'NONE',  ( 0.5178730106980725667, 0.8554575061278695269, 0.000000000000000000 ) ) ;
#1012 = VERTEX_POINT ( 'NONE', #1185 ) ;
#1013 = CARTESIAN_POINT ( 'NONE',  ( 39.21162627691017377, -13.07724462342336302, -4.336808689942017736E-15 ) ) ;
#1014 = EDGE_LOOP ( 'NONE', ( #482, #873, #23, #945 ) ) ;
#1015 = AXIS2_PLACEMENT_3D ( 'NONE', #454, #998, #1010 ) ;
#1016 = CARTESIAN_POINT ( 'NONE',  ( -12.50000000000000533, 7.500000000000000000, 15.00000000000000000 ) ) ;
#1017 = CIRCLE ( 'NONE', #152, 12.50000000000000000 ) ;
#1018 = DIRECTION ( 'NONE',  ( -0.000000000000000000, -0.000000000000000000, 1.000000000000000000 ) ) ;
#1019 = ORIENTED_EDGE ( 'NONE', *, *, #112, .F. ) ;
#1020 = CARTESIAN_POINT ( 'NONE',  ( -5.742853048390424054E-15, 7.500000000000000000, 0.000000000000000000 ) ) ;
#1021 = EDGE_CURVE ( 'NONE', #1038, #669, #879, .T. ) ;
#1022 = DIRECTION ( 'NONE',  ( 0.5178730106980728998, -0.8554575061278694159, 0.000000000000000000 ) ) ;
#1023 = VERTEX_POINT ( 'NONE', #732 ) ;
#1024 = VERTEX_POINT ( 'NONE', #846 ) ;
#1025 = FACE_BOUND ( 'NONE', #343, .T. ) ;
#1026 = AXIS2_PLACEMENT_3D ( 'NONE', #374, #283, #191 ) ;
#1027 = EDGE_CURVE ( 'NONE', #74, #1136, #662, .T. ) ;
#1028 = CARTESIAN_POINT ( 'NONE',  ( -13.44501594039130055, -19.82893453201931422, 5.000000000000001776 ) ) ;
#1029 = DIRECTION ( 'NONE',  ( -0.000000000000000000, -0.000000000000000000, 1.000000000000000000 ) ) ;
#1030 = VECTOR ( 'NONE', #924, 1000.000000000000000 ) ;
#1031 = ORIENTED_EDGE ( 'NONE', *, *, #1042, .F. ) ;
#1032 = VERTEX_POINT ( 'NONE', #737 ) ;
#1033 = CARTESIAN_POINT ( 'NONE',  ( 28.85416606294872466, -30.18639474598075623, 5.000000000000001776 ) ) ;
#1034 = CARTESIAN_POINT ( 'NONE',  ( -11.74501594039131191, -19.82893453201931422, 5.000000000000001776 ) ) ;
#1035 = CARTESIAN_POINT ( 'NONE',  ( -5.742853048390424054E-15, 7.500000000000000000, 15.00000000000000000 ) ) ;
#1036 = ADVANCED_FACE ( 'NONE', ( #835 ), #16, .T. ) ;
#1037 = ORIENTED_EDGE ( 'NONE', *, *, #901, .T. ) ;
#1038 = VERTEX_POINT ( 'NONE', #462 ) ;
#1039 = FACE_BOUND ( 'NONE', #1149, .T. ) ;
#1040 = VECTOR ( 'NONE', #297, 1000.000000000000114 ) ;
#1041 = CARTESIAN_POINT ( 'NONE',  ( 28.85416606294872466, -30.18639474598075623, 5.000000000000000000 ) ) ;
#1042 = EDGE_CURVE ( 'NONE', #299, #327, #183, .T. ) ;
#1043 = ORIENTED_EDGE ( 'NONE', *, *, #1180, .F. ) ;
#1044 = ORIENTED_EDGE ( 'NONE', *, *, #919, .T. ) ;
#1045 = DIRECTION ( 'NONE',  ( -0.000000000000000000, -0.000000000000000000, 1.000000000000000000 ) ) ;
#1046 = CARTESIAN_POINT ( 'NONE',  ( 22.11455367720378717, 4.146868174667797113, 0.000000000000000000 ) ) ;
#1047 = AXIS2_PLACEMENT_3D ( 'NONE', #789, #882, #1111 ) ;
#1048 = AXIS2_PLACEMENT_3D ( 'NONE', #97, #362, #905 ) ;
#1049 = DIRECTION ( 'NONE',  ( -0.000000000000000000, -0.000000000000000000, 1.000000000000000000 ) ) ;
#1050 = ORIENTED_EDGE ( 'NONE', *, *, #760, .T. ) ;
#1051 = VERTEX_POINT ( 'NONE', #750 ) ;
#1052 = DIRECTION ( 'NONE',  ( -0.000000000000000000, -0.000000000000000000, 1.000000000000000000 ) ) ;
#1053 = CYLINDRICAL_SURFACE ( 'NONE', #346, 1.699999999999989742 ) ;
#1054 = CARTESIAN_POINT ( 'NONE',  ( 7.768095160471088612, 12.83186259191804446, 5.000000000000000000 ) ) ;
#1055 = AXIS2_PLACEMENT_3D ( 'NONE', #891, #799, #416 ) ;
#1056 = CARTESIAN_POINT ( 'NONE',  ( -28.85416606294869624, -30.18639474598078110, -4.336808689942017736E-15 ) ) ;
#1057 = DIRECTION ( 'NONE',  ( -0.000000000000000000, -0.000000000000000000, 1.000000000000000000 ) ) ;
#1058 = VERTEX_POINT ( 'NONE', #1113 ) ;
#1059 = DIRECTION ( 'NONE',  ( 0.000000000000000000, 0.000000000000000000, -1.000000000000000000 ) ) ;
#1060 = EDGE_CURVE ( 'NONE', #422, #491, #1106, .T. ) ;
#1061 = DIRECTION ( 'NONE',  ( -0.000000000000000000, -0.000000000000000000, 1.000000000000000000 ) ) ;
#1062 = LINE ( 'NONE', #1041, #612 ) ;
#1063 = DIRECTION ( 'NONE',  ( -0.000000000000000000, -0.000000000000000000, 1.000000000000000000 ) ) ;
#1064 = VERTEX_POINT ( 'NONE', #2 ) ;
#1065 = DIRECTION ( 'NONE',  ( -0.000000000000000000, -0.000000000000000000, 1.000000000000000000 ) ) ;
#1066 = CARTESIAN_POINT ( 'NONE',  ( 13.44501594039132009, -19.82893453201930356, 5.000000000000000000 ) ) ;
#1067 = CARTESIAN_POINT ( 'NONE',  ( -6.578363356261585082, -21.51685700916829802, 5.000000000000000000 ) ) ;
#1068 = CARTESIAN_POINT ( 'NONE',  ( -39.21162627691015956, -13.07724462342339500, -4.336808689942017736E-15 ) ) ;
#1069 = CIRCLE ( 'NONE', #649, 12.50000000000000000 ) ;
#1070 = EDGE_LOOP ( 'NONE', ( #1128, #815, #694, #1002, #733, #240, #983, #379 ) ) ;
#1071 = FACE_OUTER_BOUND ( 'NONE', #939, .T. ) ;
#1072 = DIRECTION ( 'NONE',  ( -0.000000000000000000, -0.000000000000000000, -1.000000000000000000 ) ) ;
#1073 = CARTESIAN_POINT ( 'NONE',  ( -1.752700365193353748E-15, 10.49999999999999822, 5.000000000000000000 ) ) ;
#1074 = EDGE_CURVE ( 'NONE', #338, #1064, #359, .T. ) ;
#1075 = CARTESIAN_POINT ( 'NONE',  ( -28.85416606294869624, -30.18639474598078110, 5.000000000000001776 ) ) ;
#1076 = VECTOR ( 'NONE', #40, 1000.000000000000000 ) ;
#1077 = CIRCLE ( 'NONE', #384, 1.699999999999989742 ) ;
#1078 = ORIENTED_EDGE ( 'NONE', *, *, #800, .T. ) ;
#1079 = DIRECTION ( 'NONE',  ( 0.8554575061278696380, -0.5178730106980724557, 0.000000000000000000 ) ) ;
#1080 = FILL_AREA_STYLE_COLOUR ( '', #552 ) ;
#1081 = ADVANCED_FACE ( 'NONE', ( #1102 ), #1004, .T. ) ;
#1082 = ORIENTED_EDGE ( 'NONE', *, *, #139, .F. ) ;
#1083 = ADVANCED_FACE ( 'NONE', ( #195 ), #821, .F. ) ;
#1084 = DIRECTION ( 'NONE',  ( -0.000000000000000000, -0.000000000000000000, 1.000000000000000000 ) ) ;
#1085 = EDGE_CURVE ( 'NONE', #311, #488, #973, .T. ) ;
#1086 = ORIENTED_EDGE ( 'NONE', *, *, #243, .T. ) ;
#1087 = VECTOR ( 'NONE', #19, 1000.000000000000114 ) ;
#1088 = AXIS2_PLACEMENT_3D ( 'NONE', #465, #75, #446 ) ;
#1089 = FACE_BOUND ( 'NONE', #333, .T. ) ;
#1090 = DIRECTION ( 'NONE',  ( 1.000000000000000000, 1.669238443041289401E-16, 0.000000000000000000 ) ) ;
#1091 = DIRECTION ( 'NONE',  ( 1.000000000000000000, 0.000000000000000000, 0.000000000000000000 ) ) ;
#1092 = ORIENTED_EDGE ( 'NONE', *, *, #650, .F. ) ;
#1093 = AXIS2_PLACEMENT_3D ( 'NONE', #1066, #352, #631 ) ;
#1094 = CARTESIAN_POINT ( 'NONE',  ( -32.24208854009767578, -37.05304733011050189, 0.000000000000000000 ) ) ;
#1095 = VERTEX_POINT ( 'NONE', #925 ) ;
#1096 = EDGE_CURVE ( 'NONE', #1032, #1178, #101, .T. ) ;
#1097 = CARTESIAN_POINT ( 'NONE',  ( 5.999999999999990230, 7.500000000000000888, 5.000000000000000000 ) ) ;
#1098 = EDGE_LOOP ( 'NONE', ( #282, #383 ) ) ;
#1099 = LINE ( 'NONE', #274, #518 ) ;
#1100 = ORIENTED_EDGE ( 'NONE', *, *, #136, .T. ) ;
#1101 = DIRECTION ( 'NONE',  ( -0.000000000000000000, -0.000000000000000000, 1.000000000000000000 ) ) ;
#1102 = FACE_OUTER_BOUND ( 'NONE', #583, .T. ) ;
#1103 = ORIENTED_EDGE ( 'NONE', *, *, #17, .T. ) ;
#1104 = DIRECTION ( 'NONE',  ( 1.000000000000000000, 0.000000000000000000, 0.000000000000000000 ) ) ;
#1105 = VECTOR ( 'NONE', #638, 999.9999999999998863 ) ;
#1106 = CIRCLE ( 'NONE', #929, 1.699999999999987965 ) ;
#1107 = DIRECTION ( 'NONE',  ( -0.000000000000000000, -0.000000000000000000, 1.000000000000000000 ) ) ;
#1108 = CARTESIAN_POINT ( 'NONE',  ( 6.578363356261610839, -21.51685700916829092, 5.000000000000000000 ) ) ;
#1109 = EDGE_CURVE ( 'NONE', #515, #838, #271, .T. ) ;
#1110 = VERTEX_POINT ( 'NONE', #913 ) ;
#1111 = DIRECTION ( 'NONE',  ( 1.000000000000000000, 0.000000000000000000, 0.000000000000000000 ) ) ;
#1112 = AXIS2_PLACEMENT_3D ( 'NONE', #928, #1045, #409 ) ;
#1113 = CARTESIAN_POINT ( 'NONE',  ( -25.50247615435275605, -2.719784409461932118, -4.336808689942017736E-15 ) ) ;
#1114 = EDGE_LOOP ( 'NONE', ( #401, #684, #354, #1163 ) ) ;
#1115 = EDGE_CURVE ( 'NONE', #848, #923, #833, .T. ) ;
#1116 = FACE_OUTER_BOUND ( 'NONE', #1157, .T. ) ;
#1117 = ORIENTED_EDGE ( 'NONE', *, *, #568, .T. ) ;
#1118 = EDGE_CURVE ( 'NONE', #911, #291, #455, .T. ) ;
#1119 = FACE_OUTER_BOUND ( 'NONE', #1156, .T. ) ;
#1120 = CARTESIAN_POINT ( 'NONE',  ( 12.49999999999999467, 7.500000000000001776, 15.00000000000000000 ) ) ;
#1121 = CARTESIAN_POINT ( 'NONE',  ( -40.91162627691014819, -13.07724462342339500, 5.000000000000001776 ) ) ;
#1122 = ADVANCED_FACE ( 'NONE', ( #323 ), #122, .F. ) ;
#1123 = ORIENTED_EDGE ( 'NONE', *, *, #472, .F. ) ;
#1124 = ORIENTED_EDGE ( 'NONE', *, *, #946, .T. ) ;
#1125 = CARTESIAN_POINT ( 'NONE',  ( 30.55416606294870974, -30.18639474598075623, 5.000000000000000000 ) ) ;
#1126 = AXIS2_PLACEMENT_3D ( 'NONE', #656, #551, #380 ) ;
#1127 = DIRECTION ( 'NONE',  ( -0.000000000000000000, 0.000000000000000000, 1.000000000000000000 ) ) ;
#1128 = ORIENTED_EDGE ( 'NONE', *, *, #568, .F. ) ;
#1129 = ORIENTED_EDGE ( 'NONE', *, *, #901, .F. ) ;
#1130 = CARTESIAN_POINT ( 'NONE',  ( 7.768095160471098382, -12.83186259191803558, 5.000000000000000000 ) ) ;
#1131 = AXIS2_PLACEMENT_3D ( 'NONE', #794, #708, #150 ) ;
#1132 = EDGE_CURVE ( 'NONE', #165, #466, #966, .T. ) ;
#1133 = CIRCLE ( 'NONE', #442, 2.000000000000001776 ) ;
#1134 = CARTESIAN_POINT ( 'NONE',  ( 5.999999999999990230, 7.500000000000000888, 0.000000000000000000 ) ) ;
#1135 = EDGE_CURVE ( 'NONE', #980, #711, #449, .T. ) ;
#1136 = VERTEX_POINT ( 'NONE', #869 ) ;
#1137 = ORIENTED_EDGE ( 'NONE', *, *, #811, .F. ) ;
#1138 = CARTESIAN_POINT ( 'NONE',  ( -11.74501594039131191, -19.82893453201931422, -4.336808689942017736E-15 ) ) ;
#1139 = CARTESIAN_POINT ( 'NONE',  ( 28.85416606294872466, -30.18639474598075623, -4.336808689942017736E-15 ) ) ;
#1140 = DIRECTION ( 'NONE',  ( 1.000000000000000000, 0.000000000000000000, 0.000000000000000000 ) ) ;
#1141 = DIRECTION ( 'NONE',  ( 1.000000000000000000, 0.000000000000000000, 0.000000000000000000 ) ) ;
#1142 = EDGE_LOOP ( 'NONE', ( #686, #880, #758, #438 ) ) ;
#1143 = VERTEX_POINT ( 'NONE', #36 ) ;
#1144 = PLANE ( 'NONE',  #637 ) ;
#1145 = VECTOR ( 'NONE', #599, 1000.000000000000000 ) ;
#1146 = LINE ( 'NONE', #513, #179 ) ;
#1147 = DIRECTION ( 'NONE',  ( -0.000000000000000000, -0.000000000000000000, 1.000000000000000000 ) ) ;
#1148 = EDGE_CURVE ( 'NONE', #911, #1032, #584, .T. ) ;
#1149 = EDGE_LOOP ( 'NONE', ( #18, #849 ) ) ;
#1150 = DIRECTION ( 'NONE',  ( 1.000000000000000000, 0.000000000000000000, 0.000000000000000000 ) ) ;
#1151 = SHAPE_DEFINITION_REPRESENTATION ( #707, #3 ) ;
#1152 = DIRECTION ( 'NONE',  ( -0.000000000000000000, -0.000000000000000000, 1.000000000000000000 ) ) ;
#1153 = ORIENTED_EDGE ( 'NONE', *, *, #112, .T. ) ;
#1154 = ORIENTED_EDGE ( 'NONE', *, *, #177, .F. ) ;
#1155 = CARTESIAN_POINT ( 'NONE',  ( -23.80247615435276742, -2.719784409461932118, -4.336808689942017736E-15 ) ) ;
#1156 = EDGE_LOOP ( 'NONE', ( #318, #1129, #812, #542 ) ) ;
#1157 = EDGE_LOOP ( 'NONE', ( #772, #500, #611, #1092 ) ) ;
#1158 = CARTESIAN_POINT ( 'NONE',  ( -15.14501594039128918, -19.82893453201931422, -4.336808689942017736E-15 ) ) ;
#1159 = ADVANCED_FACE ( 'NONE', ( #602 ), #511, .T. ) ;
#1160 = PLANE ( 'NONE',  #912 ) ;
#1161 = FACE_OUTER_BOUND ( 'NONE', #407, .T. ) ;
#1162 = AXIS2_PLACEMENT_3D ( 'NONE', #1172, #168, #443 ) ;
#1163 = ORIENTED_EDGE ( 'NONE', *, *, #1042, .T. ) ;
#1164 = DIRECTION ( 'NONE',  ( -0.000000000000000000, -0.000000000000000000, 1.000000000000000000 ) ) ;
#1165 = LINE ( 'NONE', #347, #492 ) ;
#1166 = AXIS2_PLACEMENT_3D ( 'NONE', #65, #625, #976 ) ;
#1167 = EDGE_CURVE ( 'NONE', #349, #427, #626, .T. ) ;
#1168 = VECTOR ( 'NONE', #682, 1000.000000000000000 ) ;
#1169 = ORIENTED_EDGE ( 'NONE', *, *, #521, .T. ) ;
#1170 = CARTESIAN_POINT ( 'NONE',  ( -40.91162627691014819, -13.07724462342339500, 5.000000000000000000 ) ) ;
#1171 = FACE_OUTER_BOUND ( 'NONE', #59, .T. ) ;
#1172 = CARTESIAN_POINT ( 'NONE',  ( 0.000000000000000000, 0.000000000000000000, 5.000000000000000000 ) ) ;
#1173 = APPLICATION_CONTEXT ( 'automotive_design' ) ;
#1174 = VERTEX_POINT ( 'NONE', #214 ) ;
#1175 = CARTESIAN_POINT ( 'NONE',  ( 7.768095160471088612, 12.83186259191804446, 0.000000000000000000 ) ) ;
#1176 = CARTESIAN_POINT ( 'NONE',  ( 32.25416606294869837, -30.18639474598075623, -4.336808689942017736E-15 ) ) ;
#1177 = DIRECTION ( 'NONE',  ( -0.000000000000000000, -0.000000000000000000, -1.000000000000000000 ) ) ;
#1178 = VERTEX_POINT ( 'NONE', #1134 ) ;
#1179 = AXIS2_PLACEMENT_3D ( 'NONE', #728, #987, #977 ) ;
#1180 = EDGE_CURVE ( 'NONE', #598, #39, #231, .T. ) ;
#1181 = AXIS2_PLACEMENT_3D ( 'NONE', #823, #1189, #734 ) ;
#1182 = DIRECTION ( 'NONE',  ( -0.000000000000000000, -0.000000000000000000, 1.000000000000000000 ) ) ;
#1183 = EDGE_LOOP ( 'NONE', ( #917, #125, #460, #156 ) ) ;
#1184 = DIRECTION ( 'NONE',  ( 1.000000000000000000, 0.000000000000000000, 0.000000000000000000 ) ) ;
#1185 = CARTESIAN_POINT ( 'NONE',  ( -32.25416606294867705, -30.18639474598078110, -4.336808689942017736E-15 ) ) ;
#1186 = AXIS2_PLACEMENT_3D ( 'NONE', #7, #820, #647 ) ;
#1187 = ORIENTED_EDGE ( 'NONE', *, *, #369, .F. ) ;
#1188 = AXIS2_PLACEMENT_3D ( 'NONE', #1170, #433, #339 ) ;
#1189 = DIRECTION ( 'NONE',  ( -0.000000000000000000, -0.000000000000000000, 1.000000000000000000 ) ) ;
ENDSEC;
END-ISO-10303-21;
