ISO-10303-21;
HEADER;
FILE_DESCRIPTION (( 'STEP AP214' ),
    '1' );
FILE_NAME ('leg_long_1.STEP',
    '2026-04-09T02:36:50',
    ( '' ),
    ( '' ),
    'SwSTEP 2.0',
    'SolidWorks 2025',
    '' );
FILE_SCHEMA (( 'AUTOMOTIVE_DESIGN' ));
ENDSEC;

DATA;
#1 =( GEOMETRIC_REPRESENTATION_CONTEXT ( 3 ) GLOBAL_UNCERTAINTY_ASSIGNED_CONTEXT ( ( #1236 ) ) GLOBAL_UNIT_ASSIGNED_CONTEXT ( ( #1355, #258, #815 ) ) REPRESENTATION_CONTEXT ( 'NONE', 'WORKASPACE' ) );
#2 = CARTESIAN_POINT ( 'NONE',  ( -75.00000000000000000, -10.00000000000000178, -13.00000000000000355 ) ) ;
#3 = ORIENTED_EDGE ( 'NONE', *, *, #740, .T. ) ;
#4 = AXIS2_PLACEMENT_3D ( 'NONE', #1306, #1411, #1200 ) ;
#5 = ADVANCED_FACE ( 'NONE', ( #793 ), #1019, .F. ) ;
#6 = FACE_OUTER_BOUND ( 'NONE', #314, .T. ) ;
#7 = VERTEX_POINT ( 'NONE', #1126 ) ;
#8 = ADVANCED_FACE ( 'NONE', ( #816 ), #1027, .T. ) ;
#9 = AXIS2_PLACEMENT_3D ( 'NONE', #610, #404, #1178 ) ;
#10 = LINE ( 'NONE', #1196, #1278 ) ;
#11 = ORIENTED_EDGE ( 'NONE', *, *, #1098, .F. ) ;
#12 = AXIS2_PLACEMENT_3D ( 'NONE', #632, #1383, #77 ) ;
#13 = EDGE_LOOP ( 'NONE', ( #1352, #512 ) ) ;
#14 = ORIENTED_EDGE ( 'NONE', *, *, #1018, .F. ) ;
#15 = EDGE_CURVE ( 'NONE', #932, #61, #1012, .T. ) ;
#16 = LINE ( 'NONE', #1078, #117 ) ;
#17 = ORIENTED_EDGE ( 'NONE', *, *, #1320, .F. ) ;
#18 = AXIS2_PLACEMENT_3D ( 'NONE', #863, #418, #856 ) ;
#19 = CARTESIAN_POINT ( 'NONE',  ( -80.00000000000000000, 13.00000000000000000, 13.00000000000000000 ) ) ;
#20 = ORIENTED_EDGE ( 'NONE', *, *, #884, .F. ) ;
#21 = EDGE_CURVE ( 'NONE', #1387, #1213, #824, .T. ) ;
#22 = LINE ( 'NONE', #1218, #981 ) ;
#23 = ORIENTED_EDGE ( 'NONE', *, *, #1271, .T. ) ;
#24 = CIRCLE ( 'NONE', #483, 3.600000000000005862 ) ;
#25 = DIRECTION ( 'NONE',  ( -0.000000000000000000, -0.000000000000000000, 1.000000000000000000 ) ) ;
#26 = EDGE_LOOP ( 'NONE', ( #753, #1378, #871, #1238 ) ) ;
#27 = ORIENTED_EDGE ( 'NONE', *, *, #153, .T. ) ;
#28 = DIRECTION ( 'NONE',  ( -1.000000000000000000, -0.000000000000000000, 0.000000000000000000 ) ) ;
#29 = AXIS2_PLACEMENT_3D ( 'NONE', #833, #298, #1160 ) ;
#30 = ORIENTED_EDGE ( 'NONE', *, *, #412, .T. ) ;
#31 = DIRECTION ( 'NONE',  ( 1.000000000000000000, 0.000000000000000000, 0.000000000000000000 ) ) ;
#32 = EDGE_LOOP ( 'NONE', ( #562, #1400, #681, #439 ) ) ;
#33 = FACE_BOUND ( 'NONE', #337, .T. ) ;
#34 = ORIENTED_EDGE ( 'NONE', *, *, #311, .F. ) ;
#35 = ADVANCED_FACE ( 'NONE', ( #150 ), #478, .F. ) ;
#36 = CARTESIAN_POINT ( 'NONE',  ( -75.00000000000000000, -10.00000000000000178, 15.00000000000000178 ) ) ;
#37 = ORIENTED_EDGE ( 'NONE', *, *, #1370, .F. ) ;
#38 = EDGE_LOOP ( 'NONE', ( #812, #881, #480, #969 ) ) ;
#39 = VECTOR ( 'NONE', #684, 1000.000000000000000 ) ;
#40 = CARTESIAN_POINT ( 'NONE',  ( 75.00000000000000000, 0.000000000000000000, 0.000000000000000000 ) ) ;
#41 = EDGE_LOOP ( 'NONE', ( #544, #129 ) ) ;
#42 = AXIS2_PLACEMENT_3D ( 'NONE', #340, #1318, #561 ) ;
#43 = VECTOR ( 'NONE', #104, 1000.000000000000000 ) ;
#44 = CARTESIAN_POINT ( 'NONE',  ( -80.00000000000000000, 13.00000000000000000, 5.999999999999999112 ) ) ;
#45 = EDGE_CURVE ( 'NONE', #1375, #63, #358, .T. ) ;
#46 = DIRECTION ( 'NONE',  ( 0.000000000000000000, 1.334402673828313093E-16, -1.000000000000000000 ) ) ;
#47 = CARTESIAN_POINT ( 'NONE',  ( -54.99999999999999289, -10.00000000000001243, -13.00000000000000355 ) ) ;
#48 = VERTEX_POINT ( 'NONE', #1141 ) ;
#49 = DIRECTION ( 'NONE',  ( 1.000000000000000000, 0.000000000000000000, 0.000000000000000000 ) ) ;
#50 = VECTOR ( 'NONE', #1191, 1000.000000000000000 ) ;
#51 = CARTESIAN_POINT ( 'NONE',  ( 110.0000000000000000, -13.00000000000000000, -13.00000000000000355 ) ) ;
#52 = DIRECTION ( 'NONE',  ( 0.000000000000000000, 1.000000000000000000, 0.000000000000000000 ) ) ;
#53 = VERTEX_POINT ( 'NONE', #602 ) ;
#54 = EDGE_CURVE ( 'NONE', #1047, #90, #143, .T. ) ;
#55 = DIRECTION ( 'NONE',  ( -0.000000000000000000, -0.000000000000000000, 1.000000000000000000 ) ) ;
#56 = VERTEX_POINT ( 'NONE', #1265 ) ;
#57 = DIRECTION ( 'NONE',  ( 0.000000000000000000, -1.334402673828313339E-16, 1.000000000000000000 ) ) ;
#58 = CARTESIAN_POINT ( 'NONE',  ( -76.79999999999999716, 9.999999999999998224, -14.99999999999999822 ) ) ;
#59 = FACE_BOUND ( 'NONE', #1007, .T. ) ;
#60 = ORIENTED_EDGE ( 'NONE', *, *, #249, .T. ) ;
#61 = VERTEX_POINT ( 'NONE', #1296 ) ;
#62 = FACE_OUTER_BOUND ( 'NONE', #827, .T. ) ;
#63 = VERTEX_POINT ( 'NONE', #521 ) ;
#64 = DIRECTION ( 'NONE',  ( 0.000000000000000000, -1.000000000000000000, 0.000000000000000000 ) ) ;
#65 = EDGE_CURVE ( 'NONE', #1213, #1004, #1044, .T. ) ;
#66 = CYLINDRICAL_SURFACE ( 'NONE', #959, 1.799999999999996048 ) ;
#67 = CARTESIAN_POINT ( 'NONE',  ( 107.7000000000000028, 1.555301434917139221E-15, -6.000000000000001776 ) ) ;
#68 = FACE_OUTER_BOUND ( 'NONE', #1122, .T. ) ;
#69 = VERTEX_POINT ( 'NONE', #733 ) ;
#70 = LINE ( 'NONE', #173, #132 ) ;
#71 = ORIENTED_EDGE ( 'NONE', *, *, #740, .F. ) ;
#72 = CARTESIAN_POINT ( 'NONE',  ( -54.99999999999999289, -10.00000000000001243, -14.99999999999999822 ) ) ;
#73 = CARTESIAN_POINT ( 'NONE',  ( 110.0000000000000000, 15.00000000000000000, -14.99999999999999822 ) ) ;
#74 = VERTEX_POINT ( 'NONE', #316 ) ;
#75 = CARTESIAN_POINT ( 'NONE',  ( 95.00000000000000000, 0.000000000000000000, 12.99999999999999822 ) ) ;
#76 = DIRECTION ( 'NONE',  ( -0.000000000000000000, -0.000000000000000000, 1.000000000000000000 ) ) ;
#77 = DIRECTION ( 'NONE',  ( 1.000000000000000000, 0.000000000000000000, 0.000000000000000000 ) ) ;
#78 = ORIENTED_EDGE ( 'NONE', *, *, #1347, .F. ) ;
#79 = DIRECTION ( 'NONE',  ( -0.000000000000000000, -0.000000000000000000, 1.000000000000000000 ) ) ;
#80 = EDGE_CURVE ( 'NONE', #1166, #1375, #850, .T. ) ;
#81 = CYLINDRICAL_SURFACE ( 'NONE', #851, 1.799999999999996048 ) ;
#82 = AXIS2_PLACEMENT_3D ( 'NONE', #1057, #397, #701 ) ;
#83 = EDGE_LOOP ( 'NONE', ( #432, #883 ) ) ;
#84 = CARTESIAN_POINT ( 'NONE',  ( -73.20000000000000284, 9.999999999999998224, -13.00000000000000000 ) ) ;
#85 = ADVANCED_FACE ( 'NONE', ( #68 ), #1276, .F. ) ;
#86 = DIRECTION ( 'NONE',  ( 1.000000000000000000, 0.000000000000000000, 0.000000000000000000 ) ) ;
#87 = ORIENTED_EDGE ( 'NONE', *, *, #54, .T. ) ;
#88 = ORIENTED_EDGE ( 'NONE', *, *, #80, .F. ) ;
#89 = CARTESIAN_POINT ( 'NONE',  ( -73.20000000000000284, -10.00000000000000178, 15.00000000000000178 ) ) ;
#90 = VERTEX_POINT ( 'NONE', #437 ) ;
#91 = DIRECTION ( 'NONE',  ( 1.000000000000000000, 0.000000000000000000, 0.000000000000000000 ) ) ;
#92 = CARTESIAN_POINT ( 'NONE',  ( -53.19999999999999574, -10.00000000000001243, -13.00000000000000355 ) ) ;
#93 = ORIENTED_EDGE ( 'NONE', *, *, #1316, .F. ) ;
#94 = CARTESIAN_POINT ( 'NONE',  ( -56.79999999999999005, 9.999999999999968026, 15.00000000000000178 ) ) ;
#95 = DIRECTION ( 'NONE',  ( -0.000000000000000000, -0.000000000000000000, -1.000000000000000000 ) ) ;
#96 = CARTESIAN_POINT ( 'NONE',  ( -54.99999999999999289, 9.999999999999968026, -14.99999999999999822 ) ) ;
#97 = ORIENTED_EDGE ( 'NONE', *, *, #691, .T. ) ;
#98 = PRODUCT_CONTEXT ( 'NONE', #146, 'mechanical' ) ;
#99 = CIRCLE ( 'NONE', #190, 1.799999999999996048 ) ;
#100 = FACE_OUTER_BOUND ( 'NONE', #391, .T. ) ;
#101 = CYLINDRICAL_SURFACE ( 'NONE', #18, 1.799999999999996048 ) ;
#102 = LINE ( 'NONE', #1053, #379 ) ;
#103 = VECTOR ( 'NONE', #130, 1000.000000000000000 ) ;
#104 = DIRECTION ( 'NONE',  ( -0.000000000000000000, -0.000000000000000000, 1.000000000000000000 ) ) ;
#105 = ORIENTED_EDGE ( 'NONE', *, *, #311, .T. ) ;
#106 = ADVANCED_FACE ( 'NONE', ( #857 ), #1157, .F. ) ;
#107 = DIRECTION ( 'NONE',  ( 0.000000000000000000, 0.000000000000000000, -1.000000000000000000 ) ) ;
#108 = PLANE ( 'NONE',  #266 ) ;
#109 = ORIENTED_EDGE ( 'NONE', *, *, #1000, .F. ) ;
#110 = APPLICATION_PROTOCOL_DEFINITION ( 'draft international standard', 'automotive_design', 1998, #146 ) ;
#111 = DIRECTION ( 'NONE',  ( -0.000000000000000000, 1.000000000000000000, 1.334402673828313339E-16 ) ) ;
#112 = EDGE_CURVE ( 'NONE', #955, #1166, #688, .T. ) ;
#113 = EDGE_CURVE ( 'NONE', #776, #621, #411, .T. ) ;
#114 = FACE_BOUND ( 'NONE', #660, .T. ) ;
#115 = AXIS2_PLACEMENT_3D ( 'NONE', #1008, #573, #144 ) ;
#116 = ORIENTED_EDGE ( 'NONE', *, *, #628, .F. ) ;
#117 = VECTOR ( 'NONE', #434, 1000.000000000000000 ) ;
#118 = CIRCLE ( 'NONE', #665, 1.799999999999996048 ) ;
#119 = CARTESIAN_POINT ( 'NONE',  ( -76.79999999999999716, 9.999999999999998224, 13.00000000000000000 ) ) ;
#120 = ORIENTED_EDGE ( 'NONE', *, *, #1381, .T. ) ;
#121 = AXIS2_PLACEMENT_3D ( 'NONE', #392, #79, #1048 ) ;
#122 = DIRECTION ( 'NONE',  ( 0.000000000000000000, 0.000000000000000000, -1.000000000000000000 ) ) ;
#123 = VERTEX_POINT ( 'NONE', #839 ) ;
#124 = EDGE_CURVE ( 'NONE', #590, #159, #1372, .T. ) ;
#125 = CIRCLE ( 'NONE', #1139, 1.799999999999996048 ) ;
#126 = VERTEX_POINT ( 'NONE', #1380 ) ;
#127 = CIRCLE ( 'NONE', #992, 1.799999999999996048 ) ;
#128 = CARTESIAN_POINT ( 'NONE',  ( -54.99999999999999289, 9.999999999999968026, 13.00000000000000000 ) ) ;
#129 = ORIENTED_EDGE ( 'NONE', *, *, #678, .T. ) ;
#130 = DIRECTION ( 'NONE',  ( 1.000000000000000000, 0.000000000000000000, 0.000000000000000000 ) ) ;
#131 = EDGE_CURVE ( 'NONE', #465, #126, #989, .T. ) ;
#132 = VECTOR ( 'NONE', #1135, 1000.000000000000000 ) ;
#133 = ORIENTED_EDGE ( 'NONE', *, *, #625, .F. ) ;
#134 = CARTESIAN_POINT ( 'NONE',  ( -80.00000000000000000, -15.00000000000000178, 15.00000000000000178 ) ) ;
#135 = ORIENTED_EDGE ( 'NONE', *, *, #215, .T. ) ;
#136 = CARTESIAN_POINT ( 'NONE',  ( 75.00000000000000000, 13.00000000000000178, -5.999999999999999112 ) ) ;
#137 =( NAMED_UNIT ( * ) SI_UNIT ( $, .STERADIAN. ) SOLID_ANGLE_UNIT ( ) );
#138 = ORIENTED_EDGE ( 'NONE', *, *, #1271, .F. ) ;
#139 = CARTESIAN_POINT ( 'NONE',  ( 82.29999999999999716, 0.000000000000000000, 8.000000000000037303 ) ) ;
#140 = ORIENTED_EDGE ( 'NONE', *, *, #496, .T. ) ;
#141 = ADVANCED_FACE ( 'NONE', ( #178 ), #529, .F. ) ;
#142 = CYLINDRICAL_SURFACE ( 'NONE', #995, 1.799999999999996048 ) ;
#143 = LINE ( 'NONE', #421, #973 ) ;
#144 = DIRECTION ( 'NONE',  ( 1.000000000000000000, 0.000000000000000000, 0.000000000000000000 ) ) ;
#145 = VERTEX_POINT ( 'NONE', #716 ) ;
#146 = APPLICATION_CONTEXT ( 'automotive_design' ) ;
#147 = ADVANCED_FACE ( 'NONE', ( #831 ), #631, .F. ) ;
#148 = CIRCLE ( 'NONE', #1140, 1.799999999999996048 ) ;
#149 = FACE_BOUND ( 'NONE', #448, .T. ) ;
#150 = FACE_OUTER_BOUND ( 'NONE', #722, .T. ) ;
#151 = FACE_BOUND ( 'NONE', #1364, .T. ) ;
#152 = ORIENTED_EDGE ( 'NONE', *, *, #171, .T. ) ;
#153 = EDGE_CURVE ( 'NONE', #519, #123, #1398, .T. ) ;
#154 = AXIS2_PLACEMENT_3D ( 'NONE', #537, #1264, #838 ) ;
#155 = FACE_BOUND ( 'NONE', #262, .T. ) ;
#156 = DIRECTION ( 'NONE',  ( 0.000000000000000000, -0.000000000000000000, 1.000000000000000000 ) ) ;
#157 = EDGE_CURVE ( 'NONE', #643, #1315, #741, .T. ) ;
#158 = CARTESIAN_POINT ( 'NONE',  ( 75.00000000000000000, 13.00000000000000178, -5.999999999999999112 ) ) ;
#159 = VERTEX_POINT ( 'NONE', #538 ) ;
#160 = CARTESIAN_POINT ( 'NONE',  ( 96.69999999999998863, 8.500000000000000000, 15.00000000000000178 ) ) ;
#161 = SURFACE_STYLE_USAGE ( .BOTH. , #1114 ) ;
#162 = AXIS2_PLACEMENT_3D ( 'NONE', #300, #1360, #727 ) ;
#163 = ADVANCED_FACE ( 'NONE', ( #1186 ), #750, .F. ) ;
#164 = ORIENTED_EDGE ( 'NONE', *, *, #463, .T. ) ;
#165 = CARTESIAN_POINT ( 'NONE',  ( 110.0000000000000000, 13.00000000000000000, 13.00000000000000000 ) ) ;
#166 = ORIENTED_EDGE ( 'NONE', *, *, #678, .F. ) ;
#167 = DIRECTION ( 'NONE',  ( 0.000000000000000000, -1.334402673828313339E-16, 1.000000000000000000 ) ) ;
#168 = AXIS2_PLACEMENT_3D ( 'NONE', #1395, #608, #933 ) ;
#169 = FACE_OUTER_BOUND ( 'NONE', #1286, .T. ) ;
#170 = DIRECTION ( 'NONE',  ( -0.000000000000000000, -1.000000000000000000, -0.000000000000000000 ) ) ;
#171 = EDGE_CURVE ( 'NONE', #484, #596, #102, .T. ) ;
#172 = AXIS2_PLACEMENT_3D ( 'NONE', #683, #265, #156 ) ;
#173 = CARTESIAN_POINT ( 'NONE',  ( -80.00000000000000000, -15.00000000000000178, -14.99999999999999822 ) ) ;
#174 = EDGE_LOOP ( 'NONE', ( #257, #763 ) ) ;
#175 = FACE_OUTER_BOUND ( 'NONE', #896, .T. ) ;
#176 = CARTESIAN_POINT ( 'NONE',  ( 82.29999999999999716, 0.000000000000000000, -14.99999999999999822 ) ) ;
#177 = DIRECTION ( 'NONE',  ( 1.000000000000000000, 0.000000000000000000, 0.000000000000000000 ) ) ;
#178 = FACE_OUTER_BOUND ( 'NONE', #26, .T. ) ;
#179 = ORIENTED_EDGE ( 'NONE', *, *, #553, .F. ) ;
#180 = DIRECTION ( 'NONE',  ( 0.000000000000000000, -1.334402673828313339E-16, 1.000000000000000000 ) ) ;
#181 = ORIENTED_EDGE ( 'NONE', *, *, #1309, .T. ) ;
#182 = DIRECTION ( 'NONE',  ( -0.000000000000000000, -0.000000000000000000, 1.000000000000000000 ) ) ;
#183 = AXIS2_PLACEMENT_3D ( 'NONE', #591, #474, #1344 ) ;
#184 = DIRECTION ( 'NONE',  ( 1.000000000000000000, 0.000000000000000000, 0.000000000000000000 ) ) ;
#185 = ORIENTED_EDGE ( 'NONE', *, *, #717, .F. ) ;
#186 = DIRECTION ( 'NONE',  ( 0.000000000000000000, 1.000000000000000000, 0.000000000000000000 ) ) ;
#187 = CIRCLE ( 'NONE', #1097, 1.699999999999993072 ) ;
#188 = VECTOR ( 'NONE', #1325, 1000.000000000000000 ) ;
#189 = CARTESIAN_POINT ( 'NONE',  ( -80.00000000000000000, 13.00000000000000000, 13.00000000000000000 ) ) ;
#190 = AXIS2_PLACEMENT_3D ( 'NONE', #72, #182, #49 ) ;
#191 = CARTESIAN_POINT ( 'NONE',  ( -76.79999999999999716, 9.999999999999998224, 15.00000000000000178 ) ) ;
#192 = ORIENTED_EDGE ( 'NONE', *, *, #112, .T. ) ;
#193 = CARTESIAN_POINT ( 'NONE',  ( -53.19999999999999574, 9.999999999999968026, 15.00000000000000178 ) ) ;
#194 = CARTESIAN_POINT ( 'NONE',  ( -75.00000000000000000, -10.00000000000000178, 15.00000000000000178 ) ) ;
#195 = EDGE_CURVE ( 'NONE', #48, #1332, #1170, .T. ) ;
#196 = ORIENTED_EDGE ( 'NONE', *, *, #346, .T. ) ;
#197 = CARTESIAN_POINT ( 'NONE',  ( -54.99999999999999289, -10.00000000000001243, 15.00000000000000178 ) ) ;
#198 = DIRECTION ( 'NONE',  ( -0.000000000000000000, -0.000000000000000000, 1.000000000000000000 ) ) ;
#199 = AXIS2_PLACEMENT_3D ( 'NONE', #430, #1064, #86 ) ;
#200 = CARTESIAN_POINT ( 'NONE',  ( -73.20000000000000284, -10.00000000000000178, 12.99999999999999645 ) ) ;
#201 = ORIENTED_EDGE ( 'NONE', *, *, #324, .T. ) ;
#202 = DIRECTION ( 'NONE',  ( 1.000000000000000000, 0.000000000000000000, 0.000000000000000000 ) ) ;
#203 = LINE ( 'NONE', #636, #671 ) ;
#204 = VECTOR ( 'NONE', #487, 1000.000000000000000 ) ;
#205 = ORIENTED_EDGE ( 'NONE', *, *, #1149, .F. ) ;
#206 = DIRECTION ( 'NONE',  ( 0.000000000000000000, 1.000000000000000000, 0.000000000000000000 ) ) ;
#207 = CARTESIAN_POINT ( 'NONE',  ( 95.00000000000000000, 8.500000000000000000, -2.000000000000027978 ) ) ;
#208 = VECTOR ( 'NONE', #1341, 1000.000000000000000 ) ;
#209 = LINE ( 'NONE', #1290, #536 ) ;
#210 = EDGE_LOOP ( 'NONE', ( #116, #11, #1259, #1023 ) ) ;
#211 = CARTESIAN_POINT ( 'NONE',  ( 0.000000000000000000, 0.000000000000000000, 0.000000000000000000 ) ) ;
#212 = CARTESIAN_POINT ( 'NONE',  ( 95.00000000000000000, 8.500000000000000000, 15.00000000000000178 ) ) ;
#213 = CARTESIAN_POINT ( 'NONE',  ( -53.19999999999999574, -10.00000000000001243, 15.00000000000000178 ) ) ;
#214 = CARTESIAN_POINT ( 'NONE',  ( 95.00000000000000000, 0.000000000000000000, -2.000000000000027978 ) ) ;
#215 = EDGE_CURVE ( 'NONE', #930, #484, #127, .T. ) ;
#216 = CARTESIAN_POINT ( 'NONE',  ( -80.00000000000000000, 13.00000000000000000, 13.00000000000000000 ) ) ;
#217 = ORIENTED_EDGE ( 'NONE', *, *, #1061, .F. ) ;
#218 =( GEOMETRIC_REPRESENTATION_CONTEXT ( 3 ) GLOBAL_UNCERTAINTY_ASSIGNED_CONTEXT ( ( #694 ) ) GLOBAL_UNIT_ASSIGNED_CONTEXT ( ( #1077, #229, #137 ) ) REPRESENTATION_CONTEXT ( 'NONE', 'WORKASPACE' ) );
#219 = LINE ( 'NONE', #650, #481 ) ;
#220 = FACE_BOUND ( 'NONE', #901, .T. ) ;
#221 = FACE_BOUND ( 'NONE', #417, .T. ) ;
#222 = AXIS2_PLACEMENT_3D ( 'NONE', #612, #916, #826 ) ;
#223 = ADVANCED_FACE ( 'NONE', ( #1409, #876, #114, #332, #221, #6 ), #108, .F. ) ;
#224 = DIRECTION ( 'NONE',  ( 0.000000000000000000, -1.334402673828313339E-16, 1.000000000000000000 ) ) ;
#225 = ORIENTED_EDGE ( 'NONE', *, *, #450, .T. ) ;
#226 = DIRECTION ( 'NONE',  ( 0.000000000000000000, -1.000000000000000000, 0.000000000000000000 ) ) ;
#227 = CARTESIAN_POINT ( 'NONE',  ( 95.00000000000000000, 0.000000000000000000, -14.99999999999999822 ) ) ;
#228 = VERTEX_POINT ( 'NONE', #338 ) ;
#229 =( NAMED_UNIT ( * ) PLANE_ANGLE_UNIT ( ) SI_UNIT ( $, .RADIAN. ) );
#230 = PLANE ( 'NONE',  #728 ) ;
#231 = EDGE_LOOP ( 'NONE', ( #120, #578, #389, #488 ) ) ;
#232 = EDGE_CURVE ( 'NONE', #921, #574, #1123, .T. ) ;
#233 = LINE ( 'NONE', #663, #879 ) ;
#234 = VECTOR ( 'NONE', #885, 1000.000000000000000 ) ;
#235 = ORIENTED_EDGE ( 'NONE', *, *, #781, .T. ) ;
#236 = CIRCLE ( 'NONE', #1020, 12.70000000000000284 ) ;
#237 = STYLED_ITEM ( 'NONE', ( #927 ), #649 ) ;
#238 = PLANE ( 'NONE',  #305 ) ;
#239 = ORIENTED_EDGE ( 'NONE', *, *, #45, .F. ) ;
#240 = AXIS2_PLACEMENT_3D ( 'NONE', #291, #813, #1144 ) ;
#241 = EDGE_CURVE ( 'NONE', #1274, #1332, #543, .T. ) ;
#242 = CIRCLE ( 'NONE', #1101, 1.799999999999996048 ) ;
#243 = ORIENTED_EDGE ( 'NONE', *, *, #666, .T. ) ;
#244 = LINE ( 'NONE', #1237, #902 ) ;
#245 = ORIENTED_EDGE ( 'NONE', *, *, #1226, .T. ) ;
#246 = ORIENTED_EDGE ( 'NONE', *, *, #359, .F. ) ;
#247 = DIRECTION ( 'NONE',  ( 1.000000000000000000, 0.000000000000000000, 0.000000000000000000 ) ) ;
#248 = ORIENTED_EDGE ( 'NONE', *, *, #717, .T. ) ;
#249 = EDGE_CURVE ( 'NONE', #1410, #711, #443, .T. ) ;
#250 = LINE ( 'NONE', #139, #662 ) ;
#251 = ORIENTED_EDGE ( 'NONE', *, *, #297, .T. ) ;
#252 = CARTESIAN_POINT ( 'NONE',  ( -73.20000000000000284, -10.00000000000000178, 15.00000000000000178 ) ) ;
#253 = VECTOR ( 'NONE', #385, 1000.000000000000000 ) ;
#254 = EDGE_LOOP ( 'NONE', ( #1384, #1321, #1350, #166 ) ) ;
#255 = EDGE_CURVE ( 'NONE', #7, #462, #233, .T. ) ;
#256 = CARTESIAN_POINT ( 'NONE',  ( 98.60000000000000853, 0.000000000000000000, -2.000000000000027978 ) ) ;
#257 = ORIENTED_EDGE ( 'NONE', *, *, #1175, .F. ) ;
#258 =( NAMED_UNIT ( * ) PLANE_ANGLE_UNIT ( ) SI_UNIT ( $, .RADIAN. ) );
#259 = ORIENTED_EDGE ( 'NONE', *, *, #1041, .F. ) ;
#260 = EDGE_CURVE ( 'NONE', #159, #917, #692, .T. ) ;
#261 = DIRECTION ( 'NONE',  ( -0.000000000000000000, -0.000000000000000000, 1.000000000000000000 ) ) ;
#262 = EDGE_LOOP ( 'NONE', ( #1067, #357 ) ) ;
#263 = VECTOR ( 'NONE', #935, 1000.000000000000000 ) ;
#264 = CARTESIAN_POINT ( 'NONE',  ( -76.79999999999999716, 9.999999999999998224, 15.00000000000000178 ) ) ;
#265 = DIRECTION ( 'NONE',  ( -0.000000000000000000, 1.000000000000000000, 0.000000000000000000 ) ) ;
#266 = AXIS2_PLACEMENT_3D ( 'NONE', #548, #449, #769 ) ;
#267 = FACE_BOUND ( 'NONE', #606, .T. ) ;
#268 = ORIENTED_EDGE ( 'NONE', *, *, #897, .T. ) ;
#269 = CYLINDRICAL_SURFACE ( 'NONE', #530, 1.799999999999996048 ) ;
#270 = EDGE_CURVE ( 'NONE', #834, #56, #1192, .T. ) ;
#271 = VECTOR ( 'NONE', #849, 1000.000000000000000 ) ;
#272 = ORIENTED_EDGE ( 'NONE', *, *, #707, .F. ) ;
#273 = CARTESIAN_POINT ( 'NONE',  ( -75.00000000000000000, 9.999999999999998224, 15.00000000000000178 ) ) ;
#274 = EDGE_LOOP ( 'NONE', ( #355, #798 ) ) ;
#275 = DIRECTION ( 'NONE',  ( 1.000000000000000000, 0.000000000000000000, 0.000000000000000000 ) ) ;
#276 = DIRECTION ( 'NONE',  ( -1.000000000000000000, 0.000000000000000000, 0.000000000000000000 ) ) ;
#277 = ADVANCED_FACE ( 'NONE', ( #737 ), #1171, .F. ) ;
#278 = CARTESIAN_POINT ( 'NONE',  ( -80.00000000000000000, -13.00000000000000000, 5.999999999999995559 ) ) ;
#279 = CIRCLE ( 'NONE', #552, 1.699999999999998401 ) ;
#280 = ORIENTED_EDGE ( 'NONE', *, *, #113, .F. ) ;
#281 = DIRECTION ( 'NONE',  ( 1.000000000000000000, 0.000000000000000000, 0.000000000000000000 ) ) ;
#282 = ORIENTED_EDGE ( 'NONE', *, *, #604, .F. ) ;
#283 = DIRECTION ( 'NONE',  ( -0.000000000000000000, -0.000000000000000000, -1.000000000000000000 ) ) ;
#284 = VECTOR ( 'NONE', #424, 1000.000000000000000 ) ;
#285 = FACE_BOUND ( 'NONE', #274, .T. ) ;
#286 = CARTESIAN_POINT ( 'NONE',  ( 93.30000000000001137, -8.500000000000000000, -2.000000000000027978 ) ) ;
#287 = DIRECTION ( 'NONE',  ( 1.000000000000000000, 0.000000000000000000, 0.000000000000000000 ) ) ;
#288 = AXIS2_PLACEMENT_3D ( 'NONE', #498, #381, #800 ) ;
#289 = FACE_OUTER_BOUND ( 'NONE', #565, .T. ) ;
#290 = ORIENTED_EDGE ( 'NONE', *, *, #802, .T. ) ;
#291 = CARTESIAN_POINT ( 'NONE',  ( 95.00000000000000000, 0.000000000000000000, -6.000000000000001776 ) ) ;
#292 = DIRECTION ( 'NONE',  ( 1.000000000000000000, 0.000000000000000000, 0.000000000000000000 ) ) ;
#293 = CARTESIAN_POINT ( 'NONE',  ( 96.69999999999998863, -8.500000000000000000, 12.99999999999999645 ) ) ;
#294 = DIRECTION ( 'NONE',  ( 1.000000000000000000, 0.000000000000000000, 0.000000000000000000 ) ) ;
#295 = ORIENTED_EDGE ( 'NONE', *, *, #691, .F. ) ;
#296 = VERTEX_POINT ( 'NONE', #191 ) ;
#297 = EDGE_CURVE ( 'NONE', #1246, #834, #1150, .T. ) ;
#298 = DIRECTION ( 'NONE',  ( -0.000000000000000000, -0.000000000000000000, 1.000000000000000000 ) ) ;
#299 = ORIENTED_EDGE ( 'NONE', *, *, #869, .F. ) ;
#300 = CARTESIAN_POINT ( 'NONE',  ( -54.99999999999999289, -10.00000000000001243, 15.00000000000000178 ) ) ;
#301 = AXIS2_PLACEMENT_3D ( 'NONE', #441, #868, #336 ) ;
#302 = DIRECTION ( 'NONE',  ( 1.000000000000000000, 0.000000000000000000, 0.000000000000000000 ) ) ;
#303 = ORIENTED_EDGE ( 'NONE', *, *, #232, .T. ) ;
#304 = DIRECTION ( 'NONE',  ( 1.000000000000000000, 0.000000000000000000, 0.000000000000000000 ) ) ;
#305 = AXIS2_PLACEMENT_3D ( 'NONE', #754, #226, #1293 ) ;
#306 = CIRCLE ( 'NONE', #372, 1.799999999999996048 ) ;
#307 = DIRECTION ( 'NONE',  ( 1.000000000000000000, 0.000000000000000000, 0.000000000000000000 ) ) ;
#308 = ORIENTED_EDGE ( 'NONE', *, *, #806, .T. ) ;
#309 = CARTESIAN_POINT ( 'NONE',  ( -80.00000000000000000, -13.00000000000000000, -6.000000000000002665 ) ) ;
#310 = ORIENTED_EDGE ( 'NONE', *, *, #331, .F. ) ;
#311 = EDGE_CURVE ( 'NONE', #734, #69, #1179, .T. ) ;
#312 = CARTESIAN_POINT ( 'NONE',  ( 110.0000000000000000, -13.00000000000000000, 5.999999999999995559 ) ) ;
#313 = AXIS2_PLACEMENT_3D ( 'NONE', #408, #705, #184 ) ;
#314 = EDGE_LOOP ( 'NONE', ( #1176, #1359, #1199, #1118 ) ) ;
#315 = CARTESIAN_POINT ( 'NONE',  ( -80.00000000000000000, -13.00000000000000000, -13.00000000000000355 ) ) ;
#316 = CARTESIAN_POINT ( 'NONE',  ( 98.60000000000000853, 0.000000000000000000, 12.99999999999999822 ) ) ;
#317 = AXIS2_PLACEMENT_3D ( 'NONE', #514, #972, #505 ) ;
#318 = ORIENTED_EDGE ( 'NONE', *, *, #255, .F. ) ;
#319 = CARTESIAN_POINT ( 'NONE',  ( -73.20000000000000284, 9.999999999999998224, 15.00000000000000178 ) ) ;
#320 = ORIENTED_EDGE ( 'NONE', *, *, #751, .T. ) ;
#321 = LINE ( 'NONE', #433, #820 ) ;
#322 = CARTESIAN_POINT ( 'NONE',  ( -54.99999999999999289, -10.00000000000001243, 12.99999999999999645 ) ) ;
#323 = AXIS2_PLACEMENT_3D ( 'NONE', #1313, #756, #1204 ) ;
#324 = EDGE_CURVE ( 'NONE', #1004, #1188, #70, .T. ) ;
#325 = CARTESIAN_POINT ( 'NONE',  ( -75.00000000000000000, 9.999999999999998224, 15.00000000000000178 ) ) ;
#326 = DIRECTION ( 'NONE',  ( 0.000000000000000000, 0.000000000000000000, -1.000000000000000000 ) ) ;
#327 = CARTESIAN_POINT ( 'NONE',  ( -54.99999999999999289, 9.999999999999968026, 13.00000000000000000 ) ) ;
#328 = VERTEX_POINT ( 'NONE', #200 ) ;
#329 = CARTESIAN_POINT ( 'NONE',  ( 110.0000000000000000, 0.000000000000000000, 0.000000000000000000 ) ) ;
#330 = DIRECTION ( 'NONE',  ( 0.000000000000000000, 0.000000000000000000, 1.000000000000000000 ) ) ;
#331 = EDGE_CURVE ( 'NONE', #328, #472, #1241, .T. ) ;
#332 = FACE_BOUND ( 'NONE', #83, .T. ) ;
#333 = CARTESIAN_POINT ( 'NONE',  ( 107.7000000000000028, 1.555301434917139616E-15, -13.00000000000000355 ) ) ;
#334 = ORIENTED_EDGE ( 'NONE', *, *, #1098, .T. ) ;
#335 = DIRECTION ( 'NONE',  ( 0.000000000000000000, 0.000000000000000000, 1.000000000000000000 ) ) ;
#336 = DIRECTION ( 'NONE',  ( 0.000000000000000000, -1.000000000000000000, 0.000000000000000000 ) ) ;
#337 = EDGE_LOOP ( 'NONE', ( #1161, #690 ) ) ;
#338 = CARTESIAN_POINT ( 'NONE',  ( -73.20000000000000284, 9.999999999999998224, 13.00000000000000000 ) ) ;
#339 = ORIENTED_EDGE ( 'NONE', *, *, #15, .F. ) ;
#340 = CARTESIAN_POINT ( 'NONE',  ( -54.99999999999999289, -10.00000000000001243, 15.00000000000000178 ) ) ;
#341 = EDGE_LOOP ( 'NONE', ( #818, #975 ) ) ;
#342 = AXIS2_PLACEMENT_3D ( 'NONE', #47, #817, #383 ) ;
#343 = DIRECTION ( 'NONE',  ( 0.000000000000000000, -1.334402673828313339E-16, 1.000000000000000000 ) ) ;
#344 = EDGE_LOOP ( 'NONE', ( #349, #152, #603, #942 ) ) ;
#345 = AXIS2_PLACEMENT_3D ( 'NONE', #44, #619, #743 ) ;
#346 = EDGE_CURVE ( 'NONE', #1342, #852, #635, .T. ) ;
#347 = CARTESIAN_POINT ( 'NONE',  ( 75.00000000000000000, -13.00000000000000000, -6.000000000000002665 ) ) ;
#348 = ORIENTED_EDGE ( 'NONE', *, *, #1185, .F. ) ;
#349 = ORIENTED_EDGE ( 'NONE', *, *, #1050, .F. ) ;
#350 = CARTESIAN_POINT ( 'NONE',  ( -53.19999999999999574, 9.999999999999968026, -14.99999999999999822 ) ) ;
#351 = ORIENTED_EDGE ( 'NONE', *, *, #467, .T. ) ;
#352 = CIRCLE ( 'NONE', #121, 1.799999999999996048 ) ;
#353 = CARTESIAN_POINT ( 'NONE',  ( -75.00000000000000000, -10.00000000000000178, 15.00000000000000178 ) ) ;
#354 = VECTOR ( 'NONE', #638, 1000.000000000000000 ) ;
#355 = ORIENTED_EDGE ( 'NONE', *, *, #1000, .T. ) ;
#356 = CARTESIAN_POINT ( 'NONE',  ( 95.00000000000000000, 8.500000000000000000, -2.000000000000027978 ) ) ;
#357 = ORIENTED_EDGE ( 'NONE', *, *, #707, .T. ) ;
#358 = CIRCLE ( 'NONE', #539, 1.799999999999996048 ) ;
#359 = EDGE_CURVE ( 'NONE', #955, #63, #597, .T. ) ;
#360 = CARTESIAN_POINT ( 'NONE',  ( 82.29999999999999716, 0.000000000000000000, 8.000000000000037303 ) ) ;
#361 = VERTEX_POINT ( 'NONE', #165 ) ;
#362 = DIRECTION ( 'NONE',  ( -0.000000000000000000, -0.000000000000000000, -1.000000000000000000 ) ) ;
#363 = ORIENTED_EDGE ( 'NONE', *, *, #1208, .T. ) ;
#364 = DIRECTION ( 'NONE',  ( -0.000000000000000000, -0.000000000000000000, 1.000000000000000000 ) ) ;
#365 = EDGE_CURVE ( 'NONE', #1062, #905, #1106, .T. ) ;
#366 = AXIS2_PLACEMENT_3D ( 'NONE', #356, #689, #680 ) ;
#367 = ORIENTED_EDGE ( 'NONE', *, *, #1408, .T. ) ;
#368 = VERTEX_POINT ( 'NONE', #1351 ) ;
#369 = FACE_OUTER_BOUND ( 'NONE', #790, .T. ) ;
#370 = ORIENTED_EDGE ( 'NONE', *, *, #1404, .F. ) ;
#371 = CIRCLE ( 'NONE', #419, 1.799999999999996048 ) ;
#372 = AXIS2_PLACEMENT_3D ( 'NONE', #431, #1083, #540 ) ;
#373 = EDGE_CURVE ( 'NONE', #61, #1129, #515, .T. ) ;
#374 = CIRCLE ( 'NONE', #240, 12.70000000000000462 ) ;
#375 = ORIENTED_EDGE ( 'NONE', *, *, #1082, .F. ) ;
#376 = ADVANCED_FACE ( 'NONE', ( #842 ), #937, .F. ) ;
#377 = CARTESIAN_POINT ( 'NONE',  ( -80.00000000000000000, 13.00000000000000000, 13.00000000000000000 ) ) ;
#378 = ORIENTED_EDGE ( 'NONE', *, *, #1240, .F. ) ;
#379 = VECTOR ( 'NONE', #76, 1000.000000000000000 ) ;
#380 = DIRECTION ( 'NONE',  ( -0.000000000000000000, -0.000000000000000000, 1.000000000000000000 ) ) ;
#381 = DIRECTION ( 'NONE',  ( 0.000000000000000000, -1.000000000000000000, 0.000000000000000000 ) ) ;
#382 = AXIS2_PLACEMENT_3D ( 'NONE', #811, #1037, #281 ) ;
#383 = DIRECTION ( 'NONE',  ( 0.000000000000000000, 1.000000000000000000, 0.000000000000000000 ) ) ;
#384 = ORIENTED_EDGE ( 'NONE', *, *, #814, .F. ) ;
#385 = DIRECTION ( 'NONE',  ( 1.000000000000000000, 0.000000000000000000, 0.000000000000000000 ) ) ;
#386 = EDGE_CURVE ( 'NONE', #574, #921, #1195, .T. ) ;
#387 = DIRECTION ( 'NONE',  ( 1.000000000000000000, 0.000000000000000000, 0.000000000000000000 ) ) ;
#388 = ORIENTED_EDGE ( 'NONE', *, *, #477, .F. ) ;
#389 = ORIENTED_EDGE ( 'NONE', *, *, #373, .T. ) ;
#390 = CARTESIAN_POINT ( 'NONE',  ( 110.0000000000000000, -15.00000000000000178, 15.00000000000000178 ) ) ;
#391 = EDGE_LOOP ( 'NONE', ( #348, #914, #60, #1217 ) ) ;
#392 = CARTESIAN_POINT ( 'NONE',  ( -54.99999999999999289, -10.00000000000001243, -14.99999999999999822 ) ) ;
#393 = DIRECTION ( 'NONE',  ( 1.000000000000000000, 0.000000000000000000, 0.000000000000000000 ) ) ;
#394 = AXIS2_PLACEMENT_3D ( 'NONE', #211, #860, #91 ) ;
#395 = ORIENTED_EDGE ( 'NONE', *, *, #496, .F. ) ;
#396 = ADVANCED_FACE ( 'NONE', ( #62 ), #499, .F. ) ;
#397 = DIRECTION ( 'NONE',  ( 0.000000000000000000, -1.334402673828313339E-16, 1.000000000000000000 ) ) ;
#398 = EDGE_LOOP ( 'NONE', ( #951, #3, #637, #1291 ) ) ;
#399 = DIRECTION ( 'NONE',  ( 0.000000000000000000, 1.000000000000000000, 0.000000000000000000 ) ) ;
#400 = VECTOR ( 'NONE', #922, 1000.000000000000000 ) ;
#401 = DIRECTION ( 'NONE',  ( 1.000000000000000000, 0.000000000000000000, 0.000000000000000000 ) ) ;
#402 = DIRECTION ( 'NONE',  ( 0.000000000000000000, -1.334402673828313093E-16, 1.000000000000000000 ) ) ;
#403 = EDGE_CURVE ( 'NONE', #1051, #711, #405, .T. ) ;
#404 = DIRECTION ( 'NONE',  ( 0.000000000000000000, 1.334402673828313339E-16, -1.000000000000000000 ) ) ;
#405 = LINE ( 'NONE', #309, #582 ) ;
#406 = ORIENTED_EDGE ( 'NONE', *, *, #241, .F. ) ;
#407 = LINE ( 'NONE', #1376, #253 ) ;
#408 = CARTESIAN_POINT ( 'NONE',  ( -75.00000000000000000, -10.00000000000000178, -14.99999999999999822 ) ) ;
#409 = ORIENTED_EDGE ( 'NONE', *, *, #1362, .T. ) ;
#410 = CARTESIAN_POINT ( 'NONE',  ( 82.29999999999999716, -2.314819644696197343E-31, -6.000000000000001776 ) ) ;
#411 = LINE ( 'NONE', #744, #263 ) ;
#412 = EDGE_CURVE ( 'NONE', #711, #621, #1030, .T. ) ;
#413 = CARTESIAN_POINT ( 'NONE',  ( 95.00000000000000000, -8.500000000000000000, 12.99999999999999645 ) ) ;
#414 = ORIENTED_EDGE ( 'NONE', *, *, #54, .F. ) ;
#415 = DIRECTION ( 'NONE',  ( 1.000000000000000000, 0.000000000000000000, 0.000000000000000000 ) ) ;
#416 = PRODUCT_DEFINITION ( 'UNKNOWN', '', #1365, #1055 ) ;
#417 = EDGE_LOOP ( 'NONE', ( #1009, #1035 ) ) ;
#418 = DIRECTION ( 'NONE',  ( -0.000000000000000000, -0.000000000000000000, 1.000000000000000000 ) ) ;
#419 = AXIS2_PLACEMENT_3D ( 'NONE', #322, #452, #748 ) ;
#420 = PRESENTATION_LAYER_ASSIGNMENT (  '', '', ( #237 ) ) ;
#421 = CARTESIAN_POINT ( 'NONE',  ( -76.79999999999999716, -10.00000000000000178, 15.00000000000000178 ) ) ;
#422 = AXIS2_PLACEMENT_3D ( 'NONE', #1130, #918, #275 ) ;
#423 = ORIENTED_EDGE ( 'NONE', *, *, #764, .F. ) ;
#424 = DIRECTION ( 'NONE',  ( -0.000000000000000000, 1.000000000000000000, 1.334402673828313093E-16 ) ) ;
#425 = VERTEX_POINT ( 'NONE', #1358 ) ;
#426 = ADVANCED_FACE ( 'NONE', ( #1142 ), #605, .F. ) ;
#427 = DIRECTION ( 'NONE',  ( -0.000000000000000000, -0.000000000000000000, 1.000000000000000000 ) ) ;
#428 = CIRCLE ( 'NONE', #780, 1.799999999999996048 ) ;
#429 = CARTESIAN_POINT ( 'NONE',  ( -75.00000000000000000, 9.999999999999998224, -13.00000000000000000 ) ) ;
#430 = CARTESIAN_POINT ( 'NONE',  ( 95.00000000000000000, 0.000000000000000000, 15.00000000000000178 ) ) ;
#431 = CARTESIAN_POINT ( 'NONE',  ( -75.00000000000000000, -10.00000000000000178, 12.99999999999999645 ) ) ;
#432 = ORIENTED_EDGE ( 'NONE', *, *, #1258, .T. ) ;
#433 = CARTESIAN_POINT ( 'NONE',  ( 96.69999999999998863, -8.500000000000000000, -2.000000000000027978 ) ) ;
#434 = DIRECTION ( 'NONE',  ( 0.000000000000000000, -1.000000000000000000, -1.334402673828313339E-16 ) ) ;
#435 = ADVANCED_FACE ( 'NONE', ( #289 ), #718, .F. ) ;
#436 = LINE ( 'NONE', #1379, #1127 ) ;
#437 = CARTESIAN_POINT ( 'NONE',  ( -76.79999999999999716, -10.00000000000000178, -13.00000000000000355 ) ) ;
#438 = CARTESIAN_POINT ( 'NONE',  ( -80.00000000000000000, 13.00000000000000178, -5.999999999999999112 ) ) ;
#439 = ORIENTED_EDGE ( 'NONE', *, *, #21, .T. ) ;
#440 = CARTESIAN_POINT ( 'NONE',  ( -80.00000000000000000, 15.00000000000000000, 15.00000000000000178 ) ) ;
#441 = CARTESIAN_POINT ( 'NONE',  ( -75.00000000000000000, 9.999999999999998224, 13.00000000000000000 ) ) ;
#442 = VECTOR ( 'NONE', #468, 1000.000000000000000 ) ;
#443 = LINE ( 'NONE', #1087, #563 ) ;
#444 = VECTOR ( 'NONE', #642, 1000.000000000000000 ) ;
#445 = ORIENTED_EDGE ( 'NONE', *, *, #157, .T. ) ;
#446 = ADVANCED_BREP_SHAPE_REPRESENTATION ( 'leg_long_1', ( #649, #394 ), #218 ) ;
#447 = FACE_OUTER_BOUND ( 'NONE', #453, .T. ) ;
#448 = EDGE_LOOP ( 'NONE', ( #1029, #1169 ) ) ;
#449 = DIRECTION ( 'NONE',  ( 0.000000000000000000, 1.334402673828313093E-16, -1.000000000000000000 ) ) ;
#450 = EDGE_CURVE ( 'NONE', #905, #1062, #1328, .T. ) ;
#451 = ORIENTED_EDGE ( 'NONE', *, *, #1404, .T. ) ;
#452 = DIRECTION ( 'NONE',  ( 0.000000000000000000, -1.334402673828313339E-16, 1.000000000000000000 ) ) ;
#453 = EDGE_LOOP ( 'NONE', ( #243, #251, #133, #592, #1356, #30, #280, #205 ) ) ;
#454 = VECTOR ( 'NONE', #622, 1000.000000000000000 ) ;
#455 = EDGE_LOOP ( 'NONE', ( #423, #23, #445, #1108 ) ) ;
#456 = CIRCLE ( 'NONE', #639, 12.70000000000000462 ) ;
#457 = DIRECTION ( 'NONE',  ( 0.000000000000000000, 0.000000000000000000, 1.000000000000000000 ) ) ;
#458 = ORIENTED_EDGE ( 'NONE', *, *, #486, .T. ) ;
#459 = DIRECTION ( 'NONE',  ( -0.000000000000000000, -0.000000000000000000, 1.000000000000000000 ) ) ;
#460 = VERTEX_POINT ( 'NONE', #89 ) ;
#461 = LINE ( 'NONE', #158, #442 ) ;
#462 = VERTEX_POINT ( 'NONE', #136 ) ;
#463 = EDGE_CURVE ( 'NONE', #702, #738, #965, .T. ) ;
#464 = CARTESIAN_POINT ( 'NONE',  ( -80.00000000000000000, 13.00000000000000178, -13.00000000000000000 ) ) ;
#465 = VERTEX_POINT ( 'NONE', #1090 ) ;
#466 = AXIS2_PLACEMENT_3D ( 'NONE', #1281, #1252, #1245 ) ;
#467 = EDGE_CURVE ( 'NONE', #460, #1310, #709, .T. ) ;
#468 = DIRECTION ( 'NONE',  ( 0.000000000000000000, -1.000000000000000000, -1.334402673828313093E-16 ) ) ;
#469 = ORIENTED_EDGE ( 'NONE', *, *, #249, .F. ) ;
#470 = ADVANCED_FACE ( 'NONE', ( #1180 ), #570, .F. ) ;
#471 = LINE ( 'NONE', #476, #208 ) ;
#472 = VERTEX_POINT ( 'NONE', #745 ) ;
#473 = EDGE_CURVE ( 'NONE', #768, #368, #148, .T. ) ;
#474 = DIRECTION ( 'NONE',  ( -0.000000000000000000, -0.000000000000000000, 1.000000000000000000 ) ) ;
#475 = ORIENTED_EDGE ( 'NONE', *, *, #1131, .F. ) ;
#476 = CARTESIAN_POINT ( 'NONE',  ( -80.00000000000000000, -13.00000000000000000, 12.99999999999999645 ) ) ;
#477 = EDGE_CURVE ( 'NONE', #1253, #1062, #209, .T. ) ;
#478 = PLANE ( 'NONE',  #172 ) ;
#479 = FACE_BOUND ( 'NONE', #1222, .T. ) ;
#480 = ORIENTED_EDGE ( 'NONE', *, *, #1214, .T. ) ;
#481 = VECTOR ( 'NONE', #107, 1000.000000000000000 ) ;
#482 = COLOUR_RGB ( '',0.7921568627450980005, 0.8196078431372548767, 0.9333333333333333481 ) ;
#483 = AXIS2_PLACEMENT_3D ( 'NONE', #844, #335, #202 ) ;
#484 = VERTEX_POINT ( 'NONE', #1001 ) ;
#485 = CIRCLE ( 'NONE', #1288, 1.799999999999996048 ) ;
#486 = EDGE_CURVE ( 'NONE', #1014, #731, #758, .T. ) ;
#487 = DIRECTION ( 'NONE',  ( -0.000000000000000000, -1.000000000000000000, -0.000000000000000000 ) ) ;
#488 = ORIENTED_EDGE ( 'NONE', *, *, #1074, .T. ) ;
#489 = CARTESIAN_POINT ( 'NONE',  ( -53.19999999999999574, -10.00000000000001243, 15.00000000000000178 ) ) ;
#490 = LINE ( 'NONE', #792, #550 ) ;
#491 = ORIENTED_EDGE ( 'NONE', *, *, #1381, .F. ) ;
#492 = CARTESIAN_POINT ( 'NONE',  ( 110.0000000000000000, -13.00000000000000000, -13.00000000000000355 ) ) ;
#493 = EDGE_LOOP ( 'NONE', ( #370, #670 ) ) ;
#494 = DIRECTION ( 'NONE',  ( 0.000000000000000000, 1.000000000000000000, 0.000000000000000000 ) ) ;
#495 = DIRECTION ( 'NONE',  ( -0.000000000000000000, -0.000000000000000000, 1.000000000000000000 ) ) ;
#496 = EDGE_CURVE ( 'NONE', #328, #460, #893, .T. ) ;
#497 = LINE ( 'NONE', #595, #1340 ) ;
#498 = CARTESIAN_POINT ( 'NONE',  ( -80.00000000000000000, -15.00000000000000178, 15.00000000000000178 ) ) ;
#499 = CYLINDRICAL_SURFACE ( 'NONE', #1197, 1.799999999999996048 ) ;
#500 = ORIENTED_EDGE ( 'NONE', *, *, #531, .F. ) ;
#501 = CARTESIAN_POINT ( 'NONE',  ( -76.79999999999999716, 9.999999999999998224, -13.00000000000000000 ) ) ;
#502 = FACE_OUTER_BOUND ( 'NONE', #1211, .T. ) ;
#503 = EDGE_CURVE ( 'NONE', #465, #693, #647, .T. ) ;
#504 = DIRECTION ( 'NONE',  ( -0.000000000000000000, -0.000000000000000000, 1.000000000000000000 ) ) ;
#505 = DIRECTION ( 'NONE',  ( 1.000000000000000000, 0.000000000000000000, 0.000000000000000000 ) ) ;
#506 = CARTESIAN_POINT ( 'NONE',  ( -56.79999999999999005, 9.999999999999968026, 15.00000000000000178 ) ) ;
#507 = ORIENTED_EDGE ( 'NONE', *, *, #1074, .F. ) ;
#508 = CARTESIAN_POINT ( 'NONE',  ( 96.69999999999998863, 8.500000000000000000, 13.00000000000000000 ) ) ;
#509 = FACE_OUTER_BOUND ( 'NONE', #344, .T. ) ;
#510 = VECTOR ( 'NONE', #95, 1000.000000000000000 ) ;
#511 = EDGE_CURVE ( 'NONE', #621, #731, #787, .T. ) ;
#512 = ORIENTED_EDGE ( 'NONE', *, *, #1284, .T. ) ;
#513 = DIRECTION ( 'NONE',  ( 0.000000000000000000, -1.000000000000000000, 0.000000000000000000 ) ) ;
#514 = CARTESIAN_POINT ( 'NONE',  ( -75.00000000000000000, -10.00000000000000178, 15.00000000000000178 ) ) ;
#515 = LINE ( 'NONE', #390, #204 ) ;
#516 = ORIENTED_EDGE ( 'NONE', *, *, #558, .F. ) ;
#517 = CARTESIAN_POINT ( 'NONE',  ( 98.60000000000000853, 0.000000000000000000, 15.00000000000000178 ) ) ;
#518 = FACE_BOUND ( 'NONE', #1391, .T. ) ;
#519 = VERTEX_POINT ( 'NONE', #19 ) ;
#520 = DIRECTION ( 'NONE',  ( 0.000000000000000000, -1.334402673828313339E-16, 1.000000000000000000 ) ) ;
#521 = CARTESIAN_POINT ( 'NONE',  ( -56.79999999999999005, 9.999999999999968026, -13.00000000000000000 ) ) ;
#522 = EDGE_CURVE ( 'NONE', #804, #596, #617, .T. ) ;
#523 = ORIENTED_EDGE ( 'NONE', *, *, #547, .F. ) ;
#524 = CARTESIAN_POINT ( 'NONE',  ( -54.99999999999999289, -10.00000000000001243, 15.00000000000000178 ) ) ;
#525 = ORIENTED_EDGE ( 'NONE', *, *, #572, .T. ) ;
#526 = DIRECTION ( 'NONE',  ( 0.000000000000000000, -1.334402673828313339E-16, 1.000000000000000000 ) ) ;
#527 = EDGE_LOOP ( 'NONE', ( #1203, #248, #947, #1261 ) ) ;
#528 = CARTESIAN_POINT ( 'NONE',  ( 110.0000000000000000, -13.00000000000000000, -6.000000000000002665 ) ) ;
#529 = CYLINDRICAL_SURFACE ( 'NONE', #1056, 1.699999999999993072 ) ;
#530 = AXIS2_PLACEMENT_3D ( 'NONE', #1254, #1270, #948 ) ;
#531 = EDGE_CURVE ( 'NONE', #228, #425, #1075, .T. ) ;
#532 = DIRECTION ( 'NONE',  ( -0.000000000000000000, -0.000000000000000000, 1.000000000000000000 ) ) ;
#533 = ORIENTED_EDGE ( 'NONE', *, *, #324, .F. ) ;
#534 = DIRECTION ( 'NONE',  ( 0.000000000000000000, -1.334402673828313339E-16, 1.000000000000000000 ) ) ;
#535 = AXIS2_PLACEMENT_3D ( 'NONE', #194, #495, #729 ) ;
#536 = VECTOR ( 'NONE', #25, 1000.000000000000000 ) ;
#537 = CARTESIAN_POINT ( 'NONE',  ( 95.00000000000000000, -8.500000000000000000, 15.00000000000000178 ) ) ;
#538 = CARTESIAN_POINT ( 'NONE',  ( 107.7000000000000028, 1.555301434917139419E-15, -14.99999999999999822 ) ) ;
#539 = AXIS2_PLACEMENT_3D ( 'NONE', #928, #46, #52 ) ;
#540 = DIRECTION ( 'NONE',  ( 0.000000000000000000, -1.000000000000000000, 0.000000000000000000 ) ) ;
#541 = EDGE_LOOP ( 'NONE', ( #105, #409 ) ) ;
#542 = FACE_BOUND ( 'NONE', #788, .T. ) ;
#543 = LINE ( 'NONE', #761, #1065 ) ;
#544 = ORIENTED_EDGE ( 'NONE', *, *, #1316, .T. ) ;
#545 = CARTESIAN_POINT ( 'NONE',  ( -56.79999999999999005, -10.00000000000001243, -13.00000000000000355 ) ) ;
#546 = CIRCLE ( 'NONE', #115, 1.799999999999996048 ) ;
#547 = EDGE_CURVE ( 'NONE', #1166, #955, #118, .T. ) ;
#548 = CARTESIAN_POINT ( 'NONE',  ( -80.00000000000000000, 13.00000000000000178, -13.00000000000000000 ) ) ;
#549 = AXIS2_PLACEMENT_3D ( 'NONE', #2, #977, #1407 ) ;
#550 = VECTOR ( 'NONE', #583, 1000.000000000000000 ) ;
#551 = ORIENTED_EDGE ( 'NONE', *, *, #359, .T. ) ;
#552 = AXIS2_PLACEMENT_3D ( 'NONE', #1137, #167, #599 ) ;
#553 = EDGE_CURVE ( 'NONE', #472, #328, #306, .T. ) ;
#554 = DIRECTION ( 'NONE',  ( 0.000000000000000000, -1.000000000000000000, -1.334402673828313093E-16 ) ) ;
#555 = ORIENTED_EDGE ( 'NONE', *, *, #255, .T. ) ;
#556 = EDGE_LOOP ( 'NONE', ( #1155, #551, #239, #88 ) ) ;
#557 = VECTOR ( 'NONE', #330, 1000.000000000000000 ) ;
#558 = EDGE_CURVE ( 'NONE', #1014, #519, #752, .T. ) ;
#559 = AXIS2_PLACEMENT_3D ( 'NONE', #985, #870, #1308 ) ;
#560 = ORIENTED_EDGE ( 'NONE', *, *, #1370, .T. ) ;
#561 = DIRECTION ( 'NONE',  ( 1.000000000000000000, 0.000000000000000000, 0.000000000000000000 ) ) ;
#562 = ORIENTED_EDGE ( 'NONE', *, *, #1240, .T. ) ;
#563 = VECTOR ( 'NONE', #1099, 1000.000000000000000 ) ;
#564 = DIRECTION ( 'NONE',  ( -0.000000000000000000, -0.000000000000000000, -1.000000000000000000 ) ) ;
#565 = EDGE_LOOP ( 'NONE', ( #185, #109, #181, #303 ) ) ;
#566 = EDGE_CURVE ( 'NONE', #746, #48, #1193, .T. ) ;
#567 = CIRCLE ( 'NONE', #770, 12.70000000000000462 ) ;
#568 = DIRECTION ( 'NONE',  ( 0.000000000000000000, 0.000000000000000000, 1.000000000000000000 ) ) ;
#569 = ORIENTED_EDGE ( 'NONE', *, *, #1294, .F. ) ;
#570 = CYLINDRICAL_SURFACE ( 'NONE', #941, 12.70000000000000284 ) ;
#571 = ORIENTED_EDGE ( 'NONE', *, *, #904, .T. ) ;
#572 = EDGE_CURVE ( 'NONE', #1342, #771, #974, .T. ) ;
#573 = DIRECTION ( 'NONE',  ( -0.000000000000000000, -0.000000000000000000, 1.000000000000000000 ) ) ;
#574 = VERTEX_POINT ( 'NONE', #1405 ) ;
#575 = AXIS2_PLACEMENT_3D ( 'NONE', #939, #1353, #703 ) ;
#576 = PRODUCT_RELATED_PRODUCT_CATEGORY ( 'part', '', ( #970 ) ) ;
#577 = DIRECTION ( 'NONE',  ( -0.000000000000000000, -0.000000000000000000, 1.000000000000000000 ) ) ;
#578 = ORIENTED_EDGE ( 'NONE', *, *, #15, .T. ) ;
#579 = AXIS2_PLACEMENT_3D ( 'NONE', #353, #1399, #247 ) ;
#580 = CARTESIAN_POINT ( 'NONE',  ( 96.69999999999998863, -8.500000000000000000, 15.00000000000000178 ) ) ;
#581 = ORIENTED_EDGE ( 'NONE', *, *, #1330, .F. ) ;
#582 = VECTOR ( 'NONE', #1374, 1000.000000000000000 ) ;
#583 = DIRECTION ( 'NONE',  ( -0.000000000000000000, -0.000000000000000000, 1.000000000000000000 ) ) ;
#584 = ORIENTED_EDGE ( 'NONE', *, *, #781, .F. ) ;
#585 = AXIS2_PLACEMENT_3D ( 'NONE', #723, #520, #971 ) ;
#586 = FACE_BOUND ( 'NONE', #493, .T. ) ;
#587 = EDGE_LOOP ( 'NONE', ( #571, #339, #1133, #877 ) ) ;
#588 = EDGE_CURVE ( 'NONE', #462, #1410, #1215, .T. ) ;
#589 = FACE_OUTER_BOUND ( 'NONE', #1071, .T. ) ;
#590 = VERTEX_POINT ( 'NONE', #333 ) ;
#591 = CARTESIAN_POINT ( 'NONE',  ( -75.00000000000000000, -10.00000000000000178, -14.99999999999999822 ) ) ;
#592 = ORIENTED_EDGE ( 'NONE', *, *, #1116, .F. ) ;
#593 = DIRECTION ( 'NONE',  ( -1.000000000000000000, 0.000000000000000000, 0.000000000000000000 ) ) ;
#594 = VECTOR ( 'NONE', #1040, 1000.000000000000000 ) ;
#595 = CARTESIAN_POINT ( 'NONE',  ( 107.7000000000000028, 1.555301434917139024E-15, 8.000000000000037303 ) ) ;
#596 = VERTEX_POINT ( 'NONE', #808 ) ;
#597 = LINE ( 'NONE', #506, #807 ) ;
#598 = ORIENTED_EDGE ( 'NONE', *, *, #588, .F. ) ;
#599 = DIRECTION ( 'NONE',  ( 0.000000000000000000, -1.000000000000000000, 0.000000000000000000 ) ) ;
#600 = DIRECTION ( 'NONE',  ( -0.000000000000000000, -0.000000000000000000, 1.000000000000000000 ) ) ;
#601 = FACE_BOUND ( 'NONE', #13, .T. ) ;
#602 = CARTESIAN_POINT ( 'NONE',  ( -80.00000000000000000, 15.00000000000000000, -14.99999999999999822 ) ) ;
#603 = ORIENTED_EDGE ( 'NONE', *, *, #1277, .T. ) ;
#604 = EDGE_CURVE ( 'NONE', #852, #1305, #1249, .T. ) ;
#605 = CYLINDRICAL_SURFACE ( 'NONE', #1257, 1.699999999999993072 ) ;
#606 = EDGE_LOOP ( 'NONE', ( #259, #1113 ) ) ;
#607 = CARTESIAN_POINT ( 'NONE',  ( -53.19999999999999574, 9.999999999999968026, -13.00000000000000000 ) ) ;
#608 = DIRECTION ( 'NONE',  ( 0.000000000000000000, 1.334402673828313093E-16, -1.000000000000000000 ) ) ;
#609 = LINE ( 'NONE', #94, #271 ) ;
#610 = CARTESIAN_POINT ( 'NONE',  ( 95.00000000000000000, 0.000000000000000000, 5.999999999999997335 ) ) ;
#611 = AXIS2_PLACEMENT_3D ( 'NONE', #1239, #1385, #494 ) ;
#612 = CARTESIAN_POINT ( 'NONE',  ( 95.00000000000000000, 0.000000000000000000, 8.000000000000037303 ) ) ;
#613 = ORIENTED_EDGE ( 'NONE', *, *, #232, .F. ) ;
#614 = CARTESIAN_POINT ( 'NONE',  ( -75.00000000000000000, -10.00000000000000178, -13.00000000000000355 ) ) ;
#615 = ADVANCED_FACE ( 'NONE', ( #898 ), #699, .F. ) ;
#616 = DIRECTION ( 'NONE',  ( -0.000000000000000000, -0.000000000000000000, 1.000000000000000000 ) ) ;
#617 = CIRCLE ( 'NONE', #1280, 1.799999999999996048 ) ;
#618 = ORIENTED_EDGE ( 'NONE', *, *, #21, .F. ) ;
#619 = DIRECTION ( 'NONE',  ( 0.000000000000000000, 1.334402673828313339E-16, -1.000000000000000000 ) ) ;
#620 = DIRECTION ( 'NONE',  ( 0.000000000000000000, -1.000000000000000000, -1.334402673828313339E-16 ) ) ;
#621 = VERTEX_POINT ( 'NONE', #51 ) ;
#622 = DIRECTION ( 'NONE',  ( -0.000000000000000000, 1.000000000000000000, 1.334402673828313339E-16 ) ) ;
#623 = ORIENTED_EDGE ( 'NONE', *, *, #346, .F. ) ;
#624 = FACE_OUTER_BOUND ( 'NONE', #1225, .T. ) ;
#625 = EDGE_CURVE ( 'NONE', #1194, #834, #911, .T. ) ;
#626 = CARTESIAN_POINT ( 'NONE',  ( -75.00000000000000000, -10.00000000000000178, 15.00000000000000178 ) ) ;
#627 = VECTOR ( 'NONE', #620, 1000.000000000000000 ) ;
#628 = EDGE_CURVE ( 'NONE', #1038, #296, #490, .T. ) ;
#629 = ORIENTED_EDGE ( 'NONE', *, *, #1111, .F. ) ;
#630 = CARTESIAN_POINT ( 'NONE',  ( -73.20000000000000284, -10.00000000000000178, -13.00000000000000355 ) ) ;
#631 = CYLINDRICAL_SURFACE ( 'NONE', #801, 12.70000000000000284 ) ;
#632 = CARTESIAN_POINT ( 'NONE',  ( -75.00000000000000000, 9.999999999999998224, -14.99999999999999822 ) ) ;
#633 = VERTEX_POINT ( 'NONE', #903 ) ;
#634 = DIRECTION ( 'NONE',  ( -0.000000000000000000, -0.000000000000000000, 1.000000000000000000 ) ) ;
#635 = CIRCLE ( 'NONE', #12, 1.799999999999996048 ) ;
#636 = CARTESIAN_POINT ( 'NONE',  ( -80.00000000000000000, 15.00000000000000000, 15.00000000000000178 ) ) ;
#637 = ORIENTED_EDGE ( 'NONE', *, *, #1324, .T. ) ;
#638 = DIRECTION ( 'NONE',  ( -0.000000000000000000, -0.000000000000000000, 1.000000000000000000 ) ) ;
#639 = AXIS2_PLACEMENT_3D ( 'NONE', #1072, #1402, #1184 ) ;
#640 = EDGE_CURVE ( 'NONE', #126, #759, #497, .T. ) ;
#641 = CARTESIAN_POINT ( 'NONE',  ( 95.00000000000000000, 0.000000000000000000, 8.000000000000037303 ) ) ;
#642 = DIRECTION ( 'NONE',  ( -0.000000000000000000, -0.000000000000000000, 1.000000000000000000 ) ) ;
#643 = VERTEX_POINT ( 'NONE', #1006 ) ;
#644 = CARTESIAN_POINT ( 'NONE',  ( 95.00000000000000000, 0.000000000000000000, -14.99999999999999822 ) ) ;
#645 = LINE ( 'NONE', #651, #557 ) ;
#646 = DIRECTION ( 'NONE',  ( -0.000000000000000000, -0.000000000000000000, 1.000000000000000000 ) ) ;
#647 = LINE ( 'NONE', #360, #1085 ) ;
#648 = EDGE_LOOP ( 'NONE', ( #334, #320 ) ) ;
#649 = MANIFOLD_SOLID_BREP ( 'M3 Clearance Hole1', #714 ) ;
#650 = CARTESIAN_POINT ( 'NONE',  ( 110.0000000000000000, -15.00000000000000178, 15.00000000000000178 ) ) ;
#651 = CARTESIAN_POINT ( 'NONE',  ( 110.0000000000000000, 13.00000000000000178, -13.00000000000000000 ) ) ;
#652 = CARTESIAN_POINT ( 'NONE',  ( 110.0000000000000000, 13.00000000000000000, 5.999999999999999112 ) ) ;
#653 = CARTESIAN_POINT ( 'NONE',  ( 93.30000000000001137, 8.500000000000000000, -2.000000000000027978 ) ) ;
#654 = LINE ( 'NONE', #765, #1228 ) ;
#655 = ADVANCED_FACE ( 'NONE', ( #149, #601, #1034, #59, #1363, #1348 ), #1256, .T. ) ;
#656 = CARTESIAN_POINT ( 'NONE',  ( -80.00000000000000000, 13.00000000000000178, -5.999999999999999112 ) ) ;
#657 = CARTESIAN_POINT ( 'NONE',  ( -54.99999999999999289, -10.00000000000001243, 12.99999999999999645 ) ) ;
#658 = ORIENTED_EDGE ( 'NONE', *, *, #412, .F. ) ;
#659 = DIRECTION ( 'NONE',  ( -1.000000000000000000, 0.000000000000000000, 0.000000000000000000 ) ) ;
#660 = EDGE_LOOP ( 'NONE', ( #1279, #1096 ) ) ;
#661 = ADVANCED_FACE ( 'NONE', ( #682 ), #142, .F. ) ;
#662 = VECTOR ( 'NONE', #362, 1000.000000000000000 ) ;
#663 = CARTESIAN_POINT ( 'NONE',  ( 75.00000000000000000, 13.00000000000000178, -5.999999999999999112 ) ) ;
#664 = AXIS2_PLACEMENT_3D ( 'NONE', #1361, #721, #393 ) ;
#665 = AXIS2_PLACEMENT_3D ( 'NONE', #96, #782, #1298 ) ;
#666 = EDGE_CURVE ( 'NONE', #123, #1246, #471, .T. ) ;
#667 = EDGE_LOOP ( 'NONE', ( #14, #1058 ) ) ;
#668 = AXIS2_PLACEMENT_3D ( 'NONE', #828, #283, #593 ) ;
#669 = FACE_BOUND ( 'NONE', #1317, .T. ) ;
#670 = ORIENTED_EDGE ( 'NONE', *, *, #157, .F. ) ;
#671 = VECTOR ( 'NONE', #1070, 1000.000000000000000 ) ;
#672 = EDGE_CURVE ( 'NONE', #53, #1387, #1234, .T. ) ;
#673 = EDGE_LOOP ( 'NONE', ( #179, #363, #1282, #395 ) ) ;
#674 = FACE_BOUND ( 'NONE', #742, .T. ) ;
#675 = ORIENTED_EDGE ( 'NONE', *, *, #65, .F. ) ;
#676 = ADVANCED_FACE ( 'NONE', ( #155, #589 ), #1017, .F. ) ;
#677 = DIRECTION ( 'NONE',  ( 0.000000000000000000, 1.334402673828313093E-16, -1.000000000000000000 ) ) ;
#678 = EDGE_CURVE ( 'NONE', #759, #693, #567, .T. ) ;
#679 = ORIENTED_EDGE ( 'NONE', *, *, #757, .T. ) ;
#680 = DIRECTION ( 'NONE',  ( 1.000000000000000000, 0.000000000000000000, 0.000000000000000000 ) ) ;
#681 = ORIENTED_EDGE ( 'NONE', *, *, #904, .F. ) ;
#682 = FACE_OUTER_BOUND ( 'NONE', #997, .T. ) ;
#683 = CARTESIAN_POINT ( 'NONE',  ( -80.00000000000000000, 13.00000000000000000, 13.00000000000000000 ) ) ;
#684 = DIRECTION ( 'NONE',  ( -0.000000000000000000, -0.000000000000000000, 1.000000000000000000 ) ) ;
#685 = ORIENTED_EDGE ( 'NONE', *, *, #195, .T. ) ;
#686 = ADVANCED_FACE ( 'NONE', ( #1052 ), #101, .F. ) ;
#687 = CARTESIAN_POINT ( 'NONE',  ( -75.00000000000000000, 9.999999999999998224, 15.00000000000000178 ) ) ;
#688 = CIRCLE ( 'NONE', #875, 1.799999999999996048 ) ;
#689 = DIRECTION ( 'NONE',  ( -0.000000000000000000, -0.000000000000000000, 1.000000000000000000 ) ) ;
#690 = ORIENTED_EDGE ( 'NONE', *, *, #1277, .F. ) ;
#691 = EDGE_CURVE ( 'NONE', #1103, #633, #1357, .T. ) ;
#692 = CIRCLE ( 'NONE', #919, 12.70000000000000284 ) ;
#693 = VERTEX_POINT ( 'NONE', #410 ) ;
#694 = UNCERTAINTY_MEASURE_WITH_UNIT (LENGTH_MEASURE( 1.000000000000000082E-05 ), #1077, 'distance_accuracy_value', 'NONE');
#695 = AXIS2_PLACEMENT_3D ( 'NONE', #325, #504, #1396 ) ;
#696 = PLANE ( 'NONE',  #1273 ) ;
#697 = EDGE_LOOP ( 'NONE', ( #909, #912, #245, #1299 ) ) ;
#698 = CARTESIAN_POINT ( 'NONE',  ( 91.39999999999999147, 4.408728476930468193E-16, 12.99999999999999822 ) ) ;
#699 = CYLINDRICAL_SURFACE ( 'NONE', #1159, 1.799999999999996048 ) ;
#700 = VERTEX_POINT ( 'NONE', #749 ) ;
#701 = DIRECTION ( 'NONE',  ( 0.000000000000000000, -1.000000000000000000, 0.000000000000000000 ) ) ;
#702 = VERTEX_POINT ( 'NONE', #1275 ) ;
#703 = DIRECTION ( 'NONE',  ( 0.000000000000000000, 1.000000000000000000, 1.365923996832131116E-16 ) ) ;
#704 = CIRCLE ( 'NONE', #1283, 1.799999999999996048 ) ;
#705 = DIRECTION ( 'NONE',  ( -0.000000000000000000, -0.000000000000000000, 1.000000000000000000 ) ) ;
#706 = FILL_AREA_STYLE ('',( #920 ) ) ;
#707 = EDGE_CURVE ( 'NONE', #126, #465, #456, .T. ) ;
#708 = ORIENTED_EDGE ( 'NONE', *, *, #331, .T. ) ;
#709 = CIRCLE ( 'NONE', #579, 1.799999999999996048 ) ;
#710 = DIRECTION ( 'NONE',  ( 0.000000000000000000, -1.000000000000000000, 0.000000000000000000 ) ) ;
#711 = VERTEX_POINT ( 'NONE', #528 ) ;
#712 = DIRECTION ( 'NONE',  ( 0.000000000000000000, -1.000000000000000000, 0.000000000000000000 ) ) ;
#713 = CARTESIAN_POINT ( 'NONE',  ( -75.00000000000000000, 9.999999999999998224, -14.99999999999999822 ) ) ;
#714 = CLOSED_SHELL ( 'NONE', ( #841, #925, #944, #1016, #615, #686, #766, #5, #426, #1164, #163, #470, #1343, #676, #1005, #655, #8, #1210, #1392, #822, #878, #35, #1010, #223, #967, #147, #376, #1201, #141, #277, #1173, #106, #396, #1266, #435, #774, #862, #661, #85 ) ) ;
#715 = CARTESIAN_POINT ( 'NONE',  ( -56.79999999999999005, 9.999999999999968026, 13.00000000000000000 ) ) ;
#716 = CARTESIAN_POINT ( 'NONE',  ( -53.19999999999999574, -10.00000000000001243, -14.99999999999999822 ) ) ;
#717 = EDGE_CURVE ( 'NONE', #768, #574, #609, .T. ) ;
#718 = CYLINDRICAL_SURFACE ( 'NONE', #29, 1.799999999999996048 ) ;
#719 = ORIENTED_EDGE ( 'NONE', *, *, #566, .T. ) ;
#720 = LINE ( 'NONE', #193, #1251 ) ;
#721 = DIRECTION ( 'NONE',  ( -0.000000000000000000, -0.000000000000000000, 1.000000000000000000 ) ) ;
#722 = EDGE_LOOP ( 'NONE', ( #516, #458, #308, #598, #318, #1002, #1219, #629 ) ) ;
#723 = CARTESIAN_POINT ( 'NONE',  ( -75.00000000000000000, 9.999999999999998224, 13.00000000000000000 ) ) ;
#724 = CARTESIAN_POINT ( 'NONE',  ( -53.19999999999999574, 9.999999999999968026, 15.00000000000000178 ) ) ;
#725 = DIRECTION ( 'NONE',  ( -0.000000000000000000, -0.000000000000000000, 1.000000000000000000 ) ) ;
#726 = EDGE_LOOP ( 'NONE', ( #201, #507, #378, #938 ) ) ;
#727 = DIRECTION ( 'NONE',  ( 1.000000000000000000, 0.000000000000000000, 0.000000000000000000 ) ) ;
#728 = AXIS2_PLACEMENT_3D ( 'NONE', #656, #1301, #554 ) ;
#729 = DIRECTION ( 'NONE',  ( 1.000000000000000000, 0.000000000000000000, 0.000000000000000000 ) ) ;
#730 = VECTOR ( 'NONE', #865, 1000.000000000000000 ) ;
#731 = VERTEX_POINT ( 'NONE', #1080 ) ;
#732 = CYLINDRICAL_SURFACE ( 'NONE', #695, 1.799999999999996048 ) ;
#733 = CARTESIAN_POINT ( 'NONE',  ( 93.30000000000001137, -8.500000000000000000, 12.99999999999999645 ) ) ;
#734 = VERTEX_POINT ( 'NONE', #293 ) ;
#735 = AXIS2_PLACEMENT_3D ( 'NONE', #197, #1063, #177 ) ;
#736 = ORIENTED_EDGE ( 'NONE', *, *, #1214, .F. ) ;
#737 = FACE_OUTER_BOUND ( 'NONE', #1345, .T. ) ;
#738 = VERTEX_POINT ( 'NONE', #630 ) ;
#739 = FACE_BOUND ( 'NONE', #891, .T. ) ;
#740 = EDGE_CURVE ( 'NONE', #69, #633, #962, .T. ) ;
#741 = CIRCLE ( 'NONE', #199, 3.600000000000005862 ) ;
#742 = EDGE_LOOP ( 'NONE', ( #295, #773 ) ) ;
#743 = DIRECTION ( 'NONE',  ( 0.000000000000000000, 1.000000000000000000, 1.334402673828313339E-16 ) ) ;
#744 = CARTESIAN_POINT ( 'NONE',  ( -80.00000000000000000, -13.00000000000000000, -13.00000000000000355 ) ) ;
#745 = CARTESIAN_POINT ( 'NONE',  ( -76.79999999999999716, -10.00000000000000178, 12.99999999999999645 ) ) ;
#746 = VERTEX_POINT ( 'NONE', #1388 ) ;
#747 = AXIS2_PLACEMENT_3D ( 'NONE', #413, #180, #710 ) ;
#748 = DIRECTION ( 'NONE',  ( 0.000000000000000000, -1.000000000000000000, 0.000000000000000000 ) ) ;
#749 = CARTESIAN_POINT ( 'NONE',  ( 82.29999999999999716, 2.314819644696197343E-31, -13.00000000000000355 ) ) ;
#750 = CYLINDRICAL_SURFACE ( 'NONE', #1104, 3.600000000000005862 ) ;
#751 = EDGE_CURVE ( 'NONE', #1038, #228, #810, .T. ) ;
#752 = LINE ( 'NONE', #216, #43 ) ;
#753 = ORIENTED_EDGE ( 'NONE', *, *, #566, .F. ) ;
#754 = CARTESIAN_POINT ( 'NONE',  ( -80.00000000000000000, -13.00000000000000000, 12.99999999999999645 ) ) ;
#755 = CARTESIAN_POINT ( 'NONE',  ( 110.0000000000000000, 13.00000000000000000, 13.00000000000000000 ) ) ;
#756 = DIRECTION ( 'NONE',  ( -0.000000000000000000, -0.000000000000000000, 1.000000000000000000 ) ) ;
#757 = EDGE_CURVE ( 'NONE', #53, #932, #436, .T. ) ;
#758 = LINE ( 'NONE', #464, #103 ) ;
#759 = VERTEX_POINT ( 'NONE', #67 ) ;
#760 = CARTESIAN_POINT ( 'NONE',  ( -76.79999999999999716, -10.00000000000000178, -14.99999999999999822 ) ) ;
#761 = CARTESIAN_POINT ( 'NONE',  ( 96.69999999999998863, 8.500000000000000000, -2.000000000000027978 ) ) ;
#762 = VECTOR ( 'NONE', #532, 1000.000000000000000 ) ;
#763 = ORIENTED_EDGE ( 'NONE', *, *, #897, .F. ) ;
#764 = EDGE_CURVE ( 'NONE', #1314, #74, #1382, .T. ) ;
#765 = CARTESIAN_POINT ( 'NONE',  ( 110.0000000000000000, -15.00000000000000178, -14.99999999999999822 ) ) ;
#766 = ADVANCED_FACE ( 'NONE', ( #1156 ), #732, .F. ) ;
#767 = DIRECTION ( 'NONE',  ( 0.000000000000000000, -1.000000000000000000, 0.000000000000000000 ) ) ;
#768 = VERTEX_POINT ( 'NONE', #715 ) ;
#769 = DIRECTION ( 'NONE',  ( 0.000000000000000000, 1.000000000000000000, 1.334402673828313093E-16 ) ) ;
#770 = AXIS2_PLACEMENT_3D ( 'NONE', #1371, #402, #830 ) ;
#771 = VERTEX_POINT ( 'NONE', #84 ) ;
#772 = DIRECTION ( 'NONE',  ( -1.000000000000000000, 0.000000000000000000, 0.000000000000000000 ) ) ;
#773 = ORIENTED_EDGE ( 'NONE', *, *, #1324, .F. ) ;
#774 = ADVANCED_FACE ( 'NONE', ( #1147 ), #1167, .F. ) ;
#775 = AXIS2_PLACEMENT_3D ( 'NONE', #329, #772, #1307 ) ;
#776 = VERTEX_POINT ( 'NONE', #315 ) ;
#777 = AXIS2_PLACEMENT_3D ( 'NONE', #1032, #57, #712 ) ;
#778 = DIRECTION ( 'NONE',  ( 0.000000000000000000, 1.334402673828313093E-16, -1.000000000000000000 ) ) ;
#779 = EDGE_LOOP ( 'NONE', ( #848, #192 ) ) ;
#780 = AXIS2_PLACEMENT_3D ( 'NONE', #713, #1263, #292 ) ;
#781 = EDGE_CURVE ( 'NONE', #1004, #53, #1295, .T. ) ;
#782 = DIRECTION ( 'NONE',  ( -0.000000000000000000, -0.000000000000000000, 1.000000000000000000 ) ) ;
#783 = ORIENTED_EDGE ( 'NONE', *, *, #124, .T. ) ;
#784 = VECTOR ( 'NONE', #170, 1000.000000000000000 ) ;
#785 = FACE_OUTER_BOUND ( 'NONE', #32, .T. ) ;
#786 = ORIENTED_EDGE ( 'NONE', *, *, #604, .T. ) ;
#787 = LINE ( 'NONE', #1220, #284 ) ;
#788 = EDGE_LOOP ( 'NONE', ( #1297, #658, #469, #1326 ) ) ;
#789 = FACE_OUTER_BOUND ( 'NONE', #1172, .T. ) ;
#790 = EDGE_LOOP ( 'NONE', ( #37, #719, #685, #406 ) ) ;
#791 = CIRCLE ( 'NONE', #183, 1.799999999999996048 ) ;
#792 = CARTESIAN_POINT ( 'NONE',  ( -76.79999999999999716, 9.999999999999998224, 15.00000000000000178 ) ) ;
#793 = FACE_OUTER_BOUND ( 'NONE', #1031, .T. ) ;
#794 = MECHANICAL_DESIGN_GEOMETRIC_PRESENTATION_REPRESENTATION (  '', ( #237 ), #1 ) ;
#795 = EDGE_CURVE ( 'NONE', #1305, #771, #125, .T. ) ;
#796 = CIRCLE ( 'NONE', #1134, 3.600000000000001421 ) ;
#797 = PLANE ( 'NONE',  #1094 ) ;
#798 = ORIENTED_EDGE ( 'NONE', *, *, #473, .T. ) ;
#799 = DIRECTION ( 'NONE',  ( 0.000000000000000000, 0.000000000000000000, -1.000000000000000000 ) ) ;
#800 = DIRECTION ( 'NONE',  ( 0.000000000000000000, -0.000000000000000000, -1.000000000000000000 ) ) ;
#801 = AXIS2_PLACEMENT_3D ( 'NONE', #641, #1073, #963 ) ;
#802 = EDGE_CURVE ( 'NONE', #145, #905, #934, .T. ) ;
#803 = LINE ( 'NONE', #1338, #1337 ) ;
#804 = VERTEX_POINT ( 'NONE', #213 ) ;
#805 = CARTESIAN_POINT ( 'NONE',  ( -76.79999999999999716, -10.00000000000000178, 15.00000000000000178 ) ) ;
#806 = EDGE_CURVE ( 'NONE', #731, #1410, #645, .T. ) ;
#807 = VECTOR ( 'NONE', #725, 1000.000000000000000 ) ;
#808 = CARTESIAN_POINT ( 'NONE',  ( -56.79999999999999005, -10.00000000000001243, 15.00000000000000178 ) ) ;
#809 = DIRECTION ( 'NONE',  ( 1.000000000000000000, 0.000000000000000000, 0.000000000000000000 ) ) ;
#810 = CIRCLE ( 'NONE', #585, 1.799999999999996048 ) ;
#811 = CARTESIAN_POINT ( 'NONE',  ( 95.00000000000000000, -8.500000000000000000, -2.000000000000027978 ) ) ;
#812 = ORIENTED_EDGE ( 'NONE', *, *, #124, .F. ) ;
#813 = DIRECTION ( 'NONE',  ( 0.000000000000000000, -1.334402673828313093E-16, 1.000000000000000000 ) ) ;
#814 = EDGE_CURVE ( 'NONE', #56, #361, #1302, .T. ) ;
#815 =( NAMED_UNIT ( * ) SI_UNIT ( $, .STERADIAN. ) SOLID_ANGLE_UNIT ( ) );
#816 = FACE_OUTER_BOUND ( 'NONE', #726, .T. ) ;
#817 = DIRECTION ( 'NONE',  ( 0.000000000000000000, 1.334402673828313093E-16, -1.000000000000000000 ) ) ;
#818 = ORIENTED_EDGE ( 'NONE', *, *, #1330, .T. ) ;
#819 = DIRECTION ( 'NONE',  ( 0.000000000000000000, 1.334402673828313093E-16, -1.000000000000000000 ) ) ;
#820 = VECTOR ( 'NONE', #634, 1000.000000000000000 ) ;
#821 = LINE ( 'NONE', #1255, #594 ) ;
#822 = ADVANCED_FACE ( 'NONE', ( #220, #502 ), #950, .T. ) ;
#823 = CARTESIAN_POINT ( 'NONE',  ( -80.00000000000000000, -15.00000000000000178, -14.99999999999999822 ) ) ;
#824 = LINE ( 'NONE', #1250, #784 ) ;
#825 = EDGE_CURVE ( 'NONE', #1047, #702, #964, .T. ) ;
#826 = DIRECTION ( 'NONE',  ( -1.000000000000000000, 0.000000000000000000, 0.000000000000000000 ) ) ;
#827 = EDGE_LOOP ( 'NONE', ( #282, #623, #525, #1207 ) ) ;
#828 = CARTESIAN_POINT ( 'NONE',  ( 95.00000000000000000, 0.000000000000000000, 8.000000000000037303 ) ) ;
#829 = FACE_OUTER_BOUND ( 'NONE', #673, .T. ) ;
#830 = DIRECTION ( 'NONE',  ( 0.000000000000000000, -1.000000000000000000, -1.365923996832131116E-16 ) ) ;
#831 = FACE_OUTER_BOUND ( 'NONE', #254, .T. ) ;
#832 = ORIENTED_EDGE ( 'NONE', *, *, #802, .F. ) ;
#833 = CARTESIAN_POINT ( 'NONE',  ( -54.99999999999999289, 9.999999999999968026, 15.00000000000000178 ) ) ;
#834 = VERTEX_POINT ( 'NONE', #312 ) ;
#835 = CARTESIAN_POINT ( 'NONE',  ( -56.79999999999999005, -10.00000000000001243, -14.99999999999999822 ) ) ;
#836 = FACE_OUTER_BOUND ( 'NONE', #697, .T. ) ;
#837 = EDGE_LOOP ( 'NONE', ( #20, #786, #854, #1216 ) ) ;
#838 = DIRECTION ( 'NONE',  ( 1.000000000000000000, 0.000000000000000000, 0.000000000000000000 ) ) ;
#839 = CARTESIAN_POINT ( 'NONE',  ( -80.00000000000000000, -13.00000000000000000, 12.99999999999999645 ) ) ;
#840 = AXIS2_PLACEMENT_3D ( 'NONE', #1231, #1003, #1327 ) ;
#841 = ADVANCED_FACE ( 'NONE', ( #829 ), #1272, .F. ) ;
#842 = FACE_OUTER_BOUND ( 'NONE', #38, .T. ) ;
#843 = EDGE_LOOP ( 'NONE', ( #980, #894, #1406, #555 ) ) ;
#844 = CARTESIAN_POINT ( 'NONE',  ( 95.00000000000000000, 0.000000000000000000, 15.00000000000000178 ) ) ;
#845 = CIRCLE ( 'NONE', #906, 1.699999999999999289 ) ;
#846 = CARTESIAN_POINT ( 'NONE',  ( -80.00000000000000000, 0.000000000000000000, 0.000000000000000000 ) ) ;
#847 = VECTOR ( 'NONE', #1335, 1000.000000000000000 ) ;
#848 = ORIENTED_EDGE ( 'NONE', *, *, #547, .T. ) ;
#849 = DIRECTION ( 'NONE',  ( -0.000000000000000000, -0.000000000000000000, 1.000000000000000000 ) ) ;
#850 = LINE ( 'NONE', #724, #1233 ) ;
#851 = AXIS2_PLACEMENT_3D ( 'NONE', #960, #600, #302 ) ;
#852 = VERTEX_POINT ( 'NONE', #58 ) ;
#853 = DIRECTION ( 'NONE',  ( 1.000000000000000000, 0.000000000000000000, 0.000000000000000000 ) ) ;
#854 = ORIENTED_EDGE ( 'NONE', *, *, #1258, .F. ) ;
#855 = DIRECTION ( 'NONE',  ( 0.000000000000000000, -1.334402673828313339E-16, 1.000000000000000000 ) ) ;
#856 = DIRECTION ( 'NONE',  ( 1.000000000000000000, 0.000000000000000000, 0.000000000000000000 ) ) ;
#857 = FACE_OUTER_BOUND ( 'NONE', #210, .T. ) ;
#858 = DIRECTION ( 'NONE',  ( -0.000000000000000000, -0.000000000000000000, -1.000000000000000000 ) ) ;
#859 = ORIENTED_EDGE ( 'NONE', *, *, #1028, .T. ) ;
#860 = DIRECTION ( 'NONE',  ( 0.000000000000000000, 0.000000000000000000, 1.000000000000000000 ) ) ;
#861 = LINE ( 'NONE', #1189, #983 ) ;
#862 = ADVANCED_FACE ( 'NONE', ( #836 ), #81, .F. ) ;
#863 = CARTESIAN_POINT ( 'NONE',  ( -54.99999999999999289, 9.999999999999968026, 15.00000000000000178 ) ) ;
#864 = CARTESIAN_POINT ( 'NONE',  ( -75.00000000000000000, 9.999999999999998224, 15.00000000000000178 ) ) ;
#865 = DIRECTION ( 'NONE',  ( 1.000000000000000000, 0.000000000000000000, 0.000000000000000000 ) ) ;
#866 = ORIENTED_EDGE ( 'NONE', *, *, #1284, .F. ) ;
#867 = CARTESIAN_POINT ( 'NONE',  ( 110.0000000000000000, 13.00000000000000178, -5.999999999999999112 ) ) ;
#868 = DIRECTION ( 'NONE',  ( 0.000000000000000000, -1.334402673828313339E-16, 1.000000000000000000 ) ) ;
#869 = EDGE_CURVE ( 'NONE', #1310, #460, #242, .T. ) ;
#870 = DIRECTION ( 'NONE',  ( 0.000000000000000000, 0.000000000000000000, 1.000000000000000000 ) ) ;
#871 = ORIENTED_EDGE ( 'NONE', *, *, #241, .T. ) ;
#872 = FACE_OUTER_BOUND ( 'NONE', #587, .T. ) ;
#873 = DIRECTION ( 'NONE',  ( 0.000000000000000000, -1.000000000000000000, 0.000000000000000000 ) ) ;
#874 = EDGE_LOOP ( 'NONE', ( #78, #783, #1089, #736 ) ) ;
#875 = AXIS2_PLACEMENT_3D ( 'NONE', #1081, #198, #294 ) ;
#876 = FACE_BOUND ( 'NONE', #1045, .T. ) ;
#877 = ORIENTED_EDGE ( 'NONE', *, *, #672, .T. ) ;
#878 = ADVANCED_FACE ( 'NONE', ( #739, #1060, #285, #1153, #926, #518, #1386, #1285 ), #1369, .F. ) ;
#879 = VECTOR ( 'NONE', #1198, 1000.000000000000000 ) ;
#880 = CARTESIAN_POINT ( 'NONE',  ( -80.00000000000000000, 13.00000000000000178, -13.00000000000000000 ) ) ;
#881 = ORIENTED_EDGE ( 'NONE', *, *, #1124, .F. ) ;
#882 = AXIS2_PLACEMENT_3D ( 'NONE', #75, #943, #513 ) ;
#883 = ORIENTED_EDGE ( 'NONE', *, *, #795, .T. ) ;
#884 = EDGE_CURVE ( 'NONE', #852, #1342, #428, .T. ) ;
#885 = DIRECTION ( 'NONE',  ( 1.000000000000000000, 0.000000000000000000, 0.000000000000000000 ) ) ;
#886 = ORIENTED_EDGE ( 'NONE', *, *, #80, .T. ) ;
#887 = CARTESIAN_POINT ( 'NONE',  ( -73.20000000000000284, 9.999999999999998224, 15.00000000000000178 ) ) ;
#888 = ORIENTED_EDGE ( 'NONE', *, *, #625, .T. ) ;
#889 = CIRCLE ( 'NONE', #575, 12.70000000000000462 ) ;
#890 = LINE ( 'NONE', #377, #234 ) ;
#891 = EDGE_LOOP ( 'NONE', ( #708, #923 ) ) ;
#892 = VECTOR ( 'NONE', #1066, 1000.000000000000000 ) ;
#893 = LINE ( 'NONE', #1331, #892 ) ;
#894 = ORIENTED_EDGE ( 'NONE', *, *, #1116, .T. ) ;
#895 = CARTESIAN_POINT ( 'NONE',  ( 75.00000000000000000, -13.00000000000000000, 5.999999999999995559 ) ) ;
#896 = EDGE_LOOP ( 'NONE', ( #272, #1232, #93, #1115 ) ) ;
#897 = EDGE_CURVE ( 'NONE', #296, #425, #485, .T. ) ;
#898 = FACE_OUTER_BOUND ( 'NONE', #527, .T. ) ;
#899 = ORIENTED_EDGE ( 'NONE', *, *, #936, .F. ) ;
#900 = DIRECTION ( 'NONE',  ( 0.000000000000000000, 1.000000000000000000, 1.365923996832131116E-16 ) ) ;
#901 = EDGE_LOOP ( 'NONE', ( #966, #991, #27, #1269 ) ) ;
#902 = VECTOR ( 'NONE', #261, 1000.000000000000000 ) ;
#903 = CARTESIAN_POINT ( 'NONE',  ( 93.30000000000001137, -8.500000000000000000, 15.00000000000000178 ) ) ;
#904 = EDGE_CURVE ( 'NONE', #1387, #61, #203, .T. ) ;
#905 = VERTEX_POINT ( 'NONE', #92 ) ;
#906 = AXIS2_PLACEMENT_3D ( 'NONE', #982, #534, #873 ) ;
#907 = VECTOR ( 'NONE', #459, 1000.000000000000000 ) ;
#908 = CARTESIAN_POINT ( 'NONE',  ( 95.00000000000000000, 0.000000000000000000, -13.00000000000000355 ) ) ;
#909 = ORIENTED_EDGE ( 'NONE', *, *, #171, .F. ) ;
#910 = AXIS2_PLACEMENT_3D ( 'NONE', #846, #276, #1165 ) ;
#911 = LINE ( 'NONE', #278, #984 ) ;
#912 = ORIENTED_EDGE ( 'NONE', *, *, #215, .F. ) ;
#913 = VECTOR ( 'NONE', #326, 1000.000000000000000 ) ;
#914 = ORIENTED_EDGE ( 'NONE', *, *, #588, .T. ) ;
#915 = EDGE_CURVE ( 'NONE', #63, #1375, #1397, .T. ) ;
#916 = DIRECTION ( 'NONE',  ( -0.000000000000000000, -0.000000000000000000, -1.000000000000000000 ) ) ;
#917 = VERTEX_POINT ( 'NONE', #176 ) ;
#918 = DIRECTION ( 'NONE',  ( 0.000000000000000000, 0.000000000000000000, 1.000000000000000000 ) ) ;
#919 = AXIS2_PLACEMENT_3D ( 'NONE', #227, #122, #1092 ) ;
#920 = FILL_AREA_STYLE_COLOUR ( '', #482 ) ;
#921 = VERTEX_POINT ( 'NONE', #1138 ) ;
#922 = DIRECTION ( 'NONE',  ( -0.000000000000000000, -0.000000000000000000, -1.000000000000000000 ) ) ;
#923 = ORIENTED_EDGE ( 'NONE', *, *, #553, .T. ) ;
#924 = LINE ( 'NONE', #931, #1163 ) ;
#925 = ADVANCED_FACE ( 'NONE', ( #169 ), #1033, .F. ) ;
#926 = FACE_BOUND ( 'NONE', #541, .T. ) ;
#927 = PRESENTATION_STYLE_ASSIGNMENT (( #161 ) ) ;
#928 = CARTESIAN_POINT ( 'NONE',  ( -54.99999999999999289, 9.999999999999968026, -13.00000000000000000 ) ) ;
#929 = CARTESIAN_POINT ( 'NONE',  ( 95.00000000000000000, -8.500000000000000000, -2.000000000000027978 ) ) ;
#930 = VERTEX_POINT ( 'NONE', #1049 ) ;
#931 = CARTESIAN_POINT ( 'NONE',  ( 91.39999999999999147, 4.408728476930474110E-16, -2.000000000000027978 ) ) ;
#932 = VERTEX_POINT ( 'NONE', #73 ) ;
#933 = DIRECTION ( 'NONE',  ( 0.000000000000000000, 1.000000000000000000, 0.000000000000000000 ) ) ;
#934 = LINE ( 'NONE', #1177, #354 ) ;
#935 = DIRECTION ( 'NONE',  ( 1.000000000000000000, 0.000000000000000000, 0.000000000000000000 ) ) ;
#936 = EDGE_CURVE ( 'NONE', #7, #56, #821, .T. ) ;
#937 = CYLINDRICAL_SURFACE ( 'NONE', #222, 12.70000000000000284 ) ;
#938 = ORIENTED_EDGE ( 'NONE', *, *, #65, .T. ) ;
#939 = CARTESIAN_POINT ( 'NONE',  ( 95.00000000000000000, 0.000000000000000000, -13.00000000000000355 ) ) ;
#940 = CARTESIAN_POINT ( 'NONE',  ( -54.99999999999999289, -10.00000000000001243, 15.00000000000000178 ) ) ;
#941 = AXIS2_PLACEMENT_3D ( 'NONE', #996, #858, #1187 ) ;
#942 = ORIENTED_EDGE ( 'NONE', *, *, #1226, .F. ) ;
#943 = DIRECTION ( 'NONE',  ( 0.000000000000000000, -1.334402673828313339E-16, 1.000000000000000000 ) ) ;
#944 = ADVANCED_FACE ( 'NONE', ( #509 ), #66, .F. ) ;
#945 = DIRECTION ( 'NONE',  ( -0.000000000000000000, -0.000000000000000000, 1.000000000000000000 ) ) ;
#946 = CARTESIAN_POINT ( 'NONE',  ( 110.0000000000000000, -13.00000000000000000, 12.99999999999999645 ) ) ;
#947 = ORIENTED_EDGE ( 'NONE', *, *, #386, .T. ) ;
#948 = DIRECTION ( 'NONE',  ( 1.000000000000000000, 0.000000000000000000, 0.000000000000000000 ) ) ;
#949 = VECTOR ( 'NONE', #380, 1000.000000000000000 ) ;
#950 = PLANE ( 'NONE',  #910 ) ;
#951 = ORIENTED_EDGE ( 'NONE', *, *, #1362, .F. ) ;
#952 = CARTESIAN_POINT ( 'NONE',  ( -80.00000000000000000, -15.00000000000000178, -14.99999999999999822 ) ) ;
#953 = DIRECTION ( 'NONE',  ( -0.000000000000000000, -0.000000000000000000, 1.000000000000000000 ) ) ;
#954 = PRODUCT_DEFINITION_SHAPE ( 'NONE', 'NONE',  #416 ) ;
#955 = VERTEX_POINT ( 'NONE', #1206 ) ;
#956 = DIRECTION ( 'NONE',  ( -0.000000000000000000, -0.000000000000000000, 1.000000000000000000 ) ) ;
#957 = ORIENTED_EDGE ( 'NONE', *, *, #1221, .T. ) ;
#958 = APPLICATION_PROTOCOL_DEFINITION ( 'draft international standard', 'automotive_design', 1998, #1300 ) ;
#959 = AXIS2_PLACEMENT_3D ( 'NONE', #940, #1377, #1102 ) ;
#960 = CARTESIAN_POINT ( 'NONE',  ( -54.99999999999999289, -10.00000000000001243, 15.00000000000000178 ) ) ;
#961 = EDGE_LOOP ( 'NONE', ( #866, #1319, #986, #832 ) ) ;
#962 = LINE ( 'NONE', #286, #1244 ) ;
#963 = DIRECTION ( 'NONE',  ( -1.000000000000000000, 0.000000000000000000, 0.000000000000000000 ) ) ;
#964 = CIRCLE ( 'NONE', #313, 1.799999999999996048 ) ;
#965 = LINE ( 'NONE', #252, #762 ) ;
#966 = ORIENTED_EDGE ( 'NONE', *, *, #990, .T. ) ;
#967 = ADVANCED_FACE ( 'NONE', ( #669, #1095, #542 ), #968, .F. ) ;
#968 = PLANE ( 'NONE',  #775 ) ;
#969 = ORIENTED_EDGE ( 'NONE', *, *, #1018, .T. ) ;
#970 = PRODUCT ( 'leg_long_1', 'leg_long_1', '', ( #98 ) ) ;
#971 = DIRECTION ( 'NONE',  ( 0.000000000000000000, -1.000000000000000000, 0.000000000000000000 ) ) ;
#972 = DIRECTION ( 'NONE',  ( -0.000000000000000000, -0.000000000000000000, 1.000000000000000000 ) ) ;
#973 = VECTOR ( 'NONE', #1289, 1000.000000000000000 ) ;
#974 = LINE ( 'NONE', #887, #188 ) ;
#975 = ORIENTED_EDGE ( 'NONE', *, *, #1082, .T. ) ;
#976 = SHAPE_DEFINITION_REPRESENTATION ( #954, #446 ) ;
#977 = DIRECTION ( 'NONE',  ( 0.000000000000000000, 1.334402673828313093E-16, -1.000000000000000000 ) ) ;
#978 = EDGE_CURVE ( 'NONE', #1274, #746, #845, .T. ) ;
#979 = DIRECTION ( 'NONE',  ( -0.000000000000000000, -0.000000000000000000, 1.000000000000000000 ) ) ;
#980 = ORIENTED_EDGE ( 'NONE', *, *, #1185, .T. ) ;
#981 = VECTOR ( 'NONE', #457, 1000.000000000000000 ) ;
#982 = CARTESIAN_POINT ( 'NONE',  ( 95.00000000000000000, 8.500000000000000000, 13.00000000000000000 ) ) ;
#983 = VECTOR ( 'NONE', #111, 1000.000000000000000 ) ;
#984 = VECTOR ( 'NONE', #387, 1000.000000000000000 ) ;
#985 = CARTESIAN_POINT ( 'NONE',  ( 95.00000000000000000, 8.500000000000000000, 15.00000000000000178 ) ) ;
#986 = ORIENTED_EDGE ( 'NONE', *, *, #450, .F. ) ;
#987 = DIRECTION ( 'NONE',  ( 0.000000000000000000, 0.000000000000000000, 1.000000000000000000 ) ) ;
#988 = ORIENTED_EDGE ( 'NONE', *, *, #1028, .F. ) ;
#989 = CIRCLE ( 'NONE', #9, 12.70000000000000462 ) ;
#990 = EDGE_CURVE ( 'NONE', #776, #1014, #10, .T. ) ;
#991 = ORIENTED_EDGE ( 'NONE', *, *, #558, .T. ) ;
#992 = AXIS2_PLACEMENT_3D ( 'NONE', #657, #343, #1303 ) ;
#993 = CYLINDRICAL_SURFACE ( 'NONE', #42, 1.799999999999996048 ) ;
#994 = ORIENTED_EDGE ( 'NONE', *, *, #764, .T. ) ;
#995 = AXIS2_PLACEMENT_3D ( 'NONE', #36, #577, #31 ) ;
#996 = CARTESIAN_POINT ( 'NONE',  ( 95.00000000000000000, 0.000000000000000000, 8.000000000000037303 ) ) ;
#997 = EDGE_LOOP ( 'NONE', ( #414, #475, #164, #375 ) ) ;
#998 = FACE_BOUND ( 'NONE', #174, .T. ) ;
#999 = EDGE_LOOP ( 'NONE', ( #1229, #859, #1036, #1143 ) ) ;
#1000 = EDGE_CURVE ( 'NONE', #368, #768, #1390, .T. ) ;
#1001 = CARTESIAN_POINT ( 'NONE',  ( -56.79999999999999005, -10.00000000000001243, 12.99999999999999645 ) ) ;
#1002 = ORIENTED_EDGE ( 'NONE', *, *, #936, .T. ) ;
#1003 = DIRECTION ( 'NONE',  ( -0.000000000000000000, -0.000000000000000000, 1.000000000000000000 ) ) ;
#1004 = VERTEX_POINT ( 'NONE', #1183 ) ;
#1005 = ADVANCED_FACE ( 'NONE', ( #1311, #100 ), #230, .F. ) ;
#1006 = CARTESIAN_POINT ( 'NONE',  ( 91.39999999999999147, 4.408728476930468193E-16, 15.00000000000000178 ) ) ;
#1007 = EDGE_LOOP ( 'NONE', ( #196, #1136 ) ) ;
#1008 = CARTESIAN_POINT ( 'NONE',  ( -75.00000000000000000, 9.999999999999998224, 15.00000000000000178 ) ) ;
#1009 = ORIENTED_EDGE ( 'NONE', *, *, #1124, .T. ) ;
#1010 = ADVANCED_FACE ( 'NONE', ( #447 ), #238, .F. ) ;
#1011 = DIRECTION ( 'NONE',  ( -1.000000000000000000, 0.000000000000000000, -0.000000000000000000 ) ) ;
#1012 = LINE ( 'NONE', #1349, #1088 ) ;
#1013 = DIRECTION ( 'NONE',  ( 1.000000000000000000, 0.000000000000000000, -0.000000000000000000 ) ) ;
#1014 = VERTEX_POINT ( 'NONE', #880 ) ;
#1015 = CIRCLE ( 'NONE', #1154, 12.70000000000000462 ) ;
#1016 = ADVANCED_FACE ( 'NONE', ( #1401 ), #993, .F. ) ;
#1017 = PLANE ( 'NONE',  #345 ) ;
#1018 = EDGE_CURVE ( 'NONE', #917, #159, #236, .T. ) ;
#1019 = CYLINDRICAL_SURFACE ( 'NONE', #1145, 1.799999999999996048 ) ;
#1020 = AXIS2_PLACEMENT_3D ( 'NONE', #644, #1202, #659 ) ;
#1021 = CIRCLE ( 'NONE', #422, 1.699999999999993072 ) ;
#1022 = DIRECTION ( 'NONE',  ( 0.000000000000000000, 0.000000000000000000, -1.000000000000000000 ) ) ;
#1023 = ORIENTED_EDGE ( 'NONE', *, *, #1175, .T. ) ;
#1024 = DIRECTION ( 'NONE',  ( -0.000000000000000000, -0.000000000000000000, 1.000000000000000000 ) ) ;
#1025 = AXIS2_PLACEMENT_3D ( 'NONE', #1174, #526, #1248 ) ;
#1026 = DIRECTION ( 'NONE',  ( -0.000000000000000000, -0.000000000000000000, -1.000000000000000000 ) ) ;
#1027 = PLANE ( 'NONE',  #288 ) ;
#1028 = EDGE_CURVE ( 'NONE', #361, #1246, #16, .T. ) ;
#1029 = ORIENTED_EDGE ( 'NONE', *, *, #1131, .T. ) ;
#1030 = LINE ( 'NONE', #492, #400 ) ;
#1031 = EDGE_LOOP ( 'NONE', ( #1151, #1336, #268, #500 ) ) ;
#1032 = CARTESIAN_POINT ( 'NONE',  ( 95.00000000000000000, 8.500000000000000000, 13.00000000000000000 ) ) ;
#1033 = CYLINDRICAL_SURFACE ( 'NONE', #664, 1.799999999999996048 ) ;
#1034 = FACE_BOUND ( 'NONE', #779, .T. ) ;
#1035 = ORIENTED_EDGE ( 'NONE', *, *, #1347, .T. ) ;
#1036 = ORIENTED_EDGE ( 'NONE', *, *, #666, .F. ) ;
#1037 = DIRECTION ( 'NONE',  ( -0.000000000000000000, -0.000000000000000000, 1.000000000000000000 ) ) ;
#1038 = VERTEX_POINT ( 'NONE', #119 ) ;
#1039 = CYLINDRICAL_SURFACE ( 'NONE', #668, 12.70000000000000284 ) ;
#1040 = DIRECTION ( 'NONE',  ( 1.000000000000000000, 0.000000000000000000, 0.000000000000000000 ) ) ;
#1041 = EDGE_CURVE ( 'NONE', #1332, #48, #187, .T. ) ;
#1042 = VECTOR ( 'NONE', #1368, 1000.000000000000000 ) ;
#1043 = DIRECTION ( 'NONE',  ( 0.000000000000000000, 1.334402673828313093E-16, -1.000000000000000000 ) ) ;
#1044 = LINE ( 'NONE', #1403, #913 ) ;
#1045 = EDGE_LOOP ( 'NONE', ( #225, #1076 ) ) ;
#1046 = DIRECTION ( 'NONE',  ( 1.000000000000000000, 0.000000000000000000, 0.000000000000000000 ) ) ;
#1047 = VERTEX_POINT ( 'NONE', #760 ) ;
#1048 = DIRECTION ( 'NONE',  ( 1.000000000000000000, 0.000000000000000000, 0.000000000000000000 ) ) ;
#1049 = CARTESIAN_POINT ( 'NONE',  ( -53.19999999999999574, -10.00000000000001243, 12.99999999999999645 ) ) ;
#1050 = EDGE_CURVE ( 'NONE', #484, #930, #371, .T. ) ;
#1051 = VERTEX_POINT ( 'NONE', #347 ) ;
#1052 = FACE_OUTER_BOUND ( 'NONE', #556, .T. ) ;
#1053 = CARTESIAN_POINT ( 'NONE',  ( -56.79999999999999005, -10.00000000000001243, 15.00000000000000178 ) ) ;
#1054 = ORIENTED_EDGE ( 'NONE', *, *, #1294, .T. ) ;
#1055 = PRODUCT_DEFINITION_CONTEXT ( 'detailed design', #1300, 'design' ) ;
#1056 = AXIS2_PLACEMENT_3D ( 'NONE', #207, #1168, #287 ) ;
#1057 = CARTESIAN_POINT ( 'NONE',  ( -75.00000000000000000, -10.00000000000000178, 12.99999999999999645 ) ) ;
#1058 = ORIENTED_EDGE ( 'NONE', *, *, #260, .F. ) ;
#1059 = DIRECTION ( 'NONE',  ( -0.000000000000000000, -0.000000000000000000, 1.000000000000000000 ) ) ;
#1060 = FACE_BOUND ( 'NONE', #1243, .T. ) ;
#1061 = EDGE_CURVE ( 'NONE', #1194, #7, #861, .T. ) ;
#1062 = VERTEX_POINT ( 'NONE', #545 ) ;
#1063 = DIRECTION ( 'NONE',  ( -0.000000000000000000, -0.000000000000000000, 1.000000000000000000 ) ) ;
#1064 = DIRECTION ( 'NONE',  ( 0.000000000000000000, 0.000000000000000000, 1.000000000000000000 ) ) ;
#1065 = VECTOR ( 'NONE', #979, 1000.000000000000000 ) ;
#1066 = DIRECTION ( 'NONE',  ( -0.000000000000000000, -0.000000000000000000, 1.000000000000000000 ) ) ;
#1067 = ORIENTED_EDGE ( 'NONE', *, *, #131, .T. ) ;
#1068 = PLANE ( 'NONE',  #4 ) ;
#1069 = CIRCLE ( 'NONE', #301, 1.799999999999996048 ) ;
#1070 = DIRECTION ( 'NONE',  ( 1.000000000000000000, 0.000000000000000000, 0.000000000000000000 ) ) ;
#1071 = EDGE_LOOP ( 'NONE', ( #217, #888, #1230, #899 ) ) ;
#1072 = CARTESIAN_POINT ( 'NONE',  ( 95.00000000000000000, 0.000000000000000000, 5.999999999999997335 ) ) ;
#1073 = DIRECTION ( 'NONE',  ( -0.000000000000000000, -0.000000000000000000, -1.000000000000000000 ) ) ;
#1074 = EDGE_CURVE ( 'NONE', #1129, #1188, #219, .T. ) ;
#1075 = LINE ( 'NONE', #319, #444 ) ;
#1076 = ORIENTED_EDGE ( 'NONE', *, *, #365, .T. ) ;
#1077 =( LENGTH_UNIT ( ) NAMED_UNIT ( * ) SI_UNIT ( .MILLI., .METRE. ) );
#1078 = CARTESIAN_POINT ( 'NONE',  ( 110.0000000000000000, 13.00000000000000000, 13.00000000000000000 ) ) ;
#1079 = CIRCLE ( 'NONE', #777, 1.699999999999999289 ) ;
#1080 = CARTESIAN_POINT ( 'NONE',  ( 110.0000000000000000, 13.00000000000000178, -13.00000000000000000 ) ) ;
#1081 = CARTESIAN_POINT ( 'NONE',  ( -54.99999999999999289, 9.999999999999968026, -14.99999999999999822 ) ) ;
#1082 = EDGE_CURVE ( 'NONE', #90, #738, #1158, .T. ) ;
#1083 = DIRECTION ( 'NONE',  ( 0.000000000000000000, -1.334402673828313339E-16, 1.000000000000000000 ) ) ;
#1084 = ORIENTED_EDGE ( 'NONE', *, *, #1050, .T. ) ;
#1085 = VECTOR ( 'NONE', #564, 1000.000000000000000 ) ;
#1086 = DIRECTION ( 'NONE',  ( -0.000000000000000000, 1.000000000000000000, 1.334402673828313093E-16 ) ) ;
#1087 = CARTESIAN_POINT ( 'NONE',  ( 110.0000000000000000, 13.00000000000000178, -5.999999999999999112 ) ) ;
#1088 = VECTOR ( 'NONE', #1235, 1000.000000000000000 ) ;
#1089 = ORIENTED_EDGE ( 'NONE', *, *, #260, .T. ) ;
#1090 = CARTESIAN_POINT ( 'NONE',  ( 82.29999999999999716, 2.314819644696197781E-31, 5.999999999999997335 ) ) ;
#1091 = DIRECTION ( 'NONE',  ( 1.000000000000000000, 0.000000000000000000, 0.000000000000000000 ) ) ;
#1092 = DIRECTION ( 'NONE',  ( -1.000000000000000000, 0.000000000000000000, 0.000000000000000000 ) ) ;
#1093 = ORIENTED_EDGE ( 'NONE', *, *, #365, .F. ) ;
#1094 = AXIS2_PLACEMENT_3D ( 'NONE', #40, #28, #1128 ) ;
#1095 = FACE_OUTER_BOUND ( 'NONE', #231, .T. ) ;
#1096 = ORIENTED_EDGE ( 'NONE', *, *, #915, .T. ) ;
#1097 = AXIS2_PLACEMENT_3D ( 'NONE', #212, #987, #1091 ) ;
#1098 = EDGE_CURVE ( 'NONE', #228, #1038, #1069, .T. ) ;
#1099 = DIRECTION ( 'NONE',  ( 0.000000000000000000, -1.000000000000000000, -1.334402673828313093E-16 ) ) ;
#1100 = ORIENTED_EDGE ( 'NONE', *, *, #1208, .F. ) ;
#1101 = AXIS2_PLACEMENT_3D ( 'NONE', #626, #427, #415 ) ;
#1102 = DIRECTION ( 'NONE',  ( 1.000000000000000000, 0.000000000000000000, 0.000000000000000000 ) ) ;
#1103 = VERTEX_POINT ( 'NONE', #580 ) ;
#1104 = AXIS2_PLACEMENT_3D ( 'NONE', #214, #646, #1148 ) ;
#1105 = ORIENTED_EDGE ( 'NONE', *, *, #825, .F. ) ;
#1106 = CIRCLE ( 'NONE', #342, 1.799999999999996048 ) ;
#1107 = CARTESIAN_POINT ( 'NONE',  ( 110.0000000000000000, -15.00000000000000178, 15.00000000000000178 ) ) ;
#1108 = ORIENTED_EDGE ( 'NONE', *, *, #1221, .F. ) ;
#1109 = DIRECTION ( 'NONE',  ( 0.000000000000000000, 1.000000000000000000, 0.000000000000000000 ) ) ;
#1110 = ORIENTED_EDGE ( 'NONE', *, *, #297, .F. ) ;
#1111 = EDGE_CURVE ( 'NONE', #519, #361, #890, .T. ) ;
#1112 = CARTESIAN_POINT ( 'NONE',  ( -80.00000000000000000, -15.00000000000000178, 15.00000000000000178 ) ) ;
#1113 = ORIENTED_EDGE ( 'NONE', *, *, #195, .F. ) ;
#1114 = SURFACE_SIDE_STYLE ('',( #1227 ) ) ;
#1115 = ORIENTED_EDGE ( 'NONE', *, *, #503, .F. ) ;
#1116 = EDGE_CURVE ( 'NONE', #1051, #1194, #22, .T. ) ;
#1117 = LINE ( 'NONE', #489, #1042 ) ;
#1118 = ORIENTED_EDGE ( 'NONE', *, *, #990, .F. ) ;
#1119 = AXIS2_PLACEMENT_3D ( 'NONE', #864, #945, #307 ) ;
#1120 = DIRECTION ( 'NONE',  ( -0.000000000000000000, -0.000000000000000000, 1.000000000000000000 ) ) ;
#1121 = FACE_OUTER_BOUND ( 'NONE', #843, .T. ) ;
#1122 = EDGE_LOOP ( 'NONE', ( #1100, #310, #140, #351 ) ) ;
#1123 = CIRCLE ( 'NONE', #323, 1.799999999999996048 ) ;
#1124 = EDGE_CURVE ( 'NONE', #700, #590, #1015, .T. ) ;
#1125 = CARTESIAN_POINT ( 'NONE',  ( -80.00000000000000000, 15.00000000000000000, 15.00000000000000178 ) ) ;
#1126 = CARTESIAN_POINT ( 'NONE',  ( 75.00000000000000000, 13.00000000000000000, 5.999999999999999112 ) ) ;
#1127 = VECTOR ( 'NONE', #304, 1000.000000000000000 ) ;
#1128 = DIRECTION ( 'NONE',  ( 0.000000000000000000, 0.000000000000000000, 1.000000000000000000 ) ) ;
#1129 = VERTEX_POINT ( 'NONE', #1107 ) ;
#1130 = CARTESIAN_POINT ( 'NONE',  ( 95.00000000000000000, -8.500000000000000000, 15.00000000000000178 ) ) ;
#1131 = EDGE_CURVE ( 'NONE', #702, #1047, #791, .T. ) ;
#1132 = DIRECTION ( 'NONE',  ( 1.000000000000000000, 0.000000000000000000, 0.000000000000000000 ) ) ;
#1133 = ORIENTED_EDGE ( 'NONE', *, *, #757, .F. ) ;
#1134 = AXIS2_PLACEMENT_3D ( 'NONE', #1262, #1162, #64 ) ;
#1135 = DIRECTION ( 'NONE',  ( 1.000000000000000000, 0.000000000000000000, 0.000000000000000000 ) ) ;
#1136 = ORIENTED_EDGE ( 'NONE', *, *, #884, .T. ) ;
#1137 = CARTESIAN_POINT ( 'NONE',  ( 95.00000000000000000, -8.500000000000000000, 12.99999999999999645 ) ) ;
#1138 = CARTESIAN_POINT ( 'NONE',  ( -53.19999999999999574, 9.999999999999968026, 15.00000000000000178 ) ) ;
#1139 = AXIS2_PLACEMENT_3D ( 'NONE', #429, #1043, #186 ) ;
#1140 = AXIS2_PLACEMENT_3D ( 'NONE', #327, #224, #1304 ) ;
#1141 = CARTESIAN_POINT ( 'NONE',  ( 93.30000000000001137, 8.500000000000000000, 15.00000000000000178 ) ) ;
#1142 = FACE_OUTER_BOUND ( 'NONE', #398, .T. ) ;
#1143 = ORIENTED_EDGE ( 'NONE', *, *, #153, .F. ) ;
#1144 = DIRECTION ( 'NONE',  ( 0.000000000000000000, -1.000000000000000000, -1.365923996832131116E-16 ) ) ;
#1145 = AXIS2_PLACEMENT_3D ( 'NONE', #687, #1120, #809 ) ;
#1146 = CARTESIAN_POINT ( 'NONE',  ( -75.00000000000000000, 9.999999999999998224, 15.00000000000000178 ) ) ;
#1147 = FACE_OUTER_BOUND ( 'NONE', #1323, .T. ) ;
#1148 = DIRECTION ( 'NONE',  ( 1.000000000000000000, 0.000000000000000000, 0.000000000000000000 ) ) ;
#1149 = EDGE_CURVE ( 'NONE', #123, #776, #803, .T. ) ;
#1150 = LINE ( 'NONE', #946, #1354 ) ;
#1151 = ORIENTED_EDGE ( 'NONE', *, *, #751, .F. ) ;
#1152 = CARTESIAN_POINT ( 'NONE',  ( 110.0000000000000000, -13.00000000000000000, 12.99999999999999645 ) ) ;
#1153 = FACE_BOUND ( 'NONE', #648, .T. ) ;
#1154 = AXIS2_PLACEMENT_3D ( 'NONE', #908, #778, #900 ) ;
#1155 = ORIENTED_EDGE ( 'NONE', *, *, #112, .F. ) ;
#1156 = FACE_OUTER_BOUND ( 'NONE', #837, .T. ) ;
#1157 = CYLINDRICAL_SURFACE ( 'NONE', #1119, 1.799999999999996048 ) ;
#1158 = CIRCLE ( 'NONE', #549, 1.799999999999996048 ) ;
#1159 = AXIS2_PLACEMENT_3D ( 'NONE', #1242, #364, #1132 ) ;
#1160 = DIRECTION ( 'NONE',  ( 1.000000000000000000, 0.000000000000000000, 0.000000000000000000 ) ) ;
#1161 = ORIENTED_EDGE ( 'NONE', *, *, #522, .F. ) ;
#1162 = DIRECTION ( 'NONE',  ( 0.000000000000000000, -1.334402673828313339E-16, 1.000000000000000000 ) ) ;
#1163 = VECTOR ( 'NONE', #1024, 1000.000000000000000 ) ;
#1164 = ADVANCED_FACE ( 'NONE', ( #369 ), #1322, .F. ) ;
#1165 = DIRECTION ( 'NONE',  ( 0.000000000000000000, 0.000000000000000000, 1.000000000000000000 ) ) ;
#1166 = VERTEX_POINT ( 'NONE', #350 ) ;
#1167 = CYLINDRICAL_SURFACE ( 'NONE', #735, 1.799999999999996048 ) ;
#1168 = DIRECTION ( 'NONE',  ( -0.000000000000000000, -0.000000000000000000, 1.000000000000000000 ) ) ;
#1169 = ORIENTED_EDGE ( 'NONE', *, *, #825, .T. ) ;
#1170 = CIRCLE ( 'NONE', #559, 1.699999999999993072 ) ;
#1171 = CYLINDRICAL_SURFACE ( 'NONE', #382, 1.699999999999993072 ) ;
#1172 = EDGE_LOOP ( 'NONE', ( #138, #569, #957, #451 ) ) ;
#1173 = ADVANCED_FACE ( 'NONE', ( #1121 ), #797, .T. ) ;
#1174 = CARTESIAN_POINT ( 'NONE',  ( -80.00000000000000000, 13.00000000000000000, 13.00000000000000000 ) ) ;
#1175 = EDGE_CURVE ( 'NONE', #425, #296, #546, .T. ) ;
#1176 = ORIENTED_EDGE ( 'NONE', *, *, #113, .T. ) ;
#1177 = CARTESIAN_POINT ( 'NONE',  ( -53.19999999999999574, -10.00000000000001243, 15.00000000000000178 ) ) ;
#1178 = DIRECTION ( 'NONE',  ( 0.000000000000000000, 1.000000000000000000, 1.365923996832131116E-16 ) ) ;
#1179 = CIRCLE ( 'NONE', #747, 1.699999999999998401 ) ;
#1180 = FACE_OUTER_BOUND ( 'NONE', #874, .T. ) ;
#1181 = ORIENTED_EDGE ( 'NONE', *, *, #270, .F. ) ;
#1182 = AXIS2_PLACEMENT_3D ( 'NONE', #823, #799, #1011 ) ;
#1183 = CARTESIAN_POINT ( 'NONE',  ( -80.00000000000000000, -15.00000000000000178, -14.99999999999999822 ) ) ;
#1184 = DIRECTION ( 'NONE',  ( 0.000000000000000000, 1.000000000000000000, 1.365923996832131116E-16 ) ) ;
#1185 = EDGE_CURVE ( 'NONE', #462, #1051, #461, .T. ) ;
#1186 = FACE_OUTER_BOUND ( 'NONE', #455, .T. ) ;
#1187 = DIRECTION ( 'NONE',  ( -1.000000000000000000, 0.000000000000000000, 0.000000000000000000 ) ) ;
#1188 = VERTEX_POINT ( 'NONE', #1212 ) ;
#1189 = CARTESIAN_POINT ( 'NONE',  ( 75.00000000000000000, 13.00000000000000000, 5.999999999999999112 ) ) ;
#1190 = CIRCLE ( 'NONE', #162, 1.799999999999996048 ) ;
#1191 = DIRECTION ( 'NONE',  ( -0.000000000000000000, -0.000000000000000000, 1.000000000000000000 ) ) ;
#1192 = LINE ( 'NONE', #652, #454 ) ;
#1193 = LINE ( 'NONE', #653, #907 ) ;
#1194 = VERTEX_POINT ( 'NONE', #895 ) ;
#1195 = CIRCLE ( 'NONE', #466, 1.799999999999996048 ) ;
#1196 = CARTESIAN_POINT ( 'NONE',  ( -80.00000000000000000, 13.00000000000000178, -13.00000000000000000 ) ) ;
#1197 = AXIS2_PLACEMENT_3D ( 'NONE', #273, #55, #1046 ) ;
#1198 = DIRECTION ( 'NONE',  ( -0.000000000000000000, 1.445602896647339410E-16, -1.000000000000000000 ) ) ;
#1199 = ORIENTED_EDGE ( 'NONE', *, *, #486, .F. ) ;
#1200 = DIRECTION ( 'NONE',  ( 0.000000000000000000, -0.000000000000000000, 1.000000000000000000 ) ) ;
#1201 = ADVANCED_FACE ( 'NONE', ( #789 ), #1333, .F. ) ;
#1202 = DIRECTION ( 'NONE',  ( 0.000000000000000000, 0.000000000000000000, -1.000000000000000000 ) ) ;
#1203 = ORIENTED_EDGE ( 'NONE', *, *, #473, .F. ) ;
#1204 = DIRECTION ( 'NONE',  ( 1.000000000000000000, 0.000000000000000000, 0.000000000000000000 ) ) ;
#1205 = ORIENTED_EDGE ( 'NONE', *, *, #386, .F. ) ;
#1206 = CARTESIAN_POINT ( 'NONE',  ( -56.79999999999999005, 9.999999999999968026, -14.99999999999999822 ) ) ;
#1207 = ORIENTED_EDGE ( 'NONE', *, *, #795, .F. ) ;
#1208 = EDGE_CURVE ( 'NONE', #472, #1310, #244, .T. ) ;
#1209 = AXIS2_PLACEMENT_3D ( 'NONE', #128, #855, #767 ) ;
#1210 = ADVANCED_FACE ( 'NONE', ( #479, #33, #151, #998, #674, #267, #586, #785 ), #696, .T. ) ;
#1211 = EDGE_LOOP ( 'NONE', ( #584, #675, #618, #1394 ) ) ;
#1212 = CARTESIAN_POINT ( 'NONE',  ( 110.0000000000000000, -15.00000000000000178, -14.99999999999999822 ) ) ;
#1213 = VERTEX_POINT ( 'NONE', #1112 ) ;
#1214 = EDGE_CURVE ( 'NONE', #700, #917, #250, .T. ) ;
#1215 = LINE ( 'NONE', #438, #730 ) ;
#1216 = ORIENTED_EDGE ( 'NONE', *, *, #572, .F. ) ;
#1217 = ORIENTED_EDGE ( 'NONE', *, *, #403, .F. ) ;
#1218 = CARTESIAN_POINT ( 'NONE',  ( 75.00000000000000000, -13.00000000000000000, -6.000000000000002665 ) ) ;
#1219 = ORIENTED_EDGE ( 'NONE', *, *, #814, .T. ) ;
#1220 = CARTESIAN_POINT ( 'NONE',  ( 110.0000000000000000, 13.00000000000000178, -13.00000000000000000 ) ) ;
#1221 = EDGE_CURVE ( 'NONE', #74, #1315, #1224, .T. ) ;
#1222 = EDGE_LOOP ( 'NONE', ( #1329, #299 ) ) ;
#1223 = CIRCLE ( 'NONE', #611, 1.799999999999996048 ) ;
#1224 = LINE ( 'NONE', #256, #39 ) ;
#1225 = EDGE_LOOP ( 'NONE', ( #246, #523, #886, #1339 ) ) ;
#1226 = EDGE_CURVE ( 'NONE', #930, #804, #1117, .T. ) ;
#1227 = SURFACE_STYLE_FILL_AREA ( #706 ) ;
#1228 = VECTOR ( 'NONE', #1292, 1000.000000000000000 ) ;
#1229 = ORIENTED_EDGE ( 'NONE', *, *, #1111, .T. ) ;
#1230 = ORIENTED_EDGE ( 'NONE', *, *, #270, .T. ) ;
#1231 = CARTESIAN_POINT ( 'NONE',  ( 95.00000000000000000, 0.000000000000000000, -2.000000000000027978 ) ) ;
#1232 = ORIENTED_EDGE ( 'NONE', *, *, #640, .T. ) ;
#1233 = VECTOR ( 'NONE', #953, 1000.000000000000000 ) ;
#1234 = LINE ( 'NONE', #1125, #949 ) ;
#1235 = DIRECTION ( 'NONE',  ( -0.000000000000000000, -0.000000000000000000, 1.000000000000000000 ) ) ;
#1236 = UNCERTAINTY_MEASURE_WITH_UNIT (LENGTH_MEASURE( 1.000000000000000082E-05 ), #1355, 'distance_accuracy_value', 'NONE');
#1237 = CARTESIAN_POINT ( 'NONE',  ( -76.79999999999999716, -10.00000000000000178, 15.00000000000000178 ) ) ;
#1238 = ORIENTED_EDGE ( 'NONE', *, *, #1041, .T. ) ;
#1239 = CARTESIAN_POINT ( 'NONE',  ( -75.00000000000000000, 9.999999999999998224, -13.00000000000000000 ) ) ;
#1240 = EDGE_CURVE ( 'NONE', #1213, #1129, #407, .T. ) ;
#1241 = CIRCLE ( 'NONE', #82, 1.799999999999996048 ) ;
#1242 = CARTESIAN_POINT ( 'NONE',  ( -54.99999999999999289, 9.999999999999968026, 15.00000000000000178 ) ) ;
#1243 = EDGE_LOOP ( 'NONE', ( #135, #1084 ) ) ;
#1244 = VECTOR ( 'NONE', #1287, 1000.000000000000000 ) ;
#1245 = DIRECTION ( 'NONE',  ( 1.000000000000000000, 0.000000000000000000, 0.000000000000000000 ) ) ;
#1246 = VERTEX_POINT ( 'NONE', #1152 ) ;
#1247 = CARTESIAN_POINT ( 'NONE',  ( -73.20000000000000284, 9.999999999999998224, -14.99999999999999822 ) ) ;
#1248 = DIRECTION ( 'NONE',  ( 0.000000000000000000, -1.000000000000000000, -1.334402673828313339E-16 ) ) ;
#1249 = LINE ( 'NONE', #264, #847 ) ;
#1250 = CARTESIAN_POINT ( 'NONE',  ( -80.00000000000000000, -15.00000000000000178, 15.00000000000000178 ) ) ;
#1251 = VECTOR ( 'NONE', #1059, 1000.000000000000000 ) ;
#1252 = DIRECTION ( 'NONE',  ( -0.000000000000000000, -0.000000000000000000, 1.000000000000000000 ) ) ;
#1253 = VERTEX_POINT ( 'NONE', #835 ) ;
#1254 = CARTESIAN_POINT ( 'NONE',  ( -54.99999999999999289, 9.999999999999968026, 15.00000000000000178 ) ) ;
#1255 = CARTESIAN_POINT ( 'NONE',  ( -80.00000000000000000, 13.00000000000000000, 5.999999999999999112 ) ) ;
#1256 = PLANE ( 'NONE',  #1182 ) ;
#1257 = AXIS2_PLACEMENT_3D ( 'NONE', #929, #1366, #1260 ) ;
#1258 = EDGE_CURVE ( 'NONE', #771, #1305, #1223, .T. ) ;
#1259 = ORIENTED_EDGE ( 'NONE', *, *, #531, .T. ) ;
#1260 = DIRECTION ( 'NONE',  ( 1.000000000000000000, 0.000000000000000000, 0.000000000000000000 ) ) ;
#1261 = ORIENTED_EDGE ( 'NONE', *, *, #1309, .F. ) ;
#1262 = CARTESIAN_POINT ( 'NONE',  ( 95.00000000000000000, 0.000000000000000000, 12.99999999999999822 ) ) ;
#1263 = DIRECTION ( 'NONE',  ( -0.000000000000000000, -0.000000000000000000, 1.000000000000000000 ) ) ;
#1264 = DIRECTION ( 'NONE',  ( 0.000000000000000000, 0.000000000000000000, 1.000000000000000000 ) ) ;
#1265 = CARTESIAN_POINT ( 'NONE',  ( 110.0000000000000000, 13.00000000000000000, 5.999999999999999112 ) ) ;
#1266 = ADVANCED_FACE ( 'NONE', ( #624 ), #269, .F. ) ;
#1267 = EDGE_LOOP ( 'NONE', ( #1054, #994 ) ) ;
#1268 = DIRECTION ( 'NONE',  ( 0.000000000000000000, 0.000000000000000000, -1.000000000000000000 ) ) ;
#1269 = ORIENTED_EDGE ( 'NONE', *, *, #1149, .T. ) ;
#1270 = DIRECTION ( 'NONE',  ( -0.000000000000000000, -0.000000000000000000, 1.000000000000000000 ) ) ;
#1271 = EDGE_CURVE ( 'NONE', #1314, #643, #924, .T. ) ;
#1272 = CYLINDRICAL_SURFACE ( 'NONE', #535, 1.799999999999996048 ) ;
#1273 = AXIS2_PLACEMENT_3D ( 'NONE', #134, #568, #1013 ) ;
#1274 = VERTEX_POINT ( 'NONE', #508 ) ;
#1275 = CARTESIAN_POINT ( 'NONE',  ( -73.20000000000000284, -10.00000000000000178, -14.99999999999999822 ) ) ;
#1276 = CYLINDRICAL_SURFACE ( 'NONE', #317, 1.799999999999996048 ) ;
#1277 = EDGE_CURVE ( 'NONE', #596, #804, #1190, .T. ) ;
#1278 = VECTOR ( 'NONE', #1086, 1000.000000000000000 ) ;
#1279 = ORIENTED_EDGE ( 'NONE', *, *, #45, .T. ) ;
#1280 = AXIS2_PLACEMENT_3D ( 'NONE', #524, #956, #853 ) ;
#1281 = CARTESIAN_POINT ( 'NONE',  ( -54.99999999999999289, 9.999999999999968026, 15.00000000000000178 ) ) ;
#1282 = ORIENTED_EDGE ( 'NONE', *, *, #869, .T. ) ;
#1283 = AXIS2_PLACEMENT_3D ( 'NONE', #614, #819, #399 ) ;
#1284 = EDGE_CURVE ( 'NONE', #1253, #145, #352, .T. ) ;
#1285 = FACE_OUTER_BOUND ( 'NONE', #999, .T. ) ;
#1286 = EDGE_LOOP ( 'NONE', ( #1105, #87, #581, #1334 ) ) ;
#1287 = DIRECTION ( 'NONE',  ( -0.000000000000000000, -0.000000000000000000, 1.000000000000000000 ) ) ;
#1288 = AXIS2_PLACEMENT_3D ( 'NONE', #1146, #616, #401 ) ;
#1289 = DIRECTION ( 'NONE',  ( -0.000000000000000000, -0.000000000000000000, 1.000000000000000000 ) ) ;
#1290 = CARTESIAN_POINT ( 'NONE',  ( -56.79999999999999005, -10.00000000000001243, 15.00000000000000178 ) ) ;
#1291 = ORIENTED_EDGE ( 'NONE', *, *, #1408, .F. ) ;
#1292 = DIRECTION ( 'NONE',  ( 0.000000000000000000, 1.000000000000000000, 0.000000000000000000 ) ) ;
#1293 = DIRECTION ( 'NONE',  ( 0.000000000000000000, -0.000000000000000000, -1.000000000000000000 ) ) ;
#1294 = EDGE_CURVE ( 'NONE', #74, #1314, #796, .T. ) ;
#1295 = LINE ( 'NONE', #952, #1346 ) ;
#1296 = CARTESIAN_POINT ( 'NONE',  ( 110.0000000000000000, 15.00000000000000000, 15.00000000000000178 ) ) ;
#1297 = ORIENTED_EDGE ( 'NONE', *, *, #511, .F. ) ;
#1298 = DIRECTION ( 'NONE',  ( 1.000000000000000000, 0.000000000000000000, 0.000000000000000000 ) ) ;
#1299 = ORIENTED_EDGE ( 'NONE', *, *, #522, .T. ) ;
#1300 = APPLICATION_CONTEXT ( 'automotive_design' ) ;
#1301 = DIRECTION ( 'NONE',  ( 0.000000000000000000, -1.334402673828313093E-16, 1.000000000000000000 ) ) ;
#1302 = LINE ( 'NONE', #755, #50 ) ;
#1303 = DIRECTION ( 'NONE',  ( 0.000000000000000000, -1.000000000000000000, 0.000000000000000000 ) ) ;
#1304 = DIRECTION ( 'NONE',  ( 0.000000000000000000, -1.000000000000000000, 0.000000000000000000 ) ) ;
#1305 = VERTEX_POINT ( 'NONE', #501 ) ;
#1306 = CARTESIAN_POINT ( 'NONE',  ( -80.00000000000000000, 15.00000000000000000, 15.00000000000000178 ) ) ;
#1307 = DIRECTION ( 'NONE',  ( 0.000000000000000000, 0.000000000000000000, 1.000000000000000000 ) ) ;
#1308 = DIRECTION ( 'NONE',  ( 1.000000000000000000, 0.000000000000000000, 0.000000000000000000 ) ) ;
#1309 = EDGE_CURVE ( 'NONE', #368, #921, #720, .T. ) ;
#1310 = VERTEX_POINT ( 'NONE', #805 ) ;
#1311 = FACE_BOUND ( 'NONE', #41, .T. ) ;
#1312 = ORIENTED_EDGE ( 'NONE', *, *, #978, .T. ) ;
#1313 = CARTESIAN_POINT ( 'NONE',  ( -54.99999999999999289, 9.999999999999968026, 15.00000000000000178 ) ) ;
#1314 = VERTEX_POINT ( 'NONE', #698 ) ;
#1315 = VERTEX_POINT ( 'NONE', #517 ) ;
#1316 = EDGE_CURVE ( 'NONE', #693, #759, #374, .T. ) ;
#1317 = EDGE_LOOP ( 'NONE', ( #988, #384, #1181, #1110 ) ) ;
#1318 = DIRECTION ( 'NONE',  ( -0.000000000000000000, -0.000000000000000000, 1.000000000000000000 ) ) ;
#1319 = ORIENTED_EDGE ( 'NONE', *, *, #477, .T. ) ;
#1320 = EDGE_CURVE ( 'NONE', #145, #1253, #99, .T. ) ;
#1321 = ORIENTED_EDGE ( 'NONE', *, *, #131, .F. ) ;
#1322 = CYLINDRICAL_SURFACE ( 'NONE', #366, 1.699999999999993072 ) ;
#1323 = EDGE_LOOP ( 'NONE', ( #388, #17, #290, #1093 ) ) ;
#1324 = EDGE_CURVE ( 'NONE', #633, #1103, #1021, .T. ) ;
#1325 = DIRECTION ( 'NONE',  ( -0.000000000000000000, -0.000000000000000000, 1.000000000000000000 ) ) ;
#1326 = ORIENTED_EDGE ( 'NONE', *, *, #806, .F. ) ;
#1327 = DIRECTION ( 'NONE',  ( 1.000000000000000000, 0.000000000000000000, 0.000000000000000000 ) ) ;
#1328 = CIRCLE ( 'NONE', #1373, 1.799999999999996048 ) ;
#1329 = ORIENTED_EDGE ( 'NONE', *, *, #467, .F. ) ;
#1330 = EDGE_CURVE ( 'NONE', #738, #90, #704, .T. ) ;
#1331 = CARTESIAN_POINT ( 'NONE',  ( -73.20000000000000284, -10.00000000000000178, 15.00000000000000178 ) ) ;
#1332 = VERTEX_POINT ( 'NONE', #160 ) ;
#1333 = CYLINDRICAL_SURFACE ( 'NONE', #840, 3.600000000000005862 ) ;
#1334 = ORIENTED_EDGE ( 'NONE', *, *, #463, .F. ) ;
#1335 = DIRECTION ( 'NONE',  ( -0.000000000000000000, -0.000000000000000000, 1.000000000000000000 ) ) ;
#1336 = ORIENTED_EDGE ( 'NONE', *, *, #628, .T. ) ;
#1337 = VECTOR ( 'NONE', #1022, 1000.000000000000000 ) ;
#1338 = CARTESIAN_POINT ( 'NONE',  ( -80.00000000000000000, -13.00000000000000000, 12.99999999999999645 ) ) ;
#1339 = ORIENTED_EDGE ( 'NONE', *, *, #915, .F. ) ;
#1340 = VECTOR ( 'NONE', #1026, 1000.000000000000000 ) ;
#1341 = DIRECTION ( 'NONE',  ( 1.000000000000000000, 0.000000000000000000, 0.000000000000000000 ) ) ;
#1342 = VERTEX_POINT ( 'NONE', #1247 ) ;
#1343 = ADVANCED_FACE ( 'NONE', ( #175 ), #1039, .F. ) ;
#1344 = DIRECTION ( 'NONE',  ( 1.000000000000000000, 0.000000000000000000, 0.000000000000000000 ) ) ;
#1345 = EDGE_LOOP ( 'NONE', ( #71, #34, #367, #97 ) ) ;
#1346 = VECTOR ( 'NONE', #206, 1000.000000000000000 ) ;
#1347 = EDGE_CURVE ( 'NONE', #590, #700, #889, .T. ) ;
#1348 = FACE_OUTER_BOUND ( 'NONE', #1367, .T. ) ;
#1349 = CARTESIAN_POINT ( 'NONE',  ( 110.0000000000000000, 15.00000000000000000, 15.00000000000000178 ) ) ;
#1350 = ORIENTED_EDGE ( 'NONE', *, *, #503, .T. ) ;
#1351 = CARTESIAN_POINT ( 'NONE',  ( -53.19999999999999574, 9.999999999999968026, 13.00000000000000000 ) ) ;
#1352 = ORIENTED_EDGE ( 'NONE', *, *, #1320, .T. ) ;
#1353 = DIRECTION ( 'NONE',  ( 0.000000000000000000, 1.334402673828313093E-16, -1.000000000000000000 ) ) ;
#1354 = VECTOR ( 'NONE', #1268, 1000.000000000000000 ) ;
#1355 =( LENGTH_UNIT ( ) NAMED_UNIT ( * ) SI_UNIT ( .MILLI., .METRE. ) );
#1356 = ORIENTED_EDGE ( 'NONE', *, *, #403, .T. ) ;
#1357 = CIRCLE ( 'NONE', #154, 1.699999999999993072 ) ;
#1358 = CARTESIAN_POINT ( 'NONE',  ( -73.20000000000000284, 9.999999999999998224, 15.00000000000000178 ) ) ;
#1359 = ORIENTED_EDGE ( 'NONE', *, *, #511, .T. ) ;
#1360 = DIRECTION ( 'NONE',  ( -0.000000000000000000, -0.000000000000000000, 1.000000000000000000 ) ) ;
#1361 = CARTESIAN_POINT ( 'NONE',  ( -75.00000000000000000, -10.00000000000000178, 15.00000000000000178 ) ) ;
#1362 = EDGE_CURVE ( 'NONE', #69, #734, #279, .T. ) ;
#1363 = FACE_BOUND ( 'NONE', #667, .T. ) ;
#1364 = EDGE_LOOP ( 'NONE', ( #613, #1205 ) ) ;
#1365 = PRODUCT_DEFINITION_FORMATION_WITH_SPECIFIED_SOURCE ( 'ANY', '', #970, .NOT_KNOWN. ) ;
#1366 = DIRECTION ( 'NONE',  ( -0.000000000000000000, -0.000000000000000000, 1.000000000000000000 ) ) ;
#1367 = EDGE_LOOP ( 'NONE', ( #679, #491, #533, #235 ) ) ;
#1368 = DIRECTION ( 'NONE',  ( -0.000000000000000000, -0.000000000000000000, 1.000000000000000000 ) ) ;
#1369 = PLANE ( 'NONE',  #1025 ) ;
#1370 = EDGE_CURVE ( 'NONE', #746, #1274, #1079, .T. ) ;
#1371 = CARTESIAN_POINT ( 'NONE',  ( 95.00000000000000000, 0.000000000000000000, -6.000000000000001776 ) ) ;
#1372 = LINE ( 'NONE', #1389, #510 ) ;
#1373 = AXIS2_PLACEMENT_3D ( 'NONE', #1393, #677, #1109 ) ;
#1374 = DIRECTION ( 'NONE',  ( 1.000000000000000000, 0.000000000000000000, 0.000000000000000000 ) ) ;
#1375 = VERTEX_POINT ( 'NONE', #607 ) ;
#1376 = CARTESIAN_POINT ( 'NONE',  ( -80.00000000000000000, -15.00000000000000178, 15.00000000000000178 ) ) ;
#1377 = DIRECTION ( 'NONE',  ( -0.000000000000000000, -0.000000000000000000, 1.000000000000000000 ) ) ;
#1378 = ORIENTED_EDGE ( 'NONE', *, *, #978, .F. ) ;
#1379 = CARTESIAN_POINT ( 'NONE',  ( -80.00000000000000000, 15.00000000000000000, -14.99999999999999822 ) ) ;
#1380 = CARTESIAN_POINT ( 'NONE',  ( 107.7000000000000028, 1.555301434917139616E-15, 5.999999999999997335 ) ) ;
#1381 = EDGE_CURVE ( 'NONE', #1188, #932, #654, .T. ) ;
#1382 = CIRCLE ( 'NONE', #882, 3.600000000000001421 ) ;
#1383 = DIRECTION ( 'NONE',  ( -0.000000000000000000, -0.000000000000000000, 1.000000000000000000 ) ) ;
#1384 = ORIENTED_EDGE ( 'NONE', *, *, #640, .F. ) ;
#1385 = DIRECTION ( 'NONE',  ( 0.000000000000000000, 1.334402673828313093E-16, -1.000000000000000000 ) ) ;
#1386 = FACE_BOUND ( 'NONE', #1267, .T. ) ;
#1387 = VERTEX_POINT ( 'NONE', #440 ) ;
#1388 = CARTESIAN_POINT ( 'NONE',  ( 93.30000000000001137, 8.500000000000000000, 13.00000000000000000 ) ) ;
#1389 = CARTESIAN_POINT ( 'NONE',  ( 107.7000000000000028, 1.555301434917139024E-15, 8.000000000000037303 ) ) ;
#1390 = CIRCLE ( 'NONE', #1209, 1.799999999999996048 ) ;
#1391 = EDGE_LOOP ( 'NONE', ( #1312, #560 ) ) ;
#1392 = ADVANCED_FACE ( 'NONE', ( #872 ), #1068, .T. ) ;
#1393 = CARTESIAN_POINT ( 'NONE',  ( -54.99999999999999289, -10.00000000000001243, -13.00000000000000355 ) ) ;
#1394 = ORIENTED_EDGE ( 'NONE', *, *, #672, .F. ) ;
#1395 = CARTESIAN_POINT ( 'NONE',  ( -54.99999999999999289, 9.999999999999968026, -13.00000000000000000 ) ) ;
#1396 = DIRECTION ( 'NONE',  ( 1.000000000000000000, 0.000000000000000000, 0.000000000000000000 ) ) ;
#1397 = CIRCLE ( 'NONE', #168, 1.799999999999996048 ) ;
#1398 = LINE ( 'NONE', #189, #627 ) ;
#1399 = DIRECTION ( 'NONE',  ( -0.000000000000000000, -0.000000000000000000, 1.000000000000000000 ) ) ;
#1400 = ORIENTED_EDGE ( 'NONE', *, *, #373, .F. ) ;
#1401 = FACE_OUTER_BOUND ( 'NONE', #961, .T. ) ;
#1402 = DIRECTION ( 'NONE',  ( 0.000000000000000000, 1.334402673828313339E-16, -1.000000000000000000 ) ) ;
#1403 = CARTESIAN_POINT ( 'NONE',  ( -80.00000000000000000, -15.00000000000000178, 15.00000000000000178 ) ) ;
#1404 = EDGE_CURVE ( 'NONE', #1315, #643, #24, .T. ) ;
#1405 = CARTESIAN_POINT ( 'NONE',  ( -56.79999999999999005, 9.999999999999968026, 15.00000000000000178 ) ) ;
#1406 = ORIENTED_EDGE ( 'NONE', *, *, #1061, .T. ) ;
#1407 = DIRECTION ( 'NONE',  ( 0.000000000000000000, 1.000000000000000000, 0.000000000000000000 ) ) ;
#1408 = EDGE_CURVE ( 'NONE', #734, #1103, #321, .T. ) ;
#1409 = FACE_BOUND ( 'NONE', #341, .T. ) ;
#1410 = VERTEX_POINT ( 'NONE', #867 ) ;
#1411 = DIRECTION ( 'NONE',  ( -0.000000000000000000, 1.000000000000000000, 0.000000000000000000 ) ) ;
ENDSEC;
END-ISO-10303-21;
