ISO-10303-21;
HEADER;
FILE_DESCRIPTION (( 'STEP AP214' ),
    '1' );
FILE_NAME ('leg_lower_1.STEP',
    '2026-04-08T04:32:47',
    ( '' ),
    ( '' ),
    'SwSTEP 2.0',
    'SolidWorks 2025',
    '' );
FILE_SCHEMA (( 'AUTOMOTIVE_DESIGN' ));
ENDSEC;

DATA;
#1 = VERTEX_POINT ( 'NONE', #112 ) ;
#2 = AXIS2_PLACEMENT_3D ( 'NONE', #1020, #220, #215 ) ;
#3 = CARTESIAN_POINT ( 'NONE',  ( 25.00000000000000000, 10.00000000000000355, -14.99999999999999822 ) ) ;
#4 = CYLINDRICAL_SURFACE ( 'NONE', #64, 3.600000000000005862 ) ;
#5 = CARTESIAN_POINT ( 'NONE',  ( 23.30000000000001137, -10.00000000000000000, 12.99999999999999645 ) ) ;
#6 = EDGE_LOOP ( 'NONE', ( #822, #620, #197, #696 ) ) ;
#7 = ORIENTED_EDGE ( 'NONE', *, *, #1003, .T. ) ;
#8 = AXIS2_PLACEMENT_3D ( 'NONE', #504, #632, #315 ) ;
#9 = DIRECTION ( 'NONE',  ( -1.000000000000000000, -0.000000000000000000, -0.000000000000000000 ) ) ;
#10 = DIRECTION ( 'NONE',  ( 0.000000000000000000, -0.000000000000000000, -1.000000000000000000 ) ) ;
#11 = UNCERTAINTY_MEASURE_WITH_UNIT (LENGTH_MEASURE( 1.000000000000000082E-05 ), #1245, 'distance_accuracy_value', 'NONE');
#12 = CARTESIAN_POINT ( 'NONE',  ( 0.000000000000000000, 0.000000000000000000, 0.000000000000000000 ) ) ;
#13 = ADVANCED_FACE ( 'NONE', ( #36 ), #1142, .F. ) ;
#14 = VERTEX_POINT ( 'NONE', #743 ) ;
#15 = EDGE_CURVE ( 'NONE', #428, #1086, #1240, .T. ) ;
#16 = CARTESIAN_POINT ( 'NONE',  ( 6.699999999999997513, -10.00000000000000178, -14.99999999999999822 ) ) ;
#17 = CARTESIAN_POINT ( 'NONE',  ( 23.30000000000001137, -10.00000000000000000, 15.00000000000000178 ) ) ;
#18 = DIRECTION ( 'NONE',  ( -1.000000000000000000, -0.000000000000000000, -0.000000000000000000 ) ) ;
#19 = ORIENTED_EDGE ( 'NONE', *, *, #1105, .F. ) ;
#20 = LINE ( 'NONE', #829, #912 ) ;
#21 = DIRECTION ( 'NONE',  ( -0.000000000000000000, -0.000000000000000000, 1.000000000000000000 ) ) ;
#22 = DIRECTION ( 'NONE',  ( -0.000000000000000000, -0.000000000000000000, 1.000000000000000000 ) ) ;
#23 = VERTEX_POINT ( 'NONE', #526 ) ;
#24 = VERTEX_POINT ( 'NONE', #1146 ) ;
#25 = DIRECTION ( 'NONE',  ( 1.000000000000000000, 0.000000000000000000, 0.000000000000000000 ) ) ;
#26 = ADVANCED_BREP_SHAPE_REPRESENTATION ( 'leg_lower_1', ( #731, #667 ), #603 ) ;
#27 = CARTESIAN_POINT ( 'NONE',  ( 3.300000000000007816, -10.00000000000000178, -14.99999999999999822 ) ) ;
#28 = EDGE_CURVE ( 'NONE', #785, #258, #265, .T. ) ;
#29 = VECTOR ( 'NONE', #409, 1000.000000000000000 ) ;
#30 = CYLINDRICAL_SURFACE ( 'NONE', #2, 1.699999999999989742 ) ;
#31 = STYLED_ITEM ( 'NONE', ( #1143 ), #731 ) ;
#32 = CARTESIAN_POINT ( 'NONE',  ( 25.00000000000000000, 10.00000000000000355, 13.00000000000000000 ) ) ;
#33 = ADVANCED_FACE ( 'NONE', ( #119, #916 ), #717, .T. ) ;
#34 = CIRCLE ( 'NONE', #1282, 12.70000000000000462 ) ;
#35 = CIRCLE ( 'NONE', #773, 1.699999999999991518 ) ;
#36 = FACE_OUTER_BOUND ( 'NONE', #444, .T. ) ;
#37 = EDGE_LOOP ( 'NONE', ( #725, #1092 ) ) ;
#38 = VECTOR ( 'NONE', #312, 1000.000000000000000 ) ;
#39 = CARTESIAN_POINT ( 'NONE',  ( 75.00000000000000000, 8.500000000000000000, 15.00000000000000178 ) ) ;
#40 = AXIS2_PLACEMENT_3D ( 'NONE', #47, #1075, #450 ) ;
#41 = CARTESIAN_POINT ( 'NONE',  ( 23.30000000000001137, -10.00000000000000000, -13.00000000000000355 ) ) ;
#42 = CARTESIAN_POINT ( 'NONE',  ( 5.000000000000002665, -10.00000000000000178, -14.99999999999999822 ) ) ;
#43 = CARTESIAN_POINT ( 'NONE',  ( 90.00000000000000000, 15.00000000000000000, -14.99999999999999822 ) ) ;
#44 = ORIENTED_EDGE ( 'NONE', *, *, #292, .T. ) ;
#45 = AXIS2_PLACEMENT_3D ( 'NONE', #1295, #796, #383 ) ;
#46 = DIRECTION ( 'NONE',  ( -1.000000000000000000, 0.000000000000000000, -0.000000000000000000 ) ) ;
#47 = CARTESIAN_POINT ( 'NONE',  ( 75.00000000000000000, -8.500000000000000000, 12.99999999999999645 ) ) ;
#48 = CARTESIAN_POINT ( 'NONE',  ( 25.00000000000000000, 10.00000000000000355, 15.00000000000000178 ) ) ;
#49 = AXIS2_PLACEMENT_3D ( 'NONE', #1140, #127, #109 ) ;
#50 = ORIENTED_EDGE ( 'NONE', *, *, #310, .F. ) ;
#51 = ADVANCED_FACE ( 'NONE', ( #921 ), #222, .T. ) ;
#52 = FACE_OUTER_BOUND ( 'NONE', #730, .T. ) ;
#53 = DIRECTION ( 'NONE',  ( -0.000000000000000000, -0.000000000000000000, 1.000000000000000000 ) ) ;
#54 = CARTESIAN_POINT ( 'NONE',  ( 90.00000000000000000, -15.00000000000000178, -14.99999999999999822 ) ) ;
#55 = ORIENTED_EDGE ( 'NONE', *, *, #915, .T. ) ;
#56 = ADVANCED_FACE ( 'NONE', ( #1028 ), #321, .F. ) ;
#57 = ADVANCED_FACE ( 'NONE', ( #1038 ), #1133, .F. ) ;
#58 = PLANE ( 'NONE',  #1291 ) ;
#59 = VECTOR ( 'NONE', #252, 1000.000000000000000 ) ;
#60 = LINE ( 'NONE', #461, #471 ) ;
#61 = DIRECTION ( 'NONE',  ( -0.000000000000000000, 1.000000000000000000, 0.000000000000000000 ) ) ;
#62 = CARTESIAN_POINT ( 'NONE',  ( 90.00000000000000000, -13.00000000000000000, 12.99999999999999645 ) ) ;
#63 = ORIENTED_EDGE ( 'NONE', *, *, #670, .T. ) ;
#64 = AXIS2_PLACEMENT_3D ( 'NONE', #122, #232, #1036 ) ;
#65 = ORIENTED_EDGE ( 'NONE', *, *, #1315, .T. ) ;
#66 = CARTESIAN_POINT ( 'NONE',  ( 20.36467529817244326, 15.00000000000000000, 15.00000000000000178 ) ) ;
#67 = PRODUCT_RELATED_PRODUCT_CATEGORY ( 'part', '', ( #1241 ) ) ;
#68 = DIRECTION ( 'NONE',  ( -0.000000000000000000, -1.000000000000000000, -0.000000000000000000 ) ) ;
#69 = VECTOR ( 'NONE', #325, 1000.000000000000000 ) ;
#70 = EDGE_LOOP ( 'NONE', ( #1134, #826, #223, #44 ) ) ;
#71 = ORIENTED_EDGE ( 'NONE', *, *, #441, .F. ) ;
#72 = EDGE_CURVE ( 'NONE', #258, #785, #370, .T. ) ;
#73 = FACE_OUTER_BOUND ( 'NONE', #1008, .T. ) ;
#74 = DIRECTION ( 'NONE',  ( 0.000000000000000000, -1.000000000000000000, 0.000000000000000000 ) ) ;
#75 = EDGE_CURVE ( 'NONE', #955, #600, #367, .T. ) ;
#76 = DIRECTION ( 'NONE',  ( 0.000000000000000000, -1.000000000000000000, -1.334402673828313093E-16 ) ) ;
#77 = VERTEX_POINT ( 'NONE', #862 ) ;
#78 = CIRCLE ( 'NONE', #1174, 12.70000000000000284 ) ;
#79 = ORIENTED_EDGE ( 'NONE', *, *, #1252, .F. ) ;
#80 = CARTESIAN_POINT ( 'NONE',  ( 25.00000000000000000, 10.00000000000000355, -13.00000000000000000 ) ) ;
#81 = APPLICATION_CONTEXT ( 'automotive_design' ) ;
#82 = VECTOR ( 'NONE', #547, 1000.000000000000000 ) ;
#83 = LINE ( 'NONE', #802, #642 ) ;
#84 = DIRECTION ( 'NONE',  ( -0.000000000000000000, -0.000000000000000000, 1.000000000000000000 ) ) ;
#85 = ORIENTED_EDGE ( 'NONE', *, *, #745, .F. ) ;
#86 = VERTEX_POINT ( 'NONE', #1169 ) ;
#87 = DIRECTION ( 'NONE',  ( 0.000000000000000000, 0.000000000000000000, -1.000000000000000000 ) ) ;
#88 = CARTESIAN_POINT ( 'NONE',  ( 90.00000000000000000, 13.00000000000000000, 13.00000000000000000 ) ) ;
#89 = CARTESIAN_POINT ( 'NONE',  ( 25.00000000000000000, 10.00000000000000355, 15.00000000000000355 ) ) ;
#90 = ORIENTED_EDGE ( 'NONE', *, *, #75, .F. ) ;
#91 = EDGE_CURVE ( 'NONE', #811, #955, #639, .T. ) ;
#92 = ORIENTED_EDGE ( 'NONE', *, *, #1090, .T. ) ;
#93 = CARTESIAN_POINT ( 'NONE',  ( 3.300000000000011369, -10.00000000000000178, 12.99999999999999645 ) ) ;
#94 = FACE_OUTER_BOUND ( 'NONE', #219, .T. ) ;
#95 = CYLINDRICAL_SURFACE ( 'NONE', #263, 1.699999999999993072 ) ;
#96 = EDGE_LOOP ( 'NONE', ( #1297, #965, #865, #821 ) ) ;
#97 = ORIENTED_EDGE ( 'NONE', *, *, #213, .T. ) ;
#98 = AXIS2_PLACEMENT_3D ( 'NONE', #623, #742, #830 ) ;
#99 = VECTOR ( 'NONE', #68, 1000.000000000000000 ) ;
#100 = ORIENTED_EDGE ( 'NONE', *, *, #510, .F. ) ;
#101 = CARTESIAN_POINT ( 'NONE',  ( 25.00000000000000000, 10.00000000000000355, 15.00000000000000178 ) ) ;
#102 = CARTESIAN_POINT ( 'NONE',  ( 18.36467529817246458, 12.99999999999999822, -13.00000000000000000 ) ) ;
#103 = LINE ( 'NONE', #497, #770 ) ;
#104 = ORIENTED_EDGE ( 'NONE', *, *, #347, .T. ) ;
#105 = AXIS2_PLACEMENT_3D ( 'NONE', #835, #841, #340 ) ;
#106 = AXIS2_PLACEMENT_3D ( 'NONE', #170, #683, #273 ) ;
#107 = ORIENTED_EDGE ( 'NONE', *, *, #1063, .T. ) ;
#108 = CARTESIAN_POINT ( 'NONE',  ( 6.699999999999993960, -10.00000000000000178, 12.99999999999999645 ) ) ;
#109 = DIRECTION ( 'NONE',  ( -1.000000000000000000, 0.000000000000000000, 0.000000000000000000 ) ) ;
#110 = DIRECTION ( 'NONE',  ( -0.000000000000000000, -0.000000000000000000, 1.000000000000000000 ) ) ;
#111 = EDGE_CURVE ( 'NONE', #691, #144, #35, .T. ) ;
#112 = CARTESIAN_POINT ( 'NONE',  ( 76.69999999999998863, 8.500000000000000000, 15.00000000000000178 ) ) ;
#113 = CIRCLE ( 'NONE', #842, 1.699999999999989742 ) ;
#114 = ORIENTED_EDGE ( 'NONE', *, *, #736, .T. ) ;
#115 = DIRECTION ( 'NONE',  ( -0.000000000000000000, -0.000000000000000000, 1.000000000000000000 ) ) ;
#116 = ADVANCED_FACE ( 'NONE', ( #462 ), #868, .F. ) ;
#117 = LINE ( 'NONE', #123, #415 ) ;
#118 = ADVANCED_FACE ( 'NONE', ( #1052 ), #1060, .T. ) ;
#119 = FACE_BOUND ( 'NONE', #275, .T. ) ;
#120 = ORIENTED_EDGE ( 'NONE', *, *, #443, .T. ) ;
#121 = AXIS2_PLACEMENT_3D ( 'NONE', #421, #22, #729 ) ;
#122 = CARTESIAN_POINT ( 'NONE',  ( 75.00000000000000000, 0.000000000000000000, -2.000000000000027978 ) ) ;
#123 = CARTESIAN_POINT ( 'NONE',  ( 90.00000000000000000, 13.00000000000000000, 13.00000000000000000 ) ) ;
#124 = ORIENTED_EDGE ( 'NONE', *, *, #803, .T. ) ;
#125 = AXIS2_PLACEMENT_3D ( 'NONE', #564, #456, #551 ) ;
#126 = ORIENTED_EDGE ( 'NONE', *, *, #1149, .F. ) ;
#127 = DIRECTION ( 'NONE',  ( -0.000000000000000000, -0.000000000000000000, -1.000000000000000000 ) ) ;
#128 = DIRECTION ( 'NONE',  ( 1.000000000000000000, 0.000000000000000000, 0.000000000000000000 ) ) ;
#129 = ORIENTED_EDGE ( 'NONE', *, *, #986, .T. ) ;
#130 = VERTEX_POINT ( 'NONE', #150 ) ;
#131 = VERTEX_POINT ( 'NONE', #754 ) ;
#132 = EDGE_CURVE ( 'NONE', #1296, #519, #451, .T. ) ;
#133 = CARTESIAN_POINT ( 'NONE',  ( 90.00000000000000000, 13.00000000000000178, -5.999999999999999112 ) ) ;
#134 = FACE_BOUND ( 'NONE', #901, .T. ) ;
#135 = ORIENTED_EDGE ( 'NONE', *, *, #1164, .F. ) ;
#136 = ORIENTED_EDGE ( 'NONE', *, *, #1129, .T. ) ;
#137 = LINE ( 'NONE', #978, #561 ) ;
#138 = EDGE_CURVE ( 'NONE', #1232, #259, #1278, .T. ) ;
#139 = FACE_OUTER_BOUND ( 'NONE', #756, .T. ) ;
#140 = CIRCLE ( 'NONE', #708, 1.699999999999993072 ) ;
#141 = CARTESIAN_POINT ( 'NONE',  ( 26.69999999999999218, -10.00000000000000000, 15.00000000000000178 ) ) ;
#142 = CLOSED_SHELL ( 'NONE', ( #56, #470, #1150, #385, #850, #116, #861, #214, #831, #402, #518, #51, #1272, #911, #594, #237, #992, #521, #33, #250, #906, #1013, #118, #288, #653, #454, #1035, #780, #886, #1222, #1189, #1205, #678, #13, #57, #778 ) ) ;
#143 = CARTESIAN_POINT ( 'NONE',  ( 0.000000000000000000, -13.00000000000000000, 12.99999999999999645 ) ) ;
#144 = VERTEX_POINT ( 'NONE', #565 ) ;
#145 = AXIS2_PLACEMENT_3D ( 'NONE', #989, #888, #1197 ) ;
#146 = DIRECTION ( 'NONE',  ( -1.000000000000000000, -0.000000000000000000, -0.000000000000000000 ) ) ;
#147 = FACE_BOUND ( 'NONE', #372, .T. ) ;
#148 = CARTESIAN_POINT ( 'NONE',  ( 75.00000000000000000, -8.500000000000000000, 15.00000000000000178 ) ) ;
#149 = VECTOR ( 'NONE', #158, 1000.000000000000000 ) ;
#150 = CARTESIAN_POINT ( 'NONE',  ( 26.69999999999999218, 10.00000000000000355, -13.00000000000000000 ) ) ;
#151 = EDGE_LOOP ( 'NONE', ( #100, #71 ) ) ;
#152 = CARTESIAN_POINT ( 'NONE',  ( 87.70000000000000284, 1.555301434917139024E-15, 8.000000000000037303 ) ) ;
#153 = DIRECTION ( 'NONE',  ( 0.000000000000000000, 0.000000000000000000, 1.000000000000000000 ) ) ;
#154 = EDGE_CURVE ( 'NONE', #1017, #806, #1302, .T. ) ;
#155 = CARTESIAN_POINT ( 'NONE',  ( 20.36467529817244326, 15.00000000000000000, 28.00000000000000355 ) ) ;
#156 = EDGE_CURVE ( 'NONE', #478, #352, #665, .T. ) ;
#157 = ORIENTED_EDGE ( 'NONE', *, *, #966, .T. ) ;
#158 = DIRECTION ( 'NONE',  ( -0.000000000000000000, -0.000000000000000000, -1.000000000000000000 ) ) ;
#159 = CARTESIAN_POINT ( 'NONE',  ( 75.00000000000000000, 8.500000000000000000, -2.000000000000027978 ) ) ;
#160 = CYLINDRICAL_SURFACE ( 'NONE', #815, 1.699999999999993072 ) ;
#161 = AXIS2_PLACEMENT_3D ( 'NONE', #32, #933, #440 ) ;
#162 = VECTOR ( 'NONE', #552, 1000.000000000000000 ) ;
#163 = VERTEX_POINT ( 'NONE', #351 ) ;
#164 = ORIENTED_EDGE ( 'NONE', *, *, #930, .T. ) ;
#165 = DIRECTION ( 'NONE',  ( 0.000000000000000000, -1.334402673828313339E-16, 1.000000000000000000 ) ) ;
#166 = AXIS2_PLACEMENT_3D ( 'NONE', #42, #1022, #216 ) ;
#167 = CARTESIAN_POINT ( 'NONE',  ( 59.00000000000003553, -13.00000000000000000, 5.999999999999995559 ) ) ;
#168 = VECTOR ( 'NONE', #146, 1000.000000000000000 ) ;
#169 = DIRECTION ( 'NONE',  ( 0.000000000000000000, 0.000000000000000000, -1.000000000000000000 ) ) ;
#170 = CARTESIAN_POINT ( 'NONE',  ( 25.00000000000000000, 10.00000000000000355, -14.99999999999999822 ) ) ;
#171 = ORIENTED_EDGE ( 'NONE', *, *, #156, .F. ) ;
#172 = EDGE_CURVE ( 'NONE', #428, #422, #855, .T. ) ;
#173 = AXIS2_PLACEMENT_3D ( 'NONE', #319, #721, #1025 ) ;
#174 = EDGE_CURVE ( 'NONE', #416, #144, #1044, .T. ) ;
#175 = VERTEX_POINT ( 'NONE', #542 ) ;
#176 = CARTESIAN_POINT ( 'NONE',  ( 90.00000000000000000, -15.00000000000000178, -14.99999999999999822 ) ) ;
#177 = CARTESIAN_POINT ( 'NONE',  ( 23.30000000000001492, 10.00000000000000355, 15.00000000000000355 ) ) ;
#178 = DIRECTION ( 'NONE',  ( -0.000000000000000000, 1.000000000000000000, 1.334402673828313093E-16 ) ) ;
#179 = ORIENTED_EDGE ( 'NONE', *, *, #1264, .T. ) ;
#180 = VERTEX_POINT ( 'NONE', #43 ) ;
#181 = CARTESIAN_POINT ( 'NONE',  ( 76.69999999999998863, -8.500000000000000000, 12.99999999999999645 ) ) ;
#182 = EDGE_CURVE ( 'NONE', #806, #1017, #663, .T. ) ;
#183 = DIRECTION ( 'NONE',  ( 0.000000000000000000, 1.334402673828313339E-16, -1.000000000000000000 ) ) ;
#184 = SURFACE_SIDE_STYLE ('',( #963 ) ) ;
#185 = ORIENTED_EDGE ( 'NONE', *, *, #301, .T. ) ;
#186 = VECTOR ( 'NONE', #345, 1000.000000000000000 ) ;
#187 = VERTEX_POINT ( 'NONE', #761 ) ;
#188 = CARTESIAN_POINT ( 'NONE',  ( 90.00000000000000000, -15.00000000000000178, 15.00000000000000178 ) ) ;
#189 = VECTOR ( 'NONE', #747, 1000.000000000000000 ) ;
#190 = DIRECTION ( 'NONE',  ( -1.000000000000000000, 0.000000000000000000, 0.000000000000000000 ) ) ;
#191 = FACE_OUTER_BOUND ( 'NONE', #6, .T. ) ;
#192 = ORIENTED_EDGE ( 'NONE', *, *, #852, .F. ) ;
#193 = ORIENTED_EDGE ( 'NONE', *, *, #643, .T. ) ;
#194 = CYLINDRICAL_SURFACE ( 'NONE', #1138, 1.699999999999989742 ) ;
#195 = DIRECTION ( 'NONE',  ( 1.000000000000000000, 0.000000000000000000, 0.000000000000000000 ) ) ;
#196 = CARTESIAN_POINT ( 'NONE',  ( 59.00000000000003553, 13.00000000000000178, -5.999999999999999112 ) ) ;
#197 = ORIENTED_EDGE ( 'NONE', *, *, #954, .T. ) ;
#198 = EDGE_CURVE ( 'NONE', #77, #86, #1159, .T. ) ;
#199 = ORIENTED_EDGE ( 'NONE', *, *, #643, .F. ) ;
#200 = ORIENTED_EDGE ( 'NONE', *, *, #720, .T. ) ;
#201 = CYLINDRICAL_SURFACE ( 'NONE', #964, 1.699999999999989742 ) ;
#202 = CARTESIAN_POINT ( 'NONE',  ( 75.00000000000000000, -8.500000000000000000, 12.99999999999999645 ) ) ;
#203 = DIRECTION ( 'NONE',  ( -0.000000000000000000, -0.000000000000000000, 1.000000000000000000 ) ) ;
#204 = EDGE_LOOP ( 'NONE', ( #723, #269 ) ) ;
#205 = AXIS2_PLACEMENT_3D ( 'NONE', #89, #110, #1119 ) ;
#206 = AXIS2_PLACEMENT_3D ( 'NONE', #548, #262, #953 ) ;
#207 = EDGE_CURVE ( 'NONE', #1033, #399, #1057, .T. ) ;
#208 = FACE_OUTER_BOUND ( 'NONE', #423, .T. ) ;
#209 = CARTESIAN_POINT ( 'NONE',  ( 73.29999999999999716, -8.500000000000000000, 15.00000000000000178 ) ) ;
#210 = CYLINDRICAL_SURFACE ( 'NONE', #786, 1.699999999999993072 ) ;
#211 = VERTEX_POINT ( 'NONE', #54 ) ;
#212 = EDGE_LOOP ( 'NONE', ( #661, #792 ) ) ;
#213 = EDGE_CURVE ( 'NONE', #1308, #416, #1283, .T. ) ;
#214 = ADVANCED_FACE ( 'NONE', ( #657 ), #160, .F. ) ;
#215 = DIRECTION ( 'NONE',  ( 1.000000000000000000, 0.000000000000000000, 0.000000000000000000 ) ) ;
#216 = DIRECTION ( 'NONE',  ( 1.000000000000000000, 0.000000000000000000, 0.000000000000000000 ) ) ;
#217 = CARTESIAN_POINT ( 'NONE',  ( 90.00000000000000000, 13.00000000000000000, 5.999999999999999112 ) ) ;
#218 = CIRCLE ( 'NONE', #676, 1.699999999999998401 ) ;
#219 = EDGE_LOOP ( 'NONE', ( #744, #199, #1175, #469 ) ) ;
#220 = DIRECTION ( 'NONE',  ( -0.000000000000000000, -0.000000000000000000, 1.000000000000000000 ) ) ;
#221 = CARTESIAN_POINT ( 'NONE',  ( 62.29999999999999716, 0.000000000000000000, 8.000000000000037303 ) ) ;
#222 = PLANE ( 'NONE',  #491 ) ;
#223 = ORIENTED_EDGE ( 'NONE', *, *, #878, .T. ) ;
#224 = ORIENTED_EDGE ( 'NONE', *, *, #967, .F. ) ;
#225 = CARTESIAN_POINT ( 'NONE',  ( 75.00000000000000000, 0.000000000000000000, 12.99999999999999822 ) ) ;
#226 = CARTESIAN_POINT ( 'NONE',  ( 25.00000000000000000, -10.00000000000000000, -14.99999999999999822 ) ) ;
#227 = VERTEX_POINT ( 'NONE', #990 ) ;
#228 = EDGE_CURVE ( 'NONE', #259, #242, #981, .T. ) ;
#229 = ORIENTED_EDGE ( 'NONE', *, *, #111, .T. ) ;
#230 = VECTOR ( 'NONE', #1210, 1000.000000000000000 ) ;
#231 = ORIENTED_EDGE ( 'NONE', *, *, #769, .T. ) ;
#232 = DIRECTION ( 'NONE',  ( -0.000000000000000000, -0.000000000000000000, 1.000000000000000000 ) ) ;
#233 = CARTESIAN_POINT ( 'NONE',  ( 59.00000000000003553, 0.000000000000000000, 0.000000000000000000 ) ) ;
#234 = DIRECTION ( 'NONE',  ( -0.000000000000000000, -0.000000000000000000, 1.000000000000000000 ) ) ;
#235 = ORIENTED_EDGE ( 'NONE', *, *, #869, .T. ) ;
#236 = DIRECTION ( 'NONE',  ( -0.000000000000000000, -0.000000000000000000, 1.000000000000000000 ) ) ;
#237 = ADVANCED_FACE ( 'NONE', ( #682, #1082, #897, #687, #1177, #1287, #1006 ), #783, .T. ) ;
#238 = VECTOR ( 'NONE', #812, 1000.000000000000000 ) ;
#239 = DIRECTION ( 'NONE',  ( -1.000000000000000000, -0.000000000000000000, -0.000000000000000000 ) ) ;
#240 = LINE ( 'NONE', #638, #1309 ) ;
#241 = CARTESIAN_POINT ( 'NONE',  ( 5.000000000000002665, -10.00000000000000178, -13.00000000000000355 ) ) ;
#242 = VERTEX_POINT ( 'NONE', #1306 ) ;
#243 = LINE ( 'NONE', #62, #1171 ) ;
#244 = CARTESIAN_POINT ( 'NONE',  ( 26.69999999999999218, 10.00000000000000355, 15.00000000000000178 ) ) ;
#245 = LINE ( 'NONE', #1267, #82 ) ;
#246 = AXIS2_PLACEMENT_3D ( 'NONE', #1204, #883, #190 ) ;
#247 = CARTESIAN_POINT ( 'NONE',  ( 90.00000000000000000, -13.00000000000000000, 12.99999999999999645 ) ) ;
#248 = EDGE_LOOP ( 'NONE', ( #1154, #480 ) ) ;
#249 = CIRCLE ( 'NONE', #799, 1.699999999999993072 ) ;
#250 = ADVANCED_FACE ( 'NONE', ( #496, #94 ), #401, .T. ) ;
#251 = FACE_BOUND ( 'NONE', #204, .T. ) ;
#252 = DIRECTION ( 'NONE',  ( -0.000000000000000000, -0.000000000000000000, 1.000000000000000000 ) ) ;
#253 = CARTESIAN_POINT ( 'NONE',  ( 25.00000000000000000, -10.00000000000000000, 12.99999999999999645 ) ) ;
#254 = ORIENTED_EDGE ( 'NONE', *, *, #967, .T. ) ;
#255 = DIRECTION ( 'NONE',  ( -1.000000000000000000, 0.000000000000000000, 0.000000000000000000 ) ) ;
#256 = CARTESIAN_POINT ( 'NONE',  ( 0.000000000000000000, -15.00000000000000178, 15.00000000000000178 ) ) ;
#257 = DIRECTION ( 'NONE',  ( 1.000000000000000000, 0.000000000000000000, 0.000000000000000000 ) ) ;
#258 = VERTEX_POINT ( 'NONE', #577 ) ;
#259 = VERTEX_POINT ( 'NONE', #983 ) ;
#260 = LINE ( 'NONE', #637, #149 ) ;
#261 = FACE_OUTER_BOUND ( 'NONE', #267, .T. ) ;
#262 = DIRECTION ( 'NONE',  ( -0.000000000000000000, -0.000000000000000000, 1.000000000000000000 ) ) ;
#263 = AXIS2_PLACEMENT_3D ( 'NONE', #599, #285, #397 ) ;
#264 =( NAMED_UNIT ( * ) PLANE_ANGLE_UNIT ( ) SI_UNIT ( $, .RADIAN. ) );
#265 = CIRCLE ( 'NONE', #8, 1.699999999999989742 ) ;
#266 = EDGE_CURVE ( 'NONE', #23, #346, #597, .T. ) ;
#267 = EDGE_LOOP ( 'NONE', ( #583, #484, #718, #609 ) ) ;
#268 = EDGE_CURVE ( 'NONE', #800, #346, #78, .T. ) ;
#269 = ORIENTED_EDGE ( 'NONE', *, *, #719, .F. ) ;
#270 = VECTOR ( 'NONE', #420, 1000.000000000000000 ) ;
#271 = CARTESIAN_POINT ( 'NONE',  ( 75.00000000000000000, -8.500000000000000000, 15.00000000000000178 ) ) ;
#272 = DIRECTION ( 'NONE',  ( 0.000000000000000000, 1.000000000000000000, 1.334402673828313339E-16 ) ) ;
#273 = DIRECTION ( 'NONE',  ( 1.000000000000000000, 0.000000000000000000, 0.000000000000000000 ) ) ;
#274 = ORIENTED_EDGE ( 'NONE', *, *, #28, .T. ) ;
#275 = EDGE_LOOP ( 'NONE', ( #280, #532 ) ) ;
#276 = CARTESIAN_POINT ( 'NONE',  ( 75.00000000000000000, 0.000000000000000000, 12.99999999999999822 ) ) ;
#277 = DIRECTION ( 'NONE',  ( -0.000000000000000000, -0.000000000000000000, 1.000000000000000000 ) ) ;
#278 = DIRECTION ( 'NONE',  ( 0.000000000000000000, 1.334402673828313339E-16, -1.000000000000000000 ) ) ;
#279 = CIRCLE ( 'NONE', #1021, 1.699999999999998401 ) ;
#280 = ORIENTED_EDGE ( 'NONE', *, *, #1107, .F. ) ;
#281 = EDGE_LOOP ( 'NONE', ( #1072, #533 ) ) ;
#282 = CARTESIAN_POINT ( 'NONE',  ( -3.717732635758650771E-15, -5.364675298172683071, 28.00000000000000355 ) ) ;
#283 = EDGE_CURVE ( 'NONE', #302, #329, #83, .T. ) ;
#284 = DIRECTION ( 'NONE',  ( -1.000000000000000000, 0.000000000000000000, 0.000000000000000000 ) ) ;
#285 = DIRECTION ( 'NONE',  ( -0.000000000000000000, -0.000000000000000000, 1.000000000000000000 ) ) ;
#286 = ORIENTED_EDGE ( 'NONE', *, *, #1188, .T. ) ;
#287 = ORIENTED_EDGE ( 'NONE', *, *, #1081, .T. ) ;
#288 = ADVANCED_FACE ( 'NONE', ( #889 ), #474, .F. ) ;
#289 = CARTESIAN_POINT ( 'NONE',  ( 90.00000000000000000, -13.00000000000000000, -13.00000000000000355 ) ) ;
#290 = CIRCLE ( 'NONE', #987, 1.699999999999991518 ) ;
#291 = DIRECTION ( 'NONE',  ( -0.000000000000000000, -0.000000000000000000, 1.000000000000000000 ) ) ;
#292 = EDGE_CURVE ( 'NONE', #163, #493, #536, .T. ) ;
#293 = DIRECTION ( 'NONE',  ( 0.000000000000000000, -1.334402673828313339E-16, 1.000000000000000000 ) ) ;
#294 = ORIENTED_EDGE ( 'NONE', *, *, #361, .F. ) ;
#295 = EDGE_LOOP ( 'NONE', ( #435, #885 ) ) ;
#296 = ORIENTED_EDGE ( 'NONE', *, *, #1011, .F. ) ;
#297 = FACE_OUTER_BOUND ( 'NONE', #528, .T. ) ;
#298 = DIRECTION ( 'NONE',  ( 0.000000000000000000, -1.334402673828313339E-16, 1.000000000000000000 ) ) ;
#299 = CYLINDRICAL_SURFACE ( 'NONE', #1186, 3.600000000000005862 ) ;
#300 = VERTEX_POINT ( 'NONE', #1294 ) ;
#301 = EDGE_CURVE ( 'NONE', #346, #800, #412, .T. ) ;
#302 = VERTEX_POINT ( 'NONE', #102 ) ;
#303 = CYLINDRICAL_SURFACE ( 'NONE', #392, 1.699999999999989742 ) ;
#304 = FACE_OUTER_BOUND ( 'NONE', #1209, .T. ) ;
#305 = DIRECTION ( 'NONE',  ( -0.000000000000000000, -0.000000000000000000, 1.000000000000000000 ) ) ;
#306 = ORIENTED_EDGE ( 'NONE', *, *, #1315, .F. ) ;
#307 = EDGE_CURVE ( 'NONE', #1016, #1180, #1155, .T. ) ;
#308 = COLOUR_RGB ( '',0.7921568627450980005, 0.8196078431372548767, 0.9333333333333333481 ) ;
#309 = EDGE_LOOP ( 'NONE', ( #1194, #92, #1234, #192 ) ) ;
#310 = EDGE_CURVE ( 'NONE', #330, #410, #601, .T. ) ;
#311 = VECTOR ( 'NONE', #875, 1000.000000000000000 ) ;
#312 = DIRECTION ( 'NONE',  ( 0.7071067811865434649, 0.7071067811865516806, 0.000000000000000000 ) ) ;
#313 = CARTESIAN_POINT ( 'NONE',  ( 0.000000000000000000, -13.00000000000000000, -13.00000000000000355 ) ) ;
#314 = CARTESIAN_POINT ( 'NONE',  ( 26.69999999999998863, 10.00000000000000355, 15.00000000000000355 ) ) ;
#315 = DIRECTION ( 'NONE',  ( 0.000000000000000000, 1.000000000000000000, 0.000000000000000000 ) ) ;
#316 = VERTEX_POINT ( 'NONE', #177 ) ;
#317 = AXIS2_PLACEMENT_3D ( 'NONE', #1059, #853, #1161 ) ;
#318 = LINE ( 'NONE', #1223, #1066 ) ;
#319 = CARTESIAN_POINT ( 'NONE',  ( 5.000000000000002665, -10.00000000000000178, 15.00000000000000178 ) ) ;
#320 = DIRECTION ( 'NONE',  ( -1.000000000000000000, -0.000000000000000000, 0.000000000000000000 ) ) ;
#321 = CYLINDRICAL_SURFACE ( 'NONE', #121, 1.699999999999991518 ) ;
#322 = EDGE_LOOP ( 'NONE', ( #287, #574, #1200, #436 ) ) ;
#323 = ORIENTED_EDGE ( 'NONE', *, *, #1305, .T. ) ;
#324 = SHAPE_DEFINITION_REPRESENTATION ( #1319, #26 ) ;
#325 = DIRECTION ( 'NONE',  ( -0.000000000000000000, -0.000000000000000000, 1.000000000000000000 ) ) ;
#326 = LINE ( 'NONE', #728, #582 ) ;
#327 = EDGE_CURVE ( 'NONE', #23, #627, #34, .T. ) ;
#328 = DIRECTION ( 'NONE',  ( 0.000000000000000000, -1.334402673828313339E-16, 1.000000000000000000 ) ) ;
#329 = VERTEX_POINT ( 'NONE', #466 ) ;
#330 = VERTEX_POINT ( 'NONE', #977 ) ;
#331 = CIRCLE ( 'NONE', #1062, 1.699999999999993072 ) ;
#332 = DIRECTION ( 'NONE',  ( 1.000000000000000000, 0.000000000000000000, 0.000000000000000000 ) ) ;
#333 = DIRECTION ( 'NONE',  ( 0.000000000000000000, -1.334402673828313339E-16, 1.000000000000000000 ) ) ;
#334 = EDGE_CURVE ( 'NONE', #1086, #1064, #1096, .T. ) ;
#335 = DIRECTION ( 'NONE',  ( -1.000000000000000000, 0.000000000000000000, 0.000000000000000000 ) ) ;
#336 = ORIENTED_EDGE ( 'NONE', *, *, #1164, .T. ) ;
#337 = CYLINDRICAL_SURFACE ( 'NONE', #338, 12.70000000000000284 ) ;
#338 = AXIS2_PLACEMENT_3D ( 'NONE', #463, #666, #534 ) ;
#339 = DIRECTION ( 'NONE',  ( 0.000000000000000000, 1.000000000000000000, 0.000000000000000000 ) ) ;
#340 = DIRECTION ( 'NONE',  ( 1.000000000000000000, 0.000000000000000000, 0.000000000000000000 ) ) ;
#341 = CARTESIAN_POINT ( 'NONE',  ( 90.00000000000000000, -13.00000000000000000, 5.999999999999995559 ) ) ;
#342 = EDGE_LOOP ( 'NONE', ( #559, #549, #595, #124, #1106 ) ) ;
#343 = DIRECTION ( 'NONE',  ( 0.000000000000000000, 1.334402673828313339E-16, -1.000000000000000000 ) ) ;
#344 = DIRECTION ( 'NONE',  ( 0.000000000000000000, 0.000000000000000000, 1.000000000000000000 ) ) ;
#345 = DIRECTION ( 'NONE',  ( 0.000000000000000000, 0.000000000000000000, 1.000000000000000000 ) ) ;
#346 = VERTEX_POINT ( 'NONE', #408 ) ;
#347 = EDGE_CURVE ( 'NONE', #1296, #302, #606, .T. ) ;
#348 = EDGE_CURVE ( 'NONE', #519, #300, #524, .T. ) ;
#349 = LINE ( 'NONE', #445, #649 ) ;
#350 = CARTESIAN_POINT ( 'NONE',  ( 59.00000000000003553, -13.00000000000000000, -6.000000000000002665 ) ) ;
#351 = CARTESIAN_POINT ( 'NONE',  ( 26.69999999999999218, -10.00000000000000000, -13.00000000000000355 ) ) ;
#352 = VERTEX_POINT ( 'NONE', #313 ) ;
#353 = AXIS2_PLACEMENT_3D ( 'NONE', #753, #651, #961 ) ;
#354 = DIRECTION ( 'NONE',  ( 0.000000000000000000, -1.000000000000000000, -1.334402673828313339E-16 ) ) ;
#355 = CARTESIAN_POINT ( 'NONE',  ( 62.29999999999999716, -2.314819644696196905E-31, 5.999999999999997335 ) ) ;
#356 = DIRECTION ( 'NONE',  ( -0.000000000000000000, -0.000000000000000000, 1.000000000000000000 ) ) ;
#357 = ORIENTED_EDGE ( 'NONE', *, *, #751, .T. ) ;
#358 = LINE ( 'NONE', #563, #376 ) ;
#359 = PLANE ( 'NONE',  #836 ) ;
#360 = DIRECTION ( 'NONE',  ( 0.000000000000000000, -1.000000000000000000, 0.000000000000000000 ) ) ;
#361 = EDGE_CURVE ( 'NONE', #211, #24, #1211, .T. ) ;
#362 = ORIENTED_EDGE ( 'NONE', *, *, #575, .F. ) ;
#363 = EDGE_LOOP ( 'NONE', ( #254, #135, #779, #999, #362, #411, #1259, #827 ) ) ;
#364 = CARTESIAN_POINT ( 'NONE',  ( 75.00000000000000000, 0.000000000000000000, 5.999999999999997335 ) ) ;
#365 = CIRCLE ( 'NONE', #1108, 12.70000000000000462 ) ;
#366 = PRESENTATION_LAYER_ASSIGNMENT (  '', '', ( #31 ) ) ;
#367 = LINE ( 'NONE', #1273, #873 ) ;
#368 = CARTESIAN_POINT ( 'NONE',  ( 73.29999999999999716, 8.500000000000000000, 15.00000000000000178 ) ) ;
#369 = VECTOR ( 'NONE', #904, 1000.000000000000000 ) ;
#370 = CIRCLE ( 'NONE', #537, 1.699999999999989742 ) ;
#371 = EDGE_CURVE ( 'NONE', #391, #1276, #279, .T. ) ;
#372 = EDGE_LOOP ( 'NONE', ( #1054, #935 ) ) ;
#373 = VERTEX_POINT ( 'NONE', #209 ) ;
#374 = CARTESIAN_POINT ( 'NONE',  ( 23.30000000000001137, -10.00000000000000000, 15.00000000000000178 ) ) ;
#375 = CARTESIAN_POINT ( 'NONE',  ( 90.00000000000000000, 13.00000000000000178, -5.999999999999999112 ) ) ;
#376 = VECTOR ( 'NONE', #239, 1000.000000000000000 ) ;
#377 = CARTESIAN_POINT ( 'NONE',  ( 3.300000000000011369, -10.00000000000000178, -13.00000000000000355 ) ) ;
#378 = VERTEX_POINT ( 'NONE', #413 ) ;
#379 = EDGE_CURVE ( 'NONE', #391, #679, #1128, .T. ) ;
#380 = EDGE_LOOP ( 'NONE', ( #1190, #1098, #732, #85 ) ) ;
#381 = FACE_BOUND ( 'NONE', #1165, .T. ) ;
#382 = CARTESIAN_POINT ( 'NONE',  ( 5.000000000000002665, -10.00000000000000178, 15.00000000000000355 ) ) ;
#383 = DIRECTION ( 'NONE',  ( 1.000000000000000000, 0.000000000000000000, 0.000000000000000000 ) ) ;
#384 = ORIENTED_EDGE ( 'NONE', *, *, #538, .F. ) ;
#385 = ADVANCED_FACE ( 'NONE', ( #304 ), #30, .F. ) ;
#386 = EDGE_CURVE ( 'NONE', #1275, #1296, #937, .T. ) ;
#387 = ORIENTED_EDGE ( 'NONE', *, *, #424, .F. ) ;
#388 = LINE ( 'NONE', #188, #877 ) ;
#389 = DIRECTION ( 'NONE',  ( 0.000000000000000000, 1.000000000000000000, 1.334402673828313339E-16 ) ) ;
#390 = FACE_OUTER_BOUND ( 'NONE', #309, .T. ) ;
#391 = VERTEX_POINT ( 'NONE', #706 ) ;
#392 = AXIS2_PLACEMENT_3D ( 'NONE', #705, #486, #1298 ) ;
#393 = ORIENTED_EDGE ( 'NONE', *, *, #636, .T. ) ;
#394 = CARTESIAN_POINT ( 'NONE',  ( 25.00000000000000000, -10.00000000000000000, 15.00000000000000178 ) ) ;
#395 = CIRCLE ( 'NONE', #40, 1.699999999999999289 ) ;
#396 = CARTESIAN_POINT ( 'NONE',  ( 75.00000000000000000, 0.000000000000000000, -14.99999999999999822 ) ) ;
#397 = DIRECTION ( 'NONE',  ( 1.000000000000000000, 0.000000000000000000, 0.000000000000000000 ) ) ;
#398 = ORIENTED_EDGE ( 'NONE', *, *, #634, .T. ) ;
#399 = VERTEX_POINT ( 'NONE', #1030 ) ;
#400 = CARTESIAN_POINT ( 'NONE',  ( 25.00000000000000000, -10.00000000000000000, 15.00000000000000178 ) ) ;
#401 = PLANE ( 'NONE',  #942 ) ;
#402 = ADVANCED_FACE ( 'NONE', ( #425 ), #727, .F. ) ;
#403 = CARTESIAN_POINT ( 'NONE',  ( 18.36467529817246813, 13.00000000000000000, 13.00000000000000000 ) ) ;
#404 = EDGE_CURVE ( 'NONE', #567, #131, #974, .T. ) ;
#405 = ORIENTED_EDGE ( 'NONE', *, *, #174, .T. ) ;
#406 = AXIS2_PLACEMENT_3D ( 'NONE', #225, #1217, #1112 ) ;
#407 = ORIENTED_EDGE ( 'NONE', *, *, #1229, .F. ) ;
#408 = CARTESIAN_POINT ( 'NONE',  ( 62.29999999999999716, 0.000000000000000000, -14.99999999999999822 ) ) ;
#409 = DIRECTION ( 'NONE',  ( -0.000000000000000000, 1.445602896647339410E-16, -1.000000000000000000 ) ) ;
#410 = VERTEX_POINT ( 'NONE', #612 ) ;
#411 = ORIENTED_EDGE ( 'NONE', *, *, #554, .F. ) ;
#412 = CIRCLE ( 'NONE', #710, 12.70000000000000284 ) ;
#413 = CARTESIAN_POINT ( 'NONE',  ( 90.00000000000000000, 13.00000000000000000, 13.00000000000000000 ) ) ;
#414 = LINE ( 'NONE', #17, #270 ) ;
#415 = VECTOR ( 'NONE', #1226, 1000.000000000000000 ) ;
#416 = VERTEX_POINT ( 'NONE', #16 ) ;
#417 = ORIENTED_EDGE ( 'NONE', *, *, #138, .F. ) ;
#418 = ORIENTED_EDGE ( 'NONE', *, *, #361, .T. ) ;
#419 = CARTESIAN_POINT ( 'NONE',  ( 73.29999999999999716, 8.500000000000000000, -2.000000000000027978 ) ) ;
#420 = DIRECTION ( 'NONE',  ( -0.000000000000000000, -0.000000000000000000, 1.000000000000000000 ) ) ;
#421 = CARTESIAN_POINT ( 'NONE',  ( 5.000000000000002665, -10.00000000000000178, 15.00000000000000178 ) ) ;
#422 = VERTEX_POINT ( 'NONE', #622 ) ;
#423 = EDGE_LOOP ( 'NONE', ( #1120, #274, #787, #1280 ) ) ;
#424 = EDGE_CURVE ( 'NONE', #615, #316, #20, .T. ) ;
#425 = FACE_OUTER_BOUND ( 'NONE', #703, .T. ) ;
#426 = FACE_BOUND ( 'NONE', #459, .T. ) ;
#427 = DIRECTION ( 'NONE',  ( -0.000000000000000000, -0.000000000000000000, 1.000000000000000000 ) ) ;
#428 = VERTEX_POINT ( 'NONE', #1014 ) ;
#429 = CARTESIAN_POINT ( 'NONE',  ( 25.00000000000000000, -10.00000000000000000, -14.99999999999999822 ) ) ;
#430 = AXIS2_PLACEMENT_3D ( 'NONE', #1083, #84, #1212 ) ;
#431 = CIRCLE ( 'NONE', #1173, 1.699999999999993072 ) ;
#432 = CIRCLE ( 'NONE', #161, 1.699999999999989742 ) ;
#433 = LINE ( 'NONE', #1288, #168 ) ;
#434 = DIRECTION ( 'NONE',  ( 0.000000000000000000, -1.000000000000000000, 0.000000000000000000 ) ) ;
#435 = ORIENTED_EDGE ( 'NONE', *, *, #1087, .F. ) ;
#436 = ORIENTED_EDGE ( 'NONE', *, *, #172, .T. ) ;
#437 = VECTOR ( 'NONE', #1152, 1000.000000000000000 ) ;
#438 = FACE_OUTER_BOUND ( 'NONE', #621, .T. ) ;
#439 = CYLINDRICAL_SURFACE ( 'NONE', #1117, 12.70000000000000284 ) ;
#440 = DIRECTION ( 'NONE',  ( 0.000000000000000000, 1.000000000000000000, 0.000000000000000000 ) ) ;
#441 = EDGE_CURVE ( 'NONE', #1201, #1232, #505, .T. ) ;
#442 = CARTESIAN_POINT ( 'NONE',  ( 25.00000000000000000, -10.00000000000000000, 15.00000000000000355 ) ) ;
#443 = EDGE_CURVE ( 'NONE', #242, #259, #681, .T. ) ;
#444 = EDGE_LOOP ( 'NONE', ( #1290, #1219, #1045, #1094 ) ) ;
#445 = CARTESIAN_POINT ( 'NONE',  ( 54.18233764908581662, 48.81766235091376416, 13.00000000000000533 ) ) ;
#446 = DIRECTION ( 'NONE',  ( 0.000000000000000000, -0.000000000000000000, 1.000000000000000000 ) ) ;
#447 = DIRECTION ( 'NONE',  ( -0.000000000000000000, 1.000000000000000000, 1.334402673828313339E-16 ) ) ;
#448 = ORIENTED_EDGE ( 'NONE', *, *, #1048, .T. ) ;
#449 = PLANE ( 'NONE',  #716 ) ;
#450 = DIRECTION ( 'NONE',  ( 0.000000000000000000, 1.000000000000000000, 0.000000000000000000 ) ) ;
#451 = LINE ( 'NONE', #766, #186 ) ;
#452 = ORIENTED_EDGE ( 'NONE', *, *, #866, .T. ) ;
#453 = AXIS2_PLACEMENT_3D ( 'NONE', #101, #1304, #494 ) ;
#454 = ADVANCED_FACE ( 'NONE', ( #530 ), #4, .F. ) ;
#455 = DIRECTION ( 'NONE',  ( -0.000000000000000000, -0.000000000000000000, -1.000000000000000000 ) ) ;
#456 = DIRECTION ( 'NONE',  ( 0.000000000000000000, -1.334402673828313339E-16, 1.000000000000000000 ) ) ;
#457 = DIRECTION ( 'NONE',  ( 0.000000000000000000, -1.334402673828313339E-16, 1.000000000000000000 ) ) ;
#458 = DIRECTION ( 'NONE',  ( 0.000000000000000000, 0.000000000000000000, -1.000000000000000000 ) ) ;
#459 = EDGE_LOOP ( 'NONE', ( #927, #1115, #907, #602 ) ) ;
#460 = VERTEX_POINT ( 'NONE', #616 ) ;
#461 = CARTESIAN_POINT ( 'NONE',  ( 90.00000000000000000, 13.00000000000000000, 13.00000000000000000 ) ) ;
#462 = FACE_OUTER_BOUND ( 'NONE', #1303, .T. ) ;
#463 = CARTESIAN_POINT ( 'NONE',  ( 75.00000000000000000, 0.000000000000000000, 8.000000000000037303 ) ) ;
#464 = ORIENTED_EDGE ( 'NONE', *, *, #15, .T. ) ;
#465 = ORIENTED_EDGE ( 'NONE', *, *, #677, .F. ) ;
#466 = CARTESIAN_POINT ( 'NONE',  ( -3.469446951953614189E-15, -5.364675298172683959, -13.00000000000000178 ) ) ;
#467 = LINE ( 'NONE', #572, #1139 ) ;
#468 = AXIS2_PLACEMENT_3D ( 'NONE', #88, #183, #389 ) ;
#469 = ORIENTED_EDGE ( 'NONE', *, *, #348, .T. ) ;
#470 = ADVANCED_FACE ( 'NONE', ( #819 ), #1225, .F. ) ;
#471 = VECTOR ( 'NONE', #1261, 1000.000000000000000 ) ;
#472 = ORIENTED_EDGE ( 'NONE', *, *, #529, .F. ) ;
#473 = DIRECTION ( 'NONE',  ( -0.000000000000000000, -0.000000000000000000, 1.000000000000000000 ) ) ;
#474 = CYLINDRICAL_SURFACE ( 'NONE', #246, 12.70000000000000284 ) ;
#475 = VECTOR ( 'NONE', #1156, 1000.000000000000000 ) ;
#476 = FACE_OUTER_BOUND ( 'NONE', #668, .T. ) ;
#477 = EDGE_CURVE ( 'NONE', #519, #1074, #514, .T. ) ;
#478 = VERTEX_POINT ( 'NONE', #840 ) ;
#479 = EDGE_CURVE ( 'NONE', #1016, #373, #655, .T. ) ;
#480 = ORIENTED_EDGE ( 'NONE', *, *, #769, .F. ) ;
#481 = DIRECTION ( 'NONE',  ( 0.000000000000000000, 1.000000000000000000, 0.000000000000000000 ) ) ;
#482 = DIRECTION ( 'NONE',  ( -0.7071067811865434649, -0.7071067811865516806, -9.435651794974666590E-17 ) ) ;
#483 = CARTESIAN_POINT ( 'NONE',  ( 26.69999999999998863, -10.00000000000000000, 15.00000000000000355 ) ) ;
#484 = ORIENTED_EDGE ( 'NONE', *, *, #371, .T. ) ;
#485 = EDGE_LOOP ( 'NONE', ( #193, #922, #797, #357 ) ) ;
#486 = DIRECTION ( 'NONE',  ( -0.000000000000000000, -0.000000000000000000, 1.000000000000000000 ) ) ;
#487 = DIRECTION ( 'NONE',  ( 0.000000000000000000, 1.334402673828313339E-16, -1.000000000000000000 ) ) ;
#488 = DIRECTION ( 'NONE',  ( -0.7071067811865434649, -0.7071067811865516806, 0.000000000000000000 ) ) ;
#489 = VECTOR ( 'NONE', #734, 1000.000000000000000 ) ;
#490 = ORIENTED_EDGE ( 'NONE', *, *, #1289, .F. ) ;
#491 = AXIS2_PLACEMENT_3D ( 'NONE', #12, #335, #1227 ) ;
#492 = ORIENTED_EDGE ( 'NONE', *, *, #636, .F. ) ;
#493 = VERTEX_POINT ( 'NONE', #41 ) ;
#494 = DIRECTION ( 'NONE',  ( 1.000000000000000000, 0.000000000000000000, 0.000000000000000000 ) ) ;
#495 = VECTOR ( 'NONE', #970, 1000.000000000000000 ) ;
#496 = FACE_BOUND ( 'NONE', #248, .T. ) ;
#497 = CARTESIAN_POINT ( 'NONE',  ( 76.69999999999998863, 8.500000000000000000, -2.000000000000027978 ) ) ;
#498 = AXIS2_PLACEMENT_3D ( 'NONE', #429, #776, #1178 ) ;
#499 = ORIENTED_EDGE ( 'NONE', *, *, #948, .F. ) ;
#500 = ORIENTED_EDGE ( 'NONE', *, *, #307, .F. ) ;
#501 = DIRECTION ( 'NONE',  ( 0.000000000000000000, 0.000000000000000000, -1.000000000000000000 ) ) ;
#502 = CARTESIAN_POINT ( 'NONE',  ( 5.000000000000002665, -10.00000000000000178, 12.99999999999999645 ) ) ;
#503 = DIRECTION ( 'NONE',  ( -0.000000000000000000, -0.000000000000000000, 1.000000000000000000 ) ) ;
#504 = CARTESIAN_POINT ( 'NONE',  ( 25.00000000000000000, -10.00000000000000000, 12.99999999999999645 ) ) ;
#505 = CIRCLE ( 'NONE', #1258, 1.699999999999991518 ) ;
#506 = DIRECTION ( 'NONE',  ( 0.000000000000000000, 1.000000000000000000, 0.000000000000000000 ) ) ;
#507 = CARTESIAN_POINT ( 'NONE',  ( 90.00000000000000000, 13.00000000000000000, 13.00000000000000000 ) ) ;
#508 = UNCERTAINTY_MEASURE_WITH_UNIT (LENGTH_MEASURE( 1.000000000000000082E-05 ), #944, 'distance_accuracy_value', 'NONE');
#509 = DIRECTION ( 'NONE',  ( 0.000000000000000000, -1.000000000000000000, -1.334402673828313339E-16 ) ) ;
#510 = EDGE_CURVE ( 'NONE', #1232, #1201, #929, .T. ) ;
#511 = VECTOR ( 'NONE', #169, 1000.000000000000000 ) ;
#512 = ORIENTED_EDGE ( 'NONE', *, *, #1149, .T. ) ;
#513 = PRODUCT_CONTEXT ( 'NONE', #807, 'mechanical' ) ;
#514 = LINE ( 'NONE', #133, #1317 ) ;
#515 = DIRECTION ( 'NONE',  ( -0.7071067811865434649, -0.7071067811865516806, 0.000000000000000000 ) ) ;
#516 = AXIS2_PLACEMENT_3D ( 'NONE', #159, #53, #1067 ) ;
#517 = ORIENTED_EDGE ( 'NONE', *, *, #327, .F. ) ;
#518 = ADVANCED_FACE ( 'NONE', ( #52 ), #439, .F. ) ;
#519 = VERTEX_POINT ( 'NONE', #1255 ) ;
#520 = EDGE_LOOP ( 'NONE', ( #1228, #849, #407, #671 ) ) ;
#521 = ADVANCED_FACE ( 'NONE', ( #662, #1065, #539, #741, #139 ), #449, .T. ) ;
#522 = DIRECTION ( 'NONE',  ( 1.000000000000000000, 0.000000000000000000, 0.000000000000000000 ) ) ;
#523 = AXIS2_PLACEMENT_3D ( 'NONE', #956, #343, #339 ) ;
#524 = LINE ( 'NONE', #1118, #845 ) ;
#525 = CARTESIAN_POINT ( 'NONE',  ( 62.29999999999999716, 2.314819644696196905E-31, -6.000000000000001776 ) ) ;
#526 = CARTESIAN_POINT ( 'NONE',  ( 62.29999999999999716, -2.314819644696196905E-31, -13.00000000000000000 ) ) ;
#527 = EDGE_LOOP ( 'NONE', ( #1196, #7, #120, #417 ) ) ;
#528 = EDGE_LOOP ( 'NONE', ( #387, #55, #857, #588 ) ) ;
#529 = EDGE_CURVE ( 'NONE', #493, #163, #880, .T. ) ;
#530 = FACE_OUTER_BOUND ( 'NONE', #96, .T. ) ;
#531 = CARTESIAN_POINT ( 'NONE',  ( 90.00000000000000000, 15.00000000000000000, 15.00000000000000178 ) ) ;
#532 = ORIENTED_EDGE ( 'NONE', *, *, #1124, .F. ) ;
#533 = ORIENTED_EDGE ( 'NONE', *, *, #738, .F. ) ;
#534 = DIRECTION ( 'NONE',  ( -1.000000000000000000, 0.000000000000000000, 0.000000000000000000 ) ) ;
#535 = AXIS2_PLACEMENT_3D ( 'NONE', #913, #984, #488 ) ;
#536 = CIRCLE ( 'NONE', #1110, 1.699999999999989742 ) ;
#537 = AXIS2_PLACEMENT_3D ( 'NONE', #253, #971, #558 ) ;
#538 = EDGE_CURVE ( 'NONE', #627, #23, #1053, .T. ) ;
#539 = FACE_BOUND ( 'NONE', #1311, .T. ) ;
#540 = LINE ( 'NONE', #946, #900 ) ;
#541 = EDGE_CURVE ( 'NONE', #891, #959, #260, .T. ) ;
#542 = CARTESIAN_POINT ( 'NONE',  ( 76.69999999999998863, -8.500000000000000000, 15.00000000000000178 ) ) ;
#543 = ORIENTED_EDGE ( 'NONE', *, *, #1242, .F. ) ;
#544 = LINE ( 'NONE', #767, #940 ) ;
#545 = AXIS2_PLACEMENT_3D ( 'NONE', #1151, #165, #1265 ) ;
#546 = DIRECTION ( 'NONE',  ( 0.000000000000000000, -1.334402673828313339E-16, 1.000000000000000000 ) ) ;
#547 = DIRECTION ( 'NONE',  ( -1.000000000000000000, -0.000000000000000000, -0.000000000000000000 ) ) ;
#548 = CARTESIAN_POINT ( 'NONE',  ( 25.00000000000000000, -10.00000000000000000, 15.00000000000000355 ) ) ;
#549 = ORIENTED_EDGE ( 'NONE', *, *, #575, .T. ) ;
#550 = FACE_OUTER_BOUND ( 'NONE', #1221, .T. ) ;
#551 = DIRECTION ( 'NONE',  ( 0.000000000000000000, -1.000000000000000000, -1.365923996832131116E-16 ) ) ;
#552 = DIRECTION ( 'NONE',  ( -0.000000000000000000, -0.000000000000000000, 1.000000000000000000 ) ) ;
#553 = ORIENTED_EDGE ( 'NONE', *, *, #658, .T. ) ;
#554 = EDGE_CURVE ( 'NONE', #14, #939, #1167, .T. ) ;
#555 = FACE_BOUND ( 'NONE', #295, .T. ) ;
#556 = AXIS2_PLACEMENT_3D ( 'NONE', #247, #61, #646 ) ;
#557 = CARTESIAN_POINT ( 'NONE',  ( 73.29999999999999716, -8.500000000000000000, 12.99999999999999645 ) ) ;
#558 = DIRECTION ( 'NONE',  ( 0.000000000000000000, 1.000000000000000000, 0.000000000000000000 ) ) ;
#559 = ORIENTED_EDGE ( 'NONE', *, *, #1132, .F. ) ;
#560 = EDGE_CURVE ( 'NONE', #995, #762, #1144, .T. ) ;
#561 = VECTOR ( 'NONE', #76, 1000.000000000000000 ) ;
#562 = ORIENTED_EDGE ( 'NONE', *, *, #371, .F. ) ;
#563 = CARTESIAN_POINT ( 'NONE',  ( 90.00000000000000000, 15.00000000000000000, -14.99999999999999822 ) ) ;
#564 = CARTESIAN_POINT ( 'NONE',  ( 75.00000000000000000, 0.000000000000000000, 5.999999999999997335 ) ) ;
#565 = CARTESIAN_POINT ( 'NONE',  ( 6.699999999999993960, -10.00000000000000178, -13.00000000000000355 ) ) ;
#566 = DIRECTION ( 'NONE',  ( -0.000000000000000000, -0.000000000000000000, 1.000000000000000000 ) ) ;
#567 = VERTEX_POINT ( 'NONE', #644 ) ;
#568 = EDGE_LOOP ( 'NONE', ( #993, #685 ) ) ;
#569 = CARTESIAN_POINT ( 'NONE',  ( 23.30000000000001492, -10.00000000000000000, 15.00000000000000355 ) ) ;
#570 = VECTOR ( 'NONE', #9, 1000.000000000000000 ) ;
#571 = DIRECTION ( 'NONE',  ( 0.000000000000000000, -1.334402673828313339E-16, 1.000000000000000000 ) ) ;
#572 = CARTESIAN_POINT ( 'NONE',  ( 3.300000000000011369, -10.00000000000000178, 15.00000000000000178 ) ) ;
#573 = EDGE_LOOP ( 'NONE', ( #833, #704, #1269, #988, #200, #336, #1284, #296 ) ) ;
#574 = ORIENTED_EDGE ( 'NONE', *, *, #334, .F. ) ;
#575 = EDGE_CURVE ( 'NONE', #939, #1000, #349, .T. ) ;
#576 = LINE ( 'NONE', #982, #713 ) ;
#577 = CARTESIAN_POINT ( 'NONE',  ( 26.69999999999999218, -10.00000000000000000, 12.99999999999999645 ) ) ;
#578 = EDGE_CURVE ( 'NONE', #180, #399, #358, .T. ) ;
#579 = DIRECTION ( 'NONE',  ( 0.000000000000000000, 1.334402673828313339E-16, -1.000000000000000000 ) ) ;
#580 = AXIS2_PLACEMENT_3D ( 'NONE', #202, #701, #795 ) ;
#581 = EDGE_LOOP ( 'NONE', ( #224, #879, #126, #418, #452 ) ) ;
#582 = VECTOR ( 'NONE', #1130, 1000.000000000000000 ) ;
#583 = ORIENTED_EDGE ( 'NONE', *, *, #379, .F. ) ;
#584 = PLANE ( 'NONE',  #145 ) ;
#585 = CARTESIAN_POINT ( 'NONE',  ( 25.00000000000000000, -10.00000000000000000, -13.00000000000000355 ) ) ;
#586 = DIRECTION ( 'NONE',  ( 0.000000000000000000, -1.000000000000000000, -1.334402673828313339E-16 ) ) ;
#587 = EDGE_LOOP ( 'NONE', ( #171, #712, #114, #464, #19, #1002, #1213, #65 ) ) ;
#588 = ORIENTED_EDGE ( 'NONE', *, *, #757, .T. ) ;
#589 = LINE ( 'NONE', #996, #38 ) ;
#590 = CARTESIAN_POINT ( 'NONE',  ( 59.00000000000003553, 13.00000000000000000, 5.999999999999999112 ) ) ;
#591 = DIRECTION ( 'NONE',  ( 0.000000000000000000, 1.000000000000000000, 1.365923996832131116E-16 ) ) ;
#592 = ORIENTED_EDGE ( 'NONE', *, *, #1011, .T. ) ;
#593 = ORIENTED_EDGE ( 'NONE', *, *, #198, .F. ) ;
#594 = ADVANCED_FACE ( 'NONE', ( #1049, #251, #555, #950, #147, #960, #550 ), #58, .F. ) ;
#595 = ORIENTED_EDGE ( 'NONE', *, *, #966, .F. ) ;
#596 = DIRECTION ( 'NONE',  ( 1.000000000000000000, 0.000000000000000000, 0.000000000000000000 ) ) ;
#597 = LINE ( 'NONE', #789, #369 ) ;
#598 = CIRCLE ( 'NONE', #205, 1.699999999999986189 ) ;
#599 = CARTESIAN_POINT ( 'NONE',  ( 75.00000000000000000, -8.500000000000000000, -2.000000000000027978 ) ) ;
#600 = VERTEX_POINT ( 'NONE', #969 ) ;
#601 = CIRCLE ( 'NONE', #1046, 3.600000000000005862 ) ;
#602 = ORIENTED_EDGE ( 'NONE', *, *, #132, .F. ) ;
#603 =( GEOMETRIC_REPRESENTATION_CONTEXT ( 3 ) GLOBAL_UNCERTAINTY_ASSIGNED_CONTEXT ( ( #508 ) ) GLOBAL_UNIT_ASSIGNED_CONTEXT ( ( #944, #1019, #918 ) ) REPRESENTATION_CONTEXT ( 'NONE', 'WORKASPACE' ) );
#604 = LINE ( 'NONE', #1203, #1093 ) ;
#605 = AXIS2_PLACEMENT_3D ( 'NONE', #507, #920, #10 ) ;
#606 = LINE ( 'NONE', #1230, #1147 ) ;
#607 = DIRECTION ( 'NONE',  ( 1.000000000000000000, 0.000000000000000000, 0.000000000000000000 ) ) ;
#608 = ORIENTED_EDGE ( 'NONE', *, *, #541, .F. ) ;
#609 = ORIENTED_EDGE ( 'NONE', *, *, #1116, .T. ) ;
#610 = CARTESIAN_POINT ( 'NONE',  ( 25.00000000000000000, 10.00000000000000355, 13.00000000000000000 ) ) ;
#611 = VECTOR ( 'NONE', #998, 1000.000000000000000 ) ;
#612 = CARTESIAN_POINT ( 'NONE',  ( 78.60000000000000853, 0.000000000000000000, 15.00000000000000178 ) ) ;
#613 = FACE_OUTER_BOUND ( 'NONE', #1208, .T. ) ;
#614 = EDGE_LOOP ( 'NONE', ( #129, #97 ) ) ;
#615 = VERTEX_POINT ( 'NONE', #1248 ) ;
#616 = CARTESIAN_POINT ( 'NONE',  ( 26.69999999999999574, -10.00000000000000000, -14.99999999999999822 ) ) ;
#617 = CARTESIAN_POINT ( 'NONE',  ( 87.70000000000000284, 1.555301434917139616E-15, -6.000000000000001776 ) ) ;
#618 = EDGE_CURVE ( 'NONE', #627, #800, #846, .T. ) ;
#619 = EDGE_LOOP ( 'NONE', ( #1166, #50 ) ) ;
#620 = ORIENTED_EDGE ( 'NONE', *, *, #307, .T. ) ;
#621 = EDGE_LOOP ( 'NONE', ( #1251, #1202, #633, #185 ) ) ;
#622 = CARTESIAN_POINT ( 'NONE',  ( 90.00000000000000000, 13.00000000000000000, 5.999999999999999112 ) ) ;
#623 = CARTESIAN_POINT ( 'NONE',  ( 90.00000000000000000, 0.000000000000000000, 0.000000000000000000 ) ) ;
#624 = VECTOR ( 'NONE', #951, 1000.000000000000000 ) ;
#625 = CARTESIAN_POINT ( 'NONE',  ( 5.000000000000002665, -10.00000000000000178, 15.00000000000000178 ) ) ;
#626 = VERTEX_POINT ( 'NONE', #858 ) ;
#627 = VERTEX_POINT ( 'NONE', #1270 ) ;
#628 = EDGE_CURVE ( 'NONE', #300, #227, #433, .T. ) ;
#629 = DIRECTION ( 'NONE',  ( 0.000000000000000000, 0.000000000000000000, 1.000000000000000000 ) ) ;
#630 = DIRECTION ( 'NONE',  ( 0.000000000000000000, 1.000000000000000000, 0.000000000000000000 ) ) ;
#631 = FACE_OUTER_BOUND ( 'NONE', #485, .T. ) ;
#632 = DIRECTION ( 'NONE',  ( 0.000000000000000000, 1.334402673828313339E-16, -1.000000000000000000 ) ) ;
#633 = ORIENTED_EDGE ( 'NONE', *, *, #266, .T. ) ;
#634 = EDGE_CURVE ( 'NONE', #1126, #130, #1185, .T. ) ;
#635 = FACE_OUTER_BOUND ( 'NONE', #70, .T. ) ;
#636 = EDGE_CURVE ( 'NONE', #1308, #691, #467, .T. ) ;
#637 = CARTESIAN_POINT ( 'NONE',  ( 87.70000000000000284, 1.555301434917139024E-15, 8.000000000000037303 ) ) ;
#638 = CARTESIAN_POINT ( 'NONE',  ( 76.69999999999998863, -8.500000000000000000, -2.000000000000027978 ) ) ;
#639 = LINE ( 'NONE', #947, #99 ) ;
#640 = EDGE_LOOP ( 'NONE', ( #1182, #648, #832, #968 ) ) ;
#641 = DIRECTION ( 'NONE',  ( -0.000000000000000000, -0.000000000000000000, 1.000000000000000000 ) ) ;
#642 = VECTOR ( 'NONE', #482, 1000.000000000000000 ) ;
#643 = EDGE_CURVE ( 'NONE', #1074, #227, #137, .T. ) ;
#644 = CARTESIAN_POINT ( 'NONE',  ( 78.60000000000000853, 0.000000000000000000, 12.99999999999999822 ) ) ;
#645 = LINE ( 'NONE', #867, #624 ) ;
#646 = DIRECTION ( 'NONE',  ( 0.000000000000000000, -0.000000000000000000, 1.000000000000000000 ) ) ;
#647 = VECTOR ( 'NONE', #153, 1000.000000000000000 ) ;
#648 = ORIENTED_EDGE ( 'NONE', *, *, #994, .T. ) ;
#649 = VECTOR ( 'NONE', #945, 1000.000000000000000 ) ;
#650 = DIRECTION ( 'NONE',  ( -0.000000000000000000, -0.000000000000000000, 1.000000000000000000 ) ) ;
#651 = DIRECTION ( 'NONE',  ( 0.000000000000000000, 0.000000000000000000, 1.000000000000000000 ) ) ;
#652 = CARTESIAN_POINT ( 'NONE',  ( 23.30000000000001137, 10.00000000000000355, 15.00000000000000178 ) ) ;
#653 = ADVANCED_FACE ( 'NONE', ( #438 ), #337, .F. ) ;
#654 = ORIENTED_EDGE ( 'NONE', *, *, #816, .F. ) ;
#655 = LINE ( 'NONE', #752, #760 ) ;
#656 = LINE ( 'NONE', #176, #1157 ) ;
#657 = FACE_OUTER_BOUND ( 'NONE', #380, .T. ) ;
#658 = EDGE_CURVE ( 'NONE', #881, #959, #669, .T. ) ;
#659 = ORIENTED_EDGE ( 'NONE', *, *, #327, .T. ) ;
#660 = AXIS2_PLACEMENT_3D ( 'NONE', #233, #320, #344 ) ;
#661 = ORIENTED_EDGE ( 'NONE', *, *, #1188, .F. ) ;
#662 = FACE_BOUND ( 'NONE', #768, .T. ) ;
#663 = CIRCLE ( 'NONE', #943, 1.699999999999986189 ) ;
#664 = DIRECTION ( 'NONE',  ( 0.000000000000000000, -1.334402673828313339E-16, 1.000000000000000000 ) ) ;
#665 = LINE ( 'NONE', #143, #511 ) ;
#666 = DIRECTION ( 'NONE',  ( -0.000000000000000000, -0.000000000000000000, -1.000000000000000000 ) ) ;
#667 = AXIS2_PLACEMENT_3D ( 'NONE', #1041, #629, #522 ) ;
#668 = EDGE_LOOP ( 'NONE', ( #323, #1127, #709, #739 ) ) ;
#669 = CIRCLE ( 'NONE', #902, 12.70000000000000462 ) ;
#670 = EDGE_CURVE ( 'NONE', #870, #460, #1071, .T. ) ;
#671 = ORIENTED_EDGE ( 'NONE', *, *, #578, .T. ) ;
#672 = DIRECTION ( 'NONE',  ( 0.000000000000000000, -1.000000000000000000, -1.334402673828313339E-16 ) ) ;
#673 = DIRECTION ( 'NONE',  ( 0.000000000000000000, 0.000000000000000000, 1.000000000000000000 ) ) ;
#674 = CARTESIAN_POINT ( 'NONE',  ( 25.00000000000000000, -10.00000000000000000, 15.00000000000000178 ) ) ;
#675 = ORIENTED_EDGE ( 'NONE', *, *, #1242, .T. ) ;
#676 = AXIS2_PLACEMENT_3D ( 'NONE', #1300, #579, #804 ) ;
#677 = EDGE_CURVE ( 'NONE', #1126, #77, #1247, .T. ) ;
#678 = ADVANCED_FACE ( 'NONE', ( #635 ), #1170, .F. ) ;
#679 = VERTEX_POINT ( 'NONE', #368 ) ;
#680 = DIRECTION ( 'NONE',  ( 0.000000000000000000, 1.000000000000000000, 0.000000000000000000 ) ) ;
#681 = CIRCLE ( 'NONE', #860, 1.699999999999987965 ) ;
#682 = FACE_BOUND ( 'NONE', #37, .T. ) ;
#683 = DIRECTION ( 'NONE',  ( -0.000000000000000000, -0.000000000000000000, 1.000000000000000000 ) ) ;
#684 = EDGE_LOOP ( 'NONE', ( #593, #465, #398, #286 ) ) ;
#685 = ORIENTED_EDGE ( 'NONE', *, *, #443, .F. ) ;
#686 = CYLINDRICAL_SURFACE ( 'NONE', #453, 1.699999999999989742 ) ;
#687 = FACE_BOUND ( 'NONE', #1121, .T. ) ;
#688 = LINE ( 'NONE', #702, #895 ) ;
#689 = ORIENTED_EDGE ( 'NONE', *, *, #266, .F. ) ;
#690 = AXIS2_PLACEMENT_3D ( 'NONE', #364, #664, #774 ) ;
#691 = VERTEX_POINT ( 'NONE', #377 ) ;
#692 = DIRECTION ( 'NONE',  ( 0.000000000000000000, -1.000000000000000000, 0.000000000000000000 ) ) ;
#693 = CARTESIAN_POINT ( 'NONE',  ( 75.00000000000000000, 0.000000000000000000, -13.00000000000000000 ) ) ;
#694 = CYLINDRICAL_SURFACE ( 'NONE', #45, 1.699999999999989742 ) ;
#695 = EDGE_CURVE ( 'NONE', #626, #478, #839, .T. ) ;
#696 = ORIENTED_EDGE ( 'NONE', *, *, #1087, .T. ) ;
#697 = VECTOR ( 'NONE', #455, 1000.000000000000000 ) ;
#698 = ORIENTED_EDGE ( 'NONE', *, *, #1305, .F. ) ;
#699 = ORIENTED_EDGE ( 'NONE', *, *, #634, .F. ) ;
#700 = DIRECTION ( 'NONE',  ( -0.000000000000000000, -0.000000000000000000, -1.000000000000000000 ) ) ;
#701 = DIRECTION ( 'NONE',  ( 0.000000000000000000, 1.334402673828313339E-16, -1.000000000000000000 ) ) ;
#702 = CARTESIAN_POINT ( 'NONE',  ( 0.000000000000000000, -15.00000000000000178, -14.99999999999999822 ) ) ;
#703 = EDGE_LOOP ( 'NONE', ( #659, #724, #917, #689 ) ) ;
#704 = ORIENTED_EDGE ( 'NONE', *, *, #554, .T. ) ;
#705 = CARTESIAN_POINT ( 'NONE',  ( 25.00000000000000000, 10.00000000000000355, 15.00000000000000178 ) ) ;
#706 = CARTESIAN_POINT ( 'NONE',  ( 73.29999999999999716, 8.500000000000000000, 13.00000000000000000 ) ) ;
#707 = CARTESIAN_POINT ( 'NONE',  ( 75.00000000000000000, 0.000000000000000000, -2.000000000000027978 ) ) ;
#708 = AXIS2_PLACEMENT_3D ( 'NONE', #39, #1077, #863 ) ;
#709 = ORIENTED_EDGE ( 'NONE', *, *, #738, .T. ) ;
#710 = AXIS2_PLACEMENT_3D ( 'NONE', #1299, #1192, #284 ) ;
#711 = AXIS2_PLACEMENT_3D ( 'NONE', #1268, #356, #257 ) ;
#712 = ORIENTED_EDGE ( 'NONE', *, *, #695, .F. ) ;
#713 = VECTOR ( 'NONE', #473, 1000.000000000000000 ) ;
#714 = CARTESIAN_POINT ( 'NONE',  ( 75.00000000000000000, 8.500000000000000000, 13.00000000000000000 ) ) ;
#715 = DIRECTION ( 'NONE',  ( 0.000000000000000000, -1.000000000000000000, 0.000000000000000000 ) ) ;
#716 = AXIS2_PLACEMENT_3D ( 'NONE', #834, #546, #354 ) ;
#717 = PLANE ( 'NONE',  #750 ) ;
#718 = ORIENTED_EDGE ( 'NONE', *, *, #745, .T. ) ;
#719 = EDGE_CURVE ( 'NONE', #679, #1, #140, .T. ) ;
#720 = EDGE_CURVE ( 'NONE', #352, #329, #544, .T. ) ;
#721 = DIRECTION ( 'NONE',  ( -0.000000000000000000, -0.000000000000000000, 1.000000000000000000 ) ) ;
#722 = DIRECTION ( 'NONE',  ( 0.000000000000000000, -1.000000000000000000, 0.000000000000000000 ) ) ;
#723 = ORIENTED_EDGE ( 'NONE', *, *, #1116, .F. ) ;
#724 = ORIENTED_EDGE ( 'NONE', *, *, #618, .T. ) ;
#725 = ORIENTED_EDGE ( 'NONE', *, *, #404, .F. ) ;
#726 = CARTESIAN_POINT ( 'NONE',  ( 90.00000000000000000, 13.00000000000000178, -13.00000000000000000 ) ) ;
#727 = CYLINDRICAL_SURFACE ( 'NONE', #49, 12.70000000000000284 ) ;
#728 = CARTESIAN_POINT ( 'NONE',  ( 3.300000000000011369, -10.00000000000000178, 15.00000000000000178 ) ) ;
#729 = DIRECTION ( 'NONE',  ( 1.000000000000000000, 0.000000000000000000, 0.000000000000000000 ) ) ;
#730 = EDGE_LOOP ( 'NONE', ( #864, #1125, #231, #791 ) ) ;
#731 = MANIFOLD_SOLID_BREP ( 'Cut-Extrude8', #142 ) ;
#732 = ORIENTED_EDGE ( 'NONE', *, *, #719, .T. ) ;
#733 = DIRECTION ( 'NONE',  ( 0.000000000000000000, 1.334402673828313339E-16, -1.000000000000000000 ) ) ;
#734 = DIRECTION ( 'NONE',  ( -0.000000000000000000, -0.000000000000000000, 1.000000000000000000 ) ) ;
#735 = CIRCLE ( 'NONE', #105, 3.600000000000005862 ) ;
#736 = EDGE_CURVE ( 'NONE', #626, #428, #243, .T. ) ;
#737 = DIRECTION ( 'NONE',  ( 1.000000000000000000, 0.000000000000000000, 0.000000000000000000 ) ) ;
#738 = EDGE_CURVE ( 'NONE', #316, #762, #1279, .T. ) ;
#739 = ORIENTED_EDGE ( 'NONE', *, *, #560, .F. ) ;
#740 = CARTESIAN_POINT ( 'NONE',  ( 90.00000000000000000, -13.00000000000000000, 12.99999999999999645 ) ) ;
#741 = FACE_BOUND ( 'NONE', #749, .T. ) ;
#742 = DIRECTION ( 'NONE',  ( -1.000000000000000000, 0.000000000000000000, 0.000000000000000000 ) ) ;
#743 = CARTESIAN_POINT ( 'NONE',  ( -3.717732635758650771E-15, -5.364675298172683071, 15.00000000000000178 ) ) ;
#744 = ORIENTED_EDGE ( 'NONE', *, *, #628, .T. ) ;
#745 = EDGE_CURVE ( 'NONE', #1276, #1, #103, .T. ) ;
#746 = CARTESIAN_POINT ( 'NONE',  ( 75.00000000000000000, 0.000000000000000000, 8.000000000000037303 ) ) ;
#747 = DIRECTION ( 'NONE',  ( -0.000000000000000000, -0.000000000000000000, -1.000000000000000000 ) ) ;
#748 = DIRECTION ( 'NONE',  ( 1.000000000000000000, 0.000000000000000000, 0.000000000000000000 ) ) ;
#749 = EDGE_LOOP ( 'NONE', ( #499, #1160 ) ) ;
#750 = AXIS2_PLACEMENT_3D ( 'NONE', #217, #328, #509 ) ;
#751 = EDGE_CURVE ( 'NONE', #1064, #1074, #813, .T. ) ;
#752 = CARTESIAN_POINT ( 'NONE',  ( 73.29999999999999716, -8.500000000000000000, -2.000000000000027978 ) ) ;
#753 = CARTESIAN_POINT ( 'NONE',  ( 75.00000000000000000, 8.500000000000000000, 15.00000000000000178 ) ) ;
#754 = CARTESIAN_POINT ( 'NONE',  ( 71.39999999999999147, 4.408728476930468193E-16, 12.99999999999999822 ) ) ;
#755 = AXIS2_PLACEMENT_3D ( 'NONE', #80, #1101, #692 ) ;
#756 = EDGE_LOOP ( 'NONE', ( #104, #1104, #1172, #306, #1318 ) ) ;
#757 = EDGE_CURVE ( 'NONE', #762, #316, #598, .T. ) ;
#758 = CARTESIAN_POINT ( 'NONE',  ( -3.717732635758650771E-15, -5.364675298172683071, 28.00000000000000355 ) ) ;
#759 = LINE ( 'NONE', #350, #647 ) ;
#760 = VECTOR ( 'NONE', #764, 1000.000000000000000 ) ;
#761 = CARTESIAN_POINT ( 'NONE',  ( -3.717732635758650771E-15, -5.364675298172683071, -15.00000000000000000 ) ) ;
#762 = VERTEX_POINT ( 'NONE', #314 ) ;
#763 = ORIENTED_EDGE ( 'NONE', *, *, #75, .T. ) ;
#764 = DIRECTION ( 'NONE',  ( -0.000000000000000000, -0.000000000000000000, 1.000000000000000000 ) ) ;
#765 = CARTESIAN_POINT ( 'NONE',  ( 90.00000000000000000, -15.00000000000000178, 15.00000000000000178 ) ) ;
#766 = CARTESIAN_POINT ( 'NONE',  ( 90.00000000000000000, 13.00000000000000178, -13.00000000000000000 ) ) ;
#767 = CARTESIAN_POINT ( 'NONE',  ( 0.000000000000000000, 13.00000000000000178, -13.00000000000000000 ) ) ;
#768 = EDGE_LOOP ( 'NONE', ( #517, #384 ) ) ;
#769 = EDGE_CURVE ( 'NONE', #959, #881, #365, .T. ) ;
#770 = VECTOR ( 'NONE', #503, 1000.000000000000000 ) ;
#771 = MECHANICAL_DESIGN_GEOMETRIC_PRESENTATION_REPRESENTATION (  '', ( #31 ), #1001 ) ;
#772 = EDGE_LOOP ( 'NONE', ( #512, #928, #1243, #179 ) ) ;
#773 = AXIS2_PLACEMENT_3D ( 'NONE', #241, #457, #360 ) ;
#774 = DIRECTION ( 'NONE',  ( 0.000000000000000000, -1.000000000000000000, -1.365923996832131116E-16 ) ) ;
#775 = DIRECTION ( 'NONE',  ( -0.000000000000000000, -0.000000000000000000, 1.000000000000000000 ) ) ;
#776 = DIRECTION ( 'NONE',  ( -0.000000000000000000, -0.000000000000000000, 1.000000000000000000 ) ) ;
#777 = AXIS2_PLACEMENT_3D ( 'NONE', #610, #1137, #1235 ) ;
#778 = ADVANCED_FACE ( 'NONE', ( #890 ), #1316, .T. ) ;
#779 = ORIENTED_EDGE ( 'NONE', *, *, #283, .F. ) ;
#780 = ADVANCED_FACE ( 'NONE', ( #191 ), #210, .F. ) ;
#781 = EDGE_LOOP ( 'NONE', ( #1292, #675 ) ) ;
#782 = DIRECTION ( 'NONE',  ( 1.000000000000000000, 0.000000000000000000, 0.000000000000000000 ) ) ;
#783 = PLANE ( 'NONE',  #468 ) ;
#784 = CARTESIAN_POINT ( 'NONE',  ( 26.69999999999999218, 10.00000000000000355, 15.00000000000000178 ) ) ;
#785 = VERTEX_POINT ( 'NONE', #5 ) ;
#786 = AXIS2_PLACEMENT_3D ( 'NONE', #991, #305, #898 ) ;
#787 = ORIENTED_EDGE ( 'NONE', *, *, #1252, .T. ) ;
#788 = FACE_BOUND ( 'NONE', #614, .T. ) ;
#789 = CARTESIAN_POINT ( 'NONE',  ( 62.29999999999999716, 0.000000000000000000, 8.000000000000037303 ) ) ;
#790 = FACE_OUTER_BOUND ( 'NONE', #949, .T. ) ;
#791 = ORIENTED_EDGE ( 'NONE', *, *, #930, .F. ) ;
#792 = ORIENTED_EDGE ( 'NONE', *, *, #817, .F. ) ;
#793 = FACE_BOUND ( 'NONE', #781, .T. ) ;
#794 = PRODUCT_DEFINITION ( 'UNKNOWN', '', #1029, #914 ) ;
#795 = DIRECTION ( 'NONE',  ( 0.000000000000000000, 1.000000000000000000, 0.000000000000000000 ) ) ;
#796 = DIRECTION ( 'NONE',  ( -0.000000000000000000, -0.000000000000000000, 1.000000000000000000 ) ) ;
#797 = ORIENTED_EDGE ( 'NONE', *, *, #334, .T. ) ;
#798 = CIRCLE ( 'NONE', #777, 1.699999999999989742 ) ;
#799 = AXIS2_PLACEMENT_3D ( 'NONE', #271, #957, #854 ) ;
#800 = VERTEX_POINT ( 'NONE', #1097 ) ;
#801 = LINE ( 'NONE', #282, #1246 ) ;
#802 = CARTESIAN_POINT ( 'NONE',  ( 54.18233764908581662, 48.81766235091377126, -12.99999999999999467 ) ) ;
#803 = EDGE_CURVE ( 'NONE', #378, #626, #884, .T. ) ;
#804 = DIRECTION ( 'NONE',  ( 0.000000000000000000, 1.000000000000000000, 0.000000000000000000 ) ) ;
#805 = EDGE_LOOP ( 'NONE', ( #975, #393, #229, #1114 ) ) ;
#806 = VERTEX_POINT ( 'NONE', #483 ) ;
#807 = APPLICATION_CONTEXT ( 'automotive_design' ) ;
#808 = CARTESIAN_POINT ( 'NONE',  ( 0.000000000000000000, -15.00000000000000178, 15.00000000000000178 ) ) ;
#809 = DIRECTION ( 'NONE',  ( -1.000000000000000000, -0.000000000000000000, -0.000000000000000000 ) ) ;
#810 = DIRECTION ( 'NONE',  ( 0.000000000000000000, 0.000000000000000000, -1.000000000000000000 ) ) ;
#811 = VERTEX_POINT ( 'NONE', #1307 ) ;
#812 = DIRECTION ( 'NONE',  ( -0.000000000000000000, 1.000000000000000000, 1.334402673828313093E-16 ) ) ;
#813 = LINE ( 'NONE', #196, #29 ) ;
#814 = ORIENTED_EDGE ( 'NONE', *, *, #292, .F. ) ;
#815 = AXIS2_PLACEMENT_3D ( 'NONE', #1089, #291, #1184 ) ;
#816 = EDGE_CURVE ( 'NONE', #1276, #391, #218, .T. ) ;
#817 = EDGE_CURVE ( 'NONE', #86, #130, #113, .T. ) ;
#818 = CIRCLE ( 'NONE', #125, 12.70000000000000462 ) ;
#819 = FACE_OUTER_BOUND ( 'NONE', #527, .T. ) ;
#820 = PLANE ( 'NONE',  #98 ) ;
#821 = ORIENTED_EDGE ( 'NONE', *, *, #952, .T. ) ;
#822 = ORIENTED_EDGE ( 'NONE', *, *, #479, .F. ) ;
#823 = CARTESIAN_POINT ( 'NONE',  ( 90.00000000000000000, -15.00000000000000178, -14.99999999999999822 ) ) ;
#824 = CARTESIAN_POINT ( 'NONE',  ( 26.69999999999999218, 10.00000000000000355, 13.00000000000000000 ) ) ;
#825 = ORIENTED_EDGE ( 'NONE', *, *, #1081, .F. ) ;
#826 = ORIENTED_EDGE ( 'NONE', *, *, #892, .F. ) ;
#827 = ORIENTED_EDGE ( 'NONE', *, *, #207, .T. ) ;
#828 = APPLICATION_PROTOCOL_DEFINITION ( 'draft international standard', 'automotive_design', 1998, #81 ) ;
#829 = CARTESIAN_POINT ( 'NONE',  ( 23.30000000000001137, 10.00000000000000355, 15.00000000000000178 ) ) ;
#830 = DIRECTION ( 'NONE',  ( 0.000000000000000000, 0.000000000000000000, 1.000000000000000000 ) ) ;
#831 = ADVANCED_FACE ( 'NONE', ( #390 ), #299, .F. ) ;
#832 = ORIENTED_EDGE ( 'NONE', *, *, #529, .T. ) ;
#833 = ORIENTED_EDGE ( 'NONE', *, *, #1207, .F. ) ;
#834 = CARTESIAN_POINT ( 'NONE',  ( 90.00000000000000000, 13.00000000000000178, -13.00000000000000000 ) ) ;
#835 = CARTESIAN_POINT ( 'NONE',  ( 75.00000000000000000, 0.000000000000000000, 15.00000000000000178 ) ) ;
#836 = AXIS2_PLACEMENT_3D ( 'NONE', #765, #976, #446 ) ;
#837 = DIRECTION ( 'NONE',  ( 1.000000000000000000, 0.000000000000000000, 0.000000000000000000 ) ) ;
#838 = EDGE_LOOP ( 'NONE', ( #654, #562 ) ) ;
#839 = LINE ( 'NONE', #740, #871 ) ;
#840 = CARTESIAN_POINT ( 'NONE',  ( 0.000000000000000000, -13.00000000000000000, 12.99999999999999645 ) ) ;
#841 = DIRECTION ( 'NONE',  ( 0.000000000000000000, 0.000000000000000000, 1.000000000000000000 ) ) ;
#842 = AXIS2_PLACEMENT_3D ( 'NONE', #1218, #293, #715 ) ;
#843 = DIRECTION ( 'NONE',  ( -0.000000000000000000, -0.000000000000000000, 1.000000000000000000 ) ) ;
#844 = ORIENTED_EDGE ( 'NONE', *, *, #132, .T. ) ;
#845 = VECTOR ( 'NONE', #1122, 1000.000000000000000 ) ;
#846 = LINE ( 'NONE', #152, #697 ) ;
#847 = CARTESIAN_POINT ( 'NONE',  ( 71.39999999999999147, 4.408728476930474110E-16, -2.000000000000027978 ) ) ;
#848 = CARTESIAN_POINT ( 'NONE',  ( 6.699999999999993960, -10.00000000000000178, 15.00000000000000178 ) ) ;
#849 = ORIENTED_EDGE ( 'NONE', *, *, #1063, .F. ) ;
#850 = ADVANCED_FACE ( 'NONE', ( #476 ), #694, .F. ) ;
#851 = VECTOR ( 'NONE', #447, 1000.000000000000000 ) ;
#852 = EDGE_CURVE ( 'NONE', #567, #410, #1199, .T. ) ;
#853 = DIRECTION ( 'NONE',  ( 0.000000000000000000, -1.334402673828313339E-16, 1.000000000000000000 ) ) ;
#854 = DIRECTION ( 'NONE',  ( 1.000000000000000000, 0.000000000000000000, 0.000000000000000000 ) ) ;
#855 = LINE ( 'NONE', #1163, #851 ) ;
#856 = CIRCLE ( 'NONE', #755, 1.699999999999989742 ) ;
#857 = ORIENTED_EDGE ( 'NONE', *, *, #560, .T. ) ;
#858 = CARTESIAN_POINT ( 'NONE',  ( 90.00000000000000000, -13.00000000000000000, 12.99999999999999645 ) ) ;
#859 = LINE ( 'NONE', #1162, #1179 ) ;
#860 = AXIS2_PLACEMENT_3D ( 'NONE', #1236, #919, #332 ) ;
#861 = ADVANCED_FACE ( 'NONE', ( #790 ), #95, .F. ) ;
#862 = CARTESIAN_POINT ( 'NONE',  ( 23.30000000000000782, 10.00000000000000355, -14.99999999999999822 ) ) ;
#863 = DIRECTION ( 'NONE',  ( 1.000000000000000000, 0.000000000000000000, 0.000000000000000000 ) ) ;
#864 = ORIENTED_EDGE ( 'NONE', *, *, #1107, .T. ) ;
#865 = ORIENTED_EDGE ( 'NONE', *, *, #852, .T. ) ;
#866 = EDGE_CURVE ( 'NONE', #24, #187, #688, .T. ) ;
#867 = CARTESIAN_POINT ( 'NONE',  ( 90.00000000000000000, 13.00000000000000000, 5.999999999999999112 ) ) ;
#868 = CYLINDRICAL_SURFACE ( 'NONE', #1131, 1.699999999999989742 ) ;
#869 = EDGE_CURVE ( 'NONE', #1000, #302, #1007, .T. ) ;
#870 = VERTEX_POINT ( 'NONE', #1015 ) ;
#871 = VECTOR ( 'NONE', #876, 1000.000000000000000 ) ;
#872 = ORIENTED_EDGE ( 'NONE', *, *, #954, .F. ) ;
#873 = VECTOR ( 'NONE', #1153, 1000.000000000000000 ) ;
#874 = CYLINDRICAL_SURFACE ( 'NONE', #516, 1.699999999999993072 ) ;
#875 = DIRECTION ( 'NONE',  ( -0.000000000000000000, 1.000000000000000000, 1.334402673828313339E-16 ) ) ;
#876 = DIRECTION ( 'NONE',  ( -1.000000000000000000, -0.000000000000000000, -0.000000000000000000 ) ) ;
#877 = VECTOR ( 'NONE', #87, 1000.000000000000000 ) ;
#878 = EDGE_CURVE ( 'NONE', #460, #163, #1113, .T. ) ;
#879 = ORIENTED_EDGE ( 'NONE', *, *, #578, .F. ) ;
#880 = CIRCLE ( 'NONE', #317, 1.699999999999989742 ) ;
#881 = VERTEX_POINT ( 'NONE', #525 ) ;
#882 = DIRECTION ( 'NONE',  ( 1.000000000000000000, 0.000000000000000000, 0.000000000000000000 ) ) ;
#883 = DIRECTION ( 'NONE',  ( -0.000000000000000000, -0.000000000000000000, -1.000000000000000000 ) ) ;
#884 = LINE ( 'NONE', #1206, #1018 ) ;
#885 = ORIENTED_EDGE ( 'NONE', *, *, #1129, .F. ) ;
#886 = ADVANCED_FACE ( 'NONE', ( #631 ), #1026, .T. ) ;
#887 = ORIENTED_EDGE ( 'NONE', *, *, #91, .F. ) ;
#888 = DIRECTION ( 'NONE',  ( 0.000000000000000000, 0.000000000000000000, 1.000000000000000000 ) ) ;
#889 = FACE_OUTER_BOUND ( 'NONE', #899, .T. ) ;
#890 = FACE_OUTER_BOUND ( 'NONE', #363, .T. ) ;
#891 = VERTEX_POINT ( 'NONE', #1037 ) ;
#892 = EDGE_CURVE ( 'NONE', #460, #870, #331, .T. ) ;
#893 = ORIENTED_EDGE ( 'NONE', *, *, #477, .T. ) ;
#894 = LINE ( 'NONE', #1109, #1285 ) ;
#895 = VECTOR ( 'NONE', #1103, 1000.000000000000000 ) ;
#896 = VECTOR ( 'NONE', #958, 1000.000000000000000 ) ;
#897 = FACE_BOUND ( 'NONE', #1187, .T. ) ;
#898 = DIRECTION ( 'NONE',  ( 1.000000000000000000, 0.000000000000000000, 0.000000000000000000 ) ) ;
#899 = EDGE_LOOP ( 'NONE', ( #608, #985, #164, #553 ) ) ;
#900 = VECTOR ( 'NONE', #515, 1000.000000000000000 ) ;
#901 = EDGE_LOOP ( 'NONE', ( #1032, #1253, #908, #1312 ) ) ;
#902 = AXIS2_PLACEMENT_3D ( 'NONE', #1047, #278, #972 ) ;
#903 = LINE ( 'NONE', #808, #230 ) ;
#904 = DIRECTION ( 'NONE',  ( -0.000000000000000000, -0.000000000000000000, -1.000000000000000000 ) ) ;
#905 = DIRECTION ( 'NONE',  ( 0.000000000000000000, 1.334402673828313339E-16, -1.000000000000000000 ) ) ;
#906 = ADVANCED_FACE ( 'NONE', ( #134, #1249, #426 ), #820, .F. ) ;
#907 = ORIENTED_EDGE ( 'NONE', *, *, #348, .F. ) ;
#908 = ORIENTED_EDGE ( 'NONE', *, *, #172, .F. ) ;
#909 = FACE_OUTER_BOUND ( 'NONE', #684, .T. ) ;
#910 = DIRECTION ( 'NONE',  ( 0.000000000000000000, 1.334402673828313339E-16, -1.000000000000000000 ) ) ;
#911 = ADVANCED_FACE ( 'NONE', ( #1141 ), #1031, .F. ) ;
#912 = VECTOR ( 'NONE', #115, 1000.000000000000000 ) ;
#913 = CARTESIAN_POINT ( 'NONE',  ( -3.717732635758650771E-15, -5.364675298172683071, 28.00000000000000355 ) ) ;
#914 = PRODUCT_DEFINITION_CONTEXT ( 'detailed design', #81, 'design' ) ;
#915 = EDGE_CURVE ( 'NONE', #615, #995, #432, .T. ) ;
#916 = FACE_OUTER_BOUND ( 'NONE', #322, .T. ) ;
#917 = ORIENTED_EDGE ( 'NONE', *, *, #268, .T. ) ;
#918 =( NAMED_UNIT ( * ) SI_UNIT ( $, .STERADIAN. ) SOLID_ANGLE_UNIT ( ) );
#919 = DIRECTION ( 'NONE',  ( -0.000000000000000000, -0.000000000000000000, 1.000000000000000000 ) ) ;
#920 = DIRECTION ( 'NONE',  ( 0.000000000000000000, -1.000000000000000000, 0.000000000000000000 ) ) ;
#921 = FACE_OUTER_BOUND ( 'NONE', #573, .T. ) ;
#922 = ORIENTED_EDGE ( 'NONE', *, *, #1105, .T. ) ;
#923 = AXIS2_PLACEMENT_3D ( 'NONE', #148, #1050, #1158 ) ;
#924 = DIRECTION ( 'NONE',  ( -1.000000000000000000, -0.000000000000000000, -0.000000000000000000 ) ) ;
#925 = PLANE ( 'NONE',  #605 ) ;
#926 = EDGE_LOOP ( 'NONE', ( #1301, #1148 ) ) ;
#927 = ORIENTED_EDGE ( 'NONE', *, *, #386, .F. ) ;
#928 = ORIENTED_EDGE ( 'NONE', *, *, #1229, .T. ) ;
#929 = CIRCLE ( 'NONE', #523, 1.699999999999991518 ) ;
#930 = EDGE_CURVE ( 'NONE', #1009, #881, #1256, .T. ) ;
#931 = DIRECTION ( 'NONE',  ( -1.000000000000000000, -0.000000000000000000, -0.000000000000000000 ) ) ;
#932 = CARTESIAN_POINT ( 'NONE',  ( 90.00000000000000000, 13.00000000000000178, -13.00000000000000000 ) ) ;
#933 = DIRECTION ( 'NONE',  ( 0.000000000000000000, 1.334402673828313339E-16, -1.000000000000000000 ) ) ;
#934 = CARTESIAN_POINT ( 'NONE',  ( 5.000000000000002665, -10.00000000000000178, 15.00000000000000178 ) ) ;
#935 = ORIENTED_EDGE ( 'NONE', *, *, #154, .F. ) ;
#936 = ORIENTED_EDGE ( 'NONE', *, *, #1073, .F. ) ;
#937 = LINE ( 'NONE', #932, #238 ) ;
#938 = DIRECTION ( 'NONE',  ( 0.000000000000000000, -0.000000000000000000, -1.000000000000000000 ) ) ;
#939 = VERTEX_POINT ( 'NONE', #1237 ) ;
#940 = VECTOR ( 'NONE', #178, 1000.000000000000000 ) ;
#941 = ORIENTED_EDGE ( 'NONE', *, *, #817, .T. ) ;
#942 = AXIS2_PLACEMENT_3D ( 'NONE', #375, #487, #272 ) ;
#943 = AXIS2_PLACEMENT_3D ( 'NONE', #442, #1262, #962 ) ;
#944 =( LENGTH_UNIT ( ) NAMED_UNIT ( * ) SI_UNIT ( .MILLI., .METRE. ) );
#945 = DIRECTION ( 'NONE',  ( 0.7071067811865434649, 0.7071067811865516806, 9.435651794974666590E-17 ) ) ;
#946 = CARTESIAN_POINT ( 'NONE',  ( 40.18233764908580952, 34.81766235091360073, -14.99999999999999822 ) ) ;
#947 = CARTESIAN_POINT ( 'NONE',  ( 90.00000000000000000, -15.00000000000000178, 15.00000000000000178 ) ) ;
#948 = EDGE_CURVE ( 'NONE', #144, #691, #290, .T. ) ;
#949 = EDGE_LOOP ( 'NONE', ( #1136, #979, #136, #872 ) ) ;
#950 = FACE_BOUND ( 'NONE', #281, .T. ) ;
#951 = DIRECTION ( 'NONE',  ( -1.000000000000000000, -0.000000000000000000, -0.000000000000000000 ) ) ;
#952 = EDGE_CURVE ( 'NONE', #410, #330, #735, .T. ) ;
#953 = DIRECTION ( 'NONE',  ( 1.000000000000000000, 0.000000000000000000, 0.000000000000000000 ) ) ;
#954 = EDGE_CURVE ( 'NONE', #1180, #175, #240, .T. ) ;
#955 = VERTEX_POINT ( 'NONE', #1043 ) ;
#956 = CARTESIAN_POINT ( 'NONE',  ( 5.000000000000002665, -10.00000000000000178, 12.99999999999999645 ) ) ;
#957 = DIRECTION ( 'NONE',  ( 0.000000000000000000, 0.000000000000000000, 1.000000000000000000 ) ) ;
#958 = DIRECTION ( 'NONE',  ( 0.000000000000000000, 0.000000000000000000, -1.000000000000000000 ) ) ;
#959 = VERTEX_POINT ( 'NONE', #617 ) ;
#960 = FACE_BOUND ( 'NONE', #568, .T. ) ;
#961 = DIRECTION ( 'NONE',  ( 1.000000000000000000, 0.000000000000000000, 0.000000000000000000 ) ) ;
#962 = DIRECTION ( 'NONE',  ( 1.000000000000000000, 0.000000000000000000, 0.000000000000000000 ) ) ;
#963 = SURFACE_STYLE_FILL_AREA ( #1274 ) ;
#964 = AXIS2_PLACEMENT_3D ( 'NONE', #400, #1004, #782 ) ;
#965 = ORIENTED_EDGE ( 'NONE', *, *, #1250, .T. ) ;
#966 = EDGE_CURVE ( 'NONE', #378, #1000, #117, .T. ) ;
#967 = EDGE_CURVE ( 'NONE', #399, #187, #540, .T. ) ;
#968 = ORIENTED_EDGE ( 'NONE', *, *, #878, .F. ) ;
#969 = CARTESIAN_POINT ( 'NONE',  ( 0.000000000000000000, -15.00000000000000178, 15.00000000000000178 ) ) ;
#970 = DIRECTION ( 'NONE',  ( 0.000000000000000000, 0.000000000000000000, -1.000000000000000000 ) ) ;
#971 = DIRECTION ( 'NONE',  ( 0.000000000000000000, 1.334402673828313339E-16, -1.000000000000000000 ) ) ;
#972 = DIRECTION ( 'NONE',  ( 0.000000000000000000, 1.000000000000000000, 1.365923996832131116E-16 ) ) ;
#973 = ORIENTED_EDGE ( 'NONE', *, *, #154, .T. ) ;
#974 = CIRCLE ( 'NONE', #406, 3.600000000000001421 ) ;
#975 = ORIENTED_EDGE ( 'NONE', *, *, #213, .F. ) ;
#976 = DIRECTION ( 'NONE',  ( -0.000000000000000000, 1.000000000000000000, 0.000000000000000000 ) ) ;
#977 = CARTESIAN_POINT ( 'NONE',  ( 71.39999999999999147, 4.408728476930468193E-16, 15.00000000000000178 ) ) ;
#978 = CARTESIAN_POINT ( 'NONE',  ( 59.00000000000003553, 13.00000000000000178, -5.999999999999999112 ) ) ;
#979 = ORIENTED_EDGE ( 'NONE', *, *, #479, .T. ) ;
#980 = ORIENTED_EDGE ( 'NONE', *, *, #892, .T. ) ;
#981 = CIRCLE ( 'NONE', #1216, 1.699999999999987965 ) ;
#982 = CARTESIAN_POINT ( 'NONE',  ( 26.69999999999999218, -10.00000000000000000, 15.00000000000000178 ) ) ;
#983 = CARTESIAN_POINT ( 'NONE',  ( 6.699999999999990408, -10.00000000000000178, 15.00000000000000355 ) ) ;
#984 = DIRECTION ( 'NONE',  ( -0.7071067811865516806, 0.7071067811865434649, 0.000000000000000000 ) ) ;
#985 = ORIENTED_EDGE ( 'NONE', *, *, #1124, .T. ) ;
#986 = EDGE_CURVE ( 'NONE', #416, #1308, #1220, .T. ) ;
#987 = AXIS2_PLACEMENT_3D ( 'NONE', #1145, #333, #434 ) ;
#988 = ORIENTED_EDGE ( 'NONE', *, *, #156, .T. ) ;
#989 = CARTESIAN_POINT ( 'NONE',  ( 90.00000000000000000, -15.00000000000000178, -14.99999999999999822 ) ) ;
#990 = CARTESIAN_POINT ( 'NONE',  ( 59.00000000000004263, -13.00000000000000000, -6.000000000000002665 ) ) ;
#991 = CARTESIAN_POINT ( 'NONE',  ( 75.00000000000000000, -8.500000000000000000, -2.000000000000027978 ) ) ;
#992 = ADVANCED_FACE ( 'NONE', ( #613 ), #925, .T. ) ;
#993 = ORIENTED_EDGE ( 'NONE', *, *, #228, .F. ) ;
#994 = EDGE_CURVE ( 'NONE', #870, #493, #414, .T. ) ;
#995 = VERTEX_POINT ( 'NONE', #824 ) ;
#996 = CARTESIAN_POINT ( 'NONE',  ( 40.18233764908580952, 34.81766235091360073, 15.00000000000000178 ) ) ;
#997 = CARTESIAN_POINT ( 'NONE',  ( 75.00000000000000000, 0.000000000000000000, 15.00000000000000178 ) ) ;
#998 = DIRECTION ( 'NONE',  ( -0.000000000000000000, -0.000000000000000000, 1.000000000000000000 ) ) ;
#999 = ORIENTED_EDGE ( 'NONE', *, *, #869, .F. ) ;
#1000 = VERTEX_POINT ( 'NONE', #1231 ) ;
#1001 =( GEOMETRIC_REPRESENTATION_CONTEXT ( 3 ) GLOBAL_UNCERTAINTY_ASSIGNED_CONTEXT ( ( #11 ) ) GLOBAL_UNIT_ASSIGNED_CONTEXT ( ( #1245, #264, #1254 ) ) REPRESENTATION_CONTEXT ( 'NONE', 'WORKASPACE' ) );
#1002 = ORIENTED_EDGE ( 'NONE', *, *, #628, .F. ) ;
#1003 = EDGE_CURVE ( 'NONE', #1201, #242, #326, .T. ) ;
#1004 = DIRECTION ( 'NONE',  ( -0.000000000000000000, -0.000000000000000000, 1.000000000000000000 ) ) ;
#1005 = AXIS2_PLACEMENT_3D ( 'NONE', #531, #722, #938 ) ;
#1006 = FACE_OUTER_BOUND ( 'NONE', #342, .T. ) ;
#1007 = LINE ( 'NONE', #403, #1238 ) ;
#1008 = EDGE_LOOP ( 'NONE', ( #592, #294, #1039, #763 ) ) ;
#1009 = VERTEX_POINT ( 'NONE', #355 ) ;
#1010 = CIRCLE ( 'NONE', #923, 1.699999999999993072 ) ;
#1011 = EDGE_CURVE ( 'NONE', #600, #24, #1056, .T. ) ;
#1012 = DIRECTION ( 'NONE',  ( -0.000000000000000000, -0.000000000000000000, 1.000000000000000000 ) ) ;
#1013 = ADVANCED_FACE ( 'NONE', ( #73 ), #359, .F. ) ;
#1014 = CARTESIAN_POINT ( 'NONE',  ( 90.00000000000000000, -13.00000000000000000, 5.999999999999995559 ) ) ;
#1015 = CARTESIAN_POINT ( 'NONE',  ( 23.30000000000000782, -10.00000000000000000, -14.99999999999999822 ) ) ;
#1016 = VERTEX_POINT ( 'NONE', #557 ) ;
#1017 = VERTEX_POINT ( 'NONE', #569 ) ;
#1018 = VECTOR ( 'NONE', #586, 1000.000000000000000 ) ;
#1019 =( NAMED_UNIT ( * ) PLANE_ANGLE_UNIT ( ) SI_UNIT ( $, .RADIAN. ) );
#1020 = CARTESIAN_POINT ( 'NONE',  ( 25.00000000000000000, -10.00000000000000000, 15.00000000000000178 ) ) ;
#1021 = AXIS2_PLACEMENT_3D ( 'NONE', #714, #733, #630 ) ;
#1022 = DIRECTION ( 'NONE',  ( -0.000000000000000000, -0.000000000000000000, 1.000000000000000000 ) ) ;
#1023 = EDGE_LOOP ( 'NONE', ( #1084, #1061 ) ) ;
#1024 = ORIENTED_EDGE ( 'NONE', *, *, #72, .T. ) ;
#1025 = DIRECTION ( 'NONE',  ( 1.000000000000000000, 0.000000000000000000, 0.000000000000000000 ) ) ;
#1026 = PLANE ( 'NONE',  #660 ) ;
#1027 = AXIS2_PLACEMENT_3D ( 'NONE', #934, #234, #837 ) ;
#1028 = FACE_OUTER_BOUND ( 'NONE', #805, .T. ) ;
#1029 = PRODUCT_DEFINITION_FORMATION_WITH_SPECIFIED_SOURCE ( 'ANY', '', #1241, .NOT_KNOWN. ) ;
#1030 = CARTESIAN_POINT ( 'NONE',  ( 20.36467529817244326, 15.00000000000000000, -15.00000000000000000 ) ) ;
#1031 = PLANE ( 'NONE',  #1005 ) ;
#1032 = ORIENTED_EDGE ( 'NONE', *, *, #803, .F. ) ;
#1033 = VERTEX_POINT ( 'NONE', #66 ) ;
#1034 = ORIENTED_EDGE ( 'NONE', *, *, #198, .T. ) ;
#1035 = ADVANCED_FACE ( 'NONE', ( #261 ), #874, .F. ) ;
#1036 = DIRECTION ( 'NONE',  ( 1.000000000000000000, 0.000000000000000000, 0.000000000000000000 ) ) ;
#1037 = CARTESIAN_POINT ( 'NONE',  ( 87.70000000000000284, 1.555301434917139221E-15, 5.999999999999997335 ) ) ;
#1038 = FACE_OUTER_BOUND ( 'NONE', #1078, .T. ) ;
#1039 = ORIENTED_EDGE ( 'NONE', *, *, #1264, .F. ) ;
#1040 = FILL_AREA_STYLE_COLOUR ( '', #308 ) ;
#1041 = CARTESIAN_POINT ( 'NONE',  ( 0.000000000000000000, 0.000000000000000000, 0.000000000000000000 ) ) ;
#1042 = DIRECTION ( 'NONE',  ( -0.000000000000000000, -0.000000000000000000, -1.000000000000000000 ) ) ;
#1043 = CARTESIAN_POINT ( 'NONE',  ( 90.00000000000000000, -15.00000000000000178, 15.00000000000000178 ) ) ;
#1044 = LINE ( 'NONE', #848, #162 ) ;
#1045 = ORIENTED_EDGE ( 'NONE', *, *, #138, .T. ) ;
#1046 = AXIS2_PLACEMENT_3D ( 'NONE', #997, #673, #1198 ) ;
#1047 = CARTESIAN_POINT ( 'NONE',  ( 75.00000000000000000, 0.000000000000000000, -6.000000000000001776 ) ) ;
#1048 = EDGE_CURVE ( 'NONE', #422, #378, #60, .T. ) ;
#1049 = FACE_BOUND ( 'NONE', #619, .T. ) ;
#1050 = DIRECTION ( 'NONE',  ( 0.000000000000000000, 0.000000000000000000, 1.000000000000000000 ) ) ;
#1051 = EDGE_CURVE ( 'NONE', #785, #1017, #1286, .T. ) ;
#1052 = FACE_OUTER_BOUND ( 'NONE', #587, .T. ) ;
#1053 = CIRCLE ( 'NONE', #545, 12.70000000000000462 ) ;
#1054 = ORIENTED_EDGE ( 'NONE', *, *, #182, .F. ) ;
#1055 = DIRECTION ( 'NONE',  ( 0.000000000000000000, 0.000000000000000000, -1.000000000000000000 ) ) ;
#1056 = LINE ( 'NONE', #256, #495 ) ;
#1057 = LINE ( 'NONE', #155, #896 ) ;
#1058 = ORIENTED_EDGE ( 'NONE', *, *, #347, .F. ) ;
#1059 = CARTESIAN_POINT ( 'NONE',  ( 25.00000000000000000, -10.00000000000000000, -13.00000000000000355 ) ) ;
#1060 = PLANE ( 'NONE',  #556 ) ;
#1061 = ORIENTED_EDGE ( 'NONE', *, *, #268, .F. ) ;
#1062 = AXIS2_PLACEMENT_3D ( 'NONE', #226, #21, #128 ) ;
#1063 = EDGE_CURVE ( 'NONE', #811, #1033, #245, .T. ) ;
#1064 = VERTEX_POINT ( 'NONE', #1271 ) ;
#1065 = FACE_BOUND ( 'NONE', #212, .T. ) ;
#1066 = VECTOR ( 'NONE', #931, 1000.000000000000000 ) ;
#1067 = DIRECTION ( 'NONE',  ( 1.000000000000000000, 0.000000000000000000, 0.000000000000000000 ) ) ;
#1068 = DIRECTION ( 'NONE',  ( -0.000000000000000000, -0.000000000000000000, 1.000000000000000000 ) ) ;
#1069 = SURFACE_STYLE_USAGE ( .BOTH. , #184 ) ;
#1070 = CIRCLE ( 'NONE', #353, 1.699999999999993072 ) ;
#1071 = CIRCLE ( 'NONE', #498, 1.699999999999993072 ) ;
#1072 = ORIENTED_EDGE ( 'NONE', *, *, #757, .F. ) ;
#1073 = EDGE_CURVE ( 'NONE', #1180, #1016, #395, .T. ) ;
#1074 = VERTEX_POINT ( 'NONE', #1168 ) ;
#1075 = DIRECTION ( 'NONE',  ( 0.000000000000000000, 1.334402673828313339E-16, -1.000000000000000000 ) ) ;
#1076 = DIRECTION ( 'NONE',  ( 0.000000000000000000, 0.000000000000000000, -1.000000000000000000 ) ) ;
#1077 = DIRECTION ( 'NONE',  ( 0.000000000000000000, 0.000000000000000000, 1.000000000000000000 ) ) ;
#1078 = EDGE_LOOP ( 'NONE', ( #492, #1233, #405, #1099 ) ) ;
#1079 = ORIENTED_EDGE ( 'NONE', *, *, #1207, .T. ) ;
#1080 = FACE_OUTER_BOUND ( 'NONE', #640, .T. ) ;
#1081 = EDGE_CURVE ( 'NONE', #422, #1064, #645, .T. ) ;
#1082 = FACE_BOUND ( 'NONE', #838, .T. ) ;
#1083 = CARTESIAN_POINT ( 'NONE',  ( 25.00000000000000000, 10.00000000000000355, 15.00000000000000355 ) ) ;
#1084 = ORIENTED_EDGE ( 'NONE', *, *, #301, .F. ) ;
#1085 = VECTOR ( 'NONE', #1068, 1000.000000000000000 ) ;
#1086 = VERTEX_POINT ( 'NONE', #167 ) ;
#1087 = EDGE_CURVE ( 'NONE', #175, #373, #1010, .T. ) ;
#1088 = DIRECTION ( 'NONE',  ( 0.000000000000000000, 1.334402673828313339E-16, -1.000000000000000000 ) ) ;
#1089 = CARTESIAN_POINT ( 'NONE',  ( 75.00000000000000000, 8.500000000000000000, -2.000000000000027978 ) ) ;
#1090 = EDGE_CURVE ( 'NONE', #131, #330, #1277, .T. ) ;
#1091 = CARTESIAN_POINT ( 'NONE',  ( 75.00000000000000000, 0.000000000000000000, -6.000000000000001776 ) ) ;
#1092 = ORIENTED_EDGE ( 'NONE', *, *, #1250, .F. ) ;
#1093 = VECTOR ( 'NONE', #700, 1000.000000000000000 ) ;
#1094 = ORIENTED_EDGE ( 'NONE', *, *, #228, .T. ) ;
#1095 = CARTESIAN_POINT ( 'NONE',  ( 76.69999999999998863, 8.500000000000000000, 13.00000000000000000 ) ) ;
#1096 = LINE ( 'NONE', #590, #311 ) ;
#1097 = CARTESIAN_POINT ( 'NONE',  ( 87.70000000000000284, 1.555301434917139419E-15, -14.99999999999999822 ) ) ;
#1098 = ORIENTED_EDGE ( 'NONE', *, *, #379, .T. ) ;
#1099 = ORIENTED_EDGE ( 'NONE', *, *, #948, .T. ) ;
#1100 = ORIENTED_EDGE ( 'NONE', *, *, #1051, .T. ) ;
#1101 = DIRECTION ( 'NONE',  ( 0.000000000000000000, -1.334402673828313339E-16, 1.000000000000000000 ) ) ;
#1102 = DIRECTION ( 'NONE',  ( -1.000000000000000000, 0.000000000000000000, 0.000000000000000000 ) ) ;
#1103 = DIRECTION ( 'NONE',  ( 0.000000000000000000, 1.000000000000000000, 0.000000000000000000 ) ) ;
#1104 = ORIENTED_EDGE ( 'NONE', *, *, #283, .T. ) ;
#1105 = EDGE_CURVE ( 'NONE', #227, #1086, #759, .T. ) ;
#1106 = ORIENTED_EDGE ( 'NONE', *, *, #695, .T. ) ;
#1107 = EDGE_CURVE ( 'NONE', #1009, #891, #1266, .T. ) ;
#1108 = AXIS2_PLACEMENT_3D ( 'NONE', #1091, #905, #591 ) ;
#1109 = CARTESIAN_POINT ( 'NONE',  ( 90.00000000000000000, 15.00000000000000000, 15.00000000000000178 ) ) ;
#1110 = AXIS2_PLACEMENT_3D ( 'NONE', #585, #298, #74 ) ;
#1111 = VECTOR ( 'NONE', #843, 1000.000000000000000 ) ;
#1112 = DIRECTION ( 'NONE',  ( 0.000000000000000000, 1.000000000000000000, 0.000000000000000000 ) ) ;
#1113 = LINE ( 'NONE', #141, #489 ) ;
#1114 = ORIENTED_EDGE ( 'NONE', *, *, #174, .F. ) ;
#1115 = ORIENTED_EDGE ( 'NONE', *, *, #1181, .F. ) ;
#1116 = EDGE_CURVE ( 'NONE', #1, #679, #1070, .T. ) ;
#1117 = AXIS2_PLACEMENT_3D ( 'NONE', #746, #1042, #255 ) ;
#1118 = CARTESIAN_POINT ( 'NONE',  ( 90.00000000000000000, 13.00000000000000178, -5.999999999999999112 ) ) ;
#1119 = DIRECTION ( 'NONE',  ( 1.000000000000000000, 0.000000000000000000, 0.000000000000000000 ) ) ;
#1120 = ORIENTED_EDGE ( 'NONE', *, *, #1051, .F. ) ;
#1121 = EDGE_LOOP ( 'NONE', ( #698, #1214 ) ) ;
#1122 = DIRECTION ( 'NONE',  ( 0.000000000000000000, -1.000000000000000000, -1.334402673828313093E-16 ) ) ;
#1123 = DIRECTION ( 'NONE',  ( -0.000000000000000000, -0.000000000000000000, 1.000000000000000000 ) ) ;
#1124 = EDGE_CURVE ( 'NONE', #891, #1009, #818, .T. ) ;
#1125 = ORIENTED_EDGE ( 'NONE', *, *, #541, .T. ) ;
#1126 = VERTEX_POINT ( 'NONE', #1176 ) ;
#1127 = ORIENTED_EDGE ( 'NONE', *, *, #424, .T. ) ;
#1128 = LINE ( 'NONE', #419, #69 ) ;
#1129 = EDGE_CURVE ( 'NONE', #373, #175, #249, .T. ) ;
#1130 = DIRECTION ( 'NONE',  ( -0.000000000000000000, -0.000000000000000000, 1.000000000000000000 ) ) ;
#1131 = AXIS2_PLACEMENT_3D ( 'NONE', #48, #775, #748 ) ;
#1132 = EDGE_CURVE ( 'NONE', #939, #478, #859, .T. ) ;
#1133 = CYLINDRICAL_SURFACE ( 'NONE', #1239, 1.699999999999991518 ) ;
#1134 = ORIENTED_EDGE ( 'NONE', *, *, #994, .F. ) ;
#1135 = AXIS2_PLACEMENT_3D ( 'NONE', #276, #1088, #680 ) ;
#1136 = ORIENTED_EDGE ( 'NONE', *, *, #1073, .T. ) ;
#1137 = DIRECTION ( 'NONE',  ( 0.000000000000000000, 1.334402673828313339E-16, -1.000000000000000000 ) ) ;
#1138 = AXIS2_PLACEMENT_3D ( 'NONE', #394, #1313, #596 ) ;
#1139 = VECTOR ( 'NONE', #236, 1000.000000000000000 ) ;
#1140 = CARTESIAN_POINT ( 'NONE',  ( 75.00000000000000000, 0.000000000000000000, 8.000000000000037303 ) ) ;
#1141 = FACE_OUTER_BOUND ( 'NONE', #520, .T. ) ;
#1142 = CYLINDRICAL_SURFACE ( 'NONE', #1027, 1.699999999999991518 ) ;
#1143 = PRESENTATION_STYLE_ASSIGNMENT (( #1069 ) ) ;
#1144 = LINE ( 'NONE', #244, #1224 ) ;
#1145 = CARTESIAN_POINT ( 'NONE',  ( 5.000000000000002665, -10.00000000000000178, -13.00000000000000355 ) ) ;
#1146 = CARTESIAN_POINT ( 'NONE',  ( 0.000000000000000000, -15.00000000000000178, -14.99999999999999822 ) ) ;
#1147 = VECTOR ( 'NONE', #809, 1000.000000000000000 ) ;
#1148 = ORIENTED_EDGE ( 'NONE', *, *, #28, .F. ) ;
#1149 = EDGE_CURVE ( 'NONE', #211, #180, #656, .T. ) ;
#1150 = ADVANCED_FACE ( 'NONE', ( #1080 ), #194, .F. ) ;
#1151 = CARTESIAN_POINT ( 'NONE',  ( 75.00000000000000000, 0.000000000000000000, -13.00000000000000000 ) ) ;
#1152 = DIRECTION ( 'NONE',  ( -0.000000000000000000, -0.000000000000000000, 1.000000000000000000 ) ) ;
#1153 = DIRECTION ( 'NONE',  ( -1.000000000000000000, -0.000000000000000000, -0.000000000000000000 ) ) ;
#1154 = ORIENTED_EDGE ( 'NONE', *, *, #658, .F. ) ;
#1155 = CIRCLE ( 'NONE', #580, 1.699999999999999289 ) ;
#1156 = DIRECTION ( 'NONE',  ( 0.000000000000000000, 0.000000000000000000, -1.000000000000000000 ) ) ;
#1157 = VECTOR ( 'NONE', #481, 1000.000000000000000 ) ;
#1158 = DIRECTION ( 'NONE',  ( 1.000000000000000000, 0.000000000000000000, 0.000000000000000000 ) ) ;
#1159 = LINE ( 'NONE', #652, #1111 ) ;
#1160 = ORIENTED_EDGE ( 'NONE', *, *, #111, .F. ) ;
#1161 = DIRECTION ( 'NONE',  ( 0.000000000000000000, -1.000000000000000000, 0.000000000000000000 ) ) ;
#1162 = CARTESIAN_POINT ( 'NONE',  ( 0.000000000000000000, 13.00000000000000000, 13.00000000000000000 ) ) ;
#1163 = CARTESIAN_POINT ( 'NONE',  ( 90.00000000000000000, 13.00000000000000000, 5.999999999999999112 ) ) ;
#1164 = EDGE_CURVE ( 'NONE', #329, #187, #801, .T. ) ;
#1165 = EDGE_LOOP ( 'NONE', ( #980, #63 ) ) ;
#1166 = ORIENTED_EDGE ( 'NONE', *, *, #952, .F. ) ;
#1167 = LINE ( 'NONE', #758, #475 ) ;
#1168 = CARTESIAN_POINT ( 'NONE',  ( 59.00000000000003553, 13.00000000000000178, -5.999999999999999112 ) ) ;
#1169 = CARTESIAN_POINT ( 'NONE',  ( 23.30000000000001137, 10.00000000000000355, -13.00000000000000000 ) ) ;
#1170 = CYLINDRICAL_SURFACE ( 'NONE', #1281, 1.699999999999989742 ) ;
#1171 = VECTOR ( 'NONE', #458, 1000.000000000000000 ) ;
#1172 = ORIENTED_EDGE ( 'NONE', *, *, #720, .F. ) ;
#1173 = AXIS2_PLACEMENT_3D ( 'NONE', #3, #1183, #882 ) ;
#1174 = AXIS2_PLACEMENT_3D ( 'NONE', #396, #1076, #1102 ) ;
#1175 = ORIENTED_EDGE ( 'NONE', *, *, #477, .F. ) ;
#1176 = CARTESIAN_POINT ( 'NONE',  ( 26.69999999999999574, 10.00000000000000355, -14.99999999999999822 ) ) ;
#1177 = FACE_BOUND ( 'NONE', #926, .T. ) ;
#1178 = DIRECTION ( 'NONE',  ( 1.000000000000000000, 0.000000000000000000, 0.000000000000000000 ) ) ;
#1179 = VECTOR ( 'NONE', #672, 1000.000000000000000 ) ;
#1180 = VERTEX_POINT ( 'NONE', #181 ) ;
#1181 = EDGE_CURVE ( 'NONE', #300, #1275, #604, .T. ) ;
#1182 = ORIENTED_EDGE ( 'NONE', *, *, #670, .F. ) ;
#1183 = DIRECTION ( 'NONE',  ( -0.000000000000000000, -0.000000000000000000, 1.000000000000000000 ) ) ;
#1184 = DIRECTION ( 'NONE',  ( 1.000000000000000000, 0.000000000000000000, 0.000000000000000000 ) ) ;
#1185 = LINE ( 'NONE', #784, #1310 ) ;
#1186 = AXIS2_PLACEMENT_3D ( 'NONE', #707, #203, #607 ) ;
#1187 = EDGE_LOOP ( 'NONE', ( #936, #500 ) ) ;
#1188 = EDGE_CURVE ( 'NONE', #130, #86, #856, .T. ) ;
#1189 = ADVANCED_FACE ( 'NONE', ( #297 ), #686, .F. ) ;
#1190 = ORIENTED_EDGE ( 'NONE', *, *, #816, .T. ) ;
#1191 = FACE_OUTER_BOUND ( 'NONE', #581, .T. ) ;
#1192 = DIRECTION ( 'NONE',  ( 0.000000000000000000, 0.000000000000000000, -1.000000000000000000 ) ) ;
#1193 = CARTESIAN_POINT ( 'NONE',  ( 78.60000000000000853, 0.000000000000000000, -2.000000000000027978 ) ) ;
#1194 = ORIENTED_EDGE ( 'NONE', *, *, #404, .T. ) ;
#1195 = VECTOR ( 'NONE', #18, 1000.000000000000000 ) ;
#1196 = ORIENTED_EDGE ( 'NONE', *, *, #510, .T. ) ;
#1197 = DIRECTION ( 'NONE',  ( 1.000000000000000000, 0.000000000000000000, -0.000000000000000000 ) ) ;
#1198 = DIRECTION ( 'NONE',  ( 1.000000000000000000, 0.000000000000000000, 0.000000000000000000 ) ) ;
#1199 = LINE ( 'NONE', #1193, #611 ) ;
#1200 = ORIENTED_EDGE ( 'NONE', *, *, #15, .F. ) ;
#1201 = VERTEX_POINT ( 'NONE', #93 ) ;
#1202 = ORIENTED_EDGE ( 'NONE', *, *, #538, .T. ) ;
#1203 = CARTESIAN_POINT ( 'NONE',  ( 90.00000000000000000, -13.00000000000000000, -13.00000000000000355 ) ) ;
#1204 = CARTESIAN_POINT ( 'NONE',  ( 75.00000000000000000, 0.000000000000000000, 8.000000000000037303 ) ) ;
#1205 = ADVANCED_FACE ( 'NONE', ( #208 ), #201, .F. ) ;
#1206 = CARTESIAN_POINT ( 'NONE',  ( 90.00000000000000000, 13.00000000000000000, 13.00000000000000000 ) ) ;
#1207 = EDGE_CURVE ( 'NONE', #14, #600, #903, .T. ) ;
#1208 = EDGE_LOOP ( 'NONE', ( #157, #235, #1058, #844, #893, #1263, #825, #448 ) ) ;
#1209 = EDGE_LOOP ( 'NONE', ( #1024, #1100, #973, #79 ) ) ;
#1210 = DIRECTION ( 'NONE',  ( -0.000000000000000000, -1.000000000000000000, -0.000000000000000000 ) ) ;
#1211 = LINE ( 'NONE', #823, #570 ) ;
#1212 = DIRECTION ( 'NONE',  ( 1.000000000000000000, 0.000000000000000000, 0.000000000000000000 ) ) ;
#1213 = ORIENTED_EDGE ( 'NONE', *, *, #1181, .T. ) ;
#1214 = ORIENTED_EDGE ( 'NONE', *, *, #915, .F. ) ;
#1215 = APPLICATION_PROTOCOL_DEFINITION ( 'draft international standard', 'automotive_design', 1998, #807 ) ;
#1216 = AXIS2_PLACEMENT_3D ( 'NONE', #382, #277, #195 ) ;
#1217 = DIRECTION ( 'NONE',  ( 0.000000000000000000, 1.334402673828313339E-16, -1.000000000000000000 ) ) ;
#1218 = CARTESIAN_POINT ( 'NONE',  ( 25.00000000000000000, 10.00000000000000355, -13.00000000000000000 ) ) ;
#1219 = ORIENTED_EDGE ( 'NONE', *, *, #441, .T. ) ;
#1220 = CIRCLE ( 'NONE', #166, 1.699999999999994849 ) ;
#1221 = EDGE_LOOP ( 'NONE', ( #490, #1079, #90, #887, #107 ) ) ;
#1222 = ADVANCED_FACE ( 'NONE', ( #909 ), #303, .F. ) ;
#1223 = CARTESIAN_POINT ( 'NONE',  ( 90.00000000000000000, -13.00000000000000000, -13.00000000000000355 ) ) ;
#1224 = VECTOR ( 'NONE', #650, 1000.000000000000000 ) ;
#1225 = CYLINDRICAL_SURFACE ( 'NONE', #173, 1.699999999999991518 ) ;
#1226 = DIRECTION ( 'NONE',  ( -1.000000000000000000, -0.000000000000000000, -0.000000000000000000 ) ) ;
#1227 = DIRECTION ( 'NONE',  ( 0.000000000000000000, 0.000000000000000000, 1.000000000000000000 ) ) ;
#1228 = ORIENTED_EDGE ( 'NONE', *, *, #207, .F. ) ;
#1229 = EDGE_CURVE ( 'NONE', #180, #811, #894, .T. ) ;
#1230 = CARTESIAN_POINT ( 'NONE',  ( 90.00000000000000000, 13.00000000000000178, -13.00000000000000000 ) ) ;
#1231 = CARTESIAN_POINT ( 'NONE',  ( 18.36467529817246813, 13.00000000000000000, 13.00000000000000000 ) ) ;
#1232 = VERTEX_POINT ( 'NONE', #108 ) ;
#1233 = ORIENTED_EDGE ( 'NONE', *, *, #986, .F. ) ;
#1234 = ORIENTED_EDGE ( 'NONE', *, *, #310, .T. ) ;
#1235 = DIRECTION ( 'NONE',  ( 0.000000000000000000, 1.000000000000000000, 0.000000000000000000 ) ) ;
#1236 = CARTESIAN_POINT ( 'NONE',  ( 5.000000000000002665, -10.00000000000000178, 15.00000000000000355 ) ) ;
#1237 = CARTESIAN_POINT ( 'NONE',  ( -3.717732635758650771E-15, -5.364675298172683071, 12.99999999999999822 ) ) ;
#1238 = VECTOR ( 'NONE', #810, 1000.000000000000000 ) ;
#1239 = AXIS2_PLACEMENT_3D ( 'NONE', #625, #427, #737 ) ;
#1240 = LINE ( 'NONE', #341, #1195 ) ;
#1241 = PRODUCT ( 'leg_lower_1', 'leg_lower_1', '', ( #513 ) ) ;
#1242 = EDGE_CURVE ( 'NONE', #77, #1126, #431, .T. ) ;
#1243 = ORIENTED_EDGE ( 'NONE', *, *, #91, .T. ) ;
#1244 = CIRCLE ( 'NONE', #1135, 3.600000000000001421 ) ;
#1245 =( LENGTH_UNIT ( ) NAMED_UNIT ( * ) SI_UNIT ( .MILLI., .METRE. ) );
#1246 = VECTOR ( 'NONE', #501, 1000.000000000000000 ) ;
#1247 = CIRCLE ( 'NONE', #106, 1.699999999999993072 ) ;
#1248 = CARTESIAN_POINT ( 'NONE',  ( 23.30000000000001137, 10.00000000000000355, 13.00000000000000000 ) ) ;
#1249 = FACE_OUTER_BOUND ( 'NONE', #772, .T. ) ;
#1250 = EDGE_CURVE ( 'NONE', #131, #567, #1244, .T. ) ;
#1251 = ORIENTED_EDGE ( 'NONE', *, *, #618, .F. ) ;
#1252 = EDGE_CURVE ( 'NONE', #258, #806, #576, .T. ) ;
#1253 = ORIENTED_EDGE ( 'NONE', *, *, #1048, .F. ) ;
#1254 =( NAMED_UNIT ( * ) SI_UNIT ( $, .STERADIAN. ) SOLID_ANGLE_UNIT ( ) );
#1255 = CARTESIAN_POINT ( 'NONE',  ( 90.00000000000000000, 13.00000000000000178, -5.999999999999999112 ) ) ;
#1256 = LINE ( 'NONE', #221, #189 ) ;
#1257 = CARTESIAN_POINT ( 'NONE',  ( 6.699999999999993960, -10.00000000000000178, 15.00000000000000178 ) ) ;
#1258 = AXIS2_PLACEMENT_3D ( 'NONE', #502, #910, #506 ) ;
#1259 = ORIENTED_EDGE ( 'NONE', *, *, #1289, .T. ) ;
#1260 = CARTESIAN_POINT ( 'NONE',  ( 90.00000000000000000, -15.00000000000000178, 15.00000000000000178 ) ) ;
#1261 = DIRECTION ( 'NONE',  ( -0.000000000000000000, -0.000000000000000000, 1.000000000000000000 ) ) ;
#1262 = DIRECTION ( 'NONE',  ( -0.000000000000000000, -0.000000000000000000, 1.000000000000000000 ) ) ;
#1263 = ORIENTED_EDGE ( 'NONE', *, *, #751, .F. ) ;
#1264 = EDGE_CURVE ( 'NONE', #955, #211, #388, .T. ) ;
#1265 = DIRECTION ( 'NONE',  ( 0.000000000000000000, -1.000000000000000000, -1.365923996832131116E-16 ) ) ;
#1266 = CIRCLE ( 'NONE', #690, 12.70000000000000462 ) ;
#1267 = CARTESIAN_POINT ( 'NONE',  ( 90.00000000000000000, 15.00000000000000000, 15.00000000000000178 ) ) ;
#1268 = CARTESIAN_POINT ( 'NONE',  ( 5.000000000000002665, -10.00000000000000178, -14.99999999999999822 ) ) ;
#1269 = ORIENTED_EDGE ( 'NONE', *, *, #1132, .T. ) ;
#1270 = CARTESIAN_POINT ( 'NONE',  ( 87.70000000000000284, 1.555301434917139221E-15, -13.00000000000000000 ) ) ;
#1271 = CARTESIAN_POINT ( 'NONE',  ( 59.00000000000003553, 13.00000000000000000, 5.999999999999999112 ) ) ;
#1272 = ADVANCED_FACE ( 'NONE', ( #1293, #793, #381, #788, #1191 ), #584, .F. ) ;
#1273 = CARTESIAN_POINT ( 'NONE',  ( 90.00000000000000000, -15.00000000000000178, 15.00000000000000178 ) ) ;
#1274 = FILL_AREA_STYLE ('',( #1040 ) ) ;
#1275 = VERTEX_POINT ( 'NONE', #289 ) ;
#1276 = VERTEX_POINT ( 'NONE', #1095 ) ;
#1277 = LINE ( 'NONE', #847, #59 ) ;
#1278 = LINE ( 'NONE', #1257, #1085 ) ;
#1279 = CIRCLE ( 'NONE', #430, 1.699999999999986189 ) ;
#1280 = ORIENTED_EDGE ( 'NONE', *, *, #182, .T. ) ;
#1281 = AXIS2_PLACEMENT_3D ( 'NONE', #674, #566, #25 ) ;
#1282 = AXIS2_PLACEMENT_3D ( 'NONE', #693, #571, #1314 ) ;
#1283 = CIRCLE ( 'NONE', #711, 1.699999999999994849 ) ;
#1284 = ORIENTED_EDGE ( 'NONE', *, *, #866, .F. ) ;
#1285 = VECTOR ( 'NONE', #1012, 1000.000000000000000 ) ;
#1286 = LINE ( 'NONE', #374, #437 ) ;
#1287 = FACE_BOUND ( 'NONE', #151, .T. ) ;
#1288 = CARTESIAN_POINT ( 'NONE',  ( 90.00000000000000000, -13.00000000000000000, -6.000000000000002665 ) ) ;
#1289 = EDGE_CURVE ( 'NONE', #14, #1033, #589, .T. ) ;
#1290 = ORIENTED_EDGE ( 'NONE', *, *, #1003, .F. ) ;
#1291 = AXIS2_PLACEMENT_3D ( 'NONE', #1260, #1055, #46 ) ;
#1292 = ORIENTED_EDGE ( 'NONE', *, *, #677, .T. ) ;
#1293 = FACE_BOUND ( 'NONE', #1023, .T. ) ;
#1294 = CARTESIAN_POINT ( 'NONE',  ( 90.00000000000000000, -13.00000000000000000, -6.000000000000002665 ) ) ;
#1295 = CARTESIAN_POINT ( 'NONE',  ( 25.00000000000000000, 10.00000000000000355, 15.00000000000000178 ) ) ;
#1296 = VERTEX_POINT ( 'NONE', #726 ) ;
#1297 = ORIENTED_EDGE ( 'NONE', *, *, #1090, .F. ) ;
#1298 = DIRECTION ( 'NONE',  ( 1.000000000000000000, 0.000000000000000000, 0.000000000000000000 ) ) ;
#1299 = CARTESIAN_POINT ( 'NONE',  ( 75.00000000000000000, 0.000000000000000000, -14.99999999999999822 ) ) ;
#1300 = CARTESIAN_POINT ( 'NONE',  ( 75.00000000000000000, 8.500000000000000000, 13.00000000000000000 ) ) ;
#1301 = ORIENTED_EDGE ( 'NONE', *, *, #72, .F. ) ;
#1302 = CIRCLE ( 'NONE', #206, 1.699999999999986189 ) ;
#1303 = EDGE_LOOP ( 'NONE', ( #543, #1034, #941, #699 ) ) ;
#1304 = DIRECTION ( 'NONE',  ( -0.000000000000000000, -0.000000000000000000, 1.000000000000000000 ) ) ;
#1305 = EDGE_CURVE ( 'NONE', #995, #615, #798, .T. ) ;
#1306 = CARTESIAN_POINT ( 'NONE',  ( 3.300000000000014921, -10.00000000000000178, 15.00000000000000355 ) ) ;
#1307 = CARTESIAN_POINT ( 'NONE',  ( 90.00000000000000000, 15.00000000000000000, 15.00000000000000178 ) ) ;
#1308 = VERTEX_POINT ( 'NONE', #27 ) ;
#1309 = VECTOR ( 'NONE', #1123, 1000.000000000000000 ) ;
#1310 = VECTOR ( 'NONE', #641, 1000.000000000000000 ) ;
#1311 = EDGE_LOOP ( 'NONE', ( #814, #472 ) ) ;
#1312 = ORIENTED_EDGE ( 'NONE', *, *, #736, .F. ) ;
#1313 = DIRECTION ( 'NONE',  ( -0.000000000000000000, -0.000000000000000000, 1.000000000000000000 ) ) ;
#1314 = DIRECTION ( 'NONE',  ( 0.000000000000000000, -1.000000000000000000, -1.365923996832131116E-16 ) ) ;
#1315 = EDGE_CURVE ( 'NONE', #1275, #352, #318, .T. ) ;
#1316 = PLANE ( 'NONE',  #535 ) ;
#1317 = VECTOR ( 'NONE', #924, 1000.000000000000000 ) ;
#1318 = ORIENTED_EDGE ( 'NONE', *, *, #386, .T. ) ;
#1319 = PRODUCT_DEFINITION_SHAPE ( 'NONE', 'NONE',  #794 ) ;
ENDSEC;
END-ISO-10303-21;
