ISO-10303-21;
HEADER;
FILE_DESCRIPTION (( 'STEP AP214' ),
    '1' );
FILE_NAME ('leg_lower_1_nocut.STEP',
    '2026-04-09T02:37:38',
    ( '' ),
    ( '' ),
    'SwSTEP 2.0',
    'SolidWorks 2025',
    '' );
FILE_SCHEMA (( 'AUTOMOTIVE_DESIGN' ));
ENDSEC;

DATA;
#1 = CARTESIAN_POINT ( 'NONE',  ( 90.00000000000000000, 15.00000000000000000, 15.00000000000000178 ) ) ;
#2 = ORIENTED_EDGE ( 'NONE', *, *, #1339, .T. ) ;
#3 = DIRECTION ( 'NONE',  ( 0.000000000000000000, 0.000000000000000000, 1.000000000000000000 ) ) ;
#4 = CARTESIAN_POINT ( 'NONE',  ( 6.799999999999997158, 9.999999999999998224, 13.00000000000000000 ) ) ;
#5 = EDGE_LOOP ( 'NONE', ( #1148, #447 ) ) ;
#6 = EDGE_CURVE ( 'NONE', #173, #970, #994, .T. ) ;
#7 = DIRECTION ( 'NONE',  ( 0.000000000000000000, -1.000000000000000000, 0.000000000000000000 ) ) ;
#8 = EDGE_CURVE ( 'NONE', #274, #173, #599, .T. ) ;
#9 = EDGE_LOOP ( 'NONE', ( #1212, #829, #928, #984 ) ) ;
#10 = FACE_BOUND ( 'NONE', #498, .T. ) ;
#11 = ORIENTED_EDGE ( 'NONE', *, *, #264, .T. ) ;
#12 = VERTEX_POINT ( 'NONE', #1011 ) ;
#13 = DIRECTION ( 'NONE',  ( 1.000000000000000000, 0.000000000000000000, 0.000000000000000000 ) ) ;
#14 = ADVANCED_FACE ( 'NONE', ( #1354 ), #101, .F. ) ;
#15 = FACE_OUTER_BOUND ( 'NONE', #559, .T. ) ;
#16 = CIRCLE ( 'NONE', #1108, 1.799999999999996048 ) ;
#17 = EDGE_LOOP ( 'NONE', ( #490, #780, #1185, #1106 ) ) ;
#18 = VECTOR ( 'NONE', #1195, 1000.000000000000000 ) ;
#19 = CARTESIAN_POINT ( 'NONE',  ( 75.00000000000000000, 0.000000000000000000, 12.99999999999999822 ) ) ;
#20 = ORIENTED_EDGE ( 'NONE', *, *, #414, .F. ) ;
#21 = CIRCLE ( 'NONE', #300, 1.799999999999996048 ) ;
#22 = PLANE ( 'NONE',  #1199 ) ;
#23 = DIRECTION ( 'NONE',  ( -1.000000000000000000, 0.000000000000000000, 0.000000000000000000 ) ) ;
#24 = ADVANCED_FACE ( 'NONE', ( #438 ), #879, .F. ) ;
#25 = ORIENTED_EDGE ( 'NONE', *, *, #34, .F. ) ;
#26 = CARTESIAN_POINT ( 'NONE',  ( 90.00000000000000000, -13.00000000000000000, 5.999999999999995559 ) ) ;
#27 = ORIENTED_EDGE ( 'NONE', *, *, #1339, .F. ) ;
#28 = DIRECTION ( 'NONE',  ( -0.000000000000000000, -0.000000000000000000, 1.000000000000000000 ) ) ;
#29 = VERTEX_POINT ( 'NONE', #424 ) ;
#30 = DIRECTION ( 'NONE',  ( -1.000000000000000000, -0.000000000000000000, -0.000000000000000000 ) ) ;
#31 = VERTEX_POINT ( 'NONE', #448 ) ;
#32 = DIRECTION ( 'NONE',  ( -0.000000000000000000, -0.000000000000000000, -1.000000000000000000 ) ) ;
#33 = EDGE_LOOP ( 'NONE', ( #729, #1191 ) ) ;
#34 = EDGE_CURVE ( 'NONE', #877, #1035, #930, .T. ) ;
#35 = FACE_BOUND ( 'NONE', #5, .T. ) ;
#36 = DIRECTION ( 'NONE',  ( -0.000000000000000000, -0.000000000000000000, 1.000000000000000000 ) ) ;
#37 = LINE ( 'NONE', #1209, #771 ) ;
#38 = ORIENTED_EDGE ( 'NONE', *, *, #1103, .F. ) ;
#39 = CARTESIAN_POINT ( 'NONE',  ( 59.00000000000003553, -13.00000000000000000, 5.999999999999995559 ) ) ;
#40 = VECTOR ( 'NONE', #736, 1000.000000000000000 ) ;
#41 = CIRCLE ( 'NONE', #841, 1.799999999999994271 ) ;
#42 = ORIENTED_EDGE ( 'NONE', *, *, #915, .T. ) ;
#43 = VECTOR ( 'NONE', #1080, 1000.000000000000000 ) ;
#44 = DIRECTION ( 'NONE',  ( -0.000000000000000000, -0.000000000000000000, 1.000000000000000000 ) ) ;
#45 = CARTESIAN_POINT ( 'NONE',  ( 25.00000000000000000, 10.00000000000000355, -14.99999999999999822 ) ) ;
#46 = DIRECTION ( 'NONE',  ( 0.000000000000000000, 1.334402673828313339E-16, -1.000000000000000000 ) ) ;
#47 = VERTEX_POINT ( 'NONE', #4 ) ;
#48 = CARTESIAN_POINT ( 'NONE',  ( 5.000000000000002665, 9.999999999999998224, 13.00000000000000000 ) ) ;
#49 = VERTEX_POINT ( 'NONE', #631 ) ;
#50 = DIRECTION ( 'NONE',  ( -0.000000000000000000, -0.000000000000000000, 1.000000000000000000 ) ) ;
#51 = CARTESIAN_POINT ( 'NONE',  ( 5.000000000000002665, 9.999999999999998224, 13.00000000000000000 ) ) ;
#52 = CARTESIAN_POINT ( 'NONE',  ( 75.00000000000000000, 8.500000000000000000, 13.00000000000000000 ) ) ;
#53 = EDGE_CURVE ( 'NONE', #441, #115, #844, .T. ) ;
#54 = EDGE_LOOP ( 'NONE', ( #294, #1204, #270, #1099 ) ) ;
#55 = DIRECTION ( 'NONE',  ( 0.000000000000000000, 0.000000000000000000, 1.000000000000000000 ) ) ;
#56 = DIRECTION ( 'NONE',  ( 0.000000000000000000, 0.000000000000000000, 1.000000000000000000 ) ) ;
#57 = DIRECTION ( 'NONE',  ( -0.000000000000000000, -0.000000000000000000, 1.000000000000000000 ) ) ;
#58 = ORIENTED_EDGE ( 'NONE', *, *, #194, .T. ) ;
#59 = PRODUCT_RELATED_PRODUCT_CATEGORY ( 'part', '', ( #401 ) ) ;
#60 = DIRECTION ( 'NONE',  ( 0.000000000000000000, -1.000000000000000000, 0.000000000000000000 ) ) ;
#61 = EDGE_LOOP ( 'NONE', ( #27, #1171 ) ) ;
#62 = AXIS2_PLACEMENT_3D ( 'NONE', #377, #817, #1236 ) ;
#63 = LINE ( 'NONE', #376, #592 ) ;
#64 = VECTOR ( 'NONE', #645, 1000.000000000000000 ) ;
#65 = AXIS2_PLACEMENT_3D ( 'NONE', #240, #1331, #1217 ) ;
#66 = CARTESIAN_POINT ( 'NONE',  ( 76.69999999999998863, 8.500000000000000000, 13.00000000000000000 ) ) ;
#67 = DIRECTION ( 'NONE',  ( 0.000000000000000000, 1.000000000000000000, 0.000000000000000000 ) ) ;
#68 = AXIS2_PLACEMENT_3D ( 'NONE', #1115, #1215, #1203 ) ;
#69 = ORIENTED_EDGE ( 'NONE', *, *, #758, .T. ) ;
#70 = FACE_OUTER_BOUND ( 'NONE', #1078, .T. ) ;
#71 = ADVANCED_FACE ( 'NONE', ( #1174, #1276 ), #1189, .T. ) ;
#72 = ORIENTED_EDGE ( 'NONE', *, *, #681, .T. ) ;
#73 = EDGE_CURVE ( 'NONE', #1165, #361, #491, .T. ) ;
#74 = DIRECTION ( 'NONE',  ( -0.000000000000000000, 1.000000000000000000, 1.334402673828313093E-16 ) ) ;
#75 = DIRECTION ( 'NONE',  ( 0.000000000000000000, -1.000000000000000000, 0.000000000000000000 ) ) ;
#76 = FACE_OUTER_BOUND ( 'NONE', #1227, .T. ) ;
#77 = VERTEX_POINT ( 'NONE', #1013 ) ;
#78 = CARTESIAN_POINT ( 'NONE',  ( 5.000000000000002665, -10.00000000000000178, 12.99999999999999645 ) ) ;
#79 = EDGE_CURVE ( 'NONE', #836, #396, #901, .T. ) ;
#80 = CYLINDRICAL_SURFACE ( 'NONE', #365, 1.799999999999994271 ) ;
#81 = LINE ( 'NONE', #865, #316 ) ;
#82 = ORIENTED_EDGE ( 'NONE', *, *, #937, .F. ) ;
#83 = DIRECTION ( 'NONE',  ( 0.000000000000000000, -1.334402673828313339E-16, 1.000000000000000000 ) ) ;
#84 = DIRECTION ( 'NONE',  ( 0.000000000000000000, 0.000000000000000000, 1.000000000000000000 ) ) ;
#85 = CARTESIAN_POINT ( 'NONE',  ( 75.00000000000000000, 0.000000000000000000, -6.000000000000001776 ) ) ;
#86 = VECTOR ( 'NONE', #923, 1000.000000000000000 ) ;
#87 = EDGE_CURVE ( 'NONE', #721, #77, #1136, .T. ) ;
#88 = STYLED_ITEM ( 'NONE', ( #182 ), #618 ) ;
#89 = DIRECTION ( 'NONE',  ( -0.000000000000000000, -0.000000000000000000, 1.000000000000000000 ) ) ;
#90 = APPLICATION_PROTOCOL_DEFINITION ( 'draft international standard', 'automotive_design', 1998, #1179 ) ;
#91 = AXIS2_PLACEMENT_3D ( 'NONE', #1324, #1319, #799 ) ;
#92 = VERTEX_POINT ( 'NONE', #1121 ) ;
#93 = CIRCLE ( 'NONE', #1201, 1.699999999999999289 ) ;
#94 = CARTESIAN_POINT ( 'NONE',  ( 3.200000000000008171, 9.999999999999998224, 15.00000000000000178 ) ) ;
#95 = LINE ( 'NONE', #735, #1159 ) ;
#96 = DIRECTION ( 'NONE',  ( 0.000000000000000000, -0.000000000000000000, -1.000000000000000000 ) ) ;
#97 = VERTEX_POINT ( 'NONE', #66 ) ;
#98 = EDGE_CURVE ( 'NONE', #92, #1055, #394, .T. ) ;
#99 = CARTESIAN_POINT ( 'NONE',  ( 23.20000000000000995, -10.00000000000000000, -14.99999999999999822 ) ) ;
#100 = CARTESIAN_POINT ( 'NONE',  ( 90.00000000000000000, -13.00000000000000000, -6.000000000000002665 ) ) ;
#101 = CYLINDRICAL_SURFACE ( 'NONE', #1157, 1.799999999999996048 ) ;
#102 = DIRECTION ( 'NONE',  ( -0.000000000000000000, -0.000000000000000000, 1.000000000000000000 ) ) ;
#103 = ORIENTED_EDGE ( 'NONE', *, *, #1269, .T. ) ;
#104 = CARTESIAN_POINT ( 'NONE',  ( 23.20000000000000639, 10.00000000000000355, 13.00000000000000000 ) ) ;
#105 = EDGE_CURVE ( 'NONE', #587, #811, #704, .T. ) ;
#106 = DIRECTION ( 'NONE',  ( 0.000000000000000000, 1.334402673828313339E-16, -1.000000000000000000 ) ) ;
#107 = AXIS2_PLACEMENT_3D ( 'NONE', #1299, #1088, #114 ) ;
#108 = VECTOR ( 'NONE', #633, 1000.000000000000000 ) ;
#109 = ORIENTED_EDGE ( 'NONE', *, *, #533, .F. ) ;
#110 = DIRECTION ( 'NONE',  ( 0.000000000000000000, -1.000000000000000000, -1.334402673828313339E-16 ) ) ;
#111 = AXIS2_PLACEMENT_3D ( 'NONE', #1304, #322, #953 ) ;
#112 = AXIS2_PLACEMENT_3D ( 'NONE', #1061, #219, #1083 ) ;
#113 = EDGE_CURVE ( 'NONE', #120, #29, #16, .T. ) ;
#114 = DIRECTION ( 'NONE',  ( 0.000000000000000000, 1.000000000000000000, 0.000000000000000000 ) ) ;
#115 = VERTEX_POINT ( 'NONE', #803 ) ;
#116 = EDGE_CURVE ( 'NONE', #1196, #577, #600, .T. ) ;
#117 = DIRECTION ( 'NONE',  ( 0.000000000000000000, 1.000000000000000000, 0.000000000000000000 ) ) ;
#118 = ORIENTED_EDGE ( 'NONE', *, *, #1152, .F. ) ;
#119 = CARTESIAN_POINT ( 'NONE',  ( 75.00000000000000000, -8.500000000000000000, -2.000000000000027978 ) ) ;
#120 = VERTEX_POINT ( 'NONE', #1262 ) ;
#121 = ORIENTED_EDGE ( 'NONE', *, *, #370, .T. ) ;
#122 = EDGE_CURVE ( 'NONE', #587, #1345, #431, .T. ) ;
#123 = DIRECTION ( 'NONE',  ( -0.000000000000000000, 1.000000000000000000, 0.000000000000000000 ) ) ;
#124 = CARTESIAN_POINT ( 'NONE',  ( 90.00000000000000000, 13.00000000000000000, 5.999999999999999112 ) ) ;
#125 = VERTEX_POINT ( 'NONE', #834 ) ;
#126 = CARTESIAN_POINT ( 'NONE',  ( 90.00000000000000000, 15.00000000000000000, -14.99999999999999822 ) ) ;
#127 = EDGE_LOOP ( 'NONE', ( #689, #329 ) ) ;
#128 = FACE_OUTER_BOUND ( 'NONE', #303, .T. ) ;
#129 = EDGE_CURVE ( 'NONE', #47, #952, #878, .T. ) ;
#130 = ORIENTED_EDGE ( 'NONE', *, *, #388, .T. ) ;
#131 = CYLINDRICAL_SURFACE ( 'NONE', #1050, 12.70000000000000284 ) ;
#132 = CIRCLE ( 'NONE', #223, 1.699999999999998401 ) ;
#133 = ORIENTED_EDGE ( 'NONE', *, *, #1192, .T. ) ;
#134 = AXIS2_PLACEMENT_3D ( 'NONE', #1321, #335, #13 ) ;
#135 = FACE_OUTER_BOUND ( 'NONE', #197, .T. ) ;
#136 = AXIS2_PLACEMENT_3D ( 'NONE', #78, #1154, #614 ) ;
#137 = EDGE_LOOP ( 'NONE', ( #1187, #635, #1381, #506 ) ) ;
#138 = VECTOR ( 'NONE', #653, 1000.000000000000000 ) ;
#139 = FACE_OUTER_BOUND ( 'NONE', #919, .T. ) ;
#140 = ORIENTED_EDGE ( 'NONE', *, *, #519, .T. ) ;
#141 = CYLINDRICAL_SURFACE ( 'NONE', #251, 1.699999999999993072 ) ;
#142 = VERTEX_POINT ( 'NONE', #371 ) ;
#143 = EDGE_CURVE ( 'NONE', #338, #407, #931, .T. ) ;
#144 = DIRECTION ( 'NONE',  ( 1.000000000000000000, 0.000000000000000000, 0.000000000000000000 ) ) ;
#145 = ORIENTED_EDGE ( 'NONE', *, *, #122, .F. ) ;
#146 = CARTESIAN_POINT ( 'NONE',  ( 90.00000000000000000, -13.00000000000000000, 12.99999999999999645 ) ) ;
#147 = ORIENTED_EDGE ( 'NONE', *, *, #160, .T. ) ;
#148 = DIRECTION ( 'NONE',  ( -1.000000000000000000, -0.000000000000000000, -0.000000000000000000 ) ) ;
#149 = DIRECTION ( 'NONE',  ( -0.000000000000000000, 1.000000000000000000, 0.000000000000000000 ) ) ;
#150 = EDGE_LOOP ( 'NONE', ( #327, #157 ) ) ;
#151 = FACE_OUTER_BOUND ( 'NONE', #1360, .T. ) ;
#152 = EDGE_CURVE ( 'NONE', #49, #1318, #1365, .T. ) ;
#153 = ORIENTED_EDGE ( 'NONE', *, *, #625, .T. ) ;
#154 = CARTESIAN_POINT ( 'NONE',  ( 25.00000000000000000, -10.00000000000000000, -14.99999999999999822 ) ) ;
#155 = CARTESIAN_POINT ( 'NONE',  ( 23.20000000000000639, -10.00000000000000000, 15.00000000000000178 ) ) ;
#156 = DIRECTION ( 'NONE',  ( 1.000000000000000000, 0.000000000000000000, 0.000000000000000000 ) ) ;
#157 = ORIENTED_EDGE ( 'NONE', *, *, #672, .F. ) ;
#158 = LINE ( 'NONE', #280, #1087 ) ;
#159 = ORIENTED_EDGE ( 'NONE', *, *, #341, .F. ) ;
#160 = EDGE_CURVE ( 'NONE', #709, #891, #409, .T. ) ;
#161 = AXIS2_PLACEMENT_3D ( 'NONE', #397, #1027, #936 ) ;
#162 = CIRCLE ( 'NONE', #798, 1.799999999999994271 ) ;
#163 = EDGE_CURVE ( 'NONE', #877, #574, #827, .T. ) ;
#164 = FACE_BOUND ( 'NONE', #1123, .T. ) ;
#165 = ORIENTED_EDGE ( 'NONE', *, *, #975, .F. ) ;
#166 = DIRECTION ( 'NONE',  ( -1.000000000000000000, -0.000000000000000000, -0.000000000000000000 ) ) ;
#167 = CARTESIAN_POINT ( 'NONE',  ( 75.00000000000000000, 0.000000000000000000, -6.000000000000001776 ) ) ;
#168 = ORIENTED_EDGE ( 'NONE', *, *, #113, .T. ) ;
#169 = CARTESIAN_POINT ( 'NONE',  ( 87.70000000000000284, 1.555301434917139221E-15, 5.999999999999997335 ) ) ;
#170 = FACE_OUTER_BOUND ( 'NONE', #1357, .T. ) ;
#171 = CARTESIAN_POINT ( 'NONE',  ( 73.29999999999999716, -8.500000000000000000, -2.000000000000027978 ) ) ;
#172 = DIRECTION ( 'NONE',  ( 0.000000000000000000, -1.334402673828313339E-16, 1.000000000000000000 ) ) ;
#173 = VERTEX_POINT ( 'NONE', #606 ) ;
#174 = DIRECTION ( 'NONE',  ( -0.000000000000000000, -0.000000000000000000, -1.000000000000000000 ) ) ;
#175 = EDGE_LOOP ( 'NONE', ( #623, #882, #1130, #535 ) ) ;
#176 = CARTESIAN_POINT ( 'NONE',  ( 23.20000000000000995, 10.00000000000000355, -14.99999999999999822 ) ) ;
#177 = CARTESIAN_POINT ( 'NONE',  ( 3.200000000000008171, -10.00000000000000178, 15.00000000000000178 ) ) ;
#178 = EDGE_CURVE ( 'NONE', #262, #715, #589, .T. ) ;
#179 = ORIENTED_EDGE ( 'NONE', *, *, #202, .F. ) ;
#180 = CARTESIAN_POINT ( 'NONE',  ( 0.000000000000000000, -15.00000000000000178, -14.99999999999999822 ) ) ;
#181 = ORIENTED_EDGE ( 'NONE', *, *, #766, .F. ) ;
#182 = PRESENTATION_STYLE_ASSIGNMENT (( #1173 ) ) ;
#183 = VECTOR ( 'NONE', #489, 1000.000000000000000 ) ;
#184 = DIRECTION ( 'NONE',  ( 0.000000000000000000, 1.000000000000000000, 1.334402673828313339E-16 ) ) ;
#185 = DIRECTION ( 'NONE',  ( -0.000000000000000000, -0.000000000000000000, 1.000000000000000000 ) ) ;
#186 = AXIS2_PLACEMENT_3D ( 'NONE', #727, #932, #1349 ) ;
#187 = ORIENTED_EDGE ( 'NONE', *, *, #178, .F. ) ;
#188 = DIRECTION ( 'NONE',  ( 1.000000000000000000, 0.000000000000000000, 0.000000000000000000 ) ) ;
#189 = ADVANCED_FACE ( 'NONE', ( #1245 ), #285, .F. ) ;
#190 = CARTESIAN_POINT ( 'NONE',  ( 0.000000000000000000, 13.00000000000000178, -13.00000000000000000 ) ) ;
#191 = CARTESIAN_POINT ( 'NONE',  ( 90.00000000000000000, -13.00000000000000000, -13.00000000000000355 ) ) ;
#192 = EDGE_LOOP ( 'NONE', ( #1323, #228 ) ) ;
#193 = LINE ( 'NONE', #630, #842 ) ;
#194 = EDGE_CURVE ( 'NONE', #715, #142, #1342, .T. ) ;
#195 = CARTESIAN_POINT ( 'NONE',  ( 0.000000000000000000, 13.00000000000000178, -13.00000000000000000 ) ) ;
#196 = LINE ( 'NONE', #621, #791 ) ;
#197 = EDGE_LOOP ( 'NONE', ( #2, #1026, #1200, #1146 ) ) ;
#198 = LINE ( 'NONE', #214, #138 ) ;
#199 = ORIENTED_EDGE ( 'NONE', *, *, #730, .F. ) ;
#200 = DIRECTION ( 'NONE',  ( -1.000000000000000000, 0.000000000000000000, 0.000000000000000000 ) ) ;
#201 = AXIS2_PLACEMENT_3D ( 'NONE', #1398, #1355, #582 ) ;
#202 = EDGE_CURVE ( 'NONE', #774, #761, #1144, .T. ) ;
#203 = CIRCLE ( 'NONE', #859, 3.600000000000005862 ) ;
#204 = FACE_BOUND ( 'NONE', #787, .T. ) ;
#205 = CIRCLE ( 'NONE', #65, 1.799999999999996048 ) ;
#206 = ORIENTED_EDGE ( 'NONE', *, *, #178, .T. ) ;
#207 = CIRCLE ( 'NONE', #412, 1.799999999999996048 ) ;
#208 = DIRECTION ( 'NONE',  ( 0.000000000000000000, 1.334402673828313339E-16, -1.000000000000000000 ) ) ;
#209 = PRODUCT_DEFINITION_FORMATION_WITH_SPECIFIED_SOURCE ( 'ANY', '', #401, .NOT_KNOWN. ) ;
#210 = LINE ( 'NONE', #419, #64 ) ;
#211 = LINE ( 'NONE', #628, #272 ) ;
#212 = ADVANCED_FACE ( 'NONE', ( #719 ), #1373, .F. ) ;
#213 = ORIENTED_EDGE ( 'NONE', *, *, #1192, .F. ) ;
#214 = CARTESIAN_POINT ( 'NONE',  ( 90.00000000000000000, 13.00000000000000000, 13.00000000000000000 ) ) ;
#215 = DIRECTION ( 'NONE',  ( 0.000000000000000000, 1.000000000000000000, 0.000000000000000000 ) ) ;
#216 = PRODUCT_CONTEXT ( 'NONE', #232, 'mechanical' ) ;
#217 = ORIENTED_EDGE ( 'NONE', *, *, #293, .T. ) ;
#218 = EDGE_CURVE ( 'NONE', #1289, #652, #906, .T. ) ;
#219 = DIRECTION ( 'NONE',  ( -0.000000000000000000, -0.000000000000000000, 1.000000000000000000 ) ) ;
#220 = EDGE_CURVE ( 'NONE', #373, #557, #196, .T. ) ;
#221 = ORIENTED_EDGE ( 'NONE', *, *, #352, .T. ) ;
#222 = CARTESIAN_POINT ( 'NONE',  ( 90.00000000000000000, -15.00000000000000178, -14.99999999999999822 ) ) ;
#223 = AXIS2_PLACEMENT_3D ( 'NONE', #950, #963, #1077 ) ;
#224 = CIRCLE ( 'NONE', #1267, 1.799999999999992495 ) ;
#225 = EDGE_LOOP ( 'NONE', ( #347, #887 ) ) ;
#226 = PLANE ( 'NONE',  #1314 ) ;
#227 = CIRCLE ( 'NONE', #769, 1.799999999999996048 ) ;
#228 = ORIENTED_EDGE ( 'NONE', *, *, #359, .F. ) ;
#229 = PLANE ( 'NONE',  #297 ) ;
#230 = CARTESIAN_POINT ( 'NONE',  ( 75.00000000000000000, -8.500000000000000000, 15.00000000000000178 ) ) ;
#231 = ORIENTED_EDGE ( 'NONE', *, *, #613, .T. ) ;
#232 = APPLICATION_CONTEXT ( 'automotive_design' ) ;
#233 = DIRECTION ( 'NONE',  ( -0.000000000000000000, -0.000000000000000000, 1.000000000000000000 ) ) ;
#234 = ORIENTED_EDGE ( 'NONE', *, *, #665, .T. ) ;
#235 = EDGE_CURVE ( 'NONE', #557, #361, #972, .T. ) ;
#236 = DIRECTION ( 'NONE',  ( 1.000000000000000000, 0.000000000000000000, -0.000000000000000000 ) ) ;
#237 = ORIENTED_EDGE ( 'NONE', *, *, #1079, .T. ) ;
#238 = CYLINDRICAL_SURFACE ( 'NONE', #275, 1.799999999999994271 ) ;
#239 = EDGE_LOOP ( 'NONE', ( #939, #1005 ) ) ;
#240 = CARTESIAN_POINT ( 'NONE',  ( 25.00000000000000000, -10.00000000000000000, 15.00000000000000178 ) ) ;
#241 = ORIENTED_EDGE ( 'NONE', *, *, #235, .T. ) ;
#242 = CARTESIAN_POINT ( 'NONE',  ( 6.799999999999995381, -10.00000000000000178, -14.99999999999999822 ) ) ;
#243 = ADVANCED_FACE ( 'NONE', ( #1158 ), #838, .T. ) ;
#244 = ORIENTED_EDGE ( 'NONE', *, *, #1000, .T. ) ;
#245 = CARTESIAN_POINT ( 'NONE',  ( 3.200000000000009948, -10.00000000000000178, -14.99999999999999822 ) ) ;
#246 = ORIENTED_EDGE ( 'NONE', *, *, #902, .F. ) ;
#247 = VECTOR ( 'NONE', #880, 1000.000000000000000 ) ;
#248 = DIRECTION ( 'NONE',  ( -0.000000000000000000, -0.000000000000000000, 1.000000000000000000 ) ) ;
#249 = VECTOR ( 'NONE', #1006, 1000.000000000000000 ) ;
#250 = VERTEX_POINT ( 'NONE', #413 ) ;
#251 = AXIS2_PLACEMENT_3D ( 'NONE', #575, #469, #876 ) ;
#252 = CARTESIAN_POINT ( 'NONE',  ( 90.00000000000000000, -15.00000000000000178, -14.99999999999999822 ) ) ;
#253 = ORIENTED_EDGE ( 'NONE', *, *, #1167, .F. ) ;
#254 = EDGE_CURVE ( 'NONE', #287, #1095, #211, .T. ) ;
#255 = CARTESIAN_POINT ( 'NONE',  ( 90.00000000000000000, -15.00000000000000178, 15.00000000000000178 ) ) ;
#256 = ORIENTED_EDGE ( 'NONE', *, *, #116, .F. ) ;
#257 = FACE_OUTER_BOUND ( 'NONE', #965, .T. ) ;
#258 = ORIENTED_EDGE ( 'NONE', *, *, #474, .T. ) ;
#259 = CARTESIAN_POINT ( 'NONE',  ( 6.799999999999997158, -10.00000000000000178, 12.99999999999999645 ) ) ;
#260 = CARTESIAN_POINT ( 'NONE',  ( 90.00000000000000000, 13.00000000000000178, -13.00000000000000000 ) ) ;
#261 = APPLICATION_PROTOCOL_DEFINITION ( 'draft international standard', 'automotive_design', 1998, #232 ) ;
#262 = VERTEX_POINT ( 'NONE', #850 ) ;
#263 = CARTESIAN_POINT ( 'NONE',  ( 87.70000000000000284, 1.555301434917139221E-15, -13.00000000000000000 ) ) ;
#264 = EDGE_CURVE ( 'NONE', #754, #547, #301, .T. ) ;
#265 = EDGE_LOOP ( 'NONE', ( #206, #58, #390, #165 ) ) ;
#266 = DIRECTION ( 'NONE',  ( -1.000000000000000000, -0.000000000000000000, -0.000000000000000000 ) ) ;
#267 = ADVANCED_BREP_SHAPE_REPRESENTATION ( 'leg_lower_1_nocut', ( #618, #1341 ), #1025 ) ;
#268 = CARTESIAN_POINT ( 'NONE',  ( 26.79999999999999716, 10.00000000000000355, 15.00000000000000178 ) ) ;
#269 = DIRECTION ( 'NONE',  ( 0.000000000000000000, 1.334402673828313339E-16, -1.000000000000000000 ) ) ;
#270 = ORIENTED_EDGE ( 'NONE', *, *, #163, .T. ) ;
#271 = LINE ( 'NONE', #1376, #546 ) ;
#272 = VECTOR ( 'NONE', #1184, 1000.000000000000000 ) ;
#273 = CIRCLE ( 'NONE', #732, 3.600000000000001421 ) ;
#274 = VERTEX_POINT ( 'NONE', #753 ) ;
#275 = AXIS2_PLACEMENT_3D ( 'NONE', #1105, #558, #683 ) ;
#276 = CARTESIAN_POINT ( 'NONE',  ( 90.00000000000000000, 13.00000000000000000, 5.999999999999999112 ) ) ;
#277 = DIRECTION ( 'NONE',  ( -0.000000000000000000, -0.000000000000000000, 1.000000000000000000 ) ) ;
#278 = CARTESIAN_POINT ( 'NONE',  ( 5.000000000000002665, -10.00000000000000178, 15.00000000000000178 ) ) ;
#279 = ORIENTED_EDGE ( 'NONE', *, *, #309, .T. ) ;
#280 = CARTESIAN_POINT ( 'NONE',  ( 90.00000000000000000, -15.00000000000000178, 15.00000000000000178 ) ) ;
#281 = VERTEX_POINT ( 'NONE', #191 ) ;
#282 = EDGE_CURVE ( 'NONE', #1176, #274, #1405, .T. ) ;
#283 = LINE ( 'NONE', #620, #1178 ) ;
#284 = CARTESIAN_POINT ( 'NONE',  ( 5.000000000000002665, 9.999999999999998224, -13.00000000000000000 ) ) ;
#285 = CYLINDRICAL_SURFACE ( 'NONE', #1288, 1.799999999999994271 ) ;
#286 = CYLINDRICAL_SURFACE ( 'NONE', #686, 1.699999999999993072 ) ;
#287 = VERTEX_POINT ( 'NONE', #433 ) ;
#288 = CARTESIAN_POINT ( 'NONE',  ( 90.00000000000000000, 13.00000000000000000, 5.999999999999999112 ) ) ;
#289 = EDGE_LOOP ( 'NONE', ( #987, #279, #723, #579 ) ) ;
#290 = DIRECTION ( 'NONE',  ( -0.000000000000000000, -0.000000000000000000, 1.000000000000000000 ) ) ;
#291 = DIRECTION ( 'NONE',  ( 0.000000000000000000, -1.000000000000000000, -1.334402673828313339E-16 ) ) ;
#292 = DIRECTION ( 'NONE',  ( 0.000000000000000000, -1.000000000000000000, -1.334402673828313093E-16 ) ) ;
#293 = EDGE_CURVE ( 'NONE', #947, #364, #1164, .T. ) ;
#294 = ORIENTED_EDGE ( 'NONE', *, *, #398, .F. ) ;
#295 = CARTESIAN_POINT ( 'NONE',  ( 3.200000000000008171, 9.999999999999998224, 13.00000000000000000 ) ) ;
#296 = VECTOR ( 'NONE', #698, 1000.000000000000000 ) ;
#297 = AXIS2_PLACEMENT_3D ( 'NONE', #444, #123, #555 ) ;
#298 = DIRECTION ( 'NONE',  ( 1.000000000000000000, 0.000000000000000000, 0.000000000000000000 ) ) ;
#299 = AXIS2_PLACEMENT_3D ( 'NONE', #944, #380, #188 ) ;
#300 = AXIS2_PLACEMENT_3D ( 'NONE', #278, #185, #810 ) ;
#301 = LINE ( 'NONE', #646, #40 ) ;
#302 = AXIS2_PLACEMENT_3D ( 'NONE', #1317, #149, #786 ) ;
#303 = EDGE_LOOP ( 'NONE', ( #521, #959, #470, #572 ) ) ;
#304 = DIRECTION ( 'NONE',  ( 0.000000000000000000, 1.000000000000000000, 0.000000000000000000 ) ) ;
#305 = DIRECTION ( 'NONE',  ( -0.000000000000000000, -0.000000000000000000, 1.000000000000000000 ) ) ;
#306 = DIRECTION ( 'NONE',  ( 0.000000000000000000, -1.000000000000000000, -1.365923996832131116E-16 ) ) ;
#307 = EDGE_LOOP ( 'NONE', ( #488, #246, #763, #1283 ) ) ;
#308 = CARTESIAN_POINT ( 'NONE',  ( 3.200000000000009948, 9.999999999999998224, -14.99999999999999822 ) ) ;
#309 = EDGE_CURVE ( 'NONE', #909, #97, #132, .T. ) ;
#310 =( LENGTH_UNIT ( ) NAMED_UNIT ( * ) SI_UNIT ( .MILLI., .METRE. ) );
#311 = CARTESIAN_POINT ( 'NONE',  ( 23.20000000000000639, -10.00000000000000000, -13.00000000000000355 ) ) ;
#312 = EDGE_LOOP ( 'NONE', ( #898, #889, #717, #529 ) ) ;
#313 = DIRECTION ( 'NONE',  ( 0.000000000000000000, 1.334402673828313339E-16, -1.000000000000000000 ) ) ;
#314 = EDGE_CURVE ( 'NONE', #909, #396, #81, .T. ) ;
#315 = CARTESIAN_POINT ( 'NONE',  ( 26.79999999999999716, 10.00000000000000355, -13.00000000000000000 ) ) ;
#316 = VECTOR ( 'NONE', #102, 1000.000000000000000 ) ;
#317 = AXIS2_PLACEMENT_3D ( 'NONE', #1327, #1338, #1127 ) ;
#318 = LINE ( 'NONE', #996, #247 ) ;
#319 = VECTOR ( 'NONE', #1049, 1000.000000000000000 ) ;
#320 = EDGE_LOOP ( 'NONE', ( #1300, #418 ) ) ;
#321 = CIRCLE ( 'NONE', #1090, 1.799999999999996048 ) ;
#322 = DIRECTION ( 'NONE',  ( -0.000000000000000000, -0.000000000000000000, 1.000000000000000000 ) ) ;
#323 = ORIENTED_EDGE ( 'NONE', *, *, #868, .F. ) ;
#324 = CARTESIAN_POINT ( 'NONE',  ( 76.69999999999998863, 8.500000000000000000, 15.00000000000000178 ) ) ;
#325 = ADVANCED_FACE ( 'NONE', ( #744 ), #1175, .F. ) ;
#326 = LINE ( 'NONE', #562, #432 ) ;
#327 = ORIENTED_EDGE ( 'NONE', *, *, #1311, .F. ) ;
#328 = DIRECTION ( 'NONE',  ( 0.000000000000000000, -1.000000000000000000, 0.000000000000000000 ) ) ;
#329 = ORIENTED_EDGE ( 'NONE', *, *, #459, .F. ) ;
#330 = CARTESIAN_POINT ( 'NONE',  ( 25.00000000000000000, -10.00000000000000000, -14.99999999999999822 ) ) ;
#331 = ORIENTED_EDGE ( 'NONE', *, *, #517, .T. ) ;
#332 = ADVANCED_FACE ( 'NONE', ( #204, #520, #1064, #425, #642, #527, #969, #958 ), #855, .T. ) ;
#333 = CYLINDRICAL_SURFACE ( 'NONE', #458, 1.699999999999993072 ) ;
#334 = ORIENTED_EDGE ( 'NONE', *, *, #1213, .T. ) ;
#335 = DIRECTION ( 'NONE',  ( -0.000000000000000000, -0.000000000000000000, 1.000000000000000000 ) ) ;
#336 = CIRCLE ( 'NONE', #1220, 1.699999999999993072 ) ;
#337 = AXIS2_PLACEMENT_3D ( 'NONE', #1029, #1346, #929 ) ;
#338 = VERTEX_POINT ( 'NONE', #846 ) ;
#339 = LINE ( 'NONE', #124, #997 ) ;
#340 = VECTOR ( 'NONE', #926, 1000.000000000000000 ) ;
#341 = EDGE_CURVE ( 'NONE', #77, #947, #1392, .T. ) ;
#342 = ORIENTED_EDGE ( 'NONE', *, *, #1161, .T. ) ;
#343 = CIRCLE ( 'NONE', #526, 1.799999999999994271 ) ;
#344 = ORIENTED_EDGE ( 'NONE', *, *, #202, .T. ) ;
#345 = CARTESIAN_POINT ( 'NONE',  ( 5.000000000000002665, -10.00000000000000178, 15.00000000000000178 ) ) ;
#346 = DIRECTION ( 'NONE',  ( 0.000000000000000000, -1.000000000000000000, 0.000000000000000000 ) ) ;
#347 = ORIENTED_EDGE ( 'NONE', *, *, #160, .F. ) ;
#348 = CARTESIAN_POINT ( 'NONE',  ( 75.00000000000000000, 0.000000000000000000, 8.000000000000037303 ) ) ;
#349 = ORIENTED_EDGE ( 'NONE', *, *, #105, .F. ) ;
#350 = DIRECTION ( 'NONE',  ( 0.000000000000000000, 1.334402673828313339E-16, -1.000000000000000000 ) ) ;
#351 = EDGE_LOOP ( 'NONE', ( #873, #851, #168, #692 ) ) ;
#352 = EDGE_CURVE ( 'NONE', #785, #287, #1156, .T. ) ;
#353 = FACE_OUTER_BOUND ( 'NONE', #1297, .T. ) ;
#354 = ORIENTED_EDGE ( 'NONE', *, *, #254, .F. ) ;
#355 = FACE_BOUND ( 'NONE', #484, .T. ) ;
#356 = ORIENTED_EDGE ( 'NONE', *, *, #825, .T. ) ;
#357 = LINE ( 'NONE', #126, #1270 ) ;
#358 = ORIENTED_EDGE ( 'NONE', *, *, #6, .T. ) ;
#359 = EDGE_CURVE ( 'NONE', #761, #115, #336, .T. ) ;
#360 = FACE_OUTER_BOUND ( 'NONE', #596, .T. ) ;
#361 = VERTEX_POINT ( 'NONE', #311 ) ;
#362 = FACE_OUTER_BOUND ( 'NONE', #137, .T. ) ;
#363 = AXIS2_PLACEMENT_3D ( 'NONE', #1287, #1399, #184 ) ;
#364 = VERTEX_POINT ( 'NONE', #1073 ) ;
#365 = AXIS2_PLACEMENT_3D ( 'NONE', #1155, #1391, #1182 ) ;
#366 = LINE ( 'NONE', #911, #862 ) ;
#367 = ORIENTED_EDGE ( 'NONE', *, *, #218, .T. ) ;
#368 = AXIS2_PLACEMENT_3D ( 'NONE', #644, #208, #852 ) ;
#369 = CARTESIAN_POINT ( 'NONE',  ( 5.000000000000002665, 9.999999999999998224, 15.00000000000000178 ) ) ;
#370 = EDGE_CURVE ( 'NONE', #1345, #661, #318, .T. ) ;
#371 = CARTESIAN_POINT ( 'NONE',  ( 23.20000000000000639, -10.00000000000000000, 15.00000000000000178 ) ) ;
#372 = EDGE_CURVE ( 'NONE', #569, #652, #41, .T. ) ;
#373 = VERTEX_POINT ( 'NONE', #757 ) ;
#374 = CARTESIAN_POINT ( 'NONE',  ( 5.000000000000002665, 9.999999999999998224, 15.00000000000000178 ) ) ;
#375 = VERTEX_POINT ( 'NONE', #242 ) ;
#376 = CARTESIAN_POINT ( 'NONE',  ( 59.00000000000003553, 13.00000000000000178, -5.999999999999999112 ) ) ;
#377 = CARTESIAN_POINT ( 'NONE',  ( 75.00000000000000000, 0.000000000000000000, 5.999999999999997335 ) ) ;
#378 = VERTEX_POINT ( 'NONE', #573 ) ;
#379 = EDGE_CURVE ( 'NONE', #92, #1196, #679, .T. ) ;
#380 = DIRECTION ( 'NONE',  ( -0.000000000000000000, -0.000000000000000000, 1.000000000000000000 ) ) ;
#381 = ORIENTED_EDGE ( 'NONE', *, *, #775, .T. ) ;
#382 = CYLINDRICAL_SURFACE ( 'NONE', #637, 1.799999999999994271 ) ;
#383 = DIRECTION ( 'NONE',  ( 1.000000000000000000, 0.000000000000000000, 0.000000000000000000 ) ) ;
#384 = DIRECTION ( 'NONE',  ( -0.000000000000000000, -0.000000000000000000, 1.000000000000000000 ) ) ;
#385 = EDGE_LOOP ( 'NONE', ( #856, #1316, #11, #140 ) ) ;
#386 = LINE ( 'NONE', #502, #1135 ) ;
#387 = VECTOR ( 'NONE', #148, 1000.000000000000000 ) ;
#388 = EDGE_CURVE ( 'NONE', #577, #678, #983, .T. ) ;
#389 =( GEOMETRIC_REPRESENTATION_CONTEXT ( 3 ) GLOBAL_UNCERTAINTY_ASSIGNED_CONTEXT ( ( #800 ) ) GLOBAL_UNIT_ASSIGNED_CONTEXT ( ( #310, #1058, #1163 ) ) REPRESENTATION_CONTEXT ( 'NONE', 'WORKASPACE' ) );
#390 = ORIENTED_EDGE ( 'NONE', *, *, #730, .T. ) ;
#391 = CIRCLE ( 'NONE', #639, 3.600000000000001421 ) ;
#392 = CIRCLE ( 'NONE', #1247, 12.70000000000000462 ) ;
#393 = DIRECTION ( 'NONE',  ( 1.000000000000000000, 0.000000000000000000, 0.000000000000000000 ) ) ;
#394 = LINE ( 'NONE', #509, #387 ) ;
#395 = LINE ( 'NONE', #720, #436 ) ;
#396 = VERTEX_POINT ( 'NONE', #1306 ) ;
#397 = CARTESIAN_POINT ( 'NONE',  ( 75.00000000000000000, 0.000000000000000000, 15.00000000000000178 ) ) ;
#398 = EDGE_CURVE ( 'NONE', #1035, #778, #888, .T. ) ;
#399 = DIRECTION ( 'NONE',  ( 0.000000000000000000, 1.334402673828313339E-16, -1.000000000000000000 ) ) ;
#400 = DIRECTION ( 'NONE',  ( 1.000000000000000000, 0.000000000000000000, 0.000000000000000000 ) ) ;
#401 = PRODUCT ( 'leg_lower_1_nocut', 'leg_lower_1_nocut', '', ( #216 ) ) ;
#402 = ORIENTED_EDGE ( 'NONE', *, *, #870, .T. ) ;
#403 = CARTESIAN_POINT ( 'NONE',  ( 25.00000000000000000, 10.00000000000000355, 13.00000000000000000 ) ) ;
#404 = CYLINDRICAL_SURFACE ( 'NONE', #1291, 1.799999999999994271 ) ;
#405 = ADVANCED_FACE ( 'NONE', ( #1097, #1214, #869, #978, #1301, #353 ), #1111, .F. ) ;
#406 = DIRECTION ( 'NONE',  ( 0.000000000000000000, -1.334402673828313339E-16, 1.000000000000000000 ) ) ;
#407 = VERTEX_POINT ( 'NONE', #673 ) ;
#408 = CARTESIAN_POINT ( 'NONE',  ( 26.79999999999999716, 10.00000000000000355, 13.00000000000000000 ) ) ;
#409 = CIRCLE ( 'NONE', #62, 12.70000000000000462 ) ;
#410 = VECTOR ( 'NONE', #784, 1000.000000000000000 ) ;
#411 = AXIS2_PLACEMENT_3D ( 'NONE', #403, #1239, #1034 ) ;
#412 = AXIS2_PLACEMENT_3D ( 'NONE', #738, #650, #417 ) ;
#413 = CARTESIAN_POINT ( 'NONE',  ( 59.00000000000003553, 13.00000000000000178, -5.999999999999999112 ) ) ;
#414 = EDGE_CURVE ( 'NONE', #1165, #373, #1068, .T. ) ;
#415 = ORIENTED_EDGE ( 'NONE', *, *, #439, .T. ) ;
#416 = ADVANCED_FACE ( 'NONE', ( #139 ), #22, .F. ) ;
#417 = DIRECTION ( 'NONE',  ( 1.000000000000000000, 0.000000000000000000, 0.000000000000000000 ) ) ;
#418 = ORIENTED_EDGE ( 'NONE', *, *, #122, .T. ) ;
#419 = CARTESIAN_POINT ( 'NONE',  ( 6.799999999999997158, 9.999999999999998224, 15.00000000000000178 ) ) ;
#420 = CARTESIAN_POINT ( 'NONE',  ( 75.00000000000000000, 0.000000000000000000, -13.00000000000000000 ) ) ;
#421 = VERTEX_POINT ( 'NONE', #1102 ) ;
#422 = DIRECTION ( 'NONE',  ( -0.000000000000000000, -0.000000000000000000, 1.000000000000000000 ) ) ;
#423 = ADVANCED_FACE ( 'NONE', ( #128 ), #660, .F. ) ;
#424 = CARTESIAN_POINT ( 'NONE',  ( 6.799999999999998934, 9.999999999999998224, 15.00000000000000178 ) ) ;
#425 = FACE_BOUND ( 'NONE', #454, .T. ) ;
#426 = ORIENTED_EDGE ( 'NONE', *, *, #73, .F. ) ;
#427 = FACE_OUTER_BOUND ( 'NONE', #1048, .T. ) ;
#428 = VERTEX_POINT ( 'NONE', #468 ) ;
#429 = ADVANCED_FACE ( 'NONE', ( #1296 ), #229, .F. ) ;
#430 = CARTESIAN_POINT ( 'NONE',  ( 23.20000000000000639, -10.00000000000000000, 12.99999999999999645 ) ) ;
#431 = CIRCLE ( 'NONE', #703, 1.799999999999992495 ) ;
#432 = VECTOR ( 'NONE', #462, 1000.000000000000000 ) ;
#433 = CARTESIAN_POINT ( 'NONE',  ( 62.29999999999999716, -2.314819644696196905E-31, -13.00000000000000000 ) ) ;
#434 = CIRCLE ( 'NONE', #617, 1.799999999999994271 ) ;
#435 = ORIENTED_EDGE ( 'NONE', *, *, #218, .F. ) ;
#436 = VECTOR ( 'NONE', #1151, 1000.000000000000000 ) ;
#437 = PLANE ( 'NONE',  #659 ) ;
#438 = FACE_OUTER_BOUND ( 'NONE', #175, .T. ) ;
#439 = EDGE_CURVE ( 'NONE', #1089, #912, #326, .T. ) ;
#440 = LINE ( 'NONE', #451, #410 ) ;
#441 = VERTEX_POINT ( 'NONE', #762 ) ;
#442 = DIRECTION ( 'NONE',  ( 0.000000000000000000, 1.334402673828313339E-16, -1.000000000000000000 ) ) ;
#443 = ORIENTED_EDGE ( 'NONE', *, *, #105, .T. ) ;
#444 = CARTESIAN_POINT ( 'NONE',  ( 90.00000000000000000, -15.00000000000000178, 15.00000000000000178 ) ) ;
#445 = ORIENTED_EDGE ( 'NONE', *, *, #693, .T. ) ;
#446 = PLANE ( 'NONE',  #302 ) ;
#447 = ORIENTED_EDGE ( 'NONE', *, *, #352, .F. ) ;
#448 = CARTESIAN_POINT ( 'NONE',  ( 0.000000000000000000, -15.00000000000000178, 15.00000000000000178 ) ) ;
#449 = ORIENTED_EDGE ( 'NONE', *, *, #1379, .F. ) ;
#450 = DIRECTION ( 'NONE',  ( -0.000000000000000000, -0.000000000000000000, 1.000000000000000000 ) ) ;
#451 = CARTESIAN_POINT ( 'NONE',  ( 90.00000000000000000, 13.00000000000000178, -13.00000000000000000 ) ) ;
#452 = AXIS2_PLACEMENT_3D ( 'NONE', #697, #914, #84 ) ;
#453 = VECTOR ( 'NONE', #688, 1000.000000000000000 ) ;
#454 = EDGE_LOOP ( 'NONE', ( #25, #1008 ) ) ;
#455 = DIRECTION ( 'NONE',  ( -1.000000000000000000, 0.000000000000000000, -0.000000000000000000 ) ) ;
#456 = VECTOR ( 'NONE', #1403, 1000.000000000000000 ) ;
#457 = ORIENTED_EDGE ( 'NONE', *, *, #372, .F. ) ;
#458 = AXIS2_PLACEMENT_3D ( 'NONE', #119, #552, #1374 ) ;
#459 = EDGE_CURVE ( 'NONE', #1089, #125, #273, .T. ) ;
#460 = CARTESIAN_POINT ( 'NONE',  ( 0.000000000000000000, -15.00000000000000178, -14.99999999999999822 ) ) ;
#461 = ORIENTED_EDGE ( 'NONE', *, *, #710, .T. ) ;
#462 = DIRECTION ( 'NONE',  ( -0.000000000000000000, -0.000000000000000000, 1.000000000000000000 ) ) ;
#463 = EDGE_LOOP ( 'NONE', ( #145, #443, #789, #712 ) ) ;
#464 = DIRECTION ( 'NONE',  ( 1.000000000000000000, 0.000000000000000000, 0.000000000000000000 ) ) ;
#465 = EDGE_LOOP ( 'NONE', ( #435, #1334, #875, #472 ) ) ;
#466 = LINE ( 'NONE', #471, #1244 ) ;
#467 = ORIENTED_EDGE ( 'NONE', *, *, #1411, .F. ) ;
#468 = CARTESIAN_POINT ( 'NONE',  ( 62.29999999999999716, 2.314819644696196905E-31, -6.000000000000001776 ) ) ;
#469 = DIRECTION ( 'NONE',  ( -0.000000000000000000, -0.000000000000000000, 1.000000000000000000 ) ) ;
#470 = ORIENTED_EDGE ( 'NONE', *, *, #975, .T. ) ;
#471 = CARTESIAN_POINT ( 'NONE',  ( 3.200000000000008171, 9.999999999999998224, 15.00000000000000178 ) ) ;
#472 = ORIENTED_EDGE ( 'NONE', *, *, #372, .T. ) ;
#473 = ADVANCED_FACE ( 'NONE', ( #545 ), #874, .F. ) ;
#474 = EDGE_CURVE ( 'NONE', #281, #49, #440, .T. ) ;
#475 = DIRECTION ( 'NONE',  ( -0.000000000000000000, -0.000000000000000000, 1.000000000000000000 ) ) ;
#476 = ORIENTED_EDGE ( 'NONE', *, *, #541, .F. ) ;
#477 = CARTESIAN_POINT ( 'NONE',  ( 6.799999999999997158, 9.999999999999998224, 15.00000000000000178 ) ) ;
#478 = DIRECTION ( 'NONE',  ( -1.000000000000000000, 0.000000000000000000, 0.000000000000000000 ) ) ;
#479 = DIRECTION ( 'NONE',  ( -0.000000000000000000, -0.000000000000000000, 1.000000000000000000 ) ) ;
#480 = PRESENTATION_LAYER_ASSIGNMENT (  '', '', ( #88 ) ) ;
#481 = EDGE_LOOP ( 'NONE', ( #130, #153, #1017, #1307 ) ) ;
#482 = AXIS2_PLACEMENT_3D ( 'NONE', #872, #83, #328 ) ;
#483 = LINE ( 'NONE', #1124, #249 ) ;
#484 = EDGE_LOOP ( 'NONE', ( #253, #199 ) ) ;
#485 = DIRECTION ( 'NONE',  ( 1.000000000000000000, 0.000000000000000000, 0.000000000000000000 ) ) ;
#486 = DIRECTION ( 'NONE',  ( 0.000000000000000000, 1.334402673828313339E-16, -1.000000000000000000 ) ) ;
#487 = CARTESIAN_POINT ( 'NONE',  ( 5.000000000000002665, 9.999999999999998224, -13.00000000000000000 ) ) ;
#488 = ORIENTED_EDGE ( 'NONE', *, *, #1348, .T. ) ;
#489 = DIRECTION ( 'NONE',  ( -0.000000000000000000, -0.000000000000000000, 1.000000000000000000 ) ) ;
#490 = ORIENTED_EDGE ( 'NONE', *, *, #870, .F. ) ;
#491 = LINE ( 'NONE', #1009, #86 ) ;
#492 = DIRECTION ( 'NONE',  ( 0.000000000000000000, -1.334402673828313339E-16, 1.000000000000000000 ) ) ;
#493 = DIRECTION ( 'NONE',  ( -0.000000000000000000, -0.000000000000000000, 1.000000000000000000 ) ) ;
#494 = EDGE_CURVE ( 'NONE', #1095, #12, #1312, .T. ) ;
#495 = FACE_OUTER_BOUND ( 'NONE', #385, .T. ) ;
#496 = ORIENTED_EDGE ( 'NONE', *, *, #1086, .F. ) ;
#497 = DIRECTION ( 'NONE',  ( -1.000000000000000000, -0.000000000000000000, -0.000000000000000000 ) ) ;
#498 = EDGE_LOOP ( 'NONE', ( #671, #1258 ) ) ;
#499 = DIRECTION ( 'NONE',  ( -0.000000000000000000, -0.000000000000000000, 1.000000000000000000 ) ) ;
#500 = DIRECTION ( 'NONE',  ( -0.000000000000000000, -0.000000000000000000, 1.000000000000000000 ) ) ;
#501 = EDGE_LOOP ( 'NONE', ( #992, #1234 ) ) ;
#502 = CARTESIAN_POINT ( 'NONE',  ( 6.799999999999997158, -10.00000000000000178, 15.00000000000000178 ) ) ;
#503 = VECTOR ( 'NONE', #1230, 1000.000000000000000 ) ;
#504 = EDGE_CURVE ( 'NONE', #373, #1165, #224, .T. ) ;
#505 = CIRCLE ( 'NONE', #1020, 1.799999999999994271 ) ;
#506 = ORIENTED_EDGE ( 'NONE', *, *, #1311, .T. ) ;
#507 = AXIS2_PLACEMENT_3D ( 'NONE', #85, #399, #724 ) ;
#508 = CARTESIAN_POINT ( 'NONE',  ( 87.70000000000000284, 1.555301434917139024E-15, 8.000000000000037303 ) ) ;
#509 = CARTESIAN_POINT ( 'NONE',  ( 90.00000000000000000, 15.00000000000000000, 15.00000000000000178 ) ) ;
#510 = EDGE_LOOP ( 'NONE', ( #187, #801 ) ) ;
#511 = CYLINDRICAL_SURFACE ( 'NONE', #796, 3.600000000000005862 ) ;
#512 = PRODUCT_DEFINITION ( 'UNKNOWN', '', #209, #927 ) ;
#513 = CARTESIAN_POINT ( 'NONE',  ( 75.00000000000000000, 0.000000000000000000, 8.000000000000037303 ) ) ;
#514 = CARTESIAN_POINT ( 'NONE',  ( 90.00000000000000000, 13.00000000000000000, 13.00000000000000000 ) ) ;
#515 = ORIENTED_EDGE ( 'NONE', *, *, #1402, .F. ) ;
#516 = CARTESIAN_POINT ( 'NONE',  ( 71.39999999999999147, 4.408728476930468193E-16, 15.00000000000000178 ) ) ;
#517 = EDGE_CURVE ( 'NONE', #652, #569, #505, .T. ) ;
#518 = DIRECTION ( 'NONE',  ( -1.000000000000000000, 0.000000000000000000, 0.000000000000000000 ) ) ;
#519 = EDGE_CURVE ( 'NONE', #547, #250, #63, .T. ) ;
#520 = FACE_BOUND ( 'NONE', #510, .T. ) ;
#521 = ORIENTED_EDGE ( 'NONE', *, *, #194, .F. ) ;
#522 = CARTESIAN_POINT ( 'NONE',  ( 6.799999999999997158, -10.00000000000000178, 15.00000000000000178 ) ) ;
#523 = AXIS2_PLACEMENT_3D ( 'NONE', #284, #1364, #1253 ) ;
#524 = VECTOR ( 'NONE', #215, 1000.000000000000000 ) ;
#525 = AXIS2_PLACEMENT_3D ( 'NONE', #609, #55, #822 ) ;
#526 = AXIS2_PLACEMENT_3D ( 'NONE', #1284, #313, #549 ) ;
#527 = FACE_BOUND ( 'NONE', #61, .T. ) ;
#528 = EDGE_CURVE ( 'NONE', #125, #378, #696, .T. ) ;
#529 = ORIENTED_EDGE ( 'NONE', *, *, #8, .F. ) ;
#530 = LINE ( 'NONE', #746, #1070 ) ;
#531 = CARTESIAN_POINT ( 'NONE',  ( 0.000000000000000000, -13.00000000000000000, 12.99999999999999645 ) ) ;
#532 = ORIENTED_EDGE ( 'NONE', *, *, #813, .T. ) ;
#533 = EDGE_CURVE ( 'NONE', #709, #428, #826, .T. ) ;
#534 = DIRECTION ( 'NONE',  ( -1.000000000000000000, -0.000000000000000000, -0.000000000000000000 ) ) ;
#535 = ORIENTED_EDGE ( 'NONE', *, *, #884, .F. ) ;
#536 = PRODUCT_DEFINITION_SHAPE ( 'NONE', 'NONE',  #512 ) ;
#537 = LINE ( 'NONE', #886, #456 ) ;
#538 = DIRECTION ( 'NONE',  ( -0.000000000000000000, -0.000000000000000000, 1.000000000000000000 ) ) ;
#539 = EDGE_LOOP ( 'NONE', ( #147, #69, #461, #109 ) ) ;
#540 = CARTESIAN_POINT ( 'NONE',  ( 0.000000000000000000, 15.00000000000000000, 15.00000000000000178 ) ) ;
#541 = EDGE_CURVE ( 'NONE', #12, #1095, #1085, .T. ) ;
#542 = AXIS2_PLACEMENT_3D ( 'NONE', #420, #725, #306 ) ;
#543 = AXIS2_PLACEMENT_3D ( 'NONE', #1384, #538, #1053 ) ;
#544 = CIRCLE ( 'NONE', #1335, 1.799999999999996048 ) ;
#545 = FACE_OUTER_BOUND ( 'NONE', #1104, .T. ) ;
#546 = VECTOR ( 'NONE', #716, 1000.000000000000000 ) ;
#547 = VERTEX_POINT ( 'NONE', #711 ) ;
#548 = CIRCLE ( 'NONE', #619, 1.799999999999996048 ) ;
#549 = DIRECTION ( 'NONE',  ( 0.000000000000000000, 1.000000000000000000, 0.000000000000000000 ) ) ;
#550 = VERTEX_POINT ( 'NONE', #259 ) ;
#551 = CARTESIAN_POINT ( 'NONE',  ( 90.00000000000000000, -15.00000000000000178, 15.00000000000000178 ) ) ;
#552 = DIRECTION ( 'NONE',  ( -0.000000000000000000, -0.000000000000000000, 1.000000000000000000 ) ) ;
#553 = VERTEX_POINT ( 'NONE', #1222 ) ;
#554 = ORIENTED_EDGE ( 'NONE', *, *, #414, .T. ) ;
#555 = DIRECTION ( 'NONE',  ( 0.000000000000000000, -0.000000000000000000, 1.000000000000000000 ) ) ;
#556 = ADVANCED_FACE ( 'NONE', ( #1019 ), #382, .F. ) ;
#557 = VERTEX_POINT ( 'NONE', #1149 ) ;
#558 = DIRECTION ( 'NONE',  ( -0.000000000000000000, -0.000000000000000000, 1.000000000000000000 ) ) ;
#559 = EDGE_LOOP ( 'NONE', ( #1153, #1313, #356, #925, #1271, #699, #981, #648 ) ) ;
#560 = FACE_OUTER_BOUND ( 'NONE', #351, .T. ) ;
#561 = ORIENTED_EDGE ( 'NONE', *, *, #528, .T. ) ;
#562 = CARTESIAN_POINT ( 'NONE',  ( 71.39999999999999147, 4.408728476930474110E-16, -2.000000000000027978 ) ) ;
#563 = VECTOR ( 'NONE', #1072, 1000.000000000000000 ) ;
#564 = AXIS2_PLACEMENT_3D ( 'NONE', #743, #200, #638 ) ;
#565 = ORIENTED_EDGE ( 'NONE', *, *, #681, .F. ) ;
#566 = EDGE_CURVE ( 'NONE', #759, #754, #1229, .T. ) ;
#567 = FACE_BOUND ( 'NONE', #1352, .T. ) ;
#568 = CIRCLE ( 'NONE', #507, 12.70000000000000462 ) ;
#569 = VERTEX_POINT ( 'NONE', #790 ) ;
#570 = CIRCLE ( 'NONE', #1112, 1.699999999999998401 ) ;
#571 = CYLINDRICAL_SURFACE ( 'NONE', #1180, 1.699999999999993072 ) ;
#572 = ORIENTED_EDGE ( 'NONE', *, *, #1167, .T. ) ;
#573 = CARTESIAN_POINT ( 'NONE',  ( 78.60000000000000853, 0.000000000000000000, 15.00000000000000178 ) ) ;
#574 = VERTEX_POINT ( 'NONE', #815 ) ;
#575 = CARTESIAN_POINT ( 'NONE',  ( 75.00000000000000000, 8.500000000000000000, -2.000000000000027978 ) ) ;
#576 = ADVANCED_FACE ( 'NONE', ( #360 ), #808, .F. ) ;
#577 = VERTEX_POINT ( 'NONE', #252 ) ;
#578 = DIRECTION ( 'NONE',  ( -0.000000000000000000, -0.000000000000000000, 1.000000000000000000 ) ) ;
#579 = ORIENTED_EDGE ( 'NONE', *, *, #79, .T. ) ;
#580 = PLANE ( 'NONE',  #768 ) ;
#581 = ORIENTED_EDGE ( 'NONE', *, *, #34, .T. ) ;
#582 = DIRECTION ( 'NONE',  ( 1.000000000000000000, 0.000000000000000000, 0.000000000000000000 ) ) ;
#583 = CARTESIAN_POINT ( 'NONE',  ( 90.00000000000000000, -15.00000000000000178, 15.00000000000000178 ) ) ;
#584 = ORIENTED_EDGE ( 'NONE', *, *, #625, .F. ) ;
#585 = CYLINDRICAL_SURFACE ( 'NONE', #1385, 1.799999999999994271 ) ;
#586 = UNCERTAINTY_MEASURE_WITH_UNIT (LENGTH_MEASURE( 1.000000000000000082E-05 ), #1039, 'distance_accuracy_value', 'NONE');
#587 = VERTEX_POINT ( 'NONE', #176 ) ;
#588 = DIRECTION ( 'NONE',  ( 0.000000000000000000, -1.334402673828313339E-16, 1.000000000000000000 ) ) ;
#589 = CIRCLE ( 'NONE', #1084, 1.799999999999994271 ) ;
#590 = CARTESIAN_POINT ( 'NONE',  ( 75.00000000000000000, 0.000000000000000000, 8.000000000000037303 ) ) ;
#591 = CARTESIAN_POINT ( 'NONE',  ( 25.00000000000000000, 10.00000000000000355, 15.00000000000000178 ) ) ;
#592 = VECTOR ( 'NONE', #1119, 1000.000000000000000 ) ;
#593 = ORIENTED_EDGE ( 'NONE', *, *, #1269, .F. ) ;
#594 = CARTESIAN_POINT ( 'NONE',  ( 26.79999999999999716, -10.00000000000000000, 15.00000000000000178 ) ) ;
#595 = AXIS2_PLACEMENT_3D ( 'NONE', #230, #675, #998 ) ;
#596 = EDGE_LOOP ( 'NONE', ( #20, #643, #1386, #1328 ) ) ;
#597 = ADVANCED_FACE ( 'NONE', ( #1252, #164, #598, #802, #35, #170 ), #580, .T. ) ;
#598 = FACE_BOUND ( 'NONE', #740, .T. ) ;
#599 = LINE ( 'NONE', #477, #680 ) ;
#600 = LINE ( 'NONE', #1023, #1065 ) ;
#601 = CARTESIAN_POINT ( 'NONE',  ( 25.00000000000000000, -10.00000000000000000, 12.99999999999999645 ) ) ;
#602 = VERTEX_POINT ( 'NONE', #276 ) ;
#603 = DIRECTION ( 'NONE',  ( 1.000000000000000000, 0.000000000000000000, 0.000000000000000000 ) ) ;
#604 = EDGE_LOOP ( 'NONE', ( #986, #612 ) ) ;
#605 = DIRECTION ( 'NONE',  ( -1.000000000000000000, -0.000000000000000000, -0.000000000000000000 ) ) ;
#606 = CARTESIAN_POINT ( 'NONE',  ( 6.799999999999997158, 9.999999999999998224, -13.00000000000000000 ) ) ;
#607 = EDGE_CURVE ( 'NONE', #794, #947, #1353, .T. ) ;
#608 = ORIENTED_EDGE ( 'NONE', *, *, #1038, .T. ) ;
#609 = CARTESIAN_POINT ( 'NONE',  ( 75.00000000000000000, 8.500000000000000000, 15.00000000000000178 ) ) ;
#610 = FILL_AREA_STYLE ('',( #718 ) ) ;
#611 = CARTESIAN_POINT ( 'NONE',  ( 90.00000000000000000, 13.00000000000000000, 13.00000000000000000 ) ) ;
#612 = ORIENTED_EDGE ( 'NONE', *, *, #710, .F. ) ;
#613 = EDGE_CURVE ( 'NONE', #912, #378, #203, .T. ) ;
#614 = DIRECTION ( 'NONE',  ( 0.000000000000000000, 1.000000000000000000, 0.000000000000000000 ) ) ;
#615 = AXIS2_PLACEMENT_3D ( 'NONE', #1380, #406, #75 ) ;
#616 = AXIS2_PLACEMENT_3D ( 'NONE', #330, #28, #651 ) ;
#617 = AXIS2_PLACEMENT_3D ( 'NONE', #48, #1274, #304 ) ;
#618 = MANIFOLD_SOLID_BREP ( 'M3 Clearance Hole1', #1242 ) ;
#619 = AXIS2_PLACEMENT_3D ( 'NONE', #971, #848, #1401 ) ;
#620 = CARTESIAN_POINT ( 'NONE',  ( 90.00000000000000000, 15.00000000000000000, 15.00000000000000178 ) ) ;
#621 = CARTESIAN_POINT ( 'NONE',  ( 26.79999999999999716, -10.00000000000000000, 15.00000000000000178 ) ) ;
#622 = FACE_OUTER_BOUND ( 'NONE', #54, .T. ) ;
#623 = ORIENTED_EDGE ( 'NONE', *, *, #1103, .T. ) ;
#624 = LINE ( 'NONE', #288, #340 ) ;
#625 = EDGE_CURVE ( 'NONE', #678, #92, #283, .T. ) ;
#626 = ADVANCED_FACE ( 'NONE', ( #962, #1378, #849 ), #1052, .F. ) ;
#627 = DIRECTION ( 'NONE',  ( 0.000000000000000000, -1.000000000000000000, -1.334402673828313093E-16 ) ) ;
#628 = CARTESIAN_POINT ( 'NONE',  ( 62.29999999999999716, 0.000000000000000000, 8.000000000000037303 ) ) ;
#629 = EDGE_LOOP ( 'NONE', ( #496, #1238, #234, #381 ) ) ;
#630 = CARTESIAN_POINT ( 'NONE',  ( 76.69999999999998863, 8.500000000000000000, -2.000000000000027978 ) ) ;
#631 = CARTESIAN_POINT ( 'NONE',  ( 90.00000000000000000, 13.00000000000000178, -13.00000000000000000 ) ) ;
#632 = ADVANCED_FACE ( 'NONE', ( #1397 ), #854, .F. ) ;
#633 = DIRECTION ( 'NONE',  ( 0.000000000000000000, 0.000000000000000000, -1.000000000000000000 ) ) ;
#634 = DIRECTION ( 'NONE',  ( -0.000000000000000000, -0.000000000000000000, 1.000000000000000000 ) ) ;
#635 = ORIENTED_EDGE ( 'NONE', *, *, #868, .T. ) ;
#636 = LINE ( 'NONE', #522, #43 ) ;
#637 = AXIS2_PLACEMENT_3D ( 'NONE', #369, #499, #485 ) ;
#638 = DIRECTION ( 'NONE',  ( 0.000000000000000000, 0.000000000000000000, 1.000000000000000000 ) ) ;
#639 = AXIS2_PLACEMENT_3D ( 'NONE', #19, #350, #694 ) ;
#640 = EDGE_CURVE ( 'NONE', #364, #685, #1286, .T. ) ;
#641 = CIRCLE ( 'NONE', #1091, 12.70000000000000462 ) ;
#642 = FACE_BOUND ( 'NONE', #1002, .T. ) ;
#643 = ORIENTED_EDGE ( 'NONE', *, *, #73, .T. ) ;
#644 = CARTESIAN_POINT ( 'NONE',  ( 75.00000000000000000, -8.500000000000000000, 12.99999999999999645 ) ) ;
#645 = DIRECTION ( 'NONE',  ( -0.000000000000000000, -0.000000000000000000, 1.000000000000000000 ) ) ;
#646 = CARTESIAN_POINT ( 'NONE',  ( 59.00000000000003553, 13.00000000000000000, 5.999999999999999112 ) ) ;
#647 = DIRECTION ( 'NONE',  ( 0.000000000000000000, 0.000000000000000000, 1.000000000000000000 ) ) ;
#648 = ORIENTED_EDGE ( 'NONE', *, *, #982, .T. ) ;
#649 = ADVANCED_FACE ( 'NONE', ( #949 ), #404, .F. ) ;
#650 = DIRECTION ( 'NONE',  ( -0.000000000000000000, -0.000000000000000000, 1.000000000000000000 ) ) ;
#651 = DIRECTION ( 'NONE',  ( 1.000000000000000000, 0.000000000000000000, 0.000000000000000000 ) ) ;
#652 = VERTEX_POINT ( 'NONE', #845 ) ;
#653 = DIRECTION ( 'NONE',  ( 0.000000000000000000, -1.000000000000000000, -1.334402673828313339E-16 ) ) ;
#654 = EDGE_CURVE ( 'NONE', #1318, #820, #95, .T. ) ;
#655 = AXIS2_PLACEMENT_3D ( 'NONE', #514, #1268, #96 ) ;
#656 = EDGE_LOOP ( 'NONE', ( #943, #476 ) ) ;
#657 = VECTOR ( 'NONE', #74, 1000.000000000000000 ) ;
#658 = DIRECTION ( 'NONE',  ( 1.000000000000000000, 0.000000000000000000, 0.000000000000000000 ) ) ;
#659 = AXIS2_PLACEMENT_3D ( 'NONE', #755, #857, #110 ) ;
#660 = CYLINDRICAL_SURFACE ( 'NONE', #954, 1.799999999999996048 ) ;
#661 = VERTEX_POINT ( 'NONE', #315 ) ;
#662 = CARTESIAN_POINT ( 'NONE',  ( 75.00000000000000000, 0.000000000000000000, -13.00000000000000000 ) ) ;
#663 = ADVANCED_FACE ( 'NONE', ( #749 ), #80, .F. ) ;
#664 = ORIENTED_EDGE ( 'NONE', *, *, #264, .F. ) ;
#665 = EDGE_CURVE ( 'NONE', #47, #29, #210, .T. ) ;
#666 = DIRECTION ( 'NONE',  ( -0.000000000000000000, -0.000000000000000000, 1.000000000000000000 ) ) ;
#667 = ORIENTED_EDGE ( 'NONE', *, *, #1213, .F. ) ;
#668 = FACE_BOUND ( 'NONE', #501, .T. ) ;
#669 = EDGE_LOOP ( 'NONE', ( #1219, #415, #231, #1264 ) ) ;
#670 = CARTESIAN_POINT ( 'NONE',  ( 75.00000000000000000, 8.500000000000000000, -2.000000000000027978 ) ) ;
#671 = ORIENTED_EDGE ( 'NONE', *, *, #915, .F. ) ;
#672 = EDGE_CURVE ( 'NONE', #407, #553, #544, .T. ) ;
#673 = CARTESIAN_POINT ( 'NONE',  ( 3.200000000000006839, -10.00000000000000178, 15.00000000000000178 ) ) ;
#674 = ORIENTED_EDGE ( 'NONE', *, *, #758, .F. ) ;
#675 = DIRECTION ( 'NONE',  ( 0.000000000000000000, 0.000000000000000000, 1.000000000000000000 ) ) ;
#676 = ORIENTED_EDGE ( 'NONE', *, *, #6, .F. ) ;
#677 = CYLINDRICAL_SURFACE ( 'NONE', #1409, 1.799999999999996048 ) ;
#678 = VERTEX_POINT ( 'NONE', #1281 ) ;
#679 = LINE ( 'NONE', #551, #748 ) ;
#680 = VECTOR ( 'NONE', #1261, 1000.000000000000000 ) ;
#681 = EDGE_CURVE ( 'NONE', #785, #12, #1076, .T. ) ;
#682 = EDGE_LOOP ( 'NONE', ( #742, #1406, #1394, #1139 ) ) ;
#683 = DIRECTION ( 'NONE',  ( 1.000000000000000000, 0.000000000000000000, 0.000000000000000000 ) ) ;
#684 = AXIS2_PLACEMENT_3D ( 'NONE', #948, #1382, #60 ) ;
#685 = VERTEX_POINT ( 'NONE', #195 ) ;
#686 = AXIS2_PLACEMENT_3D ( 'NONE', #1263, #1024, #156 ) ;
#687 = DIRECTION ( 'NONE',  ( -0.000000000000000000, -0.000000000000000000, 1.000000000000000000 ) ) ;
#688 = DIRECTION ( 'NONE',  ( -0.000000000000000000, -0.000000000000000000, -1.000000000000000000 ) ) ;
#689 = ORIENTED_EDGE ( 'NONE', *, *, #832, .F. ) ;
#690 = DIRECTION ( 'NONE',  ( -0.000000000000000000, -0.000000000000000000, 1.000000000000000000 ) ) ;
#691 = FACE_BOUND ( 'NONE', #192, .T. ) ;
#692 = ORIENTED_EDGE ( 'NONE', *, *, #665, .F. ) ;
#693 = EDGE_CURVE ( 'NONE', #31, #776, #940, .T. ) ;
#694 = DIRECTION ( 'NONE',  ( 0.000000000000000000, 1.000000000000000000, 0.000000000000000000 ) ) ;
#695 = EDGE_LOOP ( 'NONE', ( #1022, #1066, #561, #42 ) ) ;
#696 = LINE ( 'NONE', #702, #1134 ) ;
#697 = CARTESIAN_POINT ( 'NONE',  ( 0.000000000000000000, 0.000000000000000000, 0.000000000000000000 ) ) ;
#698 = DIRECTION ( 'NONE',  ( 0.000000000000000000, 0.000000000000000000, 1.000000000000000000 ) ) ;
#699 = ORIENTED_EDGE ( 'NONE', *, *, #1007, .F. ) ;
#700 = DIRECTION ( 'NONE',  ( -1.000000000000000000, -0.000000000000000000, -0.000000000000000000 ) ) ;
#701 = ORIENTED_EDGE ( 'NONE', *, *, #341, .T. ) ;
#702 = CARTESIAN_POINT ( 'NONE',  ( 78.60000000000000853, 0.000000000000000000, -2.000000000000027978 ) ) ;
#703 = AXIS2_PLACEMENT_3D ( 'NONE', #45, #1031, #400 ) ;
#704 = LINE ( 'NONE', #1347, #1332 ) ;
#705 = DIRECTION ( 'NONE',  ( 0.000000000000000000, 1.000000000000000000, 1.365923996832131116E-16 ) ) ;
#706 = VECTOR ( 'NONE', #266, 1000.000000000000000 ) ;
#707 = ORIENTED_EDGE ( 'NONE', *, *, #398, .T. ) ;
#708 = CYLINDRICAL_SURFACE ( 'NONE', #935, 12.70000000000000284 ) ;
#709 = VERTEX_POINT ( 'NONE', #1062 ) ;
#710 = EDGE_CURVE ( 'NONE', #1303, #428, #568, .T. ) ;
#711 = CARTESIAN_POINT ( 'NONE',  ( 59.00000000000003553, 13.00000000000000000, 5.999999999999999112 ) ) ;
#712 = ORIENTED_EDGE ( 'NONE', *, *, #370, .F. ) ;
#713 = DIRECTION ( 'NONE',  ( 1.000000000000000000, 0.000000000000000000, 0.000000000000000000 ) ) ;
#714 = DIRECTION ( 'NONE',  ( 1.000000000000000000, 0.000000000000000000, 0.000000000000000000 ) ) ;
#715 = VERTEX_POINT ( 'NONE', #430 ) ;
#716 = DIRECTION ( 'NONE',  ( -1.000000000000000000, -0.000000000000000000, -0.000000000000000000 ) ) ;
#717 = ORIENTED_EDGE ( 'NONE', *, *, #1402, .T. ) ;
#718 = FILL_AREA_STYLE_COLOUR ( '', #1408 ) ;
#719 = FACE_OUTER_BOUND ( 'NONE', #1113, .T. ) ;
#720 = CARTESIAN_POINT ( 'NONE',  ( 0.000000000000000000, -15.00000000000000178, 15.00000000000000178 ) ) ;
#721 = VERTEX_POINT ( 'NONE', #1001 ) ;
#722 = LINE ( 'NONE', #1358, #974 ) ;
#723 = ORIENTED_EDGE ( 'NONE', *, *, #1063, .T. ) ;
#724 = DIRECTION ( 'NONE',  ( 0.000000000000000000, 1.000000000000000000, 1.365923996832131116E-16 ) ) ;
#725 = DIRECTION ( 'NONE',  ( 0.000000000000000000, -1.334402673828313339E-16, 1.000000000000000000 ) ) ;
#726 = EDGE_CURVE ( 'NONE', #820, #281, #993, .T. ) ;
#727 = CARTESIAN_POINT ( 'NONE',  ( 25.00000000000000000, 10.00000000000000355, -13.00000000000000000 ) ) ;
#728 = VECTOR ( 'NONE', #1170, 1000.000000000000000 ) ;
#729 = ORIENTED_EDGE ( 'NONE', *, *, #1183, .T. ) ;
#730 = EDGE_CURVE ( 'NONE', #142, #1232, #205, .T. ) ;
#731 = LINE ( 'NONE', #180, #319 ) ;
#732 = AXIS2_PLACEMENT_3D ( 'NONE', #988, #106, #117 ) ;
#733 = CIRCLE ( 'NONE', #112, 1.799999999999992495 ) ;
#734 = AXIS2_PLACEMENT_3D ( 'NONE', #1246, #818, #1356 ) ;
#735 = CARTESIAN_POINT ( 'NONE',  ( 90.00000000000000000, 13.00000000000000178, -5.999999999999999112 ) ) ;
#736 = DIRECTION ( 'NONE',  ( -0.000000000000000000, 1.000000000000000000, 1.334402673828313339E-16 ) ) ;
#737 = ORIENTED_EDGE ( 'NONE', *, *, #973, .F. ) ;
#738 = CARTESIAN_POINT ( 'NONE',  ( 25.00000000000000000, 10.00000000000000355, 15.00000000000000178 ) ) ;
#739 = CARTESIAN_POINT ( 'NONE',  ( 75.00000000000000000, -8.500000000000000000, 15.00000000000000178 ) ) ;
#740 = EDGE_LOOP ( 'NONE', ( #676, #515 ) ) ;
#741 = DIRECTION ( 'NONE',  ( -0.000000000000000000, -0.000000000000000000, 1.000000000000000000 ) ) ;
#742 = ORIENTED_EDGE ( 'NONE', *, *, #1079, .F. ) ;
#743 = CARTESIAN_POINT ( 'NONE',  ( 90.00000000000000000, 0.000000000000000000, 0.000000000000000000 ) ) ;
#744 = FACE_OUTER_BOUND ( 'NONE', #629, .T. ) ;
#745 = ORIENTED_EDGE ( 'NONE', *, *, #982, .F. ) ;
#746 = CARTESIAN_POINT ( 'NONE',  ( 90.00000000000000000, -15.00000000000000178, -14.99999999999999822 ) ) ;
#747 = VECTOR ( 'NONE', #1045, 1000.000000000000000 ) ;
#748 = VECTOR ( 'NONE', #770, 1000.000000000000000 ) ;
#749 = FACE_OUTER_BOUND ( 'NONE', #312, .T. ) ;
#750 = AXIS2_PLACEMENT_3D ( 'NONE', #756, #233, #144 ) ;
#751 = CIRCLE ( 'NONE', #1293, 1.799999999999994271 ) ;
#752 = ADVANCED_FACE ( 'NONE', ( #560 ), #585, .F. ) ;
#753 = CARTESIAN_POINT ( 'NONE',  ( 6.799999999999995381, 9.999999999999998224, -14.99999999999999822 ) ) ;
#754 = VERTEX_POINT ( 'NONE', #39 ) ;
#755 = CARTESIAN_POINT ( 'NONE',  ( 90.00000000000000000, 13.00000000000000000, 5.999999999999999112 ) ) ;
#756 = CARTESIAN_POINT ( 'NONE',  ( 75.00000000000000000, 0.000000000000000000, -2.000000000000027978 ) ) ;
#757 = CARTESIAN_POINT ( 'NONE',  ( 26.79999999999999361, -10.00000000000000000, -14.99999999999999822 ) ) ;
#758 = EDGE_CURVE ( 'NONE', #891, #1303, #366, .T. ) ;
#759 = VERTEX_POINT ( 'NONE', #26 ) ;
#760 = CARTESIAN_POINT ( 'NONE',  ( 62.29999999999999716, 0.000000000000000000, -14.99999999999999822 ) ) ;
#761 = VERTEX_POINT ( 'NONE', #861 ) ;
#762 = CARTESIAN_POINT ( 'NONE',  ( 76.69999999999998863, -8.500000000000000000, 12.99999999999999645 ) ) ;
#763 = ORIENTED_EDGE ( 'NONE', *, *, #379, .F. ) ;
#764 = EDGE_CURVE ( 'NONE', #602, #721, #483, .T. ) ;
#765 = PLANE ( 'NONE',  #68 ) ;
#766 = EDGE_CURVE ( 'NONE', #1176, #970, #466, .T. ) ;
#767 = ORIENTED_EDGE ( 'NONE', *, *, #1000, .F. ) ;
#768 = AXIS2_PLACEMENT_3D ( 'NONE', #1243, #492, #921 ) ;
#769 = AXIS2_PLACEMENT_3D ( 'NONE', #899, #687, #788 ) ;
#770 = DIRECTION ( 'NONE',  ( -0.000000000000000000, -1.000000000000000000, -0.000000000000000000 ) ) ;
#771 = VECTOR ( 'NONE', #479, 1000.000000000000000 ) ;
#772 = EDGE_LOOP ( 'NONE', ( #565, #221, #1343, #1093 ) ) ;
#773 = FACE_OUTER_BOUND ( 'NONE', #289, .T. ) ;
#774 = VERTEX_POINT ( 'NONE', #1294 ) ;
#775 = EDGE_CURVE ( 'NONE', #29, #120, #227, .T. ) ;
#776 = VERTEX_POINT ( 'NONE', #460 ) ;
#777 = CARTESIAN_POINT ( 'NONE',  ( 90.00000000000000000, -15.00000000000000178, -14.99999999999999822 ) ) ;
#778 = VERTEX_POINT ( 'NONE', #968 ) ;
#779 = DIRECTION ( 'NONE',  ( 0.000000000000000000, 0.000000000000000000, -1.000000000000000000 ) ) ;
#780 = ORIENTED_EDGE ( 'NONE', *, *, #693, .F. ) ;
#781 = CYLINDRICAL_SURFACE ( 'NONE', #750, 3.600000000000005862 ) ;
#782 = EDGE_LOOP ( 'NONE', ( #1082, #467 ) ) ;
#783 = ADVANCED_FACE ( 'NONE', ( #151 ), #892, .F. ) ;
#784 = DIRECTION ( 'NONE',  ( -0.000000000000000000, 1.000000000000000000, 1.334402673828313093E-16 ) ) ;
#785 = VERTEX_POINT ( 'NONE', #263 ) ;
#786 = DIRECTION ( 'NONE',  ( 0.000000000000000000, -0.000000000000000000, 1.000000000000000000 ) ) ;
#787 = EDGE_LOOP ( 'NONE', ( #38, #323 ) ) ;
#788 = DIRECTION ( 'NONE',  ( 1.000000000000000000, 0.000000000000000000, 0.000000000000000000 ) ) ;
#789 = ORIENTED_EDGE ( 'NONE', *, *, #1411, .T. ) ;
#790 = CARTESIAN_POINT ( 'NONE',  ( 6.799999999999997158, -10.00000000000000178, -13.00000000000000355 ) ) ;
#791 = VECTOR ( 'NONE', #89, 1000.000000000000000 ) ;
#792 = ADVANCED_FACE ( 'NONE', ( #257 ), #677, .F. ) ;
#793 = AXIS2_PLACEMENT_3D ( 'NONE', #1235, #50, #1133 ) ;
#794 = VERTEX_POINT ( 'NONE', #1211 ) ;
#795 = CARTESIAN_POINT ( 'NONE',  ( 5.000000000000002665, -10.00000000000000178, -14.99999999999999822 ) ) ;
#796 = AXIS2_PLACEMENT_3D ( 'NONE', #840, #1369, #603 ) ;
#797 = ORIENTED_EDGE ( 'NONE', *, *, #533, .T. ) ;
#798 = AXIS2_PLACEMENT_3D ( 'NONE', #487, #172, #917 ) ;
#799 = DIRECTION ( 'NONE',  ( 1.000000000000000000, 0.000000000000000000, 0.000000000000000000 ) ) ;
#800 = UNCERTAINTY_MEASURE_WITH_UNIT (LENGTH_MEASURE( 1.000000000000000082E-05 ), #310, 'distance_accuracy_value', 'NONE');
#801 = ORIENTED_EDGE ( 'NONE', *, *, #1371, .F. ) ;
#802 = FACE_BOUND ( 'NONE', #782, .T. ) ;
#803 = CARTESIAN_POINT ( 'NONE',  ( 76.69999999999998863, -8.500000000000000000, 15.00000000000000178 ) ) ;
#804 = DIRECTION ( 'NONE',  ( 1.000000000000000000, 0.000000000000000000, 0.000000000000000000 ) ) ;
#805 = ORIENTED_EDGE ( 'NONE', *, *, #53, .F. ) ;
#806 = CARTESIAN_POINT ( 'NONE',  ( 90.00000000000000000, -13.00000000000000000, -13.00000000000000355 ) ) ;
#807 = ORIENTED_EDGE ( 'NONE', *, *, #87, .T. ) ;
#808 = CYLINDRICAL_SURFACE ( 'NONE', #793, 1.799999999999996048 ) ;
#809 = CARTESIAN_POINT ( 'NONE',  ( 5.000000000000002665, 9.999999999999998224, 15.00000000000000178 ) ) ;
#810 = DIRECTION ( 'NONE',  ( 1.000000000000000000, 0.000000000000000000, 0.000000000000000000 ) ) ;
#811 = VERTEX_POINT ( 'NONE', #1344 ) ;
#812 = CARTESIAN_POINT ( 'NONE',  ( 75.00000000000000000, 0.000000000000000000, 8.000000000000037303 ) ) ;
#813 = EDGE_CURVE ( 'NONE', #678, #421, #357, .T. ) ;
#814 = ORIENTED_EDGE ( 'NONE', *, *, #79, .F. ) ;
#815 = CARTESIAN_POINT ( 'NONE',  ( 26.79999999999999716, 10.00000000000000355, 15.00000000000000178 ) ) ;
#816 = AXIS2_PLACEMENT_3D ( 'NONE', #1059, #634, #1404 ) ;
#817 = DIRECTION ( 'NONE',  ( 0.000000000000000000, -1.334402673828313339E-16, 1.000000000000000000 ) ) ;
#818 = DIRECTION ( 'NONE',  ( -1.000000000000000000, -0.000000000000000000, 0.000000000000000000 ) ) ;
#819 = VECTOR ( 'NONE', #605, 1000.000000000000000 ) ;
#820 = VERTEX_POINT ( 'NONE', #100 ) ;
#821 = CIRCLE ( 'NONE', #136, 1.799999999999994271 ) ;
#822 = DIRECTION ( 'NONE',  ( 1.000000000000000000, 0.000000000000000000, 0.000000000000000000 ) ) ;
#823 = AXIS2_PLACEMENT_3D ( 'NONE', #1279, #741, #867 ) ;
#824 = EDGE_LOOP ( 'NONE', ( #814, #82 ) ) ;
#825 = EDGE_CURVE ( 'NONE', #794, #759, #537, .T. ) ;
#826 = LINE ( 'NONE', #1362, #453 ) ;
#827 = LINE ( 'NONE', #268, #1044 ) ;
#828 = LINE ( 'NONE', #1255, #1272 ) ;
#829 = ORIENTED_EDGE ( 'NONE', *, *, #726, .F. ) ;
#830 = LINE ( 'NONE', #594, #183 ) ;
#831 = ORIENTED_EDGE ( 'NONE', *, *, #1057, .F. ) ;
#832 = EDGE_CURVE ( 'NONE', #125, #1089, #391, .T. ) ;
#833 = DIRECTION ( 'NONE',  ( 1.000000000000000000, 0.000000000000000000, 0.000000000000000000 ) ) ;
#834 = CARTESIAN_POINT ( 'NONE',  ( 78.60000000000000853, 0.000000000000000000, 12.99999999999999822 ) ) ;
#835 = CARTESIAN_POINT ( 'NONE',  ( 87.70000000000000284, 1.555301434917139616E-15, -6.000000000000001776 ) ) ;
#836 = VERTEX_POINT ( 'NONE', #324 ) ;
#837 = LINE ( 'NONE', #1265, #1337 ) ;
#838 = PLANE ( 'NONE',  #655 ) ;
#839 = ORIENTED_EDGE ( 'NONE', *, *, #87, .F. ) ;
#840 = CARTESIAN_POINT ( 'NONE',  ( 75.00000000000000000, 0.000000000000000000, -2.000000000000027978 ) ) ;
#841 = AXIS2_PLACEMENT_3D ( 'NONE', #1081, #1315, #346 ) ;
#842 = VECTOR ( 'NONE', #422, 1000.000000000000000 ) ;
#843 = VECTOR ( 'NONE', #1298, 1000.000000000000000 ) ;
#844 = LINE ( 'NONE', #1390, #563 ) ;
#845 = CARTESIAN_POINT ( 'NONE',  ( 3.200000000000008171, -10.00000000000000178, -13.00000000000000355 ) ) ;
#846 = CARTESIAN_POINT ( 'NONE',  ( 3.200000000000008171, -10.00000000000000178, 12.99999999999999645 ) ) ;
#847 = ORIENTED_EDGE ( 'NONE', *, *, #519, .F. ) ;
#848 = DIRECTION ( 'NONE',  ( -0.000000000000000000, -0.000000000000000000, 1.000000000000000000 ) ) ;
#849 = FACE_BOUND ( 'NONE', #9, .T. ) ;
#850 = CARTESIAN_POINT ( 'NONE',  ( 26.79999999999999716, -10.00000000000000000, 12.99999999999999645 ) ) ;
#851 = ORIENTED_EDGE ( 'NONE', *, *, #1086, .T. ) ;
#852 = DIRECTION ( 'NONE',  ( 0.000000000000000000, 1.000000000000000000, 0.000000000000000000 ) ) ;
#853 = ADVANCED_FACE ( 'NONE', ( #1100 ), #781, .F. ) ;
#854 = CYLINDRICAL_SURFACE ( 'NONE', #933, 12.70000000000000284 ) ;
#855 = PLANE ( 'NONE',  #363 ) ;
#856 = ORIENTED_EDGE ( 'NONE', *, *, #1379, .T. ) ;
#857 = DIRECTION ( 'NONE',  ( 0.000000000000000000, -1.334402673828313339E-16, 1.000000000000000000 ) ) ;
#858 = VECTOR ( 'NONE', #36, 1000.000000000000000 ) ;
#859 = AXIS2_PLACEMENT_3D ( 'NONE', #1036, #56, #393 ) ;
#860 = ADVANCED_FACE ( 'NONE', ( #135 ), #571, .F. ) ;
#861 = CARTESIAN_POINT ( 'NONE',  ( 73.29999999999999716, -8.500000000000000000, 15.00000000000000178 ) ) ;
#862 = VECTOR ( 'NONE', #1188, 1000.000000000000000 ) ;
#863 = DIRECTION ( 'NONE',  ( -0.000000000000000000, -0.000000000000000000, 1.000000000000000000 ) ) ;
#864 = CIRCLE ( 'NONE', #595, 1.699999999999993072 ) ;
#865 = CARTESIAN_POINT ( 'NONE',  ( 73.29999999999999716, 8.500000000000000000, -2.000000000000027978 ) ) ;
#866 = ORIENTED_EDGE ( 'NONE', *, *, #640, .F. ) ;
#867 = DIRECTION ( 'NONE',  ( 1.000000000000000000, 0.000000000000000000, 0.000000000000000000 ) ) ;
#868 = EDGE_CURVE ( 'NONE', #338, #550, #821, .T. ) ;
#869 = FACE_BOUND ( 'NONE', #33, .T. ) ;
#870 = EDGE_CURVE ( 'NONE', #776, #421, #731, .T. ) ;
#871 = ORIENTED_EDGE ( 'NONE', *, *, #1326, .T. ) ;
#872 = CARTESIAN_POINT ( 'NONE',  ( 25.00000000000000000, 10.00000000000000355, -13.00000000000000000 ) ) ;
#873 = ORIENTED_EDGE ( 'NONE', *, *, #129, .T. ) ;
#874 = CYLINDRICAL_SURFACE ( 'NONE', #134, 1.799999999999996048 ) ;
#875 = ORIENTED_EDGE ( 'NONE', *, *, #1057, .T. ) ;
#876 = DIRECTION ( 'NONE',  ( 1.000000000000000000, 0.000000000000000000, 0.000000000000000000 ) ) ;
#877 = VERTEX_POINT ( 'NONE', #408 ) ;
#878 = CIRCLE ( 'NONE', #951, 1.799999999999994271 ) ;
#879 = CYLINDRICAL_SURFACE ( 'NONE', #1309, 1.799999999999994271 ) ;
#880 = DIRECTION ( 'NONE',  ( -0.000000000000000000, -0.000000000000000000, 1.000000000000000000 ) ) ;
#881 = AXIS2_PLACEMENT_3D ( 'NONE', #795, #897, #464 ) ;
#882 = ORIENTED_EDGE ( 'NONE', *, *, #143, .T. ) ;
#883 = DIRECTION ( 'NONE',  ( -1.000000000000000000, -0.000000000000000000, -0.000000000000000000 ) ) ;
#884 = EDGE_CURVE ( 'NONE', #550, #553, #386, .T. ) ;
#885 = ORIENTED_EDGE ( 'NONE', *, *, #388, .F. ) ;
#886 = CARTESIAN_POINT ( 'NONE',  ( 90.00000000000000000, -13.00000000000000000, 12.99999999999999645 ) ) ;
#887 = ORIENTED_EDGE ( 'NONE', *, *, #1142, .F. ) ;
#888 = LINE ( 'NONE', #1190, #18 ) ;
#889 = ORIENTED_EDGE ( 'NONE', *, *, #766, .T. ) ;
#890 = FACE_OUTER_BOUND ( 'NONE', #979, .T. ) ;
#891 = VERTEX_POINT ( 'NONE', #169 ) ;
#892 = CYLINDRICAL_SURFACE ( 'NONE', #91, 1.799999999999996048 ) ;
#893 = ORIENTED_EDGE ( 'NONE', *, *, #1152, .T. ) ;
#894 = ADVANCED_FACE ( 'NONE', ( #70 ), #708, .F. ) ;
#895 = SURFACE_SIDE_STYLE ('',( #1043 ) ) ;
#896 = EDGE_LOOP ( 'NONE', ( #1074, #449, #767, #1375 ) ) ;
#897 = DIRECTION ( 'NONE',  ( -0.000000000000000000, -0.000000000000000000, 1.000000000000000000 ) ) ;
#898 = ORIENTED_EDGE ( 'NONE', *, *, #282, .F. ) ;
#899 = CARTESIAN_POINT ( 'NONE',  ( 5.000000000000002665, 9.999999999999998224, 15.00000000000000178 ) ) ;
#900 = ORIENTED_EDGE ( 'NONE', *, *, #1240, .T. ) ;
#901 = CIRCLE ( 'NONE', #201, 1.699999999999993072 ) ;
#902 = EDGE_CURVE ( 'NONE', #1196, #31, #158, .T. ) ;
#903 = DIRECTION ( 'NONE',  ( 0.000000000000000000, -1.000000000000000000, 0.000000000000000000 ) ) ;
#904 = CIRCLE ( 'NONE', #482, 1.799999999999994271 ) ;
#905 = ORIENTED_EDGE ( 'NONE', *, *, #504, .T. ) ;
#906 = LINE ( 'NONE', #177, #747 ) ;
#907 = FACE_OUTER_BOUND ( 'NONE', #539, .T. ) ;
#908 = CIRCLE ( 'NONE', #111, 1.799999999999992495 ) ;
#909 = VERTEX_POINT ( 'NONE', #1041 ) ;
#910 = CIRCLE ( 'NONE', #186, 1.799999999999994271 ) ;
#911 = CARTESIAN_POINT ( 'NONE',  ( 87.70000000000000284, 1.555301434917139024E-15, 8.000000000000037303 ) ) ;
#912 = VERTEX_POINT ( 'NONE', #516 ) ;
#913 = CARTESIAN_POINT ( 'NONE',  ( 90.00000000000000000, -13.00000000000000000, 5.999999999999995559 ) ) ;
#914 = DIRECTION ( 'NONE',  ( -1.000000000000000000, 0.000000000000000000, 0.000000000000000000 ) ) ;
#915 = EDGE_CURVE ( 'NONE', #378, #912, #1110, .T. ) ;
#916 = DIRECTION ( 'NONE',  ( 0.000000000000000000, 0.000000000000000000, -1.000000000000000000 ) ) ;
#917 = DIRECTION ( 'NONE',  ( 0.000000000000000000, -1.000000000000000000, 0.000000000000000000 ) ) ;
#918 = EDGE_CURVE ( 'NONE', #759, #602, #624, .T. ) ;
#919 = EDGE_LOOP ( 'NONE', ( #900, #1216, #584, #532 ) ) ;
#920 = FACE_OUTER_BOUND ( 'NONE', #265, .T. ) ;
#921 = DIRECTION ( 'NONE',  ( 0.000000000000000000, -1.000000000000000000, -1.334402673828313339E-16 ) ) ;
#922 = DIRECTION ( 'NONE',  ( 0.000000000000000000, 1.000000000000000000, 0.000000000000000000 ) ) ;
#923 = DIRECTION ( 'NONE',  ( -0.000000000000000000, -0.000000000000000000, 1.000000000000000000 ) ) ;
#924 = PLANE ( 'NONE',  #734 ) ;
#925 = ORIENTED_EDGE ( 'NONE', *, *, #566, .T. ) ;
#926 = DIRECTION ( 'NONE',  ( -0.000000000000000000, 1.000000000000000000, 1.334402673828313339E-16 ) ) ;
#927 = PRODUCT_DEFINITION_CONTEXT ( 'detailed design', #1179, 'design' ) ;
#928 = ORIENTED_EDGE ( 'NONE', *, *, #654, .F. ) ;
#929 = DIRECTION ( 'NONE',  ( -1.000000000000000000, 0.000000000000000000, 0.000000000000000000 ) ) ;
#930 = CIRCLE ( 'NONE', #107, 1.799999999999994271 ) ;
#931 = LINE ( 'NONE', #941, #503 ) ;
#932 = DIRECTION ( 'NONE',  ( 0.000000000000000000, -1.334402673828313339E-16, 1.000000000000000000 ) ) ;
#933 = AXIS2_PLACEMENT_3D ( 'NONE', #513, #1259, #518 ) ;
#934 = ORIENTED_EDGE ( 'NONE', *, *, #359, .T. ) ;
#935 = AXIS2_PLACEMENT_3D ( 'NONE', #812, #174, #1140 ) ;
#936 = DIRECTION ( 'NONE',  ( 1.000000000000000000, 0.000000000000000000, 0.000000000000000000 ) ) ;
#937 = EDGE_CURVE ( 'NONE', #396, #836, #1292, .T. ) ;
#938 = AXIS2_PLACEMENT_3D ( 'NONE', #662, #1098, #991 ) ;
#939 = ORIENTED_EDGE ( 'NONE', *, *, #1285, .T. ) ;
#940 = LINE ( 'NONE', #1372, #108 ) ;
#941 = CARTESIAN_POINT ( 'NONE',  ( 3.200000000000008171, -10.00000000000000178, 15.00000000000000178 ) ) ;
#942 =( NAMED_UNIT ( * ) SI_UNIT ( $, .STERADIAN. ) SOLID_ANGLE_UNIT ( ) );
#943 = ORIENTED_EDGE ( 'NONE', *, *, #494, .F. ) ;
#944 = CARTESIAN_POINT ( 'NONE',  ( 25.00000000000000000, -10.00000000000000000, 15.00000000000000178 ) ) ;
#945 = ADVANCED_FACE ( 'NONE', ( #1147 ), #511, .F. ) ;
#946 = DIRECTION ( 'NONE',  ( 0.000000000000000000, 0.000000000000000000, 1.000000000000000000 ) ) ;
#947 = VERTEX_POINT ( 'NONE', #1056 ) ;
#948 = CARTESIAN_POINT ( 'NONE',  ( 25.00000000000000000, -10.00000000000000000, -13.00000000000000355 ) ) ;
#949 = FACE_OUTER_BOUND ( 'NONE', #1194, .T. ) ;
#950 = CARTESIAN_POINT ( 'NONE',  ( 75.00000000000000000, 8.500000000000000000, 13.00000000000000000 ) ) ;
#951 = AXIS2_PLACEMENT_3D ( 'NONE', #51, #486, #1037 ) ;
#952 = VERTEX_POINT ( 'NONE', #295 ) ;
#953 = DIRECTION ( 'NONE',  ( 1.000000000000000000, 0.000000000000000000, 0.000000000000000000 ) ) ;
#954 = AXIS2_PLACEMENT_3D ( 'NONE', #1202, #666, #1092 ) ;
#955 = ORIENTED_EDGE ( 'NONE', *, *, #566, .F. ) ;
#956 = CIRCLE ( 'NONE', #368, 1.699999999999999289 ) ;
#957 = DIRECTION ( 'NONE',  ( -0.000000000000000000, -0.000000000000000000, 1.000000000000000000 ) ) ;
#958 = FACE_OUTER_BOUND ( 'NONE', #1336, .T. ) ;
#959 = ORIENTED_EDGE ( 'NONE', *, *, #1371, .T. ) ;
#960 = EDGE_CURVE ( 'NONE', #361, #557, #1021, .T. ) ;
#961 = DIRECTION ( 'NONE',  ( -1.000000000000000000, -0.000000000000000000, -0.000000000000000000 ) ) ;
#962 = FACE_BOUND ( 'NONE', #682, .T. ) ;
#963 = DIRECTION ( 'NONE',  ( 0.000000000000000000, 1.334402673828313339E-16, -1.000000000000000000 ) ) ;
#964 = DIRECTION ( 'NONE',  ( 1.000000000000000000, 0.000000000000000000, 0.000000000000000000 ) ) ;
#965 = EDGE_LOOP ( 'NONE', ( #581, #707, #342, #995 ) ) ;
#966 = CARTESIAN_POINT ( 'NONE',  ( 71.39999999999999147, 4.408728476930468193E-16, 12.99999999999999822 ) ) ;
#967 = EDGE_CURVE ( 'NONE', #1035, #877, #1221, .T. ) ;
#968 = CARTESIAN_POINT ( 'NONE',  ( 23.20000000000000639, 10.00000000000000355, 15.00000000000000178 ) ) ;
#969 = FACE_BOUND ( 'NONE', #127, .T. ) ;
#970 = VERTEX_POINT ( 'NONE', #1162 ) ;
#971 = CARTESIAN_POINT ( 'NONE',  ( 25.00000000000000000, -10.00000000000000000, 15.00000000000000178 ) ) ;
#972 = CIRCLE ( 'NONE', #615, 1.799999999999994271 ) ;
#973 = EDGE_CURVE ( 'NONE', #952, #47, #434, .T. ) ;
#974 = VECTOR ( 'NONE', #1249, 1000.000000000000000 ) ;
#975 = EDGE_CURVE ( 'NONE', #262, #1232, #830, .T. ) ;
#976 = CARTESIAN_POINT ( 'NONE',  ( 25.00000000000000000, 10.00000000000000355, 15.00000000000000178 ) ) ;
#977 = CIRCLE ( 'NONE', #938, 12.70000000000000462 ) ;
#978 = FACE_BOUND ( 'NONE', #320, .T. ) ;
#979 = EDGE_LOOP ( 'NONE', ( #179, #133, #1370, #1141 ) ) ;
#980 = DIRECTION ( 'NONE',  ( 0.000000000000000000, -1.334402673828313339E-16, 1.000000000000000000 ) ) ;
#981 = ORIENTED_EDGE ( 'NONE', *, *, #726, .T. ) ;
#982 = EDGE_CURVE ( 'NONE', #281, #364, #722, .T. ) ;
#983 = LINE ( 'NONE', #222, #524 ) ;
#984 = ORIENTED_EDGE ( 'NONE', *, *, #152, .F. ) ;
#985 = FACE_OUTER_BOUND ( 'NONE', #896, .T. ) ;
#986 = ORIENTED_EDGE ( 'NONE', *, *, #1326, .F. ) ;
#987 = ORIENTED_EDGE ( 'NONE', *, *, #314, .F. ) ;
#988 = CARTESIAN_POINT ( 'NONE',  ( 75.00000000000000000, 0.000000000000000000, 12.99999999999999822 ) ) ;
#989 = ADVANCED_FACE ( 'NONE', ( #920 ), #1351, .F. ) ;
#990 = ORIENTED_EDGE ( 'NONE', *, *, #1223, .T. ) ;
#991 = DIRECTION ( 'NONE',  ( 0.000000000000000000, -1.000000000000000000, -1.365923996832131116E-16 ) ) ;
#992 = ORIENTED_EDGE ( 'NONE', *, *, #1302, .F. ) ;
#993 = LINE ( 'NONE', #806, #1069 ) ;
#994 = CIRCLE ( 'NONE', #523, 1.799999999999994271 ) ;
#995 = ORIENTED_EDGE ( 'NONE', *, *, #163, .F. ) ;
#996 = CARTESIAN_POINT ( 'NONE',  ( 26.79999999999999716, 10.00000000000000355, 15.00000000000000178 ) ) ;
#997 = VECTOR ( 'NONE', #30, 1000.000000000000000 ) ;
#998 = DIRECTION ( 'NONE',  ( 1.000000000000000000, 0.000000000000000000, 0.000000000000000000 ) ) ;
#999 = ORIENTED_EDGE ( 'NONE', *, *, #1125, .F. ) ;
#1000 = EDGE_CURVE ( 'NONE', #1318, #250, #271, .T. ) ;
#1001 = CARTESIAN_POINT ( 'NONE',  ( 90.00000000000000000, 13.00000000000000000, 13.00000000000000000 ) ) ;
#1002 = EDGE_LOOP ( 'NONE', ( #118, #213 ) ) ;
#1003 = DIRECTION ( 'NONE',  ( 0.000000000000000000, -0.000000000000000000, -1.000000000000000000 ) ) ;
#1004 = DIRECTION ( 'NONE',  ( -0.000000000000000000, -0.000000000000000000, -1.000000000000000000 ) ) ;
#1005 = ORIENTED_EDGE ( 'NONE', *, *, #1030, .T. ) ;
#1006 = DIRECTION ( 'NONE',  ( -0.000000000000000000, -0.000000000000000000, 1.000000000000000000 ) ) ;
#1007 = EDGE_CURVE ( 'NONE', #820, #1208, #837, .T. ) ;
#1008 = ORIENTED_EDGE ( 'NONE', *, *, #967, .F. ) ;
#1009 = CARTESIAN_POINT ( 'NONE',  ( 23.20000000000000639, -10.00000000000000000, 15.00000000000000178 ) ) ;
#1010 = CARTESIAN_POINT ( 'NONE',  ( 5.000000000000002665, -10.00000000000000178, -13.00000000000000355 ) ) ;
#1011 = CARTESIAN_POINT ( 'NONE',  ( 87.70000000000000284, 1.555301434917139419E-15, -14.99999999999999822 ) ) ;
#1012 = CARTESIAN_POINT ( 'NONE',  ( 25.00000000000000000, -10.00000000000000000, 12.99999999999999645 ) ) ;
#1013 = CARTESIAN_POINT ( 'NONE',  ( 0.000000000000000000, 13.00000000000000000, 13.00000000000000000 ) ) ;
#1014 = FACE_BOUND ( 'NONE', #824, .T. ) ;
#1015 = ORIENTED_EDGE ( 'NONE', *, *, #541, .T. ) ;
#1016 = DIRECTION ( 'NONE',  ( -0.000000000000000000, -0.000000000000000000, 1.000000000000000000 ) ) ;
#1017 = ORIENTED_EDGE ( 'NONE', *, *, #379, .T. ) ;
#1018 = EDGE_CURVE ( 'NONE', #1345, #587, #733, .T. ) ;
#1019 = FACE_OUTER_BOUND ( 'NONE', #1042, .T. ) ;
#1020 = AXIS2_PLACEMENT_3D ( 'NONE', #1010, #588, #903 ) ;
#1021 = CIRCLE ( 'NONE', #684, 1.799999999999994271 ) ;
#1022 = ORIENTED_EDGE ( 'NONE', *, *, #439, .F. ) ;
#1023 = CARTESIAN_POINT ( 'NONE',  ( 90.00000000000000000, -15.00000000000000178, 15.00000000000000178 ) ) ;
#1024 = DIRECTION ( 'NONE',  ( -0.000000000000000000, -0.000000000000000000, 1.000000000000000000 ) ) ;
#1025 =( GEOMETRIC_REPRESENTATION_CONTEXT ( 3 ) GLOBAL_UNCERTAINTY_ASSIGNED_CONTEXT ( ( #586 ) ) GLOBAL_UNIT_ASSIGNED_CONTEXT ( ( #1039, #1046, #942 ) ) REPRESENTATION_CONTEXT ( 'NONE', 'WORKASPACE' ) );
#1026 = ORIENTED_EDGE ( 'NONE', *, *, #314, .T. ) ;
#1027 = DIRECTION ( 'NONE',  ( 0.000000000000000000, 0.000000000000000000, 1.000000000000000000 ) ) ;
#1028 = ORIENTED_EDGE ( 'NONE', *, *, #1125, .T. ) ;
#1029 = CARTESIAN_POINT ( 'NONE',  ( 75.00000000000000000, 0.000000000000000000, -14.99999999999999822 ) ) ;
#1030 = EDGE_CURVE ( 'NONE', #1289, #375, #908, .T. ) ;
#1031 = DIRECTION ( 'NONE',  ( -0.000000000000000000, -0.000000000000000000, 1.000000000000000000 ) ) ;
#1032 = DIRECTION ( 'NONE',  ( 0.000000000000000000, 1.000000000000000000, 0.000000000000000000 ) ) ;
#1033 = ORIENTED_EDGE ( 'NONE', *, *, #640, .T. ) ;
#1034 = DIRECTION ( 'NONE',  ( 0.000000000000000000, 1.000000000000000000, 0.000000000000000000 ) ) ;
#1035 = VERTEX_POINT ( 'NONE', #104 ) ;
#1036 = CARTESIAN_POINT ( 'NONE',  ( 75.00000000000000000, 0.000000000000000000, 15.00000000000000178 ) ) ;
#1037 = DIRECTION ( 'NONE',  ( 0.000000000000000000, 1.000000000000000000, 0.000000000000000000 ) ) ;
#1038 = EDGE_CURVE ( 'NONE', #661, #811, #904, .T. ) ;
#1039 =( LENGTH_UNIT ( ) NAMED_UNIT ( * ) SI_UNIT ( .MILLI., .METRE. ) );
#1040 = ORIENTED_EDGE ( 'NONE', *, *, #8, .T. ) ;
#1041 = CARTESIAN_POINT ( 'NONE',  ( 73.29999999999999716, 8.500000000000000000, 13.00000000000000000 ) ) ;
#1042 = EDGE_LOOP ( 'NONE', ( #181, #1126, #1040, #358 ) ) ;
#1043 = SURFACE_STYLE_FILL_AREA ( #610 ) ;
#1044 = VECTOR ( 'NONE', #493, 1000.000000000000000 ) ;
#1045 = DIRECTION ( 'NONE',  ( -0.000000000000000000, -0.000000000000000000, 1.000000000000000000 ) ) ;
#1046 =( NAMED_UNIT ( * ) PLANE_ANGLE_UNIT ( ) SI_UNIT ( $, .RADIAN. ) );
#1047 = AXIS2_PLACEMENT_3D ( 'NONE', #777, #1207, #236 ) ;
#1048 = EDGE_LOOP ( 'NONE', ( #103, #664, #955, #1278 ) ) ;
#1049 = DIRECTION ( 'NONE',  ( 0.000000000000000000, 1.000000000000000000, 0.000000000000000000 ) ) ;
#1050 = AXIS2_PLACEMENT_3D ( 'NONE', #348, #1004, #23 ) ;
#1051 = ADVANCED_FACE ( 'NONE', ( #1396, #427 ), #437, .T. ) ;
#1052 = PLANE ( 'NONE',  #564 ) ;
#1053 = DIRECTION ( 'NONE',  ( 1.000000000000000000, 0.000000000000000000, 0.000000000000000000 ) ) ;
#1054 = CARTESIAN_POINT ( 'NONE',  ( 25.00000000000000000, 10.00000000000000355, 15.00000000000000178 ) ) ;
#1055 = VERTEX_POINT ( 'NONE', #540 ) ;
#1056 = CARTESIAN_POINT ( 'NONE',  ( 0.000000000000000000, -13.00000000000000000, 12.99999999999999645 ) ) ;
#1057 = EDGE_CURVE ( 'NONE', #375, #569, #636, .T. ) ;
#1058 =( NAMED_UNIT ( * ) PLANE_ANGLE_UNIT ( ) SI_UNIT ( $, .RADIAN. ) );
#1059 = CARTESIAN_POINT ( 'NONE',  ( 5.000000000000002665, 9.999999999999998224, -14.99999999999999822 ) ) ;
#1060 = ORIENTED_EDGE ( 'NONE', *, *, #235, .F. ) ;
#1061 = CARTESIAN_POINT ( 'NONE',  ( 25.00000000000000000, 10.00000000000000355, -14.99999999999999822 ) ) ;
#1062 = CARTESIAN_POINT ( 'NONE',  ( 62.29999999999999716, -2.314819644696196905E-31, 5.999999999999997335 ) ) ;
#1063 = EDGE_CURVE ( 'NONE', #97, #836, #193, .T. ) ;
#1064 = FACE_BOUND ( 'NONE', #1305, .T. ) ;
#1065 = VECTOR ( 'NONE', #916, 1000.000000000000000 ) ;
#1066 = ORIENTED_EDGE ( 'NONE', *, *, #459, .T. ) ;
#1067 = DIRECTION ( 'NONE',  ( 0.000000000000000000, -1.000000000000000000, -1.365923996832131116E-16 ) ) ;
#1068 = CIRCLE ( 'NONE', #616, 1.799999999999992495 ) ;
#1069 = VECTOR ( 'NONE', #32, 1000.000000000000000 ) ;
#1070 = VECTOR ( 'NONE', #961, 1000.000000000000000 ) ;
#1071 = CARTESIAN_POINT ( 'NONE',  ( 5.000000000000002665, -10.00000000000000178, 15.00000000000000178 ) ) ;
#1072 = DIRECTION ( 'NONE',  ( -0.000000000000000000, -0.000000000000000000, 1.000000000000000000 ) ) ;
#1073 = CARTESIAN_POINT ( 'NONE',  ( 0.000000000000000000, -13.00000000000000000, -13.00000000000000355 ) ) ;
#1074 = ORIENTED_EDGE ( 'NONE', *, *, #1007, .T. ) ;
#1075 = CARTESIAN_POINT ( 'NONE',  ( 75.00000000000000000, 0.000000000000000000, 5.999999999999997335 ) ) ;
#1076 = LINE ( 'NONE', #508, #1333 ) ;
#1077 = DIRECTION ( 'NONE',  ( 0.000000000000000000, 1.000000000000000000, 0.000000000000000000 ) ) ;
#1078 = EDGE_LOOP ( 'NONE', ( #990, #72, #1015, #354 ) ) ;
#1079 = EDGE_CURVE ( 'NONE', #721, #794, #198, .T. ) ;
#1080 = DIRECTION ( 'NONE',  ( -0.000000000000000000, -0.000000000000000000, 1.000000000000000000 ) ) ;
#1081 = CARTESIAN_POINT ( 'NONE',  ( 5.000000000000002665, -10.00000000000000178, -13.00000000000000355 ) ) ;
#1082 = ORIENTED_EDGE ( 'NONE', *, *, #1038, .F. ) ;
#1083 = DIRECTION ( 'NONE',  ( 1.000000000000000000, 0.000000000000000000, 0.000000000000000000 ) ) ;
#1084 = AXIS2_PLACEMENT_3D ( 'NONE', #1012, #1254, #922 ) ;
#1085 = CIRCLE ( 'NONE', #317, 12.70000000000000284 ) ;
#1086 = EDGE_CURVE ( 'NONE', #952, #120, #1388, .T. ) ;
#1087 = VECTOR ( 'NONE', #497, 1000.000000000000000 ) ;
#1088 = DIRECTION ( 'NONE',  ( 0.000000000000000000, 1.334402673828313339E-16, -1.000000000000000000 ) ) ;
#1089 = VERTEX_POINT ( 'NONE', #966 ) ;
#1090 = AXIS2_PLACEMENT_3D ( 'NONE', #591, #1237, #804 ) ;
#1091 = AXIS2_PLACEMENT_3D ( 'NONE', #1075, #980, #1067 ) ;
#1092 = DIRECTION ( 'NONE',  ( 1.000000000000000000, 0.000000000000000000, 0.000000000000000000 ) ) ;
#1093 = ORIENTED_EDGE ( 'NONE', *, *, #494, .T. ) ;
#1094 = LINE ( 'NONE', #1225, #1138 ) ;
#1095 = VERTEX_POINT ( 'NONE', #760 ) ;
#1096 = DIRECTION ( 'NONE',  ( 1.000000000000000000, 0.000000000000000000, 0.000000000000000000 ) ) ;
#1097 = FACE_BOUND ( 'NONE', #239, .T. ) ;
#1098 = DIRECTION ( 'NONE',  ( 0.000000000000000000, -1.334402673828313339E-16, 1.000000000000000000 ) ) ;
#1099 = ORIENTED_EDGE ( 'NONE', *, *, #1302, .T. ) ;
#1100 = FACE_OUTER_BOUND ( 'NONE', #669, .T. ) ;
#1101 = EDGE_LOOP ( 'NONE', ( #905, #554 ) ) ;
#1102 = CARTESIAN_POINT ( 'NONE',  ( 0.000000000000000000, 15.00000000000000000, -14.99999999999999822 ) ) ;
#1103 = EDGE_CURVE ( 'NONE', #550, #338, #343, .T. ) ;
#1104 = EDGE_LOOP ( 'NONE', ( #426, #1330, #1368, #241 ) ) ;
#1105 = CARTESIAN_POINT ( 'NONE',  ( 5.000000000000002665, -10.00000000000000178, 15.00000000000000178 ) ) ;
#1106 = ORIENTED_EDGE ( 'NONE', *, *, #1240, .F. ) ;
#1107 = DIRECTION ( 'NONE',  ( 1.000000000000000000, 0.000000000000000000, 0.000000000000000000 ) ) ;
#1108 = AXIS2_PLACEMENT_3D ( 'NONE', #809, #500, #383 ) ;
#1109 = EDGE_LOOP ( 'NONE', ( #1241, #667, #1248, #244, #847, #593, #1132, #807 ) ) ;
#1110 = CIRCLE ( 'NONE', #161, 3.600000000000005862 ) ;
#1111 = PLANE ( 'NONE',  #1047 ) ;
#1112 = AXIS2_PLACEMENT_3D ( 'NONE', #52, #46, #67 ) ;
#1113 = EDGE_LOOP ( 'NONE', ( #674, #1320, #797, #871 ) ) ;
#1114 = EDGE_CURVE ( 'NONE', #685, #77, #1193, .T. ) ;
#1115 = CARTESIAN_POINT ( 'NONE',  ( 90.00000000000000000, 13.00000000000000178, -5.999999999999999112 ) ) ;
#1116 = ORIENTED_EDGE ( 'NONE', *, *, #1114, .T. ) ;
#1117 = DIRECTION ( 'NONE',  ( -0.000000000000000000, -0.000000000000000000, 1.000000000000000000 ) ) ;
#1118 = ORIENTED_EDGE ( 'NONE', *, *, #813, .F. ) ;
#1119 = DIRECTION ( 'NONE',  ( -0.000000000000000000, 1.445602896647339410E-16, -1.000000000000000000 ) ) ;
#1120 = ORIENTED_EDGE ( 'NONE', *, *, #129, .F. ) ;
#1121 = CARTESIAN_POINT ( 'NONE',  ( 90.00000000000000000, 15.00000000000000000, 15.00000000000000178 ) ) ;
#1122 = FACE_OUTER_BOUND ( 'NONE', #307, .T. ) ;
#1123 = EDGE_LOOP ( 'NONE', ( #1060, #1310 ) ) ;
#1124 = CARTESIAN_POINT ( 'NONE',  ( 90.00000000000000000, 13.00000000000000000, 13.00000000000000000 ) ) ;
#1125 = EDGE_CURVE ( 'NONE', #577, #776, #530, .T. ) ;
#1126 = ORIENTED_EDGE ( 'NONE', *, *, #1183, .F. ) ;
#1127 = DIRECTION ( 'NONE',  ( -1.000000000000000000, 0.000000000000000000, 0.000000000000000000 ) ) ;
#1128 = CARTESIAN_POINT ( 'NONE',  ( 5.000000000000002665, -10.00000000000000178, 15.00000000000000178 ) ) ;
#1129 = CARTESIAN_POINT ( 'NONE',  ( 0.000000000000000000, 0.000000000000000000, 0.000000000000000000 ) ) ;
#1130 = ORIENTED_EDGE ( 'NONE', *, *, #672, .T. ) ;
#1131 = DIRECTION ( 'NONE',  ( 1.000000000000000000, 0.000000000000000000, 0.000000000000000000 ) ) ;
#1132 = ORIENTED_EDGE ( 'NONE', *, *, #764, .T. ) ;
#1133 = DIRECTION ( 'NONE',  ( 1.000000000000000000, 0.000000000000000000, 0.000000000000000000 ) ) ;
#1134 = VECTOR ( 'NONE', #44, 1000.000000000000000 ) ;
#1135 = VECTOR ( 'NONE', #1257, 1000.000000000000000 ) ;
#1136 = LINE ( 'NONE', #611, #1361 ) ;
#1137 = CYLINDRICAL_SURFACE ( 'NONE', #1367, 1.799999999999996048 ) ;
#1138 = VECTOR ( 'NONE', #883, 1000.000000000000000 ) ;
#1139 = ORIENTED_EDGE ( 'NONE', *, *, #825, .F. ) ;
#1140 = DIRECTION ( 'NONE',  ( -1.000000000000000000, 0.000000000000000000, 0.000000000000000000 ) ) ;
#1141 = ORIENTED_EDGE ( 'NONE', *, *, #1280, .T. ) ;
#1142 = EDGE_CURVE ( 'NONE', #891, #709, #641, .T. ) ;
#1143 = DIRECTION ( 'NONE',  ( 1.000000000000000000, 0.000000000000000000, 0.000000000000000000 ) ) ;
#1144 = LINE ( 'NONE', #171, #858 ) ;
#1145 = CARTESIAN_POINT ( 'NONE',  ( 90.00000000000000000, 13.00000000000000178, -5.999999999999999112 ) ) ;
#1146 = ORIENTED_EDGE ( 'NONE', *, *, #1063, .F. ) ;
#1147 = FACE_OUTER_BOUND ( 'NONE', #695, .T. ) ;
#1148 = ORIENTED_EDGE ( 'NONE', *, *, #1223, .F. ) ;
#1149 = CARTESIAN_POINT ( 'NONE',  ( 26.79999999999999716, -10.00000000000000000, -13.00000000000000355 ) ) ;
#1150 = DIRECTION ( 'NONE',  ( -0.000000000000000000, -0.000000000000000000, -1.000000000000000000 ) ) ;
#1151 = DIRECTION ( 'NONE',  ( -0.000000000000000000, -1.000000000000000000, -0.000000000000000000 ) ) ;
#1152 = EDGE_CURVE ( 'NONE', #441, #774, #956, .T. ) ;
#1153 = ORIENTED_EDGE ( 'NONE', *, *, #293, .F. ) ;
#1154 = DIRECTION ( 'NONE',  ( 0.000000000000000000, 1.334402673828313339E-16, -1.000000000000000000 ) ) ;
#1155 = CARTESIAN_POINT ( 'NONE',  ( 5.000000000000002665, 9.999999999999998224, 15.00000000000000178 ) ) ;
#1156 = CIRCLE ( 'NONE', #542, 12.70000000000000462 ) ;
#1157 = AXIS2_PLACEMENT_3D ( 'NONE', #976, #450, #1096 ) ;
#1158 = FACE_OUTER_BOUND ( 'NONE', #1109, .T. ) ;
#1159 = VECTOR ( 'NONE', #627, 1000.000000000000000 ) ;
#1160 = ORIENTED_EDGE ( 'NONE', *, *, #517, .F. ) ;
#1161 = EDGE_CURVE ( 'NONE', #778, #574, #207, .T. ) ;
#1162 = CARTESIAN_POINT ( 'NONE',  ( 3.200000000000008171, 9.999999999999998224, -13.00000000000000000 ) ) ;
#1163 =( NAMED_UNIT ( * ) SI_UNIT ( $, .STERADIAN. ) SOLID_ANGLE_UNIT ( ) );
#1164 = LINE ( 'NONE', #531, #728 ) ;
#1165 = VERTEX_POINT ( 'NONE', #99 ) ;
#1166 = DIRECTION ( 'NONE',  ( 0.000000000000000000, 1.000000000000000000, 0.000000000000000000 ) ) ;
#1167 = EDGE_CURVE ( 'NONE', #1232, #142, #548, .T. ) ;
#1168 = EDGE_CURVE ( 'NONE', #1208, #754, #1407, .T. ) ;
#1169 = DIRECTION ( 'NONE',  ( -0.000000000000000000, -0.000000000000000000, -1.000000000000000000 ) ) ;
#1170 = DIRECTION ( 'NONE',  ( 0.000000000000000000, 0.000000000000000000, -1.000000000000000000 ) ) ;
#1171 = ORIENTED_EDGE ( 'NONE', *, *, #309, .F. ) ;
#1172 = CARTESIAN_POINT ( 'NONE',  ( 75.00000000000000000, -8.500000000000000000, 12.99999999999999645 ) ) ;
#1173 = SURFACE_STYLE_USAGE ( .BOTH. , #895 ) ;
#1174 = FACE_BOUND ( 'NONE', #1340, .T. ) ;
#1175 = CYLINDRICAL_SURFACE ( 'NONE', #543, 1.799999999999994271 ) ;
#1176 = VERTEX_POINT ( 'NONE', #308 ) ;
#1177 = DIRECTION ( 'NONE',  ( -0.000000000000000000, -0.000000000000000000, 1.000000000000000000 ) ) ;
#1178 = VECTOR ( 'NONE', #957, 1000.000000000000000 ) ;
#1179 = APPLICATION_CONTEXT ( 'automotive_design' ) ;
#1180 = AXIS2_PLACEMENT_3D ( 'NONE', #670, #1117, #1131 ) ;
#1181 = CIRCLE ( 'NONE', #823, 1.799999999999992495 ) ;
#1182 = DIRECTION ( 'NONE',  ( 1.000000000000000000, 0.000000000000000000, 0.000000000000000000 ) ) ;
#1183 = EDGE_CURVE ( 'NONE', #274, #1176, #1181, .T. ) ;
#1184 = DIRECTION ( 'NONE',  ( -0.000000000000000000, -0.000000000000000000, -1.000000000000000000 ) ) ;
#1185 = ORIENTED_EDGE ( 'NONE', *, *, #1348, .F. ) ;
#1186 = CARTESIAN_POINT ( 'NONE',  ( 0.000000000000000000, 13.00000000000000000, 13.00000000000000000 ) ) ;
#1187 = ORIENTED_EDGE ( 'NONE', *, *, #143, .F. ) ;
#1188 = DIRECTION ( 'NONE',  ( -0.000000000000000000, -0.000000000000000000, -1.000000000000000000 ) ) ;
#1189 = PLANE ( 'NONE',  #452 ) ;
#1190 = CARTESIAN_POINT ( 'NONE',  ( 23.20000000000000639, 10.00000000000000355, 15.00000000000000178 ) ) ;
#1191 = ORIENTED_EDGE ( 'NONE', *, *, #282, .T. ) ;
#1192 = EDGE_CURVE ( 'NONE', #774, #441, #93, .T. ) ;
#1193 = LINE ( 'NONE', #1186, #843 ) ;
#1194 = EDGE_LOOP ( 'NONE', ( #1350, #367, #331, #831 ) ) ;
#1195 = DIRECTION ( 'NONE',  ( -0.000000000000000000, -0.000000000000000000, 1.000000000000000000 ) ) ;
#1196 = VERTEX_POINT ( 'NONE', #255 ) ;
#1197 = CARTESIAN_POINT ( 'NONE',  ( 26.79999999999999716, -10.00000000000000000, 15.00000000000000178 ) ) ;
#1198 = ADVANCED_FACE ( 'NONE', ( #1308, #985 ), #765, .T. ) ;
#1199 = AXIS2_PLACEMENT_3D ( 'NONE', #1, #7, #1003 ) ;
#1200 = ORIENTED_EDGE ( 'NONE', *, *, #937, .T. ) ;
#1201 = AXIS2_PLACEMENT_3D ( 'NONE', #1172, #442, #1166 ) ;
#1202 = CARTESIAN_POINT ( 'NONE',  ( 25.00000000000000000, -10.00000000000000000, 15.00000000000000178 ) ) ;
#1203 = DIRECTION ( 'NONE',  ( 0.000000000000000000, 1.000000000000000000, 1.334402673828313339E-16 ) ) ;
#1204 = ORIENTED_EDGE ( 'NONE', *, *, #967, .T. ) ;
#1205 = ORIENTED_EDGE ( 'NONE', *, *, #775, .F. ) ;
#1206 = ADVANCED_FACE ( 'NONE', ( #1329, #355, #567, #668, #691, #1014, #10, #1122 ), #226, .F. ) ;
#1207 = DIRECTION ( 'NONE',  ( 0.000000000000000000, 0.000000000000000000, 1.000000000000000000 ) ) ;
#1208 = VERTEX_POINT ( 'NONE', #1322 ) ;
#1209 = CARTESIAN_POINT ( 'NONE',  ( 0.000000000000000000, 15.00000000000000000, 15.00000000000000178 ) ) ;
#1210 = ORIENTED_EDGE ( 'NONE', *, *, #902, .T. ) ;
#1211 = CARTESIAN_POINT ( 'NONE',  ( 90.00000000000000000, -13.00000000000000000, 12.99999999999999645 ) ) ;
#1212 = ORIENTED_EDGE ( 'NONE', *, *, #474, .F. ) ;
#1213 = EDGE_CURVE ( 'NONE', #49, #685, #1094, .T. ) ;
#1214 = FACE_BOUND ( 'NONE', #1101, .T. ) ;
#1215 = DIRECTION ( 'NONE',  ( 0.000000000000000000, 1.334402673828313339E-16, -1.000000000000000000 ) ) ;
#1216 = ORIENTED_EDGE ( 'NONE', *, *, #98, .F. ) ;
#1217 = DIRECTION ( 'NONE',  ( 1.000000000000000000, 0.000000000000000000, 0.000000000000000000 ) ) ;
#1218 = AXIS2_PLACEMENT_3D ( 'NONE', #590, #1150, #478 ) ;
#1219 = ORIENTED_EDGE ( 'NONE', *, *, #832, .T. ) ;
#1220 = AXIS2_PLACEMENT_3D ( 'NONE', #739, #946, #1282 ) ;
#1221 = CIRCLE ( 'NONE', #411, 1.799999999999994271 ) ;
#1222 = CARTESIAN_POINT ( 'NONE',  ( 6.799999999999998934, -10.00000000000000178, 15.00000000000000178 ) ) ;
#1223 = EDGE_CURVE ( 'NONE', #287, #785, #977, .T. ) ;
#1224 = VECTOR ( 'NONE', #1177, 1000.000000000000000 ) ;
#1225 = CARTESIAN_POINT ( 'NONE',  ( 90.00000000000000000, 13.00000000000000178, -13.00000000000000000 ) ) ;
#1226 = ADVANCED_FACE ( 'NONE', ( #15 ), #446, .T. ) ;
#1227 = EDGE_LOOP ( 'NONE', ( #893, #344, #934, #805 ) ) ;
#1228 = CARTESIAN_POINT ( 'NONE',  ( 25.00000000000000000, 10.00000000000000355, 15.00000000000000178 ) ) ;
#1229 = LINE ( 'NONE', #913, #706 ) ;
#1230 = DIRECTION ( 'NONE',  ( -0.000000000000000000, -0.000000000000000000, 1.000000000000000000 ) ) ;
#1231 = DIRECTION ( 'NONE',  ( 0.000000000000000000, 1.334402673828313339E-16, -1.000000000000000000 ) ) ;
#1232 = VERTEX_POINT ( 'NONE', #1197 ) ;
#1233 = DIRECTION ( 'NONE',  ( 1.000000000000000000, 0.000000000000000000, 0.000000000000000000 ) ) ;
#1234 = ORIENTED_EDGE ( 'NONE', *, *, #1161, .F. ) ;
#1235 = CARTESIAN_POINT ( 'NONE',  ( 25.00000000000000000, -10.00000000000000000, 15.00000000000000178 ) ) ;
#1236 = DIRECTION ( 'NONE',  ( 0.000000000000000000, -1.000000000000000000, -1.365923996832131116E-16 ) ) ;
#1237 = DIRECTION ( 'NONE',  ( -0.000000000000000000, -0.000000000000000000, 1.000000000000000000 ) ) ;
#1238 = ORIENTED_EDGE ( 'NONE', *, *, #973, .T. ) ;
#1239 = DIRECTION ( 'NONE',  ( 0.000000000000000000, 1.334402673828313339E-16, -1.000000000000000000 ) ) ;
#1240 = EDGE_CURVE ( 'NONE', #421, #1055, #37, .T. ) ;
#1241 = ORIENTED_EDGE ( 'NONE', *, *, #1114, .F. ) ;
#1242 = CLOSED_SHELL ( 'NONE', ( #649, #24, #576, #989, #752, #663, #14, #792, #1395, #860, #853, #894, #1260, #1051, #1198, #626, #71, #405, #416, #1206, #429, #332, #1226, #243, #597, #212, #632, #945, #1251, #1295, #1377, #1359, #783, #556, #325, #423, #473, #1273, #189 ) ) ;
#1243 = CARTESIAN_POINT ( 'NONE',  ( 90.00000000000000000, 13.00000000000000178, -13.00000000000000000 ) ) ;
#1244 = VECTOR ( 'NONE', #1016, 1000.000000000000000 ) ;
#1245 = FACE_OUTER_BOUND ( 'NONE', #465, .T. ) ;
#1246 = CARTESIAN_POINT ( 'NONE',  ( 59.00000000000003553, 0.000000000000000000, 0.000000000000000000 ) ) ;
#1247 = AXIS2_PLACEMENT_3D ( 'NONE', #167, #269, #705 ) ;
#1248 = ORIENTED_EDGE ( 'NONE', *, *, #152, .T. ) ;
#1249 = DIRECTION ( 'NONE',  ( -1.000000000000000000, -0.000000000000000000, -0.000000000000000000 ) ) ;
#1250 = ORIENTED_EDGE ( 'NONE', *, *, #607, .T. ) ;
#1251 = ADVANCED_FACE ( 'NONE', ( #773 ), #141, .F. ) ;
#1252 = FACE_BOUND ( 'NONE', #1325, .T. ) ;
#1253 = DIRECTION ( 'NONE',  ( 0.000000000000000000, -1.000000000000000000, 0.000000000000000000 ) ) ;
#1254 = DIRECTION ( 'NONE',  ( 0.000000000000000000, 1.334402673828313339E-16, -1.000000000000000000 ) ) ;
#1255 = CARTESIAN_POINT ( 'NONE',  ( 59.00000000000003553, 13.00000000000000178, -5.999999999999999112 ) ) ;
#1256 = EDGE_LOOP ( 'NONE', ( #445, #999, #256, #1210 ) ) ;
#1257 = DIRECTION ( 'NONE',  ( -0.000000000000000000, -0.000000000000000000, 1.000000000000000000 ) ) ;
#1258 = ORIENTED_EDGE ( 'NONE', *, *, #613, .F. ) ;
#1259 = DIRECTION ( 'NONE',  ( -0.000000000000000000, -0.000000000000000000, -1.000000000000000000 ) ) ;
#1260 = ADVANCED_FACE ( 'NONE', ( #907 ), #131, .F. ) ;
#1261 = DIRECTION ( 'NONE',  ( -0.000000000000000000, -0.000000000000000000, 1.000000000000000000 ) ) ;
#1262 = CARTESIAN_POINT ( 'NONE',  ( 3.200000000000006839, 9.999999999999998224, 15.00000000000000178 ) ) ;
#1263 = CARTESIAN_POINT ( 'NONE',  ( 75.00000000000000000, -8.500000000000000000, -2.000000000000027978 ) ) ;
#1264 = ORIENTED_EDGE ( 'NONE', *, *, #528, .F. ) ;
#1265 = CARTESIAN_POINT ( 'NONE',  ( 90.00000000000000000, -13.00000000000000000, -6.000000000000002665 ) ) ;
#1266 = VECTOR ( 'NONE', #690, 1000.000000000000000 ) ;
#1267 = AXIS2_PLACEMENT_3D ( 'NONE', #154, #475, #1143 ) ;
#1268 = DIRECTION ( 'NONE',  ( 0.000000000000000000, -1.000000000000000000, 0.000000000000000000 ) ) ;
#1269 = EDGE_CURVE ( 'NONE', #602, #547, #339, .T. ) ;
#1270 = VECTOR ( 'NONE', #700, 1000.000000000000000 ) ;
#1271 = ORIENTED_EDGE ( 'NONE', *, *, #1168, .F. ) ;
#1272 = VECTOR ( 'NONE', #292, 1000.000000000000000 ) ;
#1273 = ADVANCED_FACE ( 'NONE', ( #362 ), #238, .F. ) ;
#1274 = DIRECTION ( 'NONE',  ( 0.000000000000000000, 1.334402673828313339E-16, -1.000000000000000000 ) ) ;
#1275 = CARTESIAN_POINT ( 'NONE',  ( 5.000000000000002665, -10.00000000000000178, 15.00000000000000178 ) ) ;
#1276 = FACE_OUTER_BOUND ( 'NONE', #17, .T. ) ;
#1277 = CARTESIAN_POINT ( 'NONE',  ( 0.000000000000000000, 13.00000000000000000, 13.00000000000000000 ) ) ;
#1278 = ORIENTED_EDGE ( 'NONE', *, *, #918, .T. ) ;
#1279 = CARTESIAN_POINT ( 'NONE',  ( 5.000000000000002665, 9.999999999999998224, -14.99999999999999822 ) ) ;
#1280 = EDGE_CURVE ( 'NONE', #115, #761, #864, .T. ) ;
#1281 = CARTESIAN_POINT ( 'NONE',  ( 90.00000000000000000, 15.00000000000000000, -14.99999999999999822 ) ) ;
#1282 = DIRECTION ( 'NONE',  ( 1.000000000000000000, 0.000000000000000000, 0.000000000000000000 ) ) ;
#1283 = ORIENTED_EDGE ( 'NONE', *, *, #98, .T. ) ;
#1284 = CARTESIAN_POINT ( 'NONE',  ( 5.000000000000002665, -10.00000000000000178, 12.99999999999999645 ) ) ;
#1285 = EDGE_CURVE ( 'NONE', #375, #1289, #1387, .T. ) ;
#1286 = LINE ( 'NONE', #190, #657 ) ;
#1287 = CARTESIAN_POINT ( 'NONE',  ( 90.00000000000000000, 13.00000000000000000, 13.00000000000000000 ) ) ;
#1288 = AXIS2_PLACEMENT_3D ( 'NONE', #1128, #277, #713 ) ;
#1289 = VERTEX_POINT ( 'NONE', #245 ) ;
#1290 = CARTESIAN_POINT ( 'NONE',  ( 59.00000000000003553, -13.00000000000000000, -6.000000000000002665 ) ) ;
#1291 = AXIS2_PLACEMENT_3D ( 'NONE', #1071, #290, #298 ) ;
#1292 = CIRCLE ( 'NONE', #525, 1.699999999999993072 ) ;
#1293 = AXIS2_PLACEMENT_3D ( 'NONE', #601, #1231, #1032 ) ;
#1294 = CARTESIAN_POINT ( 'NONE',  ( 73.29999999999999716, -8.500000000000000000, 12.99999999999999645 ) ) ;
#1295 = ADVANCED_FACE ( 'NONE', ( #890 ), #333, .F. ) ;
#1296 = FACE_OUTER_BOUND ( 'NONE', #1256, .T. ) ;
#1297 = EDGE_LOOP ( 'NONE', ( #402, #1118, #885, #1028 ) ) ;
#1298 = DIRECTION ( 'NONE',  ( -0.000000000000000000, -0.000000000000000000, 1.000000000000000000 ) ) ;
#1299 = CARTESIAN_POINT ( 'NONE',  ( 25.00000000000000000, 10.00000000000000355, 13.00000000000000000 ) ) ;
#1300 = ORIENTED_EDGE ( 'NONE', *, *, #1018, .T. ) ;
#1301 = FACE_BOUND ( 'NONE', #656, .T. ) ;
#1302 = EDGE_CURVE ( 'NONE', #574, #778, #321, .T. ) ;
#1303 = VERTEX_POINT ( 'NONE', #835 ) ;
#1304 = CARTESIAN_POINT ( 'NONE',  ( 5.000000000000002665, -10.00000000000000178, -14.99999999999999822 ) ) ;
#1305 = EDGE_LOOP ( 'NONE', ( #1120, #737 ) ) ;
#1306 = CARTESIAN_POINT ( 'NONE',  ( 73.29999999999999716, 8.500000000000000000, 15.00000000000000178 ) ) ;
#1307 = ORIENTED_EDGE ( 'NONE', *, *, #116, .T. ) ;
#1308 = FACE_BOUND ( 'NONE', #604, .T. ) ;
#1309 = AXIS2_PLACEMENT_3D ( 'NONE', #345, #863, #658 ) ;
#1310 = ORIENTED_EDGE ( 'NONE', *, *, #960, .F. ) ;
#1311 = EDGE_CURVE ( 'NONE', #553, #407, #21, .T. ) ;
#1312 = CIRCLE ( 'NONE', #337, 12.70000000000000284 ) ;
#1313 = ORIENTED_EDGE ( 'NONE', *, *, #607, .F. ) ;
#1314 = AXIS2_PLACEMENT_3D ( 'NONE', #583, #779, #455 ) ;
#1315 = DIRECTION ( 'NONE',  ( 0.000000000000000000, -1.334402673828313339E-16, 1.000000000000000000 ) ) ;
#1316 = ORIENTED_EDGE ( 'NONE', *, *, #1168, .T. ) ;
#1317 = CARTESIAN_POINT ( 'NONE',  ( 90.00000000000000000, -13.00000000000000000, 12.99999999999999645 ) ) ;
#1318 = VERTEX_POINT ( 'NONE', #1145 ) ;
#1319 = DIRECTION ( 'NONE',  ( -0.000000000000000000, -0.000000000000000000, 1.000000000000000000 ) ) ;
#1320 = ORIENTED_EDGE ( 'NONE', *, *, #1142, .T. ) ;
#1321 = CARTESIAN_POINT ( 'NONE',  ( 25.00000000000000000, -10.00000000000000000, 15.00000000000000178 ) ) ;
#1322 = CARTESIAN_POINT ( 'NONE',  ( 59.00000000000004263, -13.00000000000000000, -6.000000000000002665 ) ) ;
#1323 = ORIENTED_EDGE ( 'NONE', *, *, #1280, .F. ) ;
#1324 = CARTESIAN_POINT ( 'NONE',  ( 25.00000000000000000, 10.00000000000000355, 15.00000000000000178 ) ) ;
#1325 = EDGE_LOOP ( 'NONE', ( #457, #1160 ) ) ;
#1326 = EDGE_CURVE ( 'NONE', #428, #1303, #392, .T. ) ;
#1327 = CARTESIAN_POINT ( 'NONE',  ( 75.00000000000000000, 0.000000000000000000, -14.99999999999999822 ) ) ;
#1328 = ORIENTED_EDGE ( 'NONE', *, *, #220, .F. ) ;
#1329 = FACE_BOUND ( 'NONE', #150, .T. ) ;
#1330 = ORIENTED_EDGE ( 'NONE', *, *, #504, .F. ) ;
#1331 = DIRECTION ( 'NONE',  ( -0.000000000000000000, -0.000000000000000000, 1.000000000000000000 ) ) ;
#1332 = VECTOR ( 'NONE', #57, 1000.000000000000000 ) ;
#1333 = VECTOR ( 'NONE', #1169, 1000.000000000000000 ) ;
#1334 = ORIENTED_EDGE ( 'NONE', *, *, #1285, .F. ) ;
#1335 = AXIS2_PLACEMENT_3D ( 'NONE', #1275, #305, #833 ) ;
#1336 = EDGE_LOOP ( 'NONE', ( #159, #839, #237, #1250 ) ) ;
#1337 = VECTOR ( 'NONE', #534, 1000.000000000000000 ) ;
#1338 = DIRECTION ( 'NONE',  ( 0.000000000000000000, 0.000000000000000000, -1.000000000000000000 ) ) ;
#1339 = EDGE_CURVE ( 'NONE', #97, #909, #570, .T. ) ;
#1340 = EDGE_LOOP ( 'NONE', ( #1033, #1116, #701, #217 ) ) ;
#1341 = AXIS2_PLACEMENT_3D ( 'NONE', #1129, #647, #964 ) ;
#1342 = LINE ( 'NONE', #155, #1266 ) ;
#1343 = ORIENTED_EDGE ( 'NONE', *, *, #254, .T. ) ;
#1344 = CARTESIAN_POINT ( 'NONE',  ( 23.20000000000000639, 10.00000000000000355, -13.00000000000000000 ) ) ;
#1345 = VERTEX_POINT ( 'NONE', #1366 ) ;
#1346 = DIRECTION ( 'NONE',  ( 0.000000000000000000, 0.000000000000000000, -1.000000000000000000 ) ) ;
#1347 = CARTESIAN_POINT ( 'NONE',  ( 23.20000000000000639, 10.00000000000000355, 15.00000000000000178 ) ) ;
#1348 = EDGE_CURVE ( 'NONE', #1055, #31, #395, .T. ) ;
#1349 = DIRECTION ( 'NONE',  ( 0.000000000000000000, -1.000000000000000000, 0.000000000000000000 ) ) ;
#1350 = ORIENTED_EDGE ( 'NONE', *, *, #1030, .F. ) ;
#1351 = CYLINDRICAL_SURFACE ( 'NONE', #299, 1.799999999999996048 ) ;
#1352 = EDGE_LOOP ( 'NONE', ( #1205, #1389 ) ) ;
#1353 = LINE ( 'NONE', #146, #819 ) ;
#1354 = FACE_OUTER_BOUND ( 'NONE', #463, .T. ) ;
#1355 = DIRECTION ( 'NONE',  ( 0.000000000000000000, 0.000000000000000000, 1.000000000000000000 ) ) ;
#1356 = DIRECTION ( 'NONE',  ( 0.000000000000000000, 0.000000000000000000, 1.000000000000000000 ) ) ;
#1357 = EDGE_LOOP ( 'NONE', ( #866, #745, #258, #334 ) ) ;
#1358 = CARTESIAN_POINT ( 'NONE',  ( 90.00000000000000000, -13.00000000000000000, -13.00000000000000355 ) ) ;
#1359 = ADVANCED_FACE ( 'NONE', ( #622 ), #1137, .F. ) ;
#1360 = EDGE_LOOP ( 'NONE', ( #349, #1400, #121, #608 ) ) ;
#1361 = VECTOR ( 'NONE', #166, 1000.000000000000000 ) ;
#1362 = CARTESIAN_POINT ( 'NONE',  ( 62.29999999999999716, 0.000000000000000000, 8.000000000000037303 ) ) ;
#1363 = MECHANICAL_DESIGN_GEOMETRIC_PRESENTATION_REPRESENTATION (  '', ( #88 ), #389 ) ;
#1364 = DIRECTION ( 'NONE',  ( 0.000000000000000000, -1.334402673828313339E-16, 1.000000000000000000 ) ) ;
#1365 = LINE ( 'NONE', #260, #296 ) ;
#1366 = CARTESIAN_POINT ( 'NONE',  ( 26.79999999999999361, 10.00000000000000355, -14.99999999999999822 ) ) ;
#1367 = AXIS2_PLACEMENT_3D ( 'NONE', #1054, #384, #714 ) ;
#1368 = ORIENTED_EDGE ( 'NONE', *, *, #220, .T. ) ;
#1369 = DIRECTION ( 'NONE',  ( -0.000000000000000000, -0.000000000000000000, 1.000000000000000000 ) ) ;
#1370 = ORIENTED_EDGE ( 'NONE', *, *, #53, .T. ) ;
#1371 = EDGE_CURVE ( 'NONE', #715, #262, #751, .T. ) ;
#1372 = CARTESIAN_POINT ( 'NONE',  ( 0.000000000000000000, -15.00000000000000178, 15.00000000000000178 ) ) ;
#1373 = CYLINDRICAL_SURFACE ( 'NONE', #1218, 12.70000000000000284 ) ;
#1374 = DIRECTION ( 'NONE',  ( 1.000000000000000000, 0.000000000000000000, 0.000000000000000000 ) ) ;
#1375 = ORIENTED_EDGE ( 'NONE', *, *, #654, .T. ) ;
#1376 = CARTESIAN_POINT ( 'NONE',  ( 90.00000000000000000, 13.00000000000000178, -5.999999999999999112 ) ) ;
#1377 = ADVANCED_FACE ( 'NONE', ( #495 ), #924, .T. ) ;
#1378 = FACE_OUTER_BOUND ( 'NONE', #481, .T. ) ;
#1379 = EDGE_CURVE ( 'NONE', #250, #1208, #828, .T. ) ;
#1380 = CARTESIAN_POINT ( 'NONE',  ( 25.00000000000000000, -10.00000000000000000, -13.00000000000000355 ) ) ;
#1381 = ORIENTED_EDGE ( 'NONE', *, *, #884, .T. ) ;
#1382 = DIRECTION ( 'NONE',  ( 0.000000000000000000, -1.334402673828313339E-16, 1.000000000000000000 ) ) ;
#1383 = VECTOR ( 'NONE', #291, 1000.000000000000000 ) ;
#1384 = CARTESIAN_POINT ( 'NONE',  ( 5.000000000000002665, 9.999999999999998224, 15.00000000000000178 ) ) ;
#1385 = AXIS2_PLACEMENT_3D ( 'NONE', #374, #578, #1233 ) ;
#1386 = ORIENTED_EDGE ( 'NONE', *, *, #960, .T. ) ;
#1387 = CIRCLE ( 'NONE', #881, 1.799999999999992495 ) ;
#1388 = LINE ( 'NONE', #94, #1224 ) ;
#1389 = ORIENTED_EDGE ( 'NONE', *, *, #113, .F. ) ;
#1390 = CARTESIAN_POINT ( 'NONE',  ( 76.69999999999998863, -8.500000000000000000, -2.000000000000027978 ) ) ;
#1391 = DIRECTION ( 'NONE',  ( -0.000000000000000000, -0.000000000000000000, 1.000000000000000000 ) ) ;
#1392 = LINE ( 'NONE', #1277, #1383 ) ;
#1393 = SHAPE_DEFINITION_REPRESENTATION ( #536, #267 ) ;
#1394 = ORIENTED_EDGE ( 'NONE', *, *, #918, .F. ) ;
#1395 = ADVANCED_FACE ( 'NONE', ( #76 ), #286, .F. ) ;
#1396 = FACE_BOUND ( 'NONE', #225, .T. ) ;
#1397 = FACE_OUTER_BOUND ( 'NONE', #772, .T. ) ;
#1398 = CARTESIAN_POINT ( 'NONE',  ( 75.00000000000000000, 8.500000000000000000, 15.00000000000000178 ) ) ;
#1399 = DIRECTION ( 'NONE',  ( 0.000000000000000000, 1.334402673828313339E-16, -1.000000000000000000 ) ) ;
#1400 = ORIENTED_EDGE ( 'NONE', *, *, #1018, .F. ) ;
#1401 = DIRECTION ( 'NONE',  ( 1.000000000000000000, 0.000000000000000000, 0.000000000000000000 ) ) ;
#1402 = EDGE_CURVE ( 'NONE', #970, #173, #162, .T. ) ;
#1403 = DIRECTION ( 'NONE',  ( 0.000000000000000000, 0.000000000000000000, -1.000000000000000000 ) ) ;
#1404 = DIRECTION ( 'NONE',  ( 1.000000000000000000, 0.000000000000000000, 0.000000000000000000 ) ) ;
#1405 = CIRCLE ( 'NONE', #816, 1.799999999999992495 ) ;
#1406 = ORIENTED_EDGE ( 'NONE', *, *, #764, .F. ) ;
#1407 = LINE ( 'NONE', #1290, #1410 ) ;
#1408 = COLOUR_RGB ( '',0.7921568627450980005, 0.8196078431372548767, 0.9333333333333333481 ) ;
#1409 = AXIS2_PLACEMENT_3D ( 'NONE', #1228, #248, #1107 ) ;
#1410 = VECTOR ( 'NONE', #3, 1000.000000000000000 ) ;
#1411 = EDGE_CURVE ( 'NONE', #811, #661, #910, .T. ) ;
ENDSEC;
END-ISO-10303-21;
