ISO-10303-21;
HEADER;
FILE_DESCRIPTION (( 'STEP AP214' ),
    '1' );
FILE_NAME ('leg_lower_1_mirrored.STEP',
    '2026-04-10T04:38:43',
    ( '' ),
    ( '' ),
    'SwSTEP 2.0',
    'SolidWorks 2025',
    '' );
FILE_SCHEMA (( 'AUTOMOTIVE_DESIGN' ));
ENDSEC;

DATA;
#1 = EDGE_LOOP ( 'NONE', ( #31, #817, #953, #674 ) ) ;
#2 = ORIENTED_EDGE ( 'NONE', *, *, #296, .F. ) ;
#3 = AXIS2_PLACEMENT_3D ( 'NONE', #1203, #672, #85 ) ;
#4 = CARTESIAN_POINT ( 'NONE',  ( 59.00000000000003553, 13.00000000000000000, 5.999999999999999112 ) ) ;
#5 = AXIS2_PLACEMENT_3D ( 'NONE', #680, #1174, #267 ) ;
#6 = DIRECTION ( 'NONE',  ( 1.000000000000000000, 0.000000000000000000, 0.000000000000000000 ) ) ;
#7 = CARTESIAN_POINT ( 'NONE',  ( 90.00000000000000000, -13.00000000000000000, 12.99999999999999645 ) ) ;
#8 = VERTEX_POINT ( 'NONE', #1252 ) ;
#9 = ADVANCED_FACE ( 'NONE', ( #1151 ), #258, .F. ) ;
#10 = VECTOR ( 'NONE', #411, 1000.000000000000000 ) ;
#11 = DIRECTION ( 'NONE',  ( 0.000000000000000000, -1.334402673828313339E-16, 1.000000000000000000 ) ) ;
#12 = AXIS2_PLACEMENT_3D ( 'NONE', #707, #390, #291 ) ;
#13 = LINE ( 'NONE', #831, #10 ) ;
#14 = AXIS2_PLACEMENT_3D ( 'NONE', #762, #972, #769 ) ;
#15 = DIRECTION ( 'NONE',  ( 1.000000000000000000, 0.000000000000000000, 0.000000000000000000 ) ) ;
#16 = ORIENTED_EDGE ( 'NONE', *, *, #1105, .F. ) ;
#17 = DIRECTION ( 'NONE',  ( 1.000000000000000000, 0.000000000000000000, 0.000000000000000000 ) ) ;
#18 = CARTESIAN_POINT ( 'NONE',  ( 20.36467529817242905, -15.00000000000000000, 15.00000000000000178 ) ) ;
#19 = EDGE_CURVE ( 'NONE', #1131, #1147, #978, .T. ) ;
#20 = AXIS2_PLACEMENT_3D ( 'NONE', #652, #148, #764 ) ;
#21 = CARTESIAN_POINT ( 'NONE',  ( 78.60000000000000853, 0.000000000000000000, 15.00000000000000178 ) ) ;
#22 = VERTEX_POINT ( 'NONE', #1258 ) ;
#23 = DIRECTION ( 'NONE',  ( 0.000000000000000000, -1.000000000000000000, -1.334402673828313339E-16 ) ) ;
#24 = CARTESIAN_POINT ( 'NONE',  ( 90.00000000000000000, 13.00000000000000178, -13.00000000000000000 ) ) ;
#25 = EDGE_CURVE ( 'NONE', #649, #1266, #1315, .T. ) ;
#26 = VERTEX_POINT ( 'NONE', #657 ) ;
#27 = FACE_OUTER_BOUND ( 'NONE', #706, .T. ) ;
#28 = EDGE_LOOP ( 'NONE', ( #923, #561, #138, #1010 ) ) ;
#29 = FACE_OUTER_BOUND ( 'NONE', #1175, .T. ) ;
#30 = EDGE_CURVE ( 'NONE', #686, #349, #223, .T. ) ;
#31 = ORIENTED_EDGE ( 'NONE', *, *, #110, .T. ) ;
#32 = VECTOR ( 'NONE', #468, 1000.000000000000000 ) ;
#33 = EDGE_LOOP ( 'NONE', ( #630, #936 ) ) ;
#34 = DIRECTION ( 'NONE',  ( 0.000000000000000000, -1.334402673828313339E-16, 1.000000000000000000 ) ) ;
#35 = DIRECTION ( 'NONE',  ( 1.000000000000000000, 0.000000000000000000, 0.000000000000000000 ) ) ;
#36 = VERTEX_POINT ( 'NONE', #235 ) ;
#37 = EDGE_CURVE ( 'NONE', #342, #1023, #431, .T. ) ;
#38 = CIRCLE ( 'NONE', #917, 3.600000000000005862 ) ;
#39 = VERTEX_POINT ( 'NONE', #633 ) ;
#40 = CARTESIAN_POINT ( 'NONE',  ( 75.00000000000000000, 0.000000000000000000, -14.99999999999999822 ) ) ;
#41 = VERTEX_POINT ( 'NONE', #146 ) ;
#42 = CARTESIAN_POINT ( 'NONE',  ( 3.300000000000011369, 9.999999999999998224, 13.00000000000000000 ) ) ;
#43 = AXIS2_PLACEMENT_3D ( 'NONE', #1177, #766, #255 ) ;
#44 = CARTESIAN_POINT ( 'NONE',  ( 6.699999999999990408, 9.999999999999998224, 15.00000000000000355 ) ) ;
#45 = CIRCLE ( 'NONE', #853, 1.699999999999991518 ) ;
#46 = VERTEX_POINT ( 'NONE', #641 ) ;
#47 = EDGE_CURVE ( 'NONE', #1223, #158, #626, .T. ) ;
#48 = ORIENTED_EDGE ( 'NONE', *, *, #214, .F. ) ;
#49 = CARTESIAN_POINT ( 'NONE',  ( 23.30000000000001137, -10.00000000000000000, 15.00000000000000178 ) ) ;
#50 = CARTESIAN_POINT ( 'NONE',  ( 90.00000000000000000, 15.00000000000000000, 15.00000000000000178 ) ) ;
#51 = ORIENTED_EDGE ( 'NONE', *, *, #983, .T. ) ;
#52 = PLANE ( 'NONE',  #695 ) ;
#53 = AXIS2_PLACEMENT_3D ( 'NONE', #896, #1211, #1004 ) ;
#54 = DIRECTION ( 'NONE',  ( -0.000000000000000000, -1.000000000000000000, -0.000000000000000000 ) ) ;
#55 = AXIS2_PLACEMENT_3D ( 'NONE', #188, #1316, #203 ) ;
#56 = ORIENTED_EDGE ( 'NONE', *, *, #126, .T. ) ;
#57 = ORIENTED_EDGE ( 'NONE', *, *, #114, .F. ) ;
#58 = DIRECTION ( 'NONE',  ( 0.000000000000000000, 1.000000000000000000, 0.000000000000000000 ) ) ;
#59 = CARTESIAN_POINT ( 'NONE',  ( 73.29999999999999716, 8.500000000000000000, 13.00000000000000000 ) ) ;
#60 = ORIENTED_EDGE ( 'NONE', *, *, #1123, .F. ) ;
#61 = CARTESIAN_POINT ( 'NONE',  ( 25.00000000000000000, -10.00000000000000000, 15.00000000000000178 ) ) ;
#62 = CARTESIAN_POINT ( 'NONE',  ( 18.36467529817244326, -13.00000000000000000, 12.99999999999999645 ) ) ;
#63 = VECTOR ( 'NONE', #582, 1000.000000000000000 ) ;
#64 = ORIENTED_EDGE ( 'NONE', *, *, #122, .F. ) ;
#65 = CARTESIAN_POINT ( 'NONE',  ( 41.18233764908578820, -35.81766235091361494, 12.99999999999999289 ) ) ;
#66 = DIRECTION ( 'NONE',  ( -0.000000000000000000, -0.000000000000000000, 1.000000000000000000 ) ) ;
#67 = ORIENTED_EDGE ( 'NONE', *, *, #609, .F. ) ;
#68 = FACE_OUTER_BOUND ( 'NONE', #553, .T. ) ;
#69 = CARTESIAN_POINT ( 'NONE',  ( 0.000000000000000000, 13.00000000000000000, 13.00000000000000000 ) ) ;
#70 = CIRCLE ( 'NONE', #506, 1.699999999999991518 ) ;
#71 = ORIENTED_EDGE ( 'NONE', *, *, #964, .F. ) ;
#72 = DIRECTION ( 'NONE',  ( -0.000000000000000000, -0.000000000000000000, 1.000000000000000000 ) ) ;
#73 = CARTESIAN_POINT ( 'NONE',  ( 90.00000000000000000, -13.00000000000000000, 5.999999999999995559 ) ) ;
#74 = CYLINDRICAL_SURFACE ( 'NONE', #585, 1.699999999999989742 ) ;
#75 = CARTESIAN_POINT ( 'NONE',  ( 87.70000000000000284, 1.555301434917139221E-15, -13.00000000000000000 ) ) ;
#76 = ADVANCED_FACE ( 'NONE', ( #455 ), #1166, .F. ) ;
#77 = ADVANCED_FACE ( 'NONE', ( #531 ), #1180, .F. ) ;
#78 = EDGE_LOOP ( 'NONE', ( #816, #268, #99, #713 ) ) ;
#79 = CARTESIAN_POINT ( 'NONE',  ( 90.00000000000000000, 15.00000000000000000, -14.99999999999999822 ) ) ;
#80 = VECTOR ( 'NONE', #467, 1000.000000000000000 ) ;
#81 = CARTESIAN_POINT ( 'NONE',  ( 76.69999999999998863, 8.500000000000000000, -2.000000000000027978 ) ) ;
#82 = DIRECTION ( 'NONE',  ( -0.000000000000000000, -0.000000000000000000, 1.000000000000000000 ) ) ;
#83 = DIRECTION ( 'NONE',  ( 0.000000000000000000, 1.000000000000000000, 0.000000000000000000 ) ) ;
#84 = ORIENTED_EDGE ( 'NONE', *, *, #469, .F. ) ;
#85 = DIRECTION ( 'NONE',  ( 0.000000000000000000, 0.000000000000000000, 1.000000000000000000 ) ) ;
#86 = LINE ( 'NONE', #81, #1098 ) ;
#87 = LINE ( 'NONE', #391, #224 ) ;
#88 = DIRECTION ( 'NONE',  ( -1.000000000000000000, -0.000000000000000000, -0.000000000000000000 ) ) ;
#89 = ORIENTED_EDGE ( 'NONE', *, *, #654, .F. ) ;
#90 = CARTESIAN_POINT ( 'NONE',  ( 23.30000000000001492, -10.00000000000000000, 15.00000000000000355 ) ) ;
#91 = DIRECTION ( 'NONE',  ( -1.000000000000000000, -0.000000000000000000, -0.000000000000000000 ) ) ;
#92 = VERTEX_POINT ( 'NONE', #1173 ) ;
#93 = ORIENTED_EDGE ( 'NONE', *, *, #554, .F. ) ;
#94 = DIRECTION ( 'NONE',  ( 1.000000000000000000, 0.000000000000000000, 0.000000000000000000 ) ) ;
#95 = DIRECTION ( 'NONE',  ( -0.000000000000000000, -0.000000000000000000, 1.000000000000000000 ) ) ;
#96 = VECTOR ( 'NONE', #319, 1000.000000000000000 ) ;
#97 = EDGE_CURVE ( 'NONE', #507, #649, #1053, .T. ) ;
#98 = CARTESIAN_POINT ( 'NONE',  ( 23.30000000000000782, 10.00000000000000355, -14.99999999999999822 ) ) ;
#99 = ORIENTED_EDGE ( 'NONE', *, *, #634, .T. ) ;
#100 = VERTEX_POINT ( 'NONE', #448 ) ;
#101 = DIRECTION ( 'NONE',  ( -1.000000000000000000, -0.000000000000000000, -0.000000000000000000 ) ) ;
#102 = CARTESIAN_POINT ( 'NONE',  ( 23.30000000000001137, -10.00000000000000000, 15.00000000000000178 ) ) ;
#103 = CIRCLE ( 'NONE', #614, 1.699999999999989742 ) ;
#104 = CARTESIAN_POINT ( 'NONE',  ( 25.00000000000000000, -10.00000000000000000, 15.00000000000000178 ) ) ;
#105 = VERTEX_POINT ( 'NONE', #864 ) ;
#106 = CARTESIAN_POINT ( 'NONE',  ( 26.69999999999999218, 10.00000000000000355, 13.00000000000000000 ) ) ;
#107 = CIRCLE ( 'NONE', #683, 12.70000000000000462 ) ;
#108 = DIRECTION ( 'NONE',  ( 1.000000000000000000, 0.000000000000000000, 0.000000000000000000 ) ) ;
#109 = CARTESIAN_POINT ( 'NONE',  ( 75.00000000000000000, 0.000000000000000000, -6.000000000000001776 ) ) ;
#110 = EDGE_CURVE ( 'NONE', #1147, #1131, #913, .T. ) ;
#111 = VERTEX_POINT ( 'NONE', #348 ) ;
#112 = AXIS2_PLACEMENT_3D ( 'NONE', #516, #932, #108 ) ;
#113 = ORIENTED_EDGE ( 'NONE', *, *, #725, .F. ) ;
#114 = EDGE_CURVE ( 'NONE', #129, #333, #498, .T. ) ;
#115 = DIRECTION ( 'NONE',  ( 1.000000000000000000, 0.000000000000000000, 0.000000000000000000 ) ) ;
#116 = AXIS2_PLACEMENT_3D ( 'NONE', #941, #316, #834 ) ;
#117 = DIRECTION ( 'NONE',  ( -0.000000000000000000, 1.000000000000000000, 0.000000000000000000 ) ) ;
#118 = LINE ( 'NONE', #828, #1191 ) ;
#119 = ORIENTED_EDGE ( 'NONE', *, *, #469, .T. ) ;
#120 = DIRECTION ( 'NONE',  ( 0.000000000000000000, 1.334402673828313339E-16, -1.000000000000000000 ) ) ;
#121 = DIRECTION ( 'NONE',  ( -1.000000000000000000, -0.000000000000000000, 0.000000000000000000 ) ) ;
#122 = EDGE_CURVE ( 'NONE', #279, #564, #574, .T. ) ;
#123 = VECTOR ( 'NONE', #91, 1000.000000000000000 ) ;
#124 = ORIENTED_EDGE ( 'NONE', *, *, #400, .F. ) ;
#125 = DIRECTION ( 'NONE',  ( -0.000000000000000000, -0.000000000000000000, 1.000000000000000000 ) ) ;
#126 = EDGE_CURVE ( 'NONE', #648, #301, #980, .T. ) ;
#127 = CARTESIAN_POINT ( 'NONE',  ( 0.000000000000000000, 0.000000000000000000, 0.000000000000000000 ) ) ;
#128 = FACE_OUTER_BOUND ( 'NONE', #696, .T. ) ;
#129 = VERTEX_POINT ( 'NONE', #1245 ) ;
#130 = ORIENTED_EDGE ( 'NONE', *, *, #428, .F. ) ;
#131 = CARTESIAN_POINT ( 'NONE',  ( 75.00000000000000000, 0.000000000000000000, 12.99999999999999822 ) ) ;
#132 = AXIS2_PLACEMENT_3D ( 'NONE', #515, #1114, #17 ) ;
#133 = DIRECTION ( 'NONE',  ( 0.000000000000000000, -1.334402673828313339E-16, 1.000000000000000000 ) ) ;
#134 = EDGE_CURVE ( 'NONE', #105, #632, #172, .T. ) ;
#135 = AXIS2_PLACEMENT_3D ( 'NONE', #1087, #1190, #990 ) ;
#136 = ORIENTED_EDGE ( 'NONE', *, *, #513, .T. ) ;
#137 = CIRCLE ( 'NONE', #948, 1.699999999999986189 ) ;
#138 = ORIENTED_EDGE ( 'NONE', *, *, #404, .T. ) ;
#139 = DIRECTION ( 'NONE',  ( -0.000000000000000000, -0.000000000000000000, -1.000000000000000000 ) ) ;
#140 = ORIENTED_EDGE ( 'NONE', *, *, #767, .F. ) ;
#141 = DIRECTION ( 'NONE',  ( -0.000000000000000000, -0.000000000000000000, -1.000000000000000000 ) ) ;
#142 = CARTESIAN_POINT ( 'NONE',  ( 75.00000000000000000, 8.500000000000000000, 15.00000000000000178 ) ) ;
#143 = EDGE_CURVE ( 'NONE', #236, #260, #996, .T. ) ;
#144 = EDGE_LOOP ( 'NONE', ( #979, #605, #339, #424 ) ) ;
#145 = ORIENTED_EDGE ( 'NONE', *, *, #794, .F. ) ;
#146 = CARTESIAN_POINT ( 'NONE',  ( 90.00000000000000000, 13.00000000000000000, 5.999999999999999112 ) ) ;
#147 = ORIENTED_EDGE ( 'NONE', *, *, #180, .T. ) ;
#148 = DIRECTION ( 'NONE',  ( -0.000000000000000000, -0.000000000000000000, 1.000000000000000000 ) ) ;
#149 = CARTESIAN_POINT ( 'NONE',  ( 25.00000000000000000, 10.00000000000000355, -13.00000000000000000 ) ) ;
#150 = PRODUCT_DEFINITION_CONTEXT ( 'detailed design', #597, 'design' ) ;
#151 = ORIENTED_EDGE ( 'NONE', *, *, #545, .T. ) ;
#152 = ORIENTED_EDGE ( 'NONE', *, *, #230, .T. ) ;
#153 = DIRECTION ( 'NONE',  ( -0.000000000000000000, -0.000000000000000000, -1.000000000000000000 ) ) ;
#154 = CARTESIAN_POINT ( 'NONE',  ( 25.00000000000000000, -10.00000000000000000, 15.00000000000000178 ) ) ;
#155 = ORIENTED_EDGE ( 'NONE', *, *, #773, .F. ) ;
#156 = DIRECTION ( 'NONE',  ( 1.000000000000000000, 0.000000000000000000, 0.000000000000000000 ) ) ;
#157 = LINE ( 'NONE', #1169, #504 ) ;
#158 = VERTEX_POINT ( 'NONE', #588 ) ;
#159 = DIRECTION ( 'NONE',  ( 0.000000000000000000, 0.000000000000000000, 1.000000000000000000 ) ) ;
#160 = DIRECTION ( 'NONE',  ( -0.000000000000000000, -0.000000000000000000, 1.000000000000000000 ) ) ;
#161 = ADVANCED_FACE ( 'NONE', ( #266 ), #888, .T. ) ;
#162 = ORIENTED_EDGE ( 'NONE', *, *, #693, .F. ) ;
#163 = DIRECTION ( 'NONE',  ( -1.000000000000000000, 0.000000000000000000, 0.000000000000000000 ) ) ;
#164 = AXIS2_PLACEMENT_3D ( 'NONE', #1275, #1069, #965 ) ;
#165 = VERTEX_POINT ( 'NONE', #272 ) ;
#166 = DIRECTION ( 'NONE',  ( 0.000000000000000000, -0.000000000000000000, -1.000000000000000000 ) ) ;
#167 = CARTESIAN_POINT ( 'NONE',  ( 75.00000000000000000, 0.000000000000000000, 8.000000000000037303 ) ) ;
#168 = CIRCLE ( 'NONE', #503, 1.699999999999986189 ) ;
#169 = LINE ( 'NONE', #575, #63 ) ;
#170 = ADVANCED_FACE ( 'NONE', ( #1289, #383, #1297 ), #371, .F. ) ;
#171 = LINE ( 'NONE', #1103, #32 ) ;
#172 = CIRCLE ( 'NONE', #681, 1.699999999999993072 ) ;
#173 = EDGE_CURVE ( 'NONE', #190, #342, #790, .T. ) ;
#174 = VECTOR ( 'NONE', #1025, 1000.000000000000000 ) ;
#175 = ORIENTED_EDGE ( 'NONE', *, *, #601, .T. ) ;
#176 = CARTESIAN_POINT ( 'NONE',  ( 23.30000000000001137, 10.00000000000000355, 15.00000000000000178 ) ) ;
#177 = CARTESIAN_POINT ( 'NONE',  ( 5.000000000000002665, 9.999999999999998224, 15.00000000000000355 ) ) ;
#178 = DIRECTION ( 'NONE',  ( -0.000000000000000000, -0.000000000000000000, 1.000000000000000000 ) ) ;
#179 = DIRECTION ( 'NONE',  ( -0.000000000000000000, -0.000000000000000000, 1.000000000000000000 ) ) ;
#180 = EDGE_CURVE ( 'NONE', #540, #1309, #783, .T. ) ;
#181 = ORIENTED_EDGE ( 'NONE', *, *, #526, .T. ) ;
#182 = DIRECTION ( 'NONE',  ( -0.000000000000000000, -0.000000000000000000, -1.000000000000000000 ) ) ;
#183 = FACE_OUTER_BOUND ( 'NONE', #315, .T. ) ;
#184 = CARTESIAN_POINT ( 'NONE',  ( 59.00000000000003553, -13.00000000000000000, -6.000000000000002665 ) ) ;
#185 = CARTESIAN_POINT ( 'NONE',  ( 71.39999999999999147, 4.408728476930474110E-16, -2.000000000000027978 ) ) ;
#186 = ORIENTED_EDGE ( 'NONE', *, *, #1058, .F. ) ;
#187 = FACE_OUTER_BOUND ( 'NONE', #844, .T. ) ;
#188 = CARTESIAN_POINT ( 'NONE',  ( 5.000000000000002665, 9.999999999999998224, 15.00000000000000178 ) ) ;
#189 = LINE ( 'NONE', #406, #1146 ) ;
#190 = VERTEX_POINT ( 'NONE', #899 ) ;
#191 = EDGE_LOOP ( 'NONE', ( #763, #1208, #847, #994 ) ) ;
#192 = CARTESIAN_POINT ( 'NONE',  ( 90.00000000000000000, 13.00000000000000000, 13.00000000000000000 ) ) ;
#193 = CARTESIAN_POINT ( 'NONE',  ( 0.000000000000000000, 13.00000000000000000, 13.00000000000000000 ) ) ;
#194 = CARTESIAN_POINT ( 'NONE',  ( 26.69999999999999218, -10.00000000000000000, 15.00000000000000178 ) ) ;
#195 = EDGE_LOOP ( 'NONE', ( #1117, #225 ) ) ;
#196 = ORIENTED_EDGE ( 'NONE', *, *, #609, .T. ) ;
#197 = DIRECTION ( 'NONE',  ( 0.000000000000000000, -1.000000000000000000, -1.334402673828313339E-16 ) ) ;
#198 = DIRECTION ( 'NONE',  ( 1.000000000000000000, 0.000000000000000000, 0.000000000000000000 ) ) ;
#199 = EDGE_CURVE ( 'NONE', #632, #744, #1194, .T. ) ;
#200 = VECTOR ( 'NONE', #237, 1000.000000000000000 ) ;
#201 = DIRECTION ( 'NONE',  ( 1.000000000000000000, 0.000000000000000000, 0.000000000000000000 ) ) ;
#202 = ORIENTED_EDGE ( 'NONE', *, *, #392, .F. ) ;
#203 = DIRECTION ( 'NONE',  ( 1.000000000000000000, 0.000000000000000000, 0.000000000000000000 ) ) ;
#204 = DIRECTION ( 'NONE',  ( -1.000000000000000000, -0.000000000000000000, -0.000000000000000000 ) ) ;
#205 = ADVANCED_FACE ( 'NONE', ( #280 ), #286, .F. ) ;
#206 = AXIS2_PLACEMENT_3D ( 'NONE', #238, #842, #461 ) ;
#207 = CARTESIAN_POINT ( 'NONE',  ( 78.60000000000000853, 0.000000000000000000, -2.000000000000027978 ) ) ;
#208 = ADVANCED_FACE ( 'NONE', ( #187 ), #894, .T. ) ;
#209 = ORIENTED_EDGE ( 'NONE', *, *, #983, .F. ) ;
#210 = AXIS2_PLACEMENT_3D ( 'NONE', #988, #579, #166 ) ;
#211 = CARTESIAN_POINT ( 'NONE',  ( 90.00000000000000000, -15.00000000000000178, 15.00000000000000178 ) ) ;
#212 = DIRECTION ( 'NONE',  ( -0.000000000000000000, -0.000000000000000000, 1.000000000000000000 ) ) ;
#213 = DIRECTION ( 'NONE',  ( -0.000000000000000000, -0.000000000000000000, 1.000000000000000000 ) ) ;
#214 = EDGE_CURVE ( 'NONE', #1283, #548, #687, .T. ) ;
#215 = ORIENTED_EDGE ( 'NONE', *, *, #731, .F. ) ;
#216 = VECTOR ( 'NONE', #384, 1000.000000000000000 ) ;
#217 = LINE ( 'NONE', #937, #691 ) ;
#218 = AXIS2_PLACEMENT_3D ( 'NONE', #325, #736, #1149 ) ;
#219 = FACE_OUTER_BOUND ( 'NONE', #1050, .T. ) ;
#220 = VERTEX_POINT ( 'NONE', #1084 ) ;
#221 = ADVANCED_FACE ( 'NONE', ( #1281 ), #484, .F. ) ;
#222 = DIRECTION ( 'NONE',  ( 1.000000000000000000, 0.000000000000000000, 0.000000000000000000 ) ) ;
#223 = CIRCLE ( 'NONE', #1082, 12.70000000000000462 ) ;
#224 = VECTOR ( 'NONE', #703, 1000.000000000000000 ) ;
#225 = ORIENTED_EDGE ( 'NONE', *, *, #450, .F. ) ;
#226 = CARTESIAN_POINT ( 'NONE',  ( 75.00000000000000000, 0.000000000000000000, -2.000000000000027978 ) ) ;
#227 = ORIENTED_EDGE ( 'NONE', *, *, #134, .F. ) ;
#228 = DIRECTION ( 'NONE',  ( 0.000000000000000000, -1.000000000000000000, 0.000000000000000000 ) ) ;
#229 = CIRCLE ( 'NONE', #576, 1.699999999999993072 ) ;
#230 = EDGE_CURVE ( 'NONE', #967, #540, #361, .T. ) ;
#231 = EDGE_CURVE ( 'NONE', #333, #129, #1253, .T. ) ;
#232 = DIRECTION ( 'NONE',  ( 0.000000000000000000, 1.000000000000000000, 0.000000000000000000 ) ) ;
#233 = VERTEX_POINT ( 'NONE', #329 ) ;
#234 = EDGE_LOOP ( 'NONE', ( #971, #742, #51, #1055 ) ) ;
#235 = CARTESIAN_POINT ( 'NONE',  ( -5.831890006140853248E-30, 5.364675298172680407, -15.00000000000000000 ) ) ;
#236 = VERTEX_POINT ( 'NONE', #443 ) ;
#237 = DIRECTION ( 'NONE',  ( -0.000000000000000000, -1.000000000000000000, -0.000000000000000000 ) ) ;
#238 = CARTESIAN_POINT ( 'NONE',  ( 75.00000000000000000, 8.500000000000000000, 13.00000000000000000 ) ) ;
#239 = VECTOR ( 'NONE', #821, 1000.000000000000000 ) ;
#240 = ORIENTED_EDGE ( 'NONE', *, *, #1075, .F. ) ;
#241 = VERTEX_POINT ( 'NONE', #1271 ) ;
#242 = DIRECTION ( 'NONE',  ( 0.000000000000000000, 1.000000000000000000, 0.000000000000000000 ) ) ;
#243 = EDGE_LOOP ( 'NONE', ( #1314, #651, #1232, #1045 ) ) ;
#244 = DIRECTION ( 'NONE',  ( -0.000000000000000000, -0.000000000000000000, 1.000000000000000000 ) ) ;
#245 = DIRECTION ( 'NONE',  ( 0.000000000000000000, -0.000000000000000000, 1.000000000000000000 ) ) ;
#246 = EDGE_CURVE ( 'NONE', #111, #550, #527, .T. ) ;
#247 = ADVANCED_FACE ( 'NONE', ( #977, #542, #1057, #859, #1263 ), #358, .F. ) ;
#248 = EDGE_CURVE ( 'NONE', #1001, #333, #157, .T. ) ;
#249 = ORIENTED_EDGE ( 'NONE', *, *, #173, .F. ) ;
#250 = VERTEX_POINT ( 'NONE', #943 ) ;
#251 = DIRECTION ( 'NONE',  ( 0.000000000000000000, 1.000000000000000000, 0.000000000000000000 ) ) ;
#252 = CYLINDRICAL_SURFACE ( 'NONE', #749, 1.699999999999989742 ) ;
#253 = ORIENTED_EDGE ( 'NONE', *, *, #693, .T. ) ;
#254 = CYLINDRICAL_SURFACE ( 'NONE', #999, 1.699999999999989742 ) ;
#255 = DIRECTION ( 'NONE',  ( 0.000000000000000000, 1.000000000000000000, 1.334402673828313339E-16 ) ) ;
#256 = ADVANCED_FACE ( 'NONE', ( #128, #1073, #645, #1153, #1048, #1254, #336 ), #968, .T. ) ;
#257 = ORIENTED_EDGE ( 'NONE', *, *, #344, .F. ) ;
#258 = CYLINDRICAL_SURFACE ( 'NONE', #459, 12.70000000000000284 ) ;
#259 = CARTESIAN_POINT ( 'NONE',  ( 75.00000000000000000, 0.000000000000000000, 5.999999999999997335 ) ) ;
#260 = VERTEX_POINT ( 'NONE', #44 ) ;
#261 = CARTESIAN_POINT ( 'NONE',  ( 87.70000000000000284, 1.555301434917139221E-15, 5.999999999999997335 ) ) ;
#262 = PLANE ( 'NONE',  #1318 ) ;
#263 = EDGE_LOOP ( 'NONE', ( #130, #1040 ) ) ;
#264 = AXIS2_PLACEMENT_3D ( 'NONE', #380, #283, #692 ) ;
#265 = EDGE_CURVE ( 'NONE', #744, #22, #792, .T. ) ;
#266 = FACE_OUTER_BOUND ( 'NONE', #823, .T. ) ;
#267 = DIRECTION ( 'NONE',  ( 1.000000000000000000, 0.000000000000000000, 0.000000000000000000 ) ) ;
#268 = ORIENTED_EDGE ( 'NONE', *, *, #19, .T. ) ;
#269 = CYLINDRICAL_SURFACE ( 'NONE', #700, 1.699999999999989742 ) ;
#270 = CARTESIAN_POINT ( 'NONE',  ( 75.00000000000000000, 0.000000000000000000, 12.99999999999999822 ) ) ;
#271 = ORIENTED_EDGE ( 'NONE', *, *, #758, .F. ) ;
#272 = CARTESIAN_POINT ( 'NONE',  ( -5.831890006140853248E-30, 5.364675298172680407, 15.00000000000000178 ) ) ;
#273 = DIRECTION ( 'NONE',  ( 0.000000000000000000, -1.000000000000000000, -1.365923996832131116E-16 ) ) ;
#274 = CIRCLE ( 'NONE', #1132, 12.70000000000000284 ) ;
#275 = CARTESIAN_POINT ( 'NONE',  ( 90.00000000000000000, 15.00000000000000000, 15.00000000000000178 ) ) ;
#276 = CARTESIAN_POINT ( 'NONE',  ( 75.00000000000000000, 0.000000000000000000, -14.99999999999999822 ) ) ;
#277 = AXIS2_PLACEMENT_3D ( 'NONE', #572, #1002, #1108 ) ;
#278 = CIRCLE ( 'NONE', #987, 1.699999999999989742 ) ;
#279 = VERTEX_POINT ( 'NONE', #950 ) ;
#280 = FACE_OUTER_BOUND ( 'NONE', #1061, .T. ) ;
#281 = FACE_OUTER_BOUND ( 'NONE', #454, .T. ) ;
#282 = DIRECTION ( 'NONE',  ( 0.000000000000000000, -1.334402673828313339E-16, 1.000000000000000000 ) ) ;
#283 = DIRECTION ( 'NONE',  ( 0.000000000000000000, 1.334402673828313339E-16, -1.000000000000000000 ) ) ;
#284 = AXIS2_PLACEMENT_3D ( 'NONE', #259, #1003, #273 ) ;
#285 = ORIENTED_EDGE ( 'NONE', *, *, #359, .F. ) ;
#286 = CYLINDRICAL_SURFACE ( 'NONE', #277, 1.699999999999993072 ) ;
#287 = DIRECTION ( 'NONE',  ( 0.7071067811865432429, -0.7071067811865517916, 0.000000000000000000 ) ) ;
#288 = FACE_BOUND ( 'NONE', #493, .T. ) ;
#289 = ORIENTED_EDGE ( 'NONE', *, *, #534, .T. ) ;
#290 = CIRCLE ( 'NONE', #1170, 1.699999999999989742 ) ;
#291 = DIRECTION ( 'NONE',  ( 1.000000000000000000, 0.000000000000000000, 0.000000000000000000 ) ) ;
#292 = LINE ( 'NONE', #1214, #123 ) ;
#293 = LINE ( 'NONE', #7, #96 ) ;
#294 = ORIENTED_EDGE ( 'NONE', *, *, #636, .F. ) ;
#295 = ORIENTED_EDGE ( 'NONE', *, *, #708, .F. ) ;
#296 = EDGE_CURVE ( 'NONE', #909, #916, #532, .T. ) ;
#297 = CARTESIAN_POINT ( 'NONE',  ( 75.00000000000000000, -8.500000000000000000, 15.00000000000000178 ) ) ;
#298 = CARTESIAN_POINT ( 'NONE',  ( 26.69999999999998863, -10.00000000000000000, 15.00000000000000355 ) ) ;
#299 = CARTESIAN_POINT ( 'NONE',  ( 26.69999999999999218, -10.00000000000000000, 15.00000000000000178 ) ) ;
#300 = VERTEX_POINT ( 'NONE', #1279 ) ;
#301 = VERTEX_POINT ( 'NONE', #62 ) ;
#302 = ORIENTED_EDGE ( 'NONE', *, *, #134, .T. ) ;
#303 = LINE ( 'NONE', #1210, #529 ) ;
#304 = EDGE_CURVE ( 'NONE', #1159, #967, #452, .T. ) ;
#305 = CARTESIAN_POINT ( 'NONE',  ( 26.69999999999999218, 10.00000000000000355, 15.00000000000000178 ) ) ;
#306 = VECTOR ( 'NONE', #1014, 1000.000000000000000 ) ;
#307 = EDGE_CURVE ( 'NONE', #500, #1001, #1249, .T. ) ;
#308 = VECTOR ( 'NONE', #1235, 1000.000000000000000 ) ;
#309 = DIRECTION ( 'NONE',  ( 0.000000000000000000, 0.000000000000000000, -1.000000000000000000 ) ) ;
#310 = ORIENTED_EDGE ( 'NONE', *, *, #534, .F. ) ;
#311 = DIRECTION ( 'NONE',  ( 1.000000000000000000, 0.000000000000000000, 0.000000000000000000 ) ) ;
#312 = FACE_BOUND ( 'NONE', #774, .T. ) ;
#313 = ADVANCED_FACE ( 'NONE', ( #1184 ), #262, .T. ) ;
#314 = CARTESIAN_POINT ( 'NONE',  ( 23.30000000000001492, 10.00000000000000355, 15.00000000000000355 ) ) ;
#315 = EDGE_LOOP ( 'NONE', ( #555, #330, #1068, #360 ) ) ;
#316 = DIRECTION ( 'NONE',  ( 0.000000000000000000, 0.000000000000000000, -1.000000000000000000 ) ) ;
#317 = CARTESIAN_POINT ( 'NONE',  ( 59.00000000000003553, 0.000000000000000000, 0.000000000000000000 ) ) ;
#318 = ADVANCED_FACE ( 'NONE', ( #29 ), #426, .F. ) ;
#319 = DIRECTION ( 'NONE',  ( -1.000000000000000000, -0.000000000000000000, -0.000000000000000000 ) ) ;
#320 = EDGE_LOOP ( 'NONE', ( #1313, #711, #1060, #147 ) ) ;
#321 = CARTESIAN_POINT ( 'NONE',  ( 90.00000000000000000, 13.00000000000000178, -5.999999999999999112 ) ) ;
#322 = AXIS2_PLACEMENT_3D ( 'NONE', #616, #1033, #413 ) ;
#323 = EDGE_LOOP ( 'NONE', ( #1257, #1112, #862, #93 ) ) ;
#324 = PRODUCT_DEFINITION ( 'UNKNOWN', '', #1120, #150 ) ;
#325 = CARTESIAN_POINT ( 'NONE',  ( 75.00000000000000000, -8.500000000000000000, 12.99999999999999645 ) ) ;
#326 = EDGE_LOOP ( 'NONE', ( #777, #1142, #363, #1212 ) ) ;
#327 = AXIS2_PLACEMENT_3D ( 'NONE', #556, #1268, #251 ) ;
#328 = CARTESIAN_POINT ( 'NONE',  ( 25.00000000000000000, 10.00000000000000355, -14.99999999999999822 ) ) ;
#329 = CARTESIAN_POINT ( 'NONE',  ( 23.30000000000001137, 10.00000000000000355, 13.00000000000000000 ) ) ;
#330 = ORIENTED_EDGE ( 'NONE', *, *, #964, .T. ) ;
#331 = AXIS2_PLACEMENT_3D ( 'NONE', #1065, #958, #1043 ) ;
#332 = ORIENTED_EDGE ( 'NONE', *, *, #1066, .T. ) ;
#333 = VERTEX_POINT ( 'NONE', #1246 ) ;
#334 = AXIS2_PLACEMENT_3D ( 'NONE', #167, #889, #589 ) ;
#335 = APPLICATION_PROTOCOL_DEFINITION ( 'draft international standard', 'automotive_design', 1998, #597 ) ;
#336 = FACE_BOUND ( 'NONE', #263, .T. ) ;
#337 = ORIENTED_EDGE ( 'NONE', *, *, #370, .T. ) ;
#338 = AXIS2_PLACEMENT_3D ( 'NONE', #177, #66, #658 ) ;
#339 = ORIENTED_EDGE ( 'NONE', *, *, #1022, .F. ) ;
#340 = DIRECTION ( 'NONE',  ( 0.000000000000000000, 1.334402673828313339E-16, -1.000000000000000000 ) ) ;
#341 = EDGE_CURVE ( 'NONE', #100, #165, #351, .T. ) ;
#342 = VERTEX_POINT ( 'NONE', #577 ) ;
#343 = CARTESIAN_POINT ( 'NONE',  ( 25.00000000000000000, 10.00000000000000355, 15.00000000000000178 ) ) ;
#344 = EDGE_CURVE ( 'NONE', #1223, #279, #787, .T. ) ;
#345 = DIRECTION ( 'NONE',  ( -0.000000000000000000, 1.000000000000000000, 0.000000000000000000 ) ) ;
#346 = ORIENTED_EDGE ( 'NONE', *, *, #265, .F. ) ;
#347 = EDGE_LOOP ( 'NONE', ( #1185, #1148 ) ) ;
#348 = CARTESIAN_POINT ( 'NONE',  ( 59.00000000000003553, 13.00000000000000178, -5.999999999999999112 ) ) ;
#349 = VERTEX_POINT ( 'NONE', #591 ) ;
#350 = DIRECTION ( 'NONE',  ( 0.000000000000000000, -1.334402673828313339E-16, 1.000000000000000000 ) ) ;
#351 = LINE ( 'NONE', #850, #957 ) ;
#352 = EDGE_CURVE ( 'NONE', #233, #1071, #103, .T. ) ;
#353 = AXIS2_PLACEMENT_3D ( 'NONE', #495, #282, #912 ) ;
#354 = ORIENTED_EDGE ( 'NONE', *, *, #747, .F. ) ;
#355 = DIRECTION ( 'NONE',  ( -0.000000000000000000, -0.000000000000000000, 1.000000000000000000 ) ) ;
#356 = DIRECTION ( 'NONE',  ( -0.7071067811865432429, 0.7071067811865517916, 0.000000000000000000 ) ) ;
#357 = ORIENTED_EDGE ( 'NONE', *, *, #601, .F. ) ;
#358 = PLANE ( 'NONE',  #331 ) ;
#359 = EDGE_CURVE ( 'NONE', #986, #916, #274, .T. ) ;
#360 = ORIENTED_EDGE ( 'NONE', *, *, #30, .T. ) ;
#361 = LINE ( 'NONE', #775, #920 ) ;
#362 = CARTESIAN_POINT ( 'NONE',  ( 5.000000000000002665, 9.999999999999998224, 13.00000000000000000 ) ) ;
#363 = ORIENTED_EDGE ( 'NONE', *, *, #933, .T. ) ;
#364 = FACE_OUTER_BOUND ( 'NONE', #320, .T. ) ;
#365 = VECTOR ( 'NONE', #101, 1000.000000000000000 ) ;
#366 = DIRECTION ( 'NONE',  ( 0.000000000000000000, 0.000000000000000000, -1.000000000000000000 ) ) ;
#367 = ORIENTED_EDGE ( 'NONE', *, *, #491, .T. ) ;
#368 = AXIS2_PLACEMENT_3D ( 'NONE', #505, #213, #201 ) ;
#369 = PRODUCT_RELATED_PRODUCT_CATEGORY ( 'part', '', ( #756 ) ) ;
#370 = EDGE_CURVE ( 'NONE', #564, #279, #38, .T. ) ;
#371 = PLANE ( 'NONE',  #381 ) ;
#372 = CARTESIAN_POINT ( 'NONE',  ( 18.36467529817244326, -13.00000000000000000, 12.99999999999999645 ) ) ;
#373 = DIRECTION ( 'NONE',  ( 1.000000000000000000, 0.000000000000000000, 0.000000000000000000 ) ) ;
#374 = CARTESIAN_POINT ( 'NONE',  ( 25.00000000000000000, 10.00000000000000355, 13.00000000000000000 ) ) ;
#375 = VERTEX_POINT ( 'NONE', #891 ) ;
#376 = DIRECTION ( 'NONE',  ( -0.7071067811865432429, 0.7071067811865517916, 9.435651794974667823E-17 ) ) ;
#377 = LINE ( 'NONE', #573, #1027 ) ;
#378 = VECTOR ( 'NONE', #748, 1000.000000000000000 ) ;
#379 = DIRECTION ( 'NONE',  ( -0.000000000000000000, 1.000000000000000000, 1.334402673828313093E-16 ) ) ;
#380 = CARTESIAN_POINT ( 'NONE',  ( 5.000000000000002665, 9.999999999999998224, 13.00000000000000000 ) ) ;
#381 = AXIS2_PLACEMENT_3D ( 'NONE', #679, #1187, #1209 ) ;
#382 = VERTEX_POINT ( 'NONE', #69 ) ;
#383 = FACE_OUTER_BOUND ( 'NONE', #940, .T. ) ;
#384 = DIRECTION ( 'NONE',  ( -1.000000000000000000, -0.000000000000000000, -0.000000000000000000 ) ) ;
#385 = CARTESIAN_POINT ( 'NONE',  ( 90.00000000000000000, -13.00000000000000000, -13.00000000000000355 ) ) ;
#386 = DIRECTION ( 'NONE',  ( 1.000000000000000000, 0.000000000000000000, 0.000000000000000000 ) ) ;
#387 = VECTOR ( 'NONE', #212, 1000.000000000000000 ) ;
#388 = AXIS2_PLACEMENT_3D ( 'NONE', #127, #1152, #836 ) ;
#389 = ORIENTED_EDGE ( 'NONE', *, *, #1158, .F. ) ;
#390 = DIRECTION ( 'NONE',  ( -0.000000000000000000, -0.000000000000000000, 1.000000000000000000 ) ) ;
#391 = CARTESIAN_POINT ( 'NONE',  ( -5.831890006140853248E-30, 5.364675298172680407, 28.00000000000000355 ) ) ;
#392 = EDGE_CURVE ( 'NONE', #1159, #915, #583, .T. ) ;
#393 = AXIS2_PLACEMENT_3D ( 'NONE', #664, #34, #228 ) ;
#394 = ORIENTED_EDGE ( 'NONE', *, *, #685, .F. ) ;
#395 = EDGE_LOOP ( 'NONE', ( #886, #638, #1179, #444 ) ) ;
#396 = CIRCLE ( 'NONE', #765, 1.699999999999994849 ) ;
#397 = CARTESIAN_POINT ( 'NONE',  ( 5.000000000000002665, 9.999999999999998224, -13.00000000000000000 ) ) ;
#398 = DIRECTION ( 'NONE',  ( -0.000000000000000000, -0.000000000000000000, 1.000000000000000000 ) ) ;
#399 = CARTESIAN_POINT ( 'NONE',  ( 87.70000000000000284, 1.555301434917139024E-15, 8.000000000000037303 ) ) ;
#400 = EDGE_CURVE ( 'NONE', #1034, #804, #1285, .T. ) ;
#401 = AXIS2_PLACEMENT_3D ( 'NONE', #1018, #410, #197 ) ;
#402 = VERTEX_POINT ( 'NONE', #1308 ) ;
#403 = ORIENTED_EDGE ( 'NONE', *, *, #359, .T. ) ;
#404 = EDGE_CURVE ( 'NONE', #571, #46, #788, .T. ) ;
#405 = DIRECTION ( 'NONE',  ( 0.000000000000000000, -1.000000000000000000, 0.000000000000000000 ) ) ;
#406 = CARTESIAN_POINT ( 'NONE',  ( 90.00000000000000000, 13.00000000000000178, -13.00000000000000000 ) ) ;
#407 = DIRECTION ( 'NONE',  ( 0.000000000000000000, 1.334402673828313339E-16, -1.000000000000000000 ) ) ;
#408 = VECTOR ( 'NONE', #160, 1000.000000000000000 ) ;
#409 = ORIENTED_EDGE ( 'NONE', *, *, #825, .T. ) ;
#410 = DIRECTION ( 'NONE',  ( 0.000000000000000000, -1.334402673828313339E-16, 1.000000000000000000 ) ) ;
#411 = DIRECTION ( 'NONE',  ( -0.000000000000000000, -0.000000000000000000, 1.000000000000000000 ) ) ;
#412 = AXIS2_PLACEMENT_3D ( 'NONE', #610, #1021, #1227 ) ;
#413 = DIRECTION ( 'NONE',  ( 0.000000000000000000, 1.000000000000000000, 0.000000000000000000 ) ) ;
#414 = ORIENTED_EDGE ( 'NONE', *, *, #567, .F. ) ;
#415 = CARTESIAN_POINT ( 'NONE',  ( 71.39999999999999147, 4.408728476930468193E-16, 12.99999999999999822 ) ) ;
#416 = LINE ( 'NONE', #926, #387 ) ;
#417 = ADVANCED_FACE ( 'NONE', ( #668, #779 ), #1192, .T. ) ;
#418 = CARTESIAN_POINT ( 'NONE',  ( 59.00000000000004263, -13.00000000000000000, -6.000000000000002665 ) ) ;
#419 = ORIENTED_EDGE ( 'NONE', *, *, #143, .T. ) ;
#420 = CARTESIAN_POINT ( 'NONE',  ( 75.00000000000000000, 8.500000000000000000, 13.00000000000000000 ) ) ;
#421 = FACE_BOUND ( 'NONE', #846, .T. ) ;
#422 = ORIENTED_EDGE ( 'NONE', *, *, #437, .F. ) ;
#423 = FACE_BOUND ( 'NONE', #1217, .T. ) ;
#424 = ORIENTED_EDGE ( 'NONE', *, *, #962, .T. ) ;
#425 = SHAPE_DEFINITION_REPRESENTATION ( #1042, #1264 ) ;
#426 = CYLINDRICAL_SURFACE ( 'NONE', #849, 1.699999999999989742 ) ;
#427 = VECTOR ( 'NONE', #1090, 1000.000000000000000 ) ;
#428 = EDGE_CURVE ( 'NONE', #158, #1223, #570, .T. ) ;
#429 = ORIENTED_EDGE ( 'NONE', *, *, #352, .F. ) ;
#430 = ORIENTED_EDGE ( 'NONE', *, *, #1307, .T. ) ;
#431 = LINE ( 'NONE', #1046, #1145 ) ;
#432 = LINE ( 'NONE', #635, #1310 ) ;
#433 = CARTESIAN_POINT ( 'NONE',  ( 62.29999999999999716, 0.000000000000000000, 8.000000000000037303 ) ) ;
#434 = VECTOR ( 'NONE', #1294, 1000.000000000000000 ) ;
#435 = ORIENTED_EDGE ( 'NONE', *, *, #370, .F. ) ;
#436 = AXIS2_PLACEMENT_3D ( 'NONE', #1304, #594, #879 ) ;
#437 = EDGE_CURVE ( 'NONE', #829, #1172, #168, .T. ) ;
#438 = EDGE_LOOP ( 'NONE', ( #67, #1127, #1251, #414 ) ) ;
#439 = DIRECTION ( 'NONE',  ( -1.000000000000000000, 0.000000000000000000, 0.000000000000000000 ) ) ;
#440 = VECTOR ( 'NONE', #1204, 1000.000000000000000 ) ;
#441 = ORIENTED_EDGE ( 'NONE', *, *, #122, .T. ) ;
#442 =( LENGTH_UNIT ( ) NAMED_UNIT ( * ) SI_UNIT ( .MILLI., .METRE. ) );
#443 = CARTESIAN_POINT ( 'NONE',  ( 6.699999999999993960, 9.999999999999998224, 13.00000000000000000 ) ) ;
#444 = ORIENTED_EDGE ( 'NONE', *, *, #758, .T. ) ;
#445 = ORIENTED_EDGE ( 'NONE', *, *, #924, .F. ) ;
#446 = CIRCLE ( 'NONE', #112, 1.699999999999993072 ) ;
#447 = ORIENTED_EDGE ( 'NONE', *, *, #1105, .T. ) ;
#448 = CARTESIAN_POINT ( 'NONE',  ( 0.000000000000000000, 15.00000000000000000, 15.00000000000000178 ) ) ;
#449 = CARTESIAN_POINT ( 'NONE',  ( 0.000000000000000000, 15.00000000000000000, -14.99999999999999822 ) ) ;
#450 = EDGE_CURVE ( 'NONE', #599, #236, #716, .T. ) ;
#451 = EDGE_LOOP ( 'NONE', ( #659, #357, #558, #598, #761, #394, #523, #752 ) ) ;
#452 = LINE ( 'NONE', #772, #378 ) ;
#453 = ORIENTED_EDGE ( 'NONE', *, *, #1059, .T. ) ;
#454 = EDGE_LOOP ( 'NONE', ( #666, #1288, #662, #530 ) ) ;
#455 = FACE_OUTER_BOUND ( 'NONE', #789, .T. ) ;
#456 = CARTESIAN_POINT ( 'NONE',  ( 90.00000000000000000, 13.00000000000000178, -5.999999999999999112 ) ) ;
#457 = EDGE_LOOP ( 'NONE', ( #302, #1150 ) ) ;
#458 = CARTESIAN_POINT ( 'NONE',  ( 90.00000000000000000, -13.00000000000000000, -6.000000000000002665 ) ) ;
#459 = AXIS2_PLACEMENT_3D ( 'NONE', #538, #139, #439 ) ;
#460 = EDGE_CURVE ( 'NONE', #1034, #41, #171, .T. ) ;
#461 = DIRECTION ( 'NONE',  ( 0.000000000000000000, 1.000000000000000000, 0.000000000000000000 ) ) ;
#462 = AXIS2_PLACEMENT_3D ( 'NONE', #902, #1122, #198 ) ;
#463 = ORIENTED_EDGE ( 'NONE', *, *, #1272, .F. ) ;
#464 = DIRECTION ( 'NONE',  ( 0.7071067811865432429, -0.7071067811865517916, -9.435651794974667823E-17 ) ) ;
#465 = LINE ( 'NONE', #456, #860 ) ;
#466 = EDGE_LOOP ( 'NONE', ( #57, #1126 ) ) ;
#467 = DIRECTION ( 'NONE',  ( 0.000000000000000000, 0.000000000000000000, -1.000000000000000000 ) ) ;
#468 = DIRECTION ( 'NONE',  ( -0.000000000000000000, 1.000000000000000000, 1.334402673828313339E-16 ) ) ;
#469 = EDGE_CURVE ( 'NONE', #241, #1303, #883, .T. ) ;
#470 = ORIENTED_EDGE ( 'NONE', *, *, #265, .T. ) ;
#471 = DIRECTION ( 'NONE',  ( 1.000000000000000000, 0.000000000000000000, 0.000000000000000000 ) ) ;
#472 = LINE ( 'NONE', #1298, #440 ) ;
#473 = SURFACE_SIDE_STYLE ('',( #682 ) ) ;
#474 = VECTOR ( 'NONE', #1007, 1000.000000000000000 ) ;
#475 = DIRECTION ( 'NONE',  ( 0.000000000000000000, 1.000000000000000000, 0.000000000000000000 ) ) ;
#476 = CIRCLE ( 'NONE', #412, 1.699999999999989742 ) ;
#477 = VERTEX_POINT ( 'NONE', #991 ) ;
#478 = DIRECTION ( 'NONE',  ( -1.000000000000000000, -0.000000000000000000, -0.000000000000000000 ) ) ;
#479 = LINE ( 'NONE', #895, #1094 ) ;
#480 = CYLINDRICAL_SURFACE ( 'NONE', #53, 1.699999999999991518 ) ;
#481 = DIRECTION ( 'NONE',  ( 0.000000000000000000, 1.334402673828313339E-16, -1.000000000000000000 ) ) ;
#482 = VERTEX_POINT ( 'NONE', #75 ) ;
#483 = EDGE_CURVE ( 'NONE', #916, #986, #1080, .T. ) ;
#484 = CYLINDRICAL_SURFACE ( 'NONE', #436, 12.70000000000000284 ) ;
#485 = DIRECTION ( 'NONE',  ( 1.000000000000000000, 0.000000000000000000, 0.000000000000000000 ) ) ;
#486 = FACE_OUTER_BOUND ( 'NONE', #326, .T. ) ;
#487 = CARTESIAN_POINT ( 'NONE',  ( 90.00000000000000000, -13.00000000000000000, 5.999999999999995559 ) ) ;
#488 = ORIENTED_EDGE ( 'NONE', *, *, #1106, .F. ) ;
#489 = FACE_OUTER_BOUND ( 'NONE', #1189, .T. ) ;
#490 = LINE ( 'NONE', #193, #1273 ) ;
#491 = EDGE_CURVE ( 'NONE', #158, #564, #1130, .T. ) ;
#492 = ORIENTED_EDGE ( 'NONE', *, *, #747, .T. ) ;
#493 = EDGE_LOOP ( 'NONE', ( #271, #838 ) ) ;
#494 = CARTESIAN_POINT ( 'NONE',  ( 3.300000000000011369, 9.999999999999998224, 15.00000000000000178 ) ) ;
#495 = CARTESIAN_POINT ( 'NONE',  ( 75.00000000000000000, 0.000000000000000000, 5.999999999999997335 ) ) ;
#496 = EDGE_CURVE ( 'NONE', #640, #349, #724, .T. ) ;
#497 = LINE ( 'NONE', #299, #239 ) ;
#498 = CIRCLE ( 'NONE', #14, 1.699999999999993072 ) ;
#499 = ORIENTED_EDGE ( 'NONE', *, *, #126, .F. ) ;
#500 = VERTEX_POINT ( 'NONE', #1137 ) ;
#501 = FACE_BOUND ( 'NONE', #347, .T. ) ;
#502 = CYLINDRICAL_SURFACE ( 'NONE', #969, 1.699999999999993072 ) ;
#503 = AXIS2_PLACEMENT_3D ( 'NONE', #897, #568, #1300 ) ;
#504 = VECTOR ( 'NONE', #637, 1000.000000000000000 ) ;
#505 = CARTESIAN_POINT ( 'NONE',  ( 25.00000000000000000, -10.00000000000000000, -14.99999999999999822 ) ) ;
#506 = AXIS2_PLACEMENT_3D ( 'NONE', #362, #776, #1085 ) ;
#507 = VERTEX_POINT ( 'NONE', #704 ) ;
#508 = FACE_OUTER_BOUND ( 'NONE', #1280, .T. ) ;
#509 = CARTESIAN_POINT ( 'NONE',  ( 62.29999999999999716, 0.000000000000000000, -14.99999999999999822 ) ) ;
#510 = DIRECTION ( 'NONE',  ( 0.000000000000000000, 0.000000000000000000, -1.000000000000000000 ) ) ;
#511 = VECTOR ( 'NONE', #204, 1000.000000000000000 ) ;
#512 = ORIENTED_EDGE ( 'NONE', *, *, #1020, .T. ) ;
#513 = EDGE_CURVE ( 'NONE', #241, #402, #841, .T. ) ;
#514 = ORIENTED_EDGE ( 'NONE', *, *, #1296, .T. ) ;
#515 = CARTESIAN_POINT ( 'NONE',  ( 75.00000000000000000, 8.500000000000000000, -2.000000000000027978 ) ) ;
#516 = CARTESIAN_POINT ( 'NONE',  ( 25.00000000000000000, -10.00000000000000000, -14.99999999999999822 ) ) ;
#517 = VECTOR ( 'NONE', #1284, 1000.000000000000000 ) ;
#518 = LINE ( 'NONE', #1221, #200 ) ;
#519 = ORIENTED_EDGE ( 'NONE', *, *, #483, .F. ) ;
#520 = PLANE ( 'NONE',  #639 ) ;
#521 = DIRECTION ( 'NONE',  ( 0.000000000000000000, 0.000000000000000000, 1.000000000000000000 ) ) ;
#522 = EDGE_CURVE ( 'NONE', #915, #1277, #118, .T. ) ;
#523 = ORIENTED_EDGE ( 'NONE', *, *, #214, .T. ) ;
#524 = CARTESIAN_POINT ( 'NONE',  ( 26.69999999999999218, -10.00000000000000000, -13.00000000000000355 ) ) ;
#525 = ORIENTED_EDGE ( 'NONE', *, *, #1059, .F. ) ;
#526 = EDGE_CURVE ( 'NONE', #375, #507, #892, .T. ) ;
#527 = LINE ( 'NONE', #876, #615 ) ;
#528 = ORIENTED_EDGE ( 'NONE', *, *, #767, .T. ) ;
#529 = VECTOR ( 'NONE', #1213, 1000.000000000000000 ) ;
#530 = ORIENTED_EDGE ( 'NONE', *, *, #143, .F. ) ;
#531 = FACE_OUTER_BOUND ( 'NONE', #243, .T. ) ;
#532 = LINE ( 'NONE', #433, #677 ) ;
#533 = VECTOR ( 'NONE', #914, 1000.000000000000000 ) ;
#534 = EDGE_CURVE ( 'NONE', #300, #1159, #518, .T. ) ;
#535 = EDGE_CURVE ( 'NONE', #349, #686, #1054, .T. ) ;
#536 = ORIENTED_EDGE ( 'NONE', *, *, #428, .T. ) ;
#537 = ORIENTED_EDGE ( 'NONE', *, *, #939, .T. ) ;
#538 = CARTESIAN_POINT ( 'NONE',  ( 75.00000000000000000, 0.000000000000000000, 8.000000000000037303 ) ) ;
#539 =( NAMED_UNIT ( * ) PLANE_ANGLE_UNIT ( ) SI_UNIT ( $, .RADIAN. ) );
#540 = VERTEX_POINT ( 'NONE', #928 ) ;
#541 = DIRECTION ( 'NONE',  ( 1.000000000000000000, 0.000000000000000000, 0.000000000000000000 ) ) ;
#542 = FACE_BOUND ( 'NONE', #1138, .T. ) ;
#543 = AXIS2_PLACEMENT_3D ( 'NONE', #795, #179, #386 ) ;
#544 = ORIENTED_EDGE ( 'NONE', *, *, #647, .T. ) ;
#545 = EDGE_CURVE ( 'NONE', #482, #986, #644, .T. ) ;
#546 = EDGE_CURVE ( 'NONE', #46, #571, #137, .T. ) ;
#547 = VECTOR ( 'NONE', #72, 1000.000000000000000 ) ;
#548 = VERTEX_POINT ( 'NONE', #921 ) ;
#549 = CARTESIAN_POINT ( 'NONE',  ( 75.00000000000000000, 0.000000000000000000, 8.000000000000037303 ) ) ;
#550 = VERTEX_POINT ( 'NONE', #418 ) ;
#551 = CARTESIAN_POINT ( 'NONE',  ( 75.00000000000000000, 0.000000000000000000, -13.00000000000000000 ) ) ;
#552 = DIRECTION ( 'NONE',  ( -0.000000000000000000, -0.000000000000000000, 1.000000000000000000 ) ) ;
#553 = EDGE_LOOP ( 'NONE', ( #155, #855, #470, #960 ) ) ;
#554 = EDGE_CURVE ( 'NONE', #375, #1266, #1124, .T. ) ;
#555 = ORIENTED_EDGE ( 'NONE', *, *, #496, .F. ) ;
#556 = CARTESIAN_POINT ( 'NONE',  ( 25.00000000000000000, -10.00000000000000000, 12.99999999999999645 ) ) ;
#557 = DIRECTION ( 'NONE',  ( -0.000000000000000000, -0.000000000000000000, 1.000000000000000000 ) ) ;
#558 = ORIENTED_EDGE ( 'NONE', *, *, #567, .T. ) ;
#559 = SURFACE_STYLE_USAGE ( .BOTH. , #473 ) ;
#560 = DIRECTION ( 'NONE',  ( -0.000000000000000000, -0.000000000000000000, -1.000000000000000000 ) ) ;
#561 = ORIENTED_EDGE ( 'NONE', *, *, #1029, .T. ) ;
#562 = DIRECTION ( 'NONE',  ( 1.000000000000000000, 0.000000000000000000, 0.000000000000000000 ) ) ;
#563 = CARTESIAN_POINT ( 'NONE',  ( 90.00000000000000000, 13.00000000000000178, -13.00000000000000000 ) ) ;
#564 = VERTEX_POINT ( 'NONE', #21 ) ;
#565 = CARTESIAN_POINT ( 'NONE',  ( 62.29999999999999716, 2.314819644696196905E-31, -6.000000000000001776 ) ) ;
#566 = AXIS2_PLACEMENT_3D ( 'NONE', #549, #153, #947 ) ;
#567 = EDGE_CURVE ( 'NONE', #8, #1034, #719, .T. ) ;
#568 = DIRECTION ( 'NONE',  ( -0.000000000000000000, -0.000000000000000000, 1.000000000000000000 ) ) ;
#569 = AXIS2_PLACEMENT_3D ( 'NONE', #1012, #95, #1312 ) ;
#570 = CIRCLE ( 'NONE', #739, 3.600000000000001421 ) ;
#571 = VERTEX_POINT ( 'NONE', #314 ) ;
#572 = CARTESIAN_POINT ( 'NONE',  ( 75.00000000000000000, -8.500000000000000000, -2.000000000000027978 ) ) ;
#573 = CARTESIAN_POINT ( 'NONE',  ( 90.00000000000000000, 13.00000000000000178, -5.999999999999999112 ) ) ;
#574 = CIRCLE ( 'NONE', #851, 3.600000000000005862 ) ;
#575 = CARTESIAN_POINT ( 'NONE',  ( 6.699999999999993960, 9.999999999999998224, 15.00000000000000178 ) ) ;
#576 = AXIS2_PLACEMENT_3D ( 'NONE', #297, #1011, #94 ) ;
#577 = CARTESIAN_POINT ( 'NONE',  ( -5.831890006140853248E-30, 5.364675298172680407, -13.00000000000000533 ) ) ;
#578 = ORIENTED_EDGE ( 'NONE', *, *, #1121, .F. ) ;
#579 = DIRECTION ( 'NONE',  ( 0.000000000000000000, -1.000000000000000000, 0.000000000000000000 ) ) ;
#580 = CARTESIAN_POINT ( 'NONE',  ( 0.000000000000000000, 13.00000000000000178, -13.00000000000000000 ) ) ;
#581 = AXIS2_PLACEMENT_3D ( 'NONE', #1032, #722, #938 ) ;
#582 = DIRECTION ( 'NONE',  ( -0.000000000000000000, -0.000000000000000000, 1.000000000000000000 ) ) ;
#583 = LINE ( 'NONE', #904, #1024 ) ;
#584 = ADVANCED_FACE ( 'NONE', ( #1056 ), #934, .F. ) ;
#585 = AXIS2_PLACEMENT_3D ( 'NONE', #343, #244, #156 ) ;
#586 = EDGE_CURVE ( 'NONE', #41, #1171, #621, .T. ) ;
#587 = ORIENTED_EDGE ( 'NONE', *, *, #708, .T. ) ;
#588 = CARTESIAN_POINT ( 'NONE',  ( 78.60000000000000853, 0.000000000000000000, 12.99999999999999822 ) ) ;
#589 = DIRECTION ( 'NONE',  ( -1.000000000000000000, 0.000000000000000000, 0.000000000000000000 ) ) ;
#590 = DIRECTION ( 'NONE',  ( -0.000000000000000000, -0.000000000000000000, 1.000000000000000000 ) ) ;
#591 = CARTESIAN_POINT ( 'NONE',  ( 87.70000000000000284, 1.555301434917139616E-15, -6.000000000000001776 ) ) ;
#592 = CIRCLE ( 'NONE', #353, 12.70000000000000462 ) ;
#593 = ORIENTED_EDGE ( 'NONE', *, *, #726, .T. ) ;
#594 = DIRECTION ( 'NONE',  ( -0.000000000000000000, -0.000000000000000000, -1.000000000000000000 ) ) ;
#595 = LINE ( 'NONE', #1219, #474 ) ;
#596 = DIRECTION ( 'NONE',  ( 0.000000000000000000, 0.000000000000000000, 1.000000000000000000 ) ) ;
#597 = APPLICATION_CONTEXT ( 'automotive_design' ) ;
#598 = ORIENTED_EDGE ( 'NONE', *, *, #400, .T. ) ;
#599 = VERTEX_POINT ( 'NONE', #42 ) ;
#600 = FACE_BOUND ( 'NONE', #810, .T. ) ;
#601 = EDGE_CURVE ( 'NONE', #8, #301, #293, .T. ) ;
#602 = DIRECTION ( 'NONE',  ( 0.000000000000000000, -1.000000000000000000, 0.000000000000000000 ) ) ;
#603 = LINE ( 'NONE', #730, #306 ) ;
#604 = ORIENTED_EDGE ( 'NONE', *, *, #231, .T. ) ;
#605 = ORIENTED_EDGE ( 'NONE', *, *, #246, .F. ) ;
#606 = CYLINDRICAL_SURFACE ( 'NONE', #132, 1.699999999999993072 ) ;
#607 = VECTOR ( 'NONE', #1141, 1000.000000000000000 ) ;
#608 = CARTESIAN_POINT ( 'NONE',  ( 23.30000000000001137, 10.00000000000000355, -13.00000000000000000 ) ) ;
#609 = EDGE_CURVE ( 'NONE', #92, #8, #603, .T. ) ;
#610 = CARTESIAN_POINT ( 'NONE',  ( 25.00000000000000000, 10.00000000000000355, 13.00000000000000000 ) ) ;
#611 = ORIENTED_EDGE ( 'NONE', *, *, #392, .T. ) ;
#612 = CARTESIAN_POINT ( 'NONE',  ( 75.00000000000000000, -8.500000000000000000, 15.00000000000000178 ) ) ;
#613 = FACE_OUTER_BOUND ( 'NONE', #1274, .T. ) ;
#614 = AXIS2_PLACEMENT_3D ( 'NONE', #374, #1198, #475 ) ;
#615 = VECTOR ( 'NONE', #661, 1000.000000000000000 ) ;
#616 = CARTESIAN_POINT ( 'NONE',  ( 75.00000000000000000, -8.500000000000000000, 12.99999999999999645 ) ) ;
#617 = VECTOR ( 'NONE', #356, 1000.000000000000000 ) ;
#618 = ORIENTED_EDGE ( 'NONE', *, *, #307, .T. ) ;
#619 = DIRECTION ( 'NONE',  ( -0.000000000000000000, 1.000000000000000000, 1.334402673828313339E-16 ) ) ;
#620 = CARTESIAN_POINT ( 'NONE',  ( 90.00000000000000000, -15.00000000000000178, 15.00000000000000178 ) ) ;
#621 = LINE ( 'NONE', #832, #308 ) ;
#622 = CIRCLE ( 'NONE', #284, 12.70000000000000462 ) ;
#623 = EDGE_LOOP ( 'NONE', ( #140, #48, #1074, #145 ) ) ;
#624 = FACE_OUTER_BOUND ( 'NONE', #1118, .T. ) ;
#625 = FACE_OUTER_BOUND ( 'NONE', #905, .T. ) ;
#626 = CIRCLE ( 'NONE', #869, 3.600000000000001421 ) ;
#627 = ORIENTED_EDGE ( 'NONE', *, *, #304, .T. ) ;
#628 = DIRECTION ( 'NONE',  ( 0.7071067811865517916, 0.7071067811865432429, 0.000000000000000000 ) ) ;
#629 = AXIS2_PLACEMENT_3D ( 'NONE', #1317, #398, #1102 ) ;
#630 = ORIENTED_EDGE ( 'NONE', *, *, #307, .F. ) ;
#631 = CYLINDRICAL_SURFACE ( 'NONE', #820, 3.600000000000005862 ) ;
#632 = VERTEX_POINT ( 'NONE', #98 ) ;
#633 = CARTESIAN_POINT ( 'NONE',  ( 3.300000000000007816, 9.999999999999998224, -14.99999999999999822 ) ) ;
#634 = EDGE_CURVE ( 'NONE', #1147, #829, #497, .T. ) ;
#635 = CARTESIAN_POINT ( 'NONE',  ( 90.00000000000000000, 15.00000000000000000, 15.00000000000000178 ) ) ;
#636 = EDGE_CURVE ( 'NONE', #1071, #233, #476, .T. ) ;
#637 = DIRECTION ( 'NONE',  ( -0.000000000000000000, -0.000000000000000000, 1.000000000000000000 ) ) ;
#638 = ORIENTED_EDGE ( 'NONE', *, *, #526, .F. ) ;
#639 = AXIS2_PLACEMENT_3D ( 'NONE', #728, #628, #830 ) ;
#640 = VERTEX_POINT ( 'NONE', #261 ) ;
#641 = CARTESIAN_POINT ( 'NONE',  ( 26.69999999999998863, 10.00000000000000355, 15.00000000000000355 ) ) ;
#642 = LINE ( 'NONE', #50, #861 ) ;
#643 = ORIENTED_EDGE ( 'NONE', *, *, #246, .T. ) ;
#644 = LINE ( 'NONE', #399, #1242 ) ;
#645 = FACE_BOUND ( 'NONE', #195, .T. ) ;
#646 = ADVANCED_FACE ( 'NONE', ( #68 ), #74, .F. ) ;
#647 = EDGE_CURVE ( 'NONE', #342, #36, #1183, .T. ) ;
#648 = VERTEX_POINT ( 'NONE', #1197 ) ;
#649 = VERTEX_POINT ( 'NONE', #1064 ) ;
#650 = DIRECTION ( 'NONE',  ( 0.000000000000000000, 1.334402673828313339E-16, -1.000000000000000000 ) ) ;
#651 = ORIENTED_EDGE ( 'NONE', *, *, #654, .T. ) ;
#652 = CARTESIAN_POINT ( 'NONE',  ( 25.00000000000000000, -10.00000000000000000, 15.00000000000000355 ) ) ;
#653 = CARTESIAN_POINT ( 'NONE',  ( 90.00000000000000000, -13.00000000000000000, 12.99999999999999645 ) ) ;
#654 = EDGE_CURVE ( 'NONE', #482, #909, #822, .T. ) ;
#655 = EDGE_LOOP ( 'NONE', ( #435, #64 ) ) ;
#656 = ORIENTED_EDGE ( 'NONE', *, *, #180, .F. ) ;
#657 = CARTESIAN_POINT ( 'NONE',  ( 62.29999999999999716, -2.314819644696196905E-31, 5.999999999999997335 ) ) ;
#658 = DIRECTION ( 'NONE',  ( 1.000000000000000000, 0.000000000000000000, 0.000000000000000000 ) ) ;
#659 = ORIENTED_EDGE ( 'NONE', *, *, #939, .F. ) ;
#660 = FILL_AREA_STYLE_COLOUR ( '', #929 ) ;
#661 = DIRECTION ( 'NONE',  ( 0.000000000000000000, -1.000000000000000000, -1.334402673828313093E-16 ) ) ;
#662 = ORIENTED_EDGE ( 'NONE', *, *, #974, .T. ) ;
#663 = ADVANCED_FACE ( 'NONE', ( #874 ), #254, .F. ) ;
#664 = CARTESIAN_POINT ( 'NONE',  ( 25.00000000000000000, -10.00000000000000000, -13.00000000000000355 ) ) ;
#665 = DIRECTION ( 'NONE',  ( 0.000000000000000000, -1.000000000000000000, -1.365923996832131116E-16 ) ) ;
#666 = ORIENTED_EDGE ( 'NONE', *, *, #1013, .T. ) ;
#667 = DIRECTION ( 'NONE',  ( 0.000000000000000000, -1.000000000000000000, -1.365923996832131116E-16 ) ) ;
#668 = FACE_BOUND ( 'NONE', #878, .T. ) ;
#669 = AXIS2_PLACEMENT_3D ( 'NONE', #104, #956, #15 ) ;
#670 = MANIFOLD_SOLID_BREP ( 'Cut-Extrude8', #1038 ) ;
#671 = ORIENTED_EDGE ( 'NONE', *, *, #723, .T. ) ;
#672 = DIRECTION ( 'NONE',  ( -1.000000000000000000, 0.000000000000000000, 0.000000000000000000 ) ) ;
#673 = CYLINDRICAL_SURFACE ( 'NONE', #334, 12.70000000000000284 ) ;
#674 = ORIENTED_EDGE ( 'NONE', *, *, #634, .F. ) ;
#675 = CARTESIAN_POINT ( 'NONE',  ( 25.00000000000000000, -10.00000000000000000, 15.00000000000000178 ) ) ;
#676 = CARTESIAN_POINT ( 'NONE',  ( 73.29999999999999716, -8.500000000000000000, -2.000000000000027978 ) ) ;
#677 = VECTOR ( 'NONE', #560, 1000.000000000000000 ) ;
#678 = ORIENTED_EDGE ( 'NONE', *, *, #922, .T. ) ;
#679 = CARTESIAN_POINT ( 'NONE',  ( 90.00000000000000000, 0.000000000000000000, 0.000000000000000000 ) ) ;
#680 = CARTESIAN_POINT ( 'NONE',  ( 5.000000000000002665, 9.999999999999998224, -14.99999999999999822 ) ) ;
#681 = AXIS2_PLACEMENT_3D ( 'NONE', #328, #738, #471 ) ;
#682 = SURFACE_STYLE_FILL_AREA ( #1261 ) ;
#683 = AXIS2_PLACEMENT_3D ( 'NONE', #770, #1181, #665 ) ;
#684 = DIRECTION ( 'NONE',  ( 0.000000000000000000, 0.000000000000000000, 1.000000000000000000 ) ) ;
#685 = EDGE_CURVE ( 'NONE', #1283, #550, #858, .T. ) ;
#686 = VERTEX_POINT ( 'NONE', #565 ) ;
#687 = LINE ( 'NONE', #1100, #741 ) ;
#688 = CYLINDRICAL_SURFACE ( 'NONE', #1202, 1.699999999999991518 ) ;
#689 = CIRCLE ( 'NONE', #581, 1.699999999999987965 ) ;
#690 = CARTESIAN_POINT ( 'NONE',  ( 25.00000000000000000, -10.00000000000000000, -13.00000000000000355 ) ) ;
#691 = VECTOR ( 'NONE', #23, 1000.000000000000000 ) ;
#692 = DIRECTION ( 'NONE',  ( 0.000000000000000000, 1.000000000000000000, 0.000000000000000000 ) ) ;
#693 = EDGE_CURVE ( 'NONE', #402, #220, #882, .T. ) ;
#694 = ADVANCED_FACE ( 'NONE', ( #364 ), #52, .F. ) ;
#695 = AXIS2_PLACEMENT_3D ( 'NONE', #275, #866, #778 ) ;
#696 = EDGE_LOOP ( 'NONE', ( #499, #1269, #389, #196, #175 ) ) ;
#697 = DIRECTION ( 'NONE',  ( -0.000000000000000000, -0.000000000000000000, 1.000000000000000000 ) ) ;
#698 = FACE_OUTER_BOUND ( 'NONE', #1006, .T. ) ;
#699 = CARTESIAN_POINT ( 'NONE',  ( 90.00000000000000000, 13.00000000000000178, -13.00000000000000000 ) ) ;
#700 = AXIS2_PLACEMENT_3D ( 'NONE', #675, #178, #1168 ) ;
#701 = ORIENTED_EDGE ( 'NONE', *, *, #1075, .T. ) ;
#702 = LINE ( 'NONE', #799, #174 ) ;
#703 = DIRECTION ( 'NONE',  ( 0.000000000000000000, 0.000000000000000000, -1.000000000000000000 ) ) ;
#704 = CARTESIAN_POINT ( 'NONE',  ( 23.30000000000000782, -10.00000000000000000, -14.99999999999999822 ) ) ;
#705 = ORIENTED_EDGE ( 'NONE', *, *, #1287, .T. ) ;
#706 = EDGE_LOOP ( 'NONE', ( #781, #873, #202, #310, #430 ) ) ;
#707 = CARTESIAN_POINT ( 'NONE',  ( 75.00000000000000000, -8.500000000000000000, -2.000000000000027978 ) ) ;
#708 = EDGE_CURVE ( 'NONE', #1237, #477, #712, .T. ) ;
#709 = FACE_OUTER_BOUND ( 'NONE', #863, .T. ) ;
#710 = DIRECTION ( 'NONE',  ( -0.000000000000000000, -0.000000000000000000, 1.000000000000000000 ) ) ;
#711 = ORIENTED_EDGE ( 'NONE', *, *, #1307, .F. ) ;
#712 = CIRCLE ( 'NONE', #135, 1.699999999999991518 ) ;
#713 = ORIENTED_EDGE ( 'NONE', *, *, #437, .T. ) ;
#714 = ORIENTED_EDGE ( 'NONE', *, *, #782, .T. ) ;
#715 = DIRECTION ( 'NONE',  ( 0.000000000000000000, 0.000000000000000000, 1.000000000000000000 ) ) ;
#716 = CIRCLE ( 'NONE', #264, 1.699999999999991518 ) ;
#717 = DIRECTION ( 'NONE',  ( -0.000000000000000000, -0.000000000000000000, 1.000000000000000000 ) ) ;
#718 = ADVANCED_FACE ( 'NONE', ( #1270 ), #269, .F. ) ;
#719 = LINE ( 'NONE', #1231, #1293 ) ;
#720 = ORIENTED_EDGE ( 'NONE', *, *, #1158, .T. ) ;
#721 = CARTESIAN_POINT ( 'NONE',  ( 26.69999999999999218, -10.00000000000000000, 12.99999999999999645 ) ) ;
#722 = DIRECTION ( 'NONE',  ( -0.000000000000000000, -0.000000000000000000, 1.000000000000000000 ) ) ;
#723 = EDGE_CURVE ( 'NONE', #250, #1237, #169, .T. ) ;
#724 = LINE ( 'NONE', #1215, #1015 ) ;
#725 = EDGE_CURVE ( 'NONE', #1172, #829, #1039, .T. ) ;
#726 = EDGE_CURVE ( 'NONE', #250, #39, #396, .T. ) ;
#727 = ORIENTED_EDGE ( 'NONE', *, *, #1186, .F. ) ;
#728 = CARTESIAN_POINT ( 'NONE',  ( 2.682337649086337983, 2.682337649086305564, 28.00000000000000355 ) ) ;
#729 = CARTESIAN_POINT ( 'NONE',  ( 62.29999999999999716, -2.314819644696196905E-31, -13.00000000000000000 ) ) ;
#730 = CARTESIAN_POINT ( 'NONE',  ( 90.00000000000000000, 13.00000000000000000, 13.00000000000000000 ) ) ;
#731 = EDGE_CURVE ( 'NONE', #1023, #382, #490, .T. ) ;
#732 = ORIENTED_EDGE ( 'NONE', *, *, #1272, .T. ) ;
#733 = CARTESIAN_POINT ( 'NONE',  ( 6.699999999999993960, 9.999999999999998224, -13.00000000000000000 ) ) ;
#734 = VECTOR ( 'NONE', #355, 1000.000000000000000 ) ;
#735 = ORIENTED_EDGE ( 'NONE', *, *, #546, .F. ) ;
#736 = DIRECTION ( 'NONE',  ( 0.000000000000000000, 1.334402673828313339E-16, -1.000000000000000000 ) ) ;
#737 = ORIENTED_EDGE ( 'NONE', *, *, #173, .T. ) ;
#738 = DIRECTION ( 'NONE',  ( -0.000000000000000000, -0.000000000000000000, 1.000000000000000000 ) ) ;
#739 = AXIS2_PLACEMENT_3D ( 'NONE', #270, #998, #83 ) ;
#740 = DIRECTION ( 'NONE',  ( 0.000000000000000000, -1.000000000000000000, 0.000000000000000000 ) ) ;
#741 = VECTOR ( 'NONE', #182, 1000.000000000000000 ) ;
#742 = ORIENTED_EDGE ( 'NONE', *, *, #1240, .T. ) ;
#743 = VECTOR ( 'NONE', #925, 1000.000000000000000 ) ;
#744 = VERTEX_POINT ( 'NONE', #608 ) ;
#745 = CARTESIAN_POINT ( 'NONE',  ( 25.00000000000000000, -10.00000000000000000, 12.99999999999999645 ) ) ;
#746 =( NAMED_UNIT ( * ) SI_UNIT ( $, .STERADIAN. ) SOLID_ANGLE_UNIT ( ) );
#747 = EDGE_CURVE ( 'NONE', #967, #1277, #292, .T. ) ;
#748 = DIRECTION ( 'NONE',  ( 0.000000000000000000, 0.000000000000000000, -1.000000000000000000 ) ) ;
#749 = AXIS2_PLACEMENT_3D ( 'NONE', #154, #1282, #997 ) ;
#750 = EDGE_LOOP ( 'NONE', ( #492, #857, #332, #656, #955 ) ) ;
#751 = CIRCLE ( 'NONE', #1286, 1.699999999999998401 ) ;
#752 = ORIENTED_EDGE ( 'NONE', *, *, #854, .T. ) ;
#753 = DIRECTION ( 'NONE',  ( 0.000000000000000000, 1.000000000000000000, 1.365923996832131116E-16 ) ) ;
#754 =( LENGTH_UNIT ( ) NAMED_UNIT ( * ) SI_UNIT ( .MILLI., .METRE. ) );
#755 = ORIENTED_EDGE ( 'NONE', *, *, #248, .T. ) ;
#756 = PRODUCT ( 'leg_lower_1_mirrored', 'leg_lower_1_mirrored', '', ( #954 ) ) ;
#757 = PRESENTATION_LAYER_ASSIGNMENT (  '', '', ( #1164 ) ) ;
#758 = EDGE_CURVE ( 'NONE', #1266, #649, #290, .T. ) ;
#759 = DIRECTION ( 'NONE',  ( 0.000000000000000000, 0.000000000000000000, 1.000000000000000000 ) ) ;
#760 = VERTEX_POINT ( 'NONE', #806 ) ;
#761 = ORIENTED_EDGE ( 'NONE', *, *, #825, .F. ) ;
#762 = CARTESIAN_POINT ( 'NONE',  ( 75.00000000000000000, 8.500000000000000000, 15.00000000000000178 ) ) ;
#763 = ORIENTED_EDGE ( 'NONE', *, *, #803, .T. ) ;
#764 = DIRECTION ( 'NONE',  ( 1.000000000000000000, 0.000000000000000000, 0.000000000000000000 ) ) ;
#765 = AXIS2_PLACEMENT_3D ( 'NONE', #1176, #590, #793 ) ;
#766 = DIRECTION ( 'NONE',  ( 0.000000000000000000, 1.334402673828313339E-16, -1.000000000000000000 ) ) ;
#767 = EDGE_CURVE ( 'NONE', #548, #760, #189, .T. ) ;
#768 = ORIENTED_EDGE ( 'NONE', *, *, #404, .F. ) ;
#769 = DIRECTION ( 'NONE',  ( 1.000000000000000000, 0.000000000000000000, 0.000000000000000000 ) ) ;
#770 = CARTESIAN_POINT ( 'NONE',  ( 75.00000000000000000, 0.000000000000000000, -13.00000000000000000 ) ) ;
#771 = ORIENTED_EDGE ( 'NONE', *, *, #1035, .T. ) ;
#772 = CARTESIAN_POINT ( 'NONE',  ( 90.00000000000000000, -15.00000000000000178, 15.00000000000000178 ) ) ;
#773 = EDGE_CURVE ( 'NONE', #632, #105, #875, .T. ) ;
#774 = EDGE_LOOP ( 'NONE', ( #982, #346 ) ) ;
#775 = CARTESIAN_POINT ( 'NONE',  ( 90.00000000000000000, -15.00000000000000178, -14.99999999999999822 ) ) ;
#776 = DIRECTION ( 'NONE',  ( 0.000000000000000000, 1.334402673828313339E-16, -1.000000000000000000 ) ) ;
#777 = ORIENTED_EDGE ( 'NONE', *, *, #1029, .F. ) ;
#778 = DIRECTION ( 'NONE',  ( 0.000000000000000000, -0.000000000000000000, -1.000000000000000000 ) ) ;
#779 = FACE_OUTER_BOUND ( 'NONE', #144, .T. ) ;
#780 = AXIS2_PLACEMENT_3D ( 'NONE', #40, #510, #815 ) ;
#781 = ORIENTED_EDGE ( 'NONE', *, *, #341, .T. ) ;
#782 = EDGE_CURVE ( 'NONE', #165, #648, #87, .T. ) ;
#783 = LINE ( 'NONE', #79, #1302 ) ;
#784 = CARTESIAN_POINT ( 'NONE',  ( 25.00000000000000000, 10.00000000000000355, -13.00000000000000000 ) ) ;
#785 = ADVANCED_FACE ( 'NONE', ( #486 ), #1019, .F. ) ;
#786 = CARTESIAN_POINT ( 'NONE',  ( 76.69999999999998863, -8.500000000000000000, -2.000000000000027978 ) ) ;
#787 = LINE ( 'NONE', #185, #434 ) ;
#788 = CIRCLE ( 'NONE', #543, 1.699999999999986189 ) ;
#789 = EDGE_LOOP ( 'NONE', ( #536, #1017, #441, #970 ) ) ;
#790 = LINE ( 'NONE', #798, #1135 ) ;
#791 = DIRECTION ( 'NONE',  ( -1.000000000000000000, -0.000000000000000000, -0.000000000000000000 ) ) ;
#792 = CIRCLE ( 'NONE', #1199, 1.699999999999989742 ) ;
#793 = DIRECTION ( 'NONE',  ( 1.000000000000000000, 0.000000000000000000, 0.000000000000000000 ) ) ;
#794 = EDGE_CURVE ( 'NONE', #760, #1228, #1205, .T. ) ;
#795 = CARTESIAN_POINT ( 'NONE',  ( 25.00000000000000000, 10.00000000000000355, 15.00000000000000355 ) ) ;
#796 = UNCERTAINTY_MEASURE_WITH_UNIT (LENGTH_MEASURE( 1.000000000000000082E-05 ), #754, 'distance_accuracy_value', 'NONE');
#797 = ORIENTED_EDGE ( 'NONE', *, *, #845, .T. ) ;
#798 = CARTESIAN_POINT ( 'NONE',  ( 41.18233764908578820, -35.81766235091361494, -13.00000000000000711 ) ) ;
#799 = CARTESIAN_POINT ( 'NONE',  ( 0.000000000000000000, -15.00000000000000178, -14.99999999999999822 ) ) ;
#800 = AXIS2_PLACEMENT_3D ( 'NONE', #620, #117, #1026 ) ;
#801 = FACE_OUTER_BOUND ( 'NONE', #1083, .T. ) ;
#802 = CIRCLE ( 'NONE', #995, 1.699999999999993072 ) ;
#803 = EDGE_CURVE ( 'NONE', #26, #640, #592, .T. ) ;
#804 = VERTEX_POINT ( 'NONE', #1306 ) ;
#805 = FACE_OUTER_BOUND ( 'NONE', #234, .T. ) ;
#806 = CARTESIAN_POINT ( 'NONE',  ( 90.00000000000000000, 13.00000000000000178, -13.00000000000000000 ) ) ;
#807 = DIRECTION ( 'NONE',  ( 0.000000000000000000, 1.000000000000000000, 1.365923996832131116E-16 ) ) ;
#808 = VECTOR ( 'NONE', #82, 1000.000000000000000 ) ;
#809 = ADVANCED_FACE ( 'NONE', ( #1008 ), #1110, .F. ) ;
#810 = EDGE_LOOP ( 'NONE', ( #422, #113 ) ) ;
#811 = ORIENTED_EDGE ( 'NONE', *, *, #522, .F. ) ;
#812 = CARTESIAN_POINT ( 'NONE',  ( 23.30000000000001137, -10.00000000000000000, 12.99999999999999645 ) ) ;
#813 = LINE ( 'NONE', #184, #1111 ) ;
#814 = AXIS2_PLACEMENT_3D ( 'NONE', #824, #1229, #311 ) ;
#815 = DIRECTION ( 'NONE',  ( -1.000000000000000000, 0.000000000000000000, 0.000000000000000000 ) ) ;
#816 = ORIENTED_EDGE ( 'NONE', *, *, #827, .F. ) ;
#817 = ORIENTED_EDGE ( 'NONE', *, *, #827, .T. ) ;
#818 = FACE_BOUND ( 'NONE', #893, .T. ) ;
#819 = LINE ( 'NONE', #305, #993 ) ;
#820 = AXIS2_PLACEMENT_3D ( 'NONE', #226, #125, #222 ) ;
#821 = DIRECTION ( 'NONE',  ( -0.000000000000000000, -0.000000000000000000, 1.000000000000000000 ) ) ;
#822 = CIRCLE ( 'NONE', #1051, 12.70000000000000462 ) ;
#823 = EDGE_LOOP ( 'NONE', ( #215, #1099, #1244, #1093, #727, #1218, #771, #720 ) ) ;
#824 = CARTESIAN_POINT ( 'NONE',  ( 25.00000000000000000, 10.00000000000000355, 15.00000000000000178 ) ) ;
#825 = EDGE_CURVE ( 'NONE', #550, #804, #813, .T. ) ;
#826 = DIRECTION ( 'NONE',  ( 0.000000000000000000, -1.000000000000000000, -1.334402673828313339E-16 ) ) ;
#827 = EDGE_CURVE ( 'NONE', #1131, #1172, #1220, .T. ) ;
#828 = CARTESIAN_POINT ( 'NONE',  ( 20.36467529817242905, -15.00000000000000000, 28.00000000000000355 ) ) ;
#829 = VERTEX_POINT ( 'NONE', #298 ) ;
#830 = DIRECTION ( 'NONE',  ( -0.7071067811865432429, 0.7071067811865517916, 0.000000000000000000 ) ) ;
#831 = CARTESIAN_POINT ( 'NONE',  ( 0.000000000000000000, 15.00000000000000000, 15.00000000000000178 ) ) ;
#832 = CARTESIAN_POINT ( 'NONE',  ( 90.00000000000000000, 13.00000000000000000, 5.999999999999999112 ) ) ;
#833 = EDGE_LOOP ( 'NONE', ( #16, #60 ) ) ;
#834 = DIRECTION ( 'NONE',  ( -1.000000000000000000, 0.000000000000000000, -0.000000000000000000 ) ) ;
#835 = DIRECTION ( 'NONE',  ( 0.000000000000000000, -1.334402673828313339E-16, 1.000000000000000000 ) ) ;
#836 = DIRECTION ( 'NONE',  ( 1.000000000000000000, 0.000000000000000000, 0.000000000000000000 ) ) ;
#837 = ADVANCED_FACE ( 'NONE', ( #709 ), #502, .F. ) ;
#838 = ORIENTED_EDGE ( 'NONE', *, *, #25, .F. ) ;
#839 = DIRECTION ( 'NONE',  ( 0.000000000000000000, 1.000000000000000000, 0.000000000000000000 ) ) ;
#840 = ORIENTED_EDGE ( 'NONE', *, *, #726, .F. ) ;
#841 = CIRCLE ( 'NONE', #322, 1.699999999999999289 ) ;
#842 = DIRECTION ( 'NONE',  ( 0.000000000000000000, 1.334402673828313339E-16, -1.000000000000000000 ) ) ;
#843 = AXIS2_PLACEMENT_3D ( 'NONE', #745, #650, #242 ) ;
#844 = EDGE_LOOP ( 'NONE', ( #1167, #852, #445, #975, #870, #1182, #1113, #705 ) ) ;
#845 = EDGE_CURVE ( 'NONE', #105, #22, #819, .T. ) ;
#846 = EDGE_LOOP ( 'NONE', ( #295, #240 ) ) ;
#847 = ORIENTED_EDGE ( 'NONE', *, *, #535, .T. ) ;
#848 = APPLICATION_PROTOCOL_DEFINITION ( 'draft international standard', 'automotive_design', 1998, #903 ) ;
#849 = AXIS2_PLACEMENT_3D ( 'NONE', #868, #552, #1162 ) ;
#850 = CARTESIAN_POINT ( 'NONE',  ( 0.000000000000000000, -15.00000000000000178, 15.00000000000000178 ) ) ;
#851 = AXIS2_PLACEMENT_3D ( 'NONE', #1076, #159, #562 ) ;
#852 = ORIENTED_EDGE ( 'NONE', *, *, #341, .F. ) ;
#853 = AXIS2_PLACEMENT_3D ( 'NONE', #397, #11, #405 ) ;
#854 = EDGE_CURVE ( 'NONE', #548, #190, #1129, .T. ) ;
#855 = ORIENTED_EDGE ( 'NONE', *, *, #199, .T. ) ;
#856 = CARTESIAN_POINT ( 'NONE',  ( 75.00000000000000000, 0.000000000000000000, -6.000000000000001776 ) ) ;
#857 = ORIENTED_EDGE ( 'NONE', *, *, #1058, .T. ) ;
#858 = LINE ( 'NONE', #458, #1104 ) ;
#859 = FACE_BOUND ( 'NONE', #1156, .T. ) ;
#860 = VECTOR ( 'NONE', #1291, 1000.000000000000000 ) ;
#861 = VECTOR ( 'NONE', #1259, 1000.000000000000000 ) ;
#862 = ORIENTED_EDGE ( 'NONE', *, *, #25, .T. ) ;
#863 = EDGE_LOOP ( 'NONE', ( #618, #755, #604, #209 ) ) ;
#864 = CARTESIAN_POINT ( 'NONE',  ( 26.69999999999999574, 10.00000000000000355, -14.99999999999999822 ) ) ;
#865 = ORIENTED_EDGE ( 'NONE', *, *, #304, .F. ) ;
#866 = DIRECTION ( 'NONE',  ( 0.000000000000000000, -1.000000000000000000, 0.000000000000000000 ) ) ;
#867 = ADVANCED_FACE ( 'NONE', ( #613 ), #480, .F. ) ;
#868 = CARTESIAN_POINT ( 'NONE',  ( 25.00000000000000000, 10.00000000000000355, 15.00000000000000178 ) ) ;
#869 = AXIS2_PLACEMENT_3D ( 'NONE', #131, #340, #58 ) ;
#870 = ORIENTED_EDGE ( 'NONE', *, *, #647, .F. ) ;
#871 = DIRECTION ( 'NONE',  ( -0.000000000000000000, 1.000000000000000000, 1.334402673828313093E-16 ) ) ;
#872 = DIRECTION ( 'NONE',  ( -0.000000000000000000, -0.000000000000000000, 1.000000000000000000 ) ) ;
#873 = ORIENTED_EDGE ( 'NONE', *, *, #1106, .T. ) ;
#874 = FACE_OUTER_BOUND ( 'NONE', #395, .T. ) ;
#875 = CIRCLE ( 'NONE', #462, 1.699999999999993072 ) ;
#876 = CARTESIAN_POINT ( 'NONE',  ( 59.00000000000003553, 13.00000000000000178, -5.999999999999999112 ) ) ;
#877 = ADVANCED_FACE ( 'NONE', ( #801, #288, #421, #312, #1134 ), #1037, .T. ) ;
#878 = EDGE_LOOP ( 'NONE', ( #1165, #881 ) ) ;
#879 = DIRECTION ( 'NONE',  ( -1.000000000000000000, 0.000000000000000000, 0.000000000000000000 ) ) ;
#880 = CARTESIAN_POINT ( 'NONE',  ( 87.70000000000000284, 1.555301434917139419E-15, -14.99999999999999822 ) ) ;
#881 = ORIENTED_EDGE ( 'NONE', *, *, #535, .F. ) ;
#882 = LINE ( 'NONE', #786, #517 ) ;
#883 = LINE ( 'NONE', #676, #427 ) ;
#884 = ADVANCED_FACE ( 'NONE', ( #219 ), #1230, .T. ) ;
#885 = ADVANCED_FACE ( 'NONE', ( #625 ), #1239, .F. ) ;
#886 = ORIENTED_EDGE ( 'NONE', *, *, #97, .F. ) ;
#887 =( GEOMETRIC_REPRESENTATION_CONTEXT ( 3 ) GLOBAL_UNCERTAINTY_ASSIGNED_CONTEXT ( ( #796 ) ) GLOBAL_UNIT_ASSIGNED_CONTEXT ( ( #754, #539, #746 ) ) REPRESENTATION_CONTEXT ( 'NONE', 'WORKASPACE' ) );
#888 = PLANE ( 'NONE',  #210 ) ;
#889 = DIRECTION ( 'NONE',  ( -0.000000000000000000, -0.000000000000000000, -1.000000000000000000 ) ) ;
#890 = PRESENTATION_STYLE_ASSIGNMENT (( #559 ) ) ;
#891 = CARTESIAN_POINT ( 'NONE',  ( 26.69999999999999574, -10.00000000000000000, -14.99999999999999822 ) ) ;
#892 = CIRCLE ( 'NONE', #368, 1.699999999999993072 ) ;
#893 = EDGE_LOOP ( 'NONE', ( #952, #71 ) ) ;
#894 = PLANE ( 'NONE',  #3 ) ;
#895 = CARTESIAN_POINT ( 'NONE',  ( 23.30000000000001137, 10.00000000000000355, 15.00000000000000178 ) ) ;
#896 = CARTESIAN_POINT ( 'NONE',  ( 5.000000000000002665, 9.999999999999998224, 15.00000000000000178 ) ) ;
#897 = CARTESIAN_POINT ( 'NONE',  ( 25.00000000000000000, -10.00000000000000000, 15.00000000000000355 ) ) ;
#898 = ORIENTED_EDGE ( 'NONE', *, *, #1136, .T. ) ;
#899 = CARTESIAN_POINT ( 'NONE',  ( 18.36467529817245747, -13.00000000000000178, -13.00000000000000355 ) ) ;
#900 = LINE ( 'NONE', #1276, #617 ) ;
#901 = EDGE_CURVE ( 'NONE', #260, #1016, #689, .T. ) ;
#902 = CARTESIAN_POINT ( 'NONE',  ( 25.00000000000000000, 10.00000000000000355, -14.99999999999999822 ) ) ;
#903 = APPLICATION_CONTEXT ( 'automotive_design' ) ;
#904 = CARTESIAN_POINT ( 'NONE',  ( 90.00000000000000000, -15.00000000000000178, 15.00000000000000178 ) ) ;
#905 = EDGE_LOOP ( 'NONE', ( #611, #1256, #354, #865 ) ) ;
#906 = CYLINDRICAL_SURFACE ( 'NONE', #12, 1.699999999999993072 ) ;
#907 = DIRECTION ( 'NONE',  ( 0.000000000000000000, -1.334402673828313339E-16, 1.000000000000000000 ) ) ;
#908 = EDGE_CURVE ( 'NONE', #507, #375, #446, .T. ) ;
#909 = VERTEX_POINT ( 'NONE', #729 ) ;
#910 = ORIENTED_EDGE ( 'NONE', *, *, #1186, .T. ) ;
#911 = LINE ( 'NONE', #494, #743 ) ;
#912 = DIRECTION ( 'NONE',  ( 0.000000000000000000, -1.000000000000000000, -1.365923996832131116E-16 ) ) ;
#913 = CIRCLE ( 'NONE', #327, 1.699999999999989742 ) ;
#914 = DIRECTION ( 'NONE',  ( -0.000000000000000000, -0.000000000000000000, 1.000000000000000000 ) ) ;
#915 = VERTEX_POINT ( 'NONE', #18 ) ;
#916 = VERTEX_POINT ( 'NONE', #509 ) ;
#917 = AXIS2_PLACEMENT_3D ( 'NONE', #984, #684, #1005 ) ;
#918 = LINE ( 'NONE', #1128, #1225 ) ;
#919 = CARTESIAN_POINT ( 'NONE',  ( 75.00000000000000000, 8.500000000000000000, -2.000000000000027978 ) ) ;
#920 = VECTOR ( 'NONE', #232, 1000.000000000000000 ) ;
#921 = CARTESIAN_POINT ( 'NONE',  ( 90.00000000000000000, -13.00000000000000000, -13.00000000000000355 ) ) ;
#922 = EDGE_CURVE ( 'NONE', #39, #477, #416, .T. ) ;
#923 = ORIENTED_EDGE ( 'NONE', *, *, #636, .T. ) ;
#924 = EDGE_CURVE ( 'NONE', #1309, #100, #13, .T. ) ;
#925 = DIRECTION ( 'NONE',  ( -0.000000000000000000, -0.000000000000000000, 1.000000000000000000 ) ) ;
#926 = CARTESIAN_POINT ( 'NONE',  ( 3.300000000000011369, 9.999999999999998224, 15.00000000000000178 ) ) ;
#927 = AXIS2_PLACEMENT_3D ( 'NONE', #317, #121, #521 ) ;
#928 = CARTESIAN_POINT ( 'NONE',  ( 90.00000000000000000, 15.00000000000000000, -14.99999999999999822 ) ) ;
#929 = COLOUR_RGB ( '',0.7921568627450980005, 0.8196078431372548767, 0.9333333333333333481 ) ;
#930 = ORIENTED_EDGE ( 'NONE', *, *, #922, .F. ) ;
#931 = FACE_OUTER_BOUND ( 'NONE', #28, .T. ) ;
#932 = DIRECTION ( 'NONE',  ( -0.000000000000000000, -0.000000000000000000, 1.000000000000000000 ) ) ;
#933 = EDGE_CURVE ( 'NONE', #1071, #46, #1234, .T. ) ;
#934 = CYLINDRICAL_SURFACE ( 'NONE', #669, 1.699999999999989742 ) ;
#935 = VECTOR ( 'NONE', #1226, 1000.000000000000000 ) ;
#936 = ORIENTED_EDGE ( 'NONE', *, *, #1240, .F. ) ;
#937 = CARTESIAN_POINT ( 'NONE',  ( 0.000000000000000000, 13.00000000000000000, 13.00000000000000000 ) ) ;
#938 = DIRECTION ( 'NONE',  ( 1.000000000000000000, 0.000000000000000000, 0.000000000000000000 ) ) ;
#939 = EDGE_CURVE ( 'NONE', #301, #190, #981, .T. ) ;
#940 = EDGE_LOOP ( 'NONE', ( #152, #514, #289, #627 ) ) ;
#941 = CARTESIAN_POINT ( 'NONE',  ( 90.00000000000000000, -15.00000000000000178, 15.00000000000000178 ) ) ;
#942 = ORIENTED_EDGE ( 'NONE', *, *, #450, .T. ) ;
#943 = CARTESIAN_POINT ( 'NONE',  ( 6.699999999999997513, 9.999999999999998224, -14.99999999999999822 ) ) ;
#944 = ADVANCED_FACE ( 'NONE', ( #1070 ), #252, .F. ) ;
#945 = ORIENTED_EDGE ( 'NONE', *, *, #908, .T. ) ;
#946 = ORIENTED_EDGE ( 'NONE', *, *, #110, .F. ) ;
#947 = DIRECTION ( 'NONE',  ( -1.000000000000000000, 0.000000000000000000, 0.000000000000000000 ) ) ;
#948 = AXIS2_PLACEMENT_3D ( 'NONE', #1116, #710, #541 ) ;
#949 = DIRECTION ( 'NONE',  ( -0.000000000000000000, -0.000000000000000000, 1.000000000000000000 ) ) ;
#950 = CARTESIAN_POINT ( 'NONE',  ( 71.39999999999999147, 4.408728476930468193E-16, 15.00000000000000178 ) ) ;
#951 = ORIENTED_EDGE ( 'NONE', *, *, #1000, .F. ) ;
#952 = ORIENTED_EDGE ( 'NONE', *, *, #803, .F. ) ;
#953 = ORIENTED_EDGE ( 'NONE', *, *, #725, .T. ) ;
#954 = PRODUCT_CONTEXT ( 'NONE', #903, 'mechanical' ) ;
#955 = ORIENTED_EDGE ( 'NONE', *, *, #230, .F. ) ;
#956 = DIRECTION ( 'NONE',  ( -0.000000000000000000, -0.000000000000000000, 1.000000000000000000 ) ) ;
#957 = VECTOR ( 'NONE', #54, 1000.000000000000000 ) ;
#958 = DIRECTION ( 'NONE',  ( 0.000000000000000000, 0.000000000000000000, 1.000000000000000000 ) ) ;
#959 = VECTOR ( 'NONE', #464, 1000.000000000000000 ) ;
#960 = ORIENTED_EDGE ( 'NONE', *, *, #845, .F. ) ;
#961 = EDGE_CURVE ( 'NONE', #760, #1023, #1305, .T. ) ;
#962 = EDGE_CURVE ( 'NONE', #1228, #1283, #465, .T. ) ;
#963 = ORIENTED_EDGE ( 'NONE', *, *, #199, .F. ) ;
#964 = EDGE_CURVE ( 'NONE', #640, #26, #622, .T. ) ;
#965 = DIRECTION ( 'NONE',  ( 1.000000000000000000, 0.000000000000000000, 0.000000000000000000 ) ) ;
#966 = CARTESIAN_POINT ( 'NONE',  ( 73.29999999999999716, -8.500000000000000000, 15.00000000000000178 ) ) ;
#967 = VERTEX_POINT ( 'NONE', #1096 ) ;
#968 = PLANE ( 'NONE',  #43 ) ;
#969 = AXIS2_PLACEMENT_3D ( 'NONE', #919, #1299, #6 ) ;
#970 = ORIENTED_EDGE ( 'NONE', *, *, #491, .F. ) ;
#971 = ORIENTED_EDGE ( 'NONE', *, *, #248, .F. ) ;
#972 = DIRECTION ( 'NONE',  ( 0.000000000000000000, 0.000000000000000000, 1.000000000000000000 ) ) ;
#973 = DIRECTION ( 'NONE',  ( -0.000000000000000000, -0.000000000000000000, 1.000000000000000000 ) ) ;
#974 = EDGE_CURVE ( 'NONE', #1016, #260, #1160, .T. ) ;
#975 = ORIENTED_EDGE ( 'NONE', *, *, #1066, .F. ) ;
#976 =( NAMED_UNIT ( * ) PLANE_ANGLE_UNIT ( ) SI_UNIT ( $, .RADIAN. ) );
#977 = FACE_BOUND ( 'NONE', #1086, .T. ) ;
#978 = CIRCLE ( 'NONE', #843, 1.699999999999989742 ) ;
#979 = ORIENTED_EDGE ( 'NONE', *, *, #685, .T. ) ;
#980 = LINE ( 'NONE', #65, #959 ) ;
#981 = LINE ( 'NONE', #372, #1207 ) ;
#982 = ORIENTED_EDGE ( 'NONE', *, *, #1020, .F. ) ;
#983 = EDGE_CURVE ( 'NONE', #500, #129, #86, .T. ) ;
#984 = CARTESIAN_POINT ( 'NONE',  ( 75.00000000000000000, 0.000000000000000000, 15.00000000000000178 ) ) ;
#985 = UNCERTAINTY_MEASURE_WITH_UNIT (LENGTH_MEASURE( 1.000000000000000082E-05 ), #442, 'distance_accuracy_value', 'NONE');
#986 = VERTEX_POINT ( 'NONE', #880 ) ;
#987 = AXIS2_PLACEMENT_3D ( 'NONE', #784, #1188, #989 ) ;
#988 = CARTESIAN_POINT ( 'NONE',  ( 90.00000000000000000, 13.00000000000000000, 13.00000000000000000 ) ) ;
#989 = DIRECTION ( 'NONE',  ( 0.000000000000000000, -1.000000000000000000, 0.000000000000000000 ) ) ;
#990 = DIRECTION ( 'NONE',  ( 0.000000000000000000, -1.000000000000000000, 0.000000000000000000 ) ) ;
#991 = CARTESIAN_POINT ( 'NONE',  ( 3.300000000000011369, 9.999999999999998224, -13.00000000000000000 ) ) ;
#992 = ADVANCED_FACE ( 'NONE', ( #183 ), #673, .F. ) ;
#993 = VECTOR ( 'NONE', #717, 1000.000000000000000 ) ;
#994 = ORIENTED_EDGE ( 'NONE', *, *, #1161, .F. ) ;
#995 = AXIS2_PLACEMENT_3D ( 'NONE', #612, #715, #115 ) ;
#996 = LINE ( 'NONE', #1095, #547 ) ;
#997 = DIRECTION ( 'NONE',  ( 1.000000000000000000, 0.000000000000000000, 0.000000000000000000 ) ) ;
#998 = DIRECTION ( 'NONE',  ( 0.000000000000000000, 1.334402673828313339E-16, -1.000000000000000000 ) ) ;
#999 = AXIS2_PLACEMENT_3D ( 'NONE', #61, #1079, #373 ) ;
#1000 = EDGE_CURVE ( 'NONE', #39, #250, #1255, .T. ) ;
#1001 = VERTEX_POINT ( 'NONE', #59 ) ;
#1002 = DIRECTION ( 'NONE',  ( -0.000000000000000000, -0.000000000000000000, 1.000000000000000000 ) ) ;
#1003 = DIRECTION ( 'NONE',  ( 0.000000000000000000, -1.334402673828313339E-16, 1.000000000000000000 ) ) ;
#1004 = DIRECTION ( 'NONE',  ( 1.000000000000000000, 0.000000000000000000, 0.000000000000000000 ) ) ;
#1005 = DIRECTION ( 'NONE',  ( 1.000000000000000000, 0.000000000000000000, 0.000000000000000000 ) ) ;
#1006 = EDGE_LOOP ( 'NONE', ( #951, #678, #701, #1157 ) ) ;
#1007 = DIRECTION ( 'NONE',  ( -0.000000000000000000, 1.445602896647339410E-16, -1.000000000000000000 ) ) ;
#1008 = FACE_OUTER_BOUND ( 'NONE', #1222, .T. ) ;
#1009 = EDGE_LOOP ( 'NONE', ( #946, #1236 ) ) ;
#1010 = ORIENTED_EDGE ( 'NONE', *, *, #933, .F. ) ;
#1011 = DIRECTION ( 'NONE',  ( 0.000000000000000000, 0.000000000000000000, 1.000000000000000000 ) ) ;
#1012 = CARTESIAN_POINT ( 'NONE',  ( 25.00000000000000000, 10.00000000000000355, 15.00000000000000178 ) ) ;
#1013 = EDGE_CURVE ( 'NONE', #236, #599, #70, .T. ) ;
#1014 = DIRECTION ( 'NONE',  ( 0.000000000000000000, -1.000000000000000000, -1.334402673828313339E-16 ) ) ;
#1015 = VECTOR ( 'NONE', #141, 1000.000000000000000 ) ;
#1016 = VERTEX_POINT ( 'NONE', #1077 ) ;
#1017 = ORIENTED_EDGE ( 'NONE', *, *, #344, .T. ) ;
#1018 = CARTESIAN_POINT ( 'NONE',  ( 90.00000000000000000, 13.00000000000000000, 5.999999999999999112 ) ) ;
#1019 = CYLINDRICAL_SURFACE ( 'NONE', #569, 1.699999999999989742 ) ;
#1020 = EDGE_CURVE ( 'NONE', #22, #744, #278, .T. ) ;
#1021 = DIRECTION ( 'NONE',  ( 0.000000000000000000, 1.334402673828313339E-16, -1.000000000000000000 ) ) ;
#1022 = EDGE_CURVE ( 'NONE', #1228, #111, #377, .T. ) ;
#1023 = VERTEX_POINT ( 'NONE', #580 ) ;
#1024 = VECTOR ( 'NONE', #88, 1000.000000000000000 ) ;
#1025 = DIRECTION ( 'NONE',  ( 0.000000000000000000, 1.000000000000000000, 0.000000000000000000 ) ) ;
#1026 = DIRECTION ( 'NONE',  ( 0.000000000000000000, -0.000000000000000000, 1.000000000000000000 ) ) ;
#1027 = VECTOR ( 'NONE', #791, 1000.000000000000000 ) ;
#1028 = DIRECTION ( 'NONE',  ( -0.000000000000000000, -0.000000000000000000, -1.000000000000000000 ) ) ;
#1029 = EDGE_CURVE ( 'NONE', #233, #571, #479, .T. ) ;
#1030 = ORIENTED_EDGE ( 'NONE', *, *, #460, .T. ) ;
#1031 = LINE ( 'NONE', #1119, #1154 ) ;
#1032 = CARTESIAN_POINT ( 'NONE',  ( 5.000000000000002665, 9.999999999999998224, 15.00000000000000355 ) ) ;
#1033 = DIRECTION ( 'NONE',  ( 0.000000000000000000, 1.334402673828313339E-16, -1.000000000000000000 ) ) ;
#1034 = VERTEX_POINT ( 'NONE', #73 ) ;
#1035 = EDGE_CURVE ( 'NONE', #41, #92, #472, .T. ) ;
#1036 = PLANE ( 'NONE',  #116 ) ;
#1037 = PLANE ( 'NONE',  #1262 ) ;
#1038 = CLOSED_SHELL ( 'NONE', ( #584, #944, #1178, #1047, #1089, #646, #205, #837, #76, #221, #9, #1088, #417, #170, #208, #247, #694, #1216, #885, #256, #313, #161, #877, #992, #77, #1248, #1143, #1196, #884, #318, #785, #809, #867, #718, #663, #1250 ) ) ;
#1039 = CIRCLE ( 'NONE', #20, 1.699999999999986189 ) ;
#1040 = ORIENTED_EDGE ( 'NONE', *, *, #47, .F. ) ;
#1041 = FACE_BOUND ( 'NONE', #466, .T. ) ;
#1042 = PRODUCT_DEFINITION_SHAPE ( 'NONE', 'NONE',  #324 ) ;
#1043 = DIRECTION ( 'NONE',  ( 1.000000000000000000, 0.000000000000000000, -0.000000000000000000 ) ) ;
#1044 = ORIENTED_EDGE ( 'NONE', *, *, #901, .T. ) ;
#1045 = ORIENTED_EDGE ( 'NONE', *, *, #483, .T. ) ;
#1046 = CARTESIAN_POINT ( 'NONE',  ( 0.000000000000000000, 13.00000000000000178, -13.00000000000000000 ) ) ;
#1047 = ADVANCED_FACE ( 'NONE', ( #281 ), #688, .F. ) ;
#1048 = FACE_BOUND ( 'NONE', #1107, .T. ) ;
#1049 = CIRCLE ( 'NONE', #218, 1.699999999999999289 ) ;
#1050 = EDGE_LOOP ( 'NONE', ( #643, #409, #898, #910 ) ) ;
#1051 = AXIS2_PLACEMENT_3D ( 'NONE', #551, #350, #667 ) ;
#1052 = ORIENTED_EDGE ( 'NONE', *, *, #854, .F. ) ;
#1053 = LINE ( 'NONE', #49, #734 ) ;
#1054 = CIRCLE ( 'NONE', #1125, 12.70000000000000462 ) ;
#1055 = ORIENTED_EDGE ( 'NONE', *, *, #114, .T. ) ;
#1056 = FACE_OUTER_BOUND ( 'NONE', #323, .T. ) ;
#1057 = FACE_BOUND ( 'NONE', #457, .T. ) ;
#1058 = EDGE_CURVE ( 'NONE', #1277, #36, #900, .T. ) ;
#1059 = EDGE_CURVE ( 'NONE', #909, #482, #107, .T. ) ;
#1060 = ORIENTED_EDGE ( 'NONE', *, *, #1296, .F. ) ;
#1061 = EDGE_LOOP ( 'NONE', ( #732, #119, #1078, #162 ) ) ;
#1062 = DIRECTION ( 'NONE',  ( 0.000000000000000000, 1.334402673828313339E-16, -1.000000000000000000 ) ) ;
#1063 = EDGE_LOOP ( 'NONE', ( #294, #429 ) ) ;
#1064 = CARTESIAN_POINT ( 'NONE',  ( 23.30000000000001137, -10.00000000000000000, -13.00000000000000355 ) ) ;
#1065 = CARTESIAN_POINT ( 'NONE',  ( 90.00000000000000000, -15.00000000000000178, -14.99999999999999822 ) ) ;
#1066 = EDGE_CURVE ( 'NONE', #36, #1309, #702, .T. ) ;
#1067 = EDGE_LOOP ( 'NONE', ( #453, #151, #403, #2 ) ) ;
#1068 = ORIENTED_EDGE ( 'NONE', *, *, #1161, .T. ) ;
#1069 = DIRECTION ( 'NONE',  ( -0.000000000000000000, -0.000000000000000000, 1.000000000000000000 ) ) ;
#1070 = FACE_OUTER_BOUND ( 'NONE', #1, .T. ) ;
#1071 = VERTEX_POINT ( 'NONE', #106 ) ;
#1072 = CARTESIAN_POINT ( 'NONE',  ( -5.831890006140853248E-30, 5.364675298172680407, 28.00000000000000355 ) ) ;
#1073 = FACE_BOUND ( 'NONE', #1009, .T. ) ;
#1074 = ORIENTED_EDGE ( 'NONE', *, *, #962, .F. ) ;
#1075 = EDGE_CURVE ( 'NONE', #477, #1237, #45, .T. ) ;
#1076 = CARTESIAN_POINT ( 'NONE',  ( 75.00000000000000000, 0.000000000000000000, 15.00000000000000178 ) ) ;
#1077 = CARTESIAN_POINT ( 'NONE',  ( 3.300000000000014921, 9.999999999999998224, 15.00000000000000355 ) ) ;
#1078 = ORIENTED_EDGE ( 'NONE', *, *, #1123, .T. ) ;
#1079 = DIRECTION ( 'NONE',  ( -0.000000000000000000, -0.000000000000000000, 1.000000000000000000 ) ) ;
#1080 = CIRCLE ( 'NONE', #780, 12.70000000000000284 ) ;
#1081 = DIRECTION ( 'NONE',  ( 0.000000000000000000, 1.000000000000000000, 1.334402673828313339E-16 ) ) ;
#1082 = AXIS2_PLACEMENT_3D ( 'NONE', #856, #1062, #753 ) ;
#1083 = EDGE_LOOP ( 'NONE', ( #249, #1052, #528, #1267, #1295 ) ) ;
#1084 = CARTESIAN_POINT ( 'NONE',  ( 76.69999999999998863, -8.500000000000000000, 15.00000000000000178 ) ) ;
#1085 = DIRECTION ( 'NONE',  ( 0.000000000000000000, 1.000000000000000000, 0.000000000000000000 ) ) ;
#1086 = EDGE_LOOP ( 'NONE', ( #181, #945 ) ) ;
#1087 = CARTESIAN_POINT ( 'NONE',  ( 5.000000000000002665, 9.999999999999998224, -13.00000000000000000 ) ) ;
#1088 = ADVANCED_FACE ( 'NONE', ( #818, #508 ), #1311, .T. ) ;
#1089 = ADVANCED_FACE ( 'NONE', ( #931 ), #1224, .F. ) ;
#1090 = DIRECTION ( 'NONE',  ( -0.000000000000000000, -0.000000000000000000, 1.000000000000000000 ) ) ;
#1091 = VECTOR ( 'NONE', #1097, 1000.000000000000000 ) ;
#1092 = VECTOR ( 'NONE', #697, 1000.000000000000000 ) ;
#1093 = ORIENTED_EDGE ( 'NONE', *, *, #1022, .T. ) ;
#1094 = VECTOR ( 'NONE', #557, 1000.000000000000000 ) ;
#1095 = CARTESIAN_POINT ( 'NONE',  ( 6.699999999999993960, 9.999999999999998224, 15.00000000000000178 ) ) ;
#1096 = CARTESIAN_POINT ( 'NONE',  ( 90.00000000000000000, -15.00000000000000178, -14.99999999999999822 ) ) ;
#1097 = DIRECTION ( 'NONE',  ( -1.000000000000000000, -0.000000000000000000, -0.000000000000000000 ) ) ;
#1098 = VECTOR ( 'NONE', #973, 1000.000000000000000 ) ;
#1099 = ORIENTED_EDGE ( 'NONE', *, *, #961, .F. ) ;
#1100 = CARTESIAN_POINT ( 'NONE',  ( 90.00000000000000000, -13.00000000000000000, -13.00000000000000355 ) ) ;
#1101 = CARTESIAN_POINT ( 'NONE',  ( 5.000000000000002665, 9.999999999999998224, 15.00000000000000178 ) ) ;
#1102 = DIRECTION ( 'NONE',  ( 1.000000000000000000, 0.000000000000000000, 0.000000000000000000 ) ) ;
#1103 = CARTESIAN_POINT ( 'NONE',  ( 90.00000000000000000, 13.00000000000000000, 5.999999999999999112 ) ) ;
#1104 = VECTOR ( 'NONE', #1292, 1000.000000000000000 ) ;
#1105 = EDGE_CURVE ( 'NONE', #220, #1303, #229, .T. ) ;
#1106 = EDGE_CURVE ( 'NONE', #165, #915, #1031, .T. ) ;
#1107 = EDGE_LOOP ( 'NONE', ( #463, #1193 ) ) ;
#1108 = DIRECTION ( 'NONE',  ( 1.000000000000000000, 0.000000000000000000, 0.000000000000000000 ) ) ;
#1109 = CYLINDRICAL_SURFACE ( 'NONE', #55, 1.699999999999991518 ) ;
#1110 = CYLINDRICAL_SURFACE ( 'NONE', #629, 1.699999999999991518 ) ;
#1111 = VECTOR ( 'NONE', #596, 1000.000000000000000 ) ;
#1112 = ORIENTED_EDGE ( 'NONE', *, *, #97, .T. ) ;
#1113 = ORIENTED_EDGE ( 'NONE', *, *, #731, .T. ) ;
#1114 = DIRECTION ( 'NONE',  ( -0.000000000000000000, -0.000000000000000000, 1.000000000000000000 ) ) ;
#1115 = DIRECTION ( 'NONE',  ( -0.000000000000000000, -0.000000000000000000, 1.000000000000000000 ) ) ;
#1116 = CARTESIAN_POINT ( 'NONE',  ( 25.00000000000000000, 10.00000000000000355, 15.00000000000000355 ) ) ;
#1117 = ORIENTED_EDGE ( 'NONE', *, *, #1013, .F. ) ;
#1118 = EDGE_LOOP ( 'NONE', ( #811, #488, #714, #56, #537, #737, #544, #186 ) ) ;
#1119 = CARTESIAN_POINT ( 'NONE',  ( 55.18233764908578820, -49.81766235091378547, 15.00000000000000178 ) ) ;
#1120 = PRODUCT_DEFINITION_FORMATION_WITH_SPECIFIED_SOURCE ( 'ANY', '', #756, .NOT_KNOWN. ) ;
#1121 = EDGE_CURVE ( 'NONE', #599, #1016, #911, .T. ) ;
#1122 = DIRECTION ( 'NONE',  ( -0.000000000000000000, -0.000000000000000000, 1.000000000000000000 ) ) ;
#1123 = EDGE_CURVE ( 'NONE', #1303, #220, #802, .T. ) ;
#1124 = LINE ( 'NONE', #194, #533 ) ;
#1125 = AXIS2_PLACEMENT_3D ( 'NONE', #109, #407, #807 ) ;
#1126 = ORIENTED_EDGE ( 'NONE', *, *, #231, .F. ) ;
#1127 = ORIENTED_EDGE ( 'NONE', *, *, #1035, .F. ) ;
#1128 = CARTESIAN_POINT ( 'NONE',  ( 59.00000000000003553, 13.00000000000000000, 5.999999999999999112 ) ) ;
#1129 = LINE ( 'NONE', #385, #511 ) ;
#1130 = LINE ( 'NONE', #207, #607 ) ;
#1131 = VERTEX_POINT ( 'NONE', #812 ) ;
#1132 = AXIS2_PLACEMENT_3D ( 'NONE', #276, #366, #163 ) ;
#1133 = LINE ( 'NONE', #192, #365 ) ;
#1134 = FACE_BOUND ( 'NONE', #1201, .T. ) ;
#1135 = VECTOR ( 'NONE', #376, 1000.000000000000000 ) ;
#1136 = EDGE_CURVE ( 'NONE', #804, #1171, #918, .T. ) ;
#1137 = CARTESIAN_POINT ( 'NONE',  ( 76.69999999999998863, 8.500000000000000000, 13.00000000000000000 ) ) ;
#1138 = EDGE_LOOP ( 'NONE', ( #593, #1241 ) ) ;
#1139 = CARTESIAN_POINT ( 'NONE',  ( 90.00000000000000000, -13.00000000000000000, -6.000000000000002665 ) ) ;
#1140 = CARTESIAN_POINT ( 'NONE',  ( 26.69999999999999218, 10.00000000000000355, 15.00000000000000178 ) ) ;
#1141 = DIRECTION ( 'NONE',  ( -0.000000000000000000, -0.000000000000000000, 1.000000000000000000 ) ) ;
#1142 = ORIENTED_EDGE ( 'NONE', *, *, #352, .T. ) ;
#1143 = ADVANCED_FACE ( 'NONE', ( #805 ), #606, .F. ) ;
#1144 = FACE_BOUND ( 'NONE', #655, .T. ) ;
#1145 = VECTOR ( 'NONE', #871, 1000.000000000000000 ) ;
#1146 = VECTOR ( 'NONE', #379, 1000.000000000000000 ) ;
#1147 = VERTEX_POINT ( 'NONE', #721 ) ;
#1148 = ORIENTED_EDGE ( 'NONE', *, *, #974, .F. ) ;
#1149 = DIRECTION ( 'NONE',  ( 0.000000000000000000, 1.000000000000000000, 0.000000000000000000 ) ) ;
#1150 = ORIENTED_EDGE ( 'NONE', *, *, #773, .T. ) ;
#1151 = FACE_OUTER_BOUND ( 'NONE', #191, .T. ) ;
#1152 = DIRECTION ( 'NONE',  ( 0.000000000000000000, 0.000000000000000000, 1.000000000000000000 ) ) ;
#1153 = FACE_BOUND ( 'NONE', #1063, .T. ) ;
#1154 = VECTOR ( 'NONE', #287, 1000.000000000000000 ) ;
#1155 = ORIENTED_EDGE ( 'NONE', *, *, #1136, .F. ) ;
#1156 = EDGE_LOOP ( 'NONE', ( #519, #285 ) ) ;
#1157 = ORIENTED_EDGE ( 'NONE', *, *, #723, .F. ) ;
#1158 = EDGE_CURVE ( 'NONE', #92, #382, #1133, .T. ) ;
#1159 = VERTEX_POINT ( 'NONE', #211 ) ;
#1160 = CIRCLE ( 'NONE', #338, 1.699999999999987965 ) ;
#1161 = EDGE_CURVE ( 'NONE', #26, #686, #303, .T. ) ;
#1162 = DIRECTION ( 'NONE',  ( 1.000000000000000000, 0.000000000000000000, 0.000000000000000000 ) ) ;
#1163 = EDGE_LOOP ( 'NONE', ( #257, #1260, #367, #337 ) ) ;
#1164 = STYLED_ITEM ( 'NONE', ( #890 ), #670 ) ;
#1165 = ORIENTED_EDGE ( 'NONE', *, *, #30, .F. ) ;
#1166 = CYLINDRICAL_SURFACE ( 'NONE', #164, 3.600000000000005862 ) ;
#1167 = ORIENTED_EDGE ( 'NONE', *, *, #782, .F. ) ;
#1168 = DIRECTION ( 'NONE',  ( 1.000000000000000000, 0.000000000000000000, 0.000000000000000000 ) ) ;
#1169 = CARTESIAN_POINT ( 'NONE',  ( 73.29999999999999716, 8.500000000000000000, -2.000000000000027978 ) ) ;
#1170 = AXIS2_PLACEMENT_3D ( 'NONE', #690, #907, #602 ) ;
#1171 = VERTEX_POINT ( 'NONE', #4 ) ;
#1172 = VERTEX_POINT ( 'NONE', #90 ) ;
#1173 = CARTESIAN_POINT ( 'NONE',  ( 90.00000000000000000, 13.00000000000000000, 13.00000000000000000 ) ) ;
#1174 = DIRECTION ( 'NONE',  ( -0.000000000000000000, -0.000000000000000000, 1.000000000000000000 ) ) ;
#1175 = EDGE_LOOP ( 'NONE', ( #963, #227, #797, #512 ) ) ;
#1176 = CARTESIAN_POINT ( 'NONE',  ( 5.000000000000002665, 9.999999999999998224, -14.99999999999999822 ) ) ;
#1177 = CARTESIAN_POINT ( 'NONE',  ( 90.00000000000000000, 13.00000000000000000, 13.00000000000000000 ) ) ;
#1178 = ADVANCED_FACE ( 'NONE', ( #698 ), #1109, .F. ) ;
#1179 = ORIENTED_EDGE ( 'NONE', *, *, #554, .T. ) ;
#1180 = CYLINDRICAL_SURFACE ( 'NONE', #566, 12.70000000000000284 ) ;
#1181 = DIRECTION ( 'NONE',  ( 0.000000000000000000, -1.334402673828313339E-16, 1.000000000000000000 ) ) ;
#1182 = ORIENTED_EDGE ( 'NONE', *, *, #37, .T. ) ;
#1183 = LINE ( 'NONE', #1072, #80 ) ;
#1184 = FACE_OUTER_BOUND ( 'NONE', #451, .T. ) ;
#1185 = ORIENTED_EDGE ( 'NONE', *, *, #901, .F. ) ;
#1186 = EDGE_CURVE ( 'NONE', #1171, #111, #595, .T. ) ;
#1187 = DIRECTION ( 'NONE',  ( -1.000000000000000000, 0.000000000000000000, 0.000000000000000000 ) ) ;
#1188 = DIRECTION ( 'NONE',  ( 0.000000000000000000, -1.334402673828313339E-16, 1.000000000000000000 ) ) ;
#1189 = EDGE_LOOP ( 'NONE', ( #84, #136, #253, #447 ) ) ;
#1190 = DIRECTION ( 'NONE',  ( 0.000000000000000000, -1.334402673828313339E-16, 1.000000000000000000 ) ) ;
#1191 = VECTOR ( 'NONE', #309, 1000.000000000000000 ) ;
#1192 = PLANE ( 'NONE',  #1301 ) ;
#1193 = ORIENTED_EDGE ( 'NONE', *, *, #513, .F. ) ;
#1194 = LINE ( 'NONE', #176, #1092 ) ;
#1195 = DIRECTION ( 'NONE',  ( 0.000000000000000000, 0.000000000000000000, -1.000000000000000000 ) ) ;
#1196 = ADVANCED_FACE ( 'NONE', ( #489 ), #906, .F. ) ;
#1197 = CARTESIAN_POINT ( 'NONE',  ( -5.831890006140853248E-30, 5.364675298172680407, 12.99999999999999822 ) ) ;
#1198 = DIRECTION ( 'NONE',  ( 0.000000000000000000, 1.334402673828313339E-16, -1.000000000000000000 ) ) ;
#1199 = AXIS2_PLACEMENT_3D ( 'NONE', #149, #133, #740 ) ;
#1200 = AXIS2_PLACEMENT_3D ( 'NONE', #142, #759, #35 ) ;
#1201 = EDGE_LOOP ( 'NONE', ( #525, #89 ) ) ;
#1202 = AXIS2_PLACEMENT_3D ( 'NONE', #1101, #872, #485 ) ;
#1203 = CARTESIAN_POINT ( 'NONE',  ( 0.000000000000000000, 0.000000000000000000, 0.000000000000000000 ) ) ;
#1204 = DIRECTION ( 'NONE',  ( -0.000000000000000000, -0.000000000000000000, 1.000000000000000000 ) ) ;
#1205 = LINE ( 'NONE', #699, #935 ) ;
#1206 = CARTESIAN_POINT ( 'NONE',  ( 90.00000000000000000, 13.00000000000000178, -5.999999999999999112 ) ) ;
#1207 = VECTOR ( 'NONE', #1195, 1000.000000000000000 ) ;
#1208 = ORIENTED_EDGE ( 'NONE', *, *, #496, .T. ) ;
#1209 = DIRECTION ( 'NONE',  ( 0.000000000000000000, 0.000000000000000000, 1.000000000000000000 ) ) ;
#1210 = CARTESIAN_POINT ( 'NONE',  ( 62.29999999999999716, 0.000000000000000000, 8.000000000000037303 ) ) ;
#1211 = DIRECTION ( 'NONE',  ( -0.000000000000000000, -0.000000000000000000, 1.000000000000000000 ) ) ;
#1212 = ORIENTED_EDGE ( 'NONE', *, *, #546, .T. ) ;
#1213 = DIRECTION ( 'NONE',  ( -0.000000000000000000, -0.000000000000000000, -1.000000000000000000 ) ) ;
#1214 = CARTESIAN_POINT ( 'NONE',  ( 90.00000000000000000, -15.00000000000000178, -14.99999999999999822 ) ) ;
#1215 = CARTESIAN_POINT ( 'NONE',  ( 87.70000000000000284, 1.555301434917139024E-15, 8.000000000000037303 ) ) ;
#1216 = ADVANCED_FACE ( 'NONE', ( #600, #501, #423, #1243, #1041, #1144, #27 ), #1036, .F. ) ;
#1217 = EDGE_LOOP ( 'NONE', ( #735, #768 ) ) ;
#1218 = ORIENTED_EDGE ( 'NONE', *, *, #586, .F. ) ;
#1219 = CARTESIAN_POINT ( 'NONE',  ( 59.00000000000003553, 13.00000000000000178, -5.999999999999999112 ) ) ;
#1220 = LINE ( 'NONE', #102, #808 ) ;
#1221 = CARTESIAN_POINT ( 'NONE',  ( 90.00000000000000000, -15.00000000000000178, 15.00000000000000178 ) ) ;
#1222 = EDGE_LOOP ( 'NONE', ( #578, #942, #419, #1044 ) ) ;
#1223 = VERTEX_POINT ( 'NONE', #415 ) ;
#1224 = CYLINDRICAL_SURFACE ( 'NONE', #814, 1.699999999999989742 ) ;
#1225 = VECTOR ( 'NONE', #619, 1000.000000000000000 ) ;
#1226 = DIRECTION ( 'NONE',  ( 0.000000000000000000, 0.000000000000000000, 1.000000000000000000 ) ) ;
#1227 = DIRECTION ( 'NONE',  ( 0.000000000000000000, 1.000000000000000000, 0.000000000000000000 ) ) ;
#1228 = VERTEX_POINT ( 'NONE', #321 ) ;
#1229 = DIRECTION ( 'NONE',  ( -0.000000000000000000, -0.000000000000000000, 1.000000000000000000 ) ) ;
#1230 = PLANE ( 'NONE',  #927 ) ;
#1231 = CARTESIAN_POINT ( 'NONE',  ( 90.00000000000000000, -13.00000000000000000, 12.99999999999999645 ) ) ;
#1232 = ORIENTED_EDGE ( 'NONE', *, *, #296, .T. ) ;
#1233 = CARTESIAN_POINT ( 'NONE',  ( 20.36467529817242905, -15.00000000000000000, -15.00000000000000000 ) ) ;
#1234 = LINE ( 'NONE', #1140, #408 ) ;
#1235 = DIRECTION ( 'NONE',  ( -1.000000000000000000, -0.000000000000000000, -0.000000000000000000 ) ) ;
#1236 = ORIENTED_EDGE ( 'NONE', *, *, #19, .F. ) ;
#1237 = VERTEX_POINT ( 'NONE', #733 ) ;
#1238 = FACE_OUTER_BOUND ( 'NONE', #1163, .T. ) ;
#1239 = PLANE ( 'NONE',  #800 ) ;
#1240 = EDGE_CURVE ( 'NONE', #1001, #500, #751, .T. ) ;
#1241 = ORIENTED_EDGE ( 'NONE', *, *, #1000, .T. ) ;
#1242 = VECTOR ( 'NONE', #1028, 1000.000000000000000 ) ;
#1243 = FACE_BOUND ( 'NONE', #833, .T. ) ;
#1244 = ORIENTED_EDGE ( 'NONE', *, *, #794, .T. ) ;
#1245 = CARTESIAN_POINT ( 'NONE',  ( 76.69999999999998863, 8.500000000000000000, 15.00000000000000178 ) ) ;
#1246 = CARTESIAN_POINT ( 'NONE',  ( 73.29999999999999716, 8.500000000000000000, 15.00000000000000178 ) ) ;
#1247 = ORIENTED_EDGE ( 'NONE', *, *, #586, .T. ) ;
#1248 = ADVANCED_FACE ( 'NONE', ( #1238 ), #631, .F. ) ;
#1249 = CIRCLE ( 'NONE', #206, 1.699999999999998401 ) ;
#1250 = ADVANCED_FACE ( 'NONE', ( #624 ), #520, .F. ) ;
#1251 = ORIENTED_EDGE ( 'NONE', *, *, #460, .F. ) ;
#1252 = CARTESIAN_POINT ( 'NONE',  ( 90.00000000000000000, -13.00000000000000000, 12.99999999999999645 ) ) ;
#1253 = CIRCLE ( 'NONE', #1200, 1.699999999999993072 ) ;
#1254 = FACE_BOUND ( 'NONE', #33, .T. ) ;
#1255 = CIRCLE ( 'NONE', #5, 1.699999999999994849 ) ;
#1256 = ORIENTED_EDGE ( 'NONE', *, *, #522, .T. ) ;
#1257 = ORIENTED_EDGE ( 'NONE', *, *, #908, .F. ) ;
#1258 = CARTESIAN_POINT ( 'NONE',  ( 26.69999999999999218, 10.00000000000000355, -13.00000000000000000 ) ) ;
#1259 = DIRECTION ( 'NONE',  ( -1.000000000000000000, -0.000000000000000000, -0.000000000000000000 ) ) ;
#1260 = ORIENTED_EDGE ( 'NONE', *, *, #47, .T. ) ;
#1261 = FILL_AREA_STYLE ('',( #660 ) ) ;
#1262 = AXIS2_PLACEMENT_3D ( 'NONE', #24, #835, #826 ) ;
#1263 = FACE_OUTER_BOUND ( 'NONE', #750, .T. ) ;
#1264 = ADVANCED_BREP_SHAPE_REPRESENTATION ( 'leg_lower_1_mirrored', ( #670, #388 ), #887 ) ;
#1265 = MECHANICAL_DESIGN_GEOMETRIC_PRESENTATION_REPRESENTATION (  '', ( #1164 ), #1290 ) ;
#1266 = VERTEX_POINT ( 'NONE', #524 ) ;
#1267 = ORIENTED_EDGE ( 'NONE', *, *, #961, .T. ) ;
#1268 = DIRECTION ( 'NONE',  ( 0.000000000000000000, 1.334402673828313339E-16, -1.000000000000000000 ) ) ;
#1269 = ORIENTED_EDGE ( 'NONE', *, *, #1287, .F. ) ;
#1270 = FACE_OUTER_BOUND ( 'NONE', #78, .T. ) ;
#1271 = CARTESIAN_POINT ( 'NONE',  ( 73.29999999999999716, -8.500000000000000000, 12.99999999999999645 ) ) ;
#1272 = EDGE_CURVE ( 'NONE', #402, #241, #1049, .T. ) ;
#1273 = VECTOR ( 'NONE', #1115, 1000.000000000000000 ) ;
#1274 = EDGE_LOOP ( 'NONE', ( #930, #840, #671, #587 ) ) ;
#1275 = CARTESIAN_POINT ( 'NONE',  ( 75.00000000000000000, 0.000000000000000000, -2.000000000000027978 ) ) ;
#1276 = CARTESIAN_POINT ( 'NONE',  ( 55.18233764908578820, -49.81766235091378547, -14.99999999999999822 ) ) ;
#1277 = VERTEX_POINT ( 'NONE', #1233 ) ;
#1278 =( NAMED_UNIT ( * ) SI_UNIT ( $, .STERADIAN. ) SOLID_ANGLE_UNIT ( ) );
#1279 = CARTESIAN_POINT ( 'NONE',  ( 90.00000000000000000, 15.00000000000000000, 15.00000000000000178 ) ) ;
#1280 = EDGE_LOOP ( 'NONE', ( #1247, #1155, #124, #1030 ) ) ;
#1281 = FACE_OUTER_BOUND ( 'NONE', #1067, .T. ) ;
#1282 = DIRECTION ( 'NONE',  ( -0.000000000000000000, -0.000000000000000000, 1.000000000000000000 ) ) ;
#1283 = VERTEX_POINT ( 'NONE', #1139 ) ;
#1284 = DIRECTION ( 'NONE',  ( -0.000000000000000000, -0.000000000000000000, 1.000000000000000000 ) ) ;
#1285 = LINE ( 'NONE', #487, #1091 ) ;
#1286 = AXIS2_PLACEMENT_3D ( 'NONE', #420, #120, #839 ) ;
#1287 = EDGE_CURVE ( 'NONE', #382, #648, #217, .T. ) ;
#1288 = ORIENTED_EDGE ( 'NONE', *, *, #1121, .T. ) ;
#1289 = FACE_BOUND ( 'NONE', #438, .T. ) ;
#1290 =( GEOMETRIC_REPRESENTATION_CONTEXT ( 3 ) GLOBAL_UNCERTAINTY_ASSIGNED_CONTEXT ( ( #985 ) ) GLOBAL_UNIT_ASSIGNED_CONTEXT ( ( #442, #976, #1278 ) ) REPRESENTATION_CONTEXT ( 'NONE', 'WORKASPACE' ) );
#1291 = DIRECTION ( 'NONE',  ( 0.000000000000000000, -1.000000000000000000, -1.334402673828313093E-16 ) ) ;
#1292 = DIRECTION ( 'NONE',  ( -1.000000000000000000, -0.000000000000000000, -0.000000000000000000 ) ) ;
#1293 = VECTOR ( 'NONE', #1319, 1000.000000000000000 ) ;
#1294 = DIRECTION ( 'NONE',  ( -0.000000000000000000, -0.000000000000000000, 1.000000000000000000 ) ) ;
#1295 = ORIENTED_EDGE ( 'NONE', *, *, #37, .F. ) ;
#1296 = EDGE_CURVE ( 'NONE', #540, #300, #432, .T. ) ;
#1297 = FACE_BOUND ( 'NONE', #623, .T. ) ;
#1298 = CARTESIAN_POINT ( 'NONE',  ( 90.00000000000000000, 13.00000000000000000, 13.00000000000000000 ) ) ;
#1299 = DIRECTION ( 'NONE',  ( -0.000000000000000000, -0.000000000000000000, 1.000000000000000000 ) ) ;
#1300 = DIRECTION ( 'NONE',  ( 1.000000000000000000, 0.000000000000000000, 0.000000000000000000 ) ) ;
#1301 = AXIS2_PLACEMENT_3D ( 'NONE', #1206, #481, #1081 ) ;
#1302 = VECTOR ( 'NONE', #478, 1000.000000000000000 ) ;
#1303 = VERTEX_POINT ( 'NONE', #966 ) ;
#1304 = CARTESIAN_POINT ( 'NONE',  ( 75.00000000000000000, 0.000000000000000000, 8.000000000000037303 ) ) ;
#1305 = LINE ( 'NONE', #563, #216 ) ;
#1306 = CARTESIAN_POINT ( 'NONE',  ( 59.00000000000003553, -13.00000000000000000, 5.999999999999995559 ) ) ;
#1307 = EDGE_CURVE ( 'NONE', #300, #100, #642, .T. ) ;
#1308 = CARTESIAN_POINT ( 'NONE',  ( 76.69999999999998863, -8.500000000000000000, 12.99999999999999645 ) ) ;
#1309 = VERTEX_POINT ( 'NONE', #449 ) ;
#1310 = VECTOR ( 'NONE', #949, 1000.000000000000000 ) ;
#1311 = PLANE ( 'NONE',  #401 ) ;
#1312 = DIRECTION ( 'NONE',  ( 1.000000000000000000, 0.000000000000000000, 0.000000000000000000 ) ) ;
#1313 = ORIENTED_EDGE ( 'NONE', *, *, #924, .T. ) ;
#1314 = ORIENTED_EDGE ( 'NONE', *, *, #545, .F. ) ;
#1315 = CIRCLE ( 'NONE', #393, 1.699999999999989742 ) ;
#1316 = DIRECTION ( 'NONE',  ( -0.000000000000000000, -0.000000000000000000, 1.000000000000000000 ) ) ;
#1317 = CARTESIAN_POINT ( 'NONE',  ( 5.000000000000002665, 9.999999999999998224, 15.00000000000000178 ) ) ;
#1318 = AXIS2_PLACEMENT_3D ( 'NONE', #653, #345, #245 ) ;
#1319 = DIRECTION ( 'NONE',  ( 0.000000000000000000, 0.000000000000000000, -1.000000000000000000 ) ) ;
ENDSEC;
END-ISO-10303-21;
