ISO-10303-21;
HEADER;
FILE_DESCRIPTION (( 'STEP AP214' ),
    '1' );
FILE_NAME ('wheelhub.STEP',
    '2026-04-10T05:00:20',
    ( '' ),
    ( '' ),
    'SwSTEP 2.0',
    'SolidWorks 2025',
    '' );
FILE_SCHEMA (( 'AUTOMOTIVE_DESIGN' ));
ENDSEC;

DATA;
#1 = EDGE_LOOP ( 'NONE', ( #883, #861, #641, #249 ) ) ;
#2 = CARTESIAN_POINT ( 'NONE',  ( 0.000000000000000000, 0.000000000000000000, 0.000000000000000000 ) ) ;
#3 = CARTESIAN_POINT ( 'NONE',  ( -1.799999999999999600, 8.000000000000000000, 5.000000000000000000 ) ) ;
#4 = AXIS2_PLACEMENT_3D ( 'NONE', #627, #676, #41 ) ;
#5 = PRODUCT_DEFINITION ( 'UNKNOWN', '', #95, #646 ) ;
#6 = AXIS2_PLACEMENT_3D ( 'NONE', #361, #587, #8 ) ;
#7 = VERTEX_POINT ( 'NONE', #476 ) ;
#8 = DIRECTION ( 'NONE',  ( -1.000000000000000000, 0.000000000000000000, 0.000000000000000000 ) ) ;
#9 = DIRECTION ( 'NONE',  ( 1.000000000000000000, 0.000000000000000000, 0.000000000000000000 ) ) ;
#10 = ADVANCED_FACE ( 'NONE', ( #319 ), #839, .F. ) ;
#11 = VERTEX_POINT ( 'NONE', #544 ) ;
#12 = PLANE ( 'NONE',  #228 ) ;
#13 = DIRECTION ( 'NONE',  ( -0.000000000000000000, 0.000000000000000000, 1.000000000000000000 ) ) ;
#14 = EDGE_LOOP ( 'NONE', ( #372, #338, #135, #668 ) ) ;
#15 = PLANE ( 'NONE',  #19 ) ;
#16 = CARTESIAN_POINT ( 'NONE',  ( -4.100000000000000533, 0.000000000000000000, 6.000000000000000000 ) ) ;
#17 = AXIS2_PLACEMENT_3D ( 'NONE', #450, #737, #84 ) ;
#18 = VECTOR ( 'NONE', #355, 1000.000000000000000 ) ;
#19 = AXIS2_PLACEMENT_3D ( 'NONE', #669, #504, #297 ) ;
#20 = CIRCLE ( 'NONE', #554, 1.799999999999999600 ) ;
#21 = DIRECTION ( 'NONE',  ( -0.000000000000000000, -0.000000000000000000, -1.000000000000000000 ) ) ;
#22 = CARTESIAN_POINT ( 'NONE',  ( 0.000000000000000000, 0.000000000000000000, 10.00000000000000000 ) ) ;
#23 = CARTESIAN_POINT ( 'NONE',  ( -8.000000000000000000, 6.505213034913026604E-16, 5.000000000000000000 ) ) ;
#24 = ADVANCED_FACE ( 'NONE', ( #894 ), #333, .T. ) ;
#25 = DIRECTION ( 'NONE',  ( -0.000000000000000000, 0.000000000000000000, 1.000000000000000000 ) ) ;
#26 = DIRECTION ( 'NONE',  ( -0.000000000000000000, -0.000000000000000000, -1.000000000000000000 ) ) ;
#27 = DIRECTION ( 'NONE',  ( -0.000000000000000000, 0.000000000000000000, 1.000000000000000000 ) ) ;
#28 = FACE_BOUND ( 'NONE', #403, .T. ) ;
#29 = EDGE_LOOP ( 'NONE', ( #416, #654, #59, #858 ) ) ;
#30 = VECTOR ( 'NONE', #653, 1000.000000000000000 ) ;
#31 = ORIENTED_EDGE ( 'NONE', *, *, #282, .T. ) ;
#32 = AXIS2_PLACEMENT_3D ( 'NONE', #823, #697, #463 ) ;
#33 = CARTESIAN_POINT ( 'NONE',  ( 2.007330316615194565, 4.575000000000000178, 5.000000000000000000 ) ) ;
#34 = CARTESIAN_POINT ( 'NONE',  ( 1.687155789495370817, 2.447095361934093827, 9.999999999999998224 ) ) ;
#35 = CARTESIAN_POINT ( 'NONE',  ( 2.130358859868443755, 4.057738449820188720, 5.105463732333944016 ) ) ;
#36 = ORIENTED_EDGE ( 'NONE', *, *, #122, .F. ) ;
#37 = ADVANCED_FACE ( 'NONE', ( #710 ), #54, .F. ) ;
#38 = DIRECTION ( 'NONE',  ( -0.000000000000000000, -0.000000000000000000, -1.000000000000000000 ) ) ;
#39 = CARTESIAN_POINT ( 'NONE',  ( -2.100000000000000089, 0.000000000000000000, 9.000000000000001776 ) ) ;
#40 = SURFACE_STYLE_USAGE ( .BOTH. , #626 ) ;
#41 = DIRECTION ( 'NONE',  ( -1.000000000000000000, 0.000000000000000000, 0.000000000000000000 ) ) ;
#42 = ORIENTED_EDGE ( 'NONE', *, *, #701, .T. ) ;
#43 = EDGE_CURVE ( 'NONE', #565, #685, #667, .T. ) ;
#44 = CARTESIAN_POINT ( 'NONE',  ( -2.014401158862607399, 3.601915617856084495, 5.734367706068667303 ) ) ;
#45 = EDGE_LOOP ( 'NONE', ( #132, #86, #183, #396 ) ) ;
#46 = CIRCLE ( 'NONE', #835, 1.799999999999999600 ) ;
#47 = CIRCLE ( 'NONE', #94, 1.799999999999999600 ) ;
#48 = DIRECTION ( 'NONE',  ( -0.000000000000000000, 0.000000000000000000, 1.000000000000000000 ) ) ;
#49 = ADVANCED_FACE ( 'NONE', ( #916 ), #342, .F. ) ;
#50 = ORIENTED_EDGE ( 'NONE', *, *, #778, .F. ) ;
#51 = CARTESIAN_POINT ( 'NONE',  ( 0.000000000000000000, 0.000000000000000000, 0.000000000000000000 ) ) ;
#52 = DIRECTION ( 'NONE',  ( -1.000000000000000000, 0.000000000000000000, 0.000000000000000000 ) ) ;
#53 = ADVANCED_FACE ( 'NONE', ( #559 ), #242, .F. ) ;
#54 = CYLINDRICAL_SURFACE ( 'NONE', #660, 2.100000000000000089 ) ;
#55 = ORIENTED_EDGE ( 'NONE', *, *, #931, .F. ) ;
#56 = DIRECTION ( 'NONE',  ( 1.224646799147353207E-16, 1.000000000000000000, 0.000000000000000000 ) ) ;
#57 = CARTESIAN_POINT ( 'NONE',  ( 0.000000000000000000, 2.575000000000000178, 9.000000000000001776 ) ) ;
#58 = CARTESIAN_POINT ( 'NONE',  ( -1.438047494314225183, 1.706653093109508745, 9.513446473081520693 ) ) ;
#59 = ORIENTED_EDGE ( 'NONE', *, *, #742, .F. ) ;
#60 = FACE_OUTER_BOUND ( 'NONE', #283, .T. ) ;
#61 = CARTESIAN_POINT ( 'NONE',  ( -1.799999999999999600, 8.000000000000000000, 0.000000000000000000 ) ) ;
#62 = CIRCLE ( 'NONE', #721, 1.799999999999999600 ) ;
#63 = VECTOR ( 'NONE', #597, 1000.000000000000000 ) ;
#64 = ORIENTED_EDGE ( 'NONE', *, *, #107, .T. ) ;
#65 = ADVANCED_FACE ( 'NONE', ( #269 ), #415, .F. ) ;
#66 = ORIENTED_EDGE ( 'NONE', *, *, #275, .T. ) ;
#67 = CARTESIAN_POINT ( 'NONE',  ( 0.000000000000000000, 0.000000000000000000, 5.000000000000000000 ) ) ;
#68 = DIRECTION ( 'NONE',  ( -1.000000000000000000, 0.000000000000000000, 0.000000000000000000 ) ) ;
#69 = ORIENTED_EDGE ( 'NONE', *, *, #336, .F. ) ;
#70 = EDGE_CURVE ( 'NONE', #579, #11, #758, .T. ) ;
#71 = EDGE_LOOP ( 'NONE', ( #452, #802 ) ) ;
#72 = DIRECTION ( 'NONE',  ( 0.000000000000000000, -1.000000000000000000, 0.000000000000000000 ) ) ;
#73 = CARTESIAN_POINT ( 'NONE',  ( 9.799999999999998934, 6.541172928407252572E-16, 5.000000000000000000 ) ) ;
#74 = ORIENTED_EDGE ( 'NONE', *, *, #838, .T. ) ;
#75 = VERTEX_POINT ( 'NONE', #155 ) ;
#76 = DIRECTION ( 'NONE',  ( 0.000000000000000000, 0.000000000000000000, -1.000000000000000000 ) ) ;
#77 = CIRCLE ( 'NONE', #261, 1.800000000000000266 ) ;
#78 = EDGE_CURVE ( 'NONE', #116, #487, #359, .T. ) ;
#79 = DIRECTION ( 'NONE',  ( 1.000000000000000000, 0.000000000000000000, 0.000000000000000000 ) ) ;
#80 = MECHANICAL_DESIGN_GEOMETRIC_PRESENTATION_REPRESENTATION (  '', ( #881 ), #477 ) ;
#81 = EDGE_LOOP ( 'NONE', ( #31, #934 ) ) ;
#82 = ORIENTED_EDGE ( 'NONE', *, *, #203, .F. ) ;
#83 = CYLINDRICAL_SURFACE ( 'NONE', #139, 1.800000000000000266 ) ;
#84 = DIRECTION ( 'NONE',  ( 1.000000000000000000, 1.776356839400250465E-15, 0.000000000000000000 ) ) ;
#85 = EDGE_LOOP ( 'NONE', ( #698, #722, #343, #483 ) ) ;
#86 = ORIENTED_EDGE ( 'NONE', *, *, #475, .T. ) ;
#87 = CARTESIAN_POINT ( 'NONE',  ( 0.000000000000000000, 0.000000000000000000, 6.000000000000000000 ) ) ;
#88 = LINE ( 'NONE', #433, #92 ) ;
#89 = DIRECTION ( 'NONE',  ( 0.000000000000000000, -0.000000000000000000, -1.000000000000000000 ) ) ;
#90 = DIRECTION ( 'NONE',  ( -1.000000000000000000, 0.000000000000000000, 0.000000000000000000 ) ) ;
#91 = DIRECTION ( 'NONE',  ( 1.000000000000000000, 0.000000000000000000, 0.000000000000000000 ) ) ;
#92 = VECTOR ( 'NONE', #68, 1000.000000000000000 ) ;
#93 = VECTOR ( 'NONE', #163, 1000.000000000000000 ) ;
#94 = AXIS2_PLACEMENT_3D ( 'NONE', #100, #472, #233 ) ;
#95 = PRODUCT_DEFINITION_FORMATION_WITH_SPECIFIED_SOURCE ( 'ANY', '', #717, .NOT_KNOWN. ) ;
#96 = EDGE_CURVE ( 'NONE', #528, #685, #223, .T. ) ;
#97 = DIRECTION ( 'NONE',  ( 1.000000000000000000, 0.000000000000000000, 0.000000000000000000 ) ) ;
#98 = CARTESIAN_POINT ( 'NONE',  ( -3.100000000000000533, 3.796405077356795411E-16, 9.000000000000001776 ) ) ;
#99 =( NAMED_UNIT ( * ) SI_UNIT ( $, .STERADIAN. ) SOLID_ANGLE_UNIT ( ) );
#100 = CARTESIAN_POINT ( 'NONE',  ( -8.000000000000000000, 6.505213034913026604E-16, 0.000000000000000000 ) ) ;
#101 = EDGE_CURVE ( 'NONE', #799, #191, #160, .T. ) ;
#102 = PLANE ( 'NONE',  #583 ) ;
#103 = CYLINDRICAL_SURFACE ( 'NONE', #659, 4.100000000000000533 ) ;
#104 = ORIENTED_EDGE ( 'NONE', *, *, #678, .T. ) ;
#105 = CARTESIAN_POINT ( 'NONE',  ( 11.50000000000000000, 1.408343819019456176E-15, 5.000000000000000000 ) ) ;
#106 = CARTESIAN_POINT ( 'NONE',  ( 0.000000000000000000, 0.000000000000000000, 6.000000000000000000 ) ) ;
#107 = EDGE_CURVE ( 'NONE', #503, #451, #88, .T. ) ;
#108 = ORIENTED_EDGE ( 'NONE', *, *, #866, .T. ) ;
#109 = CARTESIAN_POINT ( 'NONE',  ( 0.000000000000000000, 0.000000000000000000, 10.00000000000000000 ) ) ;
#110 = DIRECTION ( 'NONE',  ( 1.000000000000000000, 0.000000000000000000, 0.000000000000000000 ) ) ;
#111 = CARTESIAN_POINT ( 'NONE',  ( 2.007330316615194121, 3.575000000000000622, 5.865972252156636202 ) ) ;
#112 = EDGE_CURVE ( 'NONE', #421, #130, #294, .T. ) ;
#113 = ORIENTED_EDGE ( 'NONE', *, *, #618, .T. ) ;
#114 = SHAPE_DEFINITION_REPRESENTATION ( #258, #681 ) ;
#115 = DIRECTION ( 'NONE',  ( -1.000000000000000000, 0.000000000000000000, 0.000000000000000000 ) ) ;
#116 = VERTEX_POINT ( 'NONE', #3 ) ;
#117 = CARTESIAN_POINT ( 'NONE',  ( 11.50000000000000000, 1.408343819019456176E-15, 5.000000000000000000 ) ) ;
#118 = VERTEX_POINT ( 'NONE', #732 ) ;
#119 = CIRCLE ( 'NONE', #687, 2.100000000000000089 ) ;
#120 = DIRECTION ( 'NONE',  ( 1.000000000000000000, 0.000000000000000000, 0.000000000000000000 ) ) ;
#121 = AXIS2_PLACEMENT_3D ( 'NONE', #533, #481, #91 ) ;
#122 = EDGE_CURVE ( 'NONE', #208, #431, #427, .T. ) ;
#123 = AXIS2_PLACEMENT_3D ( 'NONE', #609, #747, #459 ) ;
#124 = CARTESIAN_POINT ( 'NONE',  ( 1.389019438308910503, 1.574999999999999956, 9.000000000000001776 ) ) ;
#125 = CARTESIAN_POINT ( 'NONE',  ( 0.000000000000000000, 0.000000000000000000, 5.000000000000000000 ) ) ;
#126 = ORIENTED_EDGE ( 'NONE', *, *, #753, .F. ) ;
#127 = PLANE ( 'NONE',  #156 ) ;
#128 = CARTESIAN_POINT ( 'NONE',  ( -5.100000000000000533, 6.245698675651501825E-16, 5.000000000000000000 ) ) ;
#129 = DIRECTION ( 'NONE',  ( -1.000000000000000000, 0.000000000000000000, 0.000000000000000000 ) ) ;
#130 = VERTEX_POINT ( 'NONE', #374 ) ;
#131 =( NAMED_UNIT ( * ) SI_UNIT ( $, .STERADIAN. ) SOLID_ANGLE_UNIT ( ) );
#132 = ORIENTED_EDGE ( 'NONE', *, *, #303, .F. ) ;
#133 = DIRECTION ( 'NONE',  ( 0.000000000000000000, 0.000000000000000000, -1.000000000000000000 ) ) ;
#134 = CARTESIAN_POINT ( 'NONE',  ( -1.647812780265584642, 2.317836519264553363, 10.00000000000000178 ) ) ;
#135 = ORIENTED_EDGE ( 'NONE', *, *, #112, .T. ) ;
#136 = ORIENTED_EDGE ( 'NONE', *, *, #148, .F. ) ;
#137 = VECTOR ( 'NONE', #26, 1000.000000000000000 ) ;
#138 = DIRECTION ( 'NONE',  ( -0.000000000000000000, -0.000000000000000000, -1.000000000000000000 ) ) ;
#139 = AXIS2_PLACEMENT_3D ( 'NONE', #592, #300, #442 ) ;
#140 = DIRECTION ( 'NONE',  ( 1.000000000000000000, 0.000000000000000000, 0.000000000000000000 ) ) ;
#141 = AXIS2_PLACEMENT_3D ( 'NONE', #412, #347, #120 ) ;
#142 = ORIENTED_EDGE ( 'NONE', *, *, #637, .T. ) ;
#143 = EDGE_CURVE ( 'NONE', #828, #116, #537, .T. ) ;
#144 = ORIENTED_EDGE ( 'NONE', *, *, #909, .T. ) ;
#145 = FACE_OUTER_BOUND ( 'NONE', #456, .T. ) ;
#146 = CARTESIAN_POINT ( 'NONE',  ( -2.253746880197508240, 4.575000000000000178, 5.000000000000000000 ) ) ;
#147 = EDGE_LOOP ( 'NONE', ( #780, #846 ) ) ;
#148 = EDGE_CURVE ( 'NONE', #685, #357, #119, .T. ) ;
#149 = ORIENTED_EDGE ( 'NONE', *, *, #165, .T. ) ;
#150 = LINE ( 'NONE', #447, #63 ) ;
#151 = CARTESIAN_POINT ( 'NONE',  ( 1.726086614280987419, 2.575000000000000178, 10.00000000000000000 ) ) ;
#152 = VERTEX_POINT ( 'NONE', #301 ) ;
#153 = DIRECTION ( 'NONE',  ( 0.000000000000000000, 1.000000000000000000, 0.000000000000000000 ) ) ;
#154 = EDGE_CURVE ( 'NONE', #229, #810, #598, .T. ) ;
#155 = CARTESIAN_POINT ( 'NONE',  ( 9.799999999999998934, 6.541172928407251586E-16, 0.000000000000000000 ) ) ;
#156 = AXIS2_PLACEMENT_3D ( 'NONE', #550, #853, #404 ) ;
#157 = EDGE_LOOP ( 'NONE', ( #580, #545, #789, #326 ) ) ;
#158 = VERTEX_POINT ( 'NONE', #16 ) ;
#159 = CYLINDRICAL_SURFACE ( 'NONE', #411, 11.50000000000000000 ) ;
#160 = LINE ( 'NONE', #527, #381 ) ;
#161 = ORIENTED_EDGE ( 'NONE', *, *, #560, .T. ) ;
#162 = CARTESIAN_POINT ( 'NONE',  ( -2.007330316615193677, 3.575000000000000178, 10.00000000000000000 ) ) ;
#163 = DIRECTION ( 'NONE',  ( -0.000000000000000000, -0.000000000000000000, -1.000000000000000000 ) ) ;
#164 = ORIENTED_EDGE ( 'NONE', *, *, #678, .F. ) ;
#165 = EDGE_CURVE ( 'NONE', #118, #229, #274, .T. ) ;
#166 = DIRECTION ( 'NONE',  ( 0.000000000000000000, -0.000000000000000000, 1.000000000000000000 ) ) ;
#167 = DIRECTION ( 'NONE',  ( 1.000000000000000000, 0.000000000000000000, 0.000000000000000000 ) ) ;
#168 = AXIS2_PLACEMENT_3D ( 'NONE', #272, #569, #841 ) ;
#169 = CIRCLE ( 'NONE', #309, 1.799999999999999600 ) ;
#170 = CLOSED_SHELL ( 'NONE', ( #902, #872, #192, #53, #24, #455, #419, #37, #10, #541, #709, #65, #312, #244, #684, #624, #482, #414, #808, #647, #49, #885, #607, #824, #723, #818, #693, #376, #595 ) ) ;
#171 = DIRECTION ( 'NONE',  ( 1.000000000000000000, 0.000000000000000000, 0.000000000000000000 ) ) ;
#172 = CARTESIAN_POINT ( 'NONE',  ( 1.800000000000000933, -8.000000000000000000, 5.000000000000000000 ) ) ;
#173 =( LENGTH_UNIT ( ) NAMED_UNIT ( * ) SI_UNIT ( .MILLI., .METRE. ) );
#174 = ORIENTED_EDGE ( 'NONE', *, *, #324, .F. ) ;
#175 = DIRECTION ( 'NONE',  ( 1.000000000000000000, 0.000000000000000000, 0.000000000000000000 ) ) ;
#176 = EDGE_CURVE ( 'NONE', #577, #903, #733, .T. ) ;
#177 = LINE ( 'NONE', #932, #461 ) ;
#178 = ORIENTED_EDGE ( 'NONE', *, *, #388, .T. ) ;
#179 = CARTESIAN_POINT ( 'NONE',  ( 2.100000000000000089, 2.571758278209441957E-16, 9.000000000000001776 ) ) ;
#180 = CARTESIAN_POINT ( 'NONE',  ( 1.726086614280987419, 2.575000000000000178, 10.00000000000000000 ) ) ;
#181 = LINE ( 'NONE', #247, #137 ) ;
#182 = AXIS2_PLACEMENT_3D ( 'NONE', #845, #194, #490 ) ;
#183 = ORIENTED_EDGE ( 'NONE', *, *, #506, .T. ) ;
#184 = VECTOR ( 'NONE', #198, 1000.000000000000000 ) ;
#185 = AXIS2_PLACEMENT_3D ( 'NONE', #581, #512, #516 ) ;
#186 = CARTESIAN_POINT ( 'NONE',  ( 2.007330316615194565, 3.575000000000000178, 6.000000000000000000 ) ) ;
#187 = ORIENTED_EDGE ( 'NONE', *, *, #518, .T. ) ;
#188 = FACE_OUTER_BOUND ( 'NONE', #273, .T. ) ;
#189 = CARTESIAN_POINT ( 'NONE',  ( -1.799999999999999378, -8.000000000000000000, 5.000000000000000000 ) ) ;
#190 = DIRECTION ( 'NONE',  ( -0.000000000000000000, -0.000000000000000000, -1.000000000000000000 ) ) ;
#191 = VERTEX_POINT ( 'NONE', #363 ) ;
#192 = ADVANCED_FACE ( 'NONE', ( #860 ), #551, .F. ) ;
#193 = LINE ( 'NONE', #557, #184 ) ;
#194 = DIRECTION ( 'NONE',  ( -0.000000000000000000, -0.000000000000000000, -1.000000000000000000 ) ) ;
#195 = ORIENTED_EDGE ( 'NONE', *, *, #560, .F. ) ;
#196 = DIRECTION ( 'NONE',  ( 1.000000000000000000, 0.000000000000000000, 0.000000000000000000 ) ) ;
#197 = AXIS2_PLACEMENT_3D ( 'NONE', #387, #27, #171 ) ;
#198 = DIRECTION ( 'NONE',  ( 1.000000000000000000, 0.000000000000000000, 0.000000000000000000 ) ) ;
#199 = CARTESIAN_POINT ( 'NONE',  ( -6.200000000000001066, 8.709577273378262426E-16, 0.000000000000000000 ) ) ;
#200 = ORIENTED_EDGE ( 'NONE', *, *, #535, .F. ) ;
#201 = ORIENTED_EDGE ( 'NONE', *, *, #96, .T. ) ;
#202 = DIRECTION ( 'NONE',  ( 0.000000000000000000, -1.000000000000000000, 0.000000000000000000 ) ) ;
#203 = EDGE_CURVE ( 'NONE', #152, #217, #895, .T. ) ;
#204 = CARTESIAN_POINT ( 'NONE',  ( 0.000000000000000000, 0.000000000000000000, 6.000000000000000000 ) ) ;
#205 = ORIENTED_EDGE ( 'NONE', *, *, #203, .T. ) ;
#206 = ORIENTED_EDGE ( 'NONE', *, *, #936, .T. ) ;
#207 = CARTESIAN_POINT ( 'NONE',  ( -2.007330316615193677, 3.575000000000000178, 6.000000000000000000 ) ) ;
#208 = VERTEX_POINT ( 'NONE', #151 ) ;
#209 = AXIS2_PLACEMENT_3D ( 'NONE', #664, #726, #79 ) ;
#210 = EDGE_LOOP ( 'NONE', ( #817, #82, #161, #66 ) ) ;
#211 = TOROIDAL_SURFACE ( 'NONE', #552, 3.100000000000000533, 1.000000000000000000 ) ;
#212 = CARTESIAN_POINT ( 'NONE',  ( 0.000000000000000000, 1.574999999999999956, 5.000000000000000000 ) ) ;
#213 = VECTOR ( 'NONE', #457, 1000.000000000000000 ) ;
#214 = DIRECTION ( 'NONE',  ( -0.000000000000000000, 0.000000000000000000, 1.000000000000000000 ) ) ;
#215 = ORIENTED_EDGE ( 'NONE', *, *, #43, .F. ) ;
#216 = EDGE_CURVE ( 'NONE', #225, #589, #865, .T. ) ;
#217 = VERTEX_POINT ( 'NONE', #729 ) ;
#218 = DIRECTION ( 'NONE',  ( 0.000000000000000000, -0.000000000000000000, -1.000000000000000000 ) ) ;
#219 = FACE_BOUND ( 'NONE', #390, .T. ) ;
#220 = VERTEX_POINT ( 'NONE', #146 ) ;
#221 = EDGE_CURVE ( 'NONE', #471, #75, #438, .T. ) ;
#222 = DIRECTION ( 'NONE',  ( 1.000000000000000000, 0.000000000000000000, 0.000000000000000000 ) ) ;
#223 = LINE ( 'NONE', #521, #600 ) ;
#224 = ORIENTED_EDGE ( 'NONE', *, *, #612, .F. ) ;
#225 = VERTEX_POINT ( 'NONE', #871 ) ;
#226 = DIRECTION ( 'NONE',  ( 1.000000000000000000, 8.881784197001252323E-16, 0.000000000000000000 ) ) ;
#227 = DIRECTION ( 'NONE',  ( -1.000000000000000000, -0.000000000000000000, -0.000000000000000000 ) ) ;
#228 = AXIS2_PLACEMENT_3D ( 'NONE', #212, #378, #218 ) ;
#229 = VERTEX_POINT ( 'NONE', #593 ) ;
#230 = VERTEX_POINT ( 'NONE', #797 ) ;
#231 = CARTESIAN_POINT ( 'NONE',  ( 8.673617379884035472E-16, -8.000000000000000000, 0.000000000000000000 ) ) ;
#232 = LINE ( 'NONE', #605, #804 ) ;
#233 = DIRECTION ( 'NONE',  ( 1.000000000000000000, 0.000000000000000000, 0.000000000000000000 ) ) ;
#234 = DIRECTION ( 'NONE',  ( -0.000000000000000000, 0.000000000000000000, 1.000000000000000000 ) ) ;
#235 =( NAMED_UNIT ( * ) PLANE_ANGLE_UNIT ( ) SI_UNIT ( $, .RADIAN. ) );
#236 = ORIENTED_EDGE ( 'NONE', *, *, #336, .T. ) ;
#237 = LINE ( 'NONE', #33, #213 ) ;
#238 = DIRECTION ( 'NONE',  ( -0.000000000000000000, 0.000000000000000000, 1.000000000000000000 ) ) ;
#239 = DIRECTION ( 'NONE',  ( -0.000000000000000000, 0.000000000000000000, 1.000000000000000000 ) ) ;
#240 = EDGE_LOOP ( 'NONE', ( #523, #493 ) ) ;
#241 = CIRCLE ( 'NONE', #121, 1.799999999999999600 ) ;
#242 = TOROIDAL_SURFACE ( 'NONE', #522, 5.100000000000000533, 1.000000000000000000 ) ;
#243 = AXIS2_PLACEMENT_3D ( 'NONE', #752, #536, #251 ) ;
#244 = ADVANCED_FACE ( 'NONE', ( #219, #443, #532, #620, #760, #28 ), #102, .T. ) ;
#245 = CARTESIAN_POINT ( 'NONE',  ( -2.007330316615193677, 3.575000000000000178, 10.00000000000000000 ) ) ;
#246 = LINE ( 'NONE', #547, #759 ) ;
#247 = CARTESIAN_POINT ( 'NONE',  ( 1.799999999999999600, 8.000000000000000000, 5.000000000000000000 ) ) ;
#248 = CARTESIAN_POINT ( 'NONE',  ( 0.000000000000000000, 0.000000000000000000, 10.00000000000000000 ) ) ;
#249 = ORIENTED_EDGE ( 'NONE', *, *, #112, .F. ) ;
#250 = EDGE_CURVE ( 'NONE', #576, #7, #77, .T. ) ;
#251 = DIRECTION ( 'NONE',  ( 0.000000000000000000, 0.000000000000000000, 1.000000000000000000 ) ) ;
#252 = DIRECTION ( 'NONE',  ( 1.000000000000000000, 0.000000000000000000, 0.000000000000000000 ) ) ;
#253 = CARTESIAN_POINT ( 'NONE',  ( 2.060347261643678873, 3.779867822556059576, 5.379755304932524851 ) ) ;
#254 = ORIENTED_EDGE ( 'NONE', *, *, #715, .F. ) ;
#255 = DIRECTION ( 'NONE',  ( -1.000000000000000000, 1.224646799147353454E-16, 0.000000000000000000 ) ) ;
#256 = CARTESIAN_POINT ( 'NONE',  ( 0.000000000000000000, 0.000000000000000000, 5.000000000000000000 ) ) ;
#257 = CARTESIAN_POINT ( 'NONE',  ( 2.253746880197508240, 4.575000000000000178, 5.000000000000000000 ) ) ;
#258 = PRODUCT_DEFINITION_SHAPE ( 'NONE', 'NONE',  #5 ) ;
#259 = ORIENTED_EDGE ( 'NONE', *, *, #931, .T. ) ;
#260 = AXIS2_PLACEMENT_3D ( 'NONE', #505, #787, #140 ) ;
#261 = AXIS2_PLACEMENT_3D ( 'NONE', #889, #321, #822 ) ;
#262 = EDGE_LOOP ( 'NONE', ( #534, #499, #623, #921 ) ) ;
#263 = AXIS2_PLACEMENT_3D ( 'NONE', #57, #642, #424 ) ;
#264 = CARTESIAN_POINT ( 'NONE',  ( -1.799999999999999378, -8.000000000000000000, 5.000000000000000000 ) ) ;
#265 = EDGE_CURVE ( 'NONE', #217, #700, #323, .T. ) ;
#266 = EDGE_LOOP ( 'NONE', ( #285, #286, #224, #393 ) ) ;
#267 = PRODUCT_CONTEXT ( 'NONE', #755, 'mechanical' ) ;
#268 = FACE_OUTER_BOUND ( 'NONE', #302, .T. ) ;
#269 = FACE_OUTER_BOUND ( 'NONE', #1, .T. ) ;
#270 = ORIENTED_EDGE ( 'NONE', *, *, #768, .T. ) ;
#271 = FACE_BOUND ( 'NONE', #549, .T. ) ;
#272 = CARTESIAN_POINT ( 'NONE',  ( 0.000000000000000000, 0.000000000000000000, 5.000000000000000000 ) ) ;
#273 = EDGE_LOOP ( 'NONE', ( #69, #254 ) ) ;
#274 = CIRCLE ( 'NONE', #803, 4.100000000000000533 ) ;
#275 = EDGE_CURVE ( 'NONE', #158, #118, #291, .T. ) ;
#276 = VECTOR ( 'NONE', #886, 1000.000000000000000 ) ;
#277 = TOROIDAL_SURFACE ( 'NONE', #805, 3.100000000000000533, 1.000000000000000000 ) ;
#278 = CARTESIAN_POINT ( 'NONE',  ( -2.007330316615194565, 3.575000000000001954, 5.865966767631555001 ) ) ;
#279 = VECTOR ( 'NONE', #568, 1000.000000000000000 ) ;
#280 = DIRECTION ( 'NONE',  ( -0.000000000000000000, -0.000000000000000000, -1.000000000000000000 ) ) ;
#281 = ORIENTED_EDGE ( 'NONE', *, *, #526, .T. ) ;
#282 = EDGE_CURVE ( 'NONE', #11, #579, #524, .T. ) ;
#283 = EDGE_LOOP ( 'NONE', ( #764, #289, #136, #215 ) ) ;
#284 = CARTESIAN_POINT ( 'NONE',  ( 8.000000000000000000, 4.336808689942017736E-16, 0.000000000000000000 ) ) ;
#285 = ORIENTED_EDGE ( 'NONE', *, *, #578, .T. ) ;
#286 = ORIENTED_EDGE ( 'NONE', *, *, #449, .T. ) ;
#287 = DIRECTION ( 'NONE',  ( 1.000000000000000000, 0.000000000000000000, 0.000000000000000000 ) ) ;
#288 = CARTESIAN_POINT ( 'NONE',  ( 8.673617379884035472E-16, -8.000000000000000000, 0.000000000000000000 ) ) ;
#289 = ORIENTED_EDGE ( 'NONE', *, *, #345, .T. ) ;
#290 = ORIENTED_EDGE ( 'NONE', *, *, #866, .F. ) ;
#291 = CIRCLE ( 'NONE', #366, 4.100000000000000533 ) ;
#292 = FACE_OUTER_BOUND ( 'NONE', #770, .T. ) ;
#293 = CIRCLE ( 'NONE', #837, 5.100000000000000533 ) ;
#294 = LINE ( 'NONE', #454, #351 ) ;
#295 = EDGE_CURVE ( 'NONE', #685, #451, #246, .T. ) ;
#296 = EDGE_LOOP ( 'NONE', ( #358, #648, #178, #730 ) ) ;
#297 = DIRECTION ( 'NONE',  ( 1.000000000000000000, 0.000000000000000000, 0.000000000000000000 ) ) ;
#298 = CARTESIAN_POINT ( 'NONE',  ( -6.200000000000001066, 8.709577273378262426E-16, 5.000000000000000000 ) ) ;
#299 = ORIENTED_EDGE ( 'NONE', *, *, #488, .T. ) ;
#300 = DIRECTION ( 'NONE',  ( -0.000000000000000000, -0.000000000000000000, -1.000000000000000000 ) ) ;
#301 = CARTESIAN_POINT ( 'NONE',  ( -4.100000000000000533, 0.000000000000000000, 10.00000000000000000 ) ) ;
#302 = EDGE_LOOP ( 'NONE', ( #144, #793, #399, #586 ) ) ;
#303 = EDGE_CURVE ( 'NONE', #7, #577, #395, .T. ) ;
#304 = VERTEX_POINT ( 'NONE', #679 ) ;
#305 = DIRECTION ( 'NONE',  ( 1.000000000000000000, 0.000000000000000000, 0.000000000000000000 ) ) ;
#306 = CIRCLE ( 'NONE', #746, 3.100000000000000533 ) ;
#307 = DIRECTION ( 'NONE',  ( -0.000000000000000000, 0.000000000000000000, 1.000000000000000000 ) ) ;
#308 = VECTOR ( 'NONE', #348, 1000.000000000000000 ) ;
#309 = AXIS2_PLACEMENT_3D ( 'NONE', #23, #744, #891 ) ;
#310 =( GEOMETRIC_REPRESENTATION_CONTEXT ( 3 ) GLOBAL_UNCERTAINTY_ASSIGNED_CONTEXT ( ( #495 ) ) GLOBAL_UNIT_ASSIGNED_CONTEXT ( ( #833, #925, #131 ) ) REPRESENTATION_CONTEXT ( 'NONE', 'WORKASPACE' ) );
#311 = DIRECTION ( 'NONE',  ( -0.000000000000000000, 0.000000000000000000, 1.000000000000000000 ) ) ;
#312 = ADVANCED_FACE ( 'NONE', ( #748 ), #614, .T. ) ;
#313 = CARTESIAN_POINT ( 'NONE',  ( 1.530992611467978159, 1.968814591715123630, 9.805850641530641454 ) ) ;
#314 = CARTESIAN_POINT ( 'NONE',  ( -11.50000000000000000, 0.000000000000000000, 0.000000000000000000 ) ) ;
#315 = CARTESIAN_POINT ( 'NONE',  ( 6.200000000000001066, 4.336808689942017736E-16, 0.000000000000000000 ) ) ;
#316 = DIRECTION ( 'NONE',  ( 1.000000000000000000, 0.000000000000000000, 0.000000000000000000 ) ) ;
#317 = CARTESIAN_POINT ( 'NONE',  ( -9.799999999999998934, 6.505213034913026604E-16, 5.000000000000000000 ) ) ;
#318 = EDGE_CURVE ( 'NONE', #528, #208, #567, .T. ) ;
#319 = FACE_OUTER_BOUND ( 'NONE', #266, .T. ) ;
#320 = FACE_BOUND ( 'NONE', #71, .T. ) ;
#321 = DIRECTION ( 'NONE',  ( -0.000000000000000000, 0.000000000000000000, 1.000000000000000000 ) ) ;
#322 = ORIENTED_EDGE ( 'NONE', *, *, #578, .F. ) ;
#323 = CIRCLE ( 'NONE', #834, 4.100000000000000533 ) ;
#324 = EDGE_CURVE ( 'NONE', #790, #700, #232, .T. ) ;
#325 = AXIS2_PLACEMENT_3D ( 'NONE', #888, #311, #606 ) ;
#326 = ORIENTED_EDGE ( 'NONE', *, *, #707, .F. ) ;
#327 = DIRECTION ( 'NONE',  ( -0.000000000000000000, -0.000000000000000000, -1.000000000000000000 ) ) ;
#328 = CARTESIAN_POINT ( 'NONE',  ( 0.000000000000000000, 0.000000000000000000, 0.000000000000000000 ) ) ;
#329 = CARTESIAN_POINT ( 'NONE',  ( 2.193369489860004240, 4.315933019650111113, 5.000000000000000000 ) ) ;
#330 = ORIENTED_EDGE ( 'NONE', *, *, #275, .F. ) ;
#331 = DIRECTION ( 'NONE',  ( -1.000000000000000000, 0.000000000000000000, 0.000000000000000000 ) ) ;
#332 = CARTESIAN_POINT ( 'NONE',  ( 2.014400548874231589, 3.601913303025584767, 5.734378744714216936 ) ) ;
#333 = CYLINDRICAL_SURFACE ( 'NONE', #538, 4.100000000000000533 ) ;
#334 = EDGE_LOOP ( 'NONE', ( #42, #556, #346, #852 ) ) ;
#335 = LINE ( 'NONE', #352, #279 ) ;
#336 = EDGE_CURVE ( 'NONE', #441, #514, #508, .T. ) ;
#337 = DIRECTION ( 'NONE',  ( -0.000000000000000000, 0.000000000000000000, 1.000000000000000000 ) ) ;
#338 = ORIENTED_EDGE ( 'NONE', *, *, #794, .T. ) ;
#339 = AXIS2_PLACEMENT_3D ( 'NONE', #725, #453, #935 ) ;
#340 = DIRECTION ( 'NONE',  ( -0.000000000000000000, 0.000000000000000000, 1.000000000000000000 ) ) ;
#341 = LINE ( 'NONE', #264, #18 ) ;
#342 = CYLINDRICAL_SURFACE ( 'NONE', #492, 2.100000000000000089 ) ;
#343 = ORIENTED_EDGE ( 'NONE', *, *, #318, .T. ) ;
#344 = DIRECTION ( 'NONE',  ( -0.000000000000000000, -0.000000000000000000, -1.000000000000000000 ) ) ;
#345 = EDGE_CURVE ( 'NONE', #304, #357, #819, .T. ) ;
#346 = ORIENTED_EDGE ( 'NONE', *, *, #920, .T. ) ;
#347 = DIRECTION ( 'NONE',  ( -0.000000000000000000, 0.000000000000000000, 1.000000000000000000 ) ) ;
#348 = DIRECTION ( 'NONE',  ( -0.000000000000000000, -0.000000000000000000, -1.000000000000000000 ) ) ;
#349 = CARTESIAN_POINT ( 'NONE',  ( -1.399584621955257457, 1.602706919881276448, 9.268886217161419694 ) ) ;
#350 = EDGE_LOOP ( 'NONE', ( #711, #407 ) ) ;
#351 = VECTOR ( 'NONE', #513, 1000.000000000000000 ) ;
#352 = CARTESIAN_POINT ( 'NONE',  ( 1.389019438308910503, 1.574999999999999956, 5.000000000000000000 ) ) ;
#353 = AXIS2_PLACEMENT_3D ( 'NONE', #663, #791, #655 ) ;
#354 = EDGE_LOOP ( 'NONE', ( #594, #519 ) ) ;
#355 = DIRECTION ( 'NONE',  ( -0.000000000000000000, -0.000000000000000000, -1.000000000000000000 ) ) ;
#356 = DIRECTION ( 'NONE',  ( 1.000000000000000000, 0.000000000000000000, 0.000000000000000000 ) ) ;
#357 = VERTEX_POINT ( 'NONE', #39 ) ;
#358 = ORIENTED_EDGE ( 'NONE', *, *, #122, .T. ) ;
#359 = LINE ( 'NONE', #379, #30 ) ;
#360 = ORIENTED_EDGE ( 'NONE', *, *, #936, .F. ) ;
#361 = CARTESIAN_POINT ( 'NONE',  ( 0.000000000000000000, 8.000000000000000000, 5.000000000000000000 ) ) ;
#362 = EDGE_CURVE ( 'NONE', #357, #662, #530, .T. ) ;
#363 = CARTESIAN_POINT ( 'NONE',  ( 2.100000000000000089, 2.571758278209441957E-16, 0.000000000000000000 ) ) ;
#364 = ORIENTED_EDGE ( 'NONE', *, *, #847, .T. ) ;
#365 = ORIENTED_EDGE ( 'NONE', *, *, #265, .T. ) ;
#366 = AXIS2_PLACEMENT_3D ( 'NONE', #106, #905, #252 ) ;
#367 = DIRECTION ( 'NONE',  ( -0.000000000000000000, 0.000000000000000000, 1.000000000000000000 ) ) ;
#368 = AXIS2_PLACEMENT_3D ( 'NONE', #87, #367, #287 ) ;
#369 = DIRECTION ( 'NONE',  ( 1.000000000000000000, 0.000000000000000000, 0.000000000000000000 ) ) ;
#370 = PRODUCT_RELATED_PRODUCT_CATEGORY ( 'part', '', ( #717 ) ) ;
#371 = ORIENTED_EDGE ( 'NONE', *, *, #515, .T. ) ;
#372 = ORIENTED_EDGE ( 'NONE', *, *, #216, .F. ) ;
#373 = CARTESIAN_POINT ( 'NONE',  ( -1.389019438308910503, 1.574999999999999956, 9.000000000000001776 ) ) ;
#374 = CARTESIAN_POINT ( 'NONE',  ( -9.799999999999998934, 6.505213034913026604E-16, 0.000000000000000000 ) ) ;
#375 = ORIENTED_EDGE ( 'NONE', *, *, #672, .F. ) ;
#376 = ADVANCED_FACE ( 'NONE', ( #383 ), #211, .T. ) ;
#377 = ORIENTED_EDGE ( 'NONE', *, *, #854, .T. ) ;
#378 = DIRECTION ( 'NONE',  ( 0.000000000000000000, -1.000000000000000000, 0.000000000000000000 ) ) ;
#379 = CARTESIAN_POINT ( 'NONE',  ( -1.799999999999999600, 8.000000000000000000, 5.000000000000000000 ) ) ;
#380 = DIRECTION ( 'NONE',  ( 1.000000000000000000, 8.881784197001252323E-16, 0.000000000000000000 ) ) ;
#381 = VECTOR ( 'NONE', #670, 1000.000000000000000 ) ;
#382 = AXIS2_PLACEMENT_3D ( 'NONE', #848, #636, #927 ) ;
#383 = FACE_OUTER_BOUND ( 'NONE', #785, .T. ) ;
#384 = DIRECTION ( 'NONE',  ( -0.000000000000000000, -0.000000000000000000, -1.000000000000000000 ) ) ;
#385 = CIRCLE ( 'NONE', #882, 11.50000000000000000 ) ;
#386 = CIRCLE ( 'NONE', #633, 2.100000000000000089 ) ;
#387 = CARTESIAN_POINT ( 'NONE',  ( -8.000000000000000000, 6.505213034913026604E-16, 0.000000000000000000 ) ) ;
#388 = EDGE_CURVE ( 'NONE', #304, #565, #306, .T. ) ;
#389 = DIRECTION ( 'NONE',  ( 1.000000000000000000, 1.776356839400250465E-15, 0.000000000000000000 ) ) ;
#390 = EDGE_LOOP ( 'NONE', ( #692, #142, #599, #113 ) ) ;
#391 = EDGE_CURVE ( 'NONE', #565, #208, #193, .T. ) ;
#392 = DIRECTION ( 'NONE',  ( 1.000000000000000000, 0.000000000000000000, 0.000000000000000000 ) ) ;
#393 = ORIENTED_EDGE ( 'NONE', *, *, #78, .F. ) ;
#394 = CARTESIAN_POINT ( 'NONE',  ( 8.000000000000000000, 4.336808689942017736E-16, 5.000000000000000000 ) ) ;
#395 = LINE ( 'NONE', #172, #276 ) ;
#396 = ORIENTED_EDGE ( 'NONE', *, *, #176, .F. ) ;
#397 = AXIS2_PLACEMENT_3D ( 'NONE', #816, #239, #827 ) ;
#398 = CIRCLE ( 'NONE', #141, 1.799999999999999600 ) ;
#399 = ORIENTED_EDGE ( 'NONE', *, *, #497, .F. ) ;
#400 = DIRECTION ( 'NONE',  ( -0.000000000000000000, 0.000000000000000000, 1.000000000000000000 ) ) ;
#401 = CARTESIAN_POINT ( 'NONE',  ( 1.399585243122045020, 1.602708539480292016, 9.268893814218476024 ) ) ;
#402 = DIRECTION ( 'NONE',  ( -1.000000000000000000, 0.000000000000000000, 0.000000000000000000 ) ) ;
#403 = EDGE_LOOP ( 'NONE', ( #322, #763 ) ) ;
#404 = DIRECTION ( 'NONE',  ( 1.000000000000000000, 0.000000000000000000, 0.000000000000000000 ) ) ;
#405 = DIRECTION ( 'NONE',  ( -0.000000000000000000, -0.000000000000000000, -1.000000000000000000 ) ) ;
#406 = DIRECTION ( 'NONE',  ( -1.000000000000000000, 0.000000000000000000, 0.000000000000000000 ) ) ;
#407 = ORIENTED_EDGE ( 'NONE', *, *, #794, .F. ) ;
#408 = CARTESIAN_POINT ( 'NONE',  ( 0.000000000000000000, 8.000000000000000000, 5.000000000000000000 ) ) ;
#409 = CARTESIAN_POINT ( 'NONE',  ( -1.389019438308910948, 1.574999999999999956, 9.135684999019913377 ) ) ;
#410 = ORIENTED_EDGE ( 'NONE', *, *, #435, .F. ) ;
#411 = AXIS2_PLACEMENT_3D ( 'NONE', #603, #138, #652 ) ;
#412 = CARTESIAN_POINT ( 'NONE',  ( 8.000000000000000000, 4.336808689942017736E-16, 5.000000000000000000 ) ) ;
#413 = CARTESIAN_POINT ( 'NONE',  ( 8.000000000000000000, 4.336808689942017736E-16, 5.000000000000000000 ) ) ;
#414 = ADVANCED_FACE ( 'NONE', ( #484 ), #918, .F. ) ;
#415 = CYLINDRICAL_SURFACE ( 'NONE', #182, 1.799999999999999600 ) ;
#416 = ORIENTED_EDGE ( 'NONE', *, *, #250, .T. ) ;
#417 = FACE_BOUND ( 'NONE', #240, .T. ) ;
#418 = CYLINDRICAL_SURFACE ( 'NONE', #913, 1.799999999999998712 ) ;
#419 = ADVANCED_FACE ( 'NONE', ( #713 ), #926, .F. ) ;
#420 = CARTESIAN_POINT ( 'NONE',  ( -1.563512015839357838, 2.061631409697885164, 9.896589700506908116 ) ) ;
#421 = VERTEX_POINT ( 'NONE', #317 ) ;
#422 = DIRECTION ( 'NONE',  ( 1.000000000000000000, 0.000000000000000000, 0.000000000000000000 ) ) ;
#423 = EDGE_LOOP ( 'NONE', ( #907, #862, #371, #843 ) ) ;
#424 = DIRECTION ( 'NONE',  ( 0.000000000000000000, 0.000000000000000000, -1.000000000000000000 ) ) ;
#425 = APPLICATION_CONTEXT ( 'automotive_design' ) ;
#426 = EDGE_LOOP ( 'NONE', ( #364, #571 ) ) ;
#427 = CIRCLE ( 'NONE', #17, 3.100000000000000533 ) ;
#428 = AXIS2_PLACEMENT_3D ( 'NONE', #830, #899, #90 ) ;
#429 = CIRCLE ( 'NONE', #673, 1.800000000000000266 ) ;
#430 = AXIS2_PLACEMENT_3D ( 'NONE', #394, #327, #331 ) ;
#431 = VERTEX_POINT ( 'NONE', #831 ) ;
#432 = DIRECTION ( 'NONE',  ( 0.000000000000000000, -0.000000000000000000, -1.000000000000000000 ) ) ;
#433 = CARTESIAN_POINT ( 'NONE',  ( 0.000000000000000000, 1.574999999999999956, 0.000000000000000000 ) ) ;
#434 = ORIENTED_EDGE ( 'NONE', *, *, #488, .F. ) ;
#435 = EDGE_CURVE ( 'NONE', #795, #229, #887, .T. ) ;
#436 = ORIENTED_EDGE ( 'NONE', *, *, #838, .F. ) ;
#437 = FACE_OUTER_BOUND ( 'NONE', #479, .T. ) ;
#438 = LINE ( 'NONE', #73, #460 ) ;
#439 = ORIENTED_EDGE ( 'NONE', *, *, #768, .F. ) ;
#440 = EDGE_CURVE ( 'NONE', #471, #230, #241, .T. ) ;
#441 = VERTEX_POINT ( 'NONE', #314 ) ;
#442 = DIRECTION ( 'NONE',  ( -1.000000000000000000, 0.000000000000000000, 0.000000000000000000 ) ) ;
#443 = FACE_OUTER_BOUND ( 'NONE', #81, .T. ) ;
#444 = AXIS2_PLACEMENT_3D ( 'NONE', #666, #13, #517 ) ;
#445 = VERTEX_POINT ( 'NONE', #611 ) ;
#446 = AXIS2_PLACEMENT_3D ( 'NONE', #466, #25, #316 ) ;
#447 = CARTESIAN_POINT ( 'NONE',  ( 4.100000000000000533, 5.021051876504148371E-16, 10.00000000000000000 ) ) ;
#448 = CIRCLE ( 'NONE', #325, 2.100000000000000089 ) ;
#449 = EDGE_CURVE ( 'NONE', #828, #561, #181, .T. ) ;
#450 = CARTESIAN_POINT ( 'NONE',  ( 0.000000000000000000, 0.000000000000000000, 10.00000000000000000 ) ) ;
#451 = VERTEX_POINT ( 'NONE', #680 ) ;
#452 = ORIENTED_EDGE ( 'NONE', *, *, #612, .T. ) ;
#453 = DIRECTION ( 'NONE',  ( -0.000000000000000000, 0.000000000000000000, 1.000000000000000000 ) ) ;
#454 = CARTESIAN_POINT ( 'NONE',  ( -9.799999999999998934, 6.505213034913026604E-16, 5.000000000000000000 ) ) ;
#455 = ADVANCED_FACE ( 'NONE', ( #621 ), #103, .T. ) ;
#456 = EDGE_LOOP ( 'NONE', ( #270, #205, #365, #174 ) ) ;
#457 = DIRECTION ( 'NONE',  ( 1.000000000000000000, -0.000000000000000000, 0.000000000000000000 ) ) ;
#458 = CARTESIAN_POINT ( 'NONE',  ( 1.438050100325050096, 1.706660194984822354, 9.513459395230739801 ) ) ;
#459 = DIRECTION ( 'NONE',  ( 1.000000000000000000, 0.000000000000000000, 0.000000000000000000 ) ) ;
#460 = VECTOR ( 'NONE', #657, 1000.000000000000000 ) ;
#461 = VECTOR ( 'NONE', #344, 1000.000000000000000 ) ;
#462 = DIRECTION ( 'NONE',  ( 0.000000000000000000, -0.000000000000000000, -1.000000000000000000 ) ) ;
#463 = DIRECTION ( 'NONE',  ( 1.000000000000000000, 0.000000000000000000, 0.000000000000000000 ) ) ;
#464 = EDGE_CURVE ( 'NONE', #421, #225, #491, .T. ) ;
#465 = DIRECTION ( 'NONE',  ( -0.000000000000000000, -0.000000000000000000, -1.000000000000000000 ) ) ;
#466 = CARTESIAN_POINT ( 'NONE',  ( 0.000000000000000000, 0.000000000000000000, 5.000000000000000000 ) ) ;
#467 = DIRECTION ( 'NONE',  ( -0.000000000000000000, -0.000000000000000000, -1.000000000000000000 ) ) ;
#468 = CYLINDRICAL_SURFACE ( 'NONE', #430, 1.799999999999998712 ) ;
#469 = CARTESIAN_POINT ( 'NONE',  ( 0.000000000000000000, 0.000000000000000000, 5.000000000000000000 ) ) ;
#470 = FILL_AREA_STYLE_COLOUR ( '', #928 ) ;
#471 = VERTEX_POINT ( 'NONE', #540 ) ;
#472 = DIRECTION ( 'NONE',  ( -0.000000000000000000, 0.000000000000000000, 1.000000000000000000 ) ) ;
#473 = CARTESIAN_POINT ( 'NONE',  ( 1.568641658658832538, 2.079530947815528386, 9.878033663453020807 ) ) ;
#474 = FILL_AREA_STYLE ('',( #470 ) ) ;
#475 = EDGE_CURVE ( 'NONE', #7, #576, #849, .T. ) ;
#476 = CARTESIAN_POINT ( 'NONE',  ( 1.800000000000000933, -8.000000000000000000, 5.000000000000000000 ) ) ;
#477 =( GEOMETRIC_REPRESENTATION_CONTEXT ( 3 ) GLOBAL_UNCERTAINTY_ASSIGNED_CONTEXT ( ( #876 ) ) GLOBAL_UNIT_ASSIGNED_CONTEXT ( ( #173, #235, #99 ) ) REPRESENTATION_CONTEXT ( 'NONE', 'WORKASPACE' ) );
#478 = AXIS2_PLACEMENT_3D ( 'NONE', #109, #400, #97 ) ;
#479 = EDGE_LOOP ( 'NONE', ( #716, #573, #299, #236 ) ) ;
#480 = CARTESIAN_POINT ( 'NONE',  ( 0.000000000000000000, 0.000000000000000000, 9.000000000000001776 ) ) ;
#481 = DIRECTION ( 'NONE',  ( -0.000000000000000000, 0.000000000000000000, 1.000000000000000000 ) ) ;
#482 = ADVANCED_FACE ( 'NONE', ( #906 ), #900, .F. ) ;
#483 = ORIENTED_EDGE ( 'NONE', *, *, #391, .F. ) ;
#484 = FACE_OUTER_BOUND ( 'NONE', #45, .T. ) ;
#485 = DIRECTION ( 'NONE',  ( -0.000000000000000000, 0.000000000000000000, 1.000000000000000000 ) ) ;
#486 = MANIFOLD_SOLID_BREP ( 'Fillet2', #170 ) ;
#487 = VERTEX_POINT ( 'NONE', #61 ) ;
#488 = EDGE_CURVE ( 'NONE', #11, #441, #177, .T. ) ;
#489 = DIRECTION ( 'NONE',  ( 1.000000000000000000, 0.000000000000000000, 0.000000000000000000 ) ) ;
#490 = DIRECTION ( 'NONE',  ( -1.000000000000000000, 0.000000000000000000, 0.000000000000000000 ) ) ;
#491 = CIRCLE ( 'NONE', #397, 1.799999999999999600 ) ;
#492 = AXIS2_PLACEMENT_3D ( 'NONE', #638, #650, #115 ) ;
#493 = ORIENTED_EDGE ( 'NONE', *, *, #176, .T. ) ;
#494 = CIRCLE ( 'NONE', #123, 2.100000000000000089 ) ;
#495 = UNCERTAINTY_MEASURE_WITH_UNIT (LENGTH_MEASURE( 1.000000000000000082E-05 ), #833, 'distance_accuracy_value', 'NONE');
#496 = DIRECTION ( 'NONE',  ( 1.000000000000000000, 0.000000000000000000, 0.000000000000000000 ) ) ;
#497 = EDGE_CURVE ( 'NONE', #784, #75, #62, .T. ) ;
#498 = FACE_OUTER_BOUND ( 'NONE', #85, .T. ) ;
#499 = ORIENTED_EDGE ( 'NONE', *, *, #362, .T. ) ;
#500 = DIRECTION ( 'NONE',  ( 0.000000000000000000, 0.000000000000000000, 1.000000000000000000 ) ) ;
#501 = CARTESIAN_POINT ( 'NONE',  ( 6.200000000000001954, 4.336808689942017736E-16, 5.000000000000000000 ) ) ;
#502 = VERTEX_POINT ( 'NONE', #128 ) ;
#503 = VERTEX_POINT ( 'NONE', #558 ) ;
#504 = DIRECTION ( 'NONE',  ( -0.000000000000000000, 0.000000000000000000, 1.000000000000000000 ) ) ;
#505 = CARTESIAN_POINT ( 'NONE',  ( 0.000000000000000000, 0.000000000000000000, 6.000000000000000000 ) ) ;
#506 = EDGE_CURVE ( 'NONE', #576, #903, #341, .T. ) ;
#507 = ORIENTED_EDGE ( 'NONE', *, *, #318, .F. ) ;
#508 = CIRCLE ( 'NONE', #688, 11.50000000000000000 ) ;
#509 = CIRCLE ( 'NONE', #185, 2.100000000000000089 ) ;
#510 = AXIS2_PLACEMENT_3D ( 'NONE', #51, #500, #196 ) ;
#511 = EDGE_LOOP ( 'NONE', ( #195, #439, #74, #767 ) ) ;
#512 = DIRECTION ( 'NONE',  ( -0.000000000000000000, 0.000000000000000000, 1.000000000000000000 ) ) ;
#513 = DIRECTION ( 'NONE',  ( -0.000000000000000000, -0.000000000000000000, -1.000000000000000000 ) ) ;
#514 = VERTEX_POINT ( 'NONE', #702 ) ;
#515 = EDGE_CURVE ( 'NONE', #230, #784, #859, .T. ) ;
#516 = DIRECTION ( 'NONE',  ( 1.000000000000000000, 0.000000000000000000, 0.000000000000000000 ) ) ;
#517 = DIRECTION ( 'NONE',  ( 1.000000000000000000, 0.000000000000000000, 0.000000000000000000 ) ) ;
#518 = EDGE_CURVE ( 'NONE', #75, #784, #46, .T. ) ;
#519 = ORIENTED_EDGE ( 'NONE', *, *, #475, .F. ) ;
#520 = PLANE ( 'NONE',  #914 ) ;
#521 = CARTESIAN_POINT ( 'NONE',  ( 0.000000000000000000, 1.574999999999999956, 9.000000000000001776 ) ) ;
#522 = AXIS2_PLACEMENT_3D ( 'NONE', #204, #564, #356 ) ;
#523 = ORIENTED_EDGE ( 'NONE', *, *, #742, .T. ) ;
#524 = CIRCLE ( 'NONE', #446, 11.50000000000000000 ) ;
#525 = FACE_OUTER_BOUND ( 'NONE', #157, .T. ) ;
#526 = EDGE_CURVE ( 'NONE', #810, #220, #718, .T. ) ;
#527 = CARTESIAN_POINT ( 'NONE',  ( 2.100000000000000089, 2.571758278209441957E-16, 5.000000000000000000 ) ) ;
#528 = VERTEX_POINT ( 'NONE', #124 ) ;
#529 = CARTESIAN_POINT ( 'NONE',  ( 2.253746880197508240, 4.575000000000000178, 5.000000000000000000 ) ) ;
#530 = LINE ( 'NONE', #813, #93 ) ;
#531 = CYLINDRICAL_SURFACE ( 'NONE', #661, 4.100000000000000533 ) ;
#532 = FACE_BOUND ( 'NONE', #350, .T. ) ;
#533 = CARTESIAN_POINT ( 'NONE',  ( 8.000000000000000000, 4.336808689942017736E-16, 5.000000000000000000 ) ) ;
#534 = ORIENTED_EDGE ( 'NONE', *, *, #148, .T. ) ;
#535 = EDGE_CURVE ( 'NONE', #431, #304, #671, .T. ) ;
#536 = DIRECTION ( 'NONE',  ( -1.000000000000000000, 0.000000000000000000, -0.000000000000000000 ) ) ;
#537 = CIRCLE ( 'NONE', #444, 1.799999999999999600 ) ;
#538 = AXIS2_PLACEMENT_3D ( 'NONE', #248, #280, #406 ) ;
#539 = CARTESIAN_POINT ( 'NONE',  ( 1.389019438308910503, 1.574999999999999956, 9.000000000000001776 ) ) ;
#540 = CARTESIAN_POINT ( 'NONE',  ( 9.799999999999998934, 6.541172928407251586E-16, 5.000000000000000000 ) ) ;
#541 = ADVANCED_FACE ( 'NONE', ( #268 ), #418, .F. ) ;
#542 = DIRECTION ( 'NONE',  ( -0.000000000000000000, 0.000000000000000000, 1.000000000000000000 ) ) ;
#543 = CARTESIAN_POINT ( 'NONE',  ( 1.389019438308910726, 1.574999999999999956, 9.135688793799918272 ) ) ;
#544 = CARTESIAN_POINT ( 'NONE',  ( -11.50000000000000000, 0.000000000000000000, 5.000000000000000000 ) ) ;
#545 = ORIENTED_EDGE ( 'NONE', *, *, #143, .T. ) ;
#546 = DIRECTION ( 'NONE',  ( -1.000000000000000000, 0.000000000000000000, 0.000000000000000000 ) ) ;
#547 = CARTESIAN_POINT ( 'NONE',  ( -1.389019438308910503, 1.574999999999999956, 5.000000000000000000 ) ) ;
#548 = CARTESIAN_POINT ( 'NONE',  ( 2.040903614947257250, 3.704273297501737616, 5.490797308879189487 ) ) ;
#549 = EDGE_LOOP ( 'NONE', ( #727, #187 ) ) ;
#550 = CARTESIAN_POINT ( 'NONE',  ( 0.000000000000000000, 0.000000000000000000, 0.000000000000000000 ) ) ;
#551 = TOROIDAL_SURFACE ( 'NONE', #260, 5.100000000000000533, 1.000000000000000000 ) ;
#552 = AXIS2_PLACEMENT_3D ( 'NONE', #608, #234, #167 ) ;
#553 = ORIENTED_EDGE ( 'NONE', *, *, #295, .T. ) ;
#554 = AXIS2_PLACEMENT_3D ( 'NONE', #786, #870, #305 ) ;
#555 = CIRCLE ( 'NONE', #675, 1.000000000000000000 ) ;
#556 = ORIENTED_EDGE ( 'NONE', *, *, #101, .T. ) ;
#557 = CARTESIAN_POINT ( 'NONE',  ( 0.000000000000000000, 2.575000000000000178, 10.00000000000000000 ) ) ;
#558 = CARTESIAN_POINT ( 'NONE',  ( 1.389019438308910503, 1.574999999999999956, 0.000000000000000000 ) ) ;
#559 = FACE_OUTER_BOUND ( 'NONE', #591, .T. ) ;
#560 = EDGE_CURVE ( 'NONE', #152, #158, #766, .T. ) ;
#561 = VERTEX_POINT ( 'NONE', #699 ) ;
#562 = CARTESIAN_POINT ( 'NONE',  ( 8.673617379884035472E-16, -8.000000000000000000, 5.000000000000000000 ) ) ;
#563 = CARTESIAN_POINT ( 'NONE',  ( 8.000000000000000000, 4.336808689942017736E-16, 0.000000000000000000 ) ) ;
#564 = DIRECTION ( 'NONE',  ( -0.000000000000000000, 0.000000000000000000, 1.000000000000000000 ) ) ;
#565 = VERTEX_POINT ( 'NONE', #574 ) ;
#566 = EDGE_CURVE ( 'NONE', #445, #502, #584, .T. ) ;
#567 = B_SPLINE_CURVE_WITH_KNOTS ( 'NONE', 3,
 ( #539, #543, #401, #458, #689, #313, #473, #610, #34, #180 ),
 .UNSPECIFIED., .F., .F.,
 ( 4, 2, 2, 2, 4 ),
 ( 0.000000000000000000, 0.0004010915479769526179, 0.0008021830959539052357, 0.001203274643930857474, 0.001604366191907809821 ),
 .UNSPECIFIED. ) ;
#568 = DIRECTION ( 'NONE',  ( -0.000000000000000000, -0.000000000000000000, -1.000000000000000000 ) ) ;
#569 = DIRECTION ( 'NONE',  ( 0.000000000000000000, -0.000000000000000000, -1.000000000000000000 ) ) ;
#570 = AXIS2_PLACEMENT_3D ( 'NONE', #690, #384, #890 ) ;
#571 = ORIENTED_EDGE ( 'NONE', *, *, #750, .T. ) ;
#572 = AXIS2_PLACEMENT_3D ( 'NONE', #613, #542, #825 ) ;
#573 = ORIENTED_EDGE ( 'NONE', *, *, #282, .F. ) ;
#574 = CARTESIAN_POINT ( 'NONE',  ( -1.726086614280987419, 2.575000000000000178, 10.00000000000000000 ) ) ;
#575 = CARTESIAN_POINT ( 'NONE',  ( -1.389019438308910503, 1.574999999999999956, 9.000000000000001776 ) ) ;
#576 = VERTEX_POINT ( 'NONE', #189 ) ;
#577 = VERTEX_POINT ( 'NONE', #629 ) ;
#578 = EDGE_CURVE ( 'NONE', #116, #828, #703, .T. ) ;
#579 = VERTEX_POINT ( 'NONE', #117 ) ;
#580 = ORIENTED_EDGE ( 'NONE', *, *, #449, .F. ) ;
#581 = CARTESIAN_POINT ( 'NONE',  ( 0.000000000000000000, 0.000000000000000000, 9.000000000000001776 ) ) ;
#582 = CARTESIAN_POINT ( 'NONE',  ( -2.007330316615193677, 3.575000000000000178, 6.000000000000000000 ) ) ;
#583 = AXIS2_PLACEMENT_3D ( 'NONE', #469, #892, #392 ) ;
#584 = CIRCLE ( 'NONE', #168, 5.100000000000000533 ) ;
#585 = CIRCLE ( 'NONE', #478, 4.100000000000000533 ) ;
#586 = ORIENTED_EDGE ( 'NONE', *, *, #515, .F. ) ;
#587 = DIRECTION ( 'NONE',  ( -0.000000000000000000, -0.000000000000000000, -1.000000000000000000 ) ) ;
#588 = DIRECTION ( 'NONE',  ( -0.000000000000000000, 0.000000000000000000, 1.000000000000000000 ) ) ;
#589 = VERTEX_POINT ( 'NONE', #199 ) ;
#590 = EDGE_CURVE ( 'NONE', #118, #445, #691, .T. ) ;
#591 = EDGE_LOOP ( 'NONE', ( #924, #840, #832, #651 ) ) ;
#592 = CARTESIAN_POINT ( 'NONE',  ( 8.673617379884035472E-16, -8.000000000000000000, 5.000000000000000000 ) ) ;
#593 = CARTESIAN_POINT ( 'NONE',  ( 2.007330316615194565, 3.575000000000000178, 6.000000000000000000 ) ) ;
#594 = ORIENTED_EDGE ( 'NONE', *, *, #250, .F. ) ;
#595 = ADVANCED_FACE ( 'NONE', ( #498 ), #777, .T. ) ;
#596 = ORIENTED_EDGE ( 'NONE', *, *, #715, .T. ) ;
#597 = DIRECTION ( 'NONE',  ( -0.000000000000000000, -0.000000000000000000, -1.000000000000000000 ) ) ;
#598 = LINE ( 'NONE', #582, #880 ) ;
#599 = ORIENTED_EDGE ( 'NONE', *, *, #566, .T. ) ;
#600 = VECTOR ( 'NONE', #227, 1000.000000000000000 ) ;
#601 = ORIENTED_EDGE ( 'NONE', *, *, #154, .F. ) ;
#602 = AXIS2_PLACEMENT_3D ( 'NONE', #98, #745, #696 ) ;
#603 = CARTESIAN_POINT ( 'NONE',  ( 0.000000000000000000, 0.000000000000000000, 5.000000000000000000 ) ) ;
#604 = TOROIDAL_SURFACE ( 'NONE', #368, 5.100000000000000533, 1.000000000000000000 ) ;
#605 = CARTESIAN_POINT ( 'NONE',  ( 0.000000000000000000, 3.575000000000000178, 10.00000000000000000 ) ) ;
#606 = DIRECTION ( 'NONE',  ( 1.000000000000000000, 0.000000000000000000, 0.000000000000000000 ) ) ;
#607 = ADVANCED_FACE ( 'NONE', ( #720, #145 ), #15, .T. ) ;
#608 = CARTESIAN_POINT ( 'NONE',  ( 0.000000000000000000, 0.000000000000000000, 9.000000000000001776 ) ) ;
#609 = CARTESIAN_POINT ( 'NONE',  ( 0.000000000000000000, 0.000000000000000000, 0.000000000000000000 ) ) ;
#610 = CARTESIAN_POINT ( 'NONE',  ( 1.646208612253535986, 2.317022511412198504, 9.974618033493756641 ) ) ;
#611 = CARTESIAN_POINT ( 'NONE',  ( 5.100000000000000533, 0.000000000000000000, 5.000000000000000000 ) ) ;
#612 = EDGE_CURVE ( 'NONE', #487, #561, #20, .T. ) ;
#613 = CARTESIAN_POINT ( 'NONE',  ( 0.000000000000000000, 0.000000000000000000, 9.000000000000001776 ) ) ;
#614 = CYLINDRICAL_SURFACE ( 'NONE', #428, 11.50000000000000000 ) ;
#615 = CARTESIAN_POINT ( 'NONE',  ( 0.000000000000000000, 0.000000000000000000, 10.00000000000000000 ) ) ;
#616 = CIRCLE ( 'NONE', #197, 1.799999999999999600 ) ;
#617 = ORIENTED_EDGE ( 'NONE', *, *, #842, .T. ) ;
#618 = EDGE_CURVE ( 'NONE', #502, #220, #293, .T. ) ;
#619 = CARTESIAN_POINT ( 'NONE',  ( -2.007330316615193677, 3.575000000000000178, 6.000000000000000000 ) ) ;
#620 = FACE_BOUND ( 'NONE', #354, .T. ) ;
#621 = FACE_OUTER_BOUND ( 'NONE', #210, .T. ) ;
#622 = ORIENTED_EDGE ( 'NONE', *, *, #618, .F. ) ;
#623 = ORIENTED_EDGE ( 'NONE', *, *, #753, .T. ) ;
#624 = ADVANCED_FACE ( 'NONE', ( #437 ), #159, .T. ) ;
#625 = FACE_OUTER_BOUND ( 'NONE', #511, .T. ) ;
#626 = SURFACE_SIDE_STYLE ('',( #761 ) ) ;
#627 = CARTESIAN_POINT ( 'NONE',  ( 0.000000000000000000, 8.000000000000000000, 5.000000000000000000 ) ) ;
#628 = EDGE_LOOP ( 'NONE', ( #782, #108, #259, #377 ) ) ;
#629 = CARTESIAN_POINT ( 'NONE',  ( 1.800000000000000933, -8.000000000000000000, 0.000000000000000000 ) ) ;
#630 = VECTOR ( 'NONE', #405, 1000.000000000000000 ) ;
#631 = CARTESIAN_POINT ( 'NONE',  ( -1.465933084428067801, 1.783120806807591219, 9.624325590961882781 ) ) ;
#632 = VECTOR ( 'NONE', #38, 1000.000000000000000 ) ;
#633 = AXIS2_PLACEMENT_3D ( 'NONE', #635, #719, #496 ) ;
#634 = EDGE_LOOP ( 'NONE', ( #857, #617, #596, #434 ) ) ;
#635 = CARTESIAN_POINT ( 'NONE',  ( 0.000000000000000000, 0.000000000000000000, 0.000000000000000000 ) ) ;
#636 = DIRECTION ( 'NONE',  ( 0.000000000000000000, -0.000000000000000000, -1.000000000000000000 ) ) ;
#637 = EDGE_CURVE ( 'NONE', #795, #445, #820, .T. ) ;
#638 = CARTESIAN_POINT ( 'NONE',  ( 0.000000000000000000, 0.000000000000000000, 5.000000000000000000 ) ) ;
#639 = EDGE_LOOP ( 'NONE', ( #738, #200, #104, #873 ) ) ;
#640 = DIRECTION ( 'NONE',  ( -0.000000000000000000, -0.000000000000000000, -1.000000000000000000 ) ) ;
#641 = ORIENTED_EDGE ( 'NONE', *, *, #847, .F. ) ;
#642 = DIRECTION ( 'NONE',  ( 1.000000000000000000, 0.000000000000000000, 0.000000000000000000 ) ) ;
#643 = PRESENTATION_LAYER_ASSIGNMENT (  '', '', ( #881 ) ) ;
#644 = ORIENTED_EDGE ( 'NONE', *, *, #265, .F. ) ;
#645 = CIRCLE ( 'NONE', #762, 1.000000000000000888 ) ;
#646 = PRODUCT_DEFINITION_CONTEXT ( 'detailed design', #425, 'design' ) ;
#647 = ADVANCED_FACE ( 'NONE', ( #525 ), #884, .F. ) ;
#648 = ORIENTED_EDGE ( 'NONE', *, *, #535, .T. ) ;
#649 = DIRECTION ( 'NONE',  ( 1.000000000000000000, 0.000000000000000000, 0.000000000000000000 ) ) ;
#650 = DIRECTION ( 'NONE',  ( -0.000000000000000000, -0.000000000000000000, -1.000000000000000000 ) ) ;
#651 = ORIENTED_EDGE ( 'NONE', *, *, #435, .T. ) ;
#652 = DIRECTION ( 'NONE',  ( -1.000000000000000000, 0.000000000000000000, 0.000000000000000000 ) ) ;
#653 = DIRECTION ( 'NONE',  ( -0.000000000000000000, -0.000000000000000000, -1.000000000000000000 ) ) ;
#654 = ORIENTED_EDGE ( 'NONE', *, *, #303, .T. ) ;
#655 = DIRECTION ( 'NONE',  ( 1.000000000000000000, 0.000000000000000000, 0.000000000000000000 ) ) ;
#656 = EDGE_CURVE ( 'NONE', #217, #118, #150, .T. ) ;
#657 = DIRECTION ( 'NONE',  ( -0.000000000000000000, -0.000000000000000000, -1.000000000000000000 ) ) ;
#658 = AXIS2_PLACEMENT_3D ( 'NONE', #288, #875, #9 ) ;
#659 = AXIS2_PLACEMENT_3D ( 'NONE', #615, #467, #893 ) ;
#660 = AXIS2_PLACEMENT_3D ( 'NONE', #779, #190, #129 ) ;
#661 = AXIS2_PLACEMENT_3D ( 'NONE', #814, #465, #546 ) ;
#662 = VERTEX_POINT ( 'NONE', #665 ) ;
#663 = CARTESIAN_POINT ( 'NONE',  ( 0.000000000000000000, 8.000000000000000000, 0.000000000000000000 ) ) ;
#664 = CARTESIAN_POINT ( 'NONE',  ( 0.000000000000000000, 0.000000000000000000, 10.00000000000000000 ) ) ;
#665 = CARTESIAN_POINT ( 'NONE',  ( -2.100000000000000089, 0.000000000000000000, 0.000000000000000000 ) ) ;
#666 = CARTESIAN_POINT ( 'NONE',  ( 0.000000000000000000, 8.000000000000000000, 5.000000000000000000 ) ) ;
#667 = B_SPLINE_CURVE_WITH_KNOTS ( 'NONE', 3,
 ( #850, #134, #420, #631, #58, #349, #409, #575 ),
 .UNSPECIFIED., .F., .F.,
 ( 4, 2, 2, 4 ),
 ( -8.475841477717078424E-06, 0.0007979538559205369289, 0.001201168704619665854, 0.001604383553318794887 ),
 .UNSPECIFIED. ) ;
#668 = ORIENTED_EDGE ( 'NONE', *, *, #750, .F. ) ;
#669 = CARTESIAN_POINT ( 'NONE',  ( 0.000000000000000000, 0.000000000000000000, 10.00000000000000000 ) ) ;
#670 = DIRECTION ( 'NONE',  ( -0.000000000000000000, -0.000000000000000000, -1.000000000000000000 ) ) ;
#671 = CIRCLE ( 'NONE', #382, 3.100000000000000533 ) ;
#672 = EDGE_CURVE ( 'NONE', #810, #158, #788, .T. ) ;
#673 = AXIS2_PLACEMENT_3D ( 'NONE', #231, #686, #175 ) ;
#674 = FACE_OUTER_BOUND ( 'NONE', #776, .T. ) ;
#675 = AXIS2_PLACEMENT_3D ( 'NONE', #908, #56, #255 ) ;
#676 = DIRECTION ( 'NONE',  ( -0.000000000000000000, -0.000000000000000000, -1.000000000000000000 ) ) ;
#677 = FACE_OUTER_BOUND ( 'NONE', #639, .T. ) ;
#678 = EDGE_CURVE ( 'NONE', #431, #799, #645, .T. ) ;
#679 = CARTESIAN_POINT ( 'NONE',  ( -3.100000000000000533, 3.796405077356795411E-16, 10.00000000000000178 ) ) ;
#680 = CARTESIAN_POINT ( 'NONE',  ( -1.389019438308910503, 1.574999999999999956, 0.000000000000000000 ) ) ;
#681 = ADVANCED_BREP_SHAPE_REPRESENTATION ( 'wheelhub', ( #486, #510 ), #310 ) ;
#682 = LINE ( 'NONE', #162, #775 ) ;
#683 = CARTESIAN_POINT ( 'NONE',  ( 0.000000000000000000, 0.000000000000000000, 10.00000000000000000 ) ) ;
#684 = ADVANCED_FACE ( 'NONE', ( #292 ), #12, .T. ) ;
#685 = VERTEX_POINT ( 'NONE', #373 ) ;
#686 = DIRECTION ( 'NONE',  ( -0.000000000000000000, 0.000000000000000000, 1.000000000000000000 ) ) ;
#687 = AXIS2_PLACEMENT_3D ( 'NONE', #937, #214, #369 ) ;
#688 = AXIS2_PLACEMENT_3D ( 'NONE', #328, #238, #110 ) ;
#689 = CARTESIAN_POINT ( 'NONE',  ( 1.465937094602567603, 1.783131914536341345, 9.624340404664767590 ) ) ;
#690 = CARTESIAN_POINT ( 'NONE',  ( -8.000000000000000000, 6.505213034913026604E-16, 5.000000000000000000 ) ) ;
#691 = CIRCLE ( 'NONE', #704, 1.000000000000000000 ) ;
#692 = ORIENTED_EDGE ( 'NONE', *, *, #798, .T. ) ;
#693 = ADVANCED_FACE ( 'NONE', ( #739 ), #604, .F. ) ;
#694 = ORIENTED_EDGE ( 'NONE', *, *, #154, .T. ) ;
#695 = FACE_OUTER_BOUND ( 'NONE', #423, .T. ) ;
#696 = DIRECTION ( 'NONE',  ( -1.000000000000000000, 1.224646799147352961E-16, 0.000000000000000000 ) ) ;
#697 = DIRECTION ( 'NONE',  ( -0.000000000000000000, 0.000000000000000000, 1.000000000000000000 ) ) ;
#698 = ORIENTED_EDGE ( 'NONE', *, *, #43, .T. ) ;
#699 = CARTESIAN_POINT ( 'NONE',  ( 1.799999999999999600, 8.000000000000000000, 0.000000000000000000 ) ) ;
#700 = VERTEX_POINT ( 'NONE', #874 ) ;
#701 = EDGE_CURVE ( 'NONE', #357, #799, #509, .T. ) ;
#702 = CARTESIAN_POINT ( 'NONE',  ( 11.50000000000000000, 1.408343819019456176E-15, 0.000000000000000000 ) ) ;
#703 = CIRCLE ( 'NONE', #734, 1.799999999999999600 ) ;
#704 = AXIS2_PLACEMENT_3D ( 'NONE', #714, #202, #133 ) ;
#705 = ORIENTED_EDGE ( 'NONE', *, *, #566, .F. ) ;
#706 = FACE_BOUND ( 'NONE', #811, .T. ) ;
#707 = EDGE_CURVE ( 'NONE', #561, #487, #724, .T. ) ;
#708 = CARTESIAN_POINT ( 'NONE',  ( -2.253746880197508240, 4.575000000000000178, 5.000000000000000000 ) ) ;
#709 = ADVANCED_FACE ( 'NONE', ( #796 ), #83, .F. ) ;
#710 = FACE_OUTER_BOUND ( 'NONE', #262, .T. ) ;
#711 = ORIENTED_EDGE ( 'NONE', *, *, #464, .F. ) ;
#712 = CARTESIAN_POINT ( 'NONE',  ( -1.799999999999999378, -8.000000000000000000, 0.000000000000000000 ) ) ;
#713 = FACE_OUTER_BOUND ( 'NONE', #334, .T. ) ;
#714 = CARTESIAN_POINT ( 'NONE',  ( 5.100000000000000533, 0.000000000000000000, 6.000000000000000000 ) ) ;
#715 = EDGE_CURVE ( 'NONE', #514, #441, #385, .T. ) ;
#716 = ORIENTED_EDGE ( 'NONE', *, *, #842, .F. ) ;
#717 = PRODUCT ( 'wheelhub', 'wheelhub', '', ( #267 ) ) ;
#718 = B_SPLINE_CURVE_WITH_KNOTS ( 'NONE', 3,
 ( #207, #278, #44, #856, #844, #919, #915, #783, #773, #708 ),
 .UNSPECIFIED., .F., .F.,
 ( 4, 2, 2, 2, 4 ),
 ( 0.000000000000000000, 0.0003963062057662428811, 0.0007926124115324857623, 0.001188918617298727722, 0.001585224823064969790 ),
 .UNSPECIFIED. ) ;
#719 = DIRECTION ( 'NONE',  ( 0.000000000000000000, -0.000000000000000000, -1.000000000000000000 ) ) ;
#720 = FACE_BOUND ( 'NONE', #296, .T. ) ;
#721 = AXIS2_PLACEMENT_3D ( 'NONE', #284, #48, #649 ) ;
#722 = ORIENTED_EDGE ( 'NONE', *, *, #96, .F. ) ;
#723 = ADVANCED_FACE ( 'NONE', ( #878 ), #520, .T. ) ;
#724 = CIRCLE ( 'NONE', #353, 1.799999999999999600 ) ;
#725 = CARTESIAN_POINT ( 'NONE',  ( 0.000000000000000000, 0.000000000000000000, 6.000000000000000000 ) ) ;
#726 = DIRECTION ( 'NONE',  ( -0.000000000000000000, 0.000000000000000000, 1.000000000000000000 ) ) ;
#727 = ORIENTED_EDGE ( 'NONE', *, *, #497, .T. ) ;
#728 = CARTESIAN_POINT ( 'NONE',  ( 3.100000000000000533, 0.000000000000000000, 9.000000000000001776 ) ) ;
#729 = CARTESIAN_POINT ( 'NONE',  ( 4.100000000000000533, 5.021051876504148371E-16, 10.00000000000000000 ) ) ;
#730 = ORIENTED_EDGE ( 'NONE', *, *, #391, .T. ) ;
#731 = DIRECTION ( 'NONE',  ( -0.000000000000000000, 0.000000000000000000, 1.000000000000000000 ) ) ;
#732 = CARTESIAN_POINT ( 'NONE',  ( 4.100000000000000533, 5.021051876504148371E-16, 6.000000000000000000 ) ) ;
#733 = CIRCLE ( 'NONE', #658, 1.800000000000000266 ) ;
#734 = AXIS2_PLACEMENT_3D ( 'NONE', #408, #485, #769 ) ;
#735 = AXIS2_PLACEMENT_3D ( 'NONE', #749, #89, #380 ) ;
#736 = DIRECTION ( 'NONE',  ( 1.000000000000000000, -1.776356839400250465E-15, 0.000000000000000000 ) ) ;
#737 = DIRECTION ( 'NONE',  ( 0.000000000000000000, -0.000000000000000000, -1.000000000000000000 ) ) ;
#738 = ORIENTED_EDGE ( 'NONE', *, *, #345, .F. ) ;
#739 = FACE_OUTER_BOUND ( 'NONE', #806, .T. ) ;
#740 = CARTESIAN_POINT ( 'NONE',  ( 0.000000000000000000, 0.000000000000000000, 6.000000000000000000 ) ) ;
#741 = EDGE_LOOP ( 'NONE', ( #644, #901, #149, #50 ) ) ;
#742 = EDGE_CURVE ( 'NONE', #903, #577, #429, .T. ) ;
#743 = ORIENTED_EDGE ( 'NONE', *, *, #920, .F. ) ;
#744 = DIRECTION ( 'NONE',  ( -0.000000000000000000, 0.000000000000000000, 1.000000000000000000 ) ) ;
#745 = DIRECTION ( 'NONE',  ( 1.224646799147353207E-16, 1.000000000000000000, 0.000000000000000000 ) ) ;
#746 = AXIS2_PLACEMENT_3D ( 'NONE', #22, #462, #389 ) ;
#747 = DIRECTION ( 'NONE',  ( 0.000000000000000000, -0.000000000000000000, -1.000000000000000000 ) ) ;
#748 = FACE_OUTER_BOUND ( 'NONE', #634, .T. ) ;
#749 = CARTESIAN_POINT ( 'NONE',  ( 0.000000000000000000, 0.000000000000000000, 0.000000000000000000 ) ) ;
#750 = EDGE_CURVE ( 'NONE', #589, #130, #47, .T. ) ;
#751 = DIRECTION ( 'NONE',  ( -0.000000000000000000, -0.000000000000000000, -1.000000000000000000 ) ) ;
#752 = CARTESIAN_POINT ( 'NONE',  ( 0.000000000000000000, 4.575000000000000178, 6.000000000000000000 ) ) ;
#753 = EDGE_CURVE ( 'NONE', #662, #451, #494, .T. ) ;
#754 = DIRECTION ( 'NONE',  ( 1.000000000000000000, 0.000000000000000000, 0.000000000000000000 ) ) ;
#755 = APPLICATION_CONTEXT ( 'automotive_design' ) ;
#756 = EDGE_LOOP ( 'NONE', ( #330, #206, #705, #855 ) ) ;
#757 = LINE ( 'NONE', #829, #632 ) ;
#758 = CIRCLE ( 'NONE', #912, 11.50000000000000000 ) ;
#759 = VECTOR ( 'NONE', #751, 1000.000000000000000 ) ;
#760 = FACE_BOUND ( 'NONE', #147, .T. ) ;
#761 = SURFACE_STYLE_FILL_AREA ( #474 ) ;
#762 = AXIS2_PLACEMENT_3D ( 'NONE', #728, #72, #76 ) ;
#763 = ORIENTED_EDGE ( 'NONE', *, *, #143, .F. ) ;
#764 = ORIENTED_EDGE ( 'NONE', *, *, #388, .F. ) ;
#765 = APPLICATION_PROTOCOL_DEFINITION ( 'draft international standard', 'automotive_design', 1998, #755 ) ;
#766 = LINE ( 'NONE', #923, #630 ) ;
#767 = ORIENTED_EDGE ( 'NONE', *, *, #672, .T. ) ;
#768 = EDGE_CURVE ( 'NONE', #790, #152, #585, .T. ) ;
#769 = DIRECTION ( 'NONE',  ( 1.000000000000000000, 0.000000000000000000, 0.000000000000000000 ) ) ;
#770 = EDGE_LOOP ( 'NONE', ( #55, #201, #553, #917 ) ) ;
#771 = FACE_BOUND ( 'NONE', #426, .T. ) ;
#772 = DIRECTION ( 'NONE',  ( -0.000000000000000000, -0.000000000000000000, -1.000000000000000000 ) ) ;
#773 = CARTESIAN_POINT ( 'NONE',  ( -2.223762781532033550, 4.446344391396251261, 5.000000000000000000 ) ) ;
#774 = AXIS2_PLACEMENT_3D ( 'NONE', #256, #836, #402 ) ;
#775 = VECTOR ( 'NONE', #821, 1000.000000000000000 ) ;
#776 = EDGE_LOOP ( 'NONE', ( #410, #868, #911, #601 ) ) ;
#777 = CYLINDRICAL_SURFACE ( 'NONE', #263, 1.000000000000000888 ) ;
#778 = EDGE_CURVE ( 'NONE', #700, #229, #757, .T. ) ;
#779 = CARTESIAN_POINT ( 'NONE',  ( 0.000000000000000000, 0.000000000000000000, 5.000000000000000000 ) ) ;
#780 = ORIENTED_EDGE ( 'NONE', *, *, #909, .F. ) ;
#781 = APPLICATION_PROTOCOL_DEFINITION ( 'draft international standard', 'automotive_design', 1998, #425 ) ;
#782 = ORIENTED_EDGE ( 'NONE', *, *, #101, .F. ) ;
#783 = CARTESIAN_POINT ( 'NONE',  ( -2.192544046018421344, 4.315034219209619160, 5.025807566017475025 ) ) ;
#784 = VERTEX_POINT ( 'NONE', #315 ) ;
#785 = EDGE_LOOP ( 'NONE', ( #164, #36, #507, #290 ) ) ;
#786 = CARTESIAN_POINT ( 'NONE',  ( 0.000000000000000000, 8.000000000000000000, 0.000000000000000000 ) ) ;
#787 = DIRECTION ( 'NONE',  ( -0.000000000000000000, 0.000000000000000000, 1.000000000000000000 ) ) ;
#788 = CIRCLE ( 'NONE', #339, 4.100000000000000533 ) ;
#789 = ORIENTED_EDGE ( 'NONE', *, *, #78, .T. ) ;
#790 = VERTEX_POINT ( 'NONE', #245 ) ;
#791 = DIRECTION ( 'NONE',  ( -0.000000000000000000, 0.000000000000000000, 1.000000000000000000 ) ) ;
#792 = DIRECTION ( 'NONE',  ( -0.000000000000000000, -0.000000000000000000, -1.000000000000000000 ) ) ;
#793 = ORIENTED_EDGE ( 'NONE', *, *, #221, .T. ) ;
#794 = EDGE_CURVE ( 'NONE', #225, #421, #169, .T. ) ;
#795 = VERTEX_POINT ( 'NONE', #529 ) ;
#796 = FACE_OUTER_BOUND ( 'NONE', #29, .T. ) ;
#797 = CARTESIAN_POINT ( 'NONE',  ( 6.200000000000001066, 4.336808689942017736E-16, 5.000000000000000000 ) ) ;
#798 = EDGE_CURVE ( 'NONE', #220, #795, #237, .T. ) ;
#799 = VERTEX_POINT ( 'NONE', #179 ) ;
#800 = CARTESIAN_POINT ( 'NONE',  ( 0.000000000000000000, 3.575000000000000178, 10.00000000000000000 ) ) ;
#801 = DIRECTION ( 'NONE',  ( 1.000000000000000000, 0.000000000000000000, 0.000000000000000000 ) ) ;
#802 = ORIENTED_EDGE ( 'NONE', *, *, #707, .T. ) ;
#803 = AXIS2_PLACEMENT_3D ( 'NONE', #740, #307, #879 ) ;
#804 = VECTOR ( 'NONE', #826, 1000.000000000000000 ) ;
#805 = AXIS2_PLACEMENT_3D ( 'NONE', #480, #340, #422 ) ;
#806 = EDGE_LOOP ( 'NONE', ( #360, #375, #281, #622 ) ) ;
#807 = CARTESIAN_POINT ( 'NONE',  ( 0.000000000000000000, 0.000000000000000000, 5.000000000000000000 ) ) ;
#808 = ADVANCED_FACE ( 'NONE', ( #695 ), #468, .F. ) ;
#809 = DIRECTION ( 'NONE',  ( -1.000000000000000000, 0.000000000000000000, -0.000000000000000000 ) ) ;
#810 = VERTEX_POINT ( 'NONE', #619 ) ;
#811 = EDGE_LOOP ( 'NONE', ( #64, #126, #743, #869 ) ) ;
#812 = CARTESIAN_POINT ( 'NONE',  ( 1.799999999999999600, 8.000000000000000000, 5.000000000000000000 ) ) ;
#813 = CARTESIAN_POINT ( 'NONE',  ( -2.100000000000000089, 0.000000000000000000, 5.000000000000000000 ) ) ;
#814 = CARTESIAN_POINT ( 'NONE',  ( 0.000000000000000000, 0.000000000000000000, 10.00000000000000000 ) ) ;
#815 = DIRECTION ( 'NONE',  ( -0.000000000000000000, 0.000000000000000000, 1.000000000000000000 ) ) ;
#816 = CARTESIAN_POINT ( 'NONE',  ( -8.000000000000000000, 6.505213034913026604E-16, 5.000000000000000000 ) ) ;
#817 = ORIENTED_EDGE ( 'NONE', *, *, #656, .F. ) ;
#818 = ADVANCED_FACE ( 'NONE', ( #674 ), #904, .F. ) ;
#819 = CIRCLE ( 'NONE', #602, 1.000000000000000000 ) ;
#820 = CIRCLE ( 'NONE', #867, 5.100000000000000533 ) ;
#821 = DIRECTION ( 'NONE',  ( -0.000000000000000000, -0.000000000000000000, -1.000000000000000000 ) ) ;
#822 = DIRECTION ( 'NONE',  ( 1.000000000000000000, 0.000000000000000000, 0.000000000000000000 ) ) ;
#823 = CARTESIAN_POINT ( 'NONE',  ( 8.673617379884035472E-16, -8.000000000000000000, 5.000000000000000000 ) ) ;
#824 = ADVANCED_FACE ( 'NONE', ( #625 ), #531, .T. ) ;
#825 = DIRECTION ( 'NONE',  ( 1.000000000000000000, 0.000000000000000000, 0.000000000000000000 ) ) ;
#826 = DIRECTION ( 'NONE',  ( 1.000000000000000000, 0.000000000000000000, 0.000000000000000000 ) ) ;
#827 = DIRECTION ( 'NONE',  ( 1.000000000000000000, 0.000000000000000000, 0.000000000000000000 ) ) ;
#828 = VERTEX_POINT ( 'NONE', #812 ) ;
#829 = CARTESIAN_POINT ( 'NONE',  ( 2.007330316615194565, 3.575000000000000178, 10.00000000000000000 ) ) ;
#830 = CARTESIAN_POINT ( 'NONE',  ( 0.000000000000000000, 0.000000000000000000, 5.000000000000000000 ) ) ;
#831 = CARTESIAN_POINT ( 'NONE',  ( 3.100000000000000533, 0.000000000000000000, 10.00000000000000178 ) ) ;
#832 = ORIENTED_EDGE ( 'NONE', *, *, #637, .F. ) ;
#833 =( LENGTH_UNIT ( ) NAMED_UNIT ( * ) SI_UNIT ( .MILLI., .METRE. ) );
#834 = AXIS2_PLACEMENT_3D ( 'NONE', #683, #815, #754 ) ;
#835 = AXIS2_PLACEMENT_3D ( 'NONE', #563, #337, #489 ) ;
#836 = DIRECTION ( 'NONE',  ( -0.000000000000000000, -0.000000000000000000, -1.000000000000000000 ) ) ;
#837 = AXIS2_PLACEMENT_3D ( 'NONE', #807, #863, #226 ) ;
#838 = EDGE_CURVE ( 'NONE', #790, #810, #682, .T. ) ;
#839 = CYLINDRICAL_SURFACE ( 'NONE', #4, 1.799999999999999600 ) ;
#840 = ORIENTED_EDGE ( 'NONE', *, *, #590, .T. ) ;
#841 = DIRECTION ( 'NONE',  ( 1.000000000000000000, 0.000000000000000000, 0.000000000000000000 ) ) ;
#842 = EDGE_CURVE ( 'NONE', #579, #514, #898, .T. ) ;
#843 = ORIENTED_EDGE ( 'NONE', *, *, #518, .F. ) ;
#844 = CARTESIAN_POINT ( 'NONE',  ( -2.060351406607101588, 3.779884018903540532, 5.379733473926986420 ) ) ;
#845 = CARTESIAN_POINT ( 'NONE',  ( -8.000000000000000000, 6.505213034913026604E-16, 5.000000000000000000 ) ) ;
#846 = ORIENTED_EDGE ( 'NONE', *, *, #440, .F. ) ;
#847 = EDGE_CURVE ( 'NONE', #130, #589, #616, .T. ) ;
#848 = CARTESIAN_POINT ( 'NONE',  ( 0.000000000000000000, 0.000000000000000000, 10.00000000000000000 ) ) ;
#849 = CIRCLE ( 'NONE', #32, 1.800000000000000266 ) ;
#850 = CARTESIAN_POINT ( 'NONE',  ( -1.726086614280987419, 2.575000000000000178, 10.00000000000000000 ) ) ;
#851 = TOROIDAL_SURFACE ( 'NONE', #572, 3.100000000000000533, 1.000000000000000000 ) ;
#852 = ORIENTED_EDGE ( 'NONE', *, *, #362, .F. ) ;
#853 = DIRECTION ( 'NONE',  ( -0.000000000000000000, 0.000000000000000000, 1.000000000000000000 ) ) ;
#854 = EDGE_CURVE ( 'NONE', #503, #191, #929, .T. ) ;
#855 = ORIENTED_EDGE ( 'NONE', *, *, #590, .F. ) ;
#856 = CARTESIAN_POINT ( 'NONE',  ( -2.040906258598573331, 3.704283548865410225, 5.490778445001376795 ) ) ;
#857 = ORIENTED_EDGE ( 'NONE', *, *, #70, .F. ) ;
#858 = ORIENTED_EDGE ( 'NONE', *, *, #506, .F. ) ;
#859 = LINE ( 'NONE', #501, #308 ) ;
#860 = FACE_OUTER_BOUND ( 'NONE', #756, .T. ) ;
#861 = ORIENTED_EDGE ( 'NONE', *, *, #216, .T. ) ;
#862 = ORIENTED_EDGE ( 'NONE', *, *, #440, .T. ) ;
#863 = DIRECTION ( 'NONE',  ( 0.000000000000000000, -0.000000000000000000, -1.000000000000000000 ) ) ;
#864 = VECTOR ( 'NONE', #792, 1000.000000000000000 ) ;
#865 = LINE ( 'NONE', #298, #864 ) ;
#866 = EDGE_CURVE ( 'NONE', #799, #528, #448, .T. ) ;
#867 = AXIS2_PLACEMENT_3D ( 'NONE', #67, #432, #736 ) ;
#868 = ORIENTED_EDGE ( 'NONE', *, *, #798, .F. ) ;
#869 = ORIENTED_EDGE ( 'NONE', *, *, #854, .F. ) ;
#870 = DIRECTION ( 'NONE',  ( -0.000000000000000000, 0.000000000000000000, 1.000000000000000000 ) ) ;
#871 = CARTESIAN_POINT ( 'NONE',  ( -6.200000000000001066, 8.709577273378262426E-16, 5.000000000000000000 ) ) ;
#872 = ADVANCED_FACE ( 'NONE', ( #677 ), #851, .T. ) ;
#873 = ORIENTED_EDGE ( 'NONE', *, *, #701, .F. ) ;
#874 = CARTESIAN_POINT ( 'NONE',  ( 2.007330316615194565, 3.575000000000000178, 10.00000000000000000 ) ) ;
#875 = DIRECTION ( 'NONE',  ( -0.000000000000000000, 0.000000000000000000, 1.000000000000000000 ) ) ;
#876 = UNCERTAINTY_MEASURE_WITH_UNIT (LENGTH_MEASURE( 1.000000000000000082E-05 ), #173, 'distance_accuracy_value', 'NONE');
#877 = EDGE_LOOP ( 'NONE', ( #933, #694, #436, #930 ) ) ;
#878 = FACE_OUTER_BOUND ( 'NONE', #877, .T. ) ;
#879 = DIRECTION ( 'NONE',  ( 1.000000000000000000, 0.000000000000000000, 0.000000000000000000 ) ) ;
#880 = VECTOR ( 'NONE', #809, 1000.000000000000000 ) ;
#881 = STYLED_ITEM ( 'NONE', ( #910 ), #486 ) ;
#882 = AXIS2_PLACEMENT_3D ( 'NONE', #2, #731, #222 ) ;
#883 = ORIENTED_EDGE ( 'NONE', *, *, #464, .T. ) ;
#884 = CYLINDRICAL_SURFACE ( 'NONE', #6, 1.799999999999999600 ) ;
#885 = ADVANCED_FACE ( 'NONE', ( #320, #271, #417, #771, #188, #706 ), #127, .F. ) ;
#886 = DIRECTION ( 'NONE',  ( -0.000000000000000000, -0.000000000000000000, -1.000000000000000000 ) ) ;
#887 = B_SPLINE_CURVE_WITH_KNOTS ( 'NONE', 3,
 ( #257, #329, #35, #253, #548, #332, #111, #186 ),
 .UNSPECIFIED., .F., .F.,
 ( 4, 2, 2, 4 ),
 ( -9.514083038137263152E-06, 0.0007885067194439237225, 0.001187517120684954564, 0.001586527521925985406 ),
 .UNSPECIFIED. ) ;
#888 = CARTESIAN_POINT ( 'NONE',  ( 0.000000000000000000, 0.000000000000000000, 9.000000000000001776 ) ) ;
#889 = CARTESIAN_POINT ( 'NONE',  ( 8.673617379884035472E-16, -8.000000000000000000, 5.000000000000000000 ) ) ;
#890 = DIRECTION ( 'NONE',  ( -1.000000000000000000, 0.000000000000000000, 0.000000000000000000 ) ) ;
#891 = DIRECTION ( 'NONE',  ( 1.000000000000000000, 0.000000000000000000, 0.000000000000000000 ) ) ;
#892 = DIRECTION ( 'NONE',  ( -0.000000000000000000, 0.000000000000000000, 1.000000000000000000 ) ) ;
#893 = DIRECTION ( 'NONE',  ( -1.000000000000000000, 0.000000000000000000, 0.000000000000000000 ) ) ;
#894 = FACE_OUTER_BOUND ( 'NONE', #741, .T. ) ;
#895 = CIRCLE ( 'NONE', #209, 4.100000000000000533 ) ;
#896 = AXIS2_PLACEMENT_3D ( 'NONE', #562, #772, #922 ) ;
#897 = VECTOR ( 'NONE', #21, 1000.000000000000000 ) ;
#898 = LINE ( 'NONE', #105, #897 ) ;
#899 = DIRECTION ( 'NONE',  ( -0.000000000000000000, -0.000000000000000000, -1.000000000000000000 ) ) ;
#900 = CYLINDRICAL_SURFACE ( 'NONE', #570, 1.799999999999999600 ) ;
#901 = ORIENTED_EDGE ( 'NONE', *, *, #656, .T. ) ;
#902 = ADVANCED_FACE ( 'NONE', ( #60 ), #277, .T. ) ;
#903 = VERTEX_POINT ( 'NONE', #712 ) ;
#904 = CYLINDRICAL_SURFACE ( 'NONE', #243, 1.000000000000000000 ) ;
#905 = DIRECTION ( 'NONE',  ( -0.000000000000000000, 0.000000000000000000, 1.000000000000000000 ) ) ;
#906 = FACE_OUTER_BOUND ( 'NONE', #14, .T. ) ;
#907 = ORIENTED_EDGE ( 'NONE', *, *, #221, .F. ) ;
#908 = CARTESIAN_POINT ( 'NONE',  ( -5.100000000000000533, 6.245698675651501825E-16, 6.000000000000000000 ) ) ;
#909 = EDGE_CURVE ( 'NONE', #230, #471, #398, .T. ) ;
#910 = PRESENTATION_STYLE_ASSIGNMENT (( #40 ) ) ;
#911 = ORIENTED_EDGE ( 'NONE', *, *, #526, .F. ) ;
#912 = AXIS2_PLACEMENT_3D ( 'NONE', #125, #588, #801 ) ;
#913 = AXIS2_PLACEMENT_3D ( 'NONE', #413, #640, #52 ) ;
#914 = AXIS2_PLACEMENT_3D ( 'NONE', #800, #153, #166 ) ;
#915 = CARTESIAN_POINT ( 'NONE',  ( -2.134631575488455280, 4.076369999534857236, 5.123643207222718488 ) ) ;
#916 = FACE_OUTER_BOUND ( 'NONE', #628, .T. ) ;
#917 = ORIENTED_EDGE ( 'NONE', *, *, #107, .F. ) ;
#918 = CYLINDRICAL_SURFACE ( 'NONE', #896, 1.800000000000000266 ) ;
#919 = CARTESIAN_POINT ( 'NONE',  ( -2.107028975378938629, 3.965144194501294628, 5.196871191363927167 ) ) ;
#920 = EDGE_CURVE ( 'NONE', #191, #662, #386, .T. ) ;
#921 = ORIENTED_EDGE ( 'NONE', *, *, #295, .F. ) ;
#922 = DIRECTION ( 'NONE',  ( -1.000000000000000000, 0.000000000000000000, 0.000000000000000000 ) ) ;
#923 = CARTESIAN_POINT ( 'NONE',  ( -4.100000000000000533, 0.000000000000000000, 10.00000000000000000 ) ) ;
#924 = ORIENTED_EDGE ( 'NONE', *, *, #165, .F. ) ;
#925 =( NAMED_UNIT ( * ) PLANE_ANGLE_UNIT ( ) SI_UNIT ( $, .RADIAN. ) );
#926 = CYLINDRICAL_SURFACE ( 'NONE', #774, 2.100000000000000089 ) ;
#927 = DIRECTION ( 'NONE',  ( 1.000000000000000000, 0.000000000000000000, 0.000000000000000000 ) ) ;
#928 = COLOUR_RGB ( '',0.7921568627450980005, 0.8196078431372548767, 0.9333333333333333481 ) ;
#929 = CIRCLE ( 'NONE', #735, 2.100000000000000089 ) ;
#930 = ORIENTED_EDGE ( 'NONE', *, *, #324, .T. ) ;
#931 = EDGE_CURVE ( 'NONE', #528, #503, #335, .T. ) ;
#932 = CARTESIAN_POINT ( 'NONE',  ( -11.50000000000000000, 0.000000000000000000, 5.000000000000000000 ) ) ;
#933 = ORIENTED_EDGE ( 'NONE', *, *, #778, .T. ) ;
#934 = ORIENTED_EDGE ( 'NONE', *, *, #70, .T. ) ;
#935 = DIRECTION ( 'NONE',  ( 1.000000000000000000, 0.000000000000000000, 0.000000000000000000 ) ) ;
#936 = EDGE_CURVE ( 'NONE', #158, #502, #555, .T. ) ;
#937 = CARTESIAN_POINT ( 'NONE',  ( 0.000000000000000000, 0.000000000000000000, 9.000000000000001776 ) ) ;
ENDSEC;
END-ISO-10303-21;
