ISO-10303-21;
HEADER;
FILE_DESCRIPTION (( 'STEP AP203' ),
    '1' );
FILE_NAME ('Standoff.STEP',
    '2026-03-09T22:04:13',
    ( '' ),
    ( '' ),
    'SwSTEP 2.0',
    'SolidWorks 2025',
    '' );
FILE_SCHEMA (( 'CONFIG_CONTROL_DESIGN' ));
ENDSEC;

DATA;
#1 = PRODUCT_DEFINITION ( 'UNKNOWN', '', #208, #201 ) ;
#2 = EDGE_LOOP ( 'NONE', ( #19, #156, #237, #93 ) ) ;
#3 = CARTESIAN_POINT ( 'NONE',  ( 0.000000000000000000, 35.00000000000000000, -5.000000000000000000 ) ) ;
#4 = VERTEX_POINT ( 'NONE', #16 ) ;
#5 = ADVANCED_FACE ( 'NONE', ( #168 ), #128, .T. ) ;
#6 = LINE ( 'NONE', #217, #91 ) ;
#7 = AXIS2_PLACEMENT_3D ( 'NONE', #227, #223, #248 ) ;
#8 = DIRECTION ( 'NONE',  ( 0.000000000000000000, 1.000000000000000000, 0.000000000000000000 ) ) ;
#9 = DIRECTION ( 'NONE',  ( 0.000000000000000000, 0.000000000000000000, 1.000000000000000000 ) ) ;
#10 = DIRECTION ( 'NONE',  ( 0.000000000000000000, 0.000000000000000000, 1.000000000000000000 ) ) ;
#11 = LOCAL_TIME ( 16, 4, 13.00000000000000000, #140 ) ;
#12 = PERSON_AND_ORGANIZATION ( #97, #127 ) ;
#13 = DATE_AND_TIME ( #220, #11 ) ;
#14 = APPROVAL_ROLE ( '' ) ;
#15 = APPLICATION_CONTEXT ( 'configuration controlled 3d designs of mechanical parts and assemblies' ) ;
#16 = CARTESIAN_POINT ( 'NONE',  ( 0.000000000000000000, 35.00000000000000000, -5.000000000000000000 ) ) ;
#17 = LOCAL_TIME ( 16, 4, 13.00000000000000000, #47 ) ;
#18 = ORIENTED_EDGE ( 'NONE', *, *, #36, .T. ) ;
#19 = ORIENTED_EDGE ( 'NONE', *, *, #183, .F. ) ;
#20 = DIRECTION ( 'NONE',  ( 0.000000000000000000, 1.000000000000000000, 0.000000000000000000 ) ) ;
#21 = FACE_BOUND ( 'NONE', #145, .T. ) ;
#22 = AXIS2_PLACEMENT_3D ( 'NONE', #174, #81, #240 ) ;
#23 = PLANE ( 'NONE',  #48 ) ;
#24 = EDGE_CURVE ( 'NONE', #204, #87, #142, .T. ) ;
#25 = DIRECTION ( 'NONE',  ( 0.000000000000000000, 1.000000000000000000, 0.000000000000000000 ) ) ;
#26 = AXIS2_PLACEMENT_3D ( 'NONE', #189, #27, #78 ) ;
#27 = DIRECTION ( 'NONE',  ( -0.000000000000000000, -1.000000000000000000, -0.000000000000000000 ) ) ;
#28 = COORDINATED_UNIVERSAL_TIME_OFFSET ( 7, 0, .BEHIND. ) ;
#29 = VECTOR ( 'NONE', #205, 1000.000000000000000 ) ;
#30 = PERSON_AND_ORGANIZATION ( #97, #127 ) ;
#31 = CC_DESIGN_PERSON_AND_ORGANIZATION_ASSIGNMENT ( #30, #177, ( #61 ) ) ;
#32 = PRODUCT_DEFINITION_SHAPE ( 'NONE', 'NONE',  #1 ) ;
#33 = APPROVAL_ROLE ( '' ) ;
#34 = AXIS2_PLACEMENT_3D ( 'NONE', #55, #249, #228 ) ;
#35 = DATE_TIME_ROLE ( 'classification_date' ) ;
#36 = EDGE_CURVE ( 'NONE', #198, #166, #51, .T. ) ;
#37 = MANIFOLD_SOLID_BREP ( 'Boss-Extrude1', #243 ) ;
#38 = DIRECTION ( 'NONE',  ( 0.000000000000000000, 1.000000000000000000, 0.000000000000000000 ) ) ;
#39 = ORIENTED_EDGE ( 'NONE', *, *, #115, .F. ) ;
#40 = CARTESIAN_POINT ( 'NONE',  ( 0.000000000000000000, 35.00000000000000000, 0.000000000000000000 ) ) ;
#41 = ORIENTED_EDGE ( 'NONE', *, *, #109, .T. ) ;
#42 = CARTESIAN_POINT ( 'NONE',  ( 6.123233995736766282E-16, 35.00000000000000000, 5.000000000000000000 ) ) ;
#43 = AXIS2_PLACEMENT_3D ( 'NONE', #106, #38, #224 ) ;
#44 = DIRECTION ( 'NONE',  ( 0.000000000000000000, 1.000000000000000000, 0.000000000000000000 ) ) ;
#45 = CARTESIAN_POINT ( 'NONE',  ( 6.123233995736766282E-16, 0.000000000000000000, 5.000000000000000000 ) ) ;
#46 = CARTESIAN_POINT ( 'NONE',  ( 0.000000000000000000, 0.000000000000000000, 0.000000000000000000 ) ) ;
#47 = COORDINATED_UNIVERSAL_TIME_OFFSET ( 7, 0, .BEHIND. ) ;
#48 = AXIS2_PLACEMENT_3D ( 'NONE', #214, #216, #132 ) ;
#49 = CALENDAR_DATE ( 2026, 9, 3 ) ;
#50 = CALENDAR_DATE ( 2026, 9, 3 ) ;
#51 = CIRCLE ( 'NONE', #232, 1.500000000000000222 ) ;
#52 = ORIENTED_EDGE ( 'NONE', *, *, #226, .T. ) ;
#53 = EDGE_LOOP ( 'NONE', ( #181, #84 ) ) ;
#54 = EDGE_LOOP ( 'NONE', ( #143, #41, #218, #39 ) ) ;
#55 = CARTESIAN_POINT ( 'NONE',  ( 0.000000000000000000, 35.00000000000000000, 0.000000000000000000 ) ) ;
#56 = APPROVAL ( #161, 'UNSPECIFIED' ) ;
#57 = ORIENTED_EDGE ( 'NONE', *, *, #210, .T. ) ;
#58 = DIRECTION ( 'NONE',  ( -0.000000000000000000, -1.000000000000000000, -0.000000000000000000 ) ) ;
#59 = FACE_OUTER_BOUND ( 'NONE', #164, .T. ) ;
#60 = FACE_BOUND ( 'NONE', #53, .T. ) ;
#61 = PRODUCT ( 'Standoff', 'Standoff', '', ( #235 ) ) ;
#62 = LINE ( 'NONE', #95, #103 ) ;
#63 = CIRCLE ( 'NONE', #171, 5.000000000000000000 ) ;
#64 = PERSON_AND_ORGANIZATION ( #97, #127 ) ;
#65 = CALENDAR_DATE ( 2026, 9, 3 ) ;
#66 = PERSON_AND_ORGANIZATION_ROLE ( 'classification_officer' ) ;
#67 = CC_DESIGN_DATE_AND_TIME_ASSIGNMENT ( #99, #35, ( #158 ) ) ;
#68 = DATE_TIME_ROLE ( 'creation_date' ) ;
#69 = LOCAL_TIME ( 16, 4, 13.00000000000000000, #28 ) ;
#70 = DIRECTION ( 'NONE',  ( 0.000000000000000000, 0.000000000000000000, 1.000000000000000000 ) ) ;
#71 = EDGE_CURVE ( 'NONE', #129, #135, #117, .T. ) ;
#72 = DIRECTION ( 'NONE',  ( 0.000000000000000000, 0.000000000000000000, 1.000000000000000000 ) ) ;
#73 = PLANE ( 'NONE',  #239 ) ;
#74 = EDGE_LOOP ( 'NONE', ( #225, #170, #207, #211 ) ) ;
#75 = EDGE_CURVE ( 'NONE', #135, #129, #203, .T. ) ;
#76 = EDGE_LOOP ( 'NONE', ( #110, #209 ) ) ;
#77 = DIRECTION ( 'NONE',  ( -0.000000000000000000, -1.000000000000000000, -0.000000000000000000 ) ) ;
#78 = DIRECTION ( 'NONE',  ( 0.000000000000000000, 0.000000000000000000, -1.000000000000000000 ) ) ;
#79 = CARTESIAN_POINT ( 'NONE',  ( 0.000000000000000000, 35.00000000000000000, 0.000000000000000000 ) ) ;
#80 = CC_DESIGN_PERSON_AND_ORGANIZATION_ASSIGNMENT ( #83, #123, ( #208 ) ) ;
#81 = DIRECTION ( 'NONE',  ( 0.000000000000000000, 0.000000000000000000, 1.000000000000000000 ) ) ;
#82 = CC_DESIGN_APPROVAL ( #56, ( #208 ) ) ;
#83 = PERSON_AND_ORGANIZATION ( #97, #127 ) ;
#84 = ORIENTED_EDGE ( 'NONE', *, *, #75, .F. ) ;
#85 = CC_DESIGN_APPROVAL ( #137, ( #158 ) ) ;
#86 = DATE_AND_TIME ( #194, #246 ) ;
#87 = VERTEX_POINT ( 'NONE', #144 ) ;
#88 = DIRECTION ( 'NONE',  ( -0.000000000000000000, -1.000000000000000000, -0.000000000000000000 ) ) ;
#89 = CARTESIAN_POINT ( 'NONE',  ( 0.000000000000000000, 0.000000000000000000, 0.000000000000000000 ) ) ;
#90 = DIRECTION ( 'NONE',  ( 0.000000000000000000, -0.000000000000000000, 1.000000000000000000 ) ) ;
#91 = VECTOR ( 'NONE', #58, 1000.000000000000000 ) ;
#92 = CARTESIAN_POINT ( 'NONE',  ( 0.000000000000000000, 0.000000000000000000, 0.000000000000000000 ) ) ;
#93 = ORIENTED_EDGE ( 'NONE', *, *, #36, .F. ) ;
#94 = APPROVAL ( #120, 'UNSPECIFIED' ) ;
#95 = CARTESIAN_POINT ( 'NONE',  ( 1.836970198721030181E-16, 35.00000000000000000, 1.500000000000000222 ) ) ;
#96 = CARTESIAN_POINT ( 'NONE',  ( 1.836970198721030181E-16, 0.000000000000000000, 1.500000000000000222 ) ) ;
#97 = PERSON ( 'UNSPECIFIED', 'UNSPECIFIED', 'UNSPECIFIED', ('UNSPECIFIED'), ('UNSPECIFIED'), ('UNSPECIFIED') ) ;
#98 = CC_DESIGN_PERSON_AND_ORGANIZATION_ASSIGNMENT ( #241, #179, ( #1 ) ) ;
#99 = DATE_AND_TIME ( #49, #69 ) ;
#100 = CIRCLE ( 'NONE', #122, 5.000000000000000000 ) ;
#101 = UNCERTAINTY_MEASURE_WITH_UNIT (LENGTH_MEASURE( 1.000000000000000082E-05 ), #169, 'distance_accuracy_value', 'NONE');
#102 = ORIENTED_EDGE ( 'NONE', *, *, #160, .F. ) ;
#103 = VECTOR ( 'NONE', #133, 1000.000000000000000 ) ;
#104 = APPROVAL_DATE_TIME ( #13, #56 ) ;
#105 = ORIENTED_EDGE ( 'NONE', *, *, #118, .T. ) ;
#106 = CARTESIAN_POINT ( 'NONE',  ( 0.000000000000000000, 0.000000000000000000, 0.000000000000000000 ) ) ;
#107 = AXIS2_PLACEMENT_3D ( 'NONE', #212, #77, #215 ) ;
#108 = CARTESIAN_POINT ( 'NONE',  ( 0.000000000000000000, 35.00000000000000000, 0.000000000000000000 ) ) ;
#109 = EDGE_CURVE ( 'NONE', #180, #204, #247, .T. ) ;
#110 = ORIENTED_EDGE ( 'NONE', *, *, #210, .F. ) ;
#111 = LINE ( 'NONE', #3, #195 ) ;
#112 = CIRCLE ( 'NONE', #43, 1.500000000000000222 ) ;
#113 = APPLICATION_PROTOCOL_DEFINITION ( 'international standard', 'config_control_design', 1994, #15 ) ;
#114 = CARTESIAN_POINT ( 'NONE',  ( 0.000000000000000000, 35.00000000000000000, -1.500000000000000222 ) ) ;
#115 = EDGE_CURVE ( 'NONE', #4, #87, #111, .T. ) ;
#116 = CYLINDRICAL_SURFACE ( 'NONE', #213, 1.500000000000000222 ) ;
#117 = CIRCLE ( 'NONE', #34, 1.500000000000000222 ) ;
#118 = EDGE_CURVE ( 'NONE', #166, #198, #112, .T. ) ;
#119 =( NAMED_UNIT ( * ) PLANE_ANGLE_UNIT ( ) SI_UNIT ( $, .RADIAN. ) );
#120 = APPROVAL_STATUS ( 'not_yet_approved' ) ;
#121 = COORDINATED_UNIVERSAL_TIME_OFFSET ( 7, 0, .BEHIND. ) ;
#122 = AXIS2_PLACEMENT_3D ( 'NONE', #79, #44, #10 ) ;
#123 = PERSON_AND_ORGANIZATION_ROLE ( 'creator' ) ;
#124 = ADVANCED_FACE ( 'NONE', ( #165, #21 ), #73, .F. ) ;
#125 = DIRECTION ( 'NONE',  ( 0.000000000000000000, 1.000000000000000000, 0.000000000000000000 ) ) ;
#126 = EDGE_LOOP ( 'NONE', ( #184, #102, #146, #57 ) ) ;
#127 = ORGANIZATION ( 'UNSPECIFIED', 'UNSPECIFIED', '' ) ;
#128 = CYLINDRICAL_SURFACE ( 'NONE', #148, 5.000000000000000000 ) ;
#129 = VERTEX_POINT ( 'NONE', #114 ) ;
#130 = APPROVAL_PERSON_ORGANIZATION ( #157, #137, #14 ) ;
#131 = CC_DESIGN_PERSON_AND_ORGANIZATION_ASSIGNMENT ( #202, #66, ( #158 ) ) ;
#132 = DIRECTION ( 'NONE',  ( 0.000000000000000000, -0.000000000000000000, 1.000000000000000000 ) ) ;
#133 = DIRECTION ( 'NONE',  ( -0.000000000000000000, -1.000000000000000000, -0.000000000000000000 ) ) ;
#134 = APPROVAL_DATE_TIME ( #86, #137 ) ;
#135 = VERTEX_POINT ( 'NONE', #151 ) ;
#136 = DATE_AND_TIME ( #50, #17 ) ;
#137 = APPROVAL ( #139, 'UNSPECIFIED' ) ;
#138 = CC_DESIGN_SECURITY_CLASSIFICATION ( #158, ( #208 ) ) ;
#139 = APPROVAL_STATUS ( 'not_yet_approved' ) ;
#140 = COORDINATED_UNIVERSAL_TIME_OFFSET ( 7, 0, .BEHIND. ) ;
#141 = ADVANCED_FACE ( 'NONE', ( #233 ), #236, .T. ) ;
#142 = CIRCLE ( 'NONE', #7, 5.000000000000000000 ) ;
#143 = ORIENTED_EDGE ( 'NONE', *, *, #226, .F. ) ;
#144 = CARTESIAN_POINT ( 'NONE',  ( 0.000000000000000000, 0.000000000000000000, -5.000000000000000000 ) ) ;
#145 = EDGE_LOOP ( 'NONE', ( #105, #18 ) ) ;
#146 = ORIENTED_EDGE ( 'NONE', *, *, #115, .T. ) ;
#147 = CARTESIAN_POINT ( 'NONE',  ( 6.123233995736766282E-16, 35.00000000000000000, 5.000000000000000000 ) ) ;
#148 = AXIS2_PLACEMENT_3D ( 'NONE', #40, #88, #185 ) ;
#149 = APPLICATION_CONTEXT ( 'configuration controlled 3d designs of mechanical parts and assemblies' ) ;
#150 = CARTESIAN_POINT ( 'NONE',  ( 0.000000000000000000, 35.00000000000000000, 0.000000000000000000 ) ) ;
#151 = CARTESIAN_POINT ( 'NONE',  ( 1.836970198721030181E-16, 35.00000000000000000, 1.500000000000000222 ) ) ;
#152 = CC_DESIGN_DATE_AND_TIME_ASSIGNMENT ( #136, #68, ( #1 ) ) ;
#153 = CYLINDRICAL_SURFACE ( 'NONE', #107, 1.500000000000000222 ) ;
#154 = DIRECTION ( 'NONE',  ( 0.000000000000000000, 0.000000000000000000, 1.000000000000000000 ) ) ;
#155 = LOCAL_TIME ( 16, 4, 13.00000000000000000, #159 ) ;
#156 = ORIENTED_EDGE ( 'NONE', *, *, #75, .T. ) ;
#157 = PERSON_AND_ORGANIZATION ( #97, #127 ) ;
#158 = SECURITY_CLASSIFICATION ( '', '', #197 ) ;
#159 = COORDINATED_UNIVERSAL_TIME_OFFSET ( 7, 0, .BEHIND. ) ;
#160 = EDGE_CURVE ( 'NONE', #4, #180, #163, .T. ) ;
#161 = APPROVAL_STATUS ( 'not_yet_approved' ) ;
#162 = DIRECTION ( 'NONE',  ( 0.000000000000000000, 1.000000000000000000, 0.000000000000000000 ) ) ;
#163 = CIRCLE ( 'NONE', #175, 5.000000000000000000 ) ;
#164 = EDGE_LOOP ( 'NONE', ( #231, #52 ) ) ;
#165 = FACE_OUTER_BOUND ( 'NONE', #76, .T. ) ;
#166 = VERTEX_POINT ( 'NONE', #188 ) ;
#167 = AXIS2_PLACEMENT_3D ( 'NONE', #108, #20, #70 ) ;
#168 = FACE_OUTER_BOUND ( 'NONE', #126, .T. ) ;
#169 =( LENGTH_UNIT ( ) NAMED_UNIT ( * ) SI_UNIT ( .MILLI., .METRE. ) );
#170 = ORIENTED_EDGE ( 'NONE', *, *, #183, .T. ) ;
#171 = AXIS2_PLACEMENT_3D ( 'NONE', #46, #8, #9 ) ;
#172 = DIRECTION ( 'NONE',  ( 0.000000000000000000, 0.000000000000000000, -1.000000000000000000 ) ) ;
#173 = FACE_OUTER_BOUND ( 'NONE', #74, .T. ) ;
#174 = CARTESIAN_POINT ( 'NONE',  ( 0.000000000000000000, 0.000000000000000000, 0.000000000000000000 ) ) ;
#175 = AXIS2_PLACEMENT_3D ( 'NONE', #150, #25, #154 ) ;
#176 = ADVANCED_FACE ( 'NONE', ( #59, #60 ), #23, .T. ) ;
#177 = PERSON_AND_ORGANIZATION_ROLE ( 'design_owner' ) ;
#178 =( GEOMETRIC_REPRESENTATION_CONTEXT ( 3 ) GLOBAL_UNCERTAINTY_ASSIGNED_CONTEXT ( ( #101 ) ) GLOBAL_UNIT_ASSIGNED_CONTEXT ( ( #169, #119, #193 ) ) REPRESENTATION_CONTEXT ( 'NONE', 'WORKASPACE' ) );
#179 = PERSON_AND_ORGANIZATION_ROLE ( 'creator' ) ;
#180 = VERTEX_POINT ( 'NONE', #147 ) ;
#181 = ORIENTED_EDGE ( 'NONE', *, *, #71, .F. ) ;
#182 = APPROVAL_PERSON_ORGANIZATION ( #12, #56, #221 ) ;
#183 = EDGE_CURVE ( 'NONE', #135, #198, #62, .T. ) ;
#184 = ORIENTED_EDGE ( 'NONE', *, *, #109, .F. ) ;
#185 = DIRECTION ( 'NONE',  ( 0.000000000000000000, 0.000000000000000000, -1.000000000000000000 ) ) ;
#186 = DIRECTION ( 'NONE',  ( -0.000000000000000000, -1.000000000000000000, -0.000000000000000000 ) ) ;
#187 = APPROVAL_PERSON_ORGANIZATION ( #219, #94, #33 ) ;
#188 = CARTESIAN_POINT ( 'NONE',  ( 0.000000000000000000, 0.000000000000000000, -1.500000000000000222 ) ) ;
#189 = CARTESIAN_POINT ( 'NONE',  ( 0.000000000000000000, 35.00000000000000000, 0.000000000000000000 ) ) ;
#190 = DIRECTION ( 'NONE',  ( -0.000000000000000000, -1.000000000000000000, -0.000000000000000000 ) ) ;
#191 = CC_DESIGN_APPROVAL ( #94, ( #1 ) ) ;
#192 = FACE_OUTER_BOUND ( 'NONE', #2, .T. ) ;
#193 =( NAMED_UNIT ( * ) SI_UNIT ( $, .STERADIAN. ) SOLID_ANGLE_UNIT ( ) );
#194 = CALENDAR_DATE ( 2026, 9, 3 ) ;
#195 = VECTOR ( 'NONE', #186, 1000.000000000000000 ) ;
#196 = SHAPE_DEFINITION_REPRESENTATION ( #32, #229 ) ;
#197 = SECURITY_CLASSIFICATION_LEVEL ( 'unclassified' ) ;
#198 = VERTEX_POINT ( 'NONE', #96 ) ;
#199 = ADVANCED_FACE ( 'NONE', ( #192 ), #153, .F. ) ;
#200 = PERSON_AND_ORGANIZATION_ROLE ( 'design_supplier' ) ;
#201 = DESIGN_CONTEXT ( 'detailed design', #149, 'design' ) ;
#202 = PERSON_AND_ORGANIZATION ( #97, #127 ) ;
#203 = CIRCLE ( 'NONE', #167, 1.500000000000000222 ) ;
#204 = VERTEX_POINT ( 'NONE', #45 ) ;
#205 = DIRECTION ( 'NONE',  ( -0.000000000000000000, -1.000000000000000000, -0.000000000000000000 ) ) ;
#206 = ADVANCED_FACE ( 'NONE', ( #173 ), #116, .F. ) ;
#207 = ORIENTED_EDGE ( 'NONE', *, *, #118, .F. ) ;
#208 = PRODUCT_DEFINITION_FORMATION_WITH_SPECIFIED_SOURCE ( 'ANY', '', #61, .NOT_KNOWN. ) ;
#209 = ORIENTED_EDGE ( 'NONE', *, *, #24, .F. ) ;
#210 = EDGE_CURVE ( 'NONE', #87, #204, #63, .T. ) ;
#211 = ORIENTED_EDGE ( 'NONE', *, *, #234, .F. ) ;
#212 = CARTESIAN_POINT ( 'NONE',  ( 0.000000000000000000, 35.00000000000000000, 0.000000000000000000 ) ) ;
#213 = AXIS2_PLACEMENT_3D ( 'NONE', #230, #190, #172 ) ;
#214 = CARTESIAN_POINT ( 'NONE',  ( 0.000000000000000000, 35.00000000000000000, 0.000000000000000000 ) ) ;
#215 = DIRECTION ( 'NONE',  ( 0.000000000000000000, 0.000000000000000000, -1.000000000000000000 ) ) ;
#216 = DIRECTION ( 'NONE',  ( 0.000000000000000000, 1.000000000000000000, 0.000000000000000000 ) ) ;
#217 = CARTESIAN_POINT ( 'NONE',  ( 0.000000000000000000, 35.00000000000000000, -1.500000000000000222 ) ) ;
#218 = ORIENTED_EDGE ( 'NONE', *, *, #24, .T. ) ;
#219 = PERSON_AND_ORGANIZATION ( #97, #127 ) ;
#220 = CALENDAR_DATE ( 2026, 9, 3 ) ;
#221 = APPROVAL_ROLE ( '' ) ;
#222 = DATE_AND_TIME ( #65, #155 ) ;
#223 = DIRECTION ( 'NONE',  ( 0.000000000000000000, 1.000000000000000000, 0.000000000000000000 ) ) ;
#224 = DIRECTION ( 'NONE',  ( 0.000000000000000000, 0.000000000000000000, 1.000000000000000000 ) ) ;
#225 = ORIENTED_EDGE ( 'NONE', *, *, #71, .T. ) ;
#226 = EDGE_CURVE ( 'NONE', #180, #4, #100, .T. ) ;
#227 = CARTESIAN_POINT ( 'NONE',  ( 0.000000000000000000, 0.000000000000000000, 0.000000000000000000 ) ) ;
#228 = DIRECTION ( 'NONE',  ( 0.000000000000000000, 0.000000000000000000, 1.000000000000000000 ) ) ;
#229 = ADVANCED_BREP_SHAPE_REPRESENTATION ( 'Standoff', ( #37, #22 ), #178 ) ;
#230 = CARTESIAN_POINT ( 'NONE',  ( 0.000000000000000000, 35.00000000000000000, 0.000000000000000000 ) ) ;
#231 = ORIENTED_EDGE ( 'NONE', *, *, #160, .T. ) ;
#232 = AXIS2_PLACEMENT_3D ( 'NONE', #89, #125, #72 ) ;
#233 = FACE_OUTER_BOUND ( 'NONE', #54, .T. ) ;
#234 = EDGE_CURVE ( 'NONE', #129, #166, #6, .T. ) ;
#235 = MECHANICAL_CONTEXT ( 'NONE', #15, 'mechanical' ) ;
#236 = CYLINDRICAL_SURFACE ( 'NONE', #26, 5.000000000000000000 ) ;
#237 = ORIENTED_EDGE ( 'NONE', *, *, #234, .T. ) ;
#238 = PRODUCT_RELATED_PRODUCT_CATEGORY ( 'detail', '', ( #61 ) ) ;
#239 = AXIS2_PLACEMENT_3D ( 'NONE', #92, #162, #90 ) ;
#240 = DIRECTION ( 'NONE',  ( 1.000000000000000000, 0.000000000000000000, 0.000000000000000000 ) ) ;
#241 = PERSON_AND_ORGANIZATION ( #97, #127 ) ;
#242 = APPROVAL_DATE_TIME ( #222, #94 ) ;
#243 = CLOSED_SHELL ( 'NONE', ( #206, #141, #176, #124, #5, #199 ) ) ;
#244 = APPLICATION_PROTOCOL_DEFINITION ( 'international standard', 'config_control_design', 1994, #149 ) ;
#245 = CC_DESIGN_PERSON_AND_ORGANIZATION_ASSIGNMENT ( #64, #200, ( #208 ) ) ;
#246 = LOCAL_TIME ( 16, 4, 13.00000000000000000, #121 ) ;
#247 = LINE ( 'NONE', #42, #29 ) ;
#248 = DIRECTION ( 'NONE',  ( 0.000000000000000000, 0.000000000000000000, 1.000000000000000000 ) ) ;
#249 = DIRECTION ( 'NONE',  ( 0.000000000000000000, 1.000000000000000000, 0.000000000000000000 ) ) ;
ENDSEC;
END-ISO-10303-21;
