ISO-10303-21;
HEADER;
FILE_DESCRIPTION (( 'STEP AP203' ),
    '1' );
FILE_NAME ('Lower Leg Shaft V.3.STEP',
    '2026-04-03T02:17:02',
    ( '' ),
    ( '' ),
    'SwSTEP 2.0',
    'SolidWorks 2025',
    '' );
FILE_SCHEMA (( 'CONFIG_CONTROL_DESIGN' ));
ENDSEC;

DATA;
#1 = AXIS2_PLACEMENT_3D ( 'NONE', #121, #52, #33 ) ;
#2 = LOCAL_TIME ( 20, 17, 2.000000000000000000, #161 ) ;
#3 = APPROVAL ( #23, 'UNSPECIFIED' ) ;
#4 = COORDINATED_UNIVERSAL_TIME_OFFSET ( 7, 0, .BEHIND. ) ;
#5 = SECURITY_CLASSIFICATION ( '', '', #173 ) ;
#6 = ADVANCED_FACE ( 'NONE', ( #22 ), #104, .T. ) ;
#7 = LINE ( 'NONE', #63, #28 ) ;
#8 = DIRECTION ( 'NONE',  ( -0.000000000000000000, -0.000000000000000000, -1.000000000000000000 ) ) ;
#9 = CARTESIAN_POINT ( 'NONE',  ( 0.000000000000000000, 0.000000000000000000, 30.00000000000000000 ) ) ;
#10 = CC_DESIGN_PERSON_AND_ORGANIZATION_ASSIGNMENT ( #125, #48, ( #76 ) ) ;
#11 = VERTEX_POINT ( 'NONE', #19 ) ;
#12 = CARTESIAN_POINT ( 'NONE',  ( -4.750000000000000000, 0.000000000000000000, 30.00000000000000000 ) ) ;
#13 = FACE_OUTER_BOUND ( 'NONE', #66, .T. ) ;
#14 = PERSON_AND_ORGANIZATION ( #113, #49 ) ;
#15 = PERSON_AND_ORGANIZATION ( #113, #49 ) ;
#16 = CALENDAR_DATE ( 2026, 2, 4 ) ;
#17 = ORIENTED_EDGE ( 'NONE', *, *, #35, .F. ) ;
#18 = ORIENTED_EDGE ( 'NONE', *, *, #132, .F. ) ;
#19 = CARTESIAN_POINT ( 'NONE',  ( 4.750000000000000000, 5.817072295949927426E-16, 30.00000000000000000 ) ) ;
#20 = AXIS2_PLACEMENT_3D ( 'NONE', #109, #97, #149 ) ;
#21 = CARTESIAN_POINT ( 'NONE',  ( 0.000000000000000000, 0.000000000000000000, 0.000000000000000000 ) ) ;
#22 = FACE_OUTER_BOUND ( 'NONE', #116, .T. ) ;
#23 = APPROVAL_STATUS ( 'not_yet_approved' ) ;
#24 = APPLICATION_PROTOCOL_DEFINITION ( 'international standard', 'config_control_design', 1994, #145 ) ;
#25 = CARTESIAN_POINT ( 'NONE',  ( 0.000000000000000000, 0.000000000000000000, 0.000000000000000000 ) ) ;
#26 = ADVANCED_BREP_SHAPE_REPRESENTATION ( 'Lower Leg Shaft V.3', ( #142, #29 ), #167 ) ;
#27 = APPROVAL_DATE_TIME ( #98, #110 ) ;
#28 = VECTOR ( 'NONE', #146, 1000.000000000000000 ) ;
#29 = AXIS2_PLACEMENT_3D ( 'NONE', #25, #150, #55 ) ;
#30 = DIRECTION ( 'NONE',  ( 1.000000000000000000, 0.000000000000000000, 0.000000000000000000 ) ) ;
#31 = CIRCLE ( 'NONE', #42, 4.750000000000000000 ) ;
#32 = ADVANCED_FACE ( 'NONE', ( #131 ), #107, .T. ) ;
#33 = DIRECTION ( 'NONE',  ( 1.000000000000000000, 0.000000000000000000, -0.000000000000000000 ) ) ;
#34 = FACE_OUTER_BOUND ( 'NONE', #81, .T. ) ;
#35 = EDGE_CURVE ( 'NONE', #11, #79, #7, .T. ) ;
#36 = MECHANICAL_CONTEXT ( 'NONE', #145, 'mechanical' ) ;
#37 = CIRCLE ( 'NONE', #47, 4.750000000000000000 ) ;
#38 = APPROVAL_PERSON_ORGANIZATION ( #148, #3, #138 ) ;
#39 = EDGE_CURVE ( 'NONE', #95, #79, #37, .T. ) ;
#40 = APPROVAL_ROLE ( '' ) ;
#41 = APPROVAL_DATE_TIME ( #87, #117 ) ;
#42 = AXIS2_PLACEMENT_3D ( 'NONE', #69, #84, #133 ) ;
#43 = APPROVAL_PERSON_ORGANIZATION ( #62, #117, #61 ) ;
#44 = ORIENTED_EDGE ( 'NONE', *, *, #143, .T. ) ;
#45 = ORIENTED_EDGE ( 'NONE', *, *, #39, .F. ) ;
#46 = DIRECTION ( 'NONE',  ( 1.000000000000000000, 0.000000000000000000, 0.000000000000000000 ) ) ;
#47 = AXIS2_PLACEMENT_3D ( 'NONE', #64, #80, #30 ) ;
#48 = PERSON_AND_ORGANIZATION_ROLE ( 'design_supplier' ) ;
#49 = ORGANIZATION ( 'UNSPECIFIED', 'UNSPECIFIED', '' ) ;
#50 = CALENDAR_DATE ( 2026, 2, 4 ) ;
#51 = DESIGN_CONTEXT ( 'detailed design', #166, 'design' ) ;
#52 = DIRECTION ( 'NONE',  ( 0.000000000000000000, 0.000000000000000000, 1.000000000000000000 ) ) ;
#53 = PERSON_AND_ORGANIZATION_ROLE ( 'creator' ) ;
#54 = PERSON_AND_ORGANIZATION ( #113, #49 ) ;
#55 = DIRECTION ( 'NONE',  ( 1.000000000000000000, 0.000000000000000000, 0.000000000000000000 ) ) ;
#56 =( NAMED_UNIT ( * ) SI_UNIT ( $, .STERADIAN. ) SOLID_ANGLE_UNIT ( ) );
#57 =( NAMED_UNIT ( * ) PLANE_ANGLE_UNIT ( ) SI_UNIT ( $, .RADIAN. ) );
#58 = UNCERTAINTY_MEASURE_WITH_UNIT (LENGTH_MEASURE( 1.000000000000000082E-05 ), #67, 'distance_accuracy_value', 'NONE');
#59 = CC_DESIGN_DATE_AND_TIME_ASSIGNMENT ( #72, #123, ( #89 ) ) ;
#60 = APPROVAL_PERSON_ORGANIZATION ( #14, #110, #40 ) ;
#61 = APPROVAL_ROLE ( '' ) ;
#62 = PERSON_AND_ORGANIZATION ( #113, #49 ) ;
#63 = CARTESIAN_POINT ( 'NONE',  ( 4.750000000000000000, 5.817072295949927426E-16, 30.00000000000000000 ) ) ;
#64 = CARTESIAN_POINT ( 'NONE',  ( 0.000000000000000000, 0.000000000000000000, 0.000000000000000000 ) ) ;
#65 = DIRECTION ( 'NONE',  ( 0.000000000000000000, 0.000000000000000000, 1.000000000000000000 ) ) ;
#66 = EDGE_LOOP ( 'NONE', ( #17, #129, #83, #96 ) ) ;
#67 =( LENGTH_UNIT ( ) NAMED_UNIT ( * ) SI_UNIT ( .MILLI., .METRE. ) );
#68 = ORIENTED_EDGE ( 'NONE', *, *, #71, .F. ) ;
#69 = CARTESIAN_POINT ( 'NONE',  ( 0.000000000000000000, 0.000000000000000000, 30.00000000000000000 ) ) ;
#70 = COORDINATED_UNIVERSAL_TIME_OFFSET ( 7, 0, .BEHIND. ) ;
#71 = EDGE_CURVE ( 'NONE', #171, #95, #130, .T. ) ;
#72 = DATE_AND_TIME ( #50, #115 ) ;
#73 = APPROVAL_DATE_TIME ( #134, #3 ) ;
#74 = PRODUCT ( 'Lower Leg Shaft V.3', 'Lower Leg Shaft V.3', '', ( #36 ) ) ;
#75 = CIRCLE ( 'NONE', #118, 4.750000000000000000 ) ;
#76 = PRODUCT_DEFINITION_FORMATION_WITH_SPECIFIED_SOURCE ( 'ANY', '', #74, .NOT_KNOWN. ) ;
#77 = EDGE_CURVE ( 'NONE', #79, #95, #75, .T. ) ;
#78 = DIRECTION ( 'NONE',  ( -1.000000000000000000, 0.000000000000000000, 0.000000000000000000 ) ) ;
#79 = VERTEX_POINT ( 'NONE', #105 ) ;
#80 = DIRECTION ( 'NONE',  ( 0.000000000000000000, 0.000000000000000000, 1.000000000000000000 ) ) ;
#81 = EDGE_LOOP ( 'NONE', ( #45, #92 ) ) ;
#82 = DIRECTION ( 'NONE',  ( 0.000000000000000000, 0.000000000000000000, 1.000000000000000000 ) ) ;
#83 = ORIENTED_EDGE ( 'NONE', *, *, #71, .T. ) ;
#84 = DIRECTION ( 'NONE',  ( 0.000000000000000000, 0.000000000000000000, 1.000000000000000000 ) ) ;
#85 = CC_DESIGN_PERSON_AND_ORGANIZATION_ASSIGNMENT ( #15, #99, ( #89 ) ) ;
#86 = CYLINDRICAL_SURFACE ( 'NONE', #103, 4.750000000000000000 ) ;
#87 = DATE_AND_TIME ( #112, #128 ) ;
#88 = PRODUCT_RELATED_PRODUCT_CATEGORY ( 'detail', '', ( #74 ) ) ;
#89 = PRODUCT_DEFINITION ( 'UNKNOWN', '', #76, #51 ) ;
#90 = CC_DESIGN_APPROVAL ( #110, ( #89 ) ) ;
#91 = EDGE_LOOP ( 'NONE', ( #18, #154, #168, #68 ) ) ;
#92 = ORIENTED_EDGE ( 'NONE', *, *, #77, .F. ) ;
#93 = CLOSED_SHELL ( 'NONE', ( #32, #120, #6, #108 ) ) ;
#94 = PLANE ( 'NONE',  #153 ) ;
#95 = VERTEX_POINT ( 'NONE', #155 ) ;
#96 = ORIENTED_EDGE ( 'NONE', *, *, #39, .T. ) ;
#97 = DIRECTION ( 'NONE',  ( 0.000000000000000000, 0.000000000000000000, 1.000000000000000000 ) ) ;
#98 = DATE_AND_TIME ( #160, #2 ) ;
#99 = PERSON_AND_ORGANIZATION_ROLE ( 'creator' ) ;
#100 = CC_DESIGN_APPROVAL ( #3, ( #76 ) ) ;
#101 = COORDINATED_UNIVERSAL_TIME_OFFSET ( 7, 0, .BEHIND. ) ;
#102 = DATE_TIME_ROLE ( 'classification_date' ) ;
#103 = AXIS2_PLACEMENT_3D ( 'NONE', #158, #119, #106 ) ;
#104 = PLANE ( 'NONE',  #1 ) ;
#105 = CARTESIAN_POINT ( 'NONE',  ( 4.750000000000000000, 5.817072295949927426E-16, 0.000000000000000000 ) ) ;
#106 = DIRECTION ( 'NONE',  ( -1.000000000000000000, 0.000000000000000000, 0.000000000000000000 ) ) ;
#107 = CYLINDRICAL_SURFACE ( 'NONE', #114, 4.750000000000000000 ) ;
#108 = ADVANCED_FACE ( 'NONE', ( #34 ), #94, .F. ) ;
#109 = CARTESIAN_POINT ( 'NONE',  ( 0.000000000000000000, 0.000000000000000000, 30.00000000000000000 ) ) ;
#110 = APPROVAL ( #137, 'UNSPECIFIED' ) ;
#111 = CIRCLE ( 'NONE', #20, 4.750000000000000000 ) ;
#112 = CALENDAR_DATE ( 2026, 2, 4 ) ;
#113 = PERSON ( 'UNSPECIFIED', 'UNSPECIFIED', 'UNSPECIFIED', ('UNSPECIFIED'), ('UNSPECIFIED'), ('UNSPECIFIED') ) ;
#114 = AXIS2_PLACEMENT_3D ( 'NONE', #9, #157, #78 ) ;
#115 = LOCAL_TIME ( 20, 17, 2.000000000000000000, #70 ) ;
#116 = EDGE_LOOP ( 'NONE', ( #44, #147 ) ) ;
#117 = APPROVAL ( #126, 'UNSPECIFIED' ) ;
#118 = AXIS2_PLACEMENT_3D ( 'NONE', #144, #65, #46 ) ;
#119 = DIRECTION ( 'NONE',  ( -0.000000000000000000, -0.000000000000000000, -1.000000000000000000 ) ) ;
#120 = ADVANCED_FACE ( 'NONE', ( #13 ), #86, .T. ) ;
#121 = CARTESIAN_POINT ( 'NONE',  ( 0.000000000000000000, 0.000000000000000000, 30.00000000000000000 ) ) ;
#122 = COORDINATED_UNIVERSAL_TIME_OFFSET ( 7, 0, .BEHIND. ) ;
#123 = DATE_TIME_ROLE ( 'creation_date' ) ;
#124 = CC_DESIGN_SECURITY_CLASSIFICATION ( #5, ( #76 ) ) ;
#125 = PERSON_AND_ORGANIZATION ( #113, #49 ) ;
#126 = APPROVAL_STATUS ( 'not_yet_approved' ) ;
#127 = CC_DESIGN_PERSON_AND_ORGANIZATION_ASSIGNMENT ( #54, #136, ( #5 ) ) ;
#128 = LOCAL_TIME ( 20, 17, 2.000000000000000000, #4 ) ;
#129 = ORIENTED_EDGE ( 'NONE', *, *, #143, .F. ) ;
#130 = LINE ( 'NONE', #169, #151 ) ;
#131 = FACE_OUTER_BOUND ( 'NONE', #91, .T. ) ;
#132 = EDGE_CURVE ( 'NONE', #11, #171, #111, .T. ) ;
#133 = DIRECTION ( 'NONE',  ( 1.000000000000000000, 0.000000000000000000, 0.000000000000000000 ) ) ;
#134 = DATE_AND_TIME ( #16, #156 ) ;
#135 = APPLICATION_PROTOCOL_DEFINITION ( 'international standard', 'config_control_design', 1994, #166 ) ;
#136 = PERSON_AND_ORGANIZATION_ROLE ( 'classification_officer' ) ;
#137 = APPROVAL_STATUS ( 'not_yet_approved' ) ;
#138 = APPROVAL_ROLE ( '' ) ;
#139 = LOCAL_TIME ( 20, 17, 2.000000000000000000, #101 ) ;
#140 = DATE_AND_TIME ( #141, #139 ) ;
#141 = CALENDAR_DATE ( 2026, 2, 4 ) ;
#142 = MANIFOLD_SOLID_BREP ( 'Boss-Extrude1', #93 ) ;
#143 = EDGE_CURVE ( 'NONE', #171, #11, #31, .T. ) ;
#144 = CARTESIAN_POINT ( 'NONE',  ( 0.000000000000000000, 0.000000000000000000, 0.000000000000000000 ) ) ;
#145 = APPLICATION_CONTEXT ( 'configuration controlled 3d designs of mechanical parts and assemblies' ) ;
#146 = DIRECTION ( 'NONE',  ( -0.000000000000000000, -0.000000000000000000, -1.000000000000000000 ) ) ;
#147 = ORIENTED_EDGE ( 'NONE', *, *, #132, .T. ) ;
#148 = PERSON_AND_ORGANIZATION ( #113, #49 ) ;
#149 = DIRECTION ( 'NONE',  ( 1.000000000000000000, 0.000000000000000000, 0.000000000000000000 ) ) ;
#150 = DIRECTION ( 'NONE',  ( 0.000000000000000000, 0.000000000000000000, 1.000000000000000000 ) ) ;
#151 = VECTOR ( 'NONE', #8, 1000.000000000000000 ) ;
#152 = CC_DESIGN_PERSON_AND_ORGANIZATION_ASSIGNMENT ( #162, #174, ( #74 ) ) ;
#153 = AXIS2_PLACEMENT_3D ( 'NONE', #21, #82, #175 ) ;
#154 = ORIENTED_EDGE ( 'NONE', *, *, #35, .T. ) ;
#155 = CARTESIAN_POINT ( 'NONE',  ( -4.750000000000000000, 0.000000000000000000, 0.000000000000000000 ) ) ;
#156 = LOCAL_TIME ( 20, 17, 2.000000000000000000, #122 ) ;
#157 = DIRECTION ( 'NONE',  ( -0.000000000000000000, -0.000000000000000000, -1.000000000000000000 ) ) ;
#158 = CARTESIAN_POINT ( 'NONE',  ( 0.000000000000000000, 0.000000000000000000, 30.00000000000000000 ) ) ;
#159 = CC_DESIGN_PERSON_AND_ORGANIZATION_ASSIGNMENT ( #172, #53, ( #76 ) ) ;
#160 = CALENDAR_DATE ( 2026, 2, 4 ) ;
#161 = COORDINATED_UNIVERSAL_TIME_OFFSET ( 7, 0, .BEHIND. ) ;
#162 = PERSON_AND_ORGANIZATION ( #113, #49 ) ;
#163 = CC_DESIGN_DATE_AND_TIME_ASSIGNMENT ( #140, #102, ( #5 ) ) ;
#164 = SHAPE_DEFINITION_REPRESENTATION ( #165, #26 ) ;
#165 = PRODUCT_DEFINITION_SHAPE ( 'NONE', 'NONE',  #89 ) ;
#166 = APPLICATION_CONTEXT ( 'configuration controlled 3d designs of mechanical parts and assemblies' ) ;
#167 =( GEOMETRIC_REPRESENTATION_CONTEXT ( 3 ) GLOBAL_UNCERTAINTY_ASSIGNED_CONTEXT ( ( #58 ) ) GLOBAL_UNIT_ASSIGNED_CONTEXT ( ( #67, #57, #56 ) ) REPRESENTATION_CONTEXT ( 'NONE', 'WORKASPACE' ) );
#168 = ORIENTED_EDGE ( 'NONE', *, *, #77, .T. ) ;
#169 = CARTESIAN_POINT ( 'NONE',  ( -4.750000000000000000, 0.000000000000000000, 30.00000000000000000 ) ) ;
#170 = CC_DESIGN_APPROVAL ( #117, ( #5 ) ) ;
#171 = VERTEX_POINT ( 'NONE', #12 ) ;
#172 = PERSON_AND_ORGANIZATION ( #113, #49 ) ;
#173 = SECURITY_CLASSIFICATION_LEVEL ( 'unclassified' ) ;
#174 = PERSON_AND_ORGANIZATION_ROLE ( 'design_owner' ) ;
#175 = DIRECTION ( 'NONE',  ( 1.000000000000000000, 0.000000000000000000, -0.000000000000000000 ) ) ;
ENDSEC;
END-ISO-10303-21;
