ISO-10303-21;
HEADER;
FILE_DESCRIPTION (( 'STEP AP203' ),
    '1' );
FILE_NAME ('Lower Arm Rod V.3.STEP',
    '2026-04-03T02:17:15',
    ( '' ),
    ( '' ),
    'SwSTEP 2.0',
    'SolidWorks 2025',
    '' );
FILE_SCHEMA (( 'CONFIG_CONTROL_DESIGN' ));
ENDSEC;

DATA;
#1 = ORIENTED_EDGE ( 'NONE', *, *, #58, .T. ) ;
#2 = CYLINDRICAL_SURFACE ( 'NONE', #35, 3.500000000000000444 ) ;
#3 = PRODUCT_RELATED_PRODUCT_CATEGORY ( 'detail', '', ( #52 ) ) ;
#4 = FACE_OUTER_BOUND ( 'NONE', #95, .T. ) ;
#5 = APPROVAL ( #100, 'UNSPECIFIED' ) ;
#6 = DATE_AND_TIME ( #111, #162 ) ;
#7 = APPROVAL_DATE_TIME ( #150, #5 ) ;
#8 = DIRECTION ( 'NONE',  ( 0.000000000000000000, 0.000000000000000000, 1.000000000000000000 ) ) ;
#9 = DATE_TIME_ROLE ( 'classification_date' ) ;
#10 = DATE_AND_TIME ( #70, #140 ) ;
#11 = APPROVAL_PERSON_ORGANIZATION ( #154, #26, #110 ) ;
#12 = ADVANCED_FACE ( 'NONE', ( #164 ), #148, .T. ) ;
#13 = COORDINATED_UNIVERSAL_TIME_OFFSET ( 7, 0, .BEHIND. ) ;
#14 = ORIENTED_EDGE ( 'NONE', *, *, #161, .T. ) ;
#15 = VERTEX_POINT ( 'NONE', #47 ) ;
#16 = ADVANCED_FACE ( 'NONE', ( #36 ), #89, .T. ) ;
#17 = DIRECTION ( 'NONE',  ( -0.000000000000000000, -0.000000000000000000, -1.000000000000000000 ) ) ;
#18 = ORIENTED_EDGE ( 'NONE', *, *, #23, .F. ) ;
#19 = LOCAL_TIME ( 20, 17, 15.00000000000000000, #98 ) ;
#20 = APPROVAL_ROLE ( '' ) ;
#21 = CC_DESIGN_APPROVAL ( #51, ( #168 ) ) ;
#22 = CARTESIAN_POINT ( 'NONE',  ( 3.500000000000000444, 4.286263797015737088E-16, 0.000000000000000000 ) ) ;
#23 = EDGE_CURVE ( 'NONE', #60, #93, #38, .T. ) ;
#24 = PERSON_AND_ORGANIZATION ( #113, #90 ) ;
#25 = DATE_AND_TIME ( #127, #153 ) ;
#26 = APPROVAL ( #169, 'UNSPECIFIED' ) ;
#27 = COORDINATED_UNIVERSAL_TIME_OFFSET ( 7, 0, .BEHIND. ) ;
#28 = ORIENTED_EDGE ( 'NONE', *, *, #46, .T. ) ;
#29 = CARTESIAN_POINT ( 'NONE',  ( 0.000000000000000000, 0.000000000000000000, 25.00000000000000000 ) ) ;
#30 = CARTESIAN_POINT ( 'NONE',  ( 0.000000000000000000, 0.000000000000000000, 0.000000000000000000 ) ) ;
#31 = PERSON_AND_ORGANIZATION ( #113, #90 ) ;
#32 = PERSON_AND_ORGANIZATION ( #113, #90 ) ;
#33 = PRODUCT_DEFINITION ( 'UNKNOWN', '', #78, #77 ) ;
#34 = UNCERTAINTY_MEASURE_WITH_UNIT (LENGTH_MEASURE( 1.000000000000000082E-05 ), #108, 'distance_accuracy_value', 'NONE');
#35 = AXIS2_PLACEMENT_3D ( 'NONE', #155, #43, #125 ) ;
#36 = FACE_OUTER_BOUND ( 'NONE', #79, .T. ) ;
#37 = CC_DESIGN_DATE_AND_TIME_ASSIGNMENT ( #128, #9, ( #168 ) ) ;
#38 = LINE ( 'NONE', #91, #82 ) ;
#39 = ORIENTED_EDGE ( 'NONE', *, *, #61, .T. ) ;
#40 = ORIENTED_EDGE ( 'NONE', *, *, #46, .F. ) ;
#41 = EDGE_LOOP ( 'NONE', ( #105, #133 ) ) ;
#42 = CALENDAR_DATE ( 2026, 2, 4 ) ;
#43 = DIRECTION ( 'NONE',  ( -0.000000000000000000, -0.000000000000000000, -1.000000000000000000 ) ) ;
#44 = CARTESIAN_POINT ( 'NONE',  ( -3.500000000000000444, 0.000000000000000000, 0.000000000000000000 ) ) ;
#45 = CC_DESIGN_PERSON_AND_ORGANIZATION_ASSIGNMENT ( #24, #138, ( #78 ) ) ;
#46 = EDGE_CURVE ( 'NONE', #15, #63, #76, .T. ) ;
#47 = CARTESIAN_POINT ( 'NONE',  ( 3.500000000000000444, 4.286263797015737088E-16, 25.00000000000000000 ) ) ;
#48 = AXIS2_PLACEMENT_3D ( 'NONE', #30, #8, #55 ) ;
#49 = CC_DESIGN_DATE_AND_TIME_ASSIGNMENT ( #6, #54, ( #33 ) ) ;
#50 = CARTESIAN_POINT ( 'NONE',  ( 0.000000000000000000, 0.000000000000000000, 0.000000000000000000 ) ) ;
#51 = APPROVAL ( #72, 'UNSPECIFIED' ) ;
#52 = PRODUCT ( 'Lower Arm Rod V.3', 'Lower Arm Rod V.3', '', ( #124 ) ) ;
#53 = AXIS2_PLACEMENT_3D ( 'NONE', #83, #126, #112 ) ;
#54 = DATE_TIME_ROLE ( 'creation_date' ) ;
#55 = DIRECTION ( 'NONE',  ( 1.000000000000000000, 0.000000000000000000, 0.000000000000000000 ) ) ;
#56 = DIRECTION ( 'NONE',  ( 0.000000000000000000, 0.000000000000000000, 1.000000000000000000 ) ) ;
#57 = CIRCLE ( 'NONE', #107, 3.500000000000000444 ) ;
#58 = EDGE_CURVE ( 'NONE', #93, #63, #87, .T. ) ;
#59 = APPROVAL_DATE_TIME ( #10, #26 ) ;
#60 = VERTEX_POINT ( 'NONE', #166 ) ;
#61 = EDGE_CURVE ( 'NONE', #15, #60, #57, .T. ) ;
#62 = CC_DESIGN_APPROVAL ( #26, ( #78 ) ) ;
#63 = VERTEX_POINT ( 'NONE', #22 ) ;
#64 = DIRECTION ( 'NONE',  ( 0.000000000000000000, 0.000000000000000000, 1.000000000000000000 ) ) ;
#65 = AXIS2_PLACEMENT_3D ( 'NONE', #66, #64, #136 ) ;
#66 = CARTESIAN_POINT ( 'NONE',  ( 0.000000000000000000, 0.000000000000000000, 0.000000000000000000 ) ) ;
#67 = DIRECTION ( 'NONE',  ( 1.000000000000000000, 0.000000000000000000, 0.000000000000000000 ) ) ;
#68 = PERSON_AND_ORGANIZATION_ROLE ( 'design_owner' ) ;
#69 = CLOSED_SHELL ( 'NONE', ( #12, #163, #16, #99 ) ) ;
#70 = CALENDAR_DATE ( 2026, 2, 4 ) ;
#71 = AXIS2_PLACEMENT_3D ( 'NONE', #145, #75, #129 ) ;
#72 = APPROVAL_STATUS ( 'not_yet_approved' ) ;
#73 = APPROVAL_ROLE ( '' ) ;
#74 = CIRCLE ( 'NONE', #152, 3.500000000000000444 ) ;
#75 = DIRECTION ( 'NONE',  ( 0.000000000000000000, 0.000000000000000000, 1.000000000000000000 ) ) ;
#76 = LINE ( 'NONE', #130, #122 ) ;
#77 = DESIGN_CONTEXT ( 'detailed design', #158, 'design' ) ;
#78 = PRODUCT_DEFINITION_FORMATION_WITH_SPECIFIED_SOURCE ( 'ANY', '', #52, .NOT_KNOWN. ) ;
#79 = EDGE_LOOP ( 'NONE', ( #14, #39 ) ) ;
#80 = DIRECTION ( 'NONE',  ( -0.000000000000000000, -0.000000000000000000, -1.000000000000000000 ) ) ;
#81 = APPLICATION_PROTOCOL_DEFINITION ( 'international standard', 'config_control_design', 1994, #173 ) ;
#82 = VECTOR ( 'NONE', #146, 1000.000000000000000 ) ;
#83 = CARTESIAN_POINT ( 'NONE',  ( 0.000000000000000000, 0.000000000000000000, 0.000000000000000000 ) ) ;
#84 = CC_DESIGN_PERSON_AND_ORGANIZATION_ASSIGNMENT ( #97, #167, ( #33 ) ) ;
#85 = DIRECTION ( 'NONE',  ( 0.000000000000000000, 0.000000000000000000, 1.000000000000000000 ) ) ;
#86 = APPLICATION_PROTOCOL_DEFINITION ( 'international standard', 'config_control_design', 1994, #158 ) ;
#87 = CIRCLE ( 'NONE', #159, 3.500000000000000444 ) ;
#88 = PERSON_AND_ORGANIZATION_ROLE ( 'classification_officer' ) ;
#89 = PLANE ( 'NONE',  #71 ) ;
#90 = ORGANIZATION ( 'UNSPECIFIED', 'UNSPECIFIED', '' ) ;
#91 = CARTESIAN_POINT ( 'NONE',  ( -3.500000000000000444, 0.000000000000000000, 25.00000000000000000 ) ) ;
#92 = DIRECTION ( 'NONE',  ( 1.000000000000000000, 0.000000000000000000, 0.000000000000000000 ) ) ;
#93 = VERTEX_POINT ( 'NONE', #44 ) ;
#94 = AXIS2_PLACEMENT_3D ( 'NONE', #29, #80, #175 ) ;
#95 = EDGE_LOOP ( 'NONE', ( #40, #165, #120, #1 ) ) ;
#96 = PRODUCT_DEFINITION_SHAPE ( 'NONE', 'NONE',  #33 ) ;
#97 = PERSON_AND_ORGANIZATION ( #113, #90 ) ;
#98 = COORDINATED_UNIVERSAL_TIME_OFFSET ( 7, 0, .BEHIND. ) ;
#99 = ADVANCED_FACE ( 'NONE', ( #109 ), #149, .F. ) ;
#100 = APPROVAL_STATUS ( 'not_yet_approved' ) ;
#101 = CC_DESIGN_SECURITY_CLASSIFICATION ( #168, ( #78 ) ) ;
#102 = CARTESIAN_POINT ( 'NONE',  ( 0.000000000000000000, 0.000000000000000000, 25.00000000000000000 ) ) ;
#103 = CALENDAR_DATE ( 2026, 2, 4 ) ;
#104 = LOCAL_TIME ( 20, 17, 15.00000000000000000, #117 ) ;
#105 = ORIENTED_EDGE ( 'NONE', *, *, #58, .F. ) ;
#106 = DIRECTION ( 'NONE',  ( 0.000000000000000000, 0.000000000000000000, 1.000000000000000000 ) ) ;
#107 = AXIS2_PLACEMENT_3D ( 'NONE', #102, #56, #123 ) ;
#108 =( LENGTH_UNIT ( ) NAMED_UNIT ( * ) SI_UNIT ( .MILLI., .METRE. ) );
#109 = FACE_OUTER_BOUND ( 'NONE', #41, .T. ) ;
#110 = APPROVAL_ROLE ( '' ) ;
#111 = CALENDAR_DATE ( 2026, 2, 4 ) ;
#112 = DIRECTION ( 'NONE',  ( 1.000000000000000000, 0.000000000000000000, -0.000000000000000000 ) ) ;
#113 = PERSON ( 'UNSPECIFIED', 'UNSPECIFIED', 'UNSPECIFIED', ('UNSPECIFIED'), ('UNSPECIFIED'), ('UNSPECIFIED') ) ;
#114 = CC_DESIGN_PERSON_AND_ORGANIZATION_ASSIGNMENT ( #116, #172, ( #78 ) ) ;
#115 = CC_DESIGN_APPROVAL ( #5, ( #33 ) ) ;
#116 = PERSON_AND_ORGANIZATION ( #113, #90 ) ;
#117 = COORDINATED_UNIVERSAL_TIME_OFFSET ( 7, 0, .BEHIND. ) ;
#118 = SHAPE_DEFINITION_REPRESENTATION ( #96, #170 ) ;
#119 = EDGE_LOOP ( 'NONE', ( #121, #28, #174, #18 ) ) ;
#120 = ORIENTED_EDGE ( 'NONE', *, *, #23, .T. ) ;
#121 = ORIENTED_EDGE ( 'NONE', *, *, #61, .F. ) ;
#122 = VECTOR ( 'NONE', #17, 1000.000000000000000 ) ;
#123 = DIRECTION ( 'NONE',  ( 1.000000000000000000, 0.000000000000000000, 0.000000000000000000 ) ) ;
#124 = MECHANICAL_CONTEXT ( 'NONE', #173, 'mechanical' ) ;
#125 = DIRECTION ( 'NONE',  ( -1.000000000000000000, 0.000000000000000000, 0.000000000000000000 ) ) ;
#126 = DIRECTION ( 'NONE',  ( 0.000000000000000000, 0.000000000000000000, 1.000000000000000000 ) ) ;
#127 = CALENDAR_DATE ( 2026, 2, 4 ) ;
#128 = DATE_AND_TIME ( #103, #104 ) ;
#129 = DIRECTION ( 'NONE',  ( 1.000000000000000000, 0.000000000000000000, -0.000000000000000000 ) ) ;
#130 = CARTESIAN_POINT ( 'NONE',  ( 3.500000000000000444, 4.286263797015737088E-16, 25.00000000000000000 ) ) ;
#131 = APPROVAL_PERSON_ORGANIZATION ( #32, #5, #20 ) ;
#132 = APPROVAL_PERSON_ORGANIZATION ( #160, #51, #73 ) ;
#133 = ORIENTED_EDGE ( 'NONE', *, *, #143, .F. ) ;
#134 = MANIFOLD_SOLID_BREP ( 'Boss-Extrude1', #69 ) ;
#135 = COORDINATED_UNIVERSAL_TIME_OFFSET ( 7, 0, .BEHIND. ) ;
#136 = DIRECTION ( 'NONE',  ( 1.000000000000000000, 0.000000000000000000, 0.000000000000000000 ) ) ;
#137 = CARTESIAN_POINT ( 'NONE',  ( 0.000000000000000000, 0.000000000000000000, 25.00000000000000000 ) ) ;
#138 = PERSON_AND_ORGANIZATION_ROLE ( 'creator' ) ;
#139 = PERSON_AND_ORGANIZATION ( #113, #90 ) ;
#140 = LOCAL_TIME ( 20, 17, 15.00000000000000000, #13 ) ;
#141 = APPROVAL_DATE_TIME ( #25, #51 ) ;
#142 = SECURITY_CLASSIFICATION_LEVEL ( 'unclassified' ) ;
#143 = EDGE_CURVE ( 'NONE', #63, #93, #157, .T. ) ;
#144 =( GEOMETRIC_REPRESENTATION_CONTEXT ( 3 ) GLOBAL_UNCERTAINTY_ASSIGNED_CONTEXT ( ( #34 ) ) GLOBAL_UNIT_ASSIGNED_CONTEXT ( ( #108, #171, #156 ) ) REPRESENTATION_CONTEXT ( 'NONE', 'WORKASPACE' ) );
#145 = CARTESIAN_POINT ( 'NONE',  ( 0.000000000000000000, 0.000000000000000000, 25.00000000000000000 ) ) ;
#146 = DIRECTION ( 'NONE',  ( -0.000000000000000000, -0.000000000000000000, -1.000000000000000000 ) ) ;
#147 = CC_DESIGN_PERSON_AND_ORGANIZATION_ASSIGNMENT ( #31, #68, ( #52 ) ) ;
#148 = CYLINDRICAL_SURFACE ( 'NONE', #94, 3.500000000000000444 ) ;
#149 = PLANE ( 'NONE',  #53 ) ;
#150 = DATE_AND_TIME ( #42, #19 ) ;
#151 = CC_DESIGN_PERSON_AND_ORGANIZATION_ASSIGNMENT ( #139, #88, ( #168 ) ) ;
#152 = AXIS2_PLACEMENT_3D ( 'NONE', #137, #85, #67 ) ;
#153 = LOCAL_TIME ( 20, 17, 15.00000000000000000, #27 ) ;
#154 = PERSON_AND_ORGANIZATION ( #113, #90 ) ;
#155 = CARTESIAN_POINT ( 'NONE',  ( 0.000000000000000000, 0.000000000000000000, 25.00000000000000000 ) ) ;
#156 =( NAMED_UNIT ( * ) SI_UNIT ( $, .STERADIAN. ) SOLID_ANGLE_UNIT ( ) );
#157 = CIRCLE ( 'NONE', #48, 3.500000000000000444 ) ;
#158 = APPLICATION_CONTEXT ( 'configuration controlled 3d designs of mechanical parts and assemblies' ) ;
#159 = AXIS2_PLACEMENT_3D ( 'NONE', #50, #106, #92 ) ;
#160 = PERSON_AND_ORGANIZATION ( #113, #90 ) ;
#161 = EDGE_CURVE ( 'NONE', #60, #15, #74, .T. ) ;
#162 = LOCAL_TIME ( 20, 17, 15.00000000000000000, #135 ) ;
#163 = ADVANCED_FACE ( 'NONE', ( #4 ), #2, .T. ) ;
#164 = FACE_OUTER_BOUND ( 'NONE', #119, .T. ) ;
#165 = ORIENTED_EDGE ( 'NONE', *, *, #161, .F. ) ;
#166 = CARTESIAN_POINT ( 'NONE',  ( -3.500000000000000444, 0.000000000000000000, 25.00000000000000000 ) ) ;
#167 = PERSON_AND_ORGANIZATION_ROLE ( 'creator' ) ;
#168 = SECURITY_CLASSIFICATION ( '', '', #142 ) ;
#169 = APPROVAL_STATUS ( 'not_yet_approved' ) ;
#170 = ADVANCED_BREP_SHAPE_REPRESENTATION ( 'Lower Arm Rod V.3', ( #134, #65 ), #144 ) ;
#171 =( NAMED_UNIT ( * ) PLANE_ANGLE_UNIT ( ) SI_UNIT ( $, .RADIAN. ) );
#172 = PERSON_AND_ORGANIZATION_ROLE ( 'design_supplier' ) ;
#173 = APPLICATION_CONTEXT ( 'configuration controlled 3d designs of mechanical parts and assemblies' ) ;
#174 = ORIENTED_EDGE ( 'NONE', *, *, #143, .T. ) ;
#175 = DIRECTION ( 'NONE',  ( -1.000000000000000000, 0.000000000000000000, 0.000000000000000000 ) ) ;
ENDSEC;
END-ISO-10303-21;
