ISO-10303-21;
HEADER;
FILE_DESCRIPTION (( 'STEP AP203' ),
    '1' );
FILE_NAME ('Lower Arm Connector V.3.STEP',
    '2026-04-01T04:32:52',
    ( '' ),
    ( '' ),
    'SwSTEP 2.0',
    'SolidWorks 2025',
    '' );
FILE_SCHEMA (( 'CONFIG_CONTROL_DESIGN' ));
ENDSEC;

DATA;
#1 = EDGE_LOOP ( 'NONE', ( #354, #597, #822, #880 ) ) ;
#2 = CARTESIAN_POINT ( 'NONE',  ( 19.82208544984474585, 2.589845001826140525, 3.870731197006868740 ) ) ;
#3 = ORIENTED_EDGE ( 'NONE', *, *, #25, .T. ) ;
#4 = CARTESIAN_POINT ( 'NONE',  ( -19.82257827206779410, 2.589373733416650669, 3.870139693175816742 ) ) ;
#5 = CIRCLE ( 'NONE', #633, 3.599999999999999201 ) ;
#6 = CARTESIAN_POINT ( 'NONE',  ( 20.22481970126154138, 2.135074733323018670, 3.540241871383509320 ) ) ;
#7 = LOCAL_TIME ( 22, 32, 52.00000000000000000, #413 ) ;
#8 = ORIENTED_EDGE ( 'NONE', *, *, #335, .T. ) ;
#9 = DIRECTION ( 'NONE',  ( -1.001543065824773222E-16, 1.000000000000000000, 0.000000000000000000 ) ) ;
#10 = EDGE_CURVE ( 'NONE', #210, #868, #446, .T. ) ;
#11 = DIRECTION ( 'NONE',  ( -0.000000000000000000, -0.000000000000000000, -1.000000000000000000 ) ) ;
#12 = CARTESIAN_POINT ( 'NONE',  ( -19.87793432527674753, 2.535040290651779049, 3.808747950587233255 ) ) ;
#13 = CARTESIAN_POINT ( 'NONE',  ( 20.22454614615944735, 2.129803260115511687, 6.451138424858477549 ) ) ;
#14 = VERTEX_POINT ( 'NONE', #102 ) ;
#15 = CYLINDRICAL_SURFACE ( 'NONE', #462, 3.599999999999999201 ) ;
#16 = DIRECTION ( 'NONE',  ( 1.000000000000000000, 1.001543065824772950E-15, 0.000000000000000000 ) ) ;
#17 = EDGE_CURVE ( 'NONE', #469, #277, #944, .T. ) ;
#18 = CARTESIAN_POINT ( 'NONE',  ( -20.75157946575578904, 1.105031360796749906, 6.308723647237501453 ) ) ;
#19 = DIRECTION ( 'NONE',  ( 1.000000000000000000, 0.000000000000000000, 0.000000000000000000 ) ) ;
#20 = ORIENTED_EDGE ( 'NONE', *, *, #465, .T. ) ;
#21 = DIRECTION ( 'NONE',  ( -0.000000000000000000, -0.000000000000000000, -1.000000000000000000 ) ) ;
#22 = MANIFOLD_SOLID_BREP ( 'Cut-Extrude2', #1042 ) ;
#23 = DIRECTION ( 'NONE',  ( -0.000000000000000000, -0.000000000000000000, -1.000000000000000000 ) ) ;
#24 = CARTESIAN_POINT ( 'NONE',  ( 20.92050807568875825, -1.293850628283758747E-15, 0.000000000000000000 ) ) ;
#25 = EDGE_CURVE ( 'NONE', #913, #517, #525, .T. ) ;
#26 = VECTOR ( 'NONE', #191, 1000.000000000000000 ) ;
#27 = EDGE_LOOP ( 'NONE', ( #195, #942, #280, #90 ) ) ;
#28 = CARTESIAN_POINT ( 'NONE',  ( -8.660254037844383745, 15.00000000000000000, 0.000000000000000000 ) ) ;
#29 = VECTOR ( 'NONE', #108, 1000.000000000000000 ) ;
#30 = DIRECTION ( 'NONE',  ( 0.000000000000000000, 0.000000000000000000, 1.000000000000000000 ) ) ;
#31 = CARTESIAN_POINT ( 'NONE',  ( -19.99177081768078779, 2.414797383779515361, 6.299408234313480293 ) ) ;
#32 = LINE ( 'NONE', #548, #206 ) ;
#33 = ORIENTED_EDGE ( 'NONE', *, *, #486, .T. ) ;
#34 = DIRECTION ( 'NONE',  ( 1.000000000000000000, 0.000000000000000000, 0.000000000000000000 ) ) ;
#35 = CC_DESIGN_DATE_AND_TIME_ASSIGNMENT ( #919, #1002, ( #779 ) ) ;
#36 = DIRECTION ( 'NONE',  ( 1.000000000000000000, 0.000000000000000000, 0.000000000000000000 ) ) ;
#37 = DIRECTION ( 'NONE',  ( -1.000000000000000000, 0.000000000000000000, 0.000000000000000000 ) ) ;
#38 = DIRECTION ( 'NONE',  ( 0.8660254037844390407, 0.4999999999999993339, -0.000000000000000000 ) ) ;
#39 = ORIENTED_EDGE ( 'NONE', *, *, #1043, .T. ) ;
#40 = CARTESIAN_POINT ( 'NONE',  ( -20.92050807568877246, -3.519824998086741684E-15, 10.00000000000000000 ) ) ;
#41 = DIRECTION ( 'NONE',  ( 1.000000000000000000, 0.000000000000000000, 0.000000000000000000 ) ) ;
#42 = DIRECTION ( 'NONE',  ( 0.5000000000000003331, -0.8660254037844383745, -0.000000000000000000 ) ) ;
#43 = ORIENTED_EDGE ( 'NONE', *, *, #416, .F. ) ;
#44 = LINE ( 'NONE', #804, #795 ) ;
#45 = AXIS2_PLACEMENT_3D ( 'NONE', #960, #878, #625 ) ;
#46 = CIRCLE ( 'NONE', #428, 1.499999999999998890 ) ;
#47 = CC_DESIGN_APPROVAL ( #943, ( #484 ) ) ;
#48 = LINE ( 'NONE', #990, #902 ) ;
#49 = EDGE_CURVE ( 'NONE', #131, #559, #319, .T. ) ;
#50 = DIRECTION ( 'NONE',  ( 1.000000000000000000, 0.000000000000000000, -0.000000000000000000 ) ) ;
#51 = CARTESIAN_POINT ( 'NONE',  ( -13.85640646055101222, -6.000000000000007105, 10.00000000000000000 ) ) ;
#52 = ORIENTED_EDGE ( 'NONE', *, *, #894, .T. ) ;
#53 = CARTESIAN_POINT ( 'NONE',  ( 0.000000000000000000, 0.000000000000000000, 10.00000000000000000 ) ) ;
#54 = B_SPLINE_CURVE_WITH_KNOTS ( 'NONE', 3,
 ( #674, #1013, #233, #929, #345, #680, #403, #740, #1080, #656, #13, #268, #600, #683, #604, #770, #363, #98, #368, #260, #273, #945, #939, #953, #854, #172, #176, #526 ),
 .UNSPECIFIED., .F., .F.,
 ( 4, 2, 2, 2, 2, 2, 2, 2, 2, 2, 2, 2, 2, 4 ),
 ( 8.673617379884035472E-19, 0.0002965097443284830481, 0.0005930194886569652287, 0.001186038977313926121, 0.001779058465970886904, 0.002075568210299363718, 0.002372077954627840966, 0.002668587698956317346, 0.002965097443284794593, 0.003261607187613271407, 0.003558116931941748221, 0.003854626676270225469, 0.004151136420598702283, 0.004744155909255653308 ),
 .UNSPECIFIED. ) ;
#55 = LINE ( 'NONE', #310, #81 ) ;
#56 = ADVANCED_FACE ( 'NONE', ( #801 ), #709, .F. ) ;
#57 = DIRECTION ( 'NONE',  ( -0.5000000000000003331, 0.8660254037844383745, 0.000000000000000000 ) ) ;
#58 = PERSON_AND_ORGANIZATION ( #243, #654 ) ;
#59 = ORIENTED_EDGE ( 'NONE', *, *, #112, .T. ) ;
#60 = DIRECTION ( 'NONE',  ( -0.8660254037844390407, 0.4999999999999994449, -0.000000000000000000 ) ) ;
#61 = ORIENTED_EDGE ( 'NONE', *, *, #1054, .F. ) ;
#62 = FACE_BOUND ( 'NONE', #1052, .T. ) ;
#63 = EDGE_LOOP ( 'NONE', ( #1014, #459, #441, #969 ) ) ;
#64 = CARTESIAN_POINT ( 'NONE',  ( -21.10278000163621570, -20.45164490702520155, 5.000000000000000000 ) ) ;
#65 = EDGE_CURVE ( 'NONE', #748, #570, #937, .T. ) ;
#66 = AXIS2_PLACEMENT_3D ( 'NONE', #1039, #956, #361 ) ;
#67 = VECTOR ( 'NONE', #577, 1000.000000000000114 ) ;
#68 = PLANE ( 'NONE',  #223 ) ;
#69 = ORIENTED_EDGE ( 'NONE', *, *, #106, .F. ) ;
#70 = DIRECTION ( 'NONE',  ( 0.8660254037844391517, -0.4999999999999990563, 0.000000000000000000 ) ) ;
#71 = EDGE_CURVE ( 'NONE', #875, #14, #557, .T. ) ;
#72 = CARTESIAN_POINT ( 'NONE',  ( 0.000000000000000000, 0.000000000000000000, 8.000000000000000000 ) ) ;
#73 = FACE_BOUND ( 'NONE', #168, .T. ) ;
#74 = ORIENTED_EDGE ( 'NONE', *, *, #112, .F. ) ;
#75 = LINE ( 'NONE', #327, #67 ) ;
#76 = DIRECTION ( 'NONE',  ( 0.8660254037844390407, 0.4999999999999992784, 0.000000000000000000 ) ) ;
#77 = EDGE_CURVE ( 'NONE', #559, #131, #219, .T. ) ;
#78 = PERSON_AND_ORGANIZATION_ROLE ( 'creator' ) ;
#79 = ORIENTED_EDGE ( 'NONE', *, *, #593, .T. ) ;
#80 = FACE_OUTER_BOUND ( 'NONE', #1, .T. ) ;
#81 = VECTOR ( 'NONE', #417, 1000.000000000000000 ) ;
#82 = EDGE_CURVE ( 'NONE', #246, #222, #806, .T. ) ;
#83 = AXIS2_PLACEMENT_3D ( 'NONE', #1076, #212, #405 ) ;
#84 = AXIS2_PLACEMENT_3D ( 'NONE', #1005, #1086, #582 ) ;
#85 = ORIENTED_EDGE ( 'NONE', *, *, #1043, .F. ) ;
#86 = CARTESIAN_POINT ( 'NONE',  ( 20.86224197669884717, 0.6610350747886785117, 4.077010203062441107 ) ) ;
#87 = ORIENTED_EDGE ( 'NONE', *, *, #598, .F. ) ;
#88 = VERTEX_POINT ( 'NONE', #640 ) ;
#89 = CARTESIAN_POINT ( 'NONE',  ( 20.53437544040191653, 1.624963480668697224, 3.510067894005389988 ) ) ;
#90 = ORIENTED_EDGE ( 'NONE', *, *, #228, .F. ) ;
#91 = CARTESIAN_POINT ( 'NONE',  ( -19.40467461984244579, 2.935344922872014095, 5.000000000000000888 ) ) ;
#92 = CARTESIAN_POINT ( 'NONE',  ( 20.92050807568875825, -1.293850628283758549E-15, 8.000000000000000000 ) ) ;
#93 = ORIENTED_EDGE ( 'NONE', *, *, #192, .T. ) ;
#94 = FACE_BOUND ( 'NONE', #232, .T. ) ;
#95 = EDGE_CURVE ( 'NONE', #336, #648, #461, .T. ) ;
#96 = CARTESIAN_POINT ( 'NONE',  ( -20.78460969082653165, 5.999999999999986677, 0.000000000000000000 ) ) ;
#97 = VECTOR ( 'NONE', #650, 1000.000000000000000 ) ;
#98 = CARTESIAN_POINT ( 'NONE',  ( 20.71970758113925370, 1.189125895315669368, 6.345808906326748655 ) ) ;
#99 = EDGE_LOOP ( 'NONE', ( #33, #414, #768, #616 ) ) ;
#100 = DIRECTION ( 'NONE',  ( 1.000000000000000000, -1.001543065824772950E-15, 0.000000000000000000 ) ) ;
#101 = EDGE_CURVE ( 'NONE', #742, #397, #133, .T. ) ;
#102 = CARTESIAN_POINT ( 'NONE',  ( -20.78460969082652099, -6.000000000000014211, 0.000000000000000000 ) ) ;
#103 = CARTESIAN_POINT ( 'NONE',  ( 20.89590843516236518, 0.4221302347479858330, 4.512946772764236059 ) ) ;
#104 = ORIENTED_EDGE ( 'NONE', *, *, #672, .F. ) ;
#105 = DIRECTION ( 'NONE',  ( 0.000000000000000000, 0.000000000000000000, 1.000000000000000000 ) ) ;
#106 = EDGE_CURVE ( 'NONE', #469, #734, #725, .T. ) ;
#107 = DIRECTION ( 'NONE',  ( -0.5000000000000006661, 0.8660254037844382635, 0.000000000000000000 ) ) ;
#108 = DIRECTION ( 'NONE',  ( -0.000000000000000000, -0.000000000000000000, -1.000000000000000000 ) ) ;
#109 = ORIENTED_EDGE ( 'NONE', *, *, #515, .T. ) ;
#110 = DIRECTION ( 'NONE',  ( -0.000000000000000000, -0.000000000000000000, -1.000000000000000000 ) ) ;
#111 = CARTESIAN_POINT ( 'NONE',  ( 0.000000000000000000, 0.000000000000000000, 10.00000000000000000 ) ) ;
#112 = EDGE_CURVE ( 'NONE', #753, #336, #620, .T. ) ;
#113 = CARTESIAN_POINT ( 'NONE',  ( -20.81416832621236424, 0.8715070546383784089, 3.870731197006864743 ) ) ;
#114 = DIRECTION ( 'NONE',  ( -1.000000000000000000, 0.000000000000000000, 0.000000000000000000 ) ) ;
#115 = VECTOR ( 'NONE', #1109, 1000.000000000000000 ) ;
#116 = ORIENTED_EDGE ( 'NONE', *, *, #279, .F. ) ;
#117 = PLANE ( 'NONE',  #187 ) ;
#118 = CIRCLE ( 'NONE', #410, 1.500000000000000666 ) ;
#119 = CARTESIAN_POINT ( 'NONE',  ( -19.53842564112617808, 2.835928991337266947, 5.667100874853336023 ) ) ;
#120 = LINE ( 'NONE', #291, #1026 ) ;
#121 = ORIENTED_EDGE ( 'NONE', *, *, #350, .T. ) ;
#122 = DIRECTION ( 'NONE',  ( 1.000000000000000000, 0.000000000000000000, 0.000000000000000000 ) ) ;
#123 = DIRECTION ( 'NONE',  ( 1.001543065824772950E-15, -1.000000000000000000, 0.000000000000000000 ) ) ;
#124 = CARTESIAN_POINT ( 'NONE',  ( -19.82115432995383131, 2.590734631513832653, 6.128148623622617919 ) ) ;
#125 = DIRECTION ( 'NONE',  ( 0.000000000000000000, -0.000000000000000000, -1.000000000000000000 ) ) ;
#126 = ORIENTED_EDGE ( 'NONE', *, *, #335, .F. ) ;
#127 = CARTESIAN_POINT ( 'NONE',  ( -20.92050807568877246, -3.519824998086741684E-15, 0.000000000000000000 ) ) ;
#128 = EDGE_CURVE ( 'NONE', #466, #177, #339, .T. ) ;
#129 = CARTESIAN_POINT ( 'NONE',  ( -19.57805932955964323, 2.804783502044696508, 5.754245398045305215 ) ) ;
#130 = CARTESIAN_POINT ( 'NONE',  ( 8.660254037844380193, 15.00000000000000000, 8.000000000000000000 ) ) ;
#131 = VERTEX_POINT ( 'NONE', #1077 ) ;
#132 = DIRECTION ( 'NONE',  ( -0.4999999999999990563, 0.8660254037844391517, 0.000000000000000000 ) ) ;
#133 = CIRCLE ( 'NONE', #705, 11.12500000000000178 ) ;
#134 = AXIS2_PLACEMENT_3D ( 'NONE', #730, #811, #736 ) ;
#135 = CC_DESIGN_PERSON_AND_ORGANIZATION_ASSIGNMENT ( #317, #78, ( #779 ) ) ;
#136 = CIRCLE ( 'NONE', #765, 1.499999999999998890 ) ;
#137 = DIRECTION ( 'NONE',  ( 0.8660254037844390407, 0.4999999999999993339, -0.000000000000000000 ) ) ;
#138 = CARTESIAN_POINT ( 'NONE',  ( 8.660254037844383745, -14.99999999999999822, 10.00000000000000000 ) ) ;
#139 = DATE_AND_TIME ( #667, #572 ) ;
#140 = ORIENTED_EDGE ( 'NONE', *, *, #235, .F. ) ;
#141 = CARTESIAN_POINT ( 'NONE',  ( -24.24871130596427804, -1.482509621968736587E-14, 8.000000000000000000 ) ) ;
#142 = ORIENTED_EDGE ( 'NONE', *, *, #65, .T. ) ;
#143 = FACE_OUTER_BOUND ( 'NONE', #1074, .T. ) ;
#144 = LINE ( 'NONE', #1089, #1064 ) ;
#145 = MECHANICAL_CONTEXT ( 'NONE', #940, 'mechanical' ) ;
#146 = ADVANCED_FACE ( 'NONE', ( #62, #506 ), #68, .F. ) ;
#147 = ORIENTED_EDGE ( 'NONE', *, *, #416, .T. ) ;
#148 = FACE_OUTER_BOUND ( 'NONE', #99, .T. ) ;
#149 = EDGE_LOOP ( 'NONE', ( #419, #950, #554, #948 ) ) ;
#150 = DIRECTION ( 'NONE',  ( -0.5000000000000005551, 0.8660254037844383745, 0.000000000000000000 ) ) ;
#151 = LINE ( 'NONE', #732, #262 ) ;
#152 = CALENDAR_DATE ( 2026, 31, 3 ) ;
#153 = EDGE_CURVE ( 'NONE', #397, #855, #1001, .T. ) ;
#154 = ORIENTED_EDGE ( 'NONE', *, *, #128, .T. ) ;
#155 = CARTESIAN_POINT ( 'NONE',  ( 17.32050807568876039, -1.734723475976805517E-15, 0.000000000000000000 ) ) ;
#156 = DATE_AND_TIME ( #993, #7 ) ;
#157 = ORIENTED_EDGE ( 'NONE', *, *, #790, .T. ) ;
#158 = CARTESIAN_POINT ( 'NONE',  ( 11.12500000000000178, 1.362419564051430495E-15, 0.000000000000000000 ) ) ;
#159 = CARTESIAN_POINT ( 'NONE',  ( 9.000000000000000000, 1.102182119232617714E-15, 10.00000000000000000 ) ) ;
#160 = PERSON_AND_ORGANIZATION_ROLE ( 'classification_officer' ) ;
#161 = EDGE_LOOP ( 'NONE', ( #863, #147, #358, #685 ) ) ;
#162 = DIRECTION ( 'NONE',  ( 0.000000000000000000, 0.000000000000000000, 1.000000000000000000 ) ) ;
#163 = ORIENTED_EDGE ( 'NONE', *, *, #49, .T. ) ;
#164 = CC_DESIGN_PERSON_AND_ORGANIZATION_ASSIGNMENT ( #1101, #160, ( #484 ) ) ;
#165 = CARTESIAN_POINT ( 'NONE',  ( 0.000000000000000000, 0.000000000000000000, 8.000000000000000000 ) ) ;
#166 = ORIENTED_EDGE ( 'NONE', *, *, #607, .T. ) ;
#167 = CARTESIAN_POINT ( 'NONE',  ( 8.660254037844380193, 15.00000000000000000, 8.000000000000000000 ) ) ;
#168 = EDGE_LOOP ( 'NONE', ( #318, #183 ) ) ;
#169 = AXIS2_PLACEMENT_3D ( 'NONE', #1000, #137, #150 ) ;
#170 = APPROVAL_PERSON_ORGANIZATION ( #579, #731, #493 ) ;
#171 = ORIENTED_EDGE ( 'NONE', *, *, #209, .T. ) ;
#172 = CARTESIAN_POINT ( 'NONE',  ( 20.90111675210987841, 0.3819002360170772326, 5.397099195254435600 ) ) ;
#173 = EDGE_LOOP ( 'NONE', ( #302, #932 ) ) ;
#174 = EDGE_CURVE ( 'NONE', #380, #186, #316, .T. ) ;
#175 = DIRECTION ( 'NONE',  ( -0.000000000000000000, -0.000000000000000000, -1.000000000000000000 ) ) ;
#176 = CARTESIAN_POINT ( 'NONE',  ( 20.90467461984243869, 0.3372687115186904783, 5.197598351742263034 ) ) ;
#177 = VERTEX_POINT ( 'NONE', #926 ) ;
#178 = DIRECTION ( 'NONE',  ( -0.000000000000000000, -0.000000000000000000, -1.000000000000000000 ) ) ;
#179 = CARTESIAN_POINT ( 'NONE',  ( 0.000000000000000000, 0.000000000000000000, 10.00000000000000000 ) ) ;
#180 = ORIENTED_EDGE ( 'NONE', *, *, #77, .T. ) ;
#181 = CARTESIAN_POINT ( 'NONE',  ( 19.40467461984245645, 2.935344922872017648, 5.000000000000000888 ) ) ;
#182 = ADVANCED_FACE ( 'NONE', ( #568 ), #651, .F. ) ;
#183 = ORIENTED_EDGE ( 'NONE', *, *, #908, .F. ) ;
#184 = DIRECTION ( 'NONE',  ( -0.5000000000000005551, -0.8660254037844383745, 0.000000000000000000 ) ) ;
#185 = VECTOR ( 'NONE', #175, 1000.000000000000000 ) ;
#186 = VERTEX_POINT ( 'NONE', #984 ) ;
#187 = AXIS2_PLACEMENT_3D ( 'NONE', #467, #386, #1063 ) ;
#188 = LINE ( 'NONE', #861, #535 ) ;
#189 = CIRCLE ( 'NONE', #849, 9.000000000000000000 ) ;
#190 = ORIENTED_EDGE ( 'NONE', *, *, #723, .F. ) ;
#191 = DIRECTION ( 'NONE',  ( 1.000000000000000000, 1.001543065824772950E-15, -0.000000000000000000 ) ) ;
#192 = EDGE_CURVE ( 'NONE', #590, #210, #220, .T. ) ;
#193 = CARTESIAN_POINT ( 'NONE',  ( -13.72050807568877318, -3.078952150393694519E-15, 8.000000000000000000 ) ) ;
#194 = FACE_OUTER_BOUND ( 'NONE', #776, .T. ) ;
#195 = ORIENTED_EDGE ( 'NONE', *, *, #101, .T. ) ;
#196 = PLANE ( 'NONE',  #619 ) ;
#197 = EDGE_CURVE ( 'NONE', #631, #588, #230, .T. ) ;
#198 = CARTESIAN_POINT ( 'NONE',  ( 0.000000000000000000, 0.000000000000000000, 8.000000000000000000 ) ) ;
#199 = ORIENTED_EDGE ( 'NONE', *, *, #396, .F. ) ;
#200 = CYLINDRICAL_SURFACE ( 'NONE', #534, 9.000000000000000000 ) ;
#201 = CARTESIAN_POINT ( 'NONE',  ( -20.78460969082652099, -6.000000000000014211, 8.000000000000000000 ) ) ;
#202 =( NAMED_UNIT ( * ) SI_UNIT ( $, .STERADIAN. ) SOLID_ANGLE_UNIT ( ) );
#203 = VECTOR ( 'NONE', #646, 1000.000000000000114 ) ;
#204 = ORIENTED_EDGE ( 'NONE', *, *, #957, .T. ) ;
#205 = CYLINDRICAL_SURFACE ( 'NONE', #689, 11.12500000000000178 ) ;
#206 = VECTOR ( 'NONE', #42, 1000.000000000000114 ) ;
#207 = CARTESIAN_POINT ( 'NONE',  ( -19.44154772000140596, 2.909947956783113909, 5.397099195254433823 ) ) ;
#208 = DIRECTION ( 'NONE',  ( 0.8660254037844390407, 0.4999999999999993339, -0.000000000000000000 ) ) ;
#209 = EDGE_CURVE ( 'NONE', #875, #590, #522, .T. ) ;
#210 = VERTEX_POINT ( 'NONE', #329 ) ;
#211 = DIRECTION ( 'NONE',  ( -0.000000000000000000, -0.000000000000000000, -1.000000000000000000 ) ) ;
#212 = DIRECTION ( 'NONE',  ( -0.8660254037844391517, -0.4999999999999990563, 0.000000000000000000 ) ) ;
#213 = UNCERTAINTY_MEASURE_WITH_UNIT (LENGTH_MEASURE( 1.000000000000000082E-05 ), #710, 'distance_accuracy_value', 'NONE');
#214 = CARTESIAN_POINT ( 'NONE',  ( -20.16710590385439161, 2.205778428910748712, 6.422211075674558955 ) ) ;
#215 = DIRECTION ( 'NONE',  ( -0.8660254037844389297, 0.4999999999999993894, -0.000000000000000000 ) ) ;
#216 = EDGE_LOOP ( 'NONE', ( #104, #43 ) ) ;
#217 = FACE_BOUND ( 'NONE', #839, .T. ) ;
#218 = APPROVAL ( #738, 'UNSPECIFIED' ) ;
#219 = B_SPLINE_CURVE_WITH_KNOTS ( 'NONE', 3,
 ( #630, #979, #1055, #797, #457, #885, #388, #367, #18, #634, #378, #700, #964, #463, #547, #975, #214, #294, #31, #542, #124, #472, #714, #129, #119, #207, #562, #791 ),
 .UNSPECIFIED., .F., .F.,
 ( 4, 2, 2, 2, 2, 2, 2, 2, 2, 2, 2, 2, 2, 4 ),
 ( 8.741117365843378158E-19, 0.0002965097443284783860, 0.0005930194886569559046, 0.001186038977313912677, 0.001779058465970869557, 0.002075568210299347672, 0.002372077954627825787, 0.002668587698956303034, 0.002965097443284780716, 0.003261607187613258397, 0.003558116931941735644, 0.003854626676270213326, 0.004151136420598691007, 0.004744155909255646369 ),
 .UNSPECIFIED. ) ;
#220 = LINE ( 'NONE', #836, #954 ) ;
#221 = SHAPE_DEFINITION_REPRESENTATION ( #827, #349 ) ;
#222 = VERTEX_POINT ( 'NONE', #138 ) ;
#223 = AXIS2_PLACEMENT_3D ( 'NONE', #478, #997, #497 ) ;
#224 = LINE ( 'NONE', #470, #778 ) ;
#225 = CIRCLE ( 'NONE', #847, 3.599999999999999201 ) ;
#226 = VECTOR ( 'NONE', #285, 1000.000000000000000 ) ;
#227 = APPROVAL_PERSON_ORGANIZATION ( #498, #218, #652 ) ;
#228 = EDGE_CURVE ( 'NONE', #742, #454, #151, .T. ) ;
#229 = DIRECTION ( 'NONE',  ( -0.4999999999999990563, -0.8660254037844391517, 0.000000000000000000 ) ) ;
#230 = LINE ( 'NONE', #756, #480 ) ;
#231 = COORDINATED_UNIVERSAL_TIME_OFFSET ( 7, 0, .BEHIND. ) ;
#232 = EDGE_LOOP ( 'NONE', ( #180, #163 ) ) ;
#233 = CARTESIAN_POINT ( 'NONE',  ( 19.41365967572275864, 2.929021750087418496, 5.198788231445369057 ) ) ;
#234 = CARTESIAN_POINT ( 'NONE',  ( 20.78460969082652099, -6.000000000000014211, 8.000000000000000000 ) ) ;
#235 = EDGE_CURVE ( 'NONE', #837, #277, #1093, .T. ) ;
#236 = DIRECTION ( 'NONE',  ( -0.000000000000000000, -0.000000000000000000, -1.000000000000000000 ) ) ;
#237 = APPLICATION_PROTOCOL_DEFINITION ( 'international standard', 'config_control_design', 1994, #940 ) ;
#238 = ORIENTED_EDGE ( 'NONE', *, *, #289, .F. ) ;
#239 = DIRECTION ( 'NONE',  ( -0.4999999999999985012, 0.8660254037844394848, 0.000000000000000000 ) ) ;
#240 = DIRECTION ( 'NONE',  ( 1.000000000000000000, 0.000000000000000000, 0.000000000000000000 ) ) ;
#241 = CARTESIAN_POINT ( 'NONE',  ( -20.78460969082652099, -6.000000000000014211, 10.00000000000000000 ) ) ;
#242 = SECURITY_CLASSIFICATION_LEVEL ( 'unclassified' ) ;
#243 = PERSON ( 'UNSPECIFIED', 'UNSPECIFIED', 'UNSPECIFIED', ('UNSPECIFIED'), ('UNSPECIFIED'), ('UNSPECIFIED') ) ;
#244 = EDGE_LOOP ( 'NONE', ( #79, #87, #858, #728 ) ) ;
#245 = DIRECTION ( 'NONE',  ( -0.5000000000000002220, -0.8660254037844384856, 0.000000000000000000 ) ) ;
#246 = VERTEX_POINT ( 'NONE', #818 ) ;
#247 = VECTOR ( 'NONE', #603, 1000.000000000000114 ) ;
#248 = CIRCLE ( 'NONE', #746, 11.12500000000000178 ) ;
#249 = CYLINDRICAL_SURFACE ( 'NONE', #706, 3.599999999999997424 ) ;
#250 = VECTOR ( 'NONE', #114, 1000.000000000000000 ) ;
#251 = LINE ( 'NONE', #394, #443 ) ;
#252 = COORDINATED_UNIVERSAL_TIME_OFFSET ( 7, 0, .BEHIND. ) ;
#253 = EDGE_LOOP ( 'NONE', ( #782, #981, #69, #762 ) ) ;
#254 = PLANE ( 'NONE',  #429 ) ;
#255 = ADVANCED_FACE ( 'NONE', ( #400, #813, #73, #992 ), #412, .T. ) ;
#256 = CARTESIAN_POINT ( 'NONE',  ( -19.47378376242282272, 2.885322422630155703, 4.512946772764235170 ) ) ;
#257 = CARTESIAN_POINT ( 'NONE',  ( -13.85640646055101222, -6.000000000000007105, 8.000000000000000000 ) ) ;
#258 = EDGE_CURVE ( 'NONE', #688, #875, #251, .T. ) ;
#259 = VERTEX_POINT ( 'NONE', #909 ) ;
#260 = CARTESIAN_POINT ( 'NONE',  ( 20.79475151970772373, 0.9468492663324604708, 6.190940766236280979 ) ) ;
#261 = ORIENTED_EDGE ( 'NONE', *, *, #593, .F. ) ;
#262 = VECTOR ( 'NONE', #914, 1000.000000000000000 ) ;
#263 = EDGE_CURVE ( 'NONE', #868, #491, #144, .T. ) ;
#264 = AXIS2_PLACEMENT_3D ( 'NONE', #496, #996, #411 ) ;
#265 = LINE ( 'NONE', #845, #115 ) ;
#266 = AXIS2_PLACEMENT_3D ( 'NONE', #155, #162, #844 ) ;
#267 = ORIENTED_EDGE ( 'NONE', *, *, #681, .T. ) ;
#268 = CARTESIAN_POINT ( 'NONE',  ( 20.33552836334460423, 1.969556220717103345, 6.490148316684615892 ) ) ;
#269 = ORIENTED_EDGE ( 'NONE', *, *, #900, .T. ) ;
#270 = DIRECTION ( 'NONE',  ( -0.000000000000000000, -0.000000000000000000, -1.000000000000000000 ) ) ;
#271 = EDGE_CURVE ( 'NONE', #938, #816, #406, .T. ) ;
#272 = ORIENTED_EDGE ( 'NONE', *, *, #702, .T. ) ;
#273 = CARTESIAN_POINT ( 'NONE',  ( 20.81447320817639124, 0.8702558663150189444, 6.128148623622617031 ) ) ;
#274 = ORIENTED_EDGE ( 'NONE', *, *, #931, .T. ) ;
#275 = LINE ( 'NONE', #899, #1009 ) ;
#276 = FACE_OUTER_BOUND ( 'NONE', #853, .T. ) ;
#277 = VERTEX_POINT ( 'NONE', #666 ) ;
#278 = CARTESIAN_POINT ( 'NONE',  ( 20.78460969082652099, -6.000000000000014211, 10.00000000000000000 ) ) ;
#279 = EDGE_CURVE ( 'NONE', #570, #748, #427, .T. ) ;
#280 = ORIENTED_EDGE ( 'NONE', *, *, #957, .F. ) ;
#281 = DIRECTION ( 'NONE',  ( -1.000000000000000000, 0.000000000000000000, 0.000000000000000000 ) ) ;
#282 = VECTOR ( 'NONE', #594, 1000.000000000000114 ) ;
#283 = DIRECTION ( 'NONE',  ( 0.000000000000000000, 0.000000000000000000, 1.000000000000000000 ) ) ;
#284 = AXIS2_PLACEMENT_3D ( 'NONE', #234, #315, #583 ) ;
#285 = DIRECTION ( 'NONE',  ( -1.000000000000000000, 0.000000000000000000, 0.000000000000000000 ) ) ;
#286 = AXIS2_PLACEMENT_3D ( 'NONE', #807, #38, #473 ) ;
#287 = ORIENTED_EDGE ( 'NONE', *, *, #197, .T. ) ;
#288 = CARTESIAN_POINT ( 'NONE',  ( -13.85640646055102287, 5.999999999999993783, 10.00000000000000000 ) ) ;
#289 = EDGE_CURVE ( 'NONE', #277, #637, #1017, .T. ) ;
#290 = CARTESIAN_POINT ( 'NONE',  ( -20.86225766521166491, 0.6608750370576198518, 4.077282717420265712 ) ) ;
#291 = CARTESIAN_POINT ( 'NONE',  ( -8.660254037844383745, 15.00000000000000000, 8.000000000000000000 ) ) ;
#292 = ORIENTED_EDGE ( 'NONE', *, *, #228, .T. ) ;
#293 = DIRECTION ( 'NONE',  ( 0.000000000000000000, 0.000000000000000000, 1.000000000000000000 ) ) ;
#294 = CARTESIAN_POINT ( 'NONE',  ( -20.04992106205531499, 2.349230176593784858, 6.345808906326749543 ) ) ;
#295 = ORIENTED_EDGE ( 'NONE', *, *, #82, .T. ) ;
#296 = FACE_OUTER_BOUND ( 'NONE', #1103, .T. ) ;
#297 = FACE_OUTER_BOUND ( 'NONE', #63, .T. ) ;
#298 = EDGE_CURVE ( 'NONE', #588, #682, #516, .T. ) ;
#299 = CARTESIAN_POINT ( 'NONE',  ( -20.90467461984246711, 0.3372687115187054663, 5.000000000000000000 ) ) ;
#300 = CARTESIAN_POINT ( 'NONE',  ( -20.92050807568877246, -3.519824998086741684E-15, 8.000000000000000000 ) ) ;
#301 = VECTOR ( 'NONE', #829, 1000.000000000000000 ) ;
#302 = ORIENTED_EDGE ( 'NONE', *, *, #824, .F. ) ;
#303 = DIRECTION ( 'NONE',  ( -0.000000000000000000, -0.000000000000000000, -1.000000000000000000 ) ) ;
#304 = CC_DESIGN_APPROVAL ( #218, ( #708 ) ) ;
#305 = PRODUCT_RELATED_PRODUCT_CATEGORY ( 'detail', '', ( #423 ) ) ;
#306 = CARTESIAN_POINT ( 'NONE',  ( -8.660254037844381969, -15.00000000000000000, 10.00000000000000000 ) ) ;
#307 = LINE ( 'NONE', #51, #635 ) ;
#308 = ORIENTED_EDGE ( 'NONE', *, *, #810, .T. ) ;
#309 = DIRECTION ( 'NONE',  ( -1.000000000000000000, -1.001543065824772950E-15, 0.000000000000000000 ) ) ;
#310 = CARTESIAN_POINT ( 'NONE',  ( -8.660254037844381969, -15.00000000000000000, 8.000000000000000000 ) ) ;
#311 = PLANE ( 'NONE',  #941 ) ;
#312 = EDGE_LOOP ( 'NONE', ( #482, #59, #673, #61 ) ) ;
#313 = CARTESIAN_POINT ( 'NONE',  ( -24.24871130596427804, -1.482509621968736587E-14, 10.00000000000000000 ) ) ;
#314 = EDGE_CURVE ( 'NONE', #222, #491, #265, .T. ) ;
#315 = DIRECTION ( 'NONE',  ( -0.8660254037844384856, 0.5000000000000004441, 0.000000000000000000 ) ) ;
#316 = LINE ( 'NONE', #823, #203 ) ;
#317 = PERSON_AND_ORGANIZATION ( #243, #654 ) ;
#318 = ORIENTED_EDGE ( 'NONE', *, *, #350, .F. ) ;
#319 = B_SPLINE_CURVE_WITH_KNOTS ( 'NONE', 3,
 ( #91, #696, #362, #780, #256, #439, #773, #4, #12, #692, #529, #1030, #613, #1036, #595, #1105, #346, #890, #1050, #896, #113, #290, #968, #1060, #372, #299 ),
 .UNSPECIFIED., .F., .F.,
 ( 4, 2, 2, 2, 2, 2, 2, 2, 2, 2, 2, 2, 4 ),
 ( 0.004744155909255646369, 0.005040429008368317240, 0.005336702107480988111, 0.005929248305706326383, 0.006225521404818995519, 0.006521794503931665522, 0.006818067603044335526, 0.007114340702157004662, 0.007706886900382349005, 0.008003159999495019009, 0.008299433098607689879, 0.008891979296833031621, 0.009484525495058373362 ),
 .UNSPECIFIED. ) ;
#320 = LINE ( 'NONE', #933, #553 ) ;
#321 = ADVANCED_FACE ( 'NONE', ( #276 ), #351, .F. ) ;
#322 = CIRCLE ( 'NONE', #832, 11.12500000000000178 ) ;
#323 = DIRECTION ( 'NONE',  ( 0.000000000000000000, 0.000000000000000000, 1.000000000000000000 ) ) ;
#324 = DIRECTION ( 'NONE',  ( 1.000000000000000000, 1.001543065824772950E-15, 0.000000000000000000 ) ) ;
#325 = CARTESIAN_POINT ( 'NONE',  ( 0.000000000000000000, 0.000000000000000000, 0.000000000000000000 ) ) ;
#326 = ORIENTED_EDGE ( 'NONE', *, *, #106, .T. ) ;
#327 = CARTESIAN_POINT ( 'NONE',  ( 21.10278000163621925, -20.45164490702520865, 5.000000000000000888 ) ) ;
#328 = CARTESIAN_POINT ( 'NONE',  ( 20.78460969082653165, 5.999999999999986677, 8.000000000000000000 ) ) ;
#329 = CARTESIAN_POINT ( 'NONE',  ( -13.85640646055101222, -6.000000000000007105, 0.000000000000000000 ) ) ;
#330 = CALENDAR_DATE ( 2026, 31, 3 ) ;
#331 = EDGE_LOOP ( 'NONE', ( #846, #793, #581, #952 ) ) ;
#332 = DIRECTION ( 'NONE',  ( -0.8660254037844382635, -0.5000000000000006661, 0.000000000000000000 ) ) ;
#333 = CARTESIAN_POINT ( 'NONE',  ( 22.51666049839539951, 2.999999999999993339, 5.000000000000000000 ) ) ;
#334 = DIRECTION ( 'NONE',  ( 0.000000000000000000, 0.000000000000000000, 1.000000000000000000 ) ) ;
#335 = EDGE_CURVE ( 'NONE', #753, #698, #551, .T. ) ;
#336 = VERTEX_POINT ( 'NONE', #877 ) ;
#337 = DIRECTION ( 'NONE',  ( -0.5000000000000003331, 0.8660254037844384856, 0.000000000000000000 ) ) ;
#338 = EDGE_LOOP ( 'NONE', ( #238, #140, #438, #448, #655, #499, #856, #930, #610, #85, #404, #808, #261, #703 ) ) ;
#339 = CIRCLE ( 'NONE', #1044, 1.500000000000000666 ) ;
#340 = CIRCLE ( 'NONE', #371, 3.599999999999999201 ) ;
#341 = CARTESIAN_POINT ( 'NONE',  ( -17.32050807568877460, -3.519824998086741684E-15, 8.000000000000000000 ) ) ;
#342 = VECTOR ( 'NONE', #897, 1000.000000000000000 ) ;
#343 = DATE_AND_TIME ( #330, #1066 ) ;
#344 = ORIENTED_EDGE ( 'NONE', *, *, #502, .F. ) ;
#345 = CARTESIAN_POINT ( 'NONE',  ( 19.47402203881019389, 2.885143935645345881, 5.487811192141040628 ) ) ;
#346 = CARTESIAN_POINT ( 'NONE',  ( -20.62169284651118062, 1.447670281590987873, 3.540241871383509764 ) ) ;
#347 = DIRECTION ( 'NONE',  ( -0.000000000000000000, -0.000000000000000000, -1.000000000000000000 ) ) ;
#348 = ORIENTED_EDGE ( 'NONE', *, *, #422, .T. ) ;
#349 = ADVANCED_BREP_SHAPE_REPRESENTATION ( 'Lower Arm Connector V.3', ( #22, #357 ), #796 ) ;
#350 = EDGE_CURVE ( 'NONE', #911, #1012, #958, .T. ) ;
#351 = CYLINDRICAL_SURFACE ( 'NONE', #1047, 9.000000000000000000 ) ;
#352 = VERTEX_POINT ( 'NONE', #541 ) ;
#353 = CARTESIAN_POINT ( 'NONE',  ( 19.66371744126909960, 2.736807599841122762, 4.077282717420271041 ) ) ;
#354 = ORIENTED_EDGE ( 'NONE', *, *, #772, .F. ) ;
#355 = ADVANCED_FACE ( 'NONE', ( #556 ), #377, .F. ) ;
#356 = AXIS2_PLACEMENT_3D ( 'NONE', #328, #664, #100 ) ;
#357 = AXIS2_PLACEMENT_3D ( 'NONE', #325, #334, #1008 ) ;
#358 = ORIENTED_EDGE ( 'NONE', *, *, #1102, .T. ) ;
#359 = CARTESIAN_POINT ( 'NONE',  ( 19.87747186196971327, 2.535516788293593837, 3.809213082914560733 ) ) ;
#360 = ORIENTED_EDGE ( 'NONE', *, *, #174, .T. ) ;
#361 = DIRECTION ( 'NONE',  ( -1.000000000000000000, 0.000000000000000000, 0.000000000000000000 ) ) ;
#362 = CARTESIAN_POINT ( 'NONE',  ( -19.41364260224517224, 2.929035178713794263, 4.801085027754520063 ) ) ;
#363 = CARTESIAN_POINT ( 'NONE',  ( 20.65406714432801394, 1.362336819093648677, 6.422211075674558067 ) ) ;
#364 = ORIENTED_EDGE ( 'NONE', *, *, #1021, .F. ) ;
#365 = CARTESIAN_POINT ( 'NONE',  ( -21.76666049839541373, 4.299038105676658894, 5.000000000000000888 ) ) ;
#366 = ADVANCED_FACE ( 'NONE', ( #297 ), #1088, .F. ) ;
#367 = CARTESIAN_POINT ( 'NONE',  ( -20.79828609955055541, 0.9410244272319054915, 6.197379918499920315 ) ) ;
#368 = CARTESIAN_POINT ( 'NONE',  ( 20.74741532603002980, 1.105982702858191669, 6.299408234313476740 ) ) ;
#369 = EDGE_LOOP ( 'NONE', ( #716, #592 ) ) ;
#370 = DIRECTION ( 'NONE',  ( 0.000000000000000000, 0.000000000000000000, 1.000000000000000000 ) ) ;
#371 = AXIS2_PLACEMENT_3D ( 'NONE', #589, #370, #704 ) ;
#372 = CARTESIAN_POINT ( 'NONE',  ( -20.90467461984245290, 0.3372687115187025242, 4.799433636466811315 ) ) ;
#373 = LOCAL_TIME ( 22, 32, 52.00000000000000000, #671 ) ;
#374 = DIRECTION ( 'NONE',  ( -0.000000000000000000, -0.000000000000000000, -1.000000000000000000 ) ) ;
#375 = ORIENTED_EDGE ( 'NONE', *, *, #450, .T. ) ;
#376 = DIRECTION ( 'NONE',  ( -1.000000000000000000, 0.000000000000000000, 0.000000000000000000 ) ) ;
#377 = PLANE ( 'NONE',  #481 ) ;
#378 = CARTESIAN_POINT ( 'NONE',  ( -20.61699083924707665, 1.450069112526999549, 6.451138424858481102 ) ) ;
#379 = LINE ( 'NONE', #300, #29 ) ;
#380 = VERTEX_POINT ( 'NONE', #743 ) ;
#381 = FACE_OUTER_BOUND ( 'NONE', #392, .T. ) ;
#382 = ADVANCED_FACE ( 'NONE', ( #505, #399 ), #639, .F. ) ;
#383 = CARTESIAN_POINT ( 'NONE',  ( 0.000000000000000000, 0.000000000000000000, 8.000000000000000000 ) ) ;
#384 = DIRECTION ( 'NONE',  ( -0.4999999999999990563, -0.8660254037844391517, -0.000000000000000000 ) ) ;
#385 = EDGE_LOOP ( 'NONE', ( #109, #1097, #850, #994 ) ) ;
#386 = DIRECTION ( 'NONE',  ( 1.001543065824772950E-15, 1.000000000000000000, -0.000000000000000000 ) ) ;
#387 = ADVANCED_FACE ( 'NONE', ( #835, #901 ), #567, .F. ) ;
#388 = CARTESIAN_POINT ( 'NONE',  ( -20.86199297376670359, 0.6620813187132325028, 5.923959608417320055 ) ) ;
#389 = FACE_OUTER_BOUND ( 'NONE', #244, .T. ) ;
#390 = VECTOR ( 'NONE', #1083, 1000.000000000000114 ) ;
#391 = AXIS2_PLACEMENT_3D ( 'NONE', #111, #30, #36 ) ;
#392 = EDGE_LOOP ( 'NONE', ( #986, #344, #549, #1038 ) ) ;
#393 = DIRECTION ( 'NONE',  ( 0.000000000000000000, 0.000000000000000000, 1.000000000000000000 ) ) ;
#394 = CARTESIAN_POINT ( 'NONE',  ( -24.24871130596427804, -1.482509621968736587E-14, 10.00000000000000000 ) ) ;
#395 = CARTESIAN_POINT ( 'NONE',  ( 8.660254037844380193, 15.00000000000000000, 10.00000000000000000 ) ) ;
#396 = EDGE_CURVE ( 'NONE', #397, #742, #248, .T. ) ;
#397 = VERTEX_POINT ( 'NONE', #751 ) ;
#398 = CARTESIAN_POINT ( 'NONE',  ( -13.85640646055101222, -6.000000000000007105, 8.000000000000000000 ) ) ;
#399 = FACE_BOUND ( 'NONE', #407, .T. ) ;
#400 = FACE_BOUND ( 'NONE', #489, .T. ) ;
#401 = EDGE_CURVE ( 'NONE', #246, #868, #55, .T. ) ;
#402 = ORIENTED_EDGE ( 'NONE', *, *, #401, .T. ) ;
#403 = CARTESIAN_POINT ( 'NONE',  ( 19.66462976610448976, 2.735975229497808581, 5.923959608417320055 ) ) ;
#404 = ORIENTED_EDGE ( 'NONE', *, *, #1016, .F. ) ;
#405 = DIRECTION ( 'NONE',  ( 0.4999999999999990563, -0.8660254037844391517, 0.000000000000000000 ) ) ;
#406 = LINE ( 'NONE', #744, #390 ) ;
#407 = EDGE_LOOP ( 'NONE', ( #52, #274 ) ) ;
#408 = CARTESIAN_POINT ( 'NONE',  ( -20.78460969082652099, -6.000000000000014211, 10.00000000000000000 ) ) ;
#409 = VECTOR ( 'NONE', #434, 1000.000000000000000 ) ;
#410 = AXIS2_PLACEMENT_3D ( 'NONE', #464, #647, #891 ) ;
#411 = DIRECTION ( 'NONE',  ( -1.000000000000000000, 0.000000000000000000, 0.000000000000000000 ) ) ;
#412 = PLANE ( 'NONE',  #971 ) ;
#413 = COORDINATED_UNIVERSAL_TIME_OFFSET ( 7, 0, .BEHIND. ) ;
#414 = ORIENTED_EDGE ( 'NONE', *, *, #741, .F. ) ;
#415 = DIRECTION ( 'NONE',  ( 0.4999999999999990563, 0.8660254037844391517, 0.000000000000000000 ) ) ;
#416 = EDGE_CURVE ( 'NONE', #934, #922, #1024, .T. ) ;
#417 = DIRECTION ( 'NONE',  ( -0.000000000000000000, -0.000000000000000000, -1.000000000000000000 ) ) ;
#418 = CARTESIAN_POINT ( 'NONE',  ( 0.000000000000000000, 0.000000000000000000, 10.00000000000000000 ) ) ;
#419 = ORIENTED_EDGE ( 'NONE', *, *, #1035, .F. ) ;
#420 = CARTESIAN_POINT ( 'NONE',  ( 8.660254037844383745, -14.99999999999999822, 8.000000000000000000 ) ) ;
#421 = DIRECTION ( 'NONE',  ( -0.4999999999999985012, 0.8660254037844394848, 0.000000000000000000 ) ) ;
#422 = EDGE_CURVE ( 'NONE', #855, #454, #503, .T. ) ;
#423 = PRODUCT ( 'Lower Arm Connector V.3', 'Lower Arm Connector V.3', '', ( #145 ) ) ;
#424 = CALENDAR_DATE ( 2026, 31, 3 ) ;
#425 = ORIENTED_EDGE ( 'NONE', *, *, #128, .F. ) ;
#426 = CYLINDRICAL_SURFACE ( 'NONE', #1048, 1.499999999999999778 ) ;
#427 = CIRCLE ( 'NONE', #618, 9.000000000000000000 ) ;
#428 = AXIS2_PLACEMENT_3D ( 'NONE', #333, #76, #421 ) ;
#429 = AXIS2_PLACEMENT_3D ( 'NONE', #257, #749, #337 ) ;
#430 = ADVANCED_FACE ( 'NONE', ( #645 ), #895, .F. ) ;
#431 = EDGE_LOOP ( 'NONE', ( #643, #1027, #154, #965 ) ) ;
#432 = CARTESIAN_POINT ( 'NONE',  ( 20.71912099144071817, 1.190731052701243353, 3.653427210929753866 ) ) ;
#433 = EDGE_LOOP ( 'NONE', ( #204, #348 ) ) ;
#434 = DIRECTION ( 'NONE',  ( -1.000000000000000000, -1.001543065824772950E-15, 0.000000000000000000 ) ) ;
#435 = ORIENTED_EDGE ( 'NONE', *, *, #1092, .T. ) ;
#436 = CARTESIAN_POINT ( 'NONE',  ( 20.05098892689104417, 2.347949500105472431, 3.653454493556850036 ) ) ;
#437 = EDGE_CURVE ( 'NONE', #186, #837, #1071, .T. ) ;
#438 = ORIENTED_EDGE ( 'NONE', *, *, #437, .F. ) ;
#439 = CARTESIAN_POINT ( 'NONE',  ( -19.57153422814907984, 2.810624116346614354, 4.240848126360676318 ) ) ;
#440 = CARTESIAN_POINT ( 'NONE',  ( 20.74739604644656765, 1.106027636718391660, 3.700581645424447785 ) ) ;
#441 = ORIENTED_EDGE ( 'NONE', *, *, #511, .T. ) ;
#442 = LINE ( 'NONE', #159, #569 ) ;
#443 = VECTOR ( 'NONE', #574, 1000.000000000000114 ) ;
#444 = CIRCLE ( 'NONE', #675, 3.599999999999999201 ) ;
#445 = LOCAL_TIME ( 22, 32, 52.00000000000000000, #915 ) ;
#446 = LINE ( 'NONE', #1023, #247 ) ;
#447 = CARTESIAN_POINT ( 'NONE',  ( 20.79463049180427348, 0.9472759551224447794, 3.808747950587231479 ) ) ;
#448 = ORIENTED_EDGE ( 'NONE', *, *, #174, .F. ) ;
#449 = CARTESIAN_POINT ( 'NONE',  ( 17.32050807568876039, -1.734723475976805517E-15, 8.000000000000000000 ) ) ;
#450 = EDGE_CURVE ( 'NONE', #682, #688, #48, .T. ) ;
#451 = CARTESIAN_POINT ( 'NONE',  ( -20.78460969082653165, 5.999999999999986677, 8.000000000000000000 ) ) ;
#452 = ORIENTED_EDGE ( 'NONE', *, *, #665, .F. ) ;
#453 = DIRECTION ( 'NONE',  ( 0.000000000000000000, 0.000000000000000000, 1.000000000000000000 ) ) ;
#454 = VERTEX_POINT ( 'NONE', #573 ) ;
#455 = CARTESIAN_POINT ( 'NONE',  ( 8.660254037844383745, -14.99999999999999822, 0.000000000000000000 ) ) ;
#456 = ADVANCED_FACE ( 'NONE', ( #143 ), #659, .F. ) ;
#457 = CARTESIAN_POINT ( 'NONE',  ( -20.89587299909297968, 0.4224258316449959749, 5.487811192141041516 ) ) ;
#458 = CYLINDRICAL_SURFACE ( 'NONE', #286, 1.499999999999999778 ) ;
#459 = ORIENTED_EDGE ( 'NONE', *, *, #1035, .T. ) ;
#460 = CARTESIAN_POINT ( 'NONE',  ( -8.660254037844381969, -15.00000000000000000, 8.000000000000000000 ) ) ;
#461 = CIRCLE ( 'NONE', #775, 3.599999999999999201 ) ;
#462 = AXIS2_PLACEMENT_3D ( 'NONE', #341, #864, #1028 ) ;
#463 = CARTESIAN_POINT ( 'NONE',  ( -20.38901489884171525, 1.885234260842253651, 6.500052778304149292 ) ) ;
#464 = CARTESIAN_POINT ( 'NONE',  ( -22.51666049839540307, 2.999999999999994671, 5.000000000000000888 ) ) ;
#465 = EDGE_CURVE ( 'NONE', #1012, #748, #442, .T. ) ;
#466 = VERTEX_POINT ( 'NONE', #365 ) ;
#467 = CARTESIAN_POINT ( 'NONE',  ( 13.85640646055101222, -6.000000000000007105, 8.000000000000000000 ) ) ;
#468 = CARTESIAN_POINT ( 'NONE',  ( -17.32050807568877460, -3.519824998086741684E-15, 0.000000000000000000 ) ) ;
#469 = VERTEX_POINT ( 'NONE', #617 ) ;
#470 = CARTESIAN_POINT ( 'NONE',  ( -9.000000000000000000, 0.000000000000000000, 10.00000000000000000 ) ) ;
#471 = ADVANCED_FACE ( 'NONE', ( #759 ), #196, .F. ) ;
#472 = CARTESIAN_POINT ( 'NONE',  ( -19.71604860818976235, 2.688219332018850771, 5.990874734543481850 ) ) ;
#473 = DIRECTION ( 'NONE',  ( -0.5000000000000005551, 0.8660254037844383745, 0.000000000000000000 ) ) ;
#474 = VERTEX_POINT ( 'NONE', #545 ) ;
#475 = FACE_OUTER_BOUND ( 'NONE', #338, .T. ) ;
#476 = DESIGN_CONTEXT ( 'detailed design', #561, 'design' ) ;
#477 = ADVANCED_FACE ( 'NONE', ( #532, #94 ), #794, .F. ) ;
#478 = CARTESIAN_POINT ( 'NONE',  ( 0.000000000000000000, 0.000000000000000000, 8.000000000000000000 ) ) ;
#479 = CARTESIAN_POINT ( 'NONE',  ( 9.000000000000000000, 1.102182119232617714E-15, 10.00000000000000000 ) ) ;
#480 = VECTOR ( 'NONE', #903, 1000.000000000000227 ) ;
#481 = AXIS2_PLACEMENT_3D ( 'NONE', #451, #123, #16 ) ;
#482 = ORIENTED_EDGE ( 'NONE', *, *, #723, .T. ) ;
#483 = PLANE ( 'NONE',  #1081 ) ;
#484 = SECURITY_CLASSIFICATION ( '', '', #242 ) ;
#485 = DIRECTION ( 'NONE',  ( 1.000000000000000000, 0.000000000000000000, 0.000000000000000000 ) ) ;
#486 = EDGE_CURVE ( 'NONE', #491, #1079, #1098, .T. ) ;
#487 = CARTESIAN_POINT ( 'NONE',  ( 20.78460969082653165, 5.999999999999986677, 0.000000000000000000 ) ) ;
#488 = DATE_AND_TIME ( #152, #445 ) ;
#489 = EDGE_LOOP ( 'NONE', ( #190, #126 ) ) ;
#490 = DIRECTION ( 'NONE',  ( -0.000000000000000000, -0.000000000000000000, -1.000000000000000000 ) ) ;
#491 = VERTEX_POINT ( 'NONE', #455 ) ;
#492 = DIRECTION ( 'NONE',  ( 1.000000000000000000, 1.001543065824773222E-16, 0.000000000000000000 ) ) ;
#493 = APPROVAL_ROLE ( '' ) ;
#494 = ORIENTED_EDGE ( 'NONE', *, *, #691, .F. ) ;
#495 = PLANE ( 'NONE',  #1011 ) ;
#496 = CARTESIAN_POINT ( 'NONE',  ( 17.32050807568876039, -1.734723475976805517E-15, 8.000000000000000000 ) ) ;
#497 = DIRECTION ( 'NONE',  ( 1.000000000000000000, 0.000000000000000000, -0.000000000000000000 ) ) ;
#498 = PERSON_AND_ORGANIZATION ( #243, #654 ) ;
#499 = ORIENTED_EDGE ( 'NONE', *, *, #486, .F. ) ;
#500 = VECTOR ( 'NONE', #1040, 1000.000000000000000 ) ;
#501 = LINE ( 'NONE', #64, #747 ) ;
#502 = EDGE_CURVE ( 'NONE', #938, #380, #963, .T. ) ;
#503 = CIRCLE ( 'NONE', #831, 11.12500000000000178 ) ;
#504 = CC_DESIGN_APPROVAL ( #731, ( #779 ) ) ;
#505 = FACE_OUTER_BOUND ( 'NONE', #161, .T. ) ;
#506 = FACE_OUTER_BOUND ( 'NONE', #870, .T. ) ;
#507 = PERSON_AND_ORGANIZATION ( #243, #654 ) ;
#508 = ORIENTED_EDGE ( 'NONE', *, *, #258, .T. ) ;
#509 = CARTESIAN_POINT ( 'NONE',  ( 22.51666049839539951, 2.999999999999993339, 5.000000000000000000 ) ) ;
#510 = ORIENTED_EDGE ( 'NONE', *, *, #935, .F. ) ;
#511 = EDGE_CURVE ( 'NONE', #1108, #474, #46, .T. ) ;
#512 = DIRECTION ( 'NONE',  ( -1.000000000000000000, -1.001543065824773222E-16, 0.000000000000000000 ) ) ;
#513 = ORIENTED_EDGE ( 'NONE', *, *, #314, .F. ) ;
#514 = CARTESIAN_POINT ( 'NONE',  ( -24.24871130596427804, -1.482509621968736587E-14, 8.000000000000000000 ) ) ;
#515 = EDGE_CURVE ( 'NONE', #14, #210, #777, .T. ) ;
#516 = LINE ( 'NONE', #851, #409 ) ;
#517 = VERTEX_POINT ( 'NONE', #670 ) ;
#518 = CARTESIAN_POINT ( 'NONE',  ( 20.90467461984243513, 0.3372687115186904783, 5.000000000000000000 ) ) ;
#519 = ORIENTED_EDGE ( 'NONE', *, *, #271, .T. ) ;
#520 = AXIS2_PLACEMENT_3D ( 'NONE', #130, #563, #125 ) ;
#521 = ADVANCED_FACE ( 'NONE', ( #606 ), #1046, .F. ) ;
#522 = LINE ( 'NONE', #241, #862 ) ;
#523 = LINE ( 'NONE', #92, #884 ) ;
#524 = ORIENTED_EDGE ( 'NONE', *, *, #450, .F. ) ;
#525 = LINE ( 'NONE', #96, #722 ) ;
#526 = CARTESIAN_POINT ( 'NONE',  ( 20.90467461984243513, 0.3372687115186904783, 5.000000000000000000 ) ) ;
#527 = ORIENTED_EDGE ( 'NONE', *, *, #298, .F. ) ;
#528 = CARTESIAN_POINT ( 'NONE',  ( -9.000000000000000000, 0.000000000000000000, 8.000000000000000000 ) ) ;
#529 = CARTESIAN_POINT ( 'NONE',  ( -20.05101787427901527, 2.347919596320462876, 3.653427210929756530 ) ) ;
#530 = DIRECTION ( 'NONE',  ( 0.000000000000000000, 0.000000000000000000, 1.000000000000000000 ) ) ;
#531 = ORIENTED_EDGE ( 'NONE', *, *, #235, .T. ) ;
#532 = FACE_OUTER_BOUND ( 'NONE', #916, .T. ) ;
#533 = ADVANCED_FACE ( 'NONE', ( #841 ), #15, .F. ) ;
#534 = AXIS2_PLACEMENT_3D ( 'NONE', #53, #889, #376 ) ;
#535 = VECTOR ( 'NONE', #1037, 1000.000000000000000 ) ;
#536 = EDGE_LOOP ( 'NONE', ( #905, #513, #1045, #402 ) ) ;
#537 = CARTESIAN_POINT ( 'NONE',  ( 20.65408641596490824, 1.362228189483939422, 3.577893188374110522 ) ) ;
#538 = ORIENTED_EDGE ( 'NONE', *, *, #1054, .T. ) ;
#539 = CARTESIAN_POINT ( 'NONE',  ( -20.90467461984246711, 0.3372687115187054663, 5.000000000000000000 ) ) ;
#540 = ADVANCED_FACE ( 'NONE', ( #947 ), #249, .F. ) ;
#541 = CARTESIAN_POINT ( 'NONE',  ( 13.72050807568876074, -1.734723475976805517E-15, 0.000000000000000000 ) ) ;
#542 = CARTESIAN_POINT ( 'NONE',  ( -19.87762531589682879, 2.535358448285723654, 6.190940766236282755 ) ) ;
#543 = CARTESIAN_POINT ( 'NONE',  ( -19.60278000163621570, -23.04972111837851756, 5.000000000000000000 ) ) ;
#544 = EDGE_LOOP ( 'NONE', ( #820, #799, #524, #787 ) ) ;
#545 = CARTESIAN_POINT ( 'NONE',  ( 21.76666049839539951, 4.299038105676650012, 5.000000000000000000 ) ) ;
#546 = EDGE_CURVE ( 'NONE', #648, #336, #225, .T. ) ;
#547 = CARTESIAN_POINT ( 'NONE',  ( -20.33507183043645483, 1.970236668525060519, 6.490014770976827663 ) ) ;
#548 = CARTESIAN_POINT ( 'NONE',  ( -20.78460969082652099, -6.000000000000014211, 0.000000000000000000 ) ) ;
#549 = ORIENTED_EDGE ( 'NONE', *, *, #702, .F. ) ;
#550 = CARTESIAN_POINT ( 'NONE',  ( 8.660254037844380193, 15.00000000000000000, 0.000000000000000000 ) ) ;
#551 = CIRCLE ( 'NONE', #989, 3.599999999999999201 ) ;
#552 = DIRECTION ( 'NONE',  ( -1.000000000000000000, 0.000000000000000000, 0.000000000000000000 ) ) ;
#553 = VECTOR ( 'NONE', #596, 1000.000000000000000 ) ;
#554 = ORIENTED_EDGE ( 'NONE', *, *, #840, .T. ) ;
#555 = FACE_OUTER_BOUND ( 'NONE', #694, .T. ) ;
#556 = FACE_OUTER_BOUND ( 'NONE', #888, .T. ) ;
#557 = LINE ( 'NONE', #201, #500 ) ;
#558 = CARTESIAN_POINT ( 'NONE',  ( 19.60278000163621925, -23.04972111837852466, 5.000000000000000888 ) ) ;
#559 = VERTEX_POINT ( 'NONE', #539 ) ;
#560 = CARTESIAN_POINT ( 'NONE',  ( -17.32050807568877460, -3.519824998086741684E-15, 10.00000000000000000 ) ) ;
#561 = APPLICATION_CONTEXT ( 'configuration controlled 3d designs of mechanical parts and assemblies' ) ;
#562 = CARTESIAN_POINT ( 'NONE',  ( -19.40467461984244579, 2.935344922872012763, 5.197598351742262146 ) ) ;
#563 = DIRECTION ( 'NONE',  ( 0.000000000000000000, -1.000000000000000000, 0.000000000000000000 ) ) ;
#564 = ORIENTED_EDGE ( 'NONE', *, *, #607, .F. ) ;
#565 = CARTESIAN_POINT ( 'NONE',  ( 0.000000000000000000, 0.000000000000000000, 8.000000000000000000 ) ) ;
#566 = EDGE_CURVE ( 'NONE', #682, #517, #695, .T. ) ;
#567 = PLANE ( 'NONE',  #83 ) ;
#568 = FACE_OUTER_BOUND ( 'NONE', #684, .T. ) ;
#569 = VECTOR ( 'NONE', #178, 1000.000000000000000 ) ;
#570 = VERTEX_POINT ( 'NONE', #528 ) ;
#571 = CARTESIAN_POINT ( 'NONE',  ( 13.85640646055101222, -6.000000000000007105, 10.00000000000000000 ) ) ;
#572 = LOCAL_TIME ( 22, 32, 52.00000000000000000, #252 ) ;
#573 = CARTESIAN_POINT ( 'NONE',  ( -11.12500000000000178, 0.000000000000000000, 0.000000000000000000 ) ) ;
#574 = DIRECTION ( 'NONE',  ( 0.5000000000000003331, -0.8660254037844383745, 0.000000000000000000 ) ) ;
#575 = DATE_TIME_ROLE ( 'classification_date' ) ;
#576 = ORIENTED_EDGE ( 'NONE', *, *, #17, .F. ) ;
#577 = DIRECTION ( 'NONE',  ( -0.8660254037844389297, 0.4999999999999993894, -0.000000000000000000 ) ) ;
#578 = DIRECTION ( 'NONE',  ( -0.8660254037844390407, 0.4999999999999994449, 0.000000000000000000 ) ) ;
#579 = PERSON_AND_ORGANIZATION ( #243, #654 ) ;
#580 = EDGE_CURVE ( 'NONE', #352, #962, #340, .T. ) ;
#581 = ORIENTED_EDGE ( 'NONE', *, *, #580, .F. ) ;
#582 = DIRECTION ( 'NONE',  ( 1.000000000000000000, 0.000000000000000000, -0.000000000000000000 ) ) ;
#583 = DIRECTION ( 'NONE',  ( -0.5000000000000003331, -0.8660254037844383745, 0.000000000000000000 ) ) ;
#584 = CARTESIAN_POINT ( 'NONE',  ( 11.12500000000000178, 1.362419564051430495E-15, 8.000000000000000000 ) ) ;
#585 = ORIENTED_EDGE ( 'NONE', *, *, #422, .F. ) ;
#586 = LINE ( 'NONE', #167, #814 ) ;
#587 = VECTOR ( 'NONE', #1033, 1000.000000000000227 ) ;
#588 = VERTEX_POINT ( 'NONE', #288 ) ;
#589 = CARTESIAN_POINT ( 'NONE',  ( 17.32050807568876039, -1.734723475976805517E-15, 0.000000000000000000 ) ) ;
#590 = VERTEX_POINT ( 'NONE', #859 ) ;
#591 = PLANE ( 'NONE',  #690 ) ;
#592 = ORIENTED_EDGE ( 'NONE', *, *, #95, .T. ) ;
#593 = EDGE_CURVE ( 'NONE', #605, #913, #623, .T. ) ;
#594 = DIRECTION ( 'NONE',  ( -0.5000000000000006661, 0.8660254037844382635, 0.000000000000000000 ) ) ;
#595 = CARTESIAN_POINT ( 'NONE',  ( -20.38864201288400579, 1.885824270495226607, 3.500014239027671170 ) ) ;
#596 = DIRECTION ( 'NONE',  ( 1.000000000000000000, -1.001543065824772950E-15, 0.000000000000000000 ) ) ;
#597 = ORIENTED_EDGE ( 'NONE', *, *, #77, .F. ) ;
#598 = EDGE_CURVE ( 'NONE', #588, #913, #275, .T. ) ;
#599 = ORIENTED_EDGE ( 'NONE', *, *, #71, .F. ) ;
#600 = CARTESIAN_POINT ( 'NONE',  ( 20.38817542960292073, 1.886599943739768470, 6.499946793721116833 ) ) ;
#601 = ORIENTED_EDGE ( 'NONE', *, *, #566, .F. ) ;
#602 = VECTOR ( 'NONE', #110, 1000.000000000000000 ) ;
#603 = DIRECTION ( 'NONE',  ( 0.5000000000000003331, -0.8660254037844384856, 0.000000000000000000 ) ) ;
#604 = CARTESIAN_POINT ( 'NONE',  ( 20.53406495947292854, 1.625570458676756092, 6.490014770976826775 ) ) ;
#605 = VERTEX_POINT ( 'NONE', #28 ) ;
#606 = FACE_OUTER_BOUND ( 'NONE', #431, .T. ) ;
#607 = EDGE_CURVE ( 'NONE', #816, #259, #44, .T. ) ;
#608 = ORIENTED_EDGE ( 'NONE', *, *, #298, .T. ) ;
#609 = CARTESIAN_POINT ( 'NONE',  ( 20.89929513119027860, 0.3908227677352734131, 4.606782552984679313 ) ) ;
#610 = ORIENTED_EDGE ( 'NONE', *, *, #515, .F. ) ;
#611 = CARTESIAN_POINT ( 'NONE',  ( 20.78460969082652099, -6.000000000000014211, 8.000000000000000000 ) ) ;
#612 = DIRECTION ( 'NONE',  ( -1.000000000000000000, 0.000000000000000000, 0.000000000000000000 ) ) ;
#613 = CARTESIAN_POINT ( 'NONE',  ( -20.22395212860433489, 2.130601413466275407, 3.549145791946673789 ) ) ;
#614 = CARTESIAN_POINT ( 'NONE',  ( 0.000000000000000000, 0.000000000000000000, 0.000000000000000000 ) ) ;
#615 = CC_DESIGN_PERSON_AND_ORGANIZATION_ASSIGNMENT ( #830, #904, ( #708 ) ) ;
#616 = ORIENTED_EDGE ( 'NONE', *, *, #314, .T. ) ;
#617 = CARTESIAN_POINT ( 'NONE',  ( 13.85640646055102287, 5.999999999999993783, 10.00000000000000000 ) ) ;
#618 = AXIS2_PLACEMENT_3D ( 'NONE', #165, #936, #1034 ) ;
#619 = AXIS2_PLACEMENT_3D ( 'NONE', #460, #9, #512 ) ;
#620 = LINE ( 'NONE', #193, #882 ) ;
#621 = CARTESIAN_POINT ( 'NONE',  ( -9.000000000000000000, 0.000000000000000000, 10.00000000000000000 ) ) ;
#622 = ORIENTED_EDGE ( 'NONE', *, *, #153, .F. ) ;
#623 = LINE ( 'NONE', #925, #587 ) ;
#624 = ADVANCED_FACE ( 'NONE', ( #296 ), #205, .F. ) ;
#625 = DIRECTION ( 'NONE',  ( 1.000000000000000000, 0.000000000000000000, 0.000000000000000000 ) ) ;
#626 = CARTESIAN_POINT ( 'NONE',  ( 23.26666049839539241, 1.700961894323332446, 5.000000000000000000 ) ) ;
#627 = ORIENTED_EDGE ( 'NONE', *, *, #95, .F. ) ;
#628 = DIRECTION ( 'NONE',  ( 1.000000000000000000, -1.001543065824772950E-15, 0.000000000000000000 ) ) ;
#629 = CC_DESIGN_PERSON_AND_ORGANIZATION_ASSIGNMENT ( #58, #661, ( #708 ) ) ;
#630 = CARTESIAN_POINT ( 'NONE',  ( -20.90467461984246711, 0.3372687115187054663, 5.000000000000000000 ) ) ;
#631 = VERTEX_POINT ( 'NONE', #644 ) ;
#632 = DIRECTION ( 'NONE',  ( -0.000000000000000000, -0.000000000000000000, -1.000000000000000000 ) ) ;
#633 = AXIS2_PLACEMENT_3D ( 'NONE', #1075, #293, #122 ) ;
#634 = CARTESIAN_POINT ( 'NONE',  ( -20.65450981630656102, 1.361164461620149480, 6.421689818457754662 ) ) ;
#635 = VECTOR ( 'NONE', #1061, 1000.000000000000114 ) ;
#636 = CARTESIAN_POINT ( 'NONE',  ( 13.85640646055101222, -6.000000000000007105, 10.00000000000000000 ) ) ;
#637 = VERTEX_POINT ( 'NONE', #550 ) ;
#638 = DIRECTION ( 'NONE',  ( -0.000000000000000000, -0.000000000000000000, -1.000000000000000000 ) ) ;
#639 = CYLINDRICAL_SURFACE ( 'NONE', #264, 3.599999999999997424 ) ;
#640 = CARTESIAN_POINT ( 'NONE',  ( 19.40467461984245645, 2.935344922872017648, 5.000000000000000888 ) ) ;
#641 = FACE_OUTER_BOUND ( 'NONE', #149, .T. ) ;
#642 = ADVANCED_FACE ( 'NONE', ( #987 ), #483, .F. ) ;
#643 = ORIENTED_EDGE ( 'NONE', *, *, #49, .F. ) ;
#644 = CARTESIAN_POINT ( 'NONE',  ( -8.660254037844383745, 15.00000000000000000, 10.00000000000000000 ) ) ;
#645 = FACE_OUTER_BOUND ( 'NONE', #1095, .T. ) ;
#646 = DIRECTION ( 'NONE',  ( 0.5000000000000003331, 0.8660254037844383745, 0.000000000000000000 ) ) ;
#647 = DIRECTION ( 'NONE',  ( -0.8660254037844390407, 0.4999999999999994449, 0.000000000000000000 ) ) ;
#648 = VERTEX_POINT ( 'NONE', #127 ) ;
#649 = DIRECTION ( 'NONE',  ( -1.000000000000000000, 0.000000000000000000, 0.000000000000000000 ) ) ;
#650 = DIRECTION ( 'NONE',  ( -0.4999999999999990563, 0.8660254037844391517, 0.000000000000000000 ) ) ;
#651 = PLANE ( 'NONE',  #763 ) ;
#652 = APPROVAL_ROLE ( '' ) ;
#653 = VECTOR ( 'NONE', #21, 1000.000000000000000 ) ;
#654 = ORGANIZATION ( 'UNSPECIFIED', 'UNSPECIFIED', '' ) ;
#655 = ORIENTED_EDGE ( 'NONE', *, *, #867, .F. ) ;
#656 = CARTESIAN_POINT ( 'NONE',  ( 20.16631194848927677, 2.206747972826465176, 6.421689818457756438 ) ) ;
#657 = ORIENTED_EDGE ( 'NONE', *, *, #1092, .F. ) ;
#658 = ADVANCED_FACE ( 'NONE', ( #555 ), #200, .F. ) ;
#659 = PLANE ( 'NONE',  #356 ) ;
#660 = CARTESIAN_POINT ( 'NONE',  ( -20.78460969082652099, -6.000000000000014211, 8.000000000000000000 ) ) ;
#661 = PERSON_AND_ORGANIZATION_ROLE ( 'creator' ) ;
#662 = ORIENTED_EDGE ( 'NONE', *, *, #401, .F. ) ;
#663 = FACE_BOUND ( 'NONE', #825, .T. ) ;
#664 = DIRECTION ( 'NONE',  ( -1.001543065824772950E-15, -1.000000000000000000, 0.000000000000000000 ) ) ;
#665 = EDGE_CURVE ( 'NONE', #816, #186, #735, .T. ) ;
#666 = CARTESIAN_POINT ( 'NONE',  ( 13.85640646055102287, 5.999999999999993783, 0.000000000000000000 ) ) ;
#667 = CALENDAR_DATE ( 2026, 31, 3 ) ;
#668 = ORIENTED_EDGE ( 'NONE', *, *, #665, .T. ) ;
#669 = PLANE ( 'NONE',  #991 ) ;
#670 = CARTESIAN_POINT ( 'NONE',  ( -20.78460969082653165, 5.999999999999986677, 0.000000000000000000 ) ) ;
#671 = COORDINATED_UNIVERSAL_TIME_OFFSET ( 7, 0, .BEHIND. ) ;
#672 = EDGE_CURVE ( 'NONE', #922, #934, #5, .T. ) ;
#673 = ORIENTED_EDGE ( 'NONE', *, *, #546, .F. ) ;
#674 = CARTESIAN_POINT ( 'NONE',  ( 19.40467461984245645, 2.935344922872017648, 5.000000000000000888 ) ) ;
#675 = AXIS2_PLACEMENT_3D ( 'NONE', #560, #393, #34 ) ;
#676 = ORIENTED_EDGE ( 'NONE', *, *, #1003, .F. ) ;
#677 = VECTOR ( 'NONE', #215, 1000.000000000000114 ) ;
#678 = DIRECTION ( 'NONE',  ( -1.000000000000000000, 0.000000000000000000, 0.000000000000000000 ) ) ;
#679 = DIRECTION ( 'NONE',  ( -1.000000000000000000, -1.001543065824772950E-15, -0.000000000000000000 ) ) ;
#680 = CARTESIAN_POINT ( 'NONE',  ( 19.57165832348199785, 2.810522057707616650, 5.759307033695638012 ) ) ;
#681 = EDGE_CURVE ( 'NONE', #222, #1057, #721, .T. ) ;
#682 = VERTEX_POINT ( 'NONE', #809 ) ;
#683 = CARTESIAN_POINT ( 'NONE',  ( 20.48742224923941180, 1.714787730115197251, 6.500052778304149292 ) ) ;
#684 = EDGE_LOOP ( 'NONE', ( #39, #599, #803, #1090 ) ) ;
#685 = ORIENTED_EDGE ( 'NONE', *, *, #790, .F. ) ;
#686 = CARTESIAN_POINT ( 'NONE',  ( 19.57205763128683529, 2.810222206291020264, 4.239442284288570839 ) ) ;
#687 = AXIS2_PLACEMENT_3D ( 'NONE', #198, #718, #552 ) ;
#688 = VERTEX_POINT ( 'NONE', #313 ) ;
#689 = AXIS2_PLACEMENT_3D ( 'NONE', #565, #632, #649 ) ;
#690 = AXIS2_PLACEMENT_3D ( 'NONE', #420, #821, #245 ) ;
#691 = EDGE_CURVE ( 'NONE', #911, #570, #224, .T. ) ;
#692 = CARTESIAN_POINT ( 'NONE',  ( -19.99180009175347195, 2.414758220240365905, 3.700581645424449118 ) ) ;
#693 = CARTESIAN_POINT ( 'NONE',  ( 19.44078353657344849, 2.910542255322076333, 4.604755289561670573 ) ) ;
#694 = EDGE_LOOP ( 'NONE', ( #121, #20, #116, #494 ) ) ;
#695 = LINE ( 'NONE', #788, #653 ) ;
#696 = CARTESIAN_POINT ( 'NONE',  ( -19.40467461984245645, 2.935344922872013651, 4.901279676013985842 ) ) ;
#697 = CARTESIAN_POINT ( 'NONE',  ( 19.40467461984244935, 2.935344922872011431, 4.799433636466808650 ) ) ;
#698 = VERTEX_POINT ( 'NONE', #40 ) ;
#699 = CARTESIAN_POINT ( 'NONE',  ( -17.32050807568877460, -3.519824998086741684E-15, 0.000000000000000000 ) ) ;
#700 = CARTESIAN_POINT ( 'NONE',  ( -20.53370394083938422, 1.626306051676871256, 6.490148316684616780 ) ) ;
#701 = LINE ( 'NONE', #869, #226 ) ;
#702 = EDGE_CURVE ( 'NONE', #1057, #938, #966, .T. ) ;
#703 = ORIENTED_EDGE ( 'NONE', *, *, #900, .F. ) ;
#704 = DIRECTION ( 'NONE',  ( 1.000000000000000000, 0.000000000000000000, 0.000000000000000000 ) ) ;
#705 = AXIS2_PLACEMENT_3D ( 'NONE', #383, #283, #41 ) ;
#706 = AXIS2_PLACEMENT_3D ( 'NONE', #449, #270, #678 ) ;
#707 = VECTOR ( 'NONE', #384, 1000.000000000000000 ) ;
#708 = PRODUCT_DEFINITION_FORMATION_WITH_SPECIFIED_SOURCE ( 'ANY', '', #423, .NOT_KNOWN. ) ;
#709 = CYLINDRICAL_SURFACE ( 'NONE', #687, 11.12500000000000178 ) ;
#710 =( LENGTH_UNIT ( ) NAMED_UNIT ( * ) SI_UNIT ( .MILLI., .METRE. ) );
#711 = VERTEX_POINT ( 'NONE', #881 ) ;
#712 = CARTESIAN_POINT ( 'NONE',  ( 24.24871130596427804, -1.482509621968736587E-14, 8.000000000000000000 ) ) ;
#713 = ADVANCED_FACE ( 'NONE', ( #381 ), #117, .F. ) ;
#714 = CARTESIAN_POINT ( 'NONE',  ( -19.66703317911197146, 2.730781590717350493, 5.916211227994225830 ) ) ;
#715 = DIRECTION ( 'NONE',  ( -1.000000000000000000, 1.001543065824772950E-15, 0.000000000000000000 ) ) ;
#716 = ORIENTED_EDGE ( 'NONE', *, *, #546, .T. ) ;
#717 = LINE ( 'NONE', #800, #724 ) ;
#718 = DIRECTION ( 'NONE',  ( -0.000000000000000000, -0.000000000000000000, -1.000000000000000000 ) ) ;
#719 = CARTESIAN_POINT ( 'NONE',  ( 20.90467461984243513, 0.3372687115186904783, 5.000000000000000000 ) ) ;
#720 = ORIENTED_EDGE ( 'NONE', *, *, #10, .T. ) ;
#721 = LINE ( 'NONE', #1070, #920 ) ;
#722 = VECTOR ( 'NONE', #679, 1000.000000000000000 ) ;
#723 = EDGE_CURVE ( 'NONE', #698, #753, #444, .T. ) ;
#724 = VECTOR ( 'NONE', #638, 1000.000000000000000 ) ;
#725 = LINE ( 'NONE', #1067, #1099 ) ;
#726 = VECTOR ( 'NONE', #715, 1000.000000000000000 ) ;
#727 = LINE ( 'NONE', #543, #866 ) ;
#728 = ORIENTED_EDGE ( 'NONE', *, *, #1107, .T. ) ;
#729 = FACE_BOUND ( 'NONE', #433, .T. ) ;
#730 = CARTESIAN_POINT ( 'NONE',  ( 17.32050807568876039, -1.734723475976805517E-15, 10.00000000000000000 ) ) ;
#731 = APPROVAL ( #1078, 'UNSPECIFIED' ) ;
#732 = CARTESIAN_POINT ( 'NONE',  ( -11.12500000000000178, 0.000000000000000000, 8.000000000000000000 ) ) ;
#733 = LINE ( 'NONE', #395, #250 ) ;
#734 = VERTEX_POINT ( 'NONE', #982 ) ;
#735 = LINE ( 'NONE', #712, #972 ) ;
#736 = DIRECTION ( 'NONE',  ( 1.000000000000000000, 0.000000000000000000, 0.000000000000000000 ) ) ;
#737 = DIRECTION ( 'NONE',  ( -0.5000000000000002220, -0.8660254037844384856, 0.000000000000000000 ) ) ;
#738 = APPROVAL_STATUS ( 'not_yet_approved' ) ;
#739 = ORIENTED_EDGE ( 'NONE', *, *, #1021, .T. ) ;
#740 = CARTESIAN_POINT ( 'NONE',  ( 19.87434814718419318, 2.541331903771587353, 6.197379918499919427 ) ) ;
#741 = EDGE_CURVE ( 'NONE', #1057, #1079, #717, .T. ) ;
#742 = VERTEX_POINT ( 'NONE', #906 ) ;
#743 = CARTESIAN_POINT ( 'NONE',  ( 20.78460969082652099, -6.000000000000014211, 0.000000000000000000 ) ) ;
#744 = CARTESIAN_POINT ( 'NONE',  ( 20.78460969082652099, -6.000000000000014211, 10.00000000000000000 ) ) ;
#745 = APPLICATION_PROTOCOL_DEFINITION ( 'international standard', 'config_control_design', 1994, #561 ) ;
#746 = AXIS2_PLACEMENT_3D ( 'NONE', #72, #907, #485 ) ;
#747 = VECTOR ( 'NONE', #1091, 1000.000000000000000 ) ;
#748 = VERTEX_POINT ( 'NONE', #978 ) ;
#749 = DIRECTION ( 'NONE',  ( 0.8660254037844384856, 0.5000000000000003331, -0.000000000000000000 ) ) ;
#750 = EDGE_CURVE ( 'NONE', #688, #711, #1058, .T. ) ;
#751 = CARTESIAN_POINT ( 'NONE',  ( 11.12500000000000178, 1.362419564051430495E-15, 8.000000000000000000 ) ) ;
#752 = DIRECTION ( 'NONE',  ( 0.8660254037844384856, 0.5000000000000004441, -0.000000000000000000 ) ) ;
#753 = VERTEX_POINT ( 'NONE', #893 ) ;
#754 = CARTESIAN_POINT ( 'NONE',  ( 20.78460969082653165, 5.999999999999986677, 0.000000000000000000 ) ) ;
#755 = CARTESIAN_POINT ( 'NONE',  ( 24.24871130596427804, -1.482509621968736587E-14, 0.000000000000000000 ) ) ;
#756 = CARTESIAN_POINT ( 'NONE',  ( -8.660254037844383745, 15.00000000000000000, 10.00000000000000000 ) ) ;
#757 = ORIENTED_EDGE ( 'NONE', *, *, #1107, .F. ) ;
#758 = CARTESIAN_POINT ( 'NONE',  ( -8.660254037844381969, -15.00000000000000000, 0.000000000000000000 ) ) ;
#759 = FACE_OUTER_BOUND ( 'NONE', #536, .T. ) ;
#760 = PERSON_AND_ORGANIZATION_ROLE ( 'design_owner' ) ;
#761 = ADVANCED_FACE ( 'NONE', ( #475, #729, #217, #838 ), #912, .F. ) ;
#762 = ORIENTED_EDGE ( 'NONE', *, *, #17, .T. ) ;
#763 = AXIS2_PLACEMENT_3D ( 'NONE', #660, #752, #57 ) ;
#764 = CARTESIAN_POINT ( 'NONE',  ( 20.35278000163621925, -21.75068301270186666, 5.000000000000000888 ) ) ;
#765 = AXIS2_PLACEMENT_3D ( 'NONE', #509, #826, #239 ) ;
#766 = CARTESIAN_POINT ( 'NONE',  ( 13.85640646055102287, 5.999999999999993783, 8.000000000000000000 ) ) ;
#767 = CARTESIAN_POINT ( 'NONE',  ( 20.61738505154736600, 1.449155601558578921, 3.549145791946670681 ) ) ;
#768 = ORIENTED_EDGE ( 'NONE', *, *, #681, .F. ) ;
#769 = ORIENTED_EDGE ( 'NONE', *, *, #101, .F. ) ;
#770 = CARTESIAN_POINT ( 'NONE',  ( 20.61701419967088356, 1.449991219279464616, 6.451091770138223325 ) ) ;
#771 = ORIENTED_EDGE ( 'NONE', *, *, #396, .T. ) ;
#772 = EDGE_CURVE ( 'NONE', #131, #466, #75, .T. ) ;
#773 = CARTESIAN_POINT ( 'NONE',  ( -19.66384819375335979, 2.736713994324946775, 4.077010203062438443 ) ) ;
#774 = CARTESIAN_POINT ( 'NONE',  ( 20.90467461984244579, 0.3372687115186903672, 4.901279676013986730 ) ) ;
#775 = AXIS2_PLACEMENT_3D ( 'NONE', #468, #873, #37 ) ;
#776 = EDGE_LOOP ( 'NONE', ( #269, #757, #364, #308 ) ) ;
#777 = LINE ( 'NONE', #783, #26 ) ;
#778 = VECTOR ( 'NONE', #1053, 1000.000000000000000 ) ;
#779 = PRODUCT_DEFINITION ( 'UNKNOWN', '', #708, #476 ) ;
#780 = CARTESIAN_POINT ( 'NONE',  ( -19.44836404867562152, 2.903909120931579935, 4.606782552984681978 ) ) ;
#781 = CARTESIAN_POINT ( 'NONE',  ( 20.48774676960850627, 1.714169796576620053, 3.500014239027668950 ) ) ;
#782 = ORIENTED_EDGE ( 'NONE', *, *, #289, .T. ) ;
#783 = CARTESIAN_POINT ( 'NONE',  ( -13.85640646055101222, -6.000000000000007105, 0.000000000000000000 ) ) ;
#784 = ADVANCED_FACE ( 'NONE', ( #148 ), #591, .F. ) ;
#785 = DIRECTION ( 'NONE',  ( 1.000000000000000000, 1.001543065824773222E-16, 0.000000000000000000 ) ) ;
#786 = CARTESIAN_POINT ( 'NONE',  ( -13.85640646055102287, 5.999999999999993783, 0.000000000000000000 ) ) ;
#787 = ORIENTED_EDGE ( 'NONE', *, *, #566, .T. ) ;
#788 = CARTESIAN_POINT ( 'NONE',  ( -20.78460969082653165, 5.999999999999986677, 8.000000000000000000 ) ) ;
#789 = DIRECTION ( 'NONE',  ( 0.000000000000000000, 0.000000000000000000, 1.000000000000000000 ) ) ;
#790 = EDGE_CURVE ( 'NONE', #962, #352, #973, .T. ) ;
#791 = CARTESIAN_POINT ( 'NONE',  ( -19.40467461984244579, 2.935344922872014095, 5.000000000000000888 ) ) ;
#792 = LINE ( 'NONE', #1056, #342 ) ;
#793 = ORIENTED_EDGE ( 'NONE', *, *, #924, .T. ) ;
#794 = CYLINDRICAL_SURFACE ( 'NONE', #66, 3.599999999999999201 ) ;
#795 = VECTOR ( 'NONE', #132, 1000.000000000000000 ) ;
#796 =( GEOMETRIC_REPRESENTATION_CONTEXT ( 3 ) GLOBAL_UNCERTAINTY_ASSIGNED_CONTEXT ( ( #213 ) ) GLOBAL_UNIT_ASSIGNED_CONTEXT ( ( #710, #802, #202 ) ) REPRESENTATION_CONTEXT ( 'NONE', 'WORKASPACE' ) );
#797 = CARTESIAN_POINT ( 'NONE',  ( -20.89932834202830492, 0.3905093269660371846, 5.392012097929342218 ) ) ;
#798 = CARTESIAN_POINT ( 'NONE',  ( -24.24871130596427804, -1.482509621968736587E-14, 0.000000000000000000 ) ) ;
#799 = ORIENTED_EDGE ( 'NONE', *, *, #750, .F. ) ;
#800 = CARTESIAN_POINT ( 'NONE',  ( 13.85640646055101222, -6.000000000000007105, 8.000000000000000000 ) ) ;
#801 = FACE_OUTER_BOUND ( 'NONE', #27, .T. ) ;
#802 =( NAMED_UNIT ( * ) PLANE_ANGLE_UNIT ( ) SI_UNIT ( $, .RADIAN. ) );
#803 = ORIENTED_EDGE ( 'NONE', *, *, #258, .F. ) ;
#804 = CARTESIAN_POINT ( 'NONE',  ( 24.24871130596427804, -1.482509621968736587E-14, 10.00000000000000000 ) ) ;
#805 = ADVANCED_FACE ( 'NONE', ( #663, #917 ), #495, .F. ) ;
#806 = LINE ( 'NONE', #306, #1022 ) ;
#807 = CARTESIAN_POINT ( 'NONE',  ( -20.35278000163621570, -21.75068301270185955, 5.000000000000000000 ) ) ;
#808 = ORIENTED_EDGE ( 'NONE', *, *, #25, .F. ) ;
#809 = CARTESIAN_POINT ( 'NONE',  ( -20.78460969082653165, 5.999999999999986677, 10.00000000000000000 ) ) ;
#810 = EDGE_CURVE ( 'NONE', #734, #637, #586, .T. ) ;
#811 = DIRECTION ( 'NONE',  ( 0.000000000000000000, 0.000000000000000000, 1.000000000000000000 ) ) ;
#812 = AXIS2_PLACEMENT_3D ( 'NONE', #951, #1006, #184 ) ;
#813 = FACE_OUTER_BOUND ( 'NONE', #955, .T. ) ;
#814 = VECTOR ( 'NONE', #1096, 1000.000000000000000 ) ;
#815 = LINE ( 'NONE', #798, #707 ) ;
#816 = VERTEX_POINT ( 'NONE', #995 ) ;
#817 = DIRECTION ( 'NONE',  ( 0.5000000000000002220, 0.8660254037844384856, 0.000000000000000000 ) ) ;
#818 = CARTESIAN_POINT ( 'NONE',  ( -8.660254037844381969, -15.00000000000000000, 10.00000000000000000 ) ) ;
#819 = ADVANCED_FACE ( 'NONE', ( #80 ), #426, .F. ) ;
#820 = ORIENTED_EDGE ( 'NONE', *, *, #1016, .T. ) ;
#821 = DIRECTION ( 'NONE',  ( -0.8660254037844385966, 0.5000000000000003331, 0.000000000000000000 ) ) ;
#822 = ORIENTED_EDGE ( 'NONE', *, *, #967, .T. ) ;
#823 = CARTESIAN_POINT ( 'NONE',  ( 20.78460969082652099, -6.000000000000014211, 0.000000000000000000 ) ) ;
#824 = EDGE_CURVE ( 'NONE', #474, #1108, #136, .T. ) ;
#825 = EDGE_LOOP ( 'NONE', ( #676, #425 ) ) ;
#826 = DIRECTION ( 'NONE',  ( 0.8660254037844390407, 0.4999999999999992784, 0.000000000000000000 ) ) ;
#827 = PRODUCT_DEFINITION_SHAPE ( 'NONE', 'NONE',  #779 ) ;
#828 = VECTOR ( 'NONE', #918, 1000.000000000000000 ) ;
#829 = DIRECTION ( 'NONE',  ( -1.000000000000000000, 1.001543065824772950E-15, 0.000000000000000000 ) ) ;
#830 = PERSON_AND_ORGANIZATION ( #243, #654 ) ;
#831 = AXIS2_PLACEMENT_3D ( 'NONE', #1082, #323, #240 ) ;
#832 = AXIS2_PLACEMENT_3D ( 'NONE', #614, #453, #19 ) ;
#833 = ORIENTED_EDGE ( 'NONE', *, *, #983, .F. ) ;
#834 = FACE_OUTER_BOUND ( 'NONE', #253, .T. ) ;
#835 = FACE_BOUND ( 'NONE', #173, .T. ) ;
#836 = CARTESIAN_POINT ( 'NONE',  ( -13.85640646055101222, -6.000000000000007105, 8.000000000000000000 ) ) ;
#837 = VERTEX_POINT ( 'NONE', #754 ) ;
#838 = FACE_BOUND ( 'NONE', #369, .T. ) ;
#839 = EDGE_LOOP ( 'NONE', ( #898, #157 ) ) ;
#840 = EDGE_CURVE ( 'NONE', #88, #474, #501, .T. ) ;
#841 = FACE_OUTER_BOUND ( 'NONE', #312, .T. ) ;
#842 = PERSON_AND_ORGANIZATION ( #243, #654 ) ;
#843 = ORIENTED_EDGE ( 'NONE', *, *, #908, .T. ) ;
#844 = DIRECTION ( 'NONE',  ( 1.000000000000000000, 0.000000000000000000, 0.000000000000000000 ) ) ;
#845 = CARTESIAN_POINT ( 'NONE',  ( 8.660254037844383745, -14.99999999999999822, 8.000000000000000000 ) ) ;
#846 = ORIENTED_EDGE ( 'NONE', *, *, #672, .T. ) ;
#847 = AXIS2_PLACEMENT_3D ( 'NONE', #699, #105, #281 ) ;
#848 = CARTESIAN_POINT ( 'NONE',  ( 20.81400660690924909, 0.8721694854078161363, 3.870139693175815854 ) ) ;
#849 = AXIS2_PLACEMENT_3D ( 'NONE', #1041, #530, #961 ) ;
#850 = ORIENTED_EDGE ( 'NONE', *, *, #209, .F. ) ;
#851 = CARTESIAN_POINT ( 'NONE',  ( -13.85640646055102287, 5.999999999999993783, 10.00000000000000000 ) ) ;
#852 = ADVANCED_FACE ( 'NONE', ( #834 ), #669, .F. ) ;
#853 = EDGE_LOOP ( 'NONE', ( #892, #843, #998, #1069 ) ) ;
#854 = CARTESIAN_POINT ( 'NONE',  ( 20.88545340823431573, 0.5028084594998855072, 5.667100874853335135 ) ) ;
#855 = VERTEX_POINT ( 'NONE', #158 ) ;
#856 = ORIENTED_EDGE ( 'NONE', *, *, #263, .F. ) ;
#857 = CARTESIAN_POINT ( 'NONE',  ( 13.72050807568876074, -1.734723475976805517E-15, 10.00000000000000000 ) ) ;
#858 = ORIENTED_EDGE ( 'NONE', *, *, #197, .F. ) ;
#859 = CARTESIAN_POINT ( 'NONE',  ( -13.85640646055101222, -6.000000000000007105, 10.00000000000000000 ) ) ;
#860 = ORIENTED_EDGE ( 'NONE', *, *, #598, .T. ) ;
#861 = CARTESIAN_POINT ( 'NONE',  ( 20.78460969082653165, 5.999999999999986677, 8.000000000000000000 ) ) ;
#862 = VECTOR ( 'NONE', #324, 1000.000000000000000 ) ;
#863 = ORIENTED_EDGE ( 'NONE', *, *, #924, .F. ) ;
#864 = DIRECTION ( 'NONE',  ( -0.000000000000000000, -0.000000000000000000, -1.000000000000000000 ) ) ;
#865 = VECTOR ( 'NONE', #211, 1000.000000000000000 ) ;
#866 = VECTOR ( 'NONE', #208, 1000.000000000000000 ) ;
#867 = EDGE_CURVE ( 'NONE', #1079, #380, #320, .T. ) ;
#868 = VERTEX_POINT ( 'NONE', #758 ) ;
#869 = CARTESIAN_POINT ( 'NONE',  ( 8.660254037844380193, 15.00000000000000000, 0.000000000000000000 ) ) ;
#870 = EDGE_LOOP ( 'NONE', ( #769, #199 ) ) ;
#871 = CARTESIAN_POINT ( 'NONE',  ( 8.660254037844383745, -14.99999999999999822, 0.000000000000000000 ) ) ;
#872 = CC_DESIGN_DATE_AND_TIME_ASSIGNMENT ( #343, #575, ( #484 ) ) ;
#873 = DIRECTION ( 'NONE',  ( 0.000000000000000000, 0.000000000000000000, 1.000000000000000000 ) ) ;
#874 = CARTESIAN_POINT ( 'NONE',  ( -8.660254037844383745, 15.00000000000000000, 8.000000000000000000 ) ) ;
#875 = VERTEX_POINT ( 'NONE', #408 ) ;
#876 = DIRECTION ( 'NONE',  ( 0.5000000000000002220, 0.8660254037844384856, 0.000000000000000000 ) ) ;
#877 = CARTESIAN_POINT ( 'NONE',  ( -13.72050807568877318, -3.078952150393694519E-15, 0.000000000000000000 ) ) ;
#878 = DIRECTION ( 'NONE',  ( 0.000000000000000000, 0.000000000000000000, 1.000000000000000000 ) ) ;
#879 = CARTESIAN_POINT ( 'NONE',  ( 20.78460969082653165, 5.999999999999986677, 10.00000000000000000 ) ) ;
#880 = ORIENTED_EDGE ( 'NONE', *, *, #1003, .T. ) ;
#881 = CARTESIAN_POINT ( 'NONE',  ( -24.24871130596427804, -1.482509621968736587E-14, 0.000000000000000000 ) ) ;
#882 = VECTOR ( 'NONE', #23, 1000.000000000000000 ) ;
#883 = VECTOR ( 'NONE', #876, 1000.000000000000227 ) ;
#884 = VECTOR ( 'NONE', #347, 1000.000000000000000 ) ;
#885 = CARTESIAN_POINT ( 'NONE',  ( -20.88006669945670879, 0.5442922734707661414, 5.759307033695637124 ) ) ;
#886 = PLANE ( 'NONE',  #520 ) ;
#887 = ADVANCED_FACE ( 'NONE', ( #1104 ), #254, .F. ) ;
#888 = EDGE_LOOP ( 'NONE', ( #3, #601, #527, #860 ) ) ;
#889 = DIRECTION ( 'NONE',  ( -0.000000000000000000, -0.000000000000000000, -1.000000000000000000 ) ) ;
#890 = CARTESIAN_POINT ( 'NONE',  ( -20.71913241518422666, 1.190691031635394914, 3.653454493556847371 ) ) ;
#891 = DIRECTION ( 'NONE',  ( -0.5000000000000002220, -0.8660254037844384856, 0.000000000000000000 ) ) ;
#892 = ORIENTED_EDGE ( 'NONE', *, *, #465, .F. ) ;
#893 = CARTESIAN_POINT ( 'NONE',  ( -13.72050807568877318, -3.078952150393694519E-15, 10.00000000000000000 ) ) ;
#894 = EDGE_CURVE ( 'NONE', #88, #1020, #54, .T. ) ;
#895 = PLANE ( 'NONE',  #284 ) ;
#896 = CARTESIAN_POINT ( 'NONE',  ( -20.79481191921343353, 0.9466372013293481436, 3.809213082914560289 ) ) ;
#897 = DIRECTION ( 'NONE',  ( -0.000000000000000000, -0.000000000000000000, -1.000000000000000000 ) ) ;
#898 = ORIENTED_EDGE ( 'NONE', *, *, #580, .T. ) ;
#899 = CARTESIAN_POINT ( 'NONE',  ( -13.85640646055102287, 5.999999999999993783, 8.000000000000000000 ) ) ;
#900 = EDGE_CURVE ( 'NONE', #637, #605, #701, .T. ) ;
#901 = FACE_OUTER_BOUND ( 'NONE', #946, .T. ) ;
#902 = VECTOR ( 'NONE', #229, 1000.000000000000000 ) ;
#903 = DIRECTION ( 'NONE',  ( -0.5000000000000003331, -0.8660254037844383745, 0.000000000000000000 ) ) ;
#904 = PERSON_AND_ORGANIZATION_ROLE ( 'design_supplier' ) ;
#905 = ORIENTED_EDGE ( 'NONE', *, *, #263, .T. ) ;
#906 = CARTESIAN_POINT ( 'NONE',  ( -11.12500000000000178, 0.000000000000000000, 8.000000000000000000 ) ) ;
#907 = DIRECTION ( 'NONE',  ( 0.000000000000000000, 0.000000000000000000, 1.000000000000000000 ) ) ;
#908 = EDGE_CURVE ( 'NONE', #1012, #911, #189, .T. ) ;
#909 = CARTESIAN_POINT ( 'NONE',  ( 20.78460969082653165, 5.999999999999986677, 10.00000000000000000 ) ) ;
#910 = APPROVAL_ROLE ( '' ) ;
#911 = VERTEX_POINT ( 'NONE', #621 ) ;
#912 = PLANE ( 'NONE',  #84 ) ;
#913 = VERTEX_POINT ( 'NONE', #786 ) ;
#914 = DIRECTION ( 'NONE',  ( -0.000000000000000000, -0.000000000000000000, -1.000000000000000000 ) ) ;
#915 = COORDINATED_UNIVERSAL_TIME_OFFSET ( 7, 0, .BEHIND. ) ;
#916 = EDGE_LOOP ( 'NONE', ( #74, #8, #538, #627 ) ) ;
#917 = FACE_OUTER_BOUND ( 'NONE', #544, .T. ) ;
#918 = DIRECTION ( 'NONE',  ( -0.000000000000000000, -0.000000000000000000, -1.000000000000000000 ) ) ;
#919 = DATE_AND_TIME ( #424, #373 ) ;
#920 = VECTOR ( 'NONE', #817, 1000.000000000000227 ) ;
#921 = APPROVAL_PERSON_ORGANIZATION ( #507, #943, #910 ) ;
#922 = VERTEX_POINT ( 'NONE', #857 ) ;
#923 = DIRECTION ( 'NONE',  ( 0.5000000000000006661, -0.8660254037844382635, 0.000000000000000000 ) ) ;
#924 = EDGE_CURVE ( 'NONE', #934, #962, #523, .T. ) ;
#925 = CARTESIAN_POINT ( 'NONE',  ( -8.660254037844383745, 15.00000000000000000, 0.000000000000000000 ) ) ;
#926 = CARTESIAN_POINT ( 'NONE',  ( -23.26666049839540307, 1.700961894323337553, 5.000000000000000888 ) ) ;
#927 = APPROVAL_DATE_TIME ( #156, #218 ) ;
#928 = EDGE_LOOP ( 'NONE', ( #720, #662, #833, #93 ) ) ;
#929 = CARTESIAN_POINT ( 'NONE',  ( 19.44810920642588670, 2.904094602745602494, 5.392012097929340442 ) ) ;
#930 = ORIENTED_EDGE ( 'NONE', *, *, #10, .F. ) ;
#931 = EDGE_CURVE ( 'NONE', #1020, #88, #1049, .T. ) ;
#932 = ORIENTED_EDGE ( 'NONE', *, *, #511, .F. ) ;
#933 = CARTESIAN_POINT ( 'NONE',  ( 13.85640646055101222, -6.000000000000007105, 0.000000000000000000 ) ) ;
#934 = VERTEX_POINT ( 'NONE', #1025 ) ;
#935 = EDGE_CURVE ( 'NONE', #259, #837, #188, .T. ) ;
#936 = DIRECTION ( 'NONE',  ( 0.000000000000000000, 0.000000000000000000, 1.000000000000000000 ) ) ;
#937 = CIRCLE ( 'NONE', #45, 9.000000000000000000 ) ;
#938 = VERTEX_POINT ( 'NONE', #278 ) ;
#939 = CARTESIAN_POINT ( 'NONE',  ( 20.85869685714847321, 0.6667595548237155167, 5.916211227994225830 ) ) ;
#940 = APPLICATION_CONTEXT ( 'configuration controlled 3d designs of mechanical parts and assemblies' ) ;
#941 = AXIS2_PLACEMENT_3D ( 'NONE', #874, #1068, #976 ) ;
#942 = ORIENTED_EDGE ( 'NONE', *, *, #153, .T. ) ;
#943 = APPROVAL ( #1084, 'UNSPECIFIED' ) ;
#944 = LINE ( 'NONE', #766, #185 ) ;
#945 = CARTESIAN_POINT ( 'NONE',  ( 20.84634457441202215, 0.7304892909317226568, 5.990874734543481850 ) ) ;
#946 = EDGE_LOOP ( 'NONE', ( #977, #510, #564, #668 ) ) ;
#947 = FACE_OUTER_BOUND ( 'NONE', #331, .T. ) ;
#948 = ORIENTED_EDGE ( 'NONE', *, *, #824, .T. ) ;
#949 = CARTESIAN_POINT ( 'NONE',  ( 20.88009303716427212, 0.5441337744404566301, 4.240848126360678094 ) ) ;
#950 = ORIENTED_EDGE ( 'NONE', *, *, #894, .F. ) ;
#951 = CARTESIAN_POINT ( 'NONE',  ( 20.35278000163621925, -21.75068301270186666, 5.000000000000000888 ) ) ;
#952 = ORIENTED_EDGE ( 'NONE', *, *, #1102, .F. ) ;
#953 = CARTESIAN_POINT ( 'NONE',  ( 20.87829746751038584, 0.5527049851752261489, 5.754245398045304327 ) ) ;
#954 = VECTOR ( 'NONE', #236, 1000.000000000000000 ) ;
#955 = EDGE_LOOP ( 'NONE', ( #739, #287, #608, #375, #508, #171, #1062, #295, #267, #272, #519, #166, #435, #326 ) ) ;
#956 = DIRECTION ( 'NONE',  ( -0.000000000000000000, -0.000000000000000000, -1.000000000000000000 ) ) ;
#957 = EDGE_CURVE ( 'NONE', #454, #855, #322, .T. ) ;
#958 = CIRCLE ( 'NONE', #391, 9.000000000000000000 ) ;
#959 = CC_DESIGN_SECURITY_CLASSIFICATION ( #484, ( #708 ) ) ;
#960 = CARTESIAN_POINT ( 'NONE',  ( 0.000000000000000000, 0.000000000000000000, 8.000000000000000000 ) ) ;
#961 = DIRECTION ( 'NONE',  ( 1.000000000000000000, 0.000000000000000000, 0.000000000000000000 ) ) ;
#962 = VERTEX_POINT ( 'NONE', #24 ) ;
#963 = LINE ( 'NONE', #611, #602 ) ;
#964 = CARTESIAN_POINT ( 'NONE',  ( -20.48818523070278630, 1.713377886979958076, 6.499946793721115945 ) ) ;
#965 = ORIENTED_EDGE ( 'NONE', *, *, #967, .F. ) ;
#966 = LINE ( 'NONE', #571, #1065 ) ;
#967 = EDGE_CURVE ( 'NONE', #559, #177, #980, .T. ) ;
#968 = CARTESIAN_POINT ( 'NONE',  ( -20.88000667441499658, 0.5447880098819843919, 4.239442284288569951 ) ) ;
#969 = ORIENTED_EDGE ( 'NONE', *, *, #840, .F. ) ;
#970 = DIRECTION ( 'NONE',  ( -1.001543065824772950E-15, 1.000000000000000000, 0.000000000000000000 ) ) ;
#971 = AXIS2_PLACEMENT_3D ( 'NONE', #418, #1007, #50 ) ;
#972 = VECTOR ( 'NONE', #490, 1000.000000000000000 ) ;
#973 = CIRCLE ( 'NONE', #266, 3.599999999999999201 ) ;
#974 = DIRECTION ( 'NONE',  ( 1.000000000000000000, 0.000000000000000000, 0.000000000000000000 ) ) ;
#975 = CARTESIAN_POINT ( 'NONE',  ( -20.22449036884022178, 2.129862437459750790, 6.451091770138223325 ) ) ;
#976 = DIRECTION ( 'NONE',  ( 0.5000000000000004441, 0.8660254037844384856, 0.000000000000000000 ) ) ;
#977 = ORIENTED_EDGE ( 'NONE', *, *, #437, .T. ) ;
#978 = CARTESIAN_POINT ( 'NONE',  ( 9.000000000000000000, 1.102182119232617714E-15, 8.000000000000000000 ) ) ;
#979 = CARTESIAN_POINT ( 'NONE',  ( -20.90467461984245290, 0.3372687115187026907, 5.100363281968951057 ) ) ;
#980 = LINE ( 'NONE', #558, #677 ) ;
#981 = ORIENTED_EDGE ( 'NONE', *, *, #810, .F. ) ;
#982 = CARTESIAN_POINT ( 'NONE',  ( 8.660254037844380193, 15.00000000000000000, 10.00000000000000000 ) ) ;
#983 = EDGE_CURVE ( 'NONE', #590, #246, #307, .T. ) ;
#984 = CARTESIAN_POINT ( 'NONE',  ( 24.24871130596427804, -1.482509621968736587E-14, 0.000000000000000000 ) ) ;
#985 = APPROVAL_DATE_TIME ( #488, #943 ) ;
#986 = ORIENTED_EDGE ( 'NONE', *, *, #867, .T. ) ;
#987 = FACE_OUTER_BOUND ( 'NONE', #385, .T. ) ;
#988 = ADVANCED_FACE ( 'NONE', ( #641 ), #458, .F. ) ;
#989 = AXIS2_PLACEMENT_3D ( 'NONE', #1100, #789, #974 ) ;
#990 = CARTESIAN_POINT ( 'NONE',  ( -20.78460969082653165, 5.999999999999986677, 10.00000000000000000 ) ) ;
#991 = AXIS2_PLACEMENT_3D ( 'NONE', #1015, #332, #923 ) ;
#992 = FACE_BOUND ( 'NONE', #216, .T. ) ;
#993 = CALENDAR_DATE ( 2026, 31, 3 ) ;
#994 = ORIENTED_EDGE ( 'NONE', *, *, #71, .T. ) ;
#995 = CARTESIAN_POINT ( 'NONE',  ( 24.24871130596427804, -1.482509621968736587E-14, 10.00000000000000000 ) ) ;
#996 = DIRECTION ( 'NONE',  ( -0.000000000000000000, -0.000000000000000000, -1.000000000000000000 ) ) ;
#997 = DIRECTION ( 'NONE',  ( 0.000000000000000000, 0.000000000000000000, 1.000000000000000000 ) ) ;
#998 = ORIENTED_EDGE ( 'NONE', *, *, #691, .T. ) ;
#999 = DIRECTION ( 'NONE',  ( -0.5000000000000005551, -0.8660254037844383745, 0.000000000000000000 ) ) ;
#1000 = CARTESIAN_POINT ( 'NONE',  ( -20.35278000163621570, -21.75068301270185955, 5.000000000000000000 ) ) ;
#1001 = LINE ( 'NONE', #584, #828 ) ;
#1002 = DATE_TIME_ROLE ( 'creation_date' ) ;
#1003 = EDGE_CURVE ( 'NONE', #177, #466, #118, .T. ) ;
#1004 = ORIENTED_EDGE ( 'NONE', *, *, #279, .T. ) ;
#1005 = CARTESIAN_POINT ( 'NONE',  ( 0.000000000000000000, 0.000000000000000000, 0.000000000000000000 ) ) ;
#1006 = DIRECTION ( 'NONE',  ( -0.8660254037844390407, 0.4999999999999994449, -0.000000000000000000 ) ) ;
#1007 = DIRECTION ( 'NONE',  ( 0.000000000000000000, 0.000000000000000000, 1.000000000000000000 ) ) ;
#1008 = DIRECTION ( 'NONE',  ( 1.000000000000000000, 0.000000000000000000, 0.000000000000000000 ) ) ;
#1009 = VECTOR ( 'NONE', #303, 1000.000000000000000 ) ;
#1010 = ADVANCED_FACE ( 'NONE', ( #194 ), #886, .F. ) ;
#1011 = AXIS2_PLACEMENT_3D ( 'NONE', #514, #70, #415 ) ;
#1012 = VERTEX_POINT ( 'NONE', #479 ) ;
#1013 = CARTESIAN_POINT ( 'NONE',  ( 19.40467461984246000, 2.935344922872013207, 5.100363281968951945 ) ) ;
#1014 = ORIENTED_EDGE ( 'NONE', *, *, #931, .F. ) ;
#1015 = CARTESIAN_POINT ( 'NONE',  ( 13.85640646055102287, 5.999999999999993783, 8.000000000000000000 ) ) ;
#1016 = EDGE_CURVE ( 'NONE', #517, #711, #815, .T. ) ;
#1017 = LINE ( 'NONE', #1029, #282 ) ;
#1018 = ORIENTED_EDGE ( 'NONE', *, *, #502, .T. ) ;
#1019 = CARTESIAN_POINT ( 'NONE',  ( 19.99177128884499766, 2.414800619949625471, 3.700583300089433703 ) ) ;
#1020 = VERTEX_POINT ( 'NONE', #719 ) ;
#1021 = EDGE_CURVE ( 'NONE', #734, #631, #733, .T. ) ;
#1022 = VECTOR ( 'NONE', #785, 1000.000000000000000 ) ;
#1023 = CARTESIAN_POINT ( 'NONE',  ( -13.85640646055101222, -6.000000000000007105, 0.000000000000000000 ) ) ;
#1024 = CIRCLE ( 'NONE', #134, 3.599999999999999201 ) ;
#1025 = CARTESIAN_POINT ( 'NONE',  ( 20.92050807568875825, -1.293850628283758747E-15, 10.00000000000000000 ) ) ;
#1026 = VECTOR ( 'NONE', #374, 1000.000000000000000 ) ;
#1027 = ORIENTED_EDGE ( 'NONE', *, *, #772, .T. ) ;
#1028 = DIRECTION ( 'NONE',  ( -1.000000000000000000, 0.000000000000000000, 0.000000000000000000 ) ) ;
#1029 = CARTESIAN_POINT ( 'NONE',  ( 13.85640646055102287, 5.999999999999993783, 0.000000000000000000 ) ) ;
#1030 = CARTESIAN_POINT ( 'NONE',  ( -20.16702146367122594, 2.205849433442736096, 3.577893188374113631 ) ) ;
#1031 = CARTESIAN_POINT ( 'NONE',  ( 20.90369421231139668, 0.3481900841792566204, 4.801085027754518286 ) ) ;
#1032 = ORIENTED_EDGE ( 'NONE', *, *, #271, .F. ) ;
#1033 = DIRECTION ( 'NONE',  ( -0.5000000000000003331, -0.8660254037844383745, 0.000000000000000000 ) ) ;
#1034 = DIRECTION ( 'NONE',  ( 1.000000000000000000, 0.000000000000000000, 0.000000000000000000 ) ) ;
#1035 = EDGE_CURVE ( 'NONE', #1020, #1108, #727, .T. ) ;
#1036 = CARTESIAN_POINT ( 'NONE',  ( -20.33470141252643515, 1.970809041900985381, 3.510067894005389988 ) ) ;
#1037 = DIRECTION ( 'NONE',  ( -0.000000000000000000, -0.000000000000000000, -1.000000000000000000 ) ) ;
#1038 = ORIENTED_EDGE ( 'NONE', *, *, #741, .T. ) ;
#1039 = CARTESIAN_POINT ( 'NONE',  ( -17.32050807568877460, -3.519824998086741684E-15, 8.000000000000000000 ) ) ;
#1040 = DIRECTION ( 'NONE',  ( -0.000000000000000000, -0.000000000000000000, -1.000000000000000000 ) ) ;
#1041 = CARTESIAN_POINT ( 'NONE',  ( 0.000000000000000000, 0.000000000000000000, 10.00000000000000000 ) ) ;
#1042 = CLOSED_SHELL ( 'NONE', ( #366, #521, #658, #533, #540, #56, #761, #852, #1010, #1087, #355, #805, #182, #642, #887, #471, #784, #713, #430, #387, #456, #624, #382, #477, #146, #255, #321, #819, #988 ) ) ;
#1043 = EDGE_CURVE ( 'NONE', #711, #14, #32, .T. ) ;
#1044 = AXIS2_PLACEMENT_3D ( 'NONE', #1072, #578, #737 ) ;
#1045 = ORIENTED_EDGE ( 'NONE', *, *, #82, .F. ) ;
#1046 = CYLINDRICAL_SURFACE ( 'NONE', #812, 1.499999999999999778 ) ;
#1047 = AXIS2_PLACEMENT_3D ( 'NONE', #179, #11, #612 ) ;
#1048 = AXIS2_PLACEMENT_3D ( 'NONE', #764, #60, #999 ) ;
#1049 = B_SPLINE_CURVE_WITH_KNOTS ( 'NONE', 3,
 ( #518, #774, #1031, #609, #103, #949, #86, #848, #447, #440, #432, #537, #767, #89, #781, #1106, #6, #436, #1019, #359, #2, #353, #686, #693, #697, #181 ),
 .UNSPECIFIED., .F., .F.,
 ( 4, 2, 2, 2, 2, 2, 2, 2, 2, 2, 2, 2, 4 ),
 ( 0.004744155909255653308, 0.005040429008368328516, 0.005336702107481002856, 0.005929248305706352404, 0.006225521404819026744, 0.006521794503931700217, 0.006818067603044373690, 0.007114340702157047162, 0.007706886900382388036, 0.008003159999495055438, 0.008299433098607722839, 0.008891979296833059376, 0.009484525495058395914 ),
 .UNSPECIFIED. ) ;
#1050 = CARTESIAN_POINT ( 'NONE',  ( -20.74741836421768326, 1.105981492813330691, 3.700583300089433703 ) ) ;
#1051 = LINE ( 'NONE', #879, #726 ) ;
#1052 = EDGE_LOOP ( 'NONE', ( #1004, #142 ) ) ;
#1053 = DIRECTION ( 'NONE',  ( -0.000000000000000000, -0.000000000000000000, -1.000000000000000000 ) ) ;
#1054 = EDGE_CURVE ( 'NONE', #698, #648, #379, .T. ) ;
#1055 = CARTESIAN_POINT ( 'NONE',  ( -20.90369111951862990, 0.3482115845577663515, 5.198788231445369057 ) ) ;
#1056 = CARTESIAN_POINT ( 'NONE',  ( 13.72050807568876252, -1.734723475976805517E-15, 8.000000000000000000 ) ) ;
#1057 = VERTEX_POINT ( 'NONE', #636 ) ;
#1058 = LINE ( 'NONE', #141, #865 ) ;
#1059 = CC_DESIGN_PERSON_AND_ORGANIZATION_ASSIGNMENT ( #842, #760, ( #423 ) ) ;
#1060 = CARTESIAN_POINT ( 'NONE',  ( -20.90124933802809082, 0.3809412844858507396, 4.604755289561667908 ) ) ;
#1061 = DIRECTION ( 'NONE',  ( 0.5000000000000003331, -0.8660254037844384856, 0.000000000000000000 ) ) ;
#1062 = ORIENTED_EDGE ( 'NONE', *, *, #983, .T. ) ;
#1063 = DIRECTION ( 'NONE',  ( -1.000000000000000000, 1.001543065824772950E-15, 0.000000000000000000 ) ) ;
#1064 = VECTOR ( 'NONE', #492, 1000.000000000000000 ) ;
#1065 = VECTOR ( 'NONE', #628, 1000.000000000000000 ) ;
#1066 = LOCAL_TIME ( 22, 32, 52.00000000000000000, #231 ) ;
#1067 = CARTESIAN_POINT ( 'NONE',  ( 13.85640646055102287, 5.999999999999993783, 10.00000000000000000 ) ) ;
#1068 = DIRECTION ( 'NONE',  ( 0.8660254037844384856, -0.5000000000000004441, 0.000000000000000000 ) ) ;
#1069 = ORIENTED_EDGE ( 'NONE', *, *, #65, .F. ) ;
#1070 = CARTESIAN_POINT ( 'NONE',  ( 8.660254037844383745, -14.99999999999999822, 10.00000000000000000 ) ) ;
#1071 = LINE ( 'NONE', #755, #97 ) ;
#1072 = CARTESIAN_POINT ( 'NONE',  ( -22.51666049839540307, 2.999999999999994671, 5.000000000000000888 ) ) ;
#1073 = CARTESIAN_POINT ( 'NONE',  ( 13.85640646055101222, -6.000000000000007105, 0.000000000000000000 ) ) ;
#1074 = EDGE_LOOP ( 'NONE', ( #531, #576, #657, #1085 ) ) ;
#1075 = CARTESIAN_POINT ( 'NONE',  ( 17.32050807568876039, -1.734723475976805517E-15, 10.00000000000000000 ) ) ;
#1076 = CARTESIAN_POINT ( 'NONE',  ( 24.24871130596427804, -1.482509621968736587E-14, 8.000000000000000000 ) ) ;
#1077 = CARTESIAN_POINT ( 'NONE',  ( -19.40467461984244579, 2.935344922872014095, 5.000000000000000888 ) ) ;
#1078 = APPROVAL_STATUS ( 'not_yet_approved' ) ;
#1079 = VERTEX_POINT ( 'NONE', #1073 ) ;
#1080 = CARTESIAN_POINT ( 'NONE',  ( 19.99302900115074522, 2.418879305597637419, 6.308723647237501453 ) ) ;
#1081 = AXIS2_PLACEMENT_3D ( 'NONE', #398, #970, #309 ) ;
#1082 = CARTESIAN_POINT ( 'NONE',  ( 0.000000000000000000, 0.000000000000000000, 0.000000000000000000 ) ) ;
#1083 = DIRECTION ( 'NONE',  ( 0.5000000000000003331, 0.8660254037844383745, 0.000000000000000000 ) ) ;
#1084 = APPROVAL_STATUS ( 'not_yet_approved' ) ;
#1085 = ORIENTED_EDGE ( 'NONE', *, *, #935, .T. ) ;
#1086 = DIRECTION ( 'NONE',  ( 0.000000000000000000, 0.000000000000000000, 1.000000000000000000 ) ) ;
#1087 = ADVANCED_FACE ( 'NONE', ( #389 ), #311, .F. ) ;
#1088 = CYLINDRICAL_SURFACE ( 'NONE', #169, 1.499999999999999778 ) ;
#1089 = CARTESIAN_POINT ( 'NONE',  ( -8.660254037844381969, -15.00000000000000000, 0.000000000000000000 ) ) ;
#1090 = ORIENTED_EDGE ( 'NONE', *, *, #750, .T. ) ;
#1091 = DIRECTION ( 'NONE',  ( 0.8660254037844390407, 0.4999999999999993339, -0.000000000000000000 ) ) ;
#1092 = EDGE_CURVE ( 'NONE', #259, #469, #1051, .T. ) ;
#1093 = LINE ( 'NONE', #487, #301 ) ;
#1094 = APPROVAL_DATE_TIME ( #139, #731 ) ;
#1095 = EDGE_LOOP ( 'NONE', ( #360, #452, #1032, #1018 ) ) ;
#1096 = DIRECTION ( 'NONE',  ( -0.000000000000000000, -0.000000000000000000, -1.000000000000000000 ) ) ;
#1097 = ORIENTED_EDGE ( 'NONE', *, *, #192, .F. ) ;
#1098 = LINE ( 'NONE', #871, #883 ) ;
#1099 = VECTOR ( 'NONE', #107, 1000.000000000000114 ) ;
#1100 = CARTESIAN_POINT ( 'NONE',  ( -17.32050807568877460, -3.519824998086741684E-15, 10.00000000000000000 ) ) ;
#1101 = PERSON_AND_ORGANIZATION ( #243, #654 ) ;
#1102 = EDGE_CURVE ( 'NONE', #922, #352, #792, .T. ) ;
#1103 = EDGE_LOOP ( 'NONE', ( #622, #771, #292, #585 ) ) ;
#1104 = FACE_OUTER_BOUND ( 'NONE', #928, .T. ) ;
#1105 = CARTESIAN_POINT ( 'NONE',  ( -20.53699092091900624, 1.628911983310180833, 3.499971568492567631 ) ) ;
#1106 = CARTESIAN_POINT ( 'NONE',  ( 20.33942865637938979, 1.971099863151140497, 3.499971568492569851 ) ) ;
#1107 = EDGE_CURVE ( 'NONE', #631, #605, #120, .T. ) ;
#1108 = VERTEX_POINT ( 'NONE', #626 ) ;
#1109 = DIRECTION ( 'NONE',  ( -0.000000000000000000, -0.000000000000000000, -1.000000000000000000 ) ) ;
ENDSEC;
END-ISO-10303-21;
