ISO-10303-21;
HEADER;
FILE_DESCRIPTION (( 'STEP AP203' ),
    '1' );
FILE_NAME ('Upper Leg Shaft V.3.STEP',
    '2026-04-09T03:24:31',
    ( '' ),
    ( '' ),
    'SwSTEP 2.0',
    'SolidWorks 2025',
    '' );
FILE_SCHEMA (( 'CONFIG_CONTROL_DESIGN' ));
ENDSEC;

DATA;
#1 = CARTESIAN_POINT ( 'NONE',  ( -4.750000000000000000, 0.000000000000000000, 0.000000000000000000 ) ) ;
#2 = UNCERTAINTY_MEASURE_WITH_UNIT (LENGTH_MEASURE( 1.000000000000000082E-05 ), #277, 'distance_accuracy_value', 'NONE');
#3 = FACE_OUTER_BOUND ( 'NONE', #33, .T. ) ;
#4 = DIRECTION ( 'NONE',  ( -0.000000000000000000, -0.000000000000000000, 1.000000000000000000 ) ) ;
#5 = DIRECTION ( 'NONE',  ( 1.000000000000000000, 0.000000000000000000, 0.000000000000000000 ) ) ;
#6 = CARTESIAN_POINT ( 'NONE',  ( 1.529705854077835658, 1.474999999999999867, 65.00000000000000000 ) ) ;
#7 = CLOSED_SHELL ( 'NONE', ( #140, #232, #318, #96, #77, #212, #68, #246, #255 ) ) ;
#8 = EDGE_CURVE ( 'NONE', #187, #61, #204, .T. ) ;
#9 = COORDINATED_UNIVERSAL_TIME_OFFSET ( 7, 0, .BEHIND. ) ;
#10 = DIRECTION ( 'NONE',  ( 0.000000000000000000, 0.000000000000000000, 1.000000000000000000 ) ) ;
#11 = ORIENTED_EDGE ( 'NONE', *, *, #222, .F. ) ;
#12 = DIRECTION ( 'NONE',  ( -1.000000000000000000, -0.000000000000000000, -0.000000000000000000 ) ) ;
#13 = CARTESIAN_POINT ( 'NONE',  ( 0.000000000000000000, 0.000000000000000000, 0.000000000000000000 ) ) ;
#14 = ORIENTED_EDGE ( 'NONE', *, *, #27, .F. ) ;
#15 = CIRCLE ( 'NONE', #251, 4.750000000000000000 ) ;
#16 = ORIENTED_EDGE ( 'NONE', *, *, #162, .F. ) ;
#17 = PERSON_AND_ORGANIZATION_ROLE ( 'creator' ) ;
#18 = ORIENTED_EDGE ( 'NONE', *, *, #85, .T. ) ;
#19 = COORDINATED_UNIVERSAL_TIME_OFFSET ( 7, 0, .BEHIND. ) ;
#20 = CC_DESIGN_PERSON_AND_ORGANIZATION_ASSIGNMENT ( #205, #31, ( #54 ) ) ;
#21 = ORIENTED_EDGE ( 'NONE', *, *, #188, .F. ) ;
#22 =( GEOMETRIC_REPRESENTATION_CONTEXT ( 3 ) GLOBAL_UNCERTAINTY_ASSIGNED_CONTEXT ( ( #2 ) ) GLOBAL_UNIT_ASSIGNED_CONTEXT ( ( #277, #66, #275 ) ) REPRESENTATION_CONTEXT ( 'NONE', 'WORKASPACE' ) );
#23 = EDGE_LOOP ( 'NONE', ( #11, #103, #184, #21 ) ) ;
#24 = DIRECTION ( 'NONE',  ( 0.000000000000000000, 0.000000000000000000, 1.000000000000000000 ) ) ;
#25 = PRODUCT_DEFINITION ( 'UNKNOWN', '', #115, #241 ) ;
#26 = CYLINDRICAL_SURFACE ( 'NONE', #73, 4.750000000000000000 ) ;
#27 = EDGE_CURVE ( 'NONE', #135, #192, #186, .T. ) ;
#28 = CARTESIAN_POINT ( 'NONE',  ( -1.529705854077835658, 1.474999999999999867, 65.00000000000000000 ) ) ;
#29 = CIRCLE ( 'NONE', #219, 2.125000000000000000 ) ;
#30 = DIRECTION ( 'NONE',  ( 0.000000000000000000, 0.000000000000000000, 1.000000000000000000 ) ) ;
#31 = PERSON_AND_ORGANIZATION_ROLE ( 'design_owner' ) ;
#32 = DIRECTION ( 'NONE',  ( -0.000000000000000000, -0.000000000000000000, -1.000000000000000000 ) ) ;
#33 = EDGE_LOOP ( 'NONE', ( #59, #282, #40, #154 ) ) ;
#34 = DATE_TIME_ROLE ( 'creation_date' ) ;
#35 = ORIENTED_EDGE ( 'NONE', *, *, #27, .T. ) ;
#36 = CALENDAR_DATE ( 2026, 8, 4 ) ;
#37 = ORIENTED_EDGE ( 'NONE', *, *, #152, .T. ) ;
#38 = CC_DESIGN_APPROVAL ( #108, ( #25 ) ) ;
#39 = APPROVAL ( #288, 'UNSPECIFIED' ) ;
#40 = ORIENTED_EDGE ( 'NONE', *, *, #188, .T. ) ;
#41 = AXIS2_PLACEMENT_3D ( 'NONE', #171, #30, #145 ) ;
#42 = ORIENTED_EDGE ( 'NONE', *, *, #85, .F. ) ;
#43 = EDGE_CURVE ( 'NONE', #206, #46, #139, .T. ) ;
#44 = ORIENTED_EDGE ( 'NONE', *, *, #162, .T. ) ;
#45 = DATE_AND_TIME ( #215, #300 ) ;
#46 = VERTEX_POINT ( 'NONE', #189 ) ;
#47 = PLANE ( 'NONE',  #260 ) ;
#48 = DIRECTION ( 'NONE',  ( -1.000000000000000000, -0.000000000000000000, -0.000000000000000000 ) ) ;
#49 = AXIS2_PLACEMENT_3D ( 'NONE', #141, #114, #142 ) ;
#50 = CARTESIAN_POINT ( 'NONE',  ( -1.529705854077835658, 1.474999999999999867, 65.00000000000000000 ) ) ;
#51 = DIRECTION ( 'NONE',  ( -0.000000000000000000, -0.000000000000000000, 1.000000000000000000 ) ) ;
#52 = EDGE_CURVE ( 'NONE', #192, #206, #89, .T. ) ;
#53 = CARTESIAN_POINT ( 'NONE',  ( 0.000000000000000000, 0.000000000000000000, 65.00000000000000000 ) ) ;
#54 = PRODUCT ( 'Upper Leg Shaft V.3', 'Upper Leg Shaft V.3', '', ( #310 ) ) ;
#55 = PLANE ( 'NONE',  #320 ) ;
#56 = CARTESIAN_POINT ( 'NONE',  ( 0.000000000000000000, 0.000000000000000000, 75.00000000000000000 ) ) ;
#57 = VECTOR ( 'NONE', #198, 1000.000000000000000 ) ;
#58 = FACE_OUTER_BOUND ( 'NONE', #23, .T. ) ;
#59 = ORIENTED_EDGE ( 'NONE', *, *, #309, .F. ) ;
#60 = CARTESIAN_POINT ( 'NONE',  ( 0.000000000000000000, 0.000000000000000000, 75.00000000000000000 ) ) ;
#61 = VERTEX_POINT ( 'NONE', #160 ) ;
#62 = PERSON_AND_ORGANIZATION_ROLE ( 'creator' ) ;
#63 = ORIENTED_EDGE ( 'NONE', *, *, #303, .F. ) ;
#64 = DATE_AND_TIME ( #84, #71 ) ;
#65 = ORIENTED_EDGE ( 'NONE', *, *, #43, .F. ) ;
#66 =( NAMED_UNIT ( * ) PLANE_ANGLE_UNIT ( ) SI_UNIT ( $, .RADIAN. ) );
#67 = AXIS2_PLACEMENT_3D ( 'NONE', #287, #243, #90 ) ;
#68 = ADVANCED_FACE ( 'NONE', ( #217 ), #319, .F. ) ;
#69 = DATE_AND_TIME ( #194, #169 ) ;
#70 = DIRECTION ( 'NONE',  ( 1.000000000000000000, 0.000000000000000000, 0.000000000000000000 ) ) ;
#71 = LOCAL_TIME ( 21, 24, 31.00000000000000000, #9 ) ;
#72 = DIRECTION ( 'NONE',  ( 1.000000000000000000, 0.000000000000000000, 0.000000000000000000 ) ) ;
#73 = AXIS2_PLACEMENT_3D ( 'NONE', #323, #252, #97 ) ;
#74 = ORIENTED_EDGE ( 'NONE', *, *, #200, .F. ) ;
#75 = CARTESIAN_POINT ( 'NONE',  ( -2.125000000000000000, 2.602374448188125350E-16, 65.00000000000000000 ) ) ;
#76 = CC_DESIGN_APPROVAL ( #39, ( #213 ) ) ;
#77 = ADVANCED_FACE ( 'NONE', ( #265, #144 ), #47, .T. ) ;
#78 = DIRECTION ( 'NONE',  ( 1.000000000000000000, 0.000000000000000000, 0.000000000000000000 ) ) ;
#79 = CARTESIAN_POINT ( 'NONE',  ( 0.000000000000000000, 0.000000000000000000, 0.000000000000000000 ) ) ;
#80 = DIRECTION ( 'NONE',  ( -0.000000000000000000, 1.000000000000000000, 0.000000000000000000 ) ) ;
#81 = CARTESIAN_POINT ( 'NONE',  ( 0.000000000000000000, 0.000000000000000000, 65.00000000000000000 ) ) ;
#82 = VECTOR ( 'NONE', #32, 1000.000000000000000 ) ;
#83 = LOCAL_TIME ( 21, 24, 31.00000000000000000, #286 ) ;
#84 = CALENDAR_DATE ( 2026, 8, 4 ) ;
#85 = EDGE_CURVE ( 'NONE', #133, #135, #298, .T. ) ;
#86 = EDGE_LOOP ( 'NONE', ( #216, #44, #253, #107 ) ) ;
#87 = VERTEX_POINT ( 'NONE', #301 ) ;
#88 = ORIENTED_EDGE ( 'NONE', *, *, #43, .T. ) ;
#89 = CIRCLE ( 'NONE', #274, 2.125000000000000000 ) ;
#90 = DIRECTION ( 'NONE',  ( 1.000000000000000000, 0.000000000000000000, 0.000000000000000000 ) ) ;
#91 = CARTESIAN_POINT ( 'NONE',  ( 0.000000000000000000, 0.000000000000000000, 65.00000000000000000 ) ) ;
#92 = COORDINATED_UNIVERSAL_TIME_OFFSET ( 7, 0, .BEHIND. ) ;
#93 = DIRECTION ( 'NONE',  ( -0.000000000000000000, -0.000000000000000000, 1.000000000000000000 ) ) ;
#94 = AXIS2_PLACEMENT_3D ( 'NONE', #223, #51, #122 ) ;
#95 = CARTESIAN_POINT ( 'NONE',  ( -2.125000000000000000, 2.602374448188125350E-16, 65.00000000000000000 ) ) ;
#96 = ADVANCED_FACE ( 'NONE', ( #3 ), #26, .T. ) ;
#97 = DIRECTION ( 'NONE',  ( -1.000000000000000000, 0.000000000000000000, 0.000000000000000000 ) ) ;
#98 = FACE_OUTER_BOUND ( 'NONE', #163, .T. ) ;
#99 = LINE ( 'NONE', #168, #136 ) ;
#100 = DIRECTION ( 'NONE',  ( 0.000000000000000000, 0.000000000000000000, 1.000000000000000000 ) ) ;
#101 = CARTESIAN_POINT ( 'NONE',  ( 0.000000000000000000, 0.000000000000000000, 0.000000000000000000 ) ) ;
#102 = CYLINDRICAL_SURFACE ( 'NONE', #294, 4.750000000000000000 ) ;
#103 = ORIENTED_EDGE ( 'NONE', *, *, #309, .T. ) ;
#104 = CARTESIAN_POINT ( 'NONE',  ( 4.750000000000000000, 5.817072295949927426E-16, 0.000000000000000000 ) ) ;
#105 = APPROVAL_PERSON_ORGANIZATION ( #156, #242, #258 ) ;
#106 = PERSON_AND_ORGANIZATION ( #137, #132 ) ;
#107 = ORIENTED_EDGE ( 'NONE', *, *, #278, .F. ) ;
#108 = APPROVAL ( #229, 'UNSPECIFIED' ) ;
#109 = MANIFOLD_SOLID_BREP ( 'Cut-Extrude1', #7 ) ;
#110 = ORIENTED_EDGE ( 'NONE', *, *, #200, .T. ) ;
#111 = ORIENTED_EDGE ( 'NONE', *, *, #267, .F. ) ;
#112 = APPROVAL_DATE_TIME ( #69, #39 ) ;
#113 = DIRECTION ( 'NONE',  ( 0.000000000000000000, 0.000000000000000000, 1.000000000000000000 ) ) ;
#114 = DIRECTION ( 'NONE',  ( 0.000000000000000000, 0.000000000000000000, 1.000000000000000000 ) ) ;
#115 = PRODUCT_DEFINITION_FORMATION_WITH_SPECIFIED_SOURCE ( 'ANY', '', #54, .NOT_KNOWN. ) ;
#116 = DIRECTION ( 'NONE',  ( 1.000000000000000000, 0.000000000000000000, 0.000000000000000000 ) ) ;
#117 = EDGE_CURVE ( 'NONE', #87, #279, #15, .T. ) ;
#118 = VECTOR ( 'NONE', #4, 1000.000000000000000 ) ;
#119 = DIRECTION ( 'NONE',  ( 1.000000000000000000, 0.000000000000000000, 0.000000000000000000 ) ) ;
#120 = CARTESIAN_POINT ( 'NONE',  ( 1.529705854077835658, 1.474999999999999867, 75.00000000000000000 ) ) ;
#121 = CC_DESIGN_PERSON_AND_ORGANIZATION_ASSIGNMENT ( #291, #17, ( #115 ) ) ;
#122 = DIRECTION ( 'NONE',  ( 1.000000000000000000, 0.000000000000000000, 0.000000000000000000 ) ) ;
#123 = AXIS2_PLACEMENT_3D ( 'NONE', #81, #202, #116 ) ;
#124 = CARTESIAN_POINT ( 'NONE',  ( 0.000000000000000000, 0.000000000000000000, 65.00000000000000000 ) ) ;
#125 = APPROVAL_ROLE ( '' ) ;
#126 = PERSON_AND_ORGANIZATION ( #137, #132 ) ;
#127 = EDGE_CURVE ( 'NONE', #130, #295, #297, .T. ) ;
#128 = ORIENTED_EDGE ( 'NONE', *, *, #267, .T. ) ;
#129 = APPROVAL_STATUS ( 'not_yet_approved' ) ;
#130 = VERTEX_POINT ( 'NONE', #1 ) ;
#131 = DIRECTION ( 'NONE',  ( -0.000000000000000000, -0.000000000000000000, 1.000000000000000000 ) ) ;
#132 = ORGANIZATION ( 'UNSPECIFIED', 'UNSPECIFIED', '' ) ;
#133 = VERTEX_POINT ( 'NONE', #95 ) ;
#134 = DATE_AND_TIME ( #238, #83 ) ;
#135 = VERTEX_POINT ( 'NONE', #197 ) ;
#136 = VECTOR ( 'NONE', #247, 1000.000000000000000 ) ;
#137 = PERSON ( 'UNSPECIFIED', 'UNSPECIFIED', 'UNSPECIFIED', ('UNSPECIFIED'), ('UNSPECIFIED'), ('UNSPECIFIED') ) ;
#138 = APPROVAL_DATE_TIME ( #134, #242 ) ;
#139 = LINE ( 'NONE', #290, #228 ) ;
#140 = ADVANCED_FACE ( 'NONE', ( #201 ), #151, .F. ) ;
#141 = CARTESIAN_POINT ( 'NONE',  ( 0.000000000000000000, 0.000000000000000000, 65.00000000000000000 ) ) ;
#142 = DIRECTION ( 'NONE',  ( 1.000000000000000000, 0.000000000000000000, 0.000000000000000000 ) ) ;
#143 = PRODUCT_RELATED_PRODUCT_CATEGORY ( 'detail', '', ( #54 ) ) ;
#144 = FACE_OUTER_BOUND ( 'NONE', #237, .T. ) ;
#145 = DIRECTION ( 'NONE',  ( 1.000000000000000000, 0.000000000000000000, 0.000000000000000000 ) ) ;
#146 = DIRECTION ( 'NONE',  ( 0.000000000000000000, 0.000000000000000000, 1.000000000000000000 ) ) ;
#147 = DIRECTION ( 'NONE',  ( -0.000000000000000000, -0.000000000000000000, 1.000000000000000000 ) ) ;
#148 = VECTOR ( 'NONE', #131, 1000.000000000000000 ) ;
#149 = CARTESIAN_POINT ( 'NONE',  ( 0.000000000000000000, 0.000000000000000000, 65.00000000000000000 ) ) ;
#150 = AXIS2_PLACEMENT_3D ( 'NONE', #91, #93, #72 ) ;
#151 = CYLINDRICAL_SURFACE ( 'NONE', #94, 2.125000000000000000 ) ;
#152 = EDGE_CURVE ( 'NONE', #214, #133, #196, .T. ) ;
#153 = CARTESIAN_POINT ( 'NONE',  ( 4.750000000000000000, 5.817072295949927426E-16, 75.00000000000000000 ) ) ;
#154 = ORIENTED_EDGE ( 'NONE', *, *, #127, .T. ) ;
#155 = COORDINATED_UNIVERSAL_TIME_OFFSET ( 7, 0, .BEHIND. ) ;
#156 = PERSON_AND_ORGANIZATION ( #137, #132 ) ;
#157 = EDGE_LOOP ( 'NONE', ( #111, #65, #240, #14 ) ) ;
#158 = DIRECTION ( 'NONE',  ( 1.000000000000000000, 0.000000000000000000, 0.000000000000000000 ) ) ;
#159 = PERSON_AND_ORGANIZATION ( #137, #132 ) ;
#160 = CARTESIAN_POINT ( 'NONE',  ( 1.529705854077835658, 1.474999999999999867, 65.00000000000000000 ) ) ;
#161 = ADVANCED_BREP_SHAPE_REPRESENTATION ( 'Upper Leg Shaft V.3', ( #109, #272 ), #22 ) ;
#162 = EDGE_CURVE ( 'NONE', #187, #192, #224, .T. ) ;
#163 = EDGE_LOOP ( 'NONE', ( #167, #63 ) ) ;
#164 = AXIS2_PLACEMENT_3D ( 'NONE', #28, #80, #172 ) ;
#165 = ORIENTED_EDGE ( 'NONE', *, *, #8, .T. ) ;
#166 = CIRCLE ( 'NONE', #41, 4.750000000000000000 ) ;
#167 = ORIENTED_EDGE ( 'NONE', *, *, #127, .F. ) ;
#168 = CARTESIAN_POINT ( 'NONE',  ( -1.529705854077835658, 1.474999999999999867, 65.00000000000000000 ) ) ;
#169 = LOCAL_TIME ( 21, 24, 31.00000000000000000, #19 ) ;
#170 = LINE ( 'NONE', #299, #236 ) ;
#171 = CARTESIAN_POINT ( 'NONE',  ( 0.000000000000000000, 0.000000000000000000, 75.00000000000000000 ) ) ;
#172 = DIRECTION ( 'NONE',  ( 0.000000000000000000, -0.000000000000000000, 1.000000000000000000 ) ) ;
#173 = APPROVAL_PERSON_ORGANIZATION ( #126, #108, #125 ) ;
#174 = CARTESIAN_POINT ( 'NONE',  ( 2.125000000000000000, 0.000000000000000000, 65.00000000000000000 ) ) ;
#175 = AXIS2_PLACEMENT_3D ( 'NONE', #302, #221, #305 ) ;
#176 = EDGE_CURVE ( 'NONE', #133, #187, #209, .T. ) ;
#177 = DIRECTION ( 'NONE',  ( -1.000000000000000000, 0.000000000000000000, 0.000000000000000000 ) ) ;
#178 = EDGE_LOOP ( 'NONE', ( #234, #18, #35, #16 ) ) ;
#179 = CC_DESIGN_APPROVAL ( #242, ( #115 ) ) ;
#180 = DIRECTION ( 'NONE',  ( 1.000000000000000000, 0.000000000000000000, 0.000000000000000000 ) ) ;
#181 = ORIENTED_EDGE ( 'NONE', *, *, #152, .F. ) ;
#182 = DIRECTION ( 'NONE',  ( 1.000000000000000000, 0.000000000000000000, 0.000000000000000000 ) ) ;
#183 = APPLICATION_PROTOCOL_DEFINITION ( 'international standard', 'config_control_design', 1994, #266 ) ;
#184 = ORIENTED_EDGE ( 'NONE', *, *, #303, .T. ) ;
#185 = DATE_TIME_ROLE ( 'classification_date' ) ;
#186 = CIRCLE ( 'NONE', #67, 2.125000000000000000 ) ;
#187 = VERTEX_POINT ( 'NONE', #174 ) ;
#188 = EDGE_CURVE ( 'NONE', #87, #130, #170, .T. ) ;
#189 = CARTESIAN_POINT ( 'NONE',  ( -1.529705854077835658, 1.474999999999999867, 75.00000000000000000 ) ) ;
#190 = ORIENTED_EDGE ( 'NONE', *, *, #293, .T. ) ;
#191 = SECURITY_CLASSIFICATION_LEVEL ( 'unclassified' ) ;
#192 = VERTEX_POINT ( 'NONE', #269 ) ;
#193 = VECTOR ( 'NONE', #12, 1000.000000000000000 ) ;
#194 = CALENDAR_DATE ( 2026, 8, 4 ) ;
#195 = DIRECTION ( 'NONE',  ( 1.000000000000000000, 0.000000000000000000, -0.000000000000000000 ) ) ;
#196 = CIRCLE ( 'NONE', #123, 2.125000000000000000 ) ;
#197 = CARTESIAN_POINT ( 'NONE',  ( -2.125000000000000000, 2.602374448188125350E-16, 75.00000000000000000 ) ) ;
#198 = DIRECTION ( 'NONE',  ( -0.000000000000000000, -0.000000000000000000, 1.000000000000000000 ) ) ;
#199 = CC_DESIGN_SECURITY_CLASSIFICATION ( #213, ( #115 ) ) ;
#200 = EDGE_CURVE ( 'NONE', #214, #46, #99, .T. ) ;
#201 = FACE_OUTER_BOUND ( 'NONE', #178, .T. ) ;
#202 = DIRECTION ( 'NONE',  ( 0.000000000000000000, 0.000000000000000000, 1.000000000000000000 ) ) ;
#203 = DIRECTION ( 'NONE',  ( 1.000000000000000000, 0.000000000000000000, -0.000000000000000000 ) ) ;
#204 = CIRCLE ( 'NONE', #49, 2.125000000000000000 ) ;
#205 = PERSON_AND_ORGANIZATION ( #137, #132 ) ;
#206 = VERTEX_POINT ( 'NONE', #120 ) ;
#207 = AXIS2_PLACEMENT_3D ( 'NONE', #53, #147, #5 ) ;
#208 = CARTESIAN_POINT ( 'NONE',  ( -1.529705854077835658, 1.474999999999999867, 65.00000000000000000 ) ) ;
#209 = CIRCLE ( 'NONE', #312, 2.125000000000000000 ) ;
#210 = ORIENTED_EDGE ( 'NONE', *, *, #176, .T. ) ;
#211 = LINE ( 'NONE', #313, #82 ) ;
#212 = ADVANCED_FACE ( 'NONE', ( #98 ), #225, .F. ) ;
#213 = SECURITY_CLASSIFICATION ( '', '', #191 ) ;
#214 = VERTEX_POINT ( 'NONE', #50 ) ;
#215 = CALENDAR_DATE ( 2026, 8, 4 ) ;
#216 = ORIENTED_EDGE ( 'NONE', *, *, #8, .F. ) ;
#217 = FACE_OUTER_BOUND ( 'NONE', #316, .T. ) ;
#218 = DIRECTION ( 'NONE',  ( 0.000000000000000000, 0.000000000000000000, 1.000000000000000000 ) ) ;
#219 = AXIS2_PLACEMENT_3D ( 'NONE', #60, #311, #182 ) ;
#220 = CARTESIAN_POINT ( 'NONE',  ( 2.125000000000000000, 0.000000000000000000, 65.00000000000000000 ) ) ;
#221 = DIRECTION ( 'NONE',  ( 0.000000000000000000, 0.000000000000000000, 1.000000000000000000 ) ) ;
#222 = EDGE_CURVE ( 'NONE', #279, #87, #166, .T. ) ;
#223 = CARTESIAN_POINT ( 'NONE',  ( 0.000000000000000000, 0.000000000000000000, 65.00000000000000000 ) ) ;
#224 = LINE ( 'NONE', #220, #57 ) ;
#225 = PLANE ( 'NONE',  #322 ) ;
#226 = CC_DESIGN_DATE_AND_TIME_ASSIGNMENT ( #45, #185, ( #213 ) ) ;
#227 = CARTESIAN_POINT ( 'NONE',  ( 0.000000000000000000, 0.000000000000000000, 75.00000000000000000 ) ) ;
#228 = VECTOR ( 'NONE', #48, 1000.000000000000000 ) ;
#229 = APPROVAL_STATUS ( 'not_yet_approved' ) ;
#230 = LINE ( 'NONE', #6, #148 ) ;
#231 = ORIENTED_EDGE ( 'NONE', *, *, #222, .T. ) ;
#232 = ADVANCED_FACE ( 'NONE', ( #304 ), #270, .F. ) ;
#233 = DIRECTION ( 'NONE',  ( -0.000000000000000000, -0.000000000000000000, -1.000000000000000000 ) ) ;
#234 = ORIENTED_EDGE ( 'NONE', *, *, #176, .F. ) ;
#235 = CIRCLE ( 'NONE', #306, 4.750000000000000000 ) ;
#236 = VECTOR ( 'NONE', #273, 1000.000000000000000 ) ;
#237 = EDGE_LOOP ( 'NONE', ( #292, #231 ) ) ;
#238 = CALENDAR_DATE ( 2026, 8, 4 ) ;
#239 = PERSON_AND_ORGANIZATION ( #137, #132 ) ;
#240 = ORIENTED_EDGE ( 'NONE', *, *, #52, .F. ) ;
#241 = DESIGN_CONTEXT ( 'detailed design', #308, 'design' ) ;
#242 = APPROVAL ( #129, 'UNSPECIFIED' ) ;
#243 = DIRECTION ( 'NONE',  ( 0.000000000000000000, 0.000000000000000000, 1.000000000000000000 ) ) ;
#244 = CARTESIAN_POINT ( 'NONE',  ( 0.000000000000000000, 0.000000000000000000, 75.00000000000000000 ) ) ;
#245 = DIRECTION ( 'NONE',  ( 1.000000000000000000, 0.000000000000000000, -0.000000000000000000 ) ) ;
#246 = ADVANCED_FACE ( 'NONE', ( #250 ), #248, .F. ) ;
#247 = DIRECTION ( 'NONE',  ( -0.000000000000000000, -0.000000000000000000, 1.000000000000000000 ) ) ;
#248 = PLANE ( 'NONE',  #164 ) ;
#249 = LOCAL_TIME ( 21, 24, 31.00000000000000000, #155 ) ;
#250 = FACE_OUTER_BOUND ( 'NONE', #263, .T. ) ;
#251 = AXIS2_PLACEMENT_3D ( 'NONE', #56, #24, #119 ) ;
#252 = DIRECTION ( 'NONE',  ( -0.000000000000000000, -0.000000000000000000, -1.000000000000000000 ) ) ;
#253 = ORIENTED_EDGE ( 'NONE', *, *, #52, .T. ) ;
#254 = LINE ( 'NONE', #208, #193 ) ;
#255 = ADVANCED_FACE ( 'NONE', ( #271 ), #55, .T. ) ;
#256 = DATE_AND_TIME ( #36, #249 ) ;
#257 = ORIENTED_EDGE ( 'NONE', *, *, #278, .T. ) ;
#258 = APPROVAL_ROLE ( '' ) ;
#259 = SHAPE_DEFINITION_REPRESENTATION ( #280, #161 ) ;
#260 = AXIS2_PLACEMENT_3D ( 'NONE', #244, #218, #195 ) ;
#261 = CC_DESIGN_PERSON_AND_ORGANIZATION_ASSIGNMENT ( #106, #62, ( #25 ) ) ;
#262 = PERSON_AND_ORGANIZATION_ROLE ( 'design_supplier' ) ;
#263 = EDGE_LOOP ( 'NONE', ( #88, #74, #276, #257 ) ) ;
#264 = APPROVAL_ROLE ( '' ) ;
#265 = FACE_BOUND ( 'NONE', #157, .T. ) ;
#266 = APPLICATION_CONTEXT ( 'configuration controlled 3d designs of mechanical parts and assemblies' ) ;
#267 = EDGE_CURVE ( 'NONE', #46, #135, #29, .T. ) ;
#268 = DIRECTION ( 'NONE',  ( 0.000000000000000000, 0.000000000000000000, 1.000000000000000000 ) ) ;
#269 = CARTESIAN_POINT ( 'NONE',  ( 2.125000000000000000, 0.000000000000000000, 75.00000000000000000 ) ) ;
#270 = CYLINDRICAL_SURFACE ( 'NONE', #207, 2.125000000000000000 ) ;
#271 = FACE_OUTER_BOUND ( 'NONE', #284, .T. ) ;
#272 = AXIS2_PLACEMENT_3D ( 'NONE', #101, #10, #158 ) ;
#273 = DIRECTION ( 'NONE',  ( -0.000000000000000000, -0.000000000000000000, -1.000000000000000000 ) ) ;
#274 = AXIS2_PLACEMENT_3D ( 'NONE', #321, #113, #70 ) ;
#275 =( NAMED_UNIT ( * ) SI_UNIT ( $, .STERADIAN. ) SOLID_ANGLE_UNIT ( ) );
#276 = ORIENTED_EDGE ( 'NONE', *, *, #293, .F. ) ;
#277 =( LENGTH_UNIT ( ) NAMED_UNIT ( * ) SI_UNIT ( .MILLI., .METRE. ) );
#278 = EDGE_CURVE ( 'NONE', #61, #206, #230, .T. ) ;
#279 = VERTEX_POINT ( 'NONE', #153 ) ;
#280 = PRODUCT_DEFINITION_SHAPE ( 'NONE', 'NONE',  #25 ) ;
#281 = APPROVAL_DATE_TIME ( #64, #108 ) ;
#282 = ORIENTED_EDGE ( 'NONE', *, *, #117, .F. ) ;
#283 = DIRECTION ( 'NONE',  ( 0.000000000000000000, 0.000000000000000000, 1.000000000000000000 ) ) ;
#284 = EDGE_LOOP ( 'NONE', ( #37, #210, #165, #190 ) ) ;
#285 = CC_DESIGN_DATE_AND_TIME_ASSIGNMENT ( #256, #34, ( #25 ) ) ;
#286 = COORDINATED_UNIVERSAL_TIME_OFFSET ( 7, 0, .BEHIND. ) ;
#287 = CARTESIAN_POINT ( 'NONE',  ( 0.000000000000000000, 0.000000000000000000, 75.00000000000000000 ) ) ;
#288 = APPROVAL_STATUS ( 'not_yet_approved' ) ;
#289 = CC_DESIGN_PERSON_AND_ORGANIZATION_ASSIGNMENT ( #296, #262, ( #115 ) ) ;
#290 = CARTESIAN_POINT ( 'NONE',  ( -1.529705854077835658, 1.474999999999999867, 75.00000000000000000 ) ) ;
#291 = PERSON_AND_ORGANIZATION ( #137, #132 ) ;
#292 = ORIENTED_EDGE ( 'NONE', *, *, #117, .T. ) ;
#293 = EDGE_CURVE ( 'NONE', #61, #214, #254, .T. ) ;
#294 = AXIS2_PLACEMENT_3D ( 'NONE', #227, #233, #177 ) ;
#295 = VERTEX_POINT ( 'NONE', #104 ) ;
#296 = PERSON_AND_ORGANIZATION ( #137, #132 ) ;
#297 = CIRCLE ( 'NONE', #175, 4.750000000000000000 ) ;
#298 = LINE ( 'NONE', #75, #118 ) ;
#299 = CARTESIAN_POINT ( 'NONE',  ( -4.750000000000000000, 0.000000000000000000, 75.00000000000000000 ) ) ;
#300 = LOCAL_TIME ( 21, 24, 31.00000000000000000, #92 ) ;
#301 = CARTESIAN_POINT ( 'NONE',  ( -4.750000000000000000, 0.000000000000000000, 75.00000000000000000 ) ) ;
#302 = CARTESIAN_POINT ( 'NONE',  ( 0.000000000000000000, 0.000000000000000000, 0.000000000000000000 ) ) ;
#303 = EDGE_CURVE ( 'NONE', #295, #130, #235, .T. ) ;
#304 = FACE_OUTER_BOUND ( 'NONE', #86, .T. ) ;
#305 = DIRECTION ( 'NONE',  ( 1.000000000000000000, 0.000000000000000000, 0.000000000000000000 ) ) ;
#306 = AXIS2_PLACEMENT_3D ( 'NONE', #13, #283, #180 ) ;
#307 = APPLICATION_PROTOCOL_DEFINITION ( 'international standard', 'config_control_design', 1994, #308 ) ;
#308 = APPLICATION_CONTEXT ( 'configuration controlled 3d designs of mechanical parts and assemblies' ) ;
#309 = EDGE_CURVE ( 'NONE', #279, #295, #211, .T. ) ;
#310 = MECHANICAL_CONTEXT ( 'NONE', #266, 'mechanical' ) ;
#311 = DIRECTION ( 'NONE',  ( 0.000000000000000000, 0.000000000000000000, 1.000000000000000000 ) ) ;
#312 = AXIS2_PLACEMENT_3D ( 'NONE', #124, #146, #78 ) ;
#313 = CARTESIAN_POINT ( 'NONE',  ( 4.750000000000000000, 5.817072295949927426E-16, 75.00000000000000000 ) ) ;
#314 = APPROVAL_PERSON_ORGANIZATION ( #159, #39, #264 ) ;
#315 = CC_DESIGN_PERSON_AND_ORGANIZATION_ASSIGNMENT ( #239, #317, ( #213 ) ) ;
#316 = EDGE_LOOP ( 'NONE', ( #42, #181, #110, #128 ) ) ;
#317 = PERSON_AND_ORGANIZATION_ROLE ( 'classification_officer' ) ;
#318 = ADVANCED_FACE ( 'NONE', ( #58 ), #102, .T. ) ;
#319 = CYLINDRICAL_SURFACE ( 'NONE', #150, 2.125000000000000000 ) ;
#320 = AXIS2_PLACEMENT_3D ( 'NONE', #149, #100, #203 ) ;
#321 = CARTESIAN_POINT ( 'NONE',  ( 0.000000000000000000, 0.000000000000000000, 75.00000000000000000 ) ) ;
#322 = AXIS2_PLACEMENT_3D ( 'NONE', #79, #268, #245 ) ;
#323 = CARTESIAN_POINT ( 'NONE',  ( 0.000000000000000000, 0.000000000000000000, 75.00000000000000000 ) ) ;
ENDSEC;
END-ISO-10303-21;
