ISO-10303-21;
HEADER;
FILE_DESCRIPTION (( 'STEP AP203' ),
    '1' );
FILE_NAME ('Upper Leg Rod V.3.STEP',
    '2026-04-03T02:17:31',
    ( '' ),
    ( '' ),
    'SwSTEP 2.0',
    'SolidWorks 2025',
    '' );
FILE_SCHEMA (( 'CONFIG_CONTROL_DESIGN' ));
ENDSEC;

DATA;
#1 = PRODUCT ( 'Upper Leg Rod V.3', 'Upper Leg Rod V.3', '', ( #164 ) ) ;
#2 = CC_DESIGN_PERSON_AND_ORGANIZATION_ASSIGNMENT ( #166, #150, ( #1 ) ) ;
#3 = CARTESIAN_POINT ( 'NONE',  ( 0.000000000000000000, 0.000000000000000000, 75.00000000000000000 ) ) ;
#4 =( NAMED_UNIT ( * ) PLANE_ANGLE_UNIT ( ) SI_UNIT ( $, .RADIAN. ) );
#5 = APPROVAL_DATE_TIME ( #97, #24 ) ;
#6 = PERSON_AND_ORGANIZATION ( #27, #88 ) ;
#7 = EDGE_LOOP ( 'NONE', ( #124, #13, #16, #99 ) ) ;
#8 = EDGE_CURVE ( 'NONE', #26, #42, #122, .T. ) ;
#9 = CALENDAR_DATE ( 2026, 2, 4 ) ;
#10 = APPROVAL_STATUS ( 'not_yet_approved' ) ;
#11 = CARTESIAN_POINT ( 'NONE',  ( -3.500000000000000444, 0.000000000000000000, 75.00000000000000000 ) ) ;
#12 = ADVANCED_FACE ( 'NONE', ( #59 ), #147, .T. ) ;
#13 = ORIENTED_EDGE ( 'NONE', *, *, #21, .F. ) ;
#14 = DIRECTION ( 'NONE',  ( 0.000000000000000000, 0.000000000000000000, 1.000000000000000000 ) ) ;
#15 = EDGE_CURVE ( 'NONE', #85, #87, #170, .T. ) ;
#16 = ORIENTED_EDGE ( 'NONE', *, *, #35, .T. ) ;
#17 = PLANE ( 'NONE',  #134 ) ;
#18 = MANIFOLD_SOLID_BREP ( 'Boss-Extrude1', #174 ) ;
#19 =( LENGTH_UNIT ( ) NAMED_UNIT ( * ) SI_UNIT ( .MILLI., .METRE. ) );
#20 = VECTOR ( 'NONE', #158, 1000.000000000000000 ) ;
#21 = EDGE_CURVE ( 'NONE', #87, #85, #115, .T. ) ;
#22 = PERSON_AND_ORGANIZATION ( #27, #88 ) ;
#23 = ORIENTED_EDGE ( 'NONE', *, *, #8, .T. ) ;
#24 = APPROVAL ( #10, 'UNSPECIFIED' ) ;
#25 = DATE_AND_TIME ( #151, #33 ) ;
#26 = VERTEX_POINT ( 'NONE', #74 ) ;
#27 = PERSON ( 'UNSPECIFIED', 'UNSPECIFIED', 'UNSPECIFIED', ('UNSPECIFIED'), ('UNSPECIFIED'), ('UNSPECIFIED') ) ;
#28 = CC_DESIGN_DATE_AND_TIME_ASSIGNMENT ( #168, #144, ( #60 ) ) ;
#29 = CARTESIAN_POINT ( 'NONE',  ( 0.000000000000000000, 0.000000000000000000, 75.00000000000000000 ) ) ;
#30 = LINE ( 'NONE', #11, #20 ) ;
#31 = CARTESIAN_POINT ( 'NONE',  ( 0.000000000000000000, 0.000000000000000000, 75.00000000000000000 ) ) ;
#32 = DIRECTION ( 'NONE',  ( 0.000000000000000000, 0.000000000000000000, 1.000000000000000000 ) ) ;
#33 = LOCAL_TIME ( 20, 17, 31.00000000000000000, #114 ) ;
#34 = PERSON_AND_ORGANIZATION_ROLE ( 'classification_officer' ) ;
#35 = EDGE_CURVE ( 'NONE', #87, #42, #30, .T. ) ;
#36 = LOCAL_TIME ( 20, 17, 31.00000000000000000, #50 ) ;
#37 = APPROVAL_DATE_TIME ( #25, #141 ) ;
#38 = DATE_AND_TIME ( #127, #82 ) ;
#39 = ORIENTED_EDGE ( 'NONE', *, *, #35, .F. ) ;
#40 = AXIS2_PLACEMENT_3D ( 'NONE', #29, #131, #104 ) ;
#41 = APPROVAL ( #73, 'UNSPECIFIED' ) ;
#42 = VERTEX_POINT ( 'NONE', #117 ) ;
#43 = FACE_OUTER_BOUND ( 'NONE', #156, .T. ) ;
#44 = UNCERTAINTY_MEASURE_WITH_UNIT (LENGTH_MEASURE( 1.000000000000000082E-05 ), #19, 'distance_accuracy_value', 'NONE');
#45 = DIRECTION ( 'NONE',  ( -0.000000000000000000, -0.000000000000000000, -1.000000000000000000 ) ) ;
#46 = VECTOR ( 'NONE', #45, 1000.000000000000000 ) ;
#47 = DESIGN_CONTEXT ( 'detailed design', #138, 'design' ) ;
#48 = DIRECTION ( 'NONE',  ( 1.000000000000000000, 0.000000000000000000, 0.000000000000000000 ) ) ;
#49 = CARTESIAN_POINT ( 'NONE',  ( 0.000000000000000000, 0.000000000000000000, 0.000000000000000000 ) ) ;
#50 = COORDINATED_UNIVERSAL_TIME_OFFSET ( 7, 0, .BEHIND. ) ;
#51 = CALENDAR_DATE ( 2026, 2, 4 ) ;
#52 = AXIS2_PLACEMENT_3D ( 'NONE', #49, #95, #110 ) ;
#53 = CALENDAR_DATE ( 2026, 2, 4 ) ;
#54 = CYLINDRICAL_SURFACE ( 'NONE', #64, 3.500000000000000444 ) ;
#55 = CC_DESIGN_APPROVAL ( #141, ( #60 ) ) ;
#56 = PRODUCT_DEFINITION ( 'UNKNOWN', '', #105, #47 ) ;
#57 = DIRECTION ( 'NONE',  ( -0.000000000000000000, -0.000000000000000000, -1.000000000000000000 ) ) ;
#58 = EDGE_LOOP ( 'NONE', ( #112, #75, #23, #39 ) ) ;
#59 = FACE_OUTER_BOUND ( 'NONE', #7, .T. ) ;
#60 = SECURITY_CLASSIFICATION ( '', '', #128 ) ;
#61 = EDGE_CURVE ( 'NONE', #85, #26, #119, .T. ) ;
#62 = COORDINATED_UNIVERSAL_TIME_OFFSET ( 7, 0, .BEHIND. ) ;
#63 = PERSON_AND_ORGANIZATION ( #27, #88 ) ;
#64 = AXIS2_PLACEMENT_3D ( 'NONE', #162, #57, #100 ) ;
#65 = ADVANCED_FACE ( 'NONE', ( #173 ), #54, .T. ) ;
#66 = DIRECTION ( 'NONE',  ( 0.000000000000000000, 0.000000000000000000, 1.000000000000000000 ) ) ;
#67 = AXIS2_PLACEMENT_3D ( 'NONE', #31, #78, #148 ) ;
#68 = CARTESIAN_POINT ( 'NONE',  ( -3.500000000000000444, 0.000000000000000000, 75.00000000000000000 ) ) ;
#69 = AXIS2_PLACEMENT_3D ( 'NONE', #175, #14, #103 ) ;
#70 = DIRECTION ( 'NONE',  ( 0.000000000000000000, 0.000000000000000000, 1.000000000000000000 ) ) ;
#71 = APPROVAL_PERSON_ORGANIZATION ( #155, #141, #98 ) ;
#72 = DATE_TIME_ROLE ( 'creation_date' ) ;
#73 = APPROVAL_STATUS ( 'not_yet_approved' ) ;
#74 = CARTESIAN_POINT ( 'NONE',  ( 3.500000000000000444, 4.286263797015737088E-16, 0.000000000000000000 ) ) ;
#75 = ORIENTED_EDGE ( 'NONE', *, *, #61, .T. ) ;
#76 = DIRECTION ( 'NONE',  ( 1.000000000000000000, 0.000000000000000000, 0.000000000000000000 ) ) ;
#77 = CC_DESIGN_APPROVAL ( #24, ( #56 ) ) ;
#78 = DIRECTION ( 'NONE',  ( 0.000000000000000000, 0.000000000000000000, 1.000000000000000000 ) ) ;
#79 = DIRECTION ( 'NONE',  ( 1.000000000000000000, 0.000000000000000000, -0.000000000000000000 ) ) ;
#80 = EDGE_CURVE ( 'NONE', #42, #26, #161, .T. ) ;
#81 = ADVANCED_BREP_SHAPE_REPRESENTATION ( 'Upper Leg Rod V.3', ( #18, #52 ), #109 ) ;
#82 = LOCAL_TIME ( 20, 17, 31.00000000000000000, #86 ) ;
#83 = COORDINATED_UNIVERSAL_TIME_OFFSET ( 7, 0, .BEHIND. ) ;
#84 = PERSON_AND_ORGANIZATION_ROLE ( 'creator' ) ;
#85 = VERTEX_POINT ( 'NONE', #89 ) ;
#86 = COORDINATED_UNIVERSAL_TIME_OFFSET ( 7, 0, .BEHIND. ) ;
#87 = VERTEX_POINT ( 'NONE', #68 ) ;
#88 = ORGANIZATION ( 'UNSPECIFIED', 'UNSPECIFIED', '' ) ;
#89 = CARTESIAN_POINT ( 'NONE',  ( 3.500000000000000444, 4.286263797015737088E-16, 75.00000000000000000 ) ) ;
#90 = PLANE ( 'NONE',  #152 ) ;
#91 = ORIENTED_EDGE ( 'NONE', *, *, #15, .T. ) ;
#92 = DIRECTION ( 'NONE',  ( 0.000000000000000000, 0.000000000000000000, 1.000000000000000000 ) ) ;
#93 = ADVANCED_FACE ( 'NONE', ( #43 ), #90, .T. ) ;
#94 = FACE_OUTER_BOUND ( 'NONE', #163, .T. ) ;
#95 = DIRECTION ( 'NONE',  ( 0.000000000000000000, 0.000000000000000000, 1.000000000000000000 ) ) ;
#96 = LOCAL_TIME ( 20, 17, 31.00000000000000000, #83 ) ;
#97 = DATE_AND_TIME ( #9, #36 ) ;
#98 = APPROVAL_ROLE ( '' ) ;
#99 = ORIENTED_EDGE ( 'NONE', *, *, #80, .T. ) ;
#100 = DIRECTION ( 'NONE',  ( -1.000000000000000000, 0.000000000000000000, 0.000000000000000000 ) ) ;
#101 = LOCAL_TIME ( 20, 17, 31.00000000000000000, #62 ) ;
#102 = PRODUCT_RELATED_PRODUCT_CATEGORY ( 'detail', '', ( #1 ) ) ;
#103 = DIRECTION ( 'NONE',  ( 1.000000000000000000, 0.000000000000000000, 0.000000000000000000 ) ) ;
#104 = DIRECTION ( 'NONE',  ( -1.000000000000000000, 0.000000000000000000, 0.000000000000000000 ) ) ;
#105 = PRODUCT_DEFINITION_FORMATION_WITH_SPECIFIED_SOURCE ( 'ANY', '', #1, .NOT_KNOWN. ) ;
#106 = ORIENTED_EDGE ( 'NONE', *, *, #21, .T. ) ;
#107 = APPLICATION_PROTOCOL_DEFINITION ( 'international standard', 'config_control_design', 1994, #149 ) ;
#108 = CARTESIAN_POINT ( 'NONE',  ( 0.000000000000000000, 0.000000000000000000, 0.000000000000000000 ) ) ;
#109 =( GEOMETRIC_REPRESENTATION_CONTEXT ( 3 ) GLOBAL_UNCERTAINTY_ASSIGNED_CONTEXT ( ( #44 ) ) GLOBAL_UNIT_ASSIGNED_CONTEXT ( ( #19, #4, #136 ) ) REPRESENTATION_CONTEXT ( 'NONE', 'WORKASPACE' ) );
#110 = DIRECTION ( 'NONE',  ( 1.000000000000000000, 0.000000000000000000, 0.000000000000000000 ) ) ;
#111 = PERSON_AND_ORGANIZATION_ROLE ( 'design_supplier' ) ;
#112 = ORIENTED_EDGE ( 'NONE', *, *, #15, .F. ) ;
#113 = APPROVAL_ROLE ( '' ) ;
#114 = COORDINATED_UNIVERSAL_TIME_OFFSET ( 7, 0, .BEHIND. ) ;
#115 = CIRCLE ( 'NONE', #67, 3.500000000000000444 ) ;
#116 = SHAPE_DEFINITION_REPRESENTATION ( #135, #81 ) ;
#117 = CARTESIAN_POINT ( 'NONE',  ( -3.500000000000000444, 0.000000000000000000, 0.000000000000000000 ) ) ;
#118 = AXIS2_PLACEMENT_3D ( 'NONE', #121, #66, #48 ) ;
#119 = LINE ( 'NONE', #133, #46 ) ;
#120 = CC_DESIGN_PERSON_AND_ORGANIZATION_ASSIGNMENT ( #6, #123, ( #105 ) ) ;
#121 = CARTESIAN_POINT ( 'NONE',  ( 0.000000000000000000, 0.000000000000000000, 0.000000000000000000 ) ) ;
#122 = CIRCLE ( 'NONE', #118, 3.500000000000000444 ) ;
#123 = PERSON_AND_ORGANIZATION_ROLE ( 'creator' ) ;
#124 = ORIENTED_EDGE ( 'NONE', *, *, #61, .F. ) ;
#125 = APPROVAL_DATE_TIME ( #169, #41 ) ;
#126 = CC_DESIGN_PERSON_AND_ORGANIZATION_ASSIGNMENT ( #172, #34, ( #60 ) ) ;
#127 = CALENDAR_DATE ( 2026, 2, 4 ) ;
#128 = SECURITY_CLASSIFICATION_LEVEL ( 'unclassified' ) ;
#129 = APPROVAL_PERSON_ORGANIZATION ( #140, #41, #153 ) ;
#130 = CC_DESIGN_SECURITY_CLASSIFICATION ( #60, ( #105 ) ) ;
#131 = DIRECTION ( 'NONE',  ( -0.000000000000000000, -0.000000000000000000, -1.000000000000000000 ) ) ;
#132 = CC_DESIGN_DATE_AND_TIME_ASSIGNMENT ( #38, #72, ( #56 ) ) ;
#133 = CARTESIAN_POINT ( 'NONE',  ( 3.500000000000000444, 4.286263797015737088E-16, 75.00000000000000000 ) ) ;
#134 = AXIS2_PLACEMENT_3D ( 'NONE', #108, #70, #165 ) ;
#135 = PRODUCT_DEFINITION_SHAPE ( 'NONE', 'NONE',  #56 ) ;
#136 =( NAMED_UNIT ( * ) SI_UNIT ( $, .STERADIAN. ) SOLID_ANGLE_UNIT ( ) );
#137 = APPLICATION_PROTOCOL_DEFINITION ( 'international standard', 'config_control_design', 1994, #138 ) ;
#138 = APPLICATION_CONTEXT ( 'configuration controlled 3d designs of mechanical parts and assemblies' ) ;
#139 = APPROVAL_PERSON_ORGANIZATION ( #143, #24, #113 ) ;
#140 = PERSON_AND_ORGANIZATION ( #27, #88 ) ;
#141 = APPROVAL ( #171, 'UNSPECIFIED' ) ;
#142 = AXIS2_PLACEMENT_3D ( 'NONE', #146, #92, #76 ) ;
#143 = PERSON_AND_ORGANIZATION ( #27, #88 ) ;
#144 = DATE_TIME_ROLE ( 'classification_date' ) ;
#145 = CC_DESIGN_APPROVAL ( #41, ( #105 ) ) ;
#146 = CARTESIAN_POINT ( 'NONE',  ( 0.000000000000000000, 0.000000000000000000, 75.00000000000000000 ) ) ;
#147 = CYLINDRICAL_SURFACE ( 'NONE', #40, 3.500000000000000444 ) ;
#148 = DIRECTION ( 'NONE',  ( 1.000000000000000000, 0.000000000000000000, 0.000000000000000000 ) ) ;
#149 = APPLICATION_CONTEXT ( 'configuration controlled 3d designs of mechanical parts and assemblies' ) ;
#150 = PERSON_AND_ORGANIZATION_ROLE ( 'design_owner' ) ;
#151 = CALENDAR_DATE ( 2026, 2, 4 ) ;
#152 = AXIS2_PLACEMENT_3D ( 'NONE', #3, #32, #79 ) ;
#153 = APPROVAL_ROLE ( '' ) ;
#154 = CC_DESIGN_PERSON_AND_ORGANIZATION_ASSIGNMENT ( #22, #84, ( #56 ) ) ;
#155 = PERSON_AND_ORGANIZATION ( #27, #88 ) ;
#156 = EDGE_LOOP ( 'NONE', ( #106, #91 ) ) ;
#157 = ADVANCED_FACE ( 'NONE', ( #94 ), #17, .F. ) ;
#158 = DIRECTION ( 'NONE',  ( -0.000000000000000000, -0.000000000000000000, -1.000000000000000000 ) ) ;
#159 = CC_DESIGN_PERSON_AND_ORGANIZATION_ASSIGNMENT ( #63, #111, ( #105 ) ) ;
#160 = ORIENTED_EDGE ( 'NONE', *, *, #80, .F. ) ;
#161 = CIRCLE ( 'NONE', #69, 3.500000000000000444 ) ;
#162 = CARTESIAN_POINT ( 'NONE',  ( 0.000000000000000000, 0.000000000000000000, 75.00000000000000000 ) ) ;
#163 = EDGE_LOOP ( 'NONE', ( #160, #167 ) ) ;
#164 = MECHANICAL_CONTEXT ( 'NONE', #149, 'mechanical' ) ;
#165 = DIRECTION ( 'NONE',  ( 1.000000000000000000, 0.000000000000000000, -0.000000000000000000 ) ) ;
#166 = PERSON_AND_ORGANIZATION ( #27, #88 ) ;
#167 = ORIENTED_EDGE ( 'NONE', *, *, #8, .F. ) ;
#168 = DATE_AND_TIME ( #53, #101 ) ;
#169 = DATE_AND_TIME ( #51, #96 ) ;
#170 = CIRCLE ( 'NONE', #142, 3.500000000000000444 ) ;
#171 = APPROVAL_STATUS ( 'not_yet_approved' ) ;
#172 = PERSON_AND_ORGANIZATION ( #27, #88 ) ;
#173 = FACE_OUTER_BOUND ( 'NONE', #58, .T. ) ;
#174 = CLOSED_SHELL ( 'NONE', ( #65, #12, #93, #157 ) ) ;
#175 = CARTESIAN_POINT ( 'NONE',  ( 0.000000000000000000, 0.000000000000000000, 0.000000000000000000 ) ) ;
ENDSEC;
END-ISO-10303-21;
