ISO-10303-21;
HEADER;
FILE_DESCRIPTION (( 'STEP AP203' ),
    '1' );
FILE_NAME ('UnivJointInner.STEP',
    '2026-04-05T18:07:28',
    ( '' ),
    ( '' ),
    'SwSTEP 2.0',
    'SolidWorks 2025',
    '' );
FILE_SCHEMA (( 'CONFIG_CONTROL_DESIGN' ));
ENDSEC;

DATA;
#1 =( LENGTH_UNIT ( ) NAMED_UNIT ( * ) SI_UNIT ( .MILLI., .METRE. ) );
#2 = CARTESIAN_POINT ( 'NONE',  ( -4.864451089275116047, 1.161097316986538841, 6.259016737282149911 ) ) ;
#3 =( BOUNDED_CURVE ( )  B_SPLINE_CURVE ( 3, ( #573, #520, #482, #80 ),
 .UNSPECIFIED., .F., .T. ) 
 B_SPLINE_CURVE_WITH_KNOTS ( ( 4, 4 ),
 ( 3.141592653589793116, 4.712388980384689674 ),
 .UNSPECIFIED. ) 
 CURVE ( )  GEOMETRIC_REPRESENTATION_ITEM ( )  RATIONAL_B_SPLINE_CURVE ( ( 1.000000000000000000, 0.8047378541243649375, 0.8047378541243649375, 1.000000000000000000 ) ) 
 REPRESENTATION_ITEM ( '' )  );
#4 = EDGE_LOOP ( 'NONE', ( #67, #221, #416, #447, #150, #239, #463, #331 ) ) ;
#5 = CARTESIAN_POINT ( 'NONE',  ( -4.995209648305409367, -0.2512701655257315037, 6.637497515476556309 ) ) ;
#6 = EDGE_CURVE ( 'NONE', #215, #543, #402, .T. ) ;
#7 = VERTEX_POINT ( 'NONE', #77 ) ;
#8 = MECHANICAL_CONTEXT ( 'NONE', #154, 'mechanical' ) ;
#9 = DIRECTION ( 'NONE',  ( 1.000000000000000000, -0.000000000000000000, -0.000000000000000000 ) ) ;
#10 = PERSON ( 'UNSPECIFIED', 'UNSPECIFIED', 'UNSPECIFIED', ('UNSPECIFIED'), ('UNSPECIFIED'), ('UNSPECIFIED') ) ;
#11 = ORIENTED_EDGE ( 'NONE', *, *, #528, .F. ) ;
#12 = AXIS2_PLACEMENT_3D ( 'NONE', #83, #425, #20 ) ;
#13 = FACE_OUTER_BOUND ( 'NONE', #323, .T. ) ;
#14 = APPROVAL_PERSON_ORGANIZATION ( #294, #335, #123 ) ;
#15 = CARTESIAN_POINT ( 'NONE',  ( -1.112994231491118979, 1.899999999999999467, 3.637005768508880799 ) ) ;
#16 = EDGE_LOOP ( 'NONE', ( #196, #198, #334, #459, #368 ) ) ;
#17 = AXIS2_PLACEMENT_3D ( 'NONE', #190, #572, #314 ) ;
#18 = CARTESIAN_POINT ( 'NONE',  ( 1.899999999999999911, 0.000000000000000000, 2.850000000000000533 ) ) ;
#19 = EDGE_LOOP ( 'NONE', ( #379, #377 ) ) ;
#20 = DIRECTION ( 'NONE',  ( 1.000000000000000000, 0.000000000000000000, -0.000000000000000000 ) ) ;
#21 = CARTESIAN_POINT ( 'NONE',  ( -4.980473995792970676, -0.4993796377391133690, 2.899809324968493751 ) ) ;
#22 = EDGE_LOOP ( 'NONE', ( #136, #274, #338, #453, #270 ) ) ;
#23 = CARTESIAN_POINT ( 'NONE',  ( 1.899999999999999467, -1.112994231491119423, 2.850000000000000089 ) ) ;
#24 = LOCAL_TIME ( 12, 7, 28.00000000000000000, #253 ) ;
#25 = DIRECTION ( 'NONE',  ( 0.000000000000000000, 0.000000000000000000, 1.000000000000000000 ) ) ;
#26 = ADVANCED_FACE ( 'NONE', ( #205 ), #75, .F. ) ;
#27 = COORDINATED_UNIVERSAL_TIME_OFFSET ( 7, 0, .BEHIND. ) ;
#28 = CARTESIAN_POINT ( 'NONE',  ( 0.000000000000000000, -1.899999999999999911, 4.750000000000000000 ) ) ;
#29 = CARTESIAN_POINT ( 'NONE',  ( -1.899999999999999911, 2.326828918379971365E-16, 2.850000000000000533 ) ) ;
#30 = APPROVAL_STATUS ( 'not_yet_approved' ) ;
#31 = CARTESIAN_POINT ( 'NONE',  ( 4.721479231380760311, 1.647066511565805635, 5.705130969931411222 ) ) ;
#32 = CARTESIAN_POINT ( 'NONE',  ( -1.899999999999999911, 2.326828918379971365E-16, 6.649999999999999467 ) ) ;
#33 = CARTESIAN_POINT ( 'NONE',  ( -5.000000000000000000, 0.1268235642511903460, 2.850000000000000089 ) ) ;
#34 = CC_DESIGN_PERSON_AND_ORGANIZATION_ASSIGNMENT ( #249, #164, ( #349 ) ) ;
#35 = ORIENTED_EDGE ( 'NONE', *, *, #311, .F. ) ;
#36 = FACE_OUTER_BOUND ( 'NONE', #16, .T. ) ;
#37 = AXIS2_PLACEMENT_3D ( 'NONE', #549, #189, #508 ) ;
#38 = VERTEX_POINT ( 'NONE', #423 ) ;
#39 = CC_DESIGN_SECURITY_CLASSIFICATION ( #541, ( #349 ) ) ;
#40 = CARTESIAN_POINT ( 'NONE',  ( 1.899999999999999911, 0.000000000000000000, 6.649999999999999467 ) ) ;
#41 = CARTESIAN_POINT ( 'NONE',  ( -4.864426361370187024, 1.161218195254173136, 3.241058111551387011 ) ) ;
#42 = CARTESIAN_POINT ( 'NONE',  ( -5.000000000000000000, 0.000000000000000000, 9.500000000000000000 ) ) ;
#43 = VECTOR ( 'NONE', #178, 1000.000000000000000 ) ;
#44 = VERTEX_POINT ( 'NONE', #202 ) ;
#45 = CYLINDRICAL_SURFACE ( 'NONE', #194, 5.000000000000000000 ) ;
#46 = CARTESIAN_POINT ( 'NONE',  ( -1.899999999999999911, 2.326828918379971365E-16, 0.000000000000000000 ) ) ;
#47 = CARTESIAN_POINT ( 'NONE',  ( 0.000000000000000000, 0.000000000000000000, 9.500000000000000000 ) ) ;
#48 = ORIENTED_EDGE ( 'NONE', *, *, #267, .T. ) ;
#49 = CARTESIAN_POINT ( 'NONE',  ( 4.791968458344113557, -1.430111870303541144, 6.006961065175065784 ) ) ;
#50 = DIRECTION ( 'NONE',  ( 1.000000000000000000, -0.000000000000000000, -0.000000000000000000 ) ) ;
#51 = CARTESIAN_POINT ( 'NONE',  ( 1.899999999999999911, 0.000000000000000000, 6.649999999999999467 ) ) ;
#52 = CARTESIAN_POINT ( 'NONE',  ( -4.929455661925935317, 0.8448717225078795634, 6.456315866129363812 ) ) ;
#53 = ORIENTED_EDGE ( 'NONE', *, *, #476, .F. ) ;
#54 = DIRECTION ( 'NONE',  ( 0.000000000000000000, 0.000000000000000000, 1.000000000000000000 ) ) ;
#55 = CARTESIAN_POINT ( 'NONE',  ( -4.767652200314562272, -1.508236490272513164, 3.587877209282304580 ) ) ;
#56 = EDGE_CURVE ( 'NONE', #147, #181, #251, .T. ) ;
#57 = ORIENTED_EDGE ( 'NONE', *, *, #458, .T. ) ;
#58 = PERSON_AND_ORGANIZATION_ROLE ( 'design_owner' ) ;
#59 = CARTESIAN_POINT ( 'NONE',  ( 4.929238693104511349, 0.8462177024793242630, 6.455696360569527670 ) ) ;
#60 = FACE_OUTER_BOUND ( 'NONE', #548, .T. ) ;
#61 = DIRECTION ( 'NONE',  ( -0.000000000000000000, -0.000000000000000000, 1.000000000000000000 ) ) ;
#62 = ORIENTED_EDGE ( 'NONE', *, *, #554, .T. ) ;
#63 = LINE ( 'NONE', #286, #561 ) ;
#64 = CARTESIAN_POINT ( 'NONE',  ( -1.899999999999999911, 2.326828918379971365E-16, 6.649999999999999467 ) ) ;
#65 = ORIENTED_EDGE ( 'NONE', *, *, #414, .F. ) ;
#66 = CARTESIAN_POINT ( 'NONE',  ( 1.899999999999999911, 0.000000000000000000, 9.500000000000000000 ) ) ;
#67 = ORIENTED_EDGE ( 'NONE', *, *, #87, .F. ) ;
#68 = CARTESIAN_POINT ( 'NONE',  ( 5.000000000000000000, 6.122730038989144949E-16, 6.649999999999999467 ) ) ;
#69 = CARTESIAN_POINT ( 'NONE',  ( 4.929133704699253826, -0.8468264270776508784, 3.044606069248168456 ) ) ;
#70 = AXIS2_PLACEMENT_3D ( 'NONE', #488, #135, #265 ) ;
#71 = CARTESIAN_POINT ( 'NONE',  ( 4.630154553467166423, -1.887423952531500193, 5.001421901561959871 ) ) ;
#72 = CC_DESIGN_APPROVAL ( #98, ( #349 ) ) ;
#73 = CARTESIAN_POINT ( 'NONE',  ( -1.112994231491118757, -1.899999999999999467, 5.862994231491119201 ) ) ;
#74 = CIRCLE ( 'NONE', #444, 1.899999999999999911 ) ;
#75 = CYLINDRICAL_SURFACE ( 'NONE', #84, 1.899999999999999689 ) ;
#76 = CARTESIAN_POINT ( 'NONE',  ( 4.840565070180460339, 1.255834493714044653, 3.318892843750364197 ) ) ;
#77 = CARTESIAN_POINT ( 'NONE',  ( 1.899999999999999911, 0.000000000000000000, 6.649999999999999467 ) ) ;
#78 = CARTESIAN_POINT ( 'NONE',  ( -4.791968458344113557, 1.430111870303542476, 6.006961065175062231 ) ) ;
#79 = CARTESIAN_POINT ( 'NONE',  ( -5.000000000000000000, 0.000000000000000000, 9.500000000000000000 ) ) ;
#80 = CARTESIAN_POINT ( 'NONE',  ( 0.000000000000000000, -1.899999999999999911, 4.750000000000000000 ) ) ;
#81 = SHAPE_DEFINITION_REPRESENTATION ( #240, #455 ) ;
#82 = DIRECTION ( 'NONE',  ( -0.000000000000000000, -0.000000000000000000, -1.000000000000000000 ) ) ;
#83 = CARTESIAN_POINT ( 'NONE',  ( 0.000000000000000000, 0.000000000000000000, 0.000000000000000000 ) ) ;
#84 = AXIS2_PLACEMENT_3D ( 'NONE', #166, #117, #247 ) ;
#85 = LINE ( 'NONE', #79, #370 ) ;
#86 = VECTOR ( 'NONE', #386, 1000.000000000000000 ) ;
#87 = EDGE_CURVE ( 'NONE', #505, #147, #159, .T. ) ;
#88 = LINE ( 'NONE', #356, #296 ) ;
#89 = CARTESIAN_POINT ( 'NONE',  ( 0.000000000000000000, 0.000000000000000000, 0.000000000000000000 ) ) ;
#90 = CARTESIAN_POINT ( 'NONE',  ( 0.000000000000000000, 0.000000000000000000, 9.500000000000000000 ) ) ;
#91 = CARTESIAN_POINT ( 'NONE',  ( -4.624981327935342890, -1.899880978573899926, 4.498644197986548576 ) ) ;
#92 = ORIENTED_EDGE ( 'NONE', *, *, #437, .T. ) ;
#93 = CARTESIAN_POINT ( 'NONE',  ( 4.840558970334442712, -1.255854498762774663, 6.181083700866733643 ) ) ;
#94 = CARTESIAN_POINT ( 'NONE',  ( 1.899999999999999911, 0.000000000000000000, 2.850000000000000533 ) ) ;
#95 = EDGE_LOOP ( 'NONE', ( #409, #434, #106, #153, #65 ) ) ;
#96 = CARTESIAN_POINT ( 'NONE',  ( 0.000000000000000000, 0.000000000000000000, 0.000000000000000000 ) ) ;
#97 = LOCAL_TIME ( 12, 7, 28.00000000000000000, #161 ) ;
#98 = APPROVAL ( #30, 'UNSPECIFIED' ) ;
#99 = CARTESIAN_POINT ( 'NONE',  ( -5.000000000000000000, 5.039564055623705232E-20, 6.649999999999999467 ) ) ;
#100 = ORIENTED_EDGE ( 'NONE', *, *, #332, .F. ) ;
#101 = CALENDAR_DATE ( 2026, 5, 4 ) ;
#102 = AXIS2_PLACEMENT_3D ( 'NONE', #96, #54, #521 ) ;
#103 = CARTESIAN_POINT ( 'NONE',  ( 4.963202590595387598, 0.6165213202276857984, 6.551495472143695764 ) ) ;
#104 = DIRECTION ( 'NONE',  ( 0.000000000000000000, 0.000000000000000000, 1.000000000000000000 ) ) ;
#105 = CARTESIAN_POINT ( 'NONE',  ( -4.840558970334444489, 1.255854498762775773, 6.181083700866733643 ) ) ;
#106 = ORIENTED_EDGE ( 'NONE', *, *, #6, .F. ) ;
#107 = ADVANCED_FACE ( 'NONE', ( #315 ), #279, .F. ) ;
#108 = CARTESIAN_POINT ( 'NONE',  ( 4.976865045337225624, -0.4958291962882637738, 2.911603181591643441 ) ) ;
#109 = ADVANCED_FACE ( 'NONE', ( #303 ), #175, .F. ) ;
#110 = ORIENTED_EDGE ( 'NONE', *, *, #381, .T. ) ;
#111 = CARTESIAN_POINT ( 'NONE',  ( 4.649874409835400790, -1.838305833733937078, 5.246199366015750876 ) ) ;
#112 = VERTEX_POINT ( 'NONE', #398 ) ;
#113 = CARTESIAN_POINT ( 'NONE',  ( 0.000000000000000000, 1.899999999999999911, 4.750000000000000000 ) ) ;
#114 = EDGE_CURVE ( 'NONE', #181, #543, #309, .T. ) ;
#115 = CARTESIAN_POINT ( 'NONE',  ( 4.767493339562506982, -1.517705859886212760, 3.580898645056901142 ) ) ;
#116 = DATE_TIME_ROLE ( 'creation_date' ) ;
#117 = DIRECTION ( 'NONE',  ( 1.000000000000000000, -0.000000000000000000, -0.000000000000000000 ) ) ;
#118 = SECURITY_CLASSIFICATION_LEVEL ( 'unclassified' ) ;
#119 = DIRECTION ( 'NONE',  ( -0.000000000000000000, -0.000000000000000000, 1.000000000000000000 ) ) ;
#120 = CARTESIAN_POINT ( 'NONE',  ( 5.000000000000000000, 0.000000000000000000, 2.850000000000000089 ) ) ;
#121 = APPROVAL_DATE_TIME ( #385, #98 ) ;
#122 = CARTESIAN_POINT ( 'NONE',  ( 4.700064062993478231, 1.706459881639959875, 5.594686695095002271 ) ) ;
#123 = APPROVAL_ROLE ( '' ) ;
#124 = CARTESIAN_POINT ( 'NONE',  ( -1.899999999999999911, 2.326828918379971365E-16, 0.000000000000000000 ) ) ;
#125 = EDGE_CURVE ( 'NONE', #288, #215, #3, .T. ) ;
#126 = EDGE_CURVE ( 'NONE', #492, #546, #160, .T. ) ;
#127 = CARTESIAN_POINT ( 'NONE',  ( 4.721788662162098582, 1.646206743890718638, 3.793281625731085960 ) ) ;
#128 = CARTESIAN_POINT ( 'NONE',  ( 0.000000000000000000, 0.000000000000000000, 0.000000000000000000 ) ) ;
#129 = CARTESIAN_POINT ( 'NONE',  ( 5.000000000000000000, 6.123233995736766282E-16, 9.500000000000000000 ) ) ;
#130 = CARTESIAN_POINT ( 'NONE',  ( -4.929238693104512237, -0.8462177024793237079, 6.455696360569530334 ) ) ;
#131 = DIRECTION ( 'NONE',  ( 0.000000000000000000, 0.000000000000000000, 1.000000000000000000 ) ) ;
#132 = EDGE_LOOP ( 'NONE', ( #53, #507 ) ) ;
#133 = DIRECTION ( 'NONE',  ( -1.000000000000000000, 0.000000000000000000, 0.000000000000000000 ) ) ;
#134 = CARTESIAN_POINT ( 'NONE',  ( -4.700064062993476455, -1.706459881639959431, 5.594686695095001383 ) ) ;
#135 = DIRECTION ( 'NONE',  ( 0.000000000000000000, 0.000000000000000000, 1.000000000000000000 ) ) ;
#136 = ORIENTED_EDGE ( 'NONE', *, *, #126, .F. ) ;
#137 =( NAMED_UNIT ( * ) SI_UNIT ( $, .STERADIAN. ) SOLID_ANGLE_UNIT ( ) );
#138 = LINE ( 'NONE', #273, #276 ) ;
#139 =( BOUNDED_CURVE ( )  B_SPLINE_CURVE ( 3, ( #552, #378, #23, #18 ),
 .UNSPECIFIED., .F., .F. ) 
 B_SPLINE_CURVE_WITH_KNOTS ( ( 4, 4 ),
 ( 1.570796326794896558, 3.141592653589793116 ),
 .UNSPECIFIED. ) 
 CURVE ( )  GEOMETRIC_REPRESENTATION_ITEM ( )  RATIONAL_B_SPLINE_CURVE ( ( 1.000000000000000000, 0.8047378541243649375, 0.8047378541243649375, 1.000000000000000000 ) ) 
 REPRESENTATION_ITEM ( '' )  );
#140 = ORIENTED_EDGE ( 'NONE', *, *, #148, .T. ) ;
#141 = CC_DESIGN_DATE_AND_TIME_ASSIGNMENT ( #257, #116, ( #184 ) ) ;
#142 = CARTESIAN_POINT ( 'NONE',  ( -4.700349954508952877, -1.705669436761636959, 3.903803061162203214 ) ) ;
#143 = ORIENTED_EDGE ( 'NONE', *, *, #414, .T. ) ;
#144 =( BOUNDED_CURVE ( )  B_SPLINE_CURVE ( 3, ( #440, #222, #527, #40 ),
 .UNSPECIFIED., .F., .T. ) 
 B_SPLINE_CURVE_WITH_KNOTS ( ( 4, 4 ),
 ( 4.712388980384689674, 6.283185307179586232 ),
 .UNSPECIFIED. ) 
 CURVE ( )  GEOMETRIC_REPRESENTATION_ITEM ( )  RATIONAL_B_SPLINE_CURVE ( ( 1.000000000000000000, 0.8047378541243649375, 0.8047378541243649375, 1.000000000000000000 ) ) 
 REPRESENTATION_ITEM ( '' )  );
#145 = APPROVAL_DATE_TIME ( #410, #245 ) ;
#146 = LINE ( 'NONE', #272, #292 ) ;
#147 = VERTEX_POINT ( 'NONE', #42 ) ;
#148 = EDGE_CURVE ( 'NONE', #237, #390, #246, .T. ) ;
#149 = CIRCLE ( 'NONE', #424, 1.899999999999999911 ) ;
#150 = ORIENTED_EDGE ( 'NONE', *, *, #502, .T. ) ;
#151 = DIRECTION ( 'NONE',  ( 1.000000000000000000, -0.000000000000000000, -0.000000000000000000 ) ) ;
#152 = CARTESIAN_POINT ( 'NONE',  ( 5.000000000000000000, 0.000000000000000000, 2.850000000000000089 ) ) ;
#153 = ORIENTED_EDGE ( 'NONE', *, *, #125, .F. ) ;
#154 = APPLICATION_CONTEXT ( 'configuration controlled 3d designs of mechanical parts and assemblies' ) ;
#155 = CARTESIAN_POINT ( 'NONE',  ( -5.000000000000001776, -0.2535968787846208383, 2.850000000000000533 ) ) ;
#156 = EDGE_LOOP ( 'NONE', ( #536, #242, #404, #92, #495, #140, #284, #281 ) ) ;
#157 = CARTESIAN_POINT ( 'NONE',  ( -1.899999999999999911, 2.326828918379971365E-16, 2.850000000000000533 ) ) ;
#158 = B_SPLINE_CURVE_WITH_KNOTS ( 'NONE', 3,
 ( #99, #317, #5, #358, #525, #130, #312, #485, #223, #179, #361, #529, #134, #186, #491, #487, #367, #91, #535, #142, #452, #55, #420, #462, #415, #466, #342, #21, #155, #469 ),
 .UNSPECIFIED., .F., .F.,
 ( 4, 2, 2, 2, 2, 2, 2, 2, 2, 2, 2, 2, 2, 2, 4 ),
 ( 0.005997184679681006811, 0.006371934466235306543, 0.006746684252789607143, 0.007121434039343906876, 0.007496183825898206608, 0.007870933612452507208, 0.008245683399006806941, 0.008620433185561106673, 0.008995182972115406406, 0.009744682545224004136, 0.01011943233177830387, 0.01049418211833260187, 0.01086893190488689986, 0.01124368169144119960, 0.01199318126454979733 ),
 .UNSPECIFIED. ) ;
#159 = CIRCLE ( 'NONE', #559, 5.000000000000000000 ) ;
#160 = CIRCLE ( 'NONE', #484, 1.899999999999999911 ) ;
#161 = COORDINATED_UNIVERSAL_TIME_OFFSET ( 7, 0, .BEHIND. ) ;
#162 =( BOUNDED_CURVE ( )  B_SPLINE_CURVE ( 3, ( #94, #412, #236, #327 ),
 .UNSPECIFIED., .F., .T. ) 
 B_SPLINE_CURVE_WITH_KNOTS ( ( 4, 4 ),
 ( 3.141592653589793116, 4.712388980384689674 ),
 .UNSPECIFIED. ) 
 CURVE ( )  GEOMETRIC_REPRESENTATION_ITEM ( )  RATIONAL_B_SPLINE_CURVE ( ( 1.000000000000000000, 0.8047378541243649375, 0.8047378541243649375, 1.000000000000000000 ) ) 
 REPRESENTATION_ITEM ( '' )  );
#163 = CARTESIAN_POINT ( 'NONE',  ( -4.721591319085096217, 1.646754311256320102, 5.705704039151419771 ) ) ;
#164 = PERSON_AND_ORGANIZATION_ROLE ( 'creator' ) ;
#165 = CARTESIAN_POINT ( 'NONE',  ( 4.630168897535221539, 1.887388575855320605, 5.001637149095824242 ) ) ;
#166 = CARTESIAN_POINT ( 'NONE',  ( -5.000000000000000000, 0.000000000000000000, 4.750000000000000000 ) ) ;
#167 = AXIS2_PLACEMENT_3D ( 'NONE', #90, #269, #411 ) ;
#168 = CARTESIAN_POINT ( 'NONE',  ( 5.000000000000000000, 0.2535968787846203942, 2.849999999999999201 ) ) ;
#169 = APPROVAL_PERSON_ORGANIZATION ( #345, #98, #435 ) ;
#170 = DIRECTION ( 'NONE',  ( 0.000000000000000000, 0.000000000000000000, -1.000000000000000000 ) ) ;
#171 = DESIGN_CONTEXT ( 'detailed design', #285, 'design' ) ;
#172 = ADVANCED_FACE ( 'NONE', ( #456, #60 ), #362, .T. ) ;
#173 = CARTESIAN_POINT ( 'NONE',  ( 4.664231945862701068, 1.802095413423846715, 5.364778871980744768 ) ) ;
#174 = CIRCLE ( 'NONE', #17, 1.899999999999999911 ) ;
#175 = CYLINDRICAL_SURFACE ( 'NONE', #539, 1.899999999999999911 ) ;
#176 = DIRECTION ( 'NONE',  ( 1.000000000000000000, -0.000000000000000000, -0.000000000000000000 ) ) ;
#177 = DIRECTION ( 'NONE',  ( 1.000000000000000000, 0.000000000000000000, 0.000000000000000000 ) ) ;
#178 = DIRECTION ( 'NONE',  ( -0.000000000000000000, -0.000000000000000000, -1.000000000000000000 ) ) ;
#179 = CARTESIAN_POINT ( 'NONE',  ( -4.791305252208105436, -1.432377932527693964, 6.004488238993871185 ) ) ;
#180 = CARTESIAN_POINT ( 'NONE',  ( 0.000000000000000000, 0.000000000000000000, 0.000000000000000000 ) ) ;
#181 = VERTEX_POINT ( 'NONE', #486 ) ;
#182 = CARTESIAN_POINT ( 'NONE',  ( 4.908918733411947066, -0.9557971794373723018, 6.396733203858651962 ) ) ;
#183 = DIRECTION ( 'NONE',  ( 1.000000000000000000, 0.000000000000000000, 0.000000000000000000 ) ) ;
#184 = PRODUCT_DEFINITION ( 'UNKNOWN', '', #349, #171 ) ;
#185 = DIRECTION ( 'NONE',  ( -0.000000000000000000, -0.000000000000000000, -1.000000000000000000 ) ) ;
#186 = CARTESIAN_POINT ( 'NONE',  ( -4.664231945862701068, -1.802095413423846937, 5.364778871980745656 ) ) ;
#187 = ORIENTED_EDGE ( 'NONE', *, *, #126, .T. ) ;
#188 = PERSON_AND_ORGANIZATION ( #10, #498 ) ;
#189 = DIRECTION ( 'NONE',  ( 1.000000000000000000, -0.000000000000000000, -0.000000000000000000 ) ) ;
#190 = CARTESIAN_POINT ( 'NONE',  ( 0.000000000000000000, 0.000000000000000000, 9.500000000000000000 ) ) ;
#191 = ORIENTED_EDGE ( 'NONE', *, *, #6, .T. ) ;
#192 = ADVANCED_FACE ( 'NONE', ( #478 ), #235, .T. ) ;
#193 = ORIENTED_EDGE ( 'NONE', *, *, #332, .T. ) ;
#194 = AXIS2_PLACEMENT_3D ( 'NONE', #395, #185, #133 ) ;
#195 = CARTESIAN_POINT ( 'NONE',  ( 4.840110574950383437, -1.257551421306471351, 3.320447032605731597 ) ) ;
#196 = ORIENTED_EDGE ( 'NONE', *, *, #275, .F. ) ;
#197 = CYLINDRICAL_SURFACE ( 'NONE', #37, 1.899999999999999689 ) ;
#198 = ORIENTED_EDGE ( 'NONE', *, *, #381, .F. ) ;
#199 = DIRECTION ( 'NONE',  ( 1.000000000000000000, 0.000000000000000000, 0.000000000000000000 ) ) ;
#200 = CC_DESIGN_PERSON_AND_ORGANIZATION_ASSIGNMENT ( #188, #278, ( #184 ) ) ;
#201 = CARTESIAN_POINT ( 'NONE',  ( -1.112994231491118979, 1.899999999999999467, 5.862994231491119201 ) ) ;
#202 = CARTESIAN_POINT ( 'NONE',  ( -5.000000000000000000, 0.000000000000000000, 2.850000000000000089 ) ) ;
#203 = DATE_TIME_ROLE ( 'classification_date' ) ;
#204 = ADVANCED_FACE ( 'NONE', ( #13 ), #433, .F. ) ;
#205 = FACE_OUTER_BOUND ( 'NONE', #461, .T. ) ;
#206 = ADVANCED_FACE ( 'NONE', ( #566, #389 ), #562, .F. ) ;
#207 = CARTESIAN_POINT ( 'NONE',  ( -4.664276455405210520, 1.801993699157676820, 5.365266857995378835 ) ) ;
#208 = DATE_AND_TIME ( #347, #97 ) ;
#209 = CARTESIAN_POINT ( 'NONE',  ( 4.646727592933660667, 1.848868401614714108, 4.246894066109810240 ) ) ;
#210 = CARTESIAN_POINT ( 'NONE',  ( 4.624981327935342890, 1.899880978573899926, 4.498644197986548576 ) ) ;
#211 = CARTESIAN_POINT ( 'NONE',  ( -5.000000000000000000, 0.000000000000000000, 4.750000000000000000 ) ) ;
#212 = VECTOR ( 'NONE', #214, 1000.000000000000000 ) ;
#213 = LINE ( 'NONE', #124, #319 ) ;
#214 = DIRECTION ( 'NONE',  ( 1.000000000000000000, -0.000000000000000000, -0.000000000000000000 ) ) ;
#215 = VERTEX_POINT ( 'NONE', #465 ) ;
#216 = PERSON_AND_ORGANIZATION ( #10, #498 ) ;
#217 = B_SPLINE_CURVE_WITH_KNOTS ( 'NONE', 3,
 ( #68, #243, #325, #497, #103, #59, #348, #430, #481, #518, #350, #31, #122, #173, #263, #165, #565, #210, #209, #522, #127, #300, #558, #76, #560, #516, #472, #302, #168, #120 ),
 .UNSPECIFIED., .F., .F.,
 ( 4, 2, 2, 2, 2, 2, 2, 2, 2, 2, 2, 2, 2, 2, 4 ),
 ( 0.005997184679681007678, 0.006371934466235307411, 0.006746684252789607143, 0.007121434039343906876, 0.007496183825898206608, 0.007870933612452507208, 0.008245683399006806941, 0.008620433185561106673, 0.008995182972115406406, 0.009744682545224004136, 0.01011943233177830213, 0.01049418211833260187, 0.01086893190488689986, 0.01124368169144119960, 0.01199318126454979733 ),
 .UNSPECIFIED. ) ;
#218 = CARTESIAN_POINT ( 'NONE',  ( -4.767493339562507870, 1.517705859886212316, 3.580898645056902474 ) ) ;
#219 = CIRCLE ( 'NONE', #544, 5.000000000000000000 ) ;
#220 = DIRECTION ( 'NONE',  ( 1.000000000000000000, 0.000000000000000000, 0.000000000000000000 ) ) ;
#221 = ORIENTED_EDGE ( 'NONE', *, *, #553, .T. ) ;
#222 = CARTESIAN_POINT ( 'NONE',  ( 1.112994231491118757, 1.899999999999999467, 5.862994231491119201 ) ) ;
#223 = CARTESIAN_POINT ( 'NONE',  ( -4.840340526583656100, -1.256748243739028048, 6.180395447149185983 ) ) ;
#224 = EDGE_CURVE ( 'NONE', #7, #533, #63, .T. ) ;
#225 = UNCERTAINTY_MEASURE_WITH_UNIT (LENGTH_MEASURE( 1.000000000000000082E-05 ), #1, 'distance_accuracy_value', 'NONE');
#226 = EDGE_LOOP ( 'NONE', ( #100, #450, #62, #48, #339 ) ) ;
#227 = CARTESIAN_POINT ( 'NONE',  ( -5.000000000000000000, 0.000000000000000000, 4.750000000000000000 ) ) ;
#228 = ORIENTED_EDGE ( 'NONE', *, *, #499, .F. ) ;
#229 = DIRECTION ( 'NONE',  ( -0.000000000000000000, -0.000000000000000000, 1.000000000000000000 ) ) ;
#230 = ORIENTED_EDGE ( 'NONE', *, *, #554, .F. ) ;
#231 = FACE_OUTER_BOUND ( 'NONE', #233, .T. ) ;
#232 = ADVANCED_FACE ( 'NONE', ( #336 ), #197, .F. ) ;
#233 = EDGE_LOOP ( 'NONE', ( #419, #35, #143, #228, #479 ) ) ;
#234 = APPROVAL_STATUS ( 'not_yet_approved' ) ;
#235 = CYLINDRICAL_SURFACE ( 'NONE', #167, 5.000000000000000000 ) ;
#236 = CARTESIAN_POINT ( 'NONE',  ( 1.112994231491119645, 1.899999999999999467, 3.637005768508880799 ) ) ;
#237 = VERTEX_POINT ( 'NONE', #464 ) ;
#238 = CARTESIAN_POINT ( 'NONE',  ( 4.908972061169126988, -0.9555442558267537301, 3.103103374567570683 ) ) ;
#239 = ORIENTED_EDGE ( 'NONE', *, *, #295, .F. ) ;
#240 = PRODUCT_DEFINITION_SHAPE ( 'NONE', 'NONE',  #184 ) ;
#241 = CARTESIAN_POINT ( 'NONE',  ( 4.864426361370187912, -1.161218195254173802, 3.241058111551387899 ) ) ;
#242 = ORIENTED_EDGE ( 'NONE', *, *, #458, .F. ) ;
#243 = CARTESIAN_POINT ( 'NONE',  ( 5.000000000000001776, 0.1248859166429635015, 6.650000000000001243 ) ) ;
#244 = CARTESIAN_POINT ( 'NONE',  ( 4.624903301616645201, -1.900070908314480223, 4.874204161064723095 ) ) ;
#245 = APPROVAL ( #234, 'UNSPECIFIED' ) ;
#246 = CIRCLE ( 'NONE', #70, 5.000000000000000000 ) ;
#247 = DIRECTION ( 'NONE',  ( 0.000000000000000000, 0.000000000000000000, -1.000000000000000000 ) ) ;
#248 = EDGE_CURVE ( 'NONE', #533, #38, #217, .T. ) ;
#249 = PERSON_AND_ORGANIZATION ( #10, #498 ) ;
#250 = CARTESIAN_POINT ( 'NONE',  ( 0.000000000000000000, 0.000000000000000000, 9.500000000000000000 ) ) ;
#251 = LINE ( 'NONE', #427, #438 ) ;
#252 = ADVANCED_FACE ( 'NONE', ( #36 ), #388, .F. ) ;
#253 = COORDINATED_UNIVERSAL_TIME_OFFSET ( 7, 0, .BEHIND. ) ;
#254 = CARTESIAN_POINT ( 'NONE',  ( -4.929133704699253826, 0.8468264270776506564, 3.044606069248167124 ) ) ;
#255 = CARTESIAN_POINT ( 'NONE',  ( -4.630088488476103770, 1.887587123975133840, 4.499544857554407251 ) ) ;
#256 = CARTESIAN_POINT ( 'NONE',  ( -4.976865045337227400, 0.4958291962882638848, 2.911603181591643885 ) ) ;
#257 = DATE_AND_TIME ( #426, #322 ) ;
#258 = CARTESIAN_POINT ( 'NONE',  ( -5.000000000000000000, 0.000000000000000000, 2.850000000000000089 ) ) ;
#259 = DIRECTION ( 'NONE',  ( 1.000000000000000000, 0.000000000000000000, 0.000000000000000000 ) ) ;
#260 = EDGE_LOOP ( 'NONE', ( #110, #187 ) ) ;
#261 = CARTESIAN_POINT ( 'NONE',  ( 4.767219128231589664, -1.509584754004839713, 5.910311959159156636 ) ) ;
#262 = AXIS2_PLACEMENT_3D ( 'NONE', #211, #306, #170 ) ;
#263 = CARTESIAN_POINT ( 'NONE',  ( 4.649878518143827577, 1.838295248994639586, 5.246213128199955555 ) ) ;
#264 = CC_DESIGN_APPROVAL ( #245, ( #184 ) ) ;
#265 = DIRECTION ( 'NONE',  ( 1.000000000000000000, 0.000000000000000000, 0.000000000000000000 ) ) ;
#266 = CARTESIAN_POINT ( 'NONE',  ( 4.929455661925936205, -0.8448717225078793414, 6.456315866129365588 ) ) ;
#267 = EDGE_CURVE ( 'NONE', #7, #503, #477, .T. ) ;
#268 = CYLINDRICAL_SURFACE ( 'NONE', #470, 1.899999999999999689 ) ;
#269 = DIRECTION ( 'NONE',  ( -0.000000000000000000, -0.000000000000000000, -1.000000000000000000 ) ) ;
#270 = ORIENTED_EDGE ( 'NONE', *, *, #394, .F. ) ;
#271 = CARTESIAN_POINT ( 'NONE',  ( 0.000000000000000000, -1.899999999999999911, 4.750000000000000000 ) ) ;
#272 = CARTESIAN_POINT ( 'NONE',  ( -5.000000000000000000, 0.000000000000000000, 2.850000000000000089 ) ) ;
#273 = CARTESIAN_POINT ( 'NONE',  ( 1.899999999999999911, 0.000000000000000000, 0.000000000000000000 ) ) ;
#274 = ORIENTED_EDGE ( 'NONE', *, *, #275, .T. ) ;
#275 = EDGE_CURVE ( 'NONE', #492, #288, #213, .T. ) ;
#276 = VECTOR ( 'NONE', #61, 1000.000000000000000 ) ;
#277 = VERTEX_POINT ( 'NONE', #475 ) ;
#278 = PERSON_AND_ORGANIZATION_ROLE ( 'creator' ) ;
#279 = CYLINDRICAL_SURFACE ( 'NONE', #391, 1.899999999999999911 ) ;
#280 = CARTESIAN_POINT ( 'NONE',  ( 5.000000000000000000, 6.123233995736766282E-16, 0.000000000000000000 ) ) ;
#281 = ORIENTED_EDGE ( 'NONE', *, *, #528, .T. ) ;
#282 = MANIFOLD_SOLID_BREP ( 'Cut-Extrude2', #291 ) ;
#283 = DIRECTION ( 'NONE',  ( 1.000000000000000000, 0.000000000000000000, 0.000000000000000000 ) ) ;
#284 = ORIENTED_EDGE ( 'NONE', *, *, #540, .F. ) ;
#285 = APPLICATION_CONTEXT ( 'configuration controlled 3d designs of mechanical parts and assemblies' ) ;
#286 = CARTESIAN_POINT ( 'NONE',  ( -5.000000000000000000, 2.326828918379971365E-16, 6.649999999999999467 ) ) ;
#287 = CARTESIAN_POINT ( 'NONE',  ( 4.664276455405210520, -1.801993699157677042, 5.365266857995380612 ) ) ;
#288 = VERTEX_POINT ( 'NONE', #29 ) ;
#289 = CC_DESIGN_PERSON_AND_ORGANIZATION_ASSIGNMENT ( #216, #58, ( #556 ) ) ;
#290 = CARTESIAN_POINT ( 'NONE',  ( 4.624961814467135390, -1.899928477771843705, 4.623635805702847712 ) ) ;
#291 = CLOSED_SHELL ( 'NONE', ( #232, #26, #107, #192, #393, #109, #570, #172, #206, #252, #204, #357 ) ) ;
#292 = VECTOR ( 'NONE', #50, 1000.000000000000000 ) ;
#293 = LOCAL_TIME ( 12, 7, 28.00000000000000000, #27 ) ;
#294 = PERSON_AND_ORGANIZATION ( #10, #498 ) ;
#295 = EDGE_CURVE ( 'NONE', #44, #237, #85, .T. ) ;
#296 = VECTOR ( 'NONE', #313, 1000.000000000000000 ) ;
#297 = PERSON_AND_ORGANIZATION ( #10, #498 ) ;
#298 = CARTESIAN_POINT ( 'NONE',  ( -4.649874409835400790, 1.838305833733937522, 5.246199366015750876 ) ) ;
#299 = CALENDAR_DATE ( 2026, 5, 4 ) ;
#300 = CARTESIAN_POINT ( 'NONE',  ( 4.767652200314561384, 1.508236490272512498, 3.587877209282303248 ) ) ;
#301 = DATE_AND_TIME ( #299, #293 ) ;
#302 = CARTESIAN_POINT ( 'NONE',  ( 4.980473995792969788, 0.4993796377391129249, 2.899809324968493307 ) ) ;
#303 = FACE_OUTER_BOUND ( 'NONE', #226, .T. ) ;
#304 = CC_DESIGN_PERSON_AND_ORGANIZATION_ASSIGNMENT ( #297, #431, ( #541 ) ) ;
#305 = DIRECTION ( 'NONE',  ( -0.000000000000000000, -0.000000000000000000, 1.000000000000000000 ) ) ;
#306 = DIRECTION ( 'NONE',  ( 1.000000000000000000, -0.000000000000000000, -0.000000000000000000 ) ) ;
#307 = ORIENTED_EDGE ( 'NONE', *, *, #340, .F. ) ;
#308 = DIRECTION ( 'NONE',  ( 1.000000000000000000, 0.000000000000000000, 0.000000000000000000 ) ) ;
#309 = LINE ( 'NONE', #359, #212 ) ;
#310 = CARTESIAN_POINT ( 'NONE',  ( 4.864451089275116047, -1.161097316986537953, 6.259016737282149911 ) ) ;
#311 = EDGE_CURVE ( 'NONE', #44, #181, #387, .T. ) ;
#312 = CARTESIAN_POINT ( 'NONE',  ( -4.908662388133512522, -0.9570746417138394913, 6.395963613518768298 ) ) ;
#313 = DIRECTION ( 'NONE',  ( -0.000000000000000000, -0.000000000000000000, -1.000000000000000000 ) ) ;
#314 = DIRECTION ( 'NONE',  ( 1.000000000000000000, 0.000000000000000000, 0.000000000000000000 ) ) ;
#315 = FACE_OUTER_BOUND ( 'NONE', #22, .T. ) ;
#316 = ORIENTED_EDGE ( 'NONE', *, *, #224, .T. ) ;
#317 = CARTESIAN_POINT ( 'NONE',  ( -5.000000000000000888, -0.1248859166429626827, 6.649999999999999467 ) ) ;
#318 = EDGE_LOOP ( 'NONE', ( #191, #193, #483, #329, #363 ) ) ;
#319 = VECTOR ( 'NONE', #305, 1000.000000000000000 ) ;
#320 = LINE ( 'NONE', #405, #396 ) ;
#321 = B_SPLINE_CURVE_WITH_KNOTS ( 'NONE', 3,
 ( #152, #333, #504, #108, #460, #69, #238, #241, #195, #115, #376, #337, #380, #547, #290, #244, #71, #111, #287, #360, #451, #261, #49, #93, #310, #182, #266, #443, #366, #490 ),
 .UNSPECIFIED., .F., .F.,
 ( 4, 2, 2, 2, 2, 2, 2, 2, 2, 2, 2, 2, 2, 2, 4 ),
 ( 0.000000000000000000, 0.0003748240424800620583, 0.0007496480849601241166, 0.001124472127440186283, 0.001499296169920248233, 0.002248944254880373000, 0.002623768297360436035, 0.002998592339840499069, 0.003373416382320562970, 0.003748240424800626004, 0.004123064467280689038, 0.004497888509760752072, 0.004872712552240815974, 0.005247536594720879875, 0.005997184679681007678 ),
 .UNSPECIFIED. ) ;
#322 = LOCAL_TIME ( 12, 7, 28.00000000000000000, #369 ) ;
#323 = EDGE_LOOP ( 'NONE', ( #489, #230, #307, #372, #439 ) ) ;
#324 = COORDINATED_UNIVERSAL_TIME_OFFSET ( 7, 0, .BEHIND. ) ;
#325 = CARTESIAN_POINT ( 'NONE',  ( 4.995209648305409367, 0.2512701655257327804, 6.637497515476556309 ) ) ;
#326 =( BOUNDED_CURVE ( )  B_SPLINE_CURVE ( 3, ( #113, #15, #373, #157 ),
 .UNSPECIFIED., .F., .T. ) 
 B_SPLINE_CURVE_WITH_KNOTS ( ( 4, 4 ),
 ( 1.570796326794896558, 3.141592653589793116 ),
 .UNSPECIFIED. ) 
 CURVE ( )  GEOMETRIC_REPRESENTATION_ITEM ( )  RATIONAL_B_SPLINE_CURVE ( ( 1.000000000000000000, 0.8047378541243649375, 0.8047378541243649375, 1.000000000000000000 ) ) 
 REPRESENTATION_ITEM ( '' )  );
#327 = CARTESIAN_POINT ( 'NONE',  ( 0.000000000000000000, 1.899999999999999911, 4.750000000000000000 ) ) ;
#328 = AXIS2_PLACEMENT_3D ( 'NONE', #89, #449, #494 ) ;
#329 = ORIENTED_EDGE ( 'NONE', *, *, #267, .F. ) ;
#330 = CARTESIAN_POINT ( 'NONE',  ( -1.899999999999999911, 2.326828918379971365E-16, 0.000000000000000000 ) ) ;
#331 = ORIENTED_EDGE ( 'NONE', *, *, #56, .F. ) ;
#332 = EDGE_CURVE ( 'NONE', #543, #374, #445, .T. ) ;
#333 = CARTESIAN_POINT ( 'NONE',  ( 5.000000000000000888, -0.1268235642511904571, 2.850000000000000089 ) ) ;
#334 = ORIENTED_EDGE ( 'NONE', *, *, #394, .T. ) ;
#335 = APPROVAL ( #474, 'UNSPECIFIED' ) ;
#336 = FACE_OUTER_BOUND ( 'NONE', #95, .T. ) ;
#337 = CARTESIAN_POINT ( 'NONE',  ( 4.664572789540980757, -1.801204988533471330, 4.132805802722370636 ) ) ;
#338 = ORIENTED_EDGE ( 'NONE', *, *, #125, .T. ) ;
#339 = ORIENTED_EDGE ( 'NONE', *, *, #476, .T. ) ;
#340 = EDGE_CURVE ( 'NONE', #277, #112, #162, .T. ) ;
#341 = PERSON_AND_ORGANIZATION ( #10, #498 ) ;
#342 = CARTESIAN_POINT ( 'NONE',  ( -4.929324178156307745, -0.8458063950948336851, 3.044052189790882768 ) ) ;
#343 = APPROVAL_PERSON_ORGANIZATION ( #538, #245, #496 ) ;
#344 = CARTESIAN_POINT ( 'NONE',  ( -4.630154553467165535, 1.887423952531499971, 5.001421901561958983 ) ) ;
#345 = PERSON_AND_ORGANIZATION ( #10, #498 ) ;
#346 = CARTESIAN_POINT ( 'NONE',  ( -4.767219128231589664, 1.509584754004840157, 5.910311959159160189 ) ) ;
#347 = CALENDAR_DATE ( 2026, 5, 4 ) ;
#348 = CARTESIAN_POINT ( 'NONE',  ( 4.908662388133511634, 0.9570746417138406015, 6.395963613518767410 ) ) ;
#349 = PRODUCT_DEFINITION_FORMATION_WITH_SPECIFIED_SOURCE ( 'ANY', '', #556, .NOT_KNOWN. ) ;
#350 = CARTESIAN_POINT ( 'NONE',  ( 4.766990099042437201, 1.510297858540755378, 5.909354838576558855 ) ) ;
#351 = DIRECTION ( 'NONE',  ( 1.000000000000000000, 0.000000000000000000, -0.000000000000000000 ) ) ;
#352 = CARTESIAN_POINT ( 'NONE',  ( 1.899999999999999911, 0.000000000000000000, 0.000000000000000000 ) ) ;
#353 =( GEOMETRIC_REPRESENTATION_CONTEXT ( 3 ) GLOBAL_UNCERTAINTY_ASSIGNED_CONTEXT ( ( #225 ) ) GLOBAL_UNIT_ASSIGNED_CONTEXT ( ( #1, #401, #137 ) ) REPRESENTATION_CONTEXT ( 'NONE', 'WORKASPACE' ) );
#354 = CARTESIAN_POINT ( 'NONE',  ( -4.649868285405636570, 1.838322466297604540, 4.253730477583346214 ) ) ;
#355 = EDGE_CURVE ( 'NONE', #277, #38, #146, .T. ) ;
#356 = CARTESIAN_POINT ( 'NONE',  ( 5.000000000000000000, 6.123233995736766282E-16, 9.500000000000000000 ) ) ;
#357 = ADVANCED_FACE ( 'NONE', ( #231 ), #268, .F. ) ;
#358 = CARTESIAN_POINT ( 'NONE',  ( -4.976710010025513498, -0.4976078804828394930, 6.587979859599900401 ) ) ;
#359 = CARTESIAN_POINT ( 'NONE',  ( -5.000000000000000000, 2.326828918379971365E-16, 6.649999999999999467 ) ) ;
#360 = CARTESIAN_POINT ( 'NONE',  ( 4.700429807286036876, -1.705466437965964976, 5.596828688297201815 ) ) ;
#361 = CARTESIAN_POINT ( 'NONE',  ( -4.766990099042438089, -1.510297858540756044, 5.909354838576560631 ) ) ;
#362 = PLANE ( 'NONE',  #513 ) ;
#363 = ORIENTED_EDGE ( 'NONE', *, *, #537, .T. ) ;
#364 = CARTESIAN_POINT ( 'NONE',  ( 1.112994231491118979, -1.899999999999999467, 5.862994231491119201 ) ) ;
#365 = DIRECTION ( 'NONE',  ( 0.000000000000000000, 0.000000000000000000, -1.000000000000000000 ) ) ;
#366 = CARTESIAN_POINT ( 'NONE',  ( 4.999999999999999112, -0.2498213250785182027, 6.649999999999998579 ) ) ;
#367 = CARTESIAN_POINT ( 'NONE',  ( -4.624908115673492581, -1.900059190052206581, 4.874325951781360189 ) ) ;
#368 = ORIENTED_EDGE ( 'NONE', *, *, #499, .T. ) ;
#369 = COORDINATED_UNIVERSAL_TIME_OFFSET ( 7, 0, .BEHIND. ) ;
#370 = VECTOR ( 'NONE', #82, 1000.000000000000000 ) ;
#371 = CARTESIAN_POINT ( 'NONE',  ( -5.000000000000000888, 0.2498213250785188966, 6.650000000000001243 ) ) ;
#372 = ORIENTED_EDGE ( 'NONE', *, *, #355, .T. ) ;
#373 = CARTESIAN_POINT ( 'NONE',  ( -1.899999999999999467, 1.112994231491119423, 2.850000000000000089 ) ) ;
#374 = VERTEX_POINT ( 'NONE', #400 ) ;
#375 = EDGE_CURVE ( 'NONE', #374, #503, #174, .T. ) ;
#376 = CARTESIAN_POINT ( 'NONE',  ( 4.718004140454453932, -1.658539058699129098, 3.790666615689020080 ) ) ;
#377 = ORIENTED_EDGE ( 'NONE', *, *, #502, .F. ) ;
#378 = CARTESIAN_POINT ( 'NONE',  ( 1.112994231491118979, -1.899999999999999467, 3.637005768508880799 ) ) ;
#379 = ORIENTED_EDGE ( 'NONE', *, *, #148, .F. ) ;
#380 = CARTESIAN_POINT ( 'NONE',  ( 4.649868285405636570, -1.838322466297604096, 4.253730477583345326 ) ) ;
#381 = EDGE_CURVE ( 'NONE', #546, #492, #74, .T. ) ;
#382 = CARTESIAN_POINT ( 'NONE',  ( 0.000000000000000000, 1.899999999999999911, 4.750000000000000000 ) ) ;
#383 =( BOUNDED_CURVE ( )  B_SPLINE_CURVE ( 3, ( #64, #422, #201, #382 ),
 .UNSPECIFIED., .F., .T. ) 
 B_SPLINE_CURVE_WITH_KNOTS ( ( 4, 4 ),
 ( 0.000000000000000000, 1.570796326794896780 ),
 .UNSPECIFIED. ) 
 CURVE ( )  GEOMETRIC_REPRESENTATION_ITEM ( )  RATIONAL_B_SPLINE_CURVE ( ( 1.000000000000000000, 0.8047378541243649375, 0.8047378541243649375, 1.000000000000000000 ) ) 
 REPRESENTATION_ITEM ( '' )  );
#384 = DIRECTION ( 'NONE',  ( -0.000000000000000000, -0.000000000000000000, -1.000000000000000000 ) ) ;
#385 = DATE_AND_TIME ( #517, #24 ) ;
#386 = DIRECTION ( 'NONE',  ( -0.000000000000000000, -0.000000000000000000, 1.000000000000000000 ) ) ;
#387 = B_SPLINE_CURVE_WITH_KNOTS ( 'NONE', 3,
 ( #258, #33, #515, #256, #432, #254, #441, #41, #428, #218, #436, #392, #354, #255, #397, #568, #344, #298, #207, #557, #163, #346, #78, #105, #2, #408, #52, #448, #371, #542 ),
 .UNSPECIFIED., .F., .F.,
 ( 4, 2, 2, 2, 2, 2, 2, 2, 2, 2, 2, 2, 2, 2, 4 ),
 ( 0.000000000000000000, 0.0003748240424800622752, 0.0007496480849601245503, 0.001124472127440186717, 0.001499296169920249101, 0.002248944254880374301, 0.002623768297360437336, 0.002998592339840500803, 0.003373416382320564271, 0.003748240424800627739, 0.004123064467280691640, 0.004497888509760754674, 0.004872712552240818576, 0.005247536594720881610, 0.005997184679681006811 ),
 .UNSPECIFIED. ) ;
#388 = CYLINDRICAL_SURFACE ( 'NONE', #493, 1.899999999999999911 ) ;
#389 = FACE_OUTER_BOUND ( 'NONE', #19, .T. ) ;
#390 = VERTEX_POINT ( 'NONE', #280 ) ;
#391 = AXIS2_PLACEMENT_3D ( 'NONE', #530, #446, #220 ) ;
#392 = CARTESIAN_POINT ( 'NONE',  ( -4.664572789540980757, 1.801204988533471107, 4.132805802722372412 ) ) ;
#393 = ADVANCED_FACE ( 'NONE', ( #532 ), #457, .F. ) ;
#394 = EDGE_CURVE ( 'NONE', #546, #277, #138, .T. ) ;
#395 = CARTESIAN_POINT ( 'NONE',  ( 0.000000000000000000, 0.000000000000000000, 9.500000000000000000 ) ) ;
#396 = VECTOR ( 'NONE', #176, 1000.000000000000000 ) ;
#397 = CARTESIAN_POINT ( 'NONE',  ( -4.624961814467135390, 1.899928477771843705, 4.623635805702848600 ) ) ;
#398 = CARTESIAN_POINT ( 'NONE',  ( 0.000000000000000000, 1.899999999999999911, 4.750000000000000000 ) ) ;
#399 = CARTESIAN_POINT ( 'NONE',  ( 1.899999999999999467, -1.112994231491119201, 6.649999999999998579 ) ) ;
#400 = CARTESIAN_POINT ( 'NONE',  ( -1.899999999999999911, 2.326828918379971365E-16, 9.500000000000000000 ) ) ;
#401 =( NAMED_UNIT ( * ) PLANE_ANGLE_UNIT ( ) SI_UNIT ( $, .RADIAN. ) );
#402 =( BOUNDED_CURVE ( )  B_SPLINE_CURVE ( 3, ( #28, #73, #511, #32 ),
 .UNSPECIFIED., .F., .F. ) 
 B_SPLINE_CURVE_WITH_KNOTS ( ( 4, 4 ),
 ( 4.712388980384689674, 6.283185307179586232 ),
 .UNSPECIFIED. ) 
 CURVE ( )  GEOMETRIC_REPRESENTATION_ITEM ( )  RATIONAL_B_SPLINE_CURVE ( ( 1.000000000000000000, 0.8047378541243649375, 0.8047378541243649375, 1.000000000000000000 ) ) 
 REPRESENTATION_ITEM ( '' )  );
#403 = CARTESIAN_POINT ( 'NONE',  ( 0.000000000000000000, 0.000000000000000000, 0.000000000000000000 ) ) ;
#404 = ORIENTED_EDGE ( 'NONE', *, *, #56, .T. ) ;
#405 = CARTESIAN_POINT ( 'NONE',  ( -5.000000000000000000, 0.000000000000000000, 2.850000000000000089 ) ) ;
#406 = ORIENTED_EDGE ( 'NONE', *, *, #537, .F. ) ;
#407 = APPLICATION_PROTOCOL_DEFINITION ( 'international standard', 'config_control_design', 1994, #154 ) ;
#408 = CARTESIAN_POINT ( 'NONE',  ( -4.908918733411947066, 0.9557971794373733010, 6.396733203858646633 ) ) ;
#409 = ORIENTED_EDGE ( 'NONE', *, *, #437, .F. ) ;
#410 = DATE_AND_TIME ( #101, #564 ) ;
#411 = DIRECTION ( 'NONE',  ( -1.000000000000000000, 0.000000000000000000, 0.000000000000000000 ) ) ;
#412 = CARTESIAN_POINT ( 'NONE',  ( 1.899999999999999467, 1.112994231491118979, 2.850000000000000089 ) ) ;
#413 = ORIENTED_EDGE ( 'NONE', *, *, #355, .F. ) ;
#414 = EDGE_CURVE ( 'NONE', #44, #288, #320, .T. ) ;
#415 = CARTESIAN_POINT ( 'NONE',  ( -4.864933608408715138, -1.159040089601712342, 3.239445022470512914 ) ) ;
#416 = ORIENTED_EDGE ( 'NONE', *, *, #248, .T. ) ;
#417 = DIRECTION ( 'NONE',  ( 0.000000000000000000, 0.000000000000000000, 1.000000000000000000 ) ) ;
#418 =( BOUNDED_CURVE ( )  B_SPLINE_CURVE ( 3, ( #51, #399, #364, #271 ),
 .UNSPECIFIED., .F., .T. ) 
 B_SPLINE_CURVE_WITH_KNOTS ( ( 4, 4 ),
 ( 0.000000000000000000, 1.570796326794896780 ),
 .UNSPECIFIED. ) 
 CURVE ( )  GEOMETRIC_REPRESENTATION_ITEM ( )  RATIONAL_B_SPLINE_CURVE ( ( 1.000000000000000000, 0.8047378541243649375, 0.8047378541243649375, 1.000000000000000000 ) ) 
 REPRESENTATION_ITEM ( '' )  );
#419 = ORIENTED_EDGE ( 'NONE', *, *, #114, .F. ) ;
#420 = CARTESIAN_POINT ( 'NONE',  ( -4.791947445306828257, -1.430185357102548016, 3.493115831669288962 ) ) ;
#421 = CC_DESIGN_APPROVAL ( #335, ( #541 ) ) ;
#422 = CARTESIAN_POINT ( 'NONE',  ( -1.899999999999999467, 1.112994231491119201, 6.649999999999998579 ) ) ;
#423 = CARTESIAN_POINT ( 'NONE',  ( 5.000000000000000000, 0.000000000000000000, 2.850000000000000089 ) ) ;
#424 = AXIS2_PLACEMENT_3D ( 'NONE', #250, #417, #283 ) ;
#425 = DIRECTION ( 'NONE',  ( 0.000000000000000000, 0.000000000000000000, 1.000000000000000000 ) ) ;
#426 = CALENDAR_DATE ( 2026, 5, 4 ) ;
#427 = CARTESIAN_POINT ( 'NONE',  ( -5.000000000000000000, 0.000000000000000000, 9.500000000000000000 ) ) ;
#428 = CARTESIAN_POINT ( 'NONE',  ( -4.840110574950382549, 1.257551421306470685, 3.320447032605731152 ) ) ;
#429 = PERSON_AND_ORGANIZATION_ROLE ( 'design_supplier' ) ;
#430 = CARTESIAN_POINT ( 'NONE',  ( 4.864303204869430353, 1.161685259261409309, 6.258534204204261542 ) ) ;
#431 = PERSON_AND_ORGANIZATION_ROLE ( 'classification_officer' ) ;
#432 = CARTESIAN_POINT ( 'NONE',  ( -4.963121274450492670, 0.6171720112709193629, 2.948727626052602080 ) ) ;
#433 = CYLINDRICAL_SURFACE ( 'NONE', #262, 1.899999999999999689 ) ;
#434 = ORIENTED_EDGE ( 'NONE', *, *, #114, .T. ) ;
#435 = APPROVAL_ROLE ( '' ) ;
#436 = CARTESIAN_POINT ( 'NONE',  ( -4.718004140454454820, 1.658539058699129320, 3.790666615689020524 ) ) ;
#437 = EDGE_CURVE ( 'NONE', #181, #44, #158, .T. ) ;
#438 = VECTOR ( 'NONE', #384, 1000.000000000000000 ) ;
#439 = ORIENTED_EDGE ( 'NONE', *, *, #248, .F. ) ;
#440 = CARTESIAN_POINT ( 'NONE',  ( 0.000000000000000000, 1.899999999999999911, 4.750000000000000000 ) ) ;
#441 = CARTESIAN_POINT ( 'NONE',  ( -4.908972061169126988, 0.9555442558267535080, 3.103103374567569794 ) ) ;
#442 = DIRECTION ( 'NONE',  ( -0.000000000000000000, -0.000000000000000000, 1.000000000000000000 ) ) ;
#443 = CARTESIAN_POINT ( 'NONE',  ( 4.980088795015396919, -0.5020766826993912080, 6.599109854682116527 ) ) ;
#444 = AXIS2_PLACEMENT_3D ( 'NONE', #403, #501, #183 ) ;
#445 = LINE ( 'NONE', #46, #468 ) ;
#446 = DIRECTION ( 'NONE',  ( -0.000000000000000000, -0.000000000000000000, 1.000000000000000000 ) ) ;
#447 = ORIENTED_EDGE ( 'NONE', *, *, #540, .T. ) ;
#448 = CARTESIAN_POINT ( 'NONE',  ( -4.980088795015396919, 0.5020766826993928733, 6.599109854682116527 ) ) ;
#449 = DIRECTION ( 'NONE',  ( -0.000000000000000000, -0.000000000000000000, 1.000000000000000000 ) ) ;
#450 = ORIENTED_EDGE ( 'NONE', *, *, #514, .T. ) ;
#451 = CARTESIAN_POINT ( 'NONE',  ( 4.721591319085096217, -1.646754311256320324, 5.705704039151419771 ) ) ;
#452 = CARTESIAN_POINT ( 'NONE',  ( -4.721788662162098582, -1.646206743890718416, 3.793281625731086848 ) ) ;
#453 = ORIENTED_EDGE ( 'NONE', *, *, #471, .T. ) ;
#454 = APPLICATION_PROTOCOL_DEFINITION ( 'international standard', 'config_control_design', 1994, #285 ) ;
#455 = ADVANCED_BREP_SHAPE_REPRESENTATION ( 'UnivJointInner', ( #282, #102 ), #353 ) ;
#456 = FACE_BOUND ( 'NONE', #132, .T. ) ;
#457 = CYLINDRICAL_SURFACE ( 'NONE', #328, 1.899999999999999911 ) ;
#458 = EDGE_CURVE ( 'NONE', #147, #505, #567, .T. ) ;
#459 = ORIENTED_EDGE ( 'NONE', *, *, #340, .T. ) ;
#460 = CARTESIAN_POINT ( 'NONE',  ( 4.963121274450493559, -0.6171720112709195849, 2.948727626052602524 ) ) ;
#461 = EDGE_LOOP ( 'NONE', ( #406, #316, #11, #413, #531 ) ) ;
#462 = CARTESIAN_POINT ( 'NONE',  ( -4.840565070180460339, -1.255834493714044431, 3.318892843750363753 ) ) ;
#463 = ORIENTED_EDGE ( 'NONE', *, *, #311, .T. ) ;
#464 = CARTESIAN_POINT ( 'NONE',  ( -5.000000000000000000, 0.000000000000000000, 0.000000000000000000 ) ) ;
#465 = CARTESIAN_POINT ( 'NONE',  ( 0.000000000000000000, -1.899999999999999911, 4.750000000000000000 ) ) ;
#466 = CARTESIAN_POINT ( 'NONE',  ( -4.909171743695336154, -0.9544557268055230415, 3.102527834829615916 ) ) ;
#467 = PRODUCT_RELATED_PRODUCT_CATEGORY ( 'detail', '', ( #556 ) ) ;
#468 = VECTOR ( 'NONE', #229, 1000.000000000000000 ) ;
#469 = CARTESIAN_POINT ( 'NONE',  ( -5.000000000000000000, 0.000000000000000000, 2.850000000000000089 ) ) ;
#470 = AXIS2_PLACEMENT_3D ( 'NONE', #227, #9, #365 ) ;
#471 = EDGE_CURVE ( 'NONE', #215, #277, #139, .T. ) ;
#472 = CARTESIAN_POINT ( 'NONE',  ( 4.929324178156306857, 0.8458063950948335741, 3.044052189790882323 ) ) ;
#473 = CARTESIAN_POINT ( 'NONE',  ( 1.899999999999999911, 0.000000000000000000, 0.000000000000000000 ) ) ;
#474 = APPROVAL_STATUS ( 'not_yet_approved' ) ;
#475 = CARTESIAN_POINT ( 'NONE',  ( 1.899999999999999911, 0.000000000000000000, 2.850000000000000533 ) ) ;
#476 = EDGE_CURVE ( 'NONE', #503, #374, #149, .T. ) ;
#477 = LINE ( 'NONE', #473, #86 ) ;
#478 = FACE_OUTER_BOUND ( 'NONE', #4, .T. ) ;
#479 = ORIENTED_EDGE ( 'NONE', *, *, #514, .F. ) ;
#480 = CARTESIAN_POINT ( 'NONE',  ( -1.899999999999999911, 2.326828918379971365E-16, 6.649999999999999467 ) ) ;
#481 = CARTESIAN_POINT ( 'NONE',  ( 4.840340526583655212, 1.256748243739028270, 6.180395447149186872 ) ) ;
#482 = CARTESIAN_POINT ( 'NONE',  ( -1.112994231491119645, -1.899999999999999467, 3.637005768508880799 ) ) ;
#483 = ORIENTED_EDGE ( 'NONE', *, *, #375, .T. ) ;
#484 = AXIS2_PLACEMENT_3D ( 'NONE', #180, #569, #177 ) ;
#485 = CARTESIAN_POINT ( 'NONE',  ( -4.864303204869432129, -1.161685259261408865, 6.258534204204261542 ) ) ;
#486 = CARTESIAN_POINT ( 'NONE',  ( -5.000000000000000000, 5.039564055623705232E-20, 6.649999999999999467 ) ) ;
#487 = CARTESIAN_POINT ( 'NONE',  ( -4.630168897535221539, -1.887388575855320605, 5.001637149095826018 ) ) ;
#488 = CARTESIAN_POINT ( 'NONE',  ( 0.000000000000000000, 0.000000000000000000, 0.000000000000000000 ) ) ;
#489 = ORIENTED_EDGE ( 'NONE', *, *, #224, .F. ) ;
#490 = CARTESIAN_POINT ( 'NONE',  ( 5.000000000000000000, 6.122730038989144949E-16, 6.649999999999999467 ) ) ;
#491 = CARTESIAN_POINT ( 'NONE',  ( -4.649878518143827577, -1.838295248994639808, 5.246213128199956444 ) ) ;
#492 = VERTEX_POINT ( 'NONE', #330 ) ;
#493 = AXIS2_PLACEMENT_3D ( 'NONE', #519, #119, #308 ) ;
#494 = DIRECTION ( 'NONE',  ( 1.000000000000000000, 0.000000000000000000, 0.000000000000000000 ) ) ;
#495 = ORIENTED_EDGE ( 'NONE', *, *, #295, .T. ) ;
#496 = APPROVAL_ROLE ( '' ) ;
#497 = CARTESIAN_POINT ( 'NONE',  ( 4.976710010025513498, 0.4976078804828405477, 6.587979859599902177 ) ) ;
#498 = ORGANIZATION ( 'UNSPECIFIED', 'UNSPECIFIED', '' ) ;
#499 = EDGE_CURVE ( 'NONE', #112, #288, #326, .T. ) ;
#500 = AXIS2_PLACEMENT_3D ( 'NONE', #506, #25, #510 ) ;
#501 = DIRECTION ( 'NONE',  ( 0.000000000000000000, 0.000000000000000000, 1.000000000000000000 ) ) ;
#502 = EDGE_CURVE ( 'NONE', #390, #237, #219, .T. ) ;
#503 = VERTEX_POINT ( 'NONE', #66 ) ;
#504 = CARTESIAN_POINT ( 'NONE',  ( 4.995185628709186254, -0.2513022206997130858, 2.862568770074728430 ) ) ;
#505 = VERTEX_POINT ( 'NONE', #545 ) ;
#506 = CARTESIAN_POINT ( 'NONE',  ( 0.000000000000000000, 0.000000000000000000, 9.500000000000000000 ) ) ;
#507 = ORIENTED_EDGE ( 'NONE', *, *, #375, .F. ) ;
#508 = DIRECTION ( 'NONE',  ( 0.000000000000000000, 0.000000000000000000, -1.000000000000000000 ) ) ;
#509 = CC_DESIGN_PERSON_AND_ORGANIZATION_ASSIGNMENT ( #341, #429, ( #349 ) ) ;
#510 = DIRECTION ( 'NONE',  ( 1.000000000000000000, 0.000000000000000000, 0.000000000000000000 ) ) ;
#511 = CARTESIAN_POINT ( 'NONE',  ( -1.899999999999999467, -1.112994231491119201, 6.649999999999998579 ) ) ;
#512 = CARTESIAN_POINT ( 'NONE',  ( 0.000000000000000000, 0.000000000000000000, 0.000000000000000000 ) ) ;
#513 = AXIS2_PLACEMENT_3D ( 'NONE', #526, #131, #351 ) ;
#514 = EDGE_CURVE ( 'NONE', #543, #112, #383, .T. ) ;
#515 = CARTESIAN_POINT ( 'NONE',  ( -4.995185628709186254, 0.2513022206997131414, 2.862568770074728874 ) ) ;
#516 = CARTESIAN_POINT ( 'NONE',  ( 4.909171743695337042, 0.9544557268055230415, 3.102527834829615916 ) ) ;
#517 = CALENDAR_DATE ( 2026, 5, 4 ) ;
#518 = CARTESIAN_POINT ( 'NONE',  ( 4.791305252208104548, 1.432377932527693520, 6.004488238993869409 ) ) ;
#519 = CARTESIAN_POINT ( 'NONE',  ( 0.000000000000000000, 0.000000000000000000, 0.000000000000000000 ) ) ;
#520 = CARTESIAN_POINT ( 'NONE',  ( -1.899999999999999467, -1.112994231491118979, 2.850000000000000089 ) ) ;
#521 = DIRECTION ( 'NONE',  ( 1.000000000000000000, 0.000000000000000000, 0.000000000000000000 ) ) ;
#522 = CARTESIAN_POINT ( 'NONE',  ( 4.700349954508953765, 1.705669436761637625, 3.903803061162204546 ) ) ;
#523 = DIRECTION ( 'NONE',  ( 1.000000000000000000, 0.000000000000000000, 0.000000000000000000 ) ) ;
#524 = LINE ( 'NONE', #129, #43 ) ;
#525 = CARTESIAN_POINT ( 'NONE',  ( -4.963202590595387598, -0.6165213202276850213, 6.551495472143695764 ) ) ;
#526 = CARTESIAN_POINT ( 'NONE',  ( 0.000000000000000000, 0.000000000000000000, 9.500000000000000000 ) ) ;
#527 = CARTESIAN_POINT ( 'NONE',  ( 1.899999999999999467, 1.112994231491119201, 6.649999999999998579 ) ) ;
#528 = EDGE_CURVE ( 'NONE', #38, #533, #321, .T. ) ;
#529 = CARTESIAN_POINT ( 'NONE',  ( -4.721479231380760311, -1.647066511565805191, 5.705130969931410334 ) ) ;
#530 = CARTESIAN_POINT ( 'NONE',  ( 0.000000000000000000, 0.000000000000000000, 0.000000000000000000 ) ) ;
#531 = ORIENTED_EDGE ( 'NONE', *, *, #471, .F. ) ;
#532 = FACE_OUTER_BOUND ( 'NONE', #318, .T. ) ;
#533 = VERTEX_POINT ( 'NONE', #534 ) ;
#534 = CARTESIAN_POINT ( 'NONE',  ( 5.000000000000000000, 6.122730038989144949E-16, 6.649999999999999467 ) ) ;
#535 = CARTESIAN_POINT ( 'NONE',  ( -4.646727592933661555, -1.848868401614714552, 4.246894066109812016 ) ) ;
#536 = ORIENTED_EDGE ( 'NONE', *, *, #553, .F. ) ;
#537 = EDGE_CURVE ( 'NONE', #7, #215, #418, .T. ) ;
#538 = PERSON_AND_ORGANIZATION ( #10, #498 ) ;
#539 = AXIS2_PLACEMENT_3D ( 'NONE', #128, #442, #259 ) ;
#540 = EDGE_CURVE ( 'NONE', #38, #390, #88, .T. ) ;
#541 = SECURITY_CLASSIFICATION ( '', '', #118 ) ;
#542 = CARTESIAN_POINT ( 'NONE',  ( -5.000000000000000000, 5.039564055623705232E-20, 6.649999999999999467 ) ) ;
#543 = VERTEX_POINT ( 'NONE', #480 ) ;
#544 = AXIS2_PLACEMENT_3D ( 'NONE', #512, #550, #199 ) ;
#545 = CARTESIAN_POINT ( 'NONE',  ( 5.000000000000000000, 6.123233995736766282E-16, 9.500000000000000000 ) ) ;
#546 = VERTEX_POINT ( 'NONE', #352 ) ;
#547 = CARTESIAN_POINT ( 'NONE',  ( 4.630088488476104658, -1.887587123975134284, 4.499544857554408139 ) ) ;
#548 = EDGE_LOOP ( 'NONE', ( #57, #551 ) ) ;
#549 = CARTESIAN_POINT ( 'NONE',  ( -5.000000000000000000, 0.000000000000000000, 4.750000000000000000 ) ) ;
#550 = DIRECTION ( 'NONE',  ( 0.000000000000000000, 0.000000000000000000, 1.000000000000000000 ) ) ;
#551 = ORIENTED_EDGE ( 'NONE', *, *, #87, .T. ) ;
#552 = CARTESIAN_POINT ( 'NONE',  ( 0.000000000000000000, -1.899999999999999911, 4.750000000000000000 ) ) ;
#553 = EDGE_CURVE ( 'NONE', #505, #533, #524, .T. ) ;
#554 = EDGE_CURVE ( 'NONE', #112, #7, #144, .T. ) ;
#555 = APPROVAL_DATE_TIME ( #208, #335 ) ;
#556 = PRODUCT ( 'UnivJointInner', 'UnivJointInner', '', ( #8 ) ) ;
#557 = CARTESIAN_POINT ( 'NONE',  ( -4.700429807286035988, 1.705466437965964754, 5.596828688297202703 ) ) ;
#558 = CARTESIAN_POINT ( 'NONE',  ( 4.791947445306827369, 1.430185357102547572, 3.493115831669287630 ) ) ;
#559 = AXIS2_PLACEMENT_3D ( 'NONE', #47, #104, #523 ) ;
#560 = CARTESIAN_POINT ( 'NONE',  ( 4.864933608408715138, 1.159040089601712342, 3.239445022470512914 ) ) ;
#561 = VECTOR ( 'NONE', #151, 1000.000000000000000 ) ;
#562 = PLANE ( 'NONE',  #12 ) ;
#563 = CC_DESIGN_DATE_AND_TIME_ASSIGNMENT ( #301, #203, ( #541 ) ) ;
#564 = LOCAL_TIME ( 12, 7, 28.00000000000000000, #324 ) ;
#565 = CARTESIAN_POINT ( 'NONE',  ( 4.624908115673490805, 1.900059190052205915, 4.874325951781358413 ) ) ;
#566 = FACE_BOUND ( 'NONE', #260, .T. ) ;
#567 = CIRCLE ( 'NONE', #500, 5.000000000000000000 ) ;
#568 = CARTESIAN_POINT ( 'NONE',  ( -4.624903301616644313, 1.900070908314480000, 4.874204161064722207 ) ) ;
#569 = DIRECTION ( 'NONE',  ( 0.000000000000000000, 0.000000000000000000, 1.000000000000000000 ) ) ;
#570 = ADVANCED_FACE ( 'NONE', ( #571 ), #45, .T. ) ;
#571 = FACE_OUTER_BOUND ( 'NONE', #156, .T. ) ;
#572 = DIRECTION ( 'NONE',  ( 0.000000000000000000, 0.000000000000000000, 1.000000000000000000 ) ) ;
#573 = CARTESIAN_POINT ( 'NONE',  ( -1.899999999999999911, 2.326828918379971365E-16, 2.850000000000000533 ) ) ;
ENDSEC;
END-ISO-10303-21;
