ISO-10303-21;
HEADER;
FILE_DESCRIPTION (( 'STEP AP214' ),
    '1' );
FILE_NAME ('AngledBearingHolder.STEP',
    '2026-04-07T22:27:22',
    ( '' ),
    ( '' ),
    'SwSTEP 2.0',
    'SolidWorks 2025',
    '' );
FILE_SCHEMA (( 'AUTOMOTIVE_DESIGN' ));
ENDSEC;

DATA;
#1 = EDGE_LOOP ( 'NONE', ( #986, #102, #1095, #785 ) ) ;
#2 = CARTESIAN_POINT ( 'NONE',  ( 25.00000000000000000, -14.99999999999999645, 0.000000000000000000 ) ) ;
#3 = CARTESIAN_POINT ( 'NONE',  ( -13.87342137715896051, 11.87834482771102707, 8.750000000000000000 ) ) ;
#4 = AXIS2_PLACEMENT_3D ( 'NONE', #829, #20, #378 ) ;
#5 = FACE_OUTER_BOUND ( 'NONE', #545, .T. ) ;
#6 = EDGE_LOOP ( 'NONE', ( #209, #186, #1075, #1080 ) ) ;
#7 = ORIENTED_EDGE ( 'NONE', *, *, #1151, .F. ) ;
#8 = EDGE_CURVE ( 'NONE', #1063, #1066, #40, .T. ) ;
#9 = DIRECTION ( 'NONE',  ( 0.000000000000000000, 0.7071067811865721087, 0.7071067811865230368 ) ) ;
#10 = DIRECTION ( 'NONE',  ( -1.000000000000000000, 0.000000000000000000, 0.000000000000000000 ) ) ;
#11 = CARTESIAN_POINT ( 'NONE',  ( -10.43896218192940140, -1.840670683269472585, -2.600000000000000089 ) ) ;
#12 = ORIENTED_EDGE ( 'NONE', *, *, #747, .T. ) ;
#13 = ORIENTED_EDGE ( 'NONE', *, *, #724, .T. ) ;
#14 = PLANE ( 'NONE',  #335 ) ;
#15 = CYLINDRICAL_SURFACE ( 'NONE', #503, 15.00000000000000000 ) ;
#16 = DIRECTION ( 'NONE',  ( -1.000000000000000000, 0.000000000000000000, 0.000000000000000000 ) ) ;
#17 = ORIENTED_EDGE ( 'NONE', *, *, #636, .F. ) ;
#18 = EDGE_LOOP ( 'NONE', ( #643, #920, #180, #864, #761, #294 ) ) ;
#19 = FACE_OUTER_BOUND ( 'NONE', #144, .T. ) ;
#20 = DIRECTION ( 'NONE',  ( -0.000000000000000000, 0.000000000000000000, 1.000000000000000000 ) ) ;
#21 = CIRCLE ( 'NONE', #677, 1.700000000000000178 ) ;
#22 = FACE_BOUND ( 'NONE', #720, .T. ) ;
#23 = EDGE_CURVE ( 'NONE', #530, #631, #226, .T. ) ;
#24 = CIRCLE ( 'NONE', #409, 1.700000000000000178 ) ;
#25 = ORIENTED_EDGE ( 'NONE', *, *, #347, .T. ) ;
#26 = VECTOR ( 'NONE', #392, 1000.000000000000000 ) ;
#27 = CARTESIAN_POINT ( 'NONE',  ( 0.000000000000000000, 0.000000000000000000, -2.600000000000000089 ) ) ;
#28 = LINE ( 'NONE', #398, #26 ) ;
#29 = EDGE_CURVE ( 'NONE', #990, #471, #1041, .T. ) ;
#30 = PLANE ( 'NONE',  #278 ) ;
#31 = ORIENTED_EDGE ( 'NONE', *, *, #449, .F. ) ;
#32 = AXIS2_PLACEMENT_3D ( 'NONE', #709, #420, #162 ) ;
#33 = DIRECTION ( 'NONE',  ( 6.938893903907228378E-16, 1.000000000000000000, 0.000000000000000000 ) ) ;
#34 = ADVANCED_FACE ( 'NONE', ( #846 ), #786, .T. ) ;
#35 = CARTESIAN_POINT ( 'NONE',  ( 10.43896218192940317, 1.840670683269473917, -2.600000000000000089 ) ) ;
#36 = CARTESIAN_POINT ( 'NONE',  ( 7.355621039632113778, 22.28558720777314051, 2.641095781682739396 ) ) ;
#37 = VERTEX_POINT ( 'NONE', #1012 ) ;
#38 = ORIENTED_EDGE ( 'NONE', *, *, #174, .T. ) ;
#39 = CARTESIAN_POINT ( 'NONE',  ( -25.00000000000000000, -14.99999999999999645, 0.000000000000000000 ) ) ;
#40 = LINE ( 'NONE', #126, #1146 ) ;
#41 = ORIENTED_EDGE ( 'NONE', *, *, #1129, .F. ) ;
#42 = CIRCLE ( 'NONE', #746, 2.999999999999999112 ) ;
#43 = ADVANCED_FACE ( 'NONE', ( #669, #831 ), #30, .F. ) ;
#44 = DIRECTION ( 'NONE',  ( -0.000000000000000000, -0.000000000000000000, -1.000000000000000000 ) ) ;
#45 = CARTESIAN_POINT ( 'NONE',  ( -12.88861362414675149, 12.05199300537798734, 2.600000000000000089 ) ) ;
#46 = CIRCLE ( 'NONE', #203, 1.700000000000000178 ) ;
#47 = EDGE_CURVE ( 'NONE', #1123, #853, #757, .T. ) ;
#48 = EDGE_CURVE ( 'NONE', #658, #192, #489, .T. ) ;
#49 = AXIS2_PLACEMENT_3D ( 'NONE', #458, #987, #820 ) ;
#50 = LINE ( 'NONE', #949, #766 ) ;
#51 = VERTEX_POINT ( 'NONE', #1110 ) ;
#52 = VECTOR ( 'NONE', #735, 1000.000000000000000 ) ;
#53 = CARTESIAN_POINT ( 'NONE',  ( -14.02713824661276654, 12.87753480063939726, 2.641095781682739396 ) ) ;
#54 = ORIENTED_EDGE ( 'NONE', *, *, #548, .F. ) ;
#55 = CARTESIAN_POINT ( 'NONE',  ( 25.00000000000000000, -14.99999999999999645, 1.700000000000000178 ) ) ;
#56 = ORIENTED_EDGE ( 'NONE', *, *, #157, .F. ) ;
#57 = VECTOR ( 'NONE', #44, 1000.000000000000000 ) ;
#58 = CARTESIAN_POINT ( 'NONE',  ( -14.84885272786229038, 12.12719681713567965, 3.488193324558013675 ) ) ;
#59 = DIRECTION ( 'NONE',  ( -0.000000000000000000, -0.000000000000000000, 1.000000000000000000 ) ) ;
#60 = ORIENTED_EDGE ( 'NONE', *, *, #1015, .T. ) ;
#61 = ADVANCED_FACE ( 'NONE', ( #208 ), #674, .F. ) ;
#62 = CARTESIAN_POINT ( 'NONE',  ( -14.62685338396091161, 12.54855021735242104, -3.053414373617078681 ) ) ;
#63 = DIRECTION ( 'NONE',  ( -0.000000000000000000, -0.000000000000000000, -1.000000000000000000 ) ) ;
#64 = AXIS2_PLACEMENT_3D ( 'NONE', #663, #570, #939 ) ;
#65 = DIRECTION ( 'NONE',  ( -0.000000000000000000, 0.000000000000000000, 1.000000000000000000 ) ) ;
#66 = CARTESIAN_POINT ( 'NONE',  ( 0.000000000000000000, -14.99999999999999645, -8.750000000000000000 ) ) ;
#67 = ORIENTED_EDGE ( 'NONE', *, *, #1091, .F. ) ;
#68 = DIRECTION ( 'NONE',  ( 6.938893903907228378E-16, 1.000000000000000000, 0.000000000000000000 ) ) ;
#69 = DIRECTION ( 'NONE',  ( 0.000000000000000000, -0.000000000000000000, -1.000000000000000000 ) ) ;
#70 = EDGE_CURVE ( 'NONE', #530, #172, #579, .T. ) ;
#71 = CARTESIAN_POINT ( 'NONE',  ( -6.750000000000000000, 0.000000000000000000, 8.750000000000000000 ) ) ;
#72 = DIRECTION ( 'NONE',  ( 0.000000000000000000, -0.000000000000000000, -1.000000000000000000 ) ) ;
#73 = ORIENTED_EDGE ( 'NONE', *, *, #1111, .T. ) ;
#74 = CARTESIAN_POINT ( 'NONE',  ( -6.750000000000000000, 0.000000000000000000, 8.750000000000000000 ) ) ;
#75 = ORIENTED_EDGE ( 'NONE', *, *, #259, .T. ) ;
#76 = DIRECTION ( 'NONE',  ( -0.000000000000000000, 0.000000000000000000, 1.000000000000000000 ) ) ;
#77 = EDGE_CURVE ( 'NONE', #641, #1014, #897, .T. ) ;
#78 = ORIENTED_EDGE ( 'NONE', *, *, #285, .T. ) ;
#79 = PLANE ( 'NONE',  #359 ) ;
#80 = VECTOR ( 'NONE', #495, 1000.000000000000000 ) ;
#81 = CARTESIAN_POINT ( 'NONE',  ( -12.88861362414675149, 12.05199300537798734, -2.600000000000000089 ) ) ;
#82 = ORIENTED_EDGE ( 'NONE', *, *, #767, .F. ) ;
#83 = CIRCLE ( 'NONE', #124, 15.00000000000000000 ) ;
#84 = ORIENTED_EDGE ( 'NONE', *, *, #1096, .T. ) ;
#85 = EDGE_LOOP ( 'NONE', ( #771, #185, #1049, #926 ) ) ;
#86 = CARTESIAN_POINT ( 'NONE',  ( 0.000000000000000000, -14.99999999999999645, 8.750000000000000000 ) ) ;
#87 = DIRECTION ( 'NONE',  ( 1.000000000000000000, 0.000000000000000000, 0.000000000000000000 ) ) ;
#88 = EDGE_CURVE ( 'NONE', #210, #901, #993, .T. ) ;
#89 = DIRECTION ( 'NONE',  ( 0.000000000000000000, 1.000000000000000000, -0.000000000000000000 ) ) ;
#90 = EDGE_CURVE ( 'NONE', #198, #591, #732, .T. ) ;
#91 = EDGE_LOOP ( 'NONE', ( #92, #416, #705, #119 ) ) ;
#92 = ORIENTED_EDGE ( 'NONE', *, *, #945, .T. ) ;
#93 = CARTESIAN_POINT ( 'NONE',  ( 25.00000000000000000, -15.02499999999999858, 1.700000000000000178 ) ) ;
#94 = DIRECTION ( 'NONE',  ( 1.000000000000000000, -3.469446951953617344E-15, 0.000000000000000000 ) ) ;
#95 = CARTESIAN_POINT ( 'NONE',  ( 8.559016386288002209, 22.31841055084841230, -3.600000000000000089 ) ) ;
#96 = EDGE_LOOP ( 'NONE', ( #346, #140 ) ) ;
#97 = ORIENTED_EDGE ( 'NONE', *, *, #1129, .T. ) ;
#98 = CARTESIAN_POINT ( 'NONE',  ( 0.000000000000000000, -14.99999999999999645, 8.750000000000000000 ) ) ;
#99 = CARTESIAN_POINT ( 'NONE',  ( 0.000000000000000000, -19.99999999999999645, 8.750000000000000000 ) ) ;
#100 = AXIS2_PLACEMENT_3D ( 'NONE', #1043, #417, #310 ) ;
#101 = FACE_OUTER_BOUND ( 'NONE', #1001, .T. ) ;
#102 = ORIENTED_EDGE ( 'NONE', *, *, #415, .T. ) ;
#103 = DIRECTION ( 'NONE',  ( -0.000000000000000000, -0.000000000000000000, 1.000000000000000000 ) ) ;
#104 = FACE_OUTER_BOUND ( 'NONE', #557, .T. ) ;
#105 = CARTESIAN_POINT ( 'NONE',  ( 10.59999999999999964, 0.000000000000000000, -2.600000000000000089 ) ) ;
#106 = CARTESIAN_POINT ( 'NONE',  ( 0.000000000000000000, 10.00000000000000178, -3.599999999999999201 ) ) ;
#107 = AXIS2_PLACEMENT_3D ( 'NONE', #354, #345, #1140 ) ;
#108 = DIRECTION ( 'NONE',  ( 0.000000000000000000, 0.000000000000000000, 1.000000000000000000 ) ) ;
#109 = ORIENTED_EDGE ( 'NONE', *, *, #961, .T. ) ;
#110 = FACE_BOUND ( 'NONE', #893, .T. ) ;
#111 = AXIS2_PLACEMENT_3D ( 'NONE', #814, #630, #360 ) ;
#112 = EDGE_CURVE ( 'NONE', #566, #1066, #649, .T. ) ;
#113 = FACE_OUTER_BOUND ( 'NONE', #6, .T. ) ;
#114 = CARTESIAN_POINT ( 'NONE',  ( 25.00000000000000000, -14.99999999999999645, 0.000000000000000000 ) ) ;
#115 = VECTOR ( 'NONE', #991, 1000.000000000000000 ) ;
#116 = CARTESIAN_POINT ( 'NONE',  ( -25.00000000000000000, -14.99999999999999645, 0.000000000000000000 ) ) ;
#117 = ORIENTED_EDGE ( 'NONE', *, *, #29, .T. ) ;
#118 = EDGE_CURVE ( 'NONE', #452, #323, #664, .T. ) ;
#119 = ORIENTED_EDGE ( 'NONE', *, *, #497, .F. ) ;
#120 = CARTESIAN_POINT ( 'NONE',  ( 0.000000000000000000, 0.000000000000000000, -2.600000000000000089 ) ) ;
#121 = DIRECTION ( 'NONE',  ( -0.000000000000000000, 0.000000000000000000, 1.000000000000000000 ) ) ;
#122 = CARTESIAN_POINT ( 'NONE',  ( 18.00000000000000000, -14.99999999999999645, 8.750000000000000000 ) ) ;
#123 = ORIENTED_EDGE ( 'NONE', *, *, #487, .T. ) ;
#124 = AXIS2_PLACEMENT_3D ( 'NONE', #693, #1081, #156 ) ;
#125 = LINE ( 'NONE', #667, #892 ) ;
#126 = CARTESIAN_POINT ( 'NONE',  ( -10.43896218192940140, -1.840670683269473917, 2.600000000000000089 ) ) ;
#127 = AXIS2_PLACEMENT_3D ( 'NONE', #1121, #563, #303 ) ;
#128 = ADVANCED_FACE ( 'NONE', ( #932 ), #856, .F. ) ;
#129 = VERTEX_POINT ( 'NONE', #122 ) ;
#130 = ORIENTED_EDGE ( 'NONE', *, *, #8, .T. ) ;
#131 = PLANE ( 'NONE',  #496 ) ;
#132 = EDGE_CURVE ( 'NONE', #996, #641, #1025, .T. ) ;
#133 = CIRCLE ( 'NONE', #1034, 0.9999999999999991118 ) ;
#134 = CARTESIAN_POINT ( 'NONE',  ( -25.00000000000000000, -15.02499999999999858, -1.700000000000000178 ) ) ;
#135 = UNCERTAINTY_MEASURE_WITH_UNIT (LENGTH_MEASURE( 1.000000000000000082E-05 ), #334, 'distance_accuracy_value', 'NONE');
#136 = VECTOR ( 'NONE', #317, 1000.000000000000000 ) ;
#137 = ADVANCED_FACE ( 'NONE', ( #832 ), #657, .T. ) ;
#138 = CARTESIAN_POINT ( 'NONE',  ( -25.00000000000000000, -14.99999999999999645, 1.725000000000000755 ) ) ;
#139 = VECTOR ( 'NONE', #251, 1000.000000000000000 ) ;
#140 = ORIENTED_EDGE ( 'NONE', *, *, #212, .T. ) ;
#141 = CARTESIAN_POINT ( 'NONE',  ( -30.00000000000000000, -14.99999999999999645, 8.750000000000000000 ) ) ;
#142 = CARTESIAN_POINT ( 'NONE',  ( -13.87342137715896051, 11.87834482771102707, -2.600000000000000089 ) ) ;
#143 = CARTESIAN_POINT ( 'NONE',  ( 0.000000000000000000, 0.000000000000000000, 2.600000000000000089 ) ) ;
#144 = EDGE_LOOP ( 'NONE', ( #25, #454, #756, #624 ) ) ;
#145 = ADVANCED_FACE ( 'NONE', ( #529 ), #1065, .F. ) ;
#146 = AXIS2_PLACEMENT_3D ( 'NONE', #1136, #1022, #422 ) ;
#147 = CARTESIAN_POINT ( 'NONE',  ( -13.70394810170342836, 12.86387961091574716, 2.600000000000000089 ) ) ;
#148 = DIRECTION ( 'NONE',  ( 0.000000000000000000, 0.000000000000000000, 1.000000000000000000 ) ) ;
#149 = ORIENTED_EDGE ( 'NONE', *, *, #256, .F. ) ;
#150 = CARTESIAN_POINT ( 'NONE',  ( 10.59999999999999964, 0.000000000000000000, -2.600000000000000089 ) ) ;
#151 = ORIENTED_EDGE ( 'NONE', *, *, #228, .F. ) ;
#152 = CARTESIAN_POINT ( 'NONE',  ( 15.00000000000000000, 0.000000000000000000, 8.750000000000000000 ) ) ;
#153 = ORIENTED_EDGE ( 'NONE', *, *, #494, .F. ) ;
#154 = CARTESIAN_POINT ( 'NONE',  ( 25.00000000000000000, -14.99999999999999645, -1.725000000000000755 ) ) ;
#155 = CARTESIAN_POINT ( 'NONE',  ( -6.750000000000000000, 0.000000000000000000, 2.600000000000000089 ) ) ;
#156 = DIRECTION ( 'NONE',  ( 1.000000000000000000, 0.000000000000000000, 0.000000000000000000 ) ) ;
#157 = EDGE_CURVE ( 'NONE', #1089, #1026, #337, .T. ) ;
#158 = DIRECTION ( 'NONE',  ( -0.000000000000000000, -0.000000000000000000, -1.000000000000000000 ) ) ;
#159 = DIRECTION ( 'NONE',  ( -0.000000000000000000, 0.000000000000000000, 1.000000000000000000 ) ) ;
#160 = VERTEX_POINT ( 'NONE', #628 ) ;
#161 = CARTESIAN_POINT ( 'NONE',  ( 8.125800743992863673, 22.49491247301034846, -3.157682187467699020 ) ) ;
#162 = DIRECTION ( 'NONE',  ( 6.938893903907228378E-16, -1.000000000000000000, 0.000000000000000000 ) ) ;
#163 = AXIS2_PLACEMENT_3D ( 'NONE', #1150, #514, #332 ) ;
#164 = EDGE_LOOP ( 'NONE', ( #739, #614, #1020, #375 ) ) ;
#165 = CARTESIAN_POINT ( 'NONE',  ( -6.750000000000000000, 0.000000000000000000, -2.600000000000000089 ) ) ;
#166 = LINE ( 'NONE', #176, #1115 ) ;
#167 = ORIENTED_EDGE ( 'NONE', *, *, #1027, .T. ) ;
#168 = TOROIDAL_SURFACE ( 'NONE', #4, 13.99999999999999822, 1.000000000000000000 ) ;
#169 = SHAPE_DEFINITION_REPRESENTATION ( #660, #1082 ) ;
#170 = CIRCLE ( 'NONE', #1103, 1.000000000000000888 ) ;
#171 = CARTESIAN_POINT ( 'NONE',  ( 0.000000000000000000, 0.000000000000000000, 2.600000000000000089 ) ) ;
#172 = VERTEX_POINT ( 'NONE', #688 ) ;
#173 = ORIENTED_EDGE ( 'NONE', *, *, #903, .T. ) ;
#174 = EDGE_CURVE ( 'NONE', #452, #980, #42, .T. ) ;
#175 = FACE_OUTER_BOUND ( 'NONE', #1000, .T. ) ;
#176 = CARTESIAN_POINT ( 'NONE',  ( -18.00000000000000000, -14.99999999999999645, 8.750000000000000000 ) ) ;
#177 = EDGE_CURVE ( 'NONE', #666, #631, #224, .T. ) ;
#178 = CARTESIAN_POINT ( 'NONE',  ( 0.000000000000000000, 10.00000000000000178, -2.600000000000000089 ) ) ;
#179 = ORIENTED_EDGE ( 'NONE', *, *, #214, .F. ) ;
#180 = ORIENTED_EDGE ( 'NONE', *, *, #23, .F. ) ;
#181 = LINE ( 'NONE', #344, #978 ) ;
#182 = AXIS2_PLACEMENT_3D ( 'NONE', #116, #670, #197 ) ;
#183 = CARTESIAN_POINT ( 'NONE',  ( 7.988415293868801115, 21.49718318079185408, -2.600000000000000089 ) ) ;
#184 = CARTESIAN_POINT ( 'NONE',  ( 25.00000000000000000, -14.99999999999999645, 0.000000000000000000 ) ) ;
#185 = ORIENTED_EDGE ( 'NONE', *, *, #157, .T. ) ;
#186 = ORIENTED_EDGE ( 'NONE', *, *, #88, .T. ) ;
#187 = DIRECTION ( 'NONE',  ( -0.000000000000000000, 1.000000000000000000, -0.000000000000000000 ) ) ;
#188 = PRODUCT_DEFINITION ( 'UNKNOWN', '', #194, #575 ) ;
#189 = LINE ( 'NONE', #99, #569 ) ;
#190 = CYLINDRICAL_SURFACE ( 'NONE', #1131, 1.000000000000000000 ) ;
#191 = ORIENTED_EDGE ( 'NONE', *, *, #48, .T. ) ;
#192 = VERTEX_POINT ( 'NONE', #896 ) ;
#193 = FACE_OUTER_BOUND ( 'NONE', #982, .T. ) ;
#194 = PRODUCT_DEFINITION_FORMATION_WITH_SPECIFIED_SOURCE ( 'ANY', '', #560, .NOT_KNOWN. ) ;
#195 = CYLINDRICAL_SURFACE ( 'NONE', #343, 6.750000000000000000 ) ;
#196 = ORIENTED_EDGE ( 'NONE', *, *, #1077, .T. ) ;
#197 = DIRECTION ( 'NONE',  ( 0.000000000000000000, 0.000000000000000000, 1.000000000000000000 ) ) ;
#198 = VERTEX_POINT ( 'NONE', #956 ) ;
#199 = EDGE_CURVE ( 'NONE', #432, #780, #133, .T. ) ;
#200 = DIRECTION ( 'NONE',  ( -1.000000000000000000, 6.938893903907228378E-16, 0.000000000000000000 ) ) ;
#201 = CARTESIAN_POINT ( 'NONE',  ( -25.00000000000000000, -19.99999999999999645, 0.000000000000000000 ) ) ;
#202 = DIRECTION ( 'NONE',  ( 1.000000000000000000, 0.000000000000000000, 0.000000000000000000 ) ) ;
#203 = AXIS2_PLACEMENT_3D ( 'NONE', #1153, #799, #245 ) ;
#204 = CARTESIAN_POINT ( 'NONE',  ( 0.000000000000000000, 0.000000000000000000, 8.750000000000000000 ) ) ;
#205 = ORIENTED_EDGE ( 'NONE', *, *, #177, .T. ) ;
#206 = ORIENTED_EDGE ( 'NONE', *, *, #961, .F. ) ;
#207 = LINE ( 'NONE', #574, #481 ) ;
#208 = FACE_OUTER_BOUND ( 'NONE', #733, .T. ) ;
#209 = ORIENTED_EDGE ( 'NONE', *, *, #1015, .F. ) ;
#210 = VERTEX_POINT ( 'NONE', #882 ) ;
#211 = DIRECTION ( 'NONE',  ( -0.000000000000000000, 0.000000000000000000, 1.000000000000000000 ) ) ;
#212 = EDGE_CURVE ( 'NONE', #366, #299, #1054, .T. ) ;
#213 = DIRECTION ( 'NONE',  ( -0.000000000000000000, 0.000000000000000000, 1.000000000000000000 ) ) ;
#214 = EDGE_CURVE ( 'NONE', #996, #218, #889, .T. ) ;
#215 = DIRECTION ( 'NONE',  ( 0.000000000000000000, -0.000000000000000000, -1.000000000000000000 ) ) ;
#216 = DIRECTION ( 'NONE',  ( -0.1736481776669314692, 0.9848077530122079093, 0.000000000000000000 ) ) ;
#217 = VERTEX_POINT ( 'NONE', #985 ) ;
#218 = VERTEX_POINT ( 'NONE', #875 ) ;
#219 = DIRECTION ( 'NONE',  ( -1.000000000000000000, 0.000000000000000000, 0.000000000000000000 ) ) ;
#220 = CLOSED_SHELL ( 'NONE', ( #989, #887, #244, #61, #891, #618, #465, #584, #137, #682, #917, #34, #681, #561, #145, #633, #390, #413, #928, #872, #862, #1004, #983, #399, #328, #567, #770, #290, #43, #1048, #501, #763, #719, #444, #128 ) ) ;
#221 = LINE ( 'NONE', #955, #403 ) ;
#222 = VECTOR ( 'NONE', #89, 1000.000000000000000 ) ;
#223 = VECTOR ( 'NONE', #103, 1000.000000000000000 ) ;
#224 = CIRCLE ( 'NONE', #382, 13.99999999999999822 ) ;
#225 = DIRECTION ( 'NONE',  ( -0.000000000000000000, -0.000000000000000000, -1.000000000000000000 ) ) ;
#226 = B_SPLINE_CURVE_WITH_KNOTS ( 'NONE', 3,
 ( #576, #292, #490, #851, #400, #1024, #381, #36, #394, #924 ),
 .UNSPECIFIED., .F., .F.,
 ( 4, 2, 2, 2, 4 ),
 ( -6.546546089947621208E-06, 0.0004762045483705847635, 0.0009589556428311171634, 0.001441706737291649672, 0.001924457831752181963 ),
 .UNSPECIFIED. ) ;
#227 = CIRCLE ( 'NONE', #946, 1.700000000000000178 ) ;
#228 = EDGE_CURVE ( 'NONE', #715, #815, #976, .T. ) ;
#229 = CARTESIAN_POINT ( 'NONE',  ( -10.43896218192940140, -1.840670683269473917, -2.600000000000000089 ) ) ;
#230 = EDGE_CURVE ( 'NONE', #853, #452, #166, .T. ) ;
#231 = ORIENTED_EDGE ( 'NONE', *, *, #811, .T. ) ;
#232 = CARTESIAN_POINT ( 'NONE',  ( 15.00000000000000000, -11.99999999999999645, 8.750000000000000000 ) ) ;
#233 = DIRECTION ( 'NONE',  ( -0.000000000000000000, 0.000000000000000000, 1.000000000000000000 ) ) ;
#234 = ORIENTED_EDGE ( 'NONE', *, *, #199, .F. ) ;
#235 = CARTESIAN_POINT ( 'NONE',  ( -18.00000000000000000, -11.99999999999999645, 8.750000000000000000 ) ) ;
#236 = SURFACE_SIDE_STYLE ('',( #777 ) ) ;
#237 = ORIENTED_EDGE ( 'NONE', *, *, #88, .F. ) ;
#238 = CARTESIAN_POINT ( 'NONE',  ( -14.70181449633366810, 12.45114788510564630, 3.157682187467698132 ) ) ;
#239 = DIRECTION ( 'NONE',  ( -0.000000000000000000, 0.000000000000000000, 1.000000000000000000 ) ) ;
#240 = ORIENTED_EDGE ( 'NONE', *, *, #461, .T. ) ;
#241 = EDGE_CURVE ( 'NONE', #935, #996, #810, .T. ) ;
#242 = CARTESIAN_POINT ( 'NONE',  ( -13.70394810170342836, 12.86387961091574716, -2.600000000000000089 ) ) ;
#243 = LINE ( 'NONE', #722, #679 ) ;
#244 = ADVANCED_FACE ( 'NONE', ( #600 ), #1011, .F. ) ;
#245 = DIRECTION ( 'NONE',  ( 0.000000000000000000, 0.000000000000000000, 1.000000000000000000 ) ) ;
#246 = VERTEX_POINT ( 'NONE', #81 ) ;
#247 = CARTESIAN_POINT ( 'NONE',  ( -13.86535016605276027, 12.89163442685600103, -2.599999999999999201 ) ) ;
#248 = DIRECTION ( 'NONE',  ( -0.000000000000000000, 1.000000000000000000, -0.000000000000000000 ) ) ;
#249 = ORIENTED_EDGE ( 'NONE', *, *, #930, .F. ) ;
#250 = CARTESIAN_POINT ( 'NONE',  ( 25.00000000000000000, -14.99999999999999645, 0.000000000000000000 ) ) ;
#251 = DIRECTION ( 'NONE',  ( 1.000000000000000000, 0.000000000000000000, 0.000000000000000000 ) ) ;
#252 = EDGE_LOOP ( 'NONE', ( #540, #601, #833, #762 ) ) ;
#253 = CARTESIAN_POINT ( 'NONE',  ( 0.000000000000000000, 0.000000000000000000, 0.000000000000000000 ) ) ;
#254 = DIRECTION ( 'NONE',  ( 1.000000000000000000, 0.000000000000000000, 0.000000000000000000 ) ) ;
#255 = ORIENTED_EDGE ( 'NONE', *, *, #212, .F. ) ;
#256 = EDGE_CURVE ( 'NONE', #1026, #715, #351, .T. ) ;
#257 = AXIS2_PLACEMENT_3D ( 'NONE', #457, #818, #10 ) ;
#258 = ORIENTED_EDGE ( 'NONE', *, *, #177, .F. ) ;
#259 = EDGE_CURVE ( 'NONE', #631, #432, #446, .T. ) ;
#260 = LINE ( 'NONE', #817, #1078 ) ;
#261 = DIRECTION ( 'NONE',  ( 1.000000000000000000, 0.000000000000000000, 0.000000000000000000 ) ) ;
#262 = EDGE_LOOP ( 'NONE', ( #467, #639, #1112, #840, #240, #396, #571, #665 ) ) ;
#263 = VECTOR ( 'NONE', #187, 1000.000000000000000 ) ;
#264 = CYLINDRICAL_SURFACE ( 'NONE', #49, 6.750000000000000000 ) ;
#265 = ORIENTED_EDGE ( 'NONE', *, *, #506, .T. ) ;
#266 = FACE_BOUND ( 'NONE', #768, .T. ) ;
#267 = ORIENTED_EDGE ( 'NONE', *, *, #387, .T. ) ;
#268 = DIRECTION ( 'NONE',  ( -0.1736481776669314414, 0.9848077530122079093, 0.000000000000000000 ) ) ;
#269 = AXIS2_PLACEMENT_3D ( 'NONE', #737, #213, #1005 ) ;
#270 = DIRECTION ( 'NONE',  ( -0.000000000000000000, -0.000000000000000000, -1.000000000000000000 ) ) ;
#271 = MECHANICAL_DESIGN_GEOMETRIC_PRESENTATION_REPRESENTATION (  '', ( #603 ), #483 ) ;
#272 = CARTESIAN_POINT ( 'NONE',  ( -25.00000000000000000, -14.99999999999999645, -1.725000000000000755 ) ) ;
#273 = ORIENTED_EDGE ( 'NONE', *, *, #659, .F. ) ;
#274 = B_SPLINE_CURVE_WITH_KNOTS ( 'NONE', 3,
 ( #863, #58, #309, #238, #583, #498, #1139, #53, #1029, #147 ),
 .UNSPECIFIED., .F., .F.,
 ( 4, 2, 2, 2, 4 ),
 ( -6.546546089946121112E-06, 0.0004762045483705860645, 0.0009589556428311182476, 0.001441706737291650322, 0.001924457831752182614 ),
 .UNSPECIFIED. ) ;
#275 = EDGE_CURVE ( 'NONE', #383, #37, #406, .T. ) ;
#276 = VERTEX_POINT ( 'NONE', #792 ) ;
#277 = DIRECTION ( 'NONE',  ( -0.000000000000000000, -0.000000000000000000, -1.000000000000000000 ) ) ;
#278 = AXIS2_PLACEMENT_3D ( 'NONE', #484, #918, #748 ) ;
#279 = FACE_OUTER_BOUND ( 'NONE', #800, .T. ) ;
#280 = ORIENTED_EDGE ( 'NONE', *, *, #312, .F. ) ;
#281 = ORIENTED_EDGE ( 'NONE', *, *, #230, .F. ) ;
#282 = CARTESIAN_POINT ( 'NONE',  ( -13.87342137715896051, 11.87834482771102707, 2.600000000000000089 ) ) ;
#283 = DIRECTION ( 'NONE',  ( 0.000000000000000000, -0.000000000000000000, 1.000000000000000000 ) ) ;
#284 = AXIS2_PLACEMENT_3D ( 'NONE', #672, #556, #219 ) ;
#285 = EDGE_CURVE ( 'NONE', #1132, #988, #46, .T. ) ;
#286 = ORIENTED_EDGE ( 'NONE', *, *, #774, .F. ) ;
#287 = ORIENTED_EDGE ( 'NONE', *, *, #487, .F. ) ;
#288 = DIRECTION ( 'NONE',  ( 1.000000000000000000, 0.000000000000000000, 0.000000000000000000 ) ) ;
#289 = DIRECTION ( 'NONE',  ( 1.000000000000000000, 9.251858538542971828E-16, 0.000000000000000000 ) ) ;
#290 = ADVANCED_FACE ( 'NONE', ( #322, #1148 ), #613, .T. ) ;
#291 = CARTESIAN_POINT ( 'NONE',  ( -29.99999999999999645, -19.99999999999999645, -8.750000000000000000 ) ) ;
#292 = CARTESIAN_POINT ( 'NONE',  ( 8.463975034296025157, 22.38444670751947996, 3.488193324561675190 ) ) ;
#293 = CARTESIAN_POINT ( 'NONE',  ( 10.43896218192940317, 1.840670683269473473, -2.600000000000000089 ) ) ;
#294 = ORIENTED_EDGE ( 'NONE', *, *, #590, .F. ) ;
#295 = VECTOR ( 'NONE', #59, 1000.000000000000000 ) ;
#296 = DIRECTION ( 'NONE',  ( 1.000000000000000000, 0.000000000000000000, 0.000000000000000000 ) ) ;
#297 = DIRECTION ( 'NONE',  ( 0.1736481776669315247, -0.9848077530122079093, 0.000000000000000000 ) ) ;
#298 = DIRECTION ( 'NONE',  ( -0.000000000000000000, -0.000000000000000000, 1.000000000000000000 ) ) ;
#299 = VERTEX_POINT ( 'NONE', #314 ) ;
#300 = EDGE_CURVE ( 'NONE', #383, #356, #1038, .T. ) ;
#301 = EDGE_CURVE ( 'NONE', #591, #198, #676, .T. ) ;
#302 = CARTESIAN_POINT ( 'NONE',  ( -25.00000000000000000, -15.02499999999999858, 1.700000000000000178 ) ) ;
#303 = DIRECTION ( 'NONE',  ( 0.000000000000000000, 0.000000000000000000, 1.000000000000000000 ) ) ;
#304 = COLOUR_RGB ( '',0.7921568627450980005, 0.8196078431372548767, 0.9333333333333333481 ) ;
#305 = ORIENTED_EDGE ( 'NONE', *, *, #506, .F. ) ;
#306 = DIRECTION ( 'NONE',  ( -0.000000000000000000, -0.000000000000000000, -1.000000000000000000 ) ) ;
#307 = CARTESIAN_POINT ( 'NONE',  ( -18.00000000000000000, -11.99999999999999645, 8.750000000000000000 ) ) ;
#308 = ORIENTED_EDGE ( 'NONE', *, *, #913, .T. ) ;
#309 = CARTESIAN_POINT ( 'NONE',  ( -14.81363420546097664, 12.23936884346752052, 3.376242525615428480 ) ) ;
#310 = DIRECTION ( 'NONE',  ( 1.000000000000000000, 0.000000000000000000, 0.000000000000000000 ) ) ;
#311 = AXIS2_PLACEMENT_3D ( 'NONE', #184, #898, #1079 ) ;
#312 = EDGE_CURVE ( 'NONE', #471, #990, #456, .T. ) ;
#313 = VECTOR ( 'NONE', #430, 1000.000000000000000 ) ;
#314 = CARTESIAN_POINT ( 'NONE',  ( -6.750000000000000000, 0.000000000000000000, -8.750000000000000000 ) ) ;
#315 = AXIS2_PLACEMENT_3D ( 'NONE', #120, #929, #296 ) ;
#316 = ORIENTED_EDGE ( 'NONE', *, *, #90, .F. ) ;
#317 = DIRECTION ( 'NONE',  ( -0.000000000000000000, -0.000000000000000000, -1.000000000000000000 ) ) ;
#318 = CARTESIAN_POINT ( 'NONE',  ( 25.00000000000000000, -14.99999999999999645, -1.700000000000000178 ) ) ;
#319 = ORIENTED_EDGE ( 'NONE', *, *, #548, .T. ) ;
#320 = CIRCLE ( 'NONE', #388, 10.59999999999999964 ) ;
#321 = CARTESIAN_POINT ( 'NONE',  ( 0.000000000000000000, 0.000000000000000000, 8.750000000000000000 ) ) ;
#322 = FACE_BOUND ( 'NONE', #327, .T. ) ;
#323 = VERTEX_POINT ( 'NONE', #602 ) ;
#324 = FACE_OUTER_BOUND ( 'NONE', #957, .T. ) ;
#325 = VECTOR ( 'NONE', #740, 1000.000000000000000 ) ;
#326 = CARTESIAN_POINT ( 'NONE',  ( 0.000000000000000000, 0.000000000000000000, -2.600000000000000089 ) ) ;
#327 = EDGE_LOOP ( 'NONE', ( #373, #686 ) ) ;
#328 = ADVANCED_FACE ( 'NONE', ( #597 ), #1144, .F. ) ;
#329 = CARTESIAN_POINT ( 'NONE',  ( -15.00000000000000000, 10.00000000000000178, 8.750000000000000000 ) ) ;
#330 = CARTESIAN_POINT ( 'NONE',  ( 0.000000000000000000, 0.000000000000000000, -2.600000000000000089 ) ) ;
#331 = EDGE_LOOP ( 'NONE', ( #619, #1127, #191, #82 ) ) ;
#332 = DIRECTION ( 'NONE',  ( 0.000000000000000000, 0.000000000000000000, 1.000000000000000000 ) ) ;
#333 = CYLINDRICAL_SURFACE ( 'NONE', #440, 1.700000000000000178 ) ;
#334 =( LENGTH_UNIT ( ) NAMED_UNIT ( * ) SI_UNIT ( .MILLI., .METRE. ) );
#335 = AXIS2_PLACEMENT_3D ( 'NONE', #98, #368, #742 ) ;
#336 = DIRECTION ( 'NONE',  ( 0.000000000000000000, 0.000000000000000000, 1.000000000000000000 ) ) ;
#337 = LINE ( 'NONE', #867, #586 ) ;
#338 = ORIENTED_EDGE ( 'NONE', *, *, #655, .T. ) ;
#339 = VECTOR ( 'NONE', #216, 1000.000000000000000 ) ;
#340 = CARTESIAN_POINT ( 'NONE',  ( 8.003345703102693776, 22.50545503701818717, -3.053414373617080457 ) ) ;
#341 = DIRECTION ( 'NONE',  ( 1.000000000000000000, 0.000000000000000000, 0.000000000000000000 ) ) ;
#342 = PLANE ( 'NONE',  #782 ) ;
#343 = AXIS2_PLACEMENT_3D ( 'NONE', #938, #654, #470 ) ;
#344 = CARTESIAN_POINT ( 'NONE',  ( -15.00000000000000000, 0.000000000000000000, 8.750000000000000000 ) ) ;
#345 = DIRECTION ( 'NONE',  ( -0.000000000000000000, 0.000000000000000000, 1.000000000000000000 ) ) ;
#346 = ORIENTED_EDGE ( 'NONE', *, *, #999, .T. ) ;
#347 = EDGE_CURVE ( 'NONE', #357, #815, #50, .T. ) ;
#348 = CARTESIAN_POINT ( 'NONE',  ( 6.988415293868801115, 21.49718318079185408, 2.600000000000000089 ) ) ;
#349 = ORIENTED_EDGE ( 'NONE', *, *, #300, .F. ) ;
#350 = CARTESIAN_POINT ( 'NONE',  ( 6.750000000000000000, 8.266365894244634333E-16, -8.750000000000000000 ) ) ;
#351 = CIRCLE ( 'NONE', #950, 2.999999999999999112 ) ;
#352 = ORIENTED_EDGE ( 'NONE', *, *, #199, .T. ) ;
#353 = CARTESIAN_POINT ( 'NONE',  ( -25.00000000000000000, -15.02499999999999858, 0.000000000000000000 ) ) ;
#354 = CARTESIAN_POINT ( 'NONE',  ( 7.988415293868801115, 21.49718318079185408, 2.600000000000000089 ) ) ;
#355 = ORIENTED_EDGE ( 'NONE', *, *, #415, .F. ) ;
#356 = VERTEX_POINT ( 'NONE', #764 ) ;
#357 = VERTEX_POINT ( 'NONE', #936 ) ;
#358 = DIRECTION ( 'NONE',  ( 0.000000000000000000, 1.000000000000000000, -0.000000000000000000 ) ) ;
#359 = AXIS2_PLACEMENT_3D ( 'NONE', #813, #967, #268 ) ;
#360 = DIRECTION ( 'NONE',  ( 0.1736481776669315247, -0.9848077530122079093, 0.000000000000000000 ) ) ;
#361 = ORIENTED_EDGE ( 'NONE', *, *, #241, .F. ) ;
#362 = LINE ( 'NONE', #1152, #834 ) ;
#363 = MANIFOLD_SOLID_BREP ( 'M3 Clearance Hole1', #220 ) ;
#364 = CARTESIAN_POINT ( 'NONE',  ( -25.00000000000000000, -14.99999999999999645, -1.725000000000000755 ) ) ;
#365 = FACE_OUTER_BOUND ( 'NONE', #671, .T. ) ;
#366 = VERTEX_POINT ( 'NONE', #350 ) ;
#367 = ORIENTED_EDGE ( 'NONE', *, *, #112, .T. ) ;
#368 = DIRECTION ( 'NONE',  ( 0.000000000000000000, 1.000000000000000000, 0.000000000000000000 ) ) ;
#369 = CARTESIAN_POINT ( 'NONE',  ( 0.000000000000000000, 10.00000000000000178, 8.750000000000000000 ) ) ;
#370 = EDGE_CURVE ( 'NONE', #1161, #217, #83, .T. ) ;
#371 = DIRECTION ( 'NONE',  ( 0.000000000000000000, 0.000000000000000000, 1.000000000000000000 ) ) ;
#372 = DIRECTION ( 'NONE',  ( -0.000000000000000000, 0.000000000000000000, 1.000000000000000000 ) ) ;
#373 = ORIENTED_EDGE ( 'NONE', *, *, #945, .F. ) ;
#374 = DIRECTION ( 'NONE',  ( -0.000000000000000000, -0.000000000000000000, -1.000000000000000000 ) ) ;
#375 = ORIENTED_EDGE ( 'NONE', *, *, #1151, .T. ) ;
#376 = AXIS2_PLACEMENT_3D ( 'NONE', #235, #638, #994 ) ;
#377 = DIRECTION ( 'NONE',  ( -0.000000000000000000, -0.000000000000000000, 1.000000000000000000 ) ) ;
#378 = DIRECTION ( 'NONE',  ( 1.000000000000000000, 0.000000000000000000, 0.000000000000000000 ) ) ;
#379 = DIRECTION ( 'NONE',  ( 0.000000000000000000, 1.000000000000000000, 0.000000000000000000 ) ) ;
#380 = AXIS2_PLACEMENT_3D ( 'NONE', #27, #377, #288 ) ;
#381 = CARTESIAN_POINT ( 'NONE',  ( 7.611767143935700197, 22.43534396077961190, 2.772299556408620358 ) ) ;
#382 = AXIS2_PLACEMENT_3D ( 'NONE', #512, #72, #261 ) ;
#383 = VERTEX_POINT ( 'NONE', #711 ) ;
#384 = CYLINDRICAL_SURFACE ( 'NONE', #493, 1.700000000000000178 ) ;
#385 = AXIS2_PLACEMENT_3D ( 'NONE', #942, #606, #779 ) ;
#386 = FACE_OUTER_BOUND ( 'NONE', #401, .T. ) ;
#387 = EDGE_CURVE ( 'NONE', #805, #988, #900, .T. ) ;
#388 = AXIS2_PLACEMENT_3D ( 'NONE', #616, #610, #254 ) ;
#389 = DIRECTION ( 'NONE',  ( 0.000000000000000000, 0.000000000000000000, 1.000000000000000000 ) ) ;
#390 = ADVANCED_FACE ( 'NONE', ( #266, #1069 ), #342, .F. ) ;
#391 = ORIENTED_EDGE ( 'NONE', *, *, #477, .T. ) ;
#392 = DIRECTION ( 'NONE',  ( 1.000000000000000000, 0.000000000000000000, 0.000000000000000000 ) ) ;
#393 = AXIS2_PLACEMENT_3D ( 'NONE', #931, #215, #919 ) ;
#394 = CARTESIAN_POINT ( 'NONE',  ( 7.235918214478509469, 22.17583559675541949, 2.599999999999999645 ) ) ;
#395 = ORIENTED_EDGE ( 'NONE', *, *, #659, .T. ) ;
#396 = ORIENTED_EDGE ( 'NONE', *, *, #1135, .T. ) ;
#397 = PRESENTATION_STYLE_ASSIGNMENT (( #871 ) ) ;
#398 = CARTESIAN_POINT ( 'NONE',  ( 0.000000000000000000, -14.99999999999999645, 8.750000000000000000 ) ) ;
#399 = ADVANCED_FACE ( 'NONE', ( #981, #1157 ), #971, .F. ) ;
#400 = CARTESIAN_POINT ( 'NONE',  ( 8.003345703102693776, 22.50545503701818717, 3.053414373617080901 ) ) ;
#401 = EDGE_LOOP ( 'NONE', ( #793, #598, #12, #821, #689, #500, #447, #883, #876, #391 ) ) ;
#402 =( NAMED_UNIT ( * ) SI_UNIT ( $, .STERADIAN. ) SOLID_ANGLE_UNIT ( ) );
#403 = VECTOR ( 'NONE', #499, 999.9999999999998863 ) ;
#404 = CARTESIAN_POINT ( 'NONE',  ( -29.99999999999999645, -19.99999999999999645, 8.750000000000000000 ) ) ;
#405 = EDGE_CURVE ( 'NONE', #935, #160, #804, .T. ) ;
#406 = CIRCLE ( 'NONE', #517, 1.700000000000000178 ) ;
#407 = LINE ( 'NONE', #138, #841 ) ;
#408 = AXIS2_PLACEMENT_3D ( 'NONE', #463, #1106, #289 ) ;
#409 = AXIS2_PLACEMENT_3D ( 'NONE', #627, #706, #336 ) ;
#410 = ORIENTED_EDGE ( 'NONE', *, *, #497, .T. ) ;
#411 = DIRECTION ( 'NONE',  ( 0.000000000000000000, 0.000000000000000000, 1.000000000000000000 ) ) ;
#412 = ORIENTED_EDGE ( 'NONE', *, *, #877, .T. ) ;
#413 = ADVANCED_FACE ( 'NONE', ( #692 ), #427, .T. ) ;
#414 = AXIS2_PLACEMENT_3D ( 'NONE', #321, #587, #773 ) ;
#415 = EDGE_CURVE ( 'NONE', #780, #641, #523, .T. ) ;
#416 = ORIENTED_EDGE ( 'NONE', *, *, #1031, .T. ) ;
#417 = DIRECTION ( 'NONE',  ( -0.000000000000000000, 0.000000000000000000, 1.000000000000000000 ) ) ;
#418 = DIRECTION ( 'NONE',  ( -0.000000000000000000, 0.000000000000000000, 1.000000000000000000 ) ) ;
#419 = ORIENTED_EDGE ( 'NONE', *, *, #1031, .F. ) ;
#420 = DIRECTION ( 'NONE',  ( -1.000000000000000000, -6.938893903907228378E-16, 0.000000000000000000 ) ) ;
#421 = AXIS2_PLACEMENT_3D ( 'NONE', #114, #1116, #389 ) ;
#422 = DIRECTION ( 'NONE',  ( 0.000000000000000000, 0.000000000000000000, 1.000000000000000000 ) ) ;
#423 = DIRECTION ( 'NONE',  ( 1.000000000000000000, 0.000000000000000000, 0.000000000000000000 ) ) ;
#424 = CARTESIAN_POINT ( 'NONE',  ( 0.000000000000000000, 0.000000000000000000, -8.750000000000000000 ) ) ;
#425 = ORIENTED_EDGE ( 'NONE', *, *, #1135, .F. ) ;
#426 = CARTESIAN_POINT ( 'NONE',  ( 7.611767143935702862, 22.43534396077961190, -2.772299556408619914 ) ) ;
#427 = PLANE ( 'NONE',  #32 ) ;
#428 = DIRECTION ( 'NONE',  ( -0.000000000000000000, 1.000000000000000000, -0.000000000000000000 ) ) ;
#429 = CIRCLE ( 'NONE', #796, 1.700000000000000178 ) ;
#430 = DIRECTION ( 'NONE',  ( -1.000000000000000000, 0.000000000000000000, 0.000000000000000000 ) ) ;
#431 = DIRECTION ( 'NONE',  ( -0.000000000000000000, 1.000000000000000000, -0.000000000000000000 ) ) ;
#432 = VERTEX_POINT ( 'NONE', #348 ) ;
#433 = DIRECTION ( 'NONE',  ( -0.000000000000000000, -0.000000000000000000, 1.000000000000000000 ) ) ;
#434 = EDGE_LOOP ( 'NONE', ( #349, #206, #520, #577 ) ) ;
#435 = VECTOR ( 'NONE', #341, 1000.000000000000000 ) ;
#436 = DIRECTION ( 'NONE',  ( 1.000000000000000000, 0.000000000000000000, 0.000000000000000000 ) ) ;
#437 = AXIS2_PLACEMENT_3D ( 'NONE', #39, #1107, #646 ) ;
#438 = ORIENTED_EDGE ( 'NONE', *, *, #903, .F. ) ;
#439 = DIRECTION ( 'NONE',  ( 0.000000000000000000, 1.000000000000000000, -0.000000000000000000 ) ) ;
#440 = AXIS2_PLACEMENT_3D ( 'NONE', #783, #795, #884 ) ;
#441 = CARTESIAN_POINT ( 'NONE',  ( 18.00000000000000000, -11.99999999999999645, -8.750000000000000000 ) ) ;
#442 = VERTEX_POINT ( 'NONE', #959 ) ;
#443 = PRODUCT_CONTEXT ( 'NONE', #948, 'mechanical' ) ;
#444 = ADVANCED_FACE ( 'NONE', ( #1067 ), #333, .F. ) ;
#445 = ORIENTED_EDGE ( 'NONE', *, *, #387, .F. ) ;
#446 = CIRCLE ( 'NONE', #107, 0.9999999999999991118 ) ;
#447 = ORIENTED_EDGE ( 'NONE', *, *, #721, .T. ) ;
#448 = CARTESIAN_POINT ( 'NONE',  ( -13.70394810170342836, 12.86387961091574716, -2.600000000000000089 ) ) ;
#449 = EDGE_CURVE ( 'NONE', #1013, #357, #788, .T. ) ;
#450 = DIRECTION ( 'NONE',  ( -0.000000000000000000, 1.000000000000000000, -0.000000000000000000 ) ) ;
#451 = LINE ( 'NONE', #272, #565 ) ;
#452 = VERTEX_POINT ( 'NONE', #879 ) ;
#453 = DIRECTION ( 'NONE',  ( 0.000000000000000000, -1.000000000000000000, 0.000000000000000000 ) ) ;
#454 = ORIENTED_EDGE ( 'NONE', *, *, #1042, .F. ) ;
#455 = CYLINDRICAL_SURFACE ( 'NONE', #476, 1.700000000000000178 ) ;
#456 = CIRCLE ( 'NONE', #816, 6.750000000000000000 ) ;
#457 = CARTESIAN_POINT ( 'NONE',  ( 0.000000000000000000, 0.000000000000000000, 8.750000000000000000 ) ) ;
#458 = CARTESIAN_POINT ( 'NONE',  ( 0.000000000000000000, 0.000000000000000000, 8.750000000000000000 ) ) ;
#459 = ORIENTED_EDGE ( 'NONE', *, *, #47, .F. ) ;
#460 = EDGE_LOOP ( 'NONE', ( #151, #827, #511, #696 ) ) ;
#461 = EDGE_CURVE ( 'NONE', #725, #246, #1108, .T. ) ;
#462 = DIRECTION ( 'NONE',  ( -6.938893903907228378E-16, -1.000000000000000000, 0.000000000000000000 ) ) ;
#463 = CARTESIAN_POINT ( 'NONE',  ( 0.000000000000000000, 10.00000000000000178, -3.599999999999999201 ) ) ;
#464 = CARTESIAN_POINT ( 'NONE',  ( 25.00000000000000000, -15.02499999999999858, 0.000000000000000000 ) ) ;
#465 = ADVANCED_FACE ( 'NONE', ( #870 ), #1156, .F. ) ;
#466 = VERTEX_POINT ( 'NONE', #1055 ) ;
#467 = ORIENTED_EDGE ( 'NONE', *, *, #132, .T. ) ;
#468 = DIRECTION ( 'NONE',  ( 0.000000000000000000, 0.000000000000000000, 1.000000000000000000 ) ) ;
#469 = CARTESIAN_POINT ( 'NONE',  ( 0.000000000000000000, 10.00000000000000178, -8.750000000000000000 ) ) ;
#470 = DIRECTION ( 'NONE',  ( -1.000000000000000000, 0.000000000000000000, 0.000000000000000000 ) ) ;
#471 = VERTEX_POINT ( 'NONE', #155 ) ;
#472 = CIRCLE ( 'NONE', #311, 1.725000000000000755 ) ;
#473 = CARTESIAN_POINT ( 'NONE',  ( 30.00000000000001066, -2.081668171172169144E-14, 8.750000000000000000 ) ) ;
#474 = EDGE_CURVE ( 'NONE', #566, #935, #320, .T. ) ;
#475 = DIRECTION ( 'NONE',  ( 0.000000000000000000, 0.000000000000000000, 1.000000000000000000 ) ) ;
#476 = AXIS2_PLACEMENT_3D ( 'NONE', #250, #1090, #1084 ) ;
#477 = EDGE_CURVE ( 'NONE', #51, #741, #623, .T. ) ;
#478 = CARTESIAN_POINT ( 'NONE',  ( 0.000000000000000000, 0.000000000000000000, 2.600000000000000089 ) ) ;
#479 = ORIENTED_EDGE ( 'NONE', *, *, #90, .T. ) ;
#480 = FILL_AREA_STYLE ('',( #954 ) ) ;
#481 = VECTOR ( 'NONE', #568, 1000.000000000000000 ) ;
#482 = DIRECTION ( 'NONE',  ( 1.000000000000000000, 0.000000000000000000, 0.000000000000000000 ) ) ;
#483 =( GEOMETRIC_REPRESENTATION_CONTEXT ( 3 ) GLOBAL_UNCERTAINTY_ASSIGNED_CONTEXT ( ( #135 ) ) GLOBAL_UNIT_ASSIGNED_CONTEXT ( ( #334, #685, #589 ) ) REPRESENTATION_CONTEXT ( 'NONE', 'WORKASPACE' ) );
#484 = CARTESIAN_POINT ( 'NONE',  ( 0.000000000000000000, 0.000000000000000000, 2.600000000000000089 ) ) ;
#485 = DIRECTION ( 'NONE',  ( -0.000000000000000000, 0.000000000000000000, 1.000000000000000000 ) ) ;
#486 = VERTEX_POINT ( 'NONE', #802 ) ;
#487 = EDGE_CURVE ( 'NONE', #160, #218, #1142, .T. ) ;
#488 = CARTESIAN_POINT ( 'NONE',  ( 0.000000000000000000, -19.99999999999999645, 8.750000000000000000 ) ) ;
#489 = CIRCLE ( 'NONE', #127, 1.725000000000000755 ) ;
#490 = CARTESIAN_POINT ( 'NONE',  ( 8.357482143658707230, 22.43426810908959723, 3.376242525615430257 ) ) ;
#491 = ORIENTED_EDGE ( 'NONE', *, *, #174, .F. ) ;
#492 = CARTESIAN_POINT ( 'NONE',  ( 0.000000000000000000, 0.000000000000000000, 8.750000000000000000 ) ) ;
#493 = AXIS2_PLACEMENT_3D ( 'NONE', #1104, #554, #1003 ) ;
#494 = EDGE_CURVE ( 'NONE', #37, #750, #953, .T. ) ;
#495 = DIRECTION ( 'NONE',  ( -0.000000000000000000, -0.000000000000000000, -1.000000000000000000 ) ) ;
#496 = AXIS2_PLACEMENT_3D ( 'NONE', #492, #372, #482 ) ;
#497 = EDGE_CURVE ( 'NONE', #727, #299, #865, .T. ) ;
#498 = CARTESIAN_POINT ( 'NONE',  ( -14.43086644818565567, 12.71863647110992979, 2.860003482319761758 ) ) ;
#499 = DIRECTION ( 'NONE',  ( 8.659560562354634570E-17, 0.7071067811865721087, -0.7071067811865230368 ) ) ;
#500 = ORIENTED_EDGE ( 'NONE', *, *, #47, .T. ) ;
#501 = ADVANCED_FACE ( 'NONE', ( #324 ), #1046, .F. ) ;
#502 = CARTESIAN_POINT ( 'NONE',  ( 0.000000000000000000, 0.000000000000000000, 8.750000000000000000 ) ) ;
#503 = AXIS2_PLACEMENT_3D ( 'NONE', #369, #915, #1098 ) ;
#504 = ORIENTED_EDGE ( 'NONE', *, *, #48, .F. ) ;
#505 = CARTESIAN_POINT ( 'NONE',  ( 25.00000000000000000, -15.02499999999999858, 0.000000000000000000 ) ) ;
#506 = EDGE_CURVE ( 'NONE', #980, #276, #723, .T. ) ;
#507 = DIRECTION ( 'NONE',  ( 0.000000000000000000, 0.000000000000000000, 1.000000000000000000 ) ) ;
#508 = ORIENTED_EDGE ( 'NONE', *, *, #285, .F. ) ;
#509 = CARTESIAN_POINT ( 'NONE',  ( -14.84885272786229038, 12.12719681713567965, -3.488193324558013231 ) ) ;
#510 = CARTESIAN_POINT ( 'NONE',  ( 0.000000000000000000, -19.99999999999999645, -8.750000000000000000 ) ) ;
#511 = ORIENTED_EDGE ( 'NONE', *, *, #958, .T. ) ;
#512 = CARTESIAN_POINT ( 'NONE',  ( 0.000000000000000000, 10.00000000000000178, 2.600000000000000089 ) ) ;
#513 = ORIENTED_EDGE ( 'NONE', *, *, #230, .T. ) ;
#514 = DIRECTION ( 'NONE',  ( -1.000000000000000000, 0.000000000000000000, 0.000000000000000000 ) ) ;
#515 = DIRECTION ( 'NONE',  ( 0.000000000000000000, -0.000000000000000000, -1.000000000000000000 ) ) ;
#516 = B_SPLINE_CURVE_WITH_KNOTS ( 'NONE', 3,
 ( #704, #509, #1061, #615, #62, #869, #697, #964, #247, #242 ),
 .UNSPECIFIED., .F., .F.,
 ( 4, 2, 2, 2, 4 ),
 ( -6.546546089946121112E-06, 0.0004762045483705860645, 0.0009589556428311182476, 0.001441706737291650322, 0.001924457831752182614 ),
 .UNSPECIFIED. ) ;
#517 = AXIS2_PLACEMENT_3D ( 'NONE', #1074, #431, #507 ) ;
#518 = LINE ( 'NONE', #71, #855 ) ;
#519 = DIRECTION ( 'NONE',  ( 0.000000000000000000, 0.000000000000000000, -1.000000000000000000 ) ) ;
#520 = ORIENTED_EDGE ( 'NONE', *, *, #494, .T. ) ;
#521 = AXIS2_PLACEMENT_3D ( 'NONE', #183, #992, #94 ) ;
#522 = CARTESIAN_POINT ( 'NONE',  ( 7.355621039632113778, 22.28558720777314051, -2.641095781682738952 ) ) ;
#523 = LINE ( 'NONE', #1163, #937 ) ;
#524 = CARTESIAN_POINT ( 'NONE',  ( 0.000000000000000000, 0.000000000000000000, -8.750000000000000000 ) ) ;
#525 = ORIENTED_EDGE ( 'NONE', *, *, #845, .F. ) ;
#526 = CIRCLE ( 'NONE', #315, 6.750000000000000000 ) ;
#527 = EDGE_CURVE ( 'NONE', #192, #658, #472, .T. ) ;
#528 = FACE_OUTER_BOUND ( 'NONE', #1, .T. ) ;
#529 = FACE_OUTER_BOUND ( 'NONE', #85, .T. ) ;
#530 = VERTEX_POINT ( 'NONE', #730 ) ;
#531 = DIRECTION ( 'NONE',  ( -1.000000000000000000, 0.000000000000000000, 0.000000000000000000 ) ) ;
#532 = ORIENTED_EDGE ( 'NONE', *, *, #312, .T. ) ;
#533 = VERTEX_POINT ( 'NONE', #905 ) ;
#534 = DIRECTION ( 'NONE',  ( 0.000000000000000000, 0.000000000000000000, 1.000000000000000000 ) ) ;
#535 = AXIS2_PLACEMENT_3D ( 'NONE', #502, #63, #531 ) ;
#536 = DIRECTION ( 'NONE',  ( 0.000000000000000000, 0.000000000000000000, -1.000000000000000000 ) ) ;
#537 = DIRECTION ( 'NONE',  ( 0.000000000000000000, 0.000000000000000000, 1.000000000000000000 ) ) ;
#538 = ORIENTED_EDGE ( 'NONE', *, *, #819, .F. ) ;
#539 = AXIS2_PLACEMENT_3D ( 'NONE', #478, #121, #759 ) ;
#540 = ORIENTED_EDGE ( 'NONE', *, *, #449, .T. ) ;
#541 = DIRECTION ( 'NONE',  ( 0.000000000000000000, 1.000000000000000000, -0.000000000000000000 ) ) ;
#542 = CARTESIAN_POINT ( 'NONE',  ( 7.147333222430030553, 22.03809070440773610, 2.600000000000000089 ) ) ;
#543 = DIRECTION ( 'NONE',  ( 8.659560562354634570E-17, 0.7071067811865721087, -0.7071067811865230368 ) ) ;
#544 = ORIENTED_EDGE ( 'NONE', *, *, #300, .T. ) ;
#545 = EDGE_LOOP ( 'NONE', ( #419, #196, #410, #255 ) ) ;
#546 = CARTESIAN_POINT ( 'NONE',  ( -15.00000000000000000, -11.99999999999999645, 8.750000000000000000 ) ) ;
#547 = DIRECTION ( 'NONE',  ( 1.000000000000000000, 0.000000000000000000, 0.000000000000000000 ) ) ;
#548 = EDGE_CURVE ( 'NONE', #1132, #591, #451, .T. ) ;
#549 = LINE ( 'NONE', #910, #772 ) ;
#550 = AXIS2_PLACEMENT_3D ( 'NONE', #424, #239, #1058 ) ;
#551 = VERTEX_POINT ( 'NONE', #95 ) ;
#552 = ORIENTED_EDGE ( 'NONE', *, *, #724, .F. ) ;
#553 = VECTOR ( 'NONE', #661, 1000.000000000000000 ) ;
#554 = DIRECTION ( 'NONE',  ( -0.000000000000000000, 1.000000000000000000, -0.000000000000000000 ) ) ;
#555 = CARTESIAN_POINT ( 'NONE',  ( -13.70394810170342836, 12.86387961091574716, 2.600000000000000089 ) ) ;
#556 = DIRECTION ( 'NONE',  ( -0.000000000000000000, -0.000000000000000000, -1.000000000000000000 ) ) ;
#557 = EDGE_LOOP ( 'NONE', ( #1007, #1154, #778, #258 ) ) ;
#558 = ORIENTED_EDGE ( 'NONE', *, *, #819, .T. ) ;
#559 = FACE_OUTER_BOUND ( 'NONE', #460, .T. ) ;
#560 = PRODUCT ( 'AngledBearingHolder', 'AngledBearingHolder', '', ( #443 ) ) ;
#561 = ADVANCED_FACE ( 'NONE', ( #5 ), #264, .F. ) ;
#562 = FACE_BOUND ( 'NONE', #1088, .T. ) ;
#563 = DIRECTION ( 'NONE',  ( -0.000000000000000000, 1.000000000000000000, -0.000000000000000000 ) ) ;
#564 = EDGE_LOOP ( 'NONE', ( #508, #319, #1083, #995 ) ) ;
#565 = VECTOR ( 'NONE', #543, 999.9999999999998863 ) ;
#566 = VERTEX_POINT ( 'NONE', #11 ) ;
#567 = ADVANCED_FACE ( 'NONE', ( #365 ), #717, .F. ) ;
#568 = DIRECTION ( 'NONE',  ( -0.000000000000000000, -0.000000000000000000, 1.000000000000000000 ) ) ;
#569 = VECTOR ( 'NONE', #547, 1000.000000000000000 ) ;
#570 = DIRECTION ( 'NONE',  ( -0.000000000000000000, 0.000000000000000000, 1.000000000000000000 ) ) ;
#571 = ORIENTED_EDGE ( 'NONE', *, *, #474, .T. ) ;
#572 = ORIENTED_EDGE ( 'NONE', *, *, #527, .F. ) ;
#573 = CIRCLE ( 'NONE', #100, 6.750000000000000000 ) ;
#574 = CARTESIAN_POINT ( 'NONE',  ( 18.00000000000000000, -14.99999999999999645, 8.750000000000000000 ) ) ;
#575 = PRODUCT_DEFINITION_CONTEXT ( 'detailed design', #836, 'design' ) ;
#576 = CARTESIAN_POINT ( 'NONE',  ( 8.559016386287996880, 22.31841055084841585, 3.600000000000000089 ) ) ;
#577 = ORIENTED_EDGE ( 'NONE', *, *, #1070, .T. ) ;
#578 = DIRECTION ( 'NONE',  ( 0.000000000000000000, 0.000000000000000000, 1.000000000000000000 ) ) ;
#579 = CIRCLE ( 'NONE', #64, 15.00000000000000000 ) ;
#580 = EDGE_CURVE ( 'NONE', #442, #725, #582, .T. ) ;
#581 = ORIENTED_EDGE ( 'NONE', *, *, #1120, .F. ) ;
#582 = CIRCLE ( 'NONE', #1030, 13.99999999999999822 ) ;
#583 = CARTESIAN_POINT ( 'NONE',  ( -14.62685338396091161, 12.54855021735242104, 3.053414373617080013 ) ) ;
#584 = ADVANCED_FACE ( 'NONE', ( #729 ), #190, .T. ) ;
#585 = CIRCLE ( 'NONE', #943, 10.59999999999999964 ) ;
#586 = VECTOR ( 'NONE', #519, 1000.000000000000000 ) ;
#587 = DIRECTION ( 'NONE',  ( -0.000000000000000000, 0.000000000000000000, 1.000000000000000000 ) ) ;
#588 = VECTOR ( 'NONE', #433, 1000.000000000000000 ) ;
#589 =( NAMED_UNIT ( * ) SI_UNIT ( $, .STERADIAN. ) SOLID_ANGLE_UNIT ( ) );
#590 = EDGE_CURVE ( 'NONE', #1014, #442, #738, .T. ) ;
#591 = VERTEX_POINT ( 'NONE', #364 ) ;
#592 = EDGE_CURVE ( 'NONE', #1164, #486, #549, .T. ) ;
#593 = DIRECTION ( 'NONE',  ( 0.000000000000000000, 0.000000000000000000, -1.000000000000000000 ) ) ;
#594 = UNCERTAINTY_MEASURE_WITH_UNIT (LENGTH_MEASURE( 1.000000000000000082E-05 ), #1130, 'distance_accuracy_value', 'NONE');
#595 = AXIS2_PLACEMENT_3D ( 'NONE', #330, #233, #87 ) ;
#596 = DIRECTION ( 'NONE',  ( 1.000000000000000000, 0.000000000000000000, 0.000000000000000000 ) ) ;
#597 = FACE_OUTER_BOUND ( 'NONE', #1068, .T. ) ;
#598 = ORIENTED_EDGE ( 'NONE', *, *, #1120, .T. ) ;
#599 = LINE ( 'NONE', #1134, #136 ) ;
#600 = FACE_OUTER_BOUND ( 'NONE', #331, .T. ) ;
#601 = ORIENTED_EDGE ( 'NONE', *, *, #809, .F. ) ;
#602 = CARTESIAN_POINT ( 'NONE',  ( -30.00000000000000000, -14.99999999999999645, -8.750000000000000000 ) ) ;
#603 = STYLED_ITEM ( 'NONE', ( #397 ), #363 ) ;
#604 = EDGE_LOOP ( 'NONE', ( #13, #167 ) ) ;
#605 = EDGE_CURVE ( 'NONE', #356, #750, #21, .T. ) ;
#606 = DIRECTION ( 'NONE',  ( 0.000000000000000000, -0.000000000000000000, -1.000000000000000000 ) ) ;
#607 = DIRECTION ( 'NONE',  ( 0.000000000000000000, 0.000000000000000000, 1.000000000000000000 ) ) ;
#608 = EDGE_LOOP ( 'NONE', ( #581, #873, #149, #56 ) ) ;
#609 = CARTESIAN_POINT ( 'NONE',  ( 7.745536747856913706, 22.47587877445983651, -2.860003482319760870 ) ) ;
#610 = DIRECTION ( 'NONE',  ( -0.000000000000000000, 0.000000000000000000, 1.000000000000000000 ) ) ;
#611 = DIRECTION ( 'NONE',  ( -0.000000000000000000, 1.000000000000000000, -0.000000000000000000 ) ) ;
#612 = CARTESIAN_POINT ( 'NONE',  ( -25.00000000000000000, -14.99999999999999645, -1.700000000000000178 ) ) ;
#613 = PLANE ( 'NONE',  #860 ) ;
#614 = ORIENTED_EDGE ( 'NONE', *, *, #1137, .F. ) ;
#615 = CARTESIAN_POINT ( 'NONE',  ( -14.70181449633366810, 12.45114788510564630, -3.157682187467697243 ) ) ;
#616 = CARTESIAN_POINT ( 'NONE',  ( 0.000000000000000000, 0.000000000000000000, -2.600000000000000089 ) ) ;
#617 = CARTESIAN_POINT ( 'NONE',  ( -25.00000000000000000, -14.99999999999999645, 1.700000000000000178 ) ) ;
#618 = ADVANCED_FACE ( 'NONE', ( #279 ), #736, .F. ) ;
#619 = ORIENTED_EDGE ( 'NONE', *, *, #605, .F. ) ;
#620 = DIRECTION ( 'NONE',  ( -6.938893903907228378E-16, 1.000000000000000000, 0.000000000000000000 ) ) ;
#621 = CARTESIAN_POINT ( 'NONE',  ( 7.988415293868801115, 21.49718318079185408, 2.600000000000000089 ) ) ;
#622 = ORIENTED_EDGE ( 'NONE', *, *, #776, .T. ) ;
#623 = LINE ( 'NONE', #979, #684 ) ;
#624 = ORIENTED_EDGE ( 'NONE', *, *, #809, .T. ) ;
#625 = AXIS2_PLACEMENT_3D ( 'NONE', #2, #902, #534 ) ;
#626 = ORIENTED_EDGE ( 'NONE', *, *, #347, .F. ) ;
#627 = CARTESIAN_POINT ( 'NONE',  ( -25.00000000000000000, -19.99999999999999645, 0.000000000000000000 ) ) ;
#628 = CARTESIAN_POINT ( 'NONE',  ( 10.59999999999999964, 0.000000000000000000, 2.600000000000000089 ) ) ;
#629 = ORIENTED_EDGE ( 'NONE', *, *, #797, .T. ) ;
#630 = DIRECTION ( 'NONE',  ( -0.9848077530122079093, -0.1736481776669315247, 0.000000000000000000 ) ) ;
#631 = VERTEX_POINT ( 'NONE', #542 ) ;
#632 = ORIENTED_EDGE ( 'NONE', *, *, #580, .F. ) ;
#633 = ADVANCED_FACE ( 'NONE', ( #101 ), #825, .T. ) ;
#634 = CARTESIAN_POINT ( 'NONE',  ( 10.43896218192940317, 1.840670683269473473, 2.600000000000000089 ) ) ;
#635 = AXIS2_PLACEMENT_3D ( 'NONE', #171, #1062, #596 ) ;
#636 = EDGE_CURVE ( 'NONE', #551, #442, #852, .T. ) ;
#637 = CARTESIAN_POINT ( 'NONE',  ( 7.988415293868801115, 21.49718318079185408, 8.750000000000000000 ) ) ;
#638 = DIRECTION ( 'NONE',  ( 0.000000000000000000, 0.000000000000000000, -1.000000000000000000 ) ) ;
#639 = ORIENTED_EDGE ( 'NONE', *, *, #77, .T. ) ;
#640 = AXIS2_PLACEMENT_3D ( 'NONE', #307, #839, #202 ) ;
#641 = VERTEX_POINT ( 'NONE', #794 ) ;
#642 = CARTESIAN_POINT ( 'NONE',  ( 29.99999999999999645, -19.99999999999999645, 8.750000000000000000 ) ) ;
#643 = ORIENTED_EDGE ( 'NONE', *, *, #662, .F. ) ;
#644 = CYLINDRICAL_SURFACE ( 'NONE', #380, 10.59999999999999964 ) ;
#645 = VECTOR ( 'NONE', #620, 1000.000000000000000 ) ;
#646 = DIRECTION ( 'NONE',  ( 0.000000000000000000, 0.000000000000000000, 1.000000000000000000 ) ) ;
#647 = AXIS2_PLACEMENT_3D ( 'NONE', #3, #374, #707 ) ;
#648 = ORIENTED_EDGE ( 'NONE', *, *, #1070, .F. ) ;
#649 = LINE ( 'NONE', #925, #849 ) ;
#650 = EDGE_LOOP ( 'NONE', ( #1052, #231, #78, #445 ) ) ;
#651 = VECTOR ( 'NONE', #225, 1000.000000000000000 ) ;
#652 = CARTESIAN_POINT ( 'NONE',  ( -6.750000000000000000, 0.000000000000000000, 8.750000000000000000 ) ) ;
#653 = LINE ( 'NONE', #1009, #52 ) ;
#654 = DIRECTION ( 'NONE',  ( -0.000000000000000000, -0.000000000000000000, -1.000000000000000000 ) ) ;
#655 = EDGE_CURVE ( 'NONE', #466, #725, #516, .T. ) ;
#656 = DIRECTION ( 'NONE',  ( 1.000000000000000000, 0.000000000000000000, 0.000000000000000000 ) ) ;
#657 = CYLINDRICAL_SURFACE ( 'NONE', #647, 1.000000000000000888 ) ;
#658 = VERTEX_POINT ( 'NONE', #154 ) ;
#659 = EDGE_CURVE ( 'NONE', #466, #551, #923, .T. ) ;
#660 = PRODUCT_DEFINITION_SHAPE ( 'NONE', 'NONE',  #188 ) ;
#661 = DIRECTION ( 'NONE',  ( -0.000000000000000000, -0.000000000000000000, -1.000000000000000000 ) ) ;
#662 = EDGE_CURVE ( 'NONE', #432, #1014, #653, .T. ) ;
#663 = CARTESIAN_POINT ( 'NONE',  ( 0.000000000000000000, 10.00000000000000178, 3.600000000000000089 ) ) ;
#664 = LINE ( 'NONE', #1019, #325 ) ;
#665 = ORIENTED_EDGE ( 'NONE', *, *, #241, .T. ) ;
#666 = VERTEX_POINT ( 'NONE', #555 ) ;
#667 = CARTESIAN_POINT ( 'NONE',  ( 6.750000000000000000, 8.266365894244634333E-16, 8.750000000000000000 ) ) ;
#668 = CONICAL_SURFACE ( 'NONE', #625, 1.725000000000000755, 0.7853981633974136400 ) ;
#669 = FACE_BOUND ( 'NONE', #1035, .T. ) ;
#670 = DIRECTION ( 'NONE',  ( -0.000000000000000000, 1.000000000000000000, -0.000000000000000000 ) ) ;
#671 = EDGE_LOOP ( 'NONE', ( #425, #969, #130, #708 ) ) ;
#672 = CARTESIAN_POINT ( 'NONE',  ( 7.988415293868801115, 21.49718318079185408, 8.750000000000000000 ) ) ;
#673 = EDGE_CURVE ( 'NONE', #1164, #51, #189, .T. ) ;
#674 = CYLINDRICAL_SURFACE ( 'NONE', #421, 1.700000000000000178 ) ;
#675 = DIRECTION ( 'NONE',  ( -0.000000000000000000, 1.000000000000000000, -0.000000000000000000 ) ) ;
#676 = CIRCLE ( 'NONE', #146, 1.725000000000000755 ) ;
#677 = AXIS2_PLACEMENT_3D ( 'NONE', #464, #1092, #371 ) ;
#678 = DIRECTION ( 'NONE',  ( 0.1736481776669315247, -0.9848077530122079093, 0.000000000000000000 ) ) ;
#679 = VECTOR ( 'NONE', #358, 1000.000000000000000 ) ;
#680 = CIRCLE ( 'NONE', #1002, 1.700000000000000178 ) ;
#681 = ADVANCED_FACE ( 'NONE', ( #909, #824 ), #15, .T. ) ;
#682 = ADVANCED_FACE ( 'NONE', ( #104 ), #168, .T. ) ;
#683 = LINE ( 'NONE', #229, #781 ) ;
#684 = VECTOR ( 'NONE', #68, 1000.000000000000000 ) ;
#685 =( NAMED_UNIT ( * ) PLANE_ANGLE_UNIT ( ) SI_UNIT ( $, .RADIAN. ) );
#686 = ORIENTED_EDGE ( 'NONE', *, *, #1077, .F. ) ;
#687 = CARTESIAN_POINT ( 'NONE',  ( 30.00000000000000000, -14.99999999999999645, 8.750000000000000000 ) ) ;
#688 = CARTESIAN_POINT ( 'NONE',  ( -14.86438004695602899, 12.01251231540467224, 3.600000000000000089 ) ) ;
#689 = ORIENTED_EDGE ( 'NONE', *, *, #797, .F. ) ;
#690 = AXIS2_PLACEMENT_3D ( 'NONE', #204, #485, #749 ) ;
#691 = PRODUCT_RELATED_PRODUCT_CATEGORY ( 'part', '', ( #560 ) ) ;
#692 = FACE_OUTER_BOUND ( 'NONE', #164, .T. ) ;
#693 = CARTESIAN_POINT ( 'NONE',  ( 0.000000000000000000, 10.00000000000000178, 8.750000000000000000 ) ) ;
#694 =( NAMED_UNIT ( * ) PLANE_ANGLE_UNIT ( ) SI_UNIT ( $, .RADIAN. ) );
#695 = CARTESIAN_POINT ( 'NONE',  ( 0.000000000000000000, 0.000000000000000000, -2.600000000000000089 ) ) ;
#696 = ORIENTED_EDGE ( 'NONE', *, *, #1042, .T. ) ;
#697 = CARTESIAN_POINT ( 'NONE',  ( -14.31060433816742972, 12.78987131474205974, -2.772299556408619026 ) ) ;
#698 = DIRECTION ( 'NONE',  ( 1.000000000000000000, -5.204170427930416550E-15, 0.000000000000000000 ) ) ;
#699 = PRESENTATION_LAYER_ASSIGNMENT (  '', '', ( #603 ) ) ;
#700 = CARTESIAN_POINT ( 'NONE',  ( -25.00000000000000000, -19.99999999999999645, 1.700000000000000178 ) ) ;
#701 = DIRECTION ( 'NONE',  ( 1.000000000000000000, 0.000000000000000000, 0.000000000000000000 ) ) ;
#702 = EDGE_LOOP ( 'NONE', ( #951, #842, #73, #1059, #249, #731 ) ) ;
#703 = EDGE_CURVE ( 'NONE', #276, #899, #1021, .T. ) ;
#704 = CARTESIAN_POINT ( 'NONE',  ( -14.86438004695602899, 12.01251231540467224, -3.600000000000000089 ) ) ;
#705 = ORIENTED_EDGE ( 'NONE', *, *, #999, .F. ) ;
#706 = DIRECTION ( 'NONE',  ( -0.000000000000000000, 1.000000000000000000, -0.000000000000000000 ) ) ;
#707 = DIRECTION ( 'NONE',  ( -1.000000000000000000, 0.000000000000000000, 0.000000000000000000 ) ) ;
#708 = ORIENTED_EDGE ( 'NONE', *, *, #112, .F. ) ;
#709 = CARTESIAN_POINT ( 'NONE',  ( -30.00000000000001066, -2.081668171172169144E-14, 8.750000000000000000 ) ) ;
#710 = VERTEX_POINT ( 'NONE', #966 ) ;
#711 = CARTESIAN_POINT ( 'NONE',  ( 25.00000000000000000, -19.99999999999999645, -1.700000000000000178 ) ) ;
#712 = EDGE_LOOP ( 'NONE', ( #963, #412, #205, #75, #352, #822, #287, #538 ) ) ;
#713 = DIRECTION ( 'NONE',  ( -0.000000000000000000, 1.000000000000000000, -0.000000000000000000 ) ) ;
#714 = DIRECTION ( 'NONE',  ( 1.000000000000000000, 0.000000000000000000, 0.000000000000000000 ) ) ;
#715 = VERTEX_POINT ( 'NONE', #984 ) ;
#716 = APPLICATION_PROTOCOL_DEFINITION ( 'draft international standard', 'automotive_design', 1998, #948 ) ;
#717 = PLANE ( 'NONE',  #111 ) ;
#718 = EDGE_LOOP ( 'NONE', ( #890, #552, #267, #1045 ) ) ;
#719 = ADVANCED_FACE ( 'NONE', ( #175 ), #668, .F. ) ;
#720 = EDGE_LOOP ( 'NONE', ( #109, #808 ) ) ;
#721 = EDGE_CURVE ( 'NONE', #853, #486, #895, .T. ) ;
#722 = CARTESIAN_POINT ( 'NONE',  ( 15.00000000000000000, 0.000000000000000000, 8.750000000000000000 ) ) ;
#723 = LINE ( 'NONE', #1087, #222 ) ;
#724 = EDGE_CURVE ( 'NONE', #805, #533, #24, .T. ) ;
#725 = VERTEX_POINT ( 'NONE', #448 ) ;
#726 = CONICAL_SURFACE ( 'NONE', #437, 1.725000000000000755, 0.7853981633974136400 ) ;
#727 = VERTEX_POINT ( 'NONE', #165 ) ;
#728 = CARTESIAN_POINT ( 'NONE',  ( 15.00000000000000000, 10.00000000000000533, 8.750000000000000000 ) ) ;
#729 = FACE_OUTER_BOUND ( 'NONE', #972, .T. ) ;
#730 = CARTESIAN_POINT ( 'NONE',  ( 8.559016386287996880, 22.31841055084841585, 3.600000000000000089 ) ) ;
#731 = ORIENTED_EDGE ( 'NONE', *, *, #461, .F. ) ;
#732 = CIRCLE ( 'NONE', #182, 1.725000000000000755 ) ;
#733 = EDGE_LOOP ( 'NONE', ( #1168, #544, #933, #153 ) ) ;
#734 = LINE ( 'NONE', #914, #837 ) ;
#735 = DIRECTION ( 'NONE',  ( -0.000000000000000000, -0.000000000000000000, -1.000000000000000000 ) ) ;
#736 = CYLINDRICAL_SURFACE ( 'NONE', #257, 6.750000000000000000 ) ;
#737 = CARTESIAN_POINT ( 'NONE',  ( 0.000000000000000000, 0.000000000000000000, -8.750000000000000000 ) ) ;
#738 = CIRCLE ( 'NONE', #521, 0.9999999999999991118 ) ;
#739 = ORIENTED_EDGE ( 'NONE', *, *, #847, .F. ) ;
#740 = DIRECTION ( 'NONE',  ( -1.000000000000000000, 0.000000000000000000, 0.000000000000000000 ) ) ;
#741 = VERTEX_POINT ( 'NONE', #1073 ) ;
#742 = DIRECTION ( 'NONE',  ( 0.000000000000000000, -0.000000000000000000, 1.000000000000000000 ) ) ;
#743 = DIRECTION ( 'NONE',  ( 0.000000000000000000, -0.000000000000000000, -1.000000000000000000 ) ) ;
#744 = AXIS2_PLACEMENT_3D ( 'NONE', #473, #200, #462 ) ;
#745 = CARTESIAN_POINT ( 'NONE',  ( -12.88861362414674616, 12.05199300537796070, 8.750000000000000000 ) ) ;
#746 = AXIS2_PLACEMENT_3D ( 'NONE', #968, #784, #1044 ) ;
#747 = EDGE_CURVE ( 'NONE', #1089, #217, #243, .T. ) ;
#748 = DIRECTION ( 'NONE',  ( 1.000000000000000000, 0.000000000000000000, 0.000000000000000000 ) ) ;
#749 = DIRECTION ( 'NONE',  ( 1.000000000000000000, 0.000000000000000000, 0.000000000000000000 ) ) ;
#750 = VERTEX_POINT ( 'NONE', #93 ) ;
#751 =( GEOMETRIC_REPRESENTATION_CONTEXT ( 3 ) GLOBAL_UNCERTAINTY_ASSIGNED_CONTEXT ( ( #594 ) ) GLOBAL_UNIT_ASSIGNED_CONTEXT ( ( #1130, #694, #402 ) ) REPRESENTATION_CONTEXT ( 'NONE', 'WORKASPACE' ) );
#752 = LINE ( 'NONE', #546, #223 ) ;
#753 = AXIS2_PLACEMENT_3D ( 'NONE', #524, #76, #436 ) ;
#754 = CARTESIAN_POINT ( 'NONE',  ( 6.750000000000000000, 8.266365894244634333E-16, 8.750000000000000000 ) ) ;
#755 = ORIENTED_EDGE ( 'NONE', *, *, #721, .F. ) ;
#756 = ORIENTED_EDGE ( 'NONE', *, *, #477, .F. ) ;
#757 = CIRCLE ( 'NONE', #640, 2.999999999999999112 ) ;
#758 = FACE_OUTER_BOUND ( 'NONE', #564, .T. ) ;
#759 = DIRECTION ( 'NONE',  ( 1.000000000000000000, 0.000000000000000000, 0.000000000000000000 ) ) ;
#760 = DIRECTION ( 'NONE',  ( -0.000000000000000000, 1.000000000000000000, -0.000000000000000000 ) ) ;
#761 = ORIENTED_EDGE ( 'NONE', *, *, #636, .T. ) ;
#762 = ORIENTED_EDGE ( 'NONE', *, *, #1137, .T. ) ;
#763 = ADVANCED_FACE ( 'NONE', ( #791 ), #455, .F. ) ;
#764 = CARTESIAN_POINT ( 'NONE',  ( 25.00000000000000000, -15.02499999999999858, -1.700000000000000178 ) ) ;
#765 = LINE ( 'NONE', #941, #1109 ) ;
#766 = VECTOR ( 'NONE', #33, 1000.000000000000000 ) ;
#767 = EDGE_CURVE ( 'NONE', #750, #192, #260, .T. ) ;
#768 = EDGE_LOOP ( 'NONE', ( #316, #1117 ) ) ;
#769 = CARTESIAN_POINT ( 'NONE',  ( -10.43896218192940140, -1.840670683269472585, 2.600000000000000089 ) ) ;
#770 = ADVANCED_FACE ( 'NONE', ( #528 ), #79, .F. ) ;
#771 = ORIENTED_EDGE ( 'NONE', *, *, #747, .F. ) ;
#772 = VECTOR ( 'NONE', #904, 1000.000000000000000 ) ;
#773 = DIRECTION ( 'NONE',  ( 1.000000000000000000, 0.000000000000000000, 0.000000000000000000 ) ) ;
#774 = EDGE_CURVE ( 'NONE', #1026, #899, #362, .T. ) ;
#775 = VECTOR ( 'NONE', #158, 1000.000000000000000 ) ;
#776 = EDGE_CURVE ( 'NONE', #217, #899, #798, .T. ) ;
#777 = SURFACE_STYLE_FILL_AREA ( #480 ) ;
#778 = ORIENTED_EDGE ( 'NONE', *, *, #23, .T. ) ;
#779 = DIRECTION ( 'NONE',  ( 1.000000000000000000, 0.000000000000000000, 0.000000000000000000 ) ) ;
#780 = VERTEX_POINT ( 'NONE', #881 ) ;
#781 = VECTOR ( 'NONE', #678, 1000.000000000000000 ) ;
#782 = AXIS2_PLACEMENT_3D ( 'NONE', #880, #453, #69 ) ;
#783 = CARTESIAN_POINT ( 'NONE',  ( -25.00000000000000000, -14.99999999999999645, 0.000000000000000000 ) ) ;
#784 = DIRECTION ( 'NONE',  ( -0.000000000000000000, 0.000000000000000000, 1.000000000000000000 ) ) ;
#785 = ORIENTED_EDGE ( 'NONE', *, *, #214, .T. ) ;
#786 = TOROIDAL_SURFACE ( 'NONE', #1093, 13.99999999999999822, 1.000000000000000000 ) ;
#787 = CARTESIAN_POINT ( 'NONE',  ( 7.235918214478509469, 22.17583559675541949, -2.599999999999999201 ) ) ;
#788 = LINE ( 'NONE', #510, #435 ) ;
#789 = DIRECTION ( 'NONE',  ( 1.000000000000000000, 0.000000000000000000, 0.000000000000000000 ) ) ;
#790 = EDGE_CURVE ( 'NONE', #218, #780, #806, .T. ) ;
#791 = FACE_OUTER_BOUND ( 'NONE', #434, .T. ) ;
#792 = CARTESIAN_POINT ( 'NONE',  ( -15.00000000000000000, 10.00000000000000178, -8.750000000000000000 ) ) ;
#793 = ORIENTED_EDGE ( 'NONE', *, *, #958, .F. ) ;
#794 = CARTESIAN_POINT ( 'NONE',  ( 7.003607540856587654, 21.32353500312492400, -2.600000000000000089 ) ) ;
#795 = DIRECTION ( 'NONE',  ( -0.000000000000000000, 1.000000000000000000, -0.000000000000000000 ) ) ;
#796 = AXIS2_PLACEMENT_3D ( 'NONE', #353, #713, #1008 ) ;
#797 = EDGE_CURVE ( 'NONE', #1123, #1161, #181, .T. ) ;
#798 = LINE ( 'NONE', #728, #1133 ) ;
#799 = DIRECTION ( 'NONE',  ( -0.000000000000000000, 1.000000000000000000, -0.000000000000000000 ) ) ;
#800 = EDGE_LOOP ( 'NONE', ( #97, #60, #280, #525 ) ) ;
#801 = AXIS2_PLACEMENT_3D ( 'NONE', #253, #537, #1060 ) ;
#802 = CARTESIAN_POINT ( 'NONE',  ( -30.00000000000000000, -14.99999999999999645, 8.750000000000000000 ) ) ;
#803 = ORIENTED_EDGE ( 'NONE', *, *, #405, .T. ) ;
#804 = LINE ( 'NONE', #150, #588 ) ;
#805 = VERTEX_POINT ( 'NONE', #700 ) ;
#806 = LINE ( 'NONE', #634, #115 ) ;
#807 = CARTESIAN_POINT ( 'NONE',  ( 10.43896218192940317, 1.840670683269473917, -2.600000000000000089 ) ) ;
#808 = ORIENTED_EDGE ( 'NONE', *, *, #275, .T. ) ;
#809 = EDGE_CURVE ( 'NONE', #51, #357, #1056, .T. ) ;
#810 = CIRCLE ( 'NONE', #595, 10.59999999999999964 ) ;
#811 = EDGE_CURVE ( 'NONE', #533, #1132, #997, .T. ) ;
#812 = ORIENTED_EDGE ( 'NONE', *, *, #767, .T. ) ;
#813 = CARTESIAN_POINT ( 'NONE',  ( 10.43896218192940317, 1.840670683269473473, -2.600000000000000089 ) ) ;
#814 = CARTESIAN_POINT ( 'NONE',  ( -10.43896218192940140, -1.840670683269473917, -2.600000000000000089 ) ) ;
#815 = VERTEX_POINT ( 'NONE', #874 ) ;
#816 = AXIS2_PLACEMENT_3D ( 'NONE', #143, #211, #789 ) ;
#817 = CARTESIAN_POINT ( 'NONE',  ( 25.00000000000000000, -14.99999999999999645, 1.725000000000000755 ) ) ;
#818 = DIRECTION ( 'NONE',  ( -0.000000000000000000, -0.000000000000000000, -1.000000000000000000 ) ) ;
#819 = EDGE_CURVE ( 'NONE', #1066, #160, #585, .T. ) ;
#820 = DIRECTION ( 'NONE',  ( -1.000000000000000000, 0.000000000000000000, 0.000000000000000000 ) ) ;
#821 = ORIENTED_EDGE ( 'NONE', *, *, #370, .F. ) ;
#822 = ORIENTED_EDGE ( 'NONE', *, *, #790, .F. ) ;
#823 = DIRECTION ( 'NONE',  ( 1.000000000000000000, 0.000000000000000000, 0.000000000000000000 ) ) ;
#824 = FACE_OUTER_BOUND ( 'NONE', #1100, .T. ) ;
#825 = PLANE ( 'NONE',  #163 ) ;
#826 = ORIENTED_EDGE ( 'NONE', *, *, #662, .T. ) ;
#827 = ORIENTED_EDGE ( 'NONE', *, *, #1039, .T. ) ;
#828 = FACE_OUTER_BOUND ( 'NONE', #650, .T. ) ;
#829 = CARTESIAN_POINT ( 'NONE',  ( 0.000000000000000000, 10.00000000000000178, 3.600000000000000089 ) ) ;
#830 = DIRECTION ( 'NONE',  ( -0.000000000000000000, 1.000000000000000000, -0.000000000000000000 ) ) ;
#831 = FACE_OUTER_BOUND ( 'NONE', #712, .T. ) ;
#832 = FACE_OUTER_BOUND ( 'NONE', #702, .T. ) ;
#833 = ORIENTED_EDGE ( 'NONE', *, *, #673, .F. ) ;
#834 = VECTOR ( 'NONE', #439, 1000.000000000000000 ) ;
#835 = DIRECTION ( 'NONE',  ( -0.000000000000000000, 0.000000000000000000, 1.000000000000000000 ) ) ;
#836 = APPLICATION_CONTEXT ( 'automotive_design' ) ;
#837 = VECTOR ( 'NONE', #468, 1000.000000000000000 ) ;
#838 = LINE ( 'NONE', #754, #553 ) ;
#839 = DIRECTION ( 'NONE',  ( 0.000000000000000000, -0.000000000000000000, -1.000000000000000000 ) ) ;
#840 = ORIENTED_EDGE ( 'NONE', *, *, #580, .T. ) ;
#841 = VECTOR ( 'NONE', #1032, 999.9999999999998863 ) ;
#842 = ORIENTED_EDGE ( 'NONE', *, *, #973, .F. ) ;
#843 = VECTOR ( 'NONE', #428, 1000.000000000000000 ) ;
#844 = CARTESIAN_POINT ( 'NONE',  ( 6.750000000000000000, 8.266365894244634333E-16, 2.600000000000000089 ) ) ;
#845 = EDGE_CURVE ( 'NONE', #901, #471, #518, .T. ) ;
#846 = FACE_OUTER_BOUND ( 'NONE', #1145, .T. ) ;
#847 = EDGE_CURVE ( 'NONE', #1013, #323, #1166, .T. ) ;
#848 = ORIENTED_EDGE ( 'NONE', *, *, #405, .F. ) ;
#849 = VECTOR ( 'NONE', #298, 1000.000000000000000 ) ;
#850 = CARTESIAN_POINT ( 'NONE',  ( 25.00000000000000000, -19.99999999999999645, 0.000000000000000000 ) ) ;
#851 = CARTESIAN_POINT ( 'NONE',  ( 8.125800743992863673, 22.49491247301034846, 3.157682187467698132 ) ) ;
#852 = B_SPLINE_CURVE_WITH_KNOTS ( 'NONE', 3,
 ( #1155, #878, #970, #161, #340, #609, #426, #522, #787, #1053 ),
 .UNSPECIFIED., .F., .F.,
 ( 4, 2, 2, 2, 4 ),
 ( -6.546546089947592409E-06, 0.0004762045483705855224, 0.0009589556428311185729, 0.001441706737291651623, 0.001924457831752184782 ),
 .UNSPECIFIED. ) ;
#853 = VERTEX_POINT ( 'NONE', #975 ) ;
#854 = PLANE ( 'NONE',  #885 ) ;
#855 = VECTOR ( 'NONE', #1158, 1000.000000000000000 ) ;
#856 = CONICAL_SURFACE ( 'NONE', #944, 1.725000000000000755, 0.7853981633974136400 ) ;
#857 = LINE ( 'NONE', #960, #57 ) ;
#858 = DIRECTION ( 'NONE',  ( -1.000000000000000000, 0.000000000000000000, 0.000000000000000000 ) ) ;
#859 = EDGE_CURVE ( 'NONE', #988, #1132, #429, .T. ) ;
#860 = AXIS2_PLACEMENT_3D ( 'NONE', #695, #159, #1051 ) ;
#861 = EDGE_LOOP ( 'NONE', ( #54, #1102, #84, #479 ) ) ;
#862 = ADVANCED_FACE ( 'NONE', ( #110, #559 ), #14, .T. ) ;
#863 = CARTESIAN_POINT ( 'NONE',  ( -14.86438004695602899, 12.01251231540467224, 3.600000000000000089 ) ) ;
#864 = ORIENTED_EDGE ( 'NONE', *, *, #913, .F. ) ;
#865 = LINE ( 'NONE', #74, #1072 ) ;
#866 = ORIENTED_EDGE ( 'NONE', *, *, #1162, .T. ) ;
#867 = CARTESIAN_POINT ( 'NONE',  ( 15.00000000000000000, -11.99999999999999645, 8.750000000000000000 ) ) ;
#868 = ORIENTED_EDGE ( 'NONE', *, *, #474, .F. ) ;
#869 = CARTESIAN_POINT ( 'NONE',  ( -14.43086644818565567, 12.71863647110992979, -2.860003482319760426 ) ) ;
#870 = FACE_OUTER_BOUND ( 'NONE', #91, .T. ) ;
#871 = SURFACE_STYLE_USAGE ( .BOTH. , #236 ) ;
#872 = ADVANCED_FACE ( 'NONE', ( #19 ), #921, .F. ) ;
#873 = ORIENTED_EDGE ( 'NONE', *, *, #1039, .F. ) ;
#874 = CARTESIAN_POINT ( 'NONE',  ( 30.00000000000000000, -14.99999999999999645, -8.750000000000000000 ) ) ;
#875 = CARTESIAN_POINT ( 'NONE',  ( 10.43896218192940317, 1.840670683269473917, 2.600000000000000089 ) ) ;
#876 = ORIENTED_EDGE ( 'NONE', *, *, #673, .T. ) ;
#877 = EDGE_CURVE ( 'NONE', #1063, #666, #170, .T. ) ;
#878 = CARTESIAN_POINT ( 'NONE',  ( 8.463975034292172239, 22.38444670752215160, -3.488193324566533082 ) ) ;
#879 = CARTESIAN_POINT ( 'NONE',  ( -18.00000000000000000, -14.99999999999999645, -8.750000000000000000 ) ) ;
#880 = CARTESIAN_POINT ( 'NONE',  ( 0.000000000000000000, -14.99999999999999645, 8.750000000000000000 ) ) ;
#881 = CARTESIAN_POINT ( 'NONE',  ( 7.003607540856587654, 21.32353500312492400, 2.600000000000000089 ) ) ;
#882 = CARTESIAN_POINT ( 'NONE',  ( 6.750000000000000000, 8.266365894244634333E-16, 8.750000000000000000 ) ) ;
#883 = ORIENTED_EDGE ( 'NONE', *, *, #592, .F. ) ;
#884 = DIRECTION ( 'NONE',  ( 0.000000000000000000, 0.000000000000000000, 1.000000000000000000 ) ) ;
#885 = AXIS2_PLACEMENT_3D ( 'NONE', #488, #379, #283 ) ;
#886 = ORIENTED_EDGE ( 'NONE', *, *, #973, .T. ) ;
#887 = ADVANCED_FACE ( 'NONE', ( #828 ), #384, .F. ) ;
#888 = CARTESIAN_POINT ( 'NONE',  ( 0.000000000000000000, 0.000000000000000000, 2.600000000000000089 ) ) ;
#889 = LINE ( 'NONE', #807, #295 ) ;
#890 = ORIENTED_EDGE ( 'NONE', *, *, #811, .F. ) ;
#891 = ADVANCED_FACE ( 'NONE', ( #193 ), #644, .F. ) ;
#892 = VECTOR ( 'NONE', #1017, 1000.000000000000000 ) ;
#893 = EDGE_LOOP ( 'NONE', ( #572, #504 ) ) ;
#894 = ORIENTED_EDGE ( 'NONE', *, *, #228, .T. ) ;
#895 = LINE ( 'NONE', #86, #313 ) ;
#896 = CARTESIAN_POINT ( 'NONE',  ( 25.00000000000000000, -14.99999999999999645, 1.725000000000000755 ) ) ;
#897 = CIRCLE ( 'NONE', #393, 0.9999999999999991118 ) ;
#898 = DIRECTION ( 'NONE',  ( -0.000000000000000000, 1.000000000000000000, -0.000000000000000000 ) ) ;
#899 = VERTEX_POINT ( 'NONE', #908 ) ;
#900 = LINE ( 'NONE', #617, #843 ) ;
#901 = VERTEX_POINT ( 'NONE', #652 ) ;
#902 = DIRECTION ( 'NONE',  ( -0.000000000000000000, 1.000000000000000000, -0.000000000000000000 ) ) ;
#903 = EDGE_CURVE ( 'NONE', #980, #1123, #752, .T. ) ;
#904 = DIRECTION ( 'NONE',  ( -6.938893903907228378E-16, 1.000000000000000000, 0.000000000000000000 ) ) ;
#905 = CARTESIAN_POINT ( 'NONE',  ( -25.00000000000000000, -19.99999999999999645, -1.700000000000000178 ) ) ;
#906 = ORIENTED_EDGE ( 'NONE', *, *, #256, .T. ) ;
#907 = ORIENTED_EDGE ( 'NONE', *, *, #703, .T. ) ;
#908 = CARTESIAN_POINT ( 'NONE',  ( 15.00000000000000000, 10.00000000000000533, -8.750000000000000000 ) ) ;
#909 = FACE_BOUND ( 'NONE', #1149, .T. ) ;
#910 = CARTESIAN_POINT ( 'NONE',  ( -30.00000000000001066, -2.081668171172169144E-14, 8.750000000000000000 ) ) ;
#911 = EDGE_LOOP ( 'NONE', ( #286, #906, #894, #626, #31, #940, #1040, #38, #265, #907 ) ) ;
#912 = ORIENTED_EDGE ( 'NONE', *, *, #370, .T. ) ;
#913 = EDGE_CURVE ( 'NONE', #551, #530, #734, .T. ) ;
#914 = CARTESIAN_POINT ( 'NONE',  ( 8.559016386288000433, 22.31841055084841230, 8.750000000000000000 ) ) ;
#915 = DIRECTION ( 'NONE',  ( -0.000000000000000000, -0.000000000000000000, -1.000000000000000000 ) ) ;
#916 = LINE ( 'NONE', #745, #1033 ) ;
#917 = ADVANCED_FACE ( 'NONE', ( #1097 ), #1099, .T. ) ;
#918 = DIRECTION ( 'NONE',  ( -0.000000000000000000, 0.000000000000000000, 1.000000000000000000 ) ) ;
#919 = DIRECTION ( 'NONE',  ( 1.000000000000000000, -6.938893903907234689E-15, 0.000000000000000000 ) ) ;
#920 = ORIENTED_EDGE ( 'NONE', *, *, #259, .F. ) ;
#921 = PLANE ( 'NONE',  #744 ) ;
#922 = CARTESIAN_POINT ( 'NONE',  ( -15.00000000000000000, -11.99999999999999645, -8.750000000000000000 ) ) ;
#923 = CIRCLE ( 'NONE', #408, 15.00000000000000000 ) ;
#924 = CARTESIAN_POINT ( 'NONE',  ( 7.147333222430030553, 22.03809070440773610, 2.600000000000000089 ) ) ;
#925 = CARTESIAN_POINT ( 'NONE',  ( -10.43896218192940140, -1.840670683269472585, -2.600000000000000089 ) ) ;
#926 = ORIENTED_EDGE ( 'NONE', *, *, #776, .F. ) ;
#927 = AXIS2_PLACEMENT_3D ( 'NONE', #469, #743, #1018 ) ;
#928 = ADVANCED_FACE ( 'NONE', ( #1119, #22, #1028 ), #854, .F. ) ;
#929 = DIRECTION ( 'NONE',  ( -0.000000000000000000, 0.000000000000000000, 1.000000000000000000 ) ) ;
#930 = EDGE_CURVE ( 'NONE', #246, #1063, #916, .T. ) ;
#931 = CARTESIAN_POINT ( 'NONE',  ( 7.988415293868801115, 21.49718318079185408, -2.600000000000000089 ) ) ;
#932 = FACE_OUTER_BOUND ( 'NONE', #861, .T. ) ;
#933 = ORIENTED_EDGE ( 'NONE', *, *, #605, .T. ) ;
#934 = CIRCLE ( 'NONE', #385, 2.999999999999999112 ) ;
#935 = VERTEX_POINT ( 'NONE', #105 ) ;
#936 = CARTESIAN_POINT ( 'NONE',  ( 29.99999999999999645, -19.99999999999999645, -8.750000000000000000 ) ) ;
#937 = VECTOR ( 'NONE', #965, 1000.000000000000000 ) ;
#938 = CARTESIAN_POINT ( 'NONE',  ( 0.000000000000000000, 0.000000000000000000, 8.750000000000000000 ) ) ;
#939 = DIRECTION ( 'NONE',  ( 1.000000000000000000, 0.000000000000000000, 0.000000000000000000 ) ) ;
#940 = ORIENTED_EDGE ( 'NONE', *, *, #847, .T. ) ;
#941 = CARTESIAN_POINT ( 'NONE',  ( -14.86438004695602899, 12.01251231540467224, 8.750000000000000000 ) ) ;
#942 = CARTESIAN_POINT ( 'NONE',  ( 18.00000000000000000, -11.99999999999999645, 8.750000000000000000 ) ) ;
#943 = AXIS2_PLACEMENT_3D ( 'NONE', #888, #65, #423 ) ;
#944 = AXIS2_PLACEMENT_3D ( 'NONE', #1101, #760, #108 ) ;
#945 = EDGE_CURVE ( 'NONE', #727, #710, #526, .T. ) ;
#946 = AXIS2_PLACEMENT_3D ( 'NONE', #201, #1023, #475 ) ;
#947 = LINE ( 'NONE', #687, #651 ) ;
#948 = APPLICATION_CONTEXT ( 'automotive_design' ) ;
#949 = CARTESIAN_POINT ( 'NONE',  ( 30.00000000000001066, -2.081668171172169144E-14, -8.750000000000000000 ) ) ;
#950 = AXIS2_PLACEMENT_3D ( 'NONE', #441, #418, #714 ) ;
#951 = ORIENTED_EDGE ( 'NONE', *, *, #655, .F. ) ;
#952 = LINE ( 'NONE', #141, #80 ) ;
#953 = LINE ( 'NONE', #55, #974 ) ;
#954 = FILL_AREA_STYLE_COLOUR ( '', #304 ) ;
#955 = CARTESIAN_POINT ( 'NONE',  ( 25.00000000000000000, -14.99999999999999645, -1.725000000000000755 ) ) ;
#956 = CARTESIAN_POINT ( 'NONE',  ( -25.00000000000000000, -14.99999999999999645, 1.725000000000000755 ) ) ;
#957 = EDGE_LOOP ( 'NONE', ( #459, #438, #491, #281 ) ) ;
#958 = EDGE_CURVE ( 'NONE', #129, #741, #28, .T. ) ;
#959 = CARTESIAN_POINT ( 'NONE',  ( 7.147333222430030553, 22.03809070440773610, -2.599999999999999201 ) ) ;
#960 = CARTESIAN_POINT ( 'NONE',  ( -15.00000000000000000, 10.00000000000000178, 8.750000000000000000 ) ) ;
#961 = EDGE_CURVE ( 'NONE', #37, #383, #680, .T. ) ;
#962 = DIRECTION ( 'NONE',  ( -0.000000000000000000, 0.000000000000000000, 1.000000000000000000 ) ) ;
#963 = ORIENTED_EDGE ( 'NONE', *, *, #8, .F. ) ;
#964 = CARTESIAN_POINT ( 'NONE',  ( -14.02713824661276654, 12.87753480063939726, -2.641095781682739396 ) ) ;
#965 = DIRECTION ( 'NONE',  ( 0.000000000000000000, -0.000000000000000000, -1.000000000000000000 ) ) ;
#966 = CARTESIAN_POINT ( 'NONE',  ( 6.750000000000000000, 8.266365894244634333E-16, -2.600000000000000089 ) ) ;
#967 = DIRECTION ( 'NONE',  ( 0.9848077530122079093, 0.1736481776669314414, 0.000000000000000000 ) ) ;
#968 = CARTESIAN_POINT ( 'NONE',  ( -18.00000000000000000, -11.99999999999999645, -8.750000000000000000 ) ) ;
#969 = ORIENTED_EDGE ( 'NONE', *, *, #930, .T. ) ;
#970 = CARTESIAN_POINT ( 'NONE',  ( 8.357482143658705454, 22.43426810908959013, -3.376242525615431589 ) ) ;
#971 = PLANE ( 'NONE',  #753 ) ;
#972 = EDGE_LOOP ( 'NONE', ( #234, #826, #1141, #355 ) ) ;
#973 = EDGE_CURVE ( 'NONE', #172, #466, #765, .T. ) ;
#974 = VECTOR ( 'NONE', #248, 1000.000000000000000 ) ;
#975 = CARTESIAN_POINT ( 'NONE',  ( -18.00000000000000000, -14.99999999999999645, 8.750000000000000000 ) ) ;
#976 = LINE ( 'NONE', #66, #139 ) ;
#977 = ORIENTED_EDGE ( 'NONE', *, *, #1162, .F. ) ;
#978 = VECTOR ( 'NONE', #541, 1000.000000000000000 ) ;
#979 = CARTESIAN_POINT ( 'NONE',  ( 30.00000000000001066, -2.081668171172169144E-14, 8.750000000000000000 ) ) ;
#980 = VERTEX_POINT ( 'NONE', #922 ) ;
#981 = FACE_OUTER_BOUND ( 'NONE', #911, .T. ) ;
#982 = EDGE_LOOP ( 'NONE', ( #361, #803, #123, #179 ) ) ;
#983 = ADVANCED_FACE ( 'NONE', ( #386, #562 ), #131, .T. ) ;
#984 = CARTESIAN_POINT ( 'NONE',  ( 18.00000000000000000, -14.99999999999999645, -8.750000000000000000 ) ) ;
#985 = CARTESIAN_POINT ( 'NONE',  ( 15.00000000000000000, 10.00000000000000533, 8.750000000000000000 ) ) ;
#986 = ORIENTED_EDGE ( 'NONE', *, *, #790, .T. ) ;
#987 = DIRECTION ( 'NONE',  ( -0.000000000000000000, -0.000000000000000000, -1.000000000000000000 ) ) ;
#988 = VERTEX_POINT ( 'NONE', #302 ) ;
#989 = ADVANCED_FACE ( 'NONE', ( #758 ), #726, .F. ) ;
#990 = VERTEX_POINT ( 'NONE', #844 ) ;
#991 = DIRECTION ( 'NONE',  ( -0.1736481776669314692, 0.9848077530122079093, 0.000000000000000000 ) ) ;
#992 = DIRECTION ( 'NONE',  ( 0.000000000000000000, -0.000000000000000000, -1.000000000000000000 ) ) ;
#993 = CIRCLE ( 'NONE', #690, 6.750000000000000000 ) ;
#994 = DIRECTION ( 'NONE',  ( -1.000000000000000000, 0.000000000000000000, 0.000000000000000000 ) ) ;
#995 = ORIENTED_EDGE ( 'NONE', *, *, #1096, .F. ) ;
#996 = VERTEX_POINT ( 'NONE', #35 ) ;
#997 = LINE ( 'NONE', #612, #263 ) ;
#998 = DIRECTION ( 'NONE',  ( 1.000000000000000000, 0.000000000000000000, 0.000000000000000000 ) ) ;
#999 = EDGE_CURVE ( 'NONE', #299, #366, #1159, .T. ) ;
#1000 = EDGE_LOOP ( 'NONE', ( #67, #648, #812, #1071 ) ) ;
#1001 = EDGE_LOOP ( 'NONE', ( #305, #173, #629, #866 ) ) ;
#1002 = AXIS2_PLACEMENT_3D ( 'NONE', #850, #830, #1125 ) ;
#1003 = DIRECTION ( 'NONE',  ( 0.000000000000000000, 0.000000000000000000, 1.000000000000000000 ) ) ;
#1004 = ADVANCED_FACE ( 'NONE', ( #113 ), #195, .F. ) ;
#1005 = DIRECTION ( 'NONE',  ( 1.000000000000000000, 0.000000000000000000, 0.000000000000000000 ) ) ;
#1006 = EDGE_LOOP ( 'NONE', ( #755, #513, #1169, #7 ) ) ;
#1007 = ORIENTED_EDGE ( 'NONE', *, *, #1111, .F. ) ;
#1008 = DIRECTION ( 'NONE',  ( 0.000000000000000000, 0.000000000000000000, 1.000000000000000000 ) ) ;
#1009 = CARTESIAN_POINT ( 'NONE',  ( 6.988415293868801115, 21.49718318079185408, 8.750000000000000000 ) ) ;
#1010 = CARTESIAN_POINT ( 'NONE',  ( 6.988415293868801115, 21.49718318079185408, -2.600000000000000089 ) ) ;
#1011 = CONICAL_SURFACE ( 'NONE', #1165, 1.725000000000000755, 0.7853981633974136400 ) ;
#1012 = CARTESIAN_POINT ( 'NONE',  ( 25.00000000000000000, -19.99999999999999645, 1.700000000000000178 ) ) ;
#1013 = VERTEX_POINT ( 'NONE', #291 ) ;
#1014 = VERTEX_POINT ( 'NONE', #1010 ) ;
#1015 = EDGE_CURVE ( 'NONE', #210, #990, #125, .T. ) ;
#1016 = VECTOR ( 'NONE', #611, 1000.000000000000000 ) ;
#1017 = DIRECTION ( 'NONE',  ( -0.000000000000000000, -0.000000000000000000, -1.000000000000000000 ) ) ;
#1018 = DIRECTION ( 'NONE',  ( 1.000000000000000000, 0.000000000000000000, 0.000000000000000000 ) ) ;
#1019 = CARTESIAN_POINT ( 'NONE',  ( -0.000000000000000000, -14.99999999999999645, -8.750000000000000000 ) ) ;
#1020 = ORIENTED_EDGE ( 'NONE', *, *, #592, .T. ) ;
#1021 = CIRCLE ( 'NONE', #927, 15.00000000000000000 ) ;
#1022 = DIRECTION ( 'NONE',  ( -0.000000000000000000, 1.000000000000000000, -0.000000000000000000 ) ) ;
#1023 = DIRECTION ( 'NONE',  ( -0.000000000000000000, 1.000000000000000000, -0.000000000000000000 ) ) ;
#1024 = CARTESIAN_POINT ( 'NONE',  ( 7.745536747856915483, 22.47587877445983651, 2.860003482319762202 ) ) ;
#1025 = LINE ( 'NONE', #293, #339 ) ;
#1026 = VERTEX_POINT ( 'NONE', #1114 ) ;
#1027 = EDGE_CURVE ( 'NONE', #533, #805, #227, .T. ) ;
#1028 = FACE_OUTER_BOUND ( 'NONE', #252, .T. ) ;
#1029 = CARTESIAN_POINT ( 'NONE',  ( -13.86535016605276027, 12.89163442685600103, 2.599999999999999645 ) ) ;
#1030 = AXIS2_PLACEMENT_3D ( 'NONE', #178, #1085, #998 ) ;
#1031 = EDGE_CURVE ( 'NONE', #710, #366, #838, .T. ) ;
#1032 = DIRECTION ( 'NONE',  ( 0.000000000000000000, 0.7071067811865721087, 0.7071067811865230368 ) ) ;
#1033 = VECTOR ( 'NONE', #578, 1000.000000000000000 ) ;
#1034 = AXIS2_PLACEMENT_3D ( 'NONE', #621, #962, #701 ) ;
#1035 = EDGE_LOOP ( 'NONE', ( #532, #117 ) ) ;
#1036 = CIRCLE ( 'NONE', #414, 6.750000000000000000 ) ;
#1037 = CARTESIAN_POINT ( 'NONE',  ( -15.00000000000000000, -11.99999999999999645, 8.750000000000000000 ) ) ;
#1038 = LINE ( 'NONE', #318, #1016 ) ;
#1039 = EDGE_CURVE ( 'NONE', #715, #129, #207, .T. ) ;
#1040 = ORIENTED_EDGE ( 'NONE', *, *, #118, .F. ) ;
#1041 = CIRCLE ( 'NONE', #539, 6.750000000000000000 ) ;
#1042 = EDGE_CURVE ( 'NONE', #741, #815, #947, .T. ) ;
#1043 = CARTESIAN_POINT ( 'NONE',  ( 0.000000000000000000, 0.000000000000000000, -2.600000000000000089 ) ) ;
#1044 = DIRECTION ( 'NONE',  ( 1.000000000000000000, 0.000000000000000000, 0.000000000000000000 ) ) ;
#1045 = ORIENTED_EDGE ( 'NONE', *, *, #859, .T. ) ;
#1046 = CYLINDRICAL_SURFACE ( 'NONE', #376, 2.999999999999999112 ) ;
#1047 = DIRECTION ( 'NONE',  ( 1.000000000000000000, 0.000000000000000000, 0.000000000000000000 ) ) ;
#1048 = ADVANCED_FACE ( 'NONE', ( #1050 ), #1147, .F. ) ;
#1049 = ORIENTED_EDGE ( 'NONE', *, *, #774, .T. ) ;
#1050 = FACE_OUTER_BOUND ( 'NONE', #608, .T. ) ;
#1051 = DIRECTION ( 'NONE',  ( 1.000000000000000000, 0.000000000000000000, 0.000000000000000000 ) ) ;
#1052 = ORIENTED_EDGE ( 'NONE', *, *, #1027, .F. ) ;
#1053 = CARTESIAN_POINT ( 'NONE',  ( 7.147333222430030553, 22.03809070440773610, -2.599999999999999201 ) ) ;
#1054 = CIRCLE ( 'NONE', #550, 6.750000000000000000 ) ;
#1055 = CARTESIAN_POINT ( 'NONE',  ( -14.86438004695602899, 12.01251231540467224, -3.600000000000000089 ) ) ;
#1056 = LINE ( 'NONE', #642, #775 ) ;
#1057 = AXIS2_PLACEMENT_3D ( 'NONE', #505, #675, #411 ) ;
#1058 = DIRECTION ( 'NONE',  ( 1.000000000000000000, 0.000000000000000000, 0.000000000000000000 ) ) ;
#1059 = ORIENTED_EDGE ( 'NONE', *, *, #877, .F. ) ;
#1060 = DIRECTION ( 'NONE',  ( 1.000000000000000000, 0.000000000000000000, 0.000000000000000000 ) ) ;
#1061 = CARTESIAN_POINT ( 'NONE',  ( -14.81363420546097664, 12.23936884346752052, -3.376242525615428480 ) ) ;
#1062 = DIRECTION ( 'NONE',  ( -0.000000000000000000, 0.000000000000000000, 1.000000000000000000 ) ) ;
#1063 = VERTEX_POINT ( 'NONE', #45 ) ;
#1064 = CARTESIAN_POINT ( 'NONE',  ( -30.00000000000001066, -2.081668171172169144E-14, -8.750000000000000000 ) ) ;
#1065 = PLANE ( 'NONE',  #1105 ) ;
#1066 = VERTEX_POINT ( 'NONE', #769 ) ;
#1067 = FACE_OUTER_BOUND ( 'NONE', #718, .T. ) ;
#1068 = EDGE_LOOP ( 'NONE', ( #848, #868, #367, #558 ) ) ;
#1069 = FACE_OUTER_BOUND ( 'NONE', #1006, .T. ) ;
#1070 = EDGE_CURVE ( 'NONE', #750, #356, #1138, .T. ) ;
#1071 = ORIENTED_EDGE ( 'NONE', *, *, #527, .T. ) ;
#1072 = VECTOR ( 'NONE', #1143, 1000.000000000000000 ) ;
#1073 = CARTESIAN_POINT ( 'NONE',  ( 30.00000000000000000, -14.99999999999999645, 8.750000000000000000 ) ) ;
#1074 = CARTESIAN_POINT ( 'NONE',  ( 25.00000000000000000, -19.99999999999999645, 0.000000000000000000 ) ) ;
#1075 = ORIENTED_EDGE ( 'NONE', *, *, #845, .T. ) ;
#1076 = APPLICATION_PROTOCOL_DEFINITION ( 'draft international standard', 'automotive_design', 1998, #836 ) ;
#1077 = EDGE_CURVE ( 'NONE', #710, #727, #573, .T. ) ;
#1078 = VECTOR ( 'NONE', #9, 999.9999999999998863 ) ;
#1079 = DIRECTION ( 'NONE',  ( 0.000000000000000000, 0.000000000000000000, 1.000000000000000000 ) ) ;
#1080 = ORIENTED_EDGE ( 'NONE', *, *, #29, .F. ) ;
#1081 = DIRECTION ( 'NONE',  ( 0.000000000000000000, -0.000000000000000000, -1.000000000000000000 ) ) ;
#1082 = ADVANCED_BREP_SHAPE_REPRESENTATION ( 'AngledBearingHolder', ( #363, #801 ), #751 ) ;
#1083 = ORIENTED_EDGE ( 'NONE', *, *, #301, .T. ) ;
#1084 = DIRECTION ( 'NONE',  ( 0.000000000000000000, 0.000000000000000000, 1.000000000000000000 ) ) ;
#1085 = DIRECTION ( 'NONE',  ( -0.000000000000000000, 0.000000000000000000, 1.000000000000000000 ) ) ;
#1086 = AXIS2_PLACEMENT_3D ( 'NONE', #1128, #593, #858 ) ;
#1087 = CARTESIAN_POINT ( 'NONE',  ( -15.00000000000000000, 0.000000000000000000, -8.750000000000000000 ) ) ;
#1088 = EDGE_LOOP ( 'NONE', ( #41, #237 ) ) ;
#1089 = VERTEX_POINT ( 'NONE', #232 ) ;
#1090 = DIRECTION ( 'NONE',  ( -0.000000000000000000, 1.000000000000000000, -0.000000000000000000 ) ) ;
#1091 = EDGE_CURVE ( 'NONE', #356, #658, #221, .T. ) ;
#1092 = DIRECTION ( 'NONE',  ( -0.000000000000000000, 1.000000000000000000, -0.000000000000000000 ) ) ;
#1093 = AXIS2_PLACEMENT_3D ( 'NONE', #106, #1126, #656 ) ;
#1094 = ORIENTED_EDGE ( 'NONE', *, *, #703, .F. ) ;
#1095 = ORIENTED_EDGE ( 'NONE', *, *, #132, .F. ) ;
#1096 = EDGE_CURVE ( 'NONE', #988, #198, #407, .T. ) ;
#1097 = FACE_OUTER_BOUND ( 'NONE', #18, .T. ) ;
#1098 = DIRECTION ( 'NONE',  ( -1.000000000000000000, 0.000000000000000000, 0.000000000000000000 ) ) ;
#1099 = CYLINDRICAL_SURFACE ( 'NONE', #284, 1.000000000000000000 ) ;
#1100 = EDGE_LOOP ( 'NONE', ( #1094, #977, #912, #622 ) ) ;
#1101 = CARTESIAN_POINT ( 'NONE',  ( -25.00000000000000000, -14.99999999999999645, 0.000000000000000000 ) ) ;
#1102 = ORIENTED_EDGE ( 'NONE', *, *, #859, .F. ) ;
#1103 = AXIS2_PLACEMENT_3D ( 'NONE', #282, #835, #823 ) ;
#1104 = CARTESIAN_POINT ( 'NONE',  ( -25.00000000000000000, -14.99999999999999645, 0.000000000000000000 ) ) ;
#1105 = AXIS2_PLACEMENT_3D ( 'NONE', #152, #1167, #148 ) ;
#1106 = DIRECTION ( 'NONE',  ( 0.000000000000000000, -0.000000000000000000, -1.000000000000000000 ) ) ;
#1107 = DIRECTION ( 'NONE',  ( -0.000000000000000000, 1.000000000000000000, -0.000000000000000000 ) ) ;
#1108 = CIRCLE ( 'NONE', #1113, 1.000000000000000888 ) ;
#1109 = VECTOR ( 'NONE', #306, 1000.000000000000000 ) ;
#1110 = CARTESIAN_POINT ( 'NONE',  ( 29.99999999999999645, -19.99999999999999645, 8.750000000000000000 ) ) ;
#1111 = EDGE_CURVE ( 'NONE', #172, #666, #274, .T. ) ;
#1112 = ORIENTED_EDGE ( 'NONE', *, *, #590, .T. ) ;
#1113 = AXIS2_PLACEMENT_3D ( 'NONE', #142, #515, #698 ) ;
#1114 = CARTESIAN_POINT ( 'NONE',  ( 15.00000000000000000, -11.99999999999999645, -8.750000000000000000 ) ) ;
#1115 = VECTOR ( 'NONE', #536, 1000.000000000000000 ) ;
#1116 = DIRECTION ( 'NONE',  ( -0.000000000000000000, 1.000000000000000000, -0.000000000000000000 ) ) ;
#1117 = ORIENTED_EDGE ( 'NONE', *, *, #301, .F. ) ;
#1118 = DIRECTION ( 'NONE',  ( -0.000000000000000000, -0.000000000000000000, 1.000000000000000000 ) ) ;
#1119 = FACE_BOUND ( 'NONE', #604, .T. ) ;
#1120 = EDGE_CURVE ( 'NONE', #129, #1089, #934, .T. ) ;
#1121 = CARTESIAN_POINT ( 'NONE',  ( 25.00000000000000000, -14.99999999999999645, 0.000000000000000000 ) ) ;
#1122 = ORIENTED_EDGE ( 'NONE', *, *, #70, .T. ) ;
#1123 = VERTEX_POINT ( 'NONE', #1037 ) ;
#1124 = AXIS2_PLACEMENT_3D ( 'NONE', #326, #1118, #1047 ) ;
#1125 = DIRECTION ( 'NONE',  ( 0.000000000000000000, 0.000000000000000000, 1.000000000000000000 ) ) ;
#1126 = DIRECTION ( 'NONE',  ( -0.000000000000000000, 0.000000000000000000, 1.000000000000000000 ) ) ;
#1127 = ORIENTED_EDGE ( 'NONE', *, *, #1091, .T. ) ;
#1128 = CARTESIAN_POINT ( 'NONE',  ( 18.00000000000000000, -11.99999999999999645, 8.750000000000000000 ) ) ;
#1129 = EDGE_CURVE ( 'NONE', #901, #210, #1036, .T. ) ;
#1130 =( LENGTH_UNIT ( ) NAMED_UNIT ( * ) SI_UNIT ( .MILLI., .METRE. ) );
#1131 = AXIS2_PLACEMENT_3D ( 'NONE', #637, #270, #16 ) ;
#1132 = VERTEX_POINT ( 'NONE', #134 ) ;
#1133 = VECTOR ( 'NONE', #277, 1000.000000000000000 ) ;
#1134 = CARTESIAN_POINT ( 'NONE',  ( -29.99999999999999645, -19.99999999999999645, 8.750000000000000000 ) ) ;
#1135 = EDGE_CURVE ( 'NONE', #246, #566, #683, .T. ) ;
#1136 = CARTESIAN_POINT ( 'NONE',  ( -25.00000000000000000, -14.99999999999999645, 0.000000000000000000 ) ) ;
#1137 = EDGE_CURVE ( 'NONE', #1164, #1013, #599, .T. ) ;
#1138 = CIRCLE ( 'NONE', #1057, 1.700000000000000178 ) ;
#1139 = CARTESIAN_POINT ( 'NONE',  ( -14.31060433816742972, 12.78987131474205974, 2.772299556408620802 ) ) ;
#1140 = DIRECTION ( 'NONE',  ( 1.000000000000000000, 0.000000000000000000, 0.000000000000000000 ) ) ;
#1141 = ORIENTED_EDGE ( 'NONE', *, *, #77, .F. ) ;
#1142 = CIRCLE ( 'NONE', #635, 10.59999999999999964 ) ;
#1143 = DIRECTION ( 'NONE',  ( -0.000000000000000000, -0.000000000000000000, -1.000000000000000000 ) ) ;
#1144 = CYLINDRICAL_SURFACE ( 'NONE', #1124, 10.59999999999999964 ) ;
#1145 = EDGE_LOOP ( 'NONE', ( #273, #338, #632, #17 ) ) ;
#1146 = VECTOR ( 'NONE', #297, 1000.000000000000000 ) ;
#1147 = CYLINDRICAL_SURFACE ( 'NONE', #1086, 2.999999999999999112 ) ;
#1148 = FACE_OUTER_BOUND ( 'NONE', #262, .T. ) ;
#1149 = EDGE_LOOP ( 'NONE', ( #886, #395, #308, #1122 ) ) ;
#1150 = CARTESIAN_POINT ( 'NONE',  ( -15.00000000000000000, 0.000000000000000000, 8.750000000000000000 ) ) ;
#1151 = EDGE_CURVE ( 'NONE', #486, #323, #952, .T. ) ;
#1152 = CARTESIAN_POINT ( 'NONE',  ( 15.00000000000000000, 0.000000000000000000, -8.750000000000000000 ) ) ;
#1153 = CARTESIAN_POINT ( 'NONE',  ( -25.00000000000000000, -15.02499999999999858, 0.000000000000000000 ) ) ;
#1154 = ORIENTED_EDGE ( 'NONE', *, *, #70, .F. ) ;
#1155 = CARTESIAN_POINT ( 'NONE',  ( 8.559016386288002209, 22.31841055084841230, -3.600000000000000089 ) ) ;
#1156 = CYLINDRICAL_SURFACE ( 'NONE', #535, 6.750000000000000000 ) ;
#1157 = FACE_BOUND ( 'NONE', #96, .T. ) ;
#1158 = DIRECTION ( 'NONE',  ( -0.000000000000000000, -0.000000000000000000, -1.000000000000000000 ) ) ;
#1159 = CIRCLE ( 'NONE', #269, 6.750000000000000000 ) ;
#1160 = CARTESIAN_POINT ( 'NONE',  ( 25.00000000000000000, -14.99999999999999645, 0.000000000000000000 ) ) ;
#1161 = VERTEX_POINT ( 'NONE', #329 ) ;
#1162 = EDGE_CURVE ( 'NONE', #1161, #276, #857, .T. ) ;
#1163 = CARTESIAN_POINT ( 'NONE',  ( 7.003607540856588543, 21.32353500312492045, 8.750000000000000000 ) ) ;
#1164 = VERTEX_POINT ( 'NONE', #404 ) ;
#1165 = AXIS2_PLACEMENT_3D ( 'NONE', #1160, #450, #607 ) ;
#1166 = LINE ( 'NONE', #1064, #645 ) ;
#1167 = DIRECTION ( 'NONE',  ( -1.000000000000000000, 0.000000000000000000, 0.000000000000000000 ) ) ;
#1168 = ORIENTED_EDGE ( 'NONE', *, *, #275, .F. ) ;
#1169 = ORIENTED_EDGE ( 'NONE', *, *, #118, .T. ) ;
ENDSEC;
END-ISO-10303-21;
