ISO-10303-21;
HEADER;
FILE_DESCRIPTION (( 'STEP AP214' ),
    '1' );
FILE_NAME ('BaseplateToBoogieMountingRod.STEP',
    '2026-02-05T02:15:48',
    ( '' ),
    ( '' ),
    'SwSTEP 2.0',
    'SolidWorks 2025',
    '' );
FILE_SCHEMA (( 'AUTOMOTIVE_DESIGN' ));
ENDSEC;

DATA;
#1 = ORIENTED_EDGE ( 'NONE', *, *, #192, .F. ) ;
#2 = ADVANCED_BREP_SHAPE_REPRESENTATION ( 'BaseplateToBoogieMountingRod', ( #15, #75 ), #13 ) ;
#3 = SURFACE_SIDE_STYLE ('',( #34 ) ) ;
#4 = DIRECTION ( 'NONE',  ( 0.000000000000000000, 0.000000000000000000, 1.000000000000000000 ) ) ;
#5 = VERTEX_POINT ( 'NONE', #162 ) ;
#6 = LINE ( 'NONE', #68, #106 ) ;
#7 = PRODUCT_DEFINITION_FORMATION_WITH_SPECIFIED_SOURCE ( 'ANY', '', #91, .NOT_KNOWN. ) ;
#8 = DIRECTION ( 'NONE',  ( -1.000000000000000000, 0.000000000000000000, 0.000000000000000000 ) ) ;
#9 = EDGE_CURVE ( 'NONE', #118, #158, #6, .T. ) ;
#10 = CARTESIAN_POINT ( 'NONE',  ( 3.122498999199199599, 2.500000000000000000, 0.000000000000000000 ) ) ;
#11 =( LENGTH_UNIT ( ) NAMED_UNIT ( * ) SI_UNIT ( .MILLI., .METRE. ) );
#12 = CARTESIAN_POINT ( 'NONE',  ( 0.000000000000000000, 0.000000000000000000, 0.000000000000000000 ) ) ;
#13 =( GEOMETRIC_REPRESENTATION_CONTEXT ( 3 ) GLOBAL_UNCERTAINTY_ASSIGNED_CONTEXT ( ( #113 ) ) GLOBAL_UNIT_ASSIGNED_CONTEXT ( ( #11, #97, #169 ) ) REPRESENTATION_CONTEXT ( 'NONE', 'WORKASPACE' ) );
#14 = ORIENTED_EDGE ( 'NONE', *, *, #164, .T. ) ;
#15 = MANIFOLD_SOLID_BREP ( 'Cut-Extrude1', #187 ) ;
#16 = VERTEX_POINT ( 'NONE', #104 ) ;
#17 = ORIENTED_EDGE ( 'NONE', *, *, #84, .T. ) ;
#18 = VECTOR ( 'NONE', #129, 1000.000000000000000 ) ;
#19 = CARTESIAN_POINT ( 'NONE',  ( 0.000000000000000000, 0.000000000000000000, 135.0000000000000000 ) ) ;
#20 = PRESENTATION_STYLE_ASSIGNMENT (( #139 ) ) ;
#21 = FACE_OUTER_BOUND ( 'NONE', #103, .T. ) ;
#22 = CIRCLE ( 'NONE', #64, 4.000000000000000000 ) ;
#23 = DIRECTION ( 'NONE',  ( 1.000000000000000000, 0.000000000000000000, 0.000000000000000000 ) ) ;
#24 = CARTESIAN_POINT ( 'NONE',  ( 0.000000000000000000, 0.000000000000000000, 0.000000000000000000 ) ) ;
#25 = DIRECTION ( 'NONE',  ( 1.000000000000000000, 0.000000000000000000, 0.000000000000000000 ) ) ;
#26 = DIRECTION ( 'NONE',  ( 1.000000000000000000, 0.000000000000000000, 0.000000000000000000 ) ) ;
#27 = LINE ( 'NONE', #76, #151 ) ;
#28 = MECHANICAL_DESIGN_GEOMETRIC_PRESENTATION_REPRESENTATION (  '', ( #174 ), #111 ) ;
#29 = DIRECTION ( 'NONE',  ( 1.000000000000000000, 0.000000000000000000, 0.000000000000000000 ) ) ;
#30 = ORIENTED_EDGE ( 'NONE', *, *, #192, .T. ) ;
#31 = VECTOR ( 'NONE', #44, 1000.000000000000000 ) ;
#32 = CYLINDRICAL_SURFACE ( 'NONE', #159, 4.000000000000000000 ) ;
#33 = DIRECTION ( 'NONE',  ( -0.000000000000000000, -0.000000000000000000, -1.000000000000000000 ) ) ;
#34 = SURFACE_STYLE_FILL_AREA ( #182 ) ;
#35 = DIRECTION ( 'NONE',  ( 0.000000000000000000, 0.000000000000000000, 1.000000000000000000 ) ) ;
#36 = CARTESIAN_POINT ( 'NONE',  ( 0.000000000000000000, 0.000000000000000000, 135.0000000000000000 ) ) ;
#37 = CYLINDRICAL_SURFACE ( 'NONE', #180, 4.000000000000000000 ) ;
#38 = AXIS2_PLACEMENT_3D ( 'NONE', #48, #35, #109 ) ;
#39 = ORIENTED_EDGE ( 'NONE', *, *, #127, .F. ) ;
#40 = ORIENTED_EDGE ( 'NONE', *, *, #154, .F. ) ;
#41 = EDGE_LOOP ( 'NONE', ( #17, #82, #66, #134 ) ) ;
#42 = AXIS2_PLACEMENT_3D ( 'NONE', #55, #4, #86 ) ;
#43 = ADVANCED_FACE ( 'NONE', ( #70 ), #32, .T. ) ;
#44 = DIRECTION ( 'NONE',  ( -0.000000000000000000, -0.000000000000000000, -1.000000000000000000 ) ) ;
#45 = CARTESIAN_POINT ( 'NONE',  ( -3.122498999199199599, 2.500000000000000000, 135.0000000000000000 ) ) ;
#46 = ORIENTED_EDGE ( 'NONE', *, *, #190, .F. ) ;
#47 = CARTESIAN_POINT ( 'NONE',  ( -4.000000000000000000, 0.000000000000000000, 0.000000000000000000 ) ) ;
#48 = CARTESIAN_POINT ( 'NONE',  ( 0.000000000000000000, 0.000000000000000000, 0.000000000000000000 ) ) ;
#49 = DIRECTION ( 'NONE',  ( -1.000000000000000000, -0.000000000000000000, -0.000000000000000000 ) ) ;
#50 = DIRECTION ( 'NONE',  ( 0.000000000000000000, 0.000000000000000000, 1.000000000000000000 ) ) ;
#51 = CIRCLE ( 'NONE', #71, 4.000000000000000000 ) ;
#52 = APPLICATION_CONTEXT ( 'automotive_design' ) ;
#53 = EDGE_CURVE ( 'NONE', #191, #115, #87, .T. ) ;
#54 = EDGE_CURVE ( 'NONE', #149, #191, #51, .T. ) ;
#55 = CARTESIAN_POINT ( 'NONE',  ( 0.000000000000000000, 0.000000000000000000, 0.000000000000000000 ) ) ;
#56 = CARTESIAN_POINT ( 'NONE',  ( 4.000000000000000000, 4.898587196589412829E-16, 0.000000000000000000 ) ) ;
#57 = CIRCLE ( 'NONE', #83, 4.000000000000000000 ) ;
#58 = PLANE ( 'NONE',  #42 ) ;
#59 = CYLINDRICAL_SURFACE ( 'NONE', #170, 4.000000000000000000 ) ;
#60 = APPLICATION_PROTOCOL_DEFINITION ( 'draft international standard', 'automotive_design', 1998, #52 ) ;
#61 = CARTESIAN_POINT ( 'NONE',  ( -4.000000000000000000, 0.000000000000000000, 135.0000000000000000 ) ) ;
#62 = LINE ( 'NONE', #108, #18 ) ;
#63 = SHAPE_DEFINITION_REPRESENTATION ( #165, #2 ) ;
#64 = AXIS2_PLACEMENT_3D ( 'NONE', #112, #50, #25 ) ;
#65 = EDGE_LOOP ( 'NONE', ( #46, #119, #39, #132 ) ) ;
#66 = ORIENTED_EDGE ( 'NONE', *, *, #131, .T. ) ;
#67 = ORIENTED_EDGE ( 'NONE', *, *, #9, .T. ) ;
#68 = CARTESIAN_POINT ( 'NONE',  ( 3.122498999199199599, 2.500000000000000000, 135.0000000000000000 ) ) ;
#69 = ORIENTED_EDGE ( 'NONE', *, *, #175, .T. ) ;
#70 = FACE_OUTER_BOUND ( 'NONE', #116, .T. ) ;
#71 = AXIS2_PLACEMENT_3D ( 'NONE', #85, #135, #23 ) ;
#72 = CARTESIAN_POINT ( 'NONE',  ( 3.122498999199199599, 2.500000000000000000, 135.0000000000000000 ) ) ;
#73 = ADVANCED_FACE ( 'NONE', ( #150 ), #58, .F. ) ;
#74 = CARTESIAN_POINT ( 'NONE',  ( 0.000000000000000000, 0.000000000000000000, 135.0000000000000000 ) ) ;
#75 = AXIS2_PLACEMENT_3D ( 'NONE', #12, #128, #166 ) ;
#76 = CARTESIAN_POINT ( 'NONE',  ( -3.122498999199199599, 2.500000000000000000, 0.000000000000000000 ) ) ;
#77 = CARTESIAN_POINT ( 'NONE',  ( 4.000000000000000000, 4.898587196589412829E-16, 135.0000000000000000 ) ) ;
#78 = DIRECTION ( 'NONE',  ( 0.000000000000000000, 0.000000000000000000, 1.000000000000000000 ) ) ;
#79 = ORIENTED_EDGE ( 'NONE', *, *, #131, .F. ) ;
#80 = EDGE_LOOP ( 'NONE', ( #79, #98, #99, #179 ) ) ;
#81 = ORIENTED_EDGE ( 'NONE', *, *, #53, .F. ) ;
#82 = ORIENTED_EDGE ( 'NONE', *, *, #54, .T. ) ;
#83 = AXIS2_PLACEMENT_3D ( 'NONE', #152, #168, #29 ) ;
#84 = EDGE_CURVE ( 'NONE', #16, #149, #101, .T. ) ;
#85 = CARTESIAN_POINT ( 'NONE',  ( 0.000000000000000000, 0.000000000000000000, 135.0000000000000000 ) ) ;
#86 = DIRECTION ( 'NONE',  ( 1.000000000000000000, 0.000000000000000000, -0.000000000000000000 ) ) ;
#87 = LINE ( 'NONE', #148, #31 ) ;
#88 = APPLICATION_CONTEXT ( 'automotive_design' ) ;
#89 = COLOUR_RGB ( '',0.7921568627450980005, 0.8196078431372548767, 0.9333333333333333481 ) ;
#90 =( NAMED_UNIT ( * ) PLANE_ANGLE_UNIT ( ) SI_UNIT ( $, .RADIAN. ) );
#91 = PRODUCT ( 'BaseplateToBoogieMountingRod', 'BaseplateToBoogieMountingRod', '', ( #140 ) ) ;
#92 = CARTESIAN_POINT ( 'NONE',  ( 0.000000000000000000, 0.000000000000000000, 135.0000000000000000 ) ) ;
#93 = CIRCLE ( 'NONE', #146, 4.000000000000000000 ) ;
#94 = LINE ( 'NONE', #171, #176 ) ;
#95 = FACE_OUTER_BOUND ( 'NONE', #41, .T. ) ;
#96 = AXIS2_PLACEMENT_3D ( 'NONE', #45, #147, #105 ) ;
#97 =( NAMED_UNIT ( * ) PLANE_ANGLE_UNIT ( ) SI_UNIT ( $, .RADIAN. ) );
#98 = ORIENTED_EDGE ( 'NONE', *, *, #53, .T. ) ;
#99 = ORIENTED_EDGE ( 'NONE', *, *, #142, .T. ) ;
#100 = EDGE_LOOP ( 'NONE', ( #107, #40, #14, #67 ) ) ;
#101 = CIRCLE ( 'NONE', #138, 4.000000000000000000 ) ;
#102 = CARTESIAN_POINT ( 'NONE',  ( 0.000000000000000000, 0.000000000000000000, 135.0000000000000000 ) ) ;
#103 = EDGE_LOOP ( 'NONE', ( #1, #173, #163, #69 ) ) ;
#104 = CARTESIAN_POINT ( 'NONE',  ( -3.122498999199199599, 2.500000000000000000, 135.0000000000000000 ) ) ;
#105 = DIRECTION ( 'NONE',  ( 0.000000000000000000, -0.000000000000000000, 1.000000000000000000 ) ) ;
#106 = VECTOR ( 'NONE', #121, 1000.000000000000000 ) ;
#107 = ORIENTED_EDGE ( 'NONE', *, *, #190, .T. ) ;
#108 = CARTESIAN_POINT ( 'NONE',  ( -3.122498999199199599, 2.500000000000000000, 135.0000000000000000 ) ) ;
#109 = DIRECTION ( 'NONE',  ( 1.000000000000000000, 0.000000000000000000, 0.000000000000000000 ) ) ;
#110 = PRODUCT_DEFINITION ( 'UNKNOWN', '', #7, #172 ) ;
#111 =( GEOMETRIC_REPRESENTATION_CONTEXT ( 3 ) GLOBAL_UNCERTAINTY_ASSIGNED_CONTEXT ( ( #189 ) ) GLOBAL_UNIT_ASSIGNED_CONTEXT ( ( #181, #90, #178 ) ) REPRESENTATION_CONTEXT ( 'NONE', 'WORKASPACE' ) );
#112 = CARTESIAN_POINT ( 'NONE',  ( 0.000000000000000000, 0.000000000000000000, 135.0000000000000000 ) ) ;
#113 = UNCERTAINTY_MEASURE_WITH_UNIT (LENGTH_MEASURE( 1.000000000000000082E-05 ), #11, 'distance_accuracy_value', 'NONE');
#114 = ADVANCED_FACE ( 'NONE', ( #21 ), #59, .T. ) ;
#115 = VERTEX_POINT ( 'NONE', #56 ) ;
#116 = EDGE_LOOP ( 'NONE', ( #81, #144, #30, #145 ) ) ;
#117 = PRESENTATION_LAYER_ASSIGNMENT (  '', '', ( #174 ) ) ;
#118 = VERTEX_POINT ( 'NONE', #72 ) ;
#119 = ORIENTED_EDGE ( 'NONE', *, *, #142, .F. ) ;
#120 = ADVANCED_FACE ( 'NONE', ( #161 ), #123, .T. ) ;
#121 = DIRECTION ( 'NONE',  ( 0.000000000000000000, 0.000000000000000000, -1.000000000000000000 ) ) ;
#122 = DIRECTION ( 'NONE',  ( 0.000000000000000000, 0.000000000000000000, 1.000000000000000000 ) ) ;
#123 = PLANE ( 'NONE',  #96 ) ;
#124 = CIRCLE ( 'NONE', #38, 4.000000000000000000 ) ;
#125 = AXIS2_PLACEMENT_3D ( 'NONE', #74, #78, #157 ) ;
#126 = DIRECTION ( 'NONE',  ( 1.000000000000000000, 0.000000000000000000, 0.000000000000000000 ) ) ;
#127 = EDGE_CURVE ( 'NONE', #193, #115, #124, .T. ) ;
#128 = DIRECTION ( 'NONE',  ( 0.000000000000000000, 0.000000000000000000, 1.000000000000000000 ) ) ;
#129 = DIRECTION ( 'NONE',  ( 1.000000000000000000, 0.000000000000000000, 0.000000000000000000 ) ) ;
#130 = VECTOR ( 'NONE', #155, 1000.000000000000000 ) ;
#131 = EDGE_CURVE ( 'NONE', #191, #118, #22, .T. ) ;
#132 = ORIENTED_EDGE ( 'NONE', *, *, #175, .F. ) ;
#133 = PRODUCT_RELATED_PRODUCT_CATEGORY ( 'part', '', ( #91 ) ) ;
#134 = ORIENTED_EDGE ( 'NONE', *, *, #164, .F. ) ;
#135 = DIRECTION ( 'NONE',  ( 0.000000000000000000, 0.000000000000000000, 1.000000000000000000 ) ) ;
#136 = DIRECTION ( 'NONE',  ( -1.000000000000000000, 0.000000000000000000, 0.000000000000000000 ) ) ;
#137 = FILL_AREA_STYLE_COLOUR ( '', #89 ) ;
#138 = AXIS2_PLACEMENT_3D ( 'NONE', #19, #122, #126 ) ;
#139 = SURFACE_STYLE_USAGE ( .BOTH. , #3 ) ;
#140 = PRODUCT_CONTEXT ( 'NONE', #52, 'mechanical' ) ;
#141 = FACE_OUTER_BOUND ( 'NONE', #80, .T. ) ;
#142 = EDGE_CURVE ( 'NONE', #115, #158, #57, .T. ) ;
#143 = LINE ( 'NONE', #186, #130 ) ;
#144 = ORIENTED_EDGE ( 'NONE', *, *, #54, .F. ) ;
#145 = ORIENTED_EDGE ( 'NONE', *, *, #127, .T. ) ;
#146 = AXIS2_PLACEMENT_3D ( 'NONE', #24, #188, #26 ) ;
#147 = DIRECTION ( 'NONE',  ( -0.000000000000000000, 1.000000000000000000, 0.000000000000000000 ) ) ;
#148 = CARTESIAN_POINT ( 'NONE',  ( 4.000000000000000000, 4.898587196589412829E-16, 135.0000000000000000 ) ) ;
#149 = VERTEX_POINT ( 'NONE', #61 ) ;
#150 = FACE_OUTER_BOUND ( 'NONE', #65, .T. ) ;
#151 = VECTOR ( 'NONE', #49, 1000.000000000000000 ) ;
#152 = CARTESIAN_POINT ( 'NONE',  ( 0.000000000000000000, 0.000000000000000000, 0.000000000000000000 ) ) ;
#153 = PLANE ( 'NONE',  #125 ) ;
#154 = EDGE_CURVE ( 'NONE', #16, #5, #94, .T. ) ;
#155 = DIRECTION ( 'NONE',  ( -0.000000000000000000, -0.000000000000000000, -1.000000000000000000 ) ) ;
#156 = DIRECTION ( 'NONE',  ( 0.000000000000000000, 0.000000000000000000, -1.000000000000000000 ) ) ;
#157 = DIRECTION ( 'NONE',  ( 1.000000000000000000, 0.000000000000000000, -0.000000000000000000 ) ) ;
#158 = VERTEX_POINT ( 'NONE', #10 ) ;
#159 = AXIS2_PLACEMENT_3D ( 'NONE', #92, #177, #8 ) ;
#160 = ADVANCED_FACE ( 'NONE', ( #141 ), #37, .T. ) ;
#161 = FACE_OUTER_BOUND ( 'NONE', #100, .T. ) ;
#162 = CARTESIAN_POINT ( 'NONE',  ( -3.122498999199199599, 2.500000000000000000, 0.000000000000000000 ) ) ;
#163 = ORIENTED_EDGE ( 'NONE', *, *, #154, .T. ) ;
#164 = EDGE_CURVE ( 'NONE', #16, #118, #62, .T. ) ;
#165 = PRODUCT_DEFINITION_SHAPE ( 'NONE', 'NONE',  #110 ) ;
#166 = DIRECTION ( 'NONE',  ( 1.000000000000000000, 0.000000000000000000, 0.000000000000000000 ) ) ;
#167 = DIRECTION ( 'NONE',  ( -1.000000000000000000, 0.000000000000000000, 0.000000000000000000 ) ) ;
#168 = DIRECTION ( 'NONE',  ( 0.000000000000000000, 0.000000000000000000, 1.000000000000000000 ) ) ;
#169 =( NAMED_UNIT ( * ) SI_UNIT ( $, .STERADIAN. ) SOLID_ANGLE_UNIT ( ) );
#170 = AXIS2_PLACEMENT_3D ( 'NONE', #102, #33, #136 ) ;
#171 = CARTESIAN_POINT ( 'NONE',  ( -3.122498999199199599, 2.500000000000000000, 135.0000000000000000 ) ) ;
#172 = PRODUCT_DEFINITION_CONTEXT ( 'detailed design', #88, 'design' ) ;
#173 = ORIENTED_EDGE ( 'NONE', *, *, #84, .F. ) ;
#174 = STYLED_ITEM ( 'NONE', ( #20 ), #15 ) ;
#175 = EDGE_CURVE ( 'NONE', #5, #193, #93, .T. ) ;
#176 = VECTOR ( 'NONE', #156, 1000.000000000000000 ) ;
#177 = DIRECTION ( 'NONE',  ( -0.000000000000000000, -0.000000000000000000, -1.000000000000000000 ) ) ;
#178 =( NAMED_UNIT ( * ) SI_UNIT ( $, .STERADIAN. ) SOLID_ANGLE_UNIT ( ) );
#179 = ORIENTED_EDGE ( 'NONE', *, *, #9, .F. ) ;
#180 = AXIS2_PLACEMENT_3D ( 'NONE', #36, #184, #167 ) ;
#181 =( LENGTH_UNIT ( ) NAMED_UNIT ( * ) SI_UNIT ( .MILLI., .METRE. ) );
#182 = FILL_AREA_STYLE ('',( #137 ) ) ;
#183 = ADVANCED_FACE ( 'NONE', ( #95 ), #153, .T. ) ;
#184 = DIRECTION ( 'NONE',  ( -0.000000000000000000, -0.000000000000000000, -1.000000000000000000 ) ) ;
#185 = APPLICATION_PROTOCOL_DEFINITION ( 'draft international standard', 'automotive_design', 1998, #88 ) ;
#186 = CARTESIAN_POINT ( 'NONE',  ( -4.000000000000000000, 0.000000000000000000, 135.0000000000000000 ) ) ;
#187 = CLOSED_SHELL ( 'NONE', ( #160, #43, #114, #183, #73, #120 ) ) ;
#188 = DIRECTION ( 'NONE',  ( 0.000000000000000000, 0.000000000000000000, 1.000000000000000000 ) ) ;
#189 = UNCERTAINTY_MEASURE_WITH_UNIT (LENGTH_MEASURE( 1.000000000000000082E-05 ), #181, 'distance_accuracy_value', 'NONE');
#190 = EDGE_CURVE ( 'NONE', #158, #5, #27, .T. ) ;
#191 = VERTEX_POINT ( 'NONE', #77 ) ;
#192 = EDGE_CURVE ( 'NONE', #149, #193, #143, .T. ) ;
#193 = VERTEX_POINT ( 'NONE', #47 ) ;
ENDSEC;
END-ISO-10303-21;
