ISO-10303-21;
HEADER;
FILE_DESCRIPTION (( 'STEP AP214' ),
    '1' );
FILE_NAME ('BearingHolder.STEP',
    '2026-02-05T02:08:02',
    ( '' ),
    ( '' ),
    'SwSTEP 2.0',
    'SolidWorks 2025',
    '' );
FILE_SCHEMA (( 'AUTOMOTIVE_DESIGN' ));
ENDSEC;

DATA;
#1 = CARTESIAN_POINT ( 'NONE',  ( -15.00000000000000000, -9.999999999999998224, 21.00000000000000000 ) ) ;
#2 = CARTESIAN_POINT ( 'NONE',  ( 15.00000000000000000, -8.999999999999998224, 21.00000000000000000 ) ) ;
#3 = CIRCLE ( 'NONE', #156, 2.000000000000000000 ) ;
#4 = ORIENTED_EDGE ( 'NONE', *, *, #221, .F. ) ;
#5 = CYLINDRICAL_SURFACE ( 'NONE', #496, 5.000000000000000000 ) ;
#6 = DIRECTION ( 'NONE',  ( -0.000000000000000000, 1.000000000000000000, -0.000000000000000000 ) ) ;
#7 = EDGE_CURVE ( 'NONE', #812, #277, #858, .T. ) ;
#8 = VERTEX_POINT ( 'NONE', #394 ) ;
#9 = DIRECTION ( 'NONE',  ( -1.000000000000000000, 0.000000000000000000, 0.000000000000000000 ) ) ;
#10 = DIRECTION ( 'NONE',  ( -1.000000000000000000, 0.000000000000000000, 0.000000000000000000 ) ) ;
#11 = EDGE_CURVE ( 'NONE', #598, #573, #194, .T. ) ;
#12 = ORIENTED_EDGE ( 'NONE', *, *, #403, .F. ) ;
#13 = PLANE ( 'NONE',  #509 ) ;
#14 =( NAMED_UNIT ( * ) SI_UNIT ( $, .STERADIAN. ) SOLID_ANGLE_UNIT ( ) );
#15 = CIRCLE ( 'NONE', #127, 2.999999999999999112 ) ;
#16 = EDGE_LOOP ( 'NONE', ( #845, #209, #581, #12 ) ) ;
#17 = CARTESIAN_POINT ( 'NONE',  ( 12.50000000000000711, -9.999999999999998224, 27.75000000000000711 ) ) ;
#18 = DIRECTION ( 'NONE',  ( 0.000000000000000000, 0.000000000000000000, -1.000000000000000000 ) ) ;
#19 = ORIENTED_EDGE ( 'NONE', *, *, #202, .F. ) ;
#20 = CYLINDRICAL_SURFACE ( 'NONE', #111, 2.999999999999999112 ) ;
#21 = EDGE_CURVE ( 'NONE', #99, #292, #205, .T. ) ;
#22 = CARTESIAN_POINT ( 'NONE',  ( -12.50000000000000711, -15.00000000000000000, 26.00000000000000355 ) ) ;
#23 = VERTEX_POINT ( 'NONE', #1 ) ;
#24 = CARTESIAN_POINT ( 'NONE',  ( 15.00000000000000000, -9.999999999999998224, 21.00000000000000000 ) ) ;
#25 = PLANE ( 'NONE',  #75 ) ;
#26 = CIRCLE ( 'NONE', #245, 5.000000000000000000 ) ;
#27 = ORIENTED_EDGE ( 'NONE', *, *, #555, .F. ) ;
#28 = AXIS2_PLACEMENT_3D ( 'NONE', #507, #782, #448 ) ;
#29 = AXIS2_PLACEMENT_3D ( 'NONE', #299, #47, #575 ) ;
#30 = FACE_OUTER_BOUND ( 'NONE', #16, .T. ) ;
#31 = LINE ( 'NONE', #770, #430 ) ;
#32 = EDGE_CURVE ( 'NONE', #464, #556, #634, .T. ) ;
#33 = EDGE_LOOP ( 'NONE', ( #217, #90, #697, #741 ) ) ;
#34 = CARTESIAN_POINT ( 'NONE',  ( 12.50000000000000711, -9.999999999999998224, 24.25000000000000355 ) ) ;
#35 = CARTESIAN_POINT ( 'NONE',  ( 11.19999999991705408, -291580.7499999999418, 13.70000000000000107 ) ) ;
#36 = VERTEX_POINT ( 'NONE', #531 ) ;
#37 = EDGE_CURVE ( 'NONE', #254, #573, #726, .T. ) ;
#38 = CARTESIAN_POINT ( 'NONE',  ( -12.50000000000000711, -9.999999999999998224, 26.00000000000000355 ) ) ;
#39 = VECTOR ( 'NONE', #768, 1000.000000000000000 ) ;
#40 = FACE_BOUND ( 'NONE', #399, .T. ) ;
#41 = ORIENTED_EDGE ( 'NONE', *, *, #189, .T. ) ;
#42 = DIRECTION ( 'NONE',  ( -0.000000000000000000, -1.000000000000000000, -0.000000000000000000 ) ) ;
#43 = CIRCLE ( 'NONE', #444, 2.999999999999999112 ) ;
#44 = DIRECTION ( 'NONE',  ( 0.000000000000000000, -1.000000000000000000, 0.000000000000000000 ) ) ;
#45 = ORIENTED_EDGE ( 'NONE', *, *, #493, .T. ) ;
#46 = CARTESIAN_POINT ( 'NONE',  ( 0.000000000000000000, 0.000000000000000000, 0.000000000000000000 ) ) ;
#47 = DIRECTION ( 'NONE',  ( 1.000000000000000000, 0.000000000000000000, 0.000000000000000000 ) ) ;
#48 = EDGE_CURVE ( 'NONE', #328, #153, #141, .T. ) ;
#49 =( NAMED_UNIT ( * ) SI_UNIT ( $, .STERADIAN. ) SOLID_ANGLE_UNIT ( ) );
#50 = VECTOR ( 'NONE', #364, 1000.000000000000000 ) ;
#51 = ORIENTED_EDGE ( 'NONE', *, *, #457, .F. ) ;
#52 = DIRECTION ( 'NONE',  ( 0.000000000000000000, 0.000000000000000000, -1.000000000000000000 ) ) ;
#53 = LINE ( 'NONE', #579, #358 ) ;
#54 = MANIFOLD_SOLID_BREP ( 'Fillet4', #676 ) ;
#55 = DIRECTION ( 'NONE',  ( 0.000000000000000000, -1.000000000000000000, 0.000000000000000000 ) ) ;
#56 = ORIENTED_EDGE ( 'NONE', *, *, #670, .T. ) ;
#57 = CARTESIAN_POINT ( 'NONE',  ( 0.000000000000000000, 0.000000000000000000, 13.70000000000000107 ) ) ;
#58 = VECTOR ( 'NONE', #63, 1000.000000000000000 ) ;
#59 = CARTESIAN_POINT ( 'NONE',  ( 11.19999999995077644, 12.99999999997680789, 13.70000000000000107 ) ) ;
#60 = ADVANCED_FACE ( 'NONE', ( #339 ), #806, .F. ) ;
#61 = ORIENTED_EDGE ( 'NONE', *, *, #704, .T. ) ;
#62 = VECTOR ( 'NONE', #591, 1000.000000000000000 ) ;
#63 = DIRECTION ( 'NONE',  ( 0.000000000000000000, 0.000000000000000000, -1.000000000000000000 ) ) ;
#64 = SURFACE_STYLE_FILL_AREA ( #797 ) ;
#65 = APPLICATION_PROTOCOL_DEFINITION ( 'draft international standard', 'automotive_design', 1998, #366 ) ;
#66 = ORIENTED_EDGE ( 'NONE', *, *, #818, .F. ) ;
#67 = AXIS2_PLACEMENT_3D ( 'NONE', #293, #582, #235 ) ;
#68 = CARTESIAN_POINT ( 'NONE',  ( 12.50000000000000711, -9.999999999999998224, 26.00000000000000711 ) ) ;
#69 = ORIENTED_EDGE ( 'NONE', *, *, #533, .T. ) ;
#70 = ORIENTED_EDGE ( 'NONE', *, *, #520, .F. ) ;
#71 = LINE ( 'NONE', #77, #635 ) ;
#72 = CIRCLE ( 'NONE', #300, 2.999999999999999112 ) ;
#73 = EDGE_CURVE ( 'NONE', #347, #812, #130, .T. ) ;
#74 = CARTESIAN_POINT ( 'NONE',  ( -15.00000000000000000, -15.00000000000000000, 20.00000000000000000 ) ) ;
#75 = AXIS2_PLACEMENT_3D ( 'NONE', #35, #477, #219 ) ;
#76 = ORIENTED_EDGE ( 'NONE', *, *, #643, .F. ) ;
#77 = CARTESIAN_POINT ( 'NONE',  ( -15.00000000000000000, -9.999999999999998224, 20.00000000000000000 ) ) ;
#78 = CIRCLE ( 'NONE', #447, 5.000000000000000000 ) ;
#79 = EDGE_CURVE ( 'NONE', #528, #8, #291, .T. ) ;
#80 = ORIENTED_EDGE ( 'NONE', *, *, #533, .F. ) ;
#81 = DIRECTION ( 'NONE',  ( 0.000000000000000000, -1.000000000000000000, 0.000000000000000000 ) ) ;
#82 = VERTEX_POINT ( 'NONE', #283 ) ;
#83 = LINE ( 'NONE', #17, #453 ) ;
#84 = CARTESIAN_POINT ( 'NONE',  ( -12.00000000000000000, -15.00000000000000000, 30.00000000000000000 ) ) ;
#85 = CIRCLE ( 'NONE', #197, 2.000000000000000000 ) ;
#86 = ORIENTED_EDGE ( 'NONE', *, *, #139, .F. ) ;
#87 = EDGE_CURVE ( 'NONE', #166, #528, #43, .T. ) ;
#88 = DIRECTION ( 'NONE',  ( -0.000000000000000000, -0.000000000000000000, -1.000000000000000000 ) ) ;
#89 = CARTESIAN_POINT ( 'NONE',  ( 11.19999999999999751, 1.371604415045035316E-15, 13.70000000000000107 ) ) ;
#90 = ORIENTED_EDGE ( 'NONE', *, *, #32, .F. ) ;
#91 = EDGE_CURVE ( 'NONE', #556, #464, #788, .T. ) ;
#92 = CARTESIAN_POINT ( 'NONE',  ( -15.00000000000000000, -8.999999999999998224, 20.00000000000000000 ) ) ;
#93 = CARTESIAN_POINT ( 'NONE',  ( -11.19999999995077644, 12.99999999997680789, 6.299999999999999822 ) ) ;
#94 = AXIS2_PLACEMENT_3D ( 'NONE', #702, #42, #653 ) ;
#95 = ORIENTED_EDGE ( 'NONE', *, *, #709, .F. ) ;
#96 = DIRECTION ( 'NONE',  ( 0.000000000000000000, -1.000000000000000000, 0.000000000000000000 ) ) ;
#97 = DIRECTION ( 'NONE',  ( 0.000000000000000000, 0.000000000000000000, 1.000000000000000000 ) ) ;
#98 = ADVANCED_FACE ( 'NONE', ( #820 ), #280, .F. ) ;
#99 = VERTEX_POINT ( 'NONE', #692 ) ;
#100 = PRESENTATION_LAYER_ASSIGNMENT (  '', '', ( #220 ) ) ;
#101 = DIRECTION ( 'NONE',  ( -1.000000000000000000, 0.000000000000000000, 0.000000000000000000 ) ) ;
#102 = AXIS2_PLACEMENT_3D ( 'NONE', #267, #264, #10 ) ;
#103 = FACE_OUTER_BOUND ( 'NONE', #123, .T. ) ;
#104 = ADVANCED_FACE ( 'NONE', ( #170 ), #164, .T. ) ;
#105 = ORIENTED_EDGE ( 'NONE', *, *, #680, .F. ) ;
#106 = CARTESIAN_POINT ( 'NONE',  ( 15.00000000000000000, -15.00000000000000000, 0.000000000000000000 ) ) ;
#107 = PLANE ( 'NONE',  #856 ) ;
#108 = AXIS2_PLACEMENT_3D ( 'NONE', #38, #119, #510 ) ;
#109 = ORIENTED_EDGE ( 'NONE', *, *, #801, .T. ) ;
#110 = CARTESIAN_POINT ( 'NONE',  ( 15.00000000000000000, -9.999999999999998224, 20.00000000000000000 ) ) ;
#111 = AXIS2_PLACEMENT_3D ( 'NONE', #154, #282, #553 ) ;
#112 = CARTESIAN_POINT ( 'NONE',  ( 0.000000000000000000, 0.000000000000000000, 20.00000000000000000 ) ) ;
#113 = EDGE_LOOP ( 'NONE', ( #666, #828, #791, #664, #41, #341 ) ) ;
#114 = EDGE_CURVE ( 'NONE', #153, #188, #816, .T. ) ;
#115 = CARTESIAN_POINT ( 'NONE',  ( -15.00000000000000000, -9.999999999999998224, 30.00000000000000000 ) ) ;
#116 = VECTOR ( 'NONE', #672, 1000.000000000000000 ) ;
#117 = PLANE ( 'NONE',  #400 ) ;
#118 = LINE ( 'NONE', #723, #382 ) ;
#119 = DIRECTION ( 'NONE',  ( 0.000000000000000000, -1.000000000000000000, 0.000000000000000000 ) ) ;
#120 = ADVANCED_FACE ( 'NONE', ( #103 ), #25, .T. ) ;
#121 = DIRECTION ( 'NONE',  ( 0.000000000000000000, 0.000000000000000000, -1.000000000000000000 ) ) ;
#122 = CARTESIAN_POINT ( 'NONE',  ( -12.50000000000000711, -15.00000000000000000, 26.00000000000000355 ) ) ;
#123 = EDGE_LOOP ( 'NONE', ( #313, #685, #69, #705, #318, #613 ) ) ;
#124 = CARTESIAN_POINT ( 'NONE',  ( -15.00000000000000000, 15.00000000000000000, 0.000000000000000000 ) ) ;
#125 = EDGE_CURVE ( 'NONE', #295, #188, #428, .T. ) ;
#126 = ORIENTED_EDGE ( 'NONE', *, *, #151, .F. ) ;
#127 = AXIS2_PLACEMENT_3D ( 'NONE', #242, #786, #446 ) ;
#128 = DIRECTION ( 'NONE',  ( 0.000000000000000000, -1.000000000000000000, 0.000000000000000000 ) ) ;
#129 = AXIS2_PLACEMENT_3D ( 'NONE', #57, #796, #455 ) ;
#130 = LINE ( 'NONE', #89, #387 ) ;
#131 = EDGE_LOOP ( 'NONE', ( #412, #748, #66, #754 ) ) ;
#132 = CARTESIAN_POINT ( 'NONE',  ( -11.19999999995077644, 15.00000000000000000, 15.69999999999999929 ) ) ;
#133 = DIRECTION ( 'NONE',  ( 0.000000000000000000, 0.000000000000000000, -1.000000000000000000 ) ) ;
#134 = ORIENTED_EDGE ( 'NONE', *, *, #162, .T. ) ;
#135 = DIRECTION ( 'NONE',  ( -0.000000000000000000, -0.000000000000000000, -1.000000000000000000 ) ) ;
#136 = ORIENTED_EDGE ( 'NONE', *, *, #827, .T. ) ;
#137 = ORIENTED_EDGE ( 'NONE', *, *, #179, .T. ) ;
#138 = VERTEX_POINT ( 'NONE', #749 ) ;
#139 = EDGE_CURVE ( 'NONE', #730, #777, #695, .T. ) ;
#140 = DIRECTION ( 'NONE',  ( 0.000000000000000000, 1.000000000000000000, -8.673617379884035472E-16 ) ) ;
#141 = LINE ( 'NONE', #474, #116 ) ;
#142 = AXIS2_PLACEMENT_3D ( 'NONE', #847, #384, #703 ) ;
#143 = VECTOR ( 'NONE', #6, 1000.000000000000000 ) ;
#144 = VECTOR ( 'NONE', #135, 1000.000000000000000 ) ;
#145 = ORIENTED_EDGE ( 'NONE', *, *, #508, .T. ) ;
#146 = FACE_OUTER_BOUND ( 'NONE', #213, .T. ) ;
#147 = VERTEX_POINT ( 'NONE', #759 ) ;
#148 = CARTESIAN_POINT ( 'NONE',  ( -11.19999999995077644, 12.99999999997680789, 13.70000000000000107 ) ) ;
#149 = EDGE_LOOP ( 'NONE', ( #343, #56 ) ) ;
#150 = CARTESIAN_POINT ( 'NONE',  ( 0.000000000000000000, 13.00000000000000000, 6.299999999999999822 ) ) ;
#151 = EDGE_CURVE ( 'NONE', #410, #157, #632, .T. ) ;
#152 = CIRCLE ( 'NONE', #783, 1.750000000000001554 ) ;
#153 = VERTEX_POINT ( 'NONE', #823 ) ;
#154 = CARTESIAN_POINT ( 'NONE',  ( 12.00000000000000000, -15.00000000000000000, 27.00000000000000000 ) ) ;
#155 = CARTESIAN_POINT ( 'NONE',  ( 0.000000000000000000, 0.000000000000000000, 6.299999999999999822 ) ) ;
#156 = AXIS2_PLACEMENT_3D ( 'NONE', #638, #755, #416 ) ;
#157 = VERTEX_POINT ( 'NONE', #93 ) ;
#158 = DIRECTION ( 'NONE',  ( 0.000000000000000000, -1.000000000000000000, 0.000000000000000000 ) ) ;
#159 = DIRECTION ( 'NONE',  ( 0.000000000000000000, -1.000000000000000000, 0.000000000000000000 ) ) ;
#160 = ORIENTED_EDGE ( 'NONE', *, *, #391, .F. ) ;
#161 = VECTOR ( 'NONE', #696, 1000.000000000000000 ) ;
#162 = EDGE_CURVE ( 'NONE', #171, #777, #603, .T. ) ;
#163 = CARTESIAN_POINT ( 'NONE',  ( 0.000000000000000000, -9.999999999999998224, 0.000000000000000000 ) ) ;
#164 = CYLINDRICAL_SURFACE ( 'NONE', #713, 2.999999999999999112 ) ;
#165 = PLANE ( 'NONE',  #543 ) ;
#166 = VERTEX_POINT ( 'NONE', #563 ) ;
#167 = VECTOR ( 'NONE', #609, 1000.000000000000000 ) ;
#168 = DIRECTION ( 'NONE',  ( 0.000000000000000000, -1.000000000000000000, 0.000000000000000000 ) ) ;
#169 = ADVANCED_FACE ( 'NONE', ( #684 ), #228, .F. ) ;
#170 = FACE_OUTER_BOUND ( 'NONE', #610, .T. ) ;
#171 = VERTEX_POINT ( 'NONE', #349 ) ;
#172 = AXIS2_PLACEMENT_3D ( 'NONE', #793, #787, #641 ) ;
#173 = DIRECTION ( 'NONE',  ( 1.000000000000000000, 0.000000000000000000, 0.000000000000000000 ) ) ;
#174 = PLANE ( 'NONE',  #28 ) ;
#175 = ORIENTED_EDGE ( 'NONE', *, *, #520, .T. ) ;
#176 = CARTESIAN_POINT ( 'NONE',  ( 12.50000000000000711, -9.999999999999998224, 27.75000000000000711 ) ) ;
#177 = FACE_BOUND ( 'NONE', #422, .T. ) ;
#178 = CIRCLE ( 'NONE', #108, 1.750000000000001554 ) ;
#179 = EDGE_CURVE ( 'NONE', #598, #166, #216, .T. ) ;
#180 = ORIENTED_EDGE ( 'NONE', *, *, #627, .T. ) ;
#181 = DIRECTION ( 'NONE',  ( 0.000000000000000000, 0.000000000000000000, -1.000000000000000000 ) ) ;
#182 = CARTESIAN_POINT ( 'NONE',  ( 5.000000000000000000, 6.123233995736766282E-16, 0.000000000000000000 ) ) ;
#183 = FACE_OUTER_BOUND ( 'NONE', #669, .T. ) ;
#184 = FACE_OUTER_BOUND ( 'NONE', #608, .T. ) ;
#185 = VECTOR ( 'NONE', #9, 1000.000000000000000 ) ;
#186 = DIRECTION ( 'NONE',  ( 0.000000000000000000, -0.000000000000000000, -1.000000000000000000 ) ) ;
#187 = CARTESIAN_POINT ( 'NONE',  ( -15.00000000000000000, -9.999999999999998224, 21.00000000000000000 ) ) ;
#188 = VERTEX_POINT ( 'NONE', #424 ) ;
#189 = EDGE_CURVE ( 'NONE', #505, #552, #31, .T. ) ;
#190 = DIRECTION ( 'NONE',  ( -1.000000000000000000, -1.156482317317871478E-16, -0.000000000000000000 ) ) ;
#191 = DIRECTION ( 'NONE',  ( 0.000000000000000000, 0.000000000000000000, 1.000000000000000000 ) ) ;
#192 = ORIENTED_EDGE ( 'NONE', *, *, #670, .F. ) ;
#193 = DIRECTION ( 'NONE',  ( 0.000000000000000000, 0.000000000000000000, -1.000000000000000000 ) ) ;
#194 = LINE ( 'NONE', #74, #516 ) ;
#195 = ORIENTED_EDGE ( 'NONE', *, *, #592, .F. ) ;
#196 = CARTESIAN_POINT ( 'NONE',  ( 11.19999999995077644, 13.00000000000000000, 4.299999999999999822 ) ) ;
#197 = AXIS2_PLACEMENT_3D ( 'NONE', #860, #525, #140 ) ;
#198 = CARTESIAN_POINT ( 'NONE',  ( 12.00000000000000000, -9.999999999999998224, 30.00000000000000000 ) ) ;
#199 = ORIENTED_EDGE ( 'NONE', *, *, #836, .T. ) ;
#200 = CARTESIAN_POINT ( 'NONE',  ( 15.00000000000000000, -15.00000000000000000, 27.00000000000000000 ) ) ;
#201 = FILL_AREA_STYLE_COLOUR ( '', #319 ) ;
#202 = EDGE_CURVE ( 'NONE', #821, #258, #3, .T. ) ;
#203 = VERTEX_POINT ( 'NONE', #182 ) ;
#204 = CARTESIAN_POINT ( 'NONE',  ( -5.000000000000000000, 0.000000000000000000, 20.00000000000000000 ) ) ;
#205 = LINE ( 'NONE', #198, #143 ) ;
#206 = ORIENTED_EDGE ( 'NONE', *, *, #818, .T. ) ;
#207 = DIRECTION ( 'NONE',  ( 1.000000000000000000, 0.000000000000000000, 0.000000000000000000 ) ) ;
#208 = VECTOR ( 'NONE', #707, 1000.000000000000000 ) ;
#209 = ORIENTED_EDGE ( 'NONE', *, *, #21, .F. ) ;
#210 = CARTESIAN_POINT ( 'NONE',  ( 15.00000000000000000, -8.999999999999998224, 20.00000000000000000 ) ) ;
#211 = EDGE_CURVE ( 'NONE', #23, #484, #276, .T. ) ;
#212 = DIRECTION ( 'NONE',  ( 0.000000000000000000, 0.000000000000000000, -1.000000000000000000 ) ) ;
#213 = EDGE_LOOP ( 'NONE', ( #19, #546, #289, #724 ) ) ;
#214 = CARTESIAN_POINT ( 'NONE',  ( 0.000000000000000000, 0.000000000000000000, 13.70000000000000107 ) ) ;
#215 = AXIS2_PLACEMENT_3D ( 'NONE', #441, #369, #640 ) ;
#216 = LINE ( 'NONE', #491, #302 ) ;
#217 = ORIENTED_EDGE ( 'NONE', *, *, #362, .F. ) ;
#218 = CARTESIAN_POINT ( 'NONE',  ( 12.50000000000000711, -15.00000000000000000, 26.00000000000000711 ) ) ;
#219 = DIRECTION ( 'NONE',  ( -1.156482317317871478E-16, -1.000000000000000000, 0.000000000000000000 ) ) ;
#220 = STYLED_ITEM ( 'NONE', ( #736 ), #54 ) ;
#221 = EDGE_CURVE ( 'NONE', #336, #561, #309, .T. ) ;
#222 = ORIENTED_EDGE ( 'NONE', *, *, #864, .F. ) ;
#223 = DIRECTION ( 'NONE',  ( 0.000000000000000000, -1.000000000000000000, 0.000000000000000000 ) ) ;
#224 = DIRECTION ( 'NONE',  ( 0.000000000000000000, 0.000000000000000000, -1.000000000000000000 ) ) ;
#225 = FACE_BOUND ( 'NONE', #735, .T. ) ;
#226 = VERTEX_POINT ( 'NONE', #451 ) ;
#227 = CARTESIAN_POINT ( 'NONE',  ( 15.00000000000000000, 15.00000000000000000, 20.00000000000000000 ) ) ;
#228 = CYLINDRICAL_SURFACE ( 'NONE', #288, 1.750000000000001554 ) ;
#229 = ORIENTED_EDGE ( 'NONE', *, *, #808, .T. ) ;
#230 = UNCERTAINTY_MEASURE_WITH_UNIT (LENGTH_MEASURE( 1.000000000000000082E-05 ), #537, 'distance_accuracy_value', 'NONE');
#231 = CYLINDRICAL_SURFACE ( 'NONE', #215, 5.000000000000000000 ) ;
#232 = LINE ( 'NONE', #433, #774 ) ;
#233 = ORIENTED_EDGE ( 'NONE', *, *, #690, .T. ) ;
#234 = CIRCLE ( 'NONE', #646, 2.000000000000000000 ) ;
#235 = DIRECTION ( 'NONE',  ( -1.000000000000000000, 0.000000000000000000, 0.000000000000000000 ) ) ;
#236 = CARTESIAN_POINT ( 'NONE',  ( -5.000000000000000000, 0.000000000000000000, 0.000000000000000000 ) ) ;
#237 = EDGE_CURVE ( 'NONE', #324, #138, #53, .T. ) ;
#238 = CIRCLE ( 'NONE', #419, 1.750000000000001554 ) ;
#239 = ORIENTED_EDGE ( 'NONE', *, *, #179, .F. ) ;
#240 = FACE_OUTER_BOUND ( 'NONE', #363, .T. ) ;
#241 = FACE_OUTER_BOUND ( 'NONE', #113, .T. ) ;
#242 = CARTESIAN_POINT ( 'NONE',  ( -12.00000000000000000, -15.00000000000000000, 27.00000000000000000 ) ) ;
#243 = DIRECTION ( 'NONE',  ( 0.000000000000000000, 0.000000000000000000, -1.000000000000000000 ) ) ;
#244 = DIRECTION ( 'NONE',  ( 0.000000000000000000, 0.000000000000000000, 1.000000000000000000 ) ) ;
#245 = AXIS2_PLACEMENT_3D ( 'NONE', #46, #308, #578 ) ;
#246 = ADVANCED_FACE ( 'NONE', ( #177, #315 ), #851, .T. ) ;
#247 = ORIENTED_EDGE ( 'NONE', *, *, #827, .F. ) ;
#248 = CIRCLE ( 'NONE', #129, 5.000000000000000000 ) ;
#249 = LINE ( 'NONE', #115, #427 ) ;
#250 = CARTESIAN_POINT ( 'NONE',  ( -11.19999999995077644, 13.00000000000000000, 15.69999999999999929 ) ) ;
#251 = AXIS2_PLACEMENT_3D ( 'NONE', #594, #263, #865 ) ;
#252 = CARTESIAN_POINT ( 'NONE',  ( 11.19999999991705408, -291580.7499999999418, 6.299999999999999822 ) ) ;
#253 = ADVANCED_FACE ( 'NONE', ( #583, #40 ), #117, .F. ) ;
#254 = VERTEX_POINT ( 'NONE', #124 ) ;
#255 = CARTESIAN_POINT ( 'NONE',  ( 11.19999999995077644, 12.99999999997680789, 6.299999999999999822 ) ) ;
#256 = ORIENTED_EDGE ( 'NONE', *, *, #831, .T. ) ;
#257 = CARTESIAN_POINT ( 'NONE',  ( -15.00000000000000000, -15.00000000000000000, 20.00000000000000000 ) ) ;
#258 = VERTEX_POINT ( 'NONE', #511 ) ;
#259 = LINE ( 'NONE', #338, #742 ) ;
#260 = ORIENTED_EDGE ( 'NONE', *, *, #37, .T. ) ;
#261 = LINE ( 'NONE', #857, #62 ) ;
#262 = ORIENTED_EDGE ( 'NONE', *, *, #643, .T. ) ;
#263 = DIRECTION ( 'NONE',  ( -1.000000000000000000, 0.000000000000000000, 0.000000000000000000 ) ) ;
#264 = DIRECTION ( 'NONE',  ( 0.000000000000000000, 0.000000000000000000, -1.000000000000000000 ) ) ;
#265 = EDGE_LOOP ( 'NONE', ( #728, #386, #817, #322, #95, #61 ) ) ;
#266 = DIRECTION ( 'NONE',  ( -0.000000000000000000, -0.000000000000000000, -1.000000000000000000 ) ) ;
#267 = CARTESIAN_POINT ( 'NONE',  ( 0.000000000000000000, 0.000000000000000000, 6.299999999999999822 ) ) ;
#268 = ADVANCED_FACE ( 'NONE', ( #370 ), #775, .F. ) ;
#269 = VERTEX_POINT ( 'NONE', #236 ) ;
#270 = PLANE ( 'NONE',  #699 ) ;
#271 = CARTESIAN_POINT ( 'NONE',  ( 0.000000000000000000, 0.000000000000000000, 20.00000000000000000 ) ) ;
#272 = EDGE_LOOP ( 'NONE', ( #693, #417, #325, #256 ) ) ;
#273 = ADVANCED_FACE ( 'NONE', ( #499 ), #721, .F. ) ;
#274 = LINE ( 'NONE', #549, #284 ) ;
#275 = DIRECTION ( 'NONE',  ( -0.000000000000000000, -1.000000000000000000, -0.000000000000000000 ) ) ;
#276 = CIRCLE ( 'NONE', #29, 1.000000000000000888 ) ;
#277 = VERTEX_POINT ( 'NONE', #442 ) ;
#278 = EDGE_CURVE ( 'NONE', #295, #328, #572, .T. ) ;
#279 = DIRECTION ( 'NONE',  ( -1.000000000000000000, 0.000000000000000000, 0.000000000000000000 ) ) ;
#280 = PLANE ( 'NONE',  #460 ) ;
#281 = ORIENTED_EDGE ( 'NONE', *, *, #7, .T. ) ;
#282 = DIRECTION ( 'NONE',  ( 0.000000000000000000, 1.000000000000000000, 0.000000000000000000 ) ) ;
#283 = CARTESIAN_POINT ( 'NONE',  ( -5.000000000000000000, 0.000000000000000000, 20.00000000000000000 ) ) ;
#284 = VECTOR ( 'NONE', #286, 1000.000000000000000 ) ;
#285 = ORIENTED_EDGE ( 'NONE', *, *, #91, .F. ) ;
#286 = DIRECTION ( 'NONE',  ( 1.156482317317871478E-16, 1.000000000000000000, 0.000000000000000000 ) ) ;
#287 = DIRECTION ( 'NONE',  ( 0.000000000000000000, -1.000000000000000000, 0.000000000000000000 ) ) ;
#288 = AXIS2_PLACEMENT_3D ( 'NONE', #830, #495, #224 ) ;
#289 = ORIENTED_EDGE ( 'NONE', *, *, #297, .F. ) ;
#290 = DIRECTION ( 'NONE',  ( -1.000000000000000000, -0.000000000000000000, -0.000000000000000000 ) ) ;
#291 = LINE ( 'NONE', #84, #487 ) ;
#292 = VERTEX_POINT ( 'NONE', #839 ) ;
#293 = CARTESIAN_POINT ( 'NONE',  ( 0.000000000000000000, 0.000000000000000000, 13.70000000000000107 ) ) ;
#294 = FACE_OUTER_BOUND ( 'NONE', #720, .T. ) ;
#295 = VERTEX_POINT ( 'NONE', #365 ) ;
#296 = CIRCLE ( 'NONE', #398, 5.000000000000000000 ) ;
#297 = EDGE_CURVE ( 'NONE', #324, #505, #234, .T. ) ;
#298 = DIRECTION ( 'NONE',  ( 0.000000000000000000, 0.000000000000000000, -1.000000000000000000 ) ) ;
#299 = CARTESIAN_POINT ( 'NONE',  ( -15.00000000000000000, -8.999999999999998224, 21.00000000000000000 ) ) ;
#300 = AXIS2_PLACEMENT_3D ( 'NONE', #773, #574, #52 ) ;
#301 = ORIENTED_EDGE ( 'NONE', *, *, #680, .T. ) ;
#302 = VECTOR ( 'NONE', #765, 1000.000000000000000 ) ;
#303 = CARTESIAN_POINT ( 'NONE',  ( -15.00000000000000000, -15.00000000000000000, 20.00000000000000000 ) ) ;
#304 = CIRCLE ( 'NONE', #534, 1.000000000000000888 ) ;
#305 = DIRECTION ( 'NONE',  ( -0.000000000000000000, -1.000000000000000000, -0.000000000000000000 ) ) ;
#306 = LINE ( 'NONE', #577, #764 ) ;
#307 = ORIENTED_EDGE ( 'NONE', *, *, #380, .T. ) ;
#308 = DIRECTION ( 'NONE',  ( 0.000000000000000000, 0.000000000000000000, 1.000000000000000000 ) ) ;
#309 = LINE ( 'NONE', #779, #208 ) ;
#310 = ADVANCED_FACE ( 'NONE', ( #294, #855 ), #107, .F. ) ;
#311 = DIRECTION ( 'NONE',  ( 1.000000000000000000, 0.000000000000000000, 0.000000000000000000 ) ) ;
#312 = APPLICATION_CONTEXT ( 'automotive_design' ) ;
#313 = ORIENTED_EDGE ( 'NONE', *, *, #848, .F. ) ;
#314 = LINE ( 'NONE', #110, #50 ) ;
#315 = FACE_OUTER_BOUND ( 'NONE', #767, .T. ) ;
#316 = LINE ( 'NONE', #252, #503 ) ;
#317 = PRODUCT_DEFINITION ( 'UNKNOWN', '', #463, #804 ) ;
#318 = ORIENTED_EDGE ( 'NONE', *, *, #391, .T. ) ;
#319 = COLOUR_RGB ( '',0.7921568627450980005, 0.8196078431372548767, 0.9333333333333333481 ) ;
#320 = DIRECTION ( 'NONE',  ( 0.000000000000000000, -1.000000000000000000, -8.673617379884035472E-16 ) ) ;
#321 = CARTESIAN_POINT ( 'NONE',  ( -15.00000000000000000, 15.00000000000000000, 4.300000000000001599 ) ) ;
#322 = ORIENTED_EDGE ( 'NONE', *, *, #87, .T. ) ;
#323 = DIRECTION ( 'NONE',  ( 0.000000000000000000, 0.000000000000000000, -1.000000000000000000 ) ) ;
#324 = VERTEX_POINT ( 'NONE', #517 ) ;
#325 = ORIENTED_EDGE ( 'NONE', *, *, #125, .T. ) ;
#326 = EDGE_CURVE ( 'NONE', #497, #484, #232, .T. ) ;
#327 = CARTESIAN_POINT ( 'NONE',  ( 11.19999999997389750, 14.99999999998635758, 13.70000000000000107 ) ) ;
#328 = VERTEX_POINT ( 'NONE', #375 ) ;
#329 = DIRECTION ( 'NONE',  ( -1.000000000000000000, 0.000000000000000000, 0.000000000000000000 ) ) ;
#330 = VECTOR ( 'NONE', #649, 1000.000000000000000 ) ;
#331 = EDGE_LOOP ( 'NONE', ( #192, #756, #459, #367 ) ) ;
#332 = CARTESIAN_POINT ( 'NONE',  ( 12.50000000000000711, -9.999999999999998224, 26.00000000000000711 ) ) ;
#333 = ADVANCED_FACE ( 'NONE', ( #241 ), #174, .T. ) ;
#334 = VECTOR ( 'NONE', #287, 1000.000000000000000 ) ;
#335 = ORIENTED_EDGE ( 'NONE', *, *, #848, .T. ) ;
#336 = VERTEX_POINT ( 'NONE', #718 ) ;
#337 = VECTOR ( 'NONE', #601, 1000.000000000000000 ) ;
#338 = CARTESIAN_POINT ( 'NONE',  ( -5.000000000000000000, 0.000000000000000000, 20.00000000000000000 ) ) ;
#339 = FACE_OUTER_BOUND ( 'NONE', #624, .T. ) ;
#340 = ADVANCED_FACE ( 'NONE', ( #379, #654 ), #270, .T. ) ;
#341 = ORIENTED_EDGE ( 'NONE', *, *, #814, .T. ) ;
#342 = CARTESIAN_POINT ( 'NONE',  ( -11.19999999991705408, -291580.7500000000582, 6.299999999999999822 ) ) ;
#343 = ORIENTED_EDGE ( 'NONE', *, *, #278, .T. ) ;
#344 = ORIENTED_EDGE ( 'NONE', *, *, #87, .F. ) ;
#345 = DIRECTION ( 'NONE',  ( 0.000000000000000000, 0.000000000000000000, -1.000000000000000000 ) ) ;
#346 = CARTESIAN_POINT ( 'NONE',  ( -12.00000000000000000, -9.999999999999998224, 27.00000000000000000 ) ) ;
#347 = VERTEX_POINT ( 'NONE', #469 ) ;
#348 = FACE_OUTER_BOUND ( 'NONE', #331, .T. ) ;
#349 = CARTESIAN_POINT ( 'NONE',  ( 12.50000000000000711, -15.00000000000000000, 27.75000000000000711 ) ) ;
#350 = ORIENTED_EDGE ( 'NONE', *, *, #565, .F. ) ;
#351 = CARTESIAN_POINT ( 'NONE',  ( -15.00000000000000000, 15.00000000000000000, 20.00000000000000000 ) ) ;
#352 = CIRCLE ( 'NONE', #94, 2.999999999999999112 ) ;
#353 = EDGE_CURVE ( 'NONE', #147, #440, #248, .T. ) ;
#354 = DIRECTION ( 'NONE',  ( -1.000000000000000000, 0.000000000000000000, 0.000000000000000000 ) ) ;
#355 = ORIENTED_EDGE ( 'NONE', *, *, #353, .T. ) ;
#356 = DIRECTION ( 'NONE',  ( 0.000000000000000000, -0.000000000000000000, -1.000000000000000000 ) ) ;
#357 = DIRECTION ( 'NONE',  ( 0.000000000000000000, 1.000000000000000000, -0.000000000000000000 ) ) ;
#358 = VECTOR ( 'NONE', #438, 1000.000000000000000 ) ;
#359 = ORIENTED_EDGE ( 'NONE', *, *, #550, .T. ) ;
#360 = LINE ( 'NONE', #106, #538 ) ;
#361 = DIRECTION ( 'NONE',  ( 0.000000000000000000, -1.000000000000000000, 0.000000000000000000 ) ) ;
#362 = EDGE_CURVE ( 'NONE', #556, #203, #675, .T. ) ;
#363 = EDGE_LOOP ( 'NONE', ( #247, #642, #614, #355 ) ) ;
#364 = DIRECTION ( 'NONE',  ( 0.000000000000000000, 0.000000000000000000, 1.000000000000000000 ) ) ;
#365 = CARTESIAN_POINT ( 'NONE',  ( -12.50000000000000711, -9.999999999999998224, 24.25000000000000000 ) ) ;
#366 = APPLICATION_CONTEXT ( 'automotive_design' ) ;
#367 = ORIENTED_EDGE ( 'NONE', *, *, #125, .F. ) ;
#368 = AXIS2_PLACEMENT_3D ( 'NONE', #163, #96, #356 ) ;
#369 = DIRECTION ( 'NONE',  ( -0.000000000000000000, -0.000000000000000000, -1.000000000000000000 ) ) ;
#370 = FACE_OUTER_BOUND ( 'NONE', #33, .T. ) ;
#371 = ORIENTED_EDGE ( 'NONE', *, *, #750, .F. ) ;
#372 = VECTOR ( 'NONE', #128, 1000.000000000000000 ) ;
#373 = CARTESIAN_POINT ( 'NONE',  ( -15.00000000000000000, 15.00000000000000000, 0.000000000000000000 ) ) ;
#374 = EDGE_CURVE ( 'NONE', #760, #410, #757, .T. ) ;
#375 = CARTESIAN_POINT ( 'NONE',  ( -12.50000000000000711, -9.999999999999998224, 27.75000000000000355 ) ) ;
#376 =( GEOMETRIC_REPRESENTATION_CONTEXT ( 3 ) GLOBAL_UNCERTAINTY_ASSIGNED_CONTEXT ( ( #762 ) ) GLOBAL_UNIT_ASSIGNED_CONTEXT ( ( #518, #452, #49 ) ) REPRESENTATION_CONTEXT ( 'NONE', 'WORKASPACE' ) );
#377 = CARTESIAN_POINT ( 'NONE',  ( 0.000000000000000000, 0.000000000000000000, 0.000000000000000000 ) ) ;
#378 = CARTESIAN_POINT ( 'NONE',  ( -15.00000000000000000, -15.00000000000000000, 0.000000000000000000 ) ) ;
#379 = FACE_OUTER_BOUND ( 'NONE', #564, .T. ) ;
#380 = EDGE_CURVE ( 'NONE', #730, #708, #727, .T. ) ;
#381 = DIRECTION ( 'NONE',  ( 0.000000000000000000, 0.000000000000000000, -1.000000000000000000 ) ) ;
#382 = VECTOR ( 'NONE', #449, 1000.000000000000000 ) ;
#383 = ORIENTED_EDGE ( 'NONE', *, *, #565, .T. ) ;
#384 = DIRECTION ( 'NONE',  ( 0.000000000000000000, -1.000000000000000000, 0.000000000000000000 ) ) ;
#385 = CARTESIAN_POINT ( 'NONE',  ( 15.00000000000000000, -9.999999999999998224, 27.00000000000000000 ) ) ;
#386 = ORIENTED_EDGE ( 'NONE', *, *, #790, .T. ) ;
#387 = VECTOR ( 'NONE', #212, 1000.000000000000000 ) ;
#388 = LINE ( 'NONE', #200, #372 ) ;
#389 = ORIENTED_EDGE ( 'NONE', *, *, #737, .T. ) ;
#390 = DIRECTION ( 'NONE',  ( 0.000000000000000000, 0.000000000000000000, 1.000000000000000000 ) ) ;
#391 = EDGE_CURVE ( 'NONE', #258, #760, #589, .T. ) ;
#392 = ORIENTED_EDGE ( 'NONE', *, *, #831, .F. ) ;
#393 = CARTESIAN_POINT ( 'NONE',  ( 0.000000000000000000, 0.000000000000000000, 0.000000000000000000 ) ) ;
#394 = CARTESIAN_POINT ( 'NONE',  ( -12.00000000000000000, -15.00000000000000000, 30.00000000000000000 ) ) ;
#395 = EDGE_CURVE ( 'NONE', #157, #138, #85, .T. ) ;
#396 = ORIENTED_EDGE ( 'NONE', *, *, #709, .T. ) ;
#397 = CARTESIAN_POINT ( 'NONE',  ( -5.000000000000000000, 0.000000000000000000, 6.299999999999999822 ) ) ;
#398 = AXIS2_PLACEMENT_3D ( 'NONE', #214, #345, #279 ) ;
#399 = EDGE_LOOP ( 'NONE', ( #478, #222 ) ) ;
#400 = AXIS2_PLACEMENT_3D ( 'NONE', #112, #243, #650 ) ;
#401 = CYLINDRICAL_SURFACE ( 'NONE', #838, 2.000000000000000000 ) ;
#402 = AXIS2_PLACEMENT_3D ( 'NONE', #271, #408, #679 ) ;
#403 = EDGE_CURVE ( 'NONE', #861, #454, #388, .T. ) ;
#404 = AXIS2_PLACEMENT_3D ( 'NONE', #800, #133, #456 ) ;
#405 = AXIS2_PLACEMENT_3D ( 'NONE', #68, #661, #671 ) ;
#406 = ORIENTED_EDGE ( 'NONE', *, *, #114, .F. ) ;
#407 = CARTESIAN_POINT ( 'NONE',  ( 5.000000000000000000, 6.123233995736766282E-16, 13.70000000000000107 ) ) ;
#408 = DIRECTION ( 'NONE',  ( -0.000000000000000000, -0.000000000000000000, -1.000000000000000000 ) ) ;
#409 = EDGE_CURVE ( 'NONE', #258, #324, #665, .T. ) ;
#410 = VERTEX_POINT ( 'NONE', #255 ) ;
#411 = CARTESIAN_POINT ( 'NONE',  ( 15.00000000000000000, -15.00000000000000000, 20.00000000000000000 ) ) ;
#412 = ORIENTED_EDGE ( 'NONE', *, *, #211, .F. ) ;
#413 = DIRECTION ( 'NONE',  ( 0.000000000000000000, 0.000000000000000000, -1.000000000000000000 ) ) ;
#414 = ORIENTED_EDGE ( 'NONE', *, *, #11, .F. ) ;
#415 = FACE_OUTER_BOUND ( 'NONE', #648, .T. ) ;
#416 = DIRECTION ( 'NONE',  ( 0.000000000000000000, -1.000000000000000000, 1.734723475976807094E-15 ) ) ;
#417 = ORIENTED_EDGE ( 'NONE', *, *, #278, .F. ) ;
#418 = ADVANCED_FACE ( 'NONE', ( #461 ), #734, .F. ) ;
#419 = AXIS2_PLACEMENT_3D ( 'NONE', #122, #55, #381 ) ;
#420 = DIRECTION ( 'NONE',  ( -0.000000000000000000, -0.000000000000000000, -1.000000000000000000 ) ) ;
#421 = CARTESIAN_POINT ( 'NONE',  ( 12.50000000000000711, -15.00000000000000000, 26.00000000000000711 ) ) ;
#422 = EDGE_LOOP ( 'NONE', ( #467, #195 ) ) ;
#423 = DIRECTION ( 'NONE',  ( 0.000000000000000000, 0.000000000000000000, -1.000000000000000000 ) ) ;
#424 = CARTESIAN_POINT ( 'NONE',  ( -12.50000000000000711, -15.00000000000000000, 24.25000000000000000 ) ) ;
#425 = ORIENTED_EDGE ( 'NONE', *, *, #374, .F. ) ;
#426 = PLANE ( 'NONE',  #673 ) ;
#427 = VECTOR ( 'NONE', #850, 1000.000000000000000 ) ;
#428 = LINE ( 'NONE', #486, #334 ) ;
#429 = EDGE_CURVE ( 'NONE', #464, #269, #599, .T. ) ;
#430 = VECTOR ( 'NONE', #623, 1000.000000000000000 ) ;
#431 = EDGE_LOOP ( 'NONE', ( #587, #701, #229, #160 ) ) ;
#432 = CARTESIAN_POINT ( 'NONE',  ( 0.000000000000000000, 0.000000000000000000, 13.70000000000000107 ) ) ;
#433 = CARTESIAN_POINT ( 'NONE',  ( -15.00000000000000000, -15.00000000000000000, 20.00000000000000000 ) ) ;
#434 = ADVANCED_FACE ( 'NONE', ( #521 ), #868, .F. ) ;
#435 = ORIENTED_EDGE ( 'NONE', *, *, #429, .F. ) ;
#436 = PLANE ( 'NONE',  #772 ) ;
#437 = CIRCLE ( 'NONE', #67, 11.19999999999999751 ) ;
#438 = DIRECTION ( 'NONE',  ( 0.000000000000000000, 0.000000000000000000, -1.000000000000000000 ) ) ;
#439 = PRODUCT ( 'BearingHolder', 'BearingHolder', '', ( #596 ) ) ;
#440 = VERTEX_POINT ( 'NONE', #407 ) ;
#441 = CARTESIAN_POINT ( 'NONE',  ( 0.000000000000000000, 0.000000000000000000, 20.00000000000000000 ) ) ;
#442 = CARTESIAN_POINT ( 'NONE',  ( -11.19999999999999751, 0.000000000000000000, 6.299999999999999822 ) ) ;
#443 = DIRECTION ( 'NONE',  ( 1.000000000000000000, 0.000000000000000000, 0.000000000000000000 ) ) ;
#444 = AXIS2_PLACEMENT_3D ( 'NONE', #346, #834, #413 ) ;
#445 = EDGE_CURVE ( 'NONE', #166, #23, #71, .T. ) ;
#446 = DIRECTION ( 'NONE',  ( 0.000000000000000000, 0.000000000000000000, 1.000000000000000000 ) ) ;
#447 = AXIS2_PLACEMENT_3D ( 'NONE', #377, #667, #523 ) ;
#448 = DIRECTION ( 'NONE',  ( -1.156482317317871478E-16, 1.000000000000000000, 0.000000000000000000 ) ) ;
#449 = DIRECTION ( 'NONE',  ( -1.000000000000000000, -0.000000000000000000, -0.000000000000000000 ) ) ;
#450 = EDGE_LOOP ( 'NONE', ( #4, #206, #180, #780, #175, #262, #27 ) ) ;
#451 = CARTESIAN_POINT ( 'NONE',  ( 5.000000000000000000, 6.123233995736766282E-16, 20.00000000000000000 ) ) ;
#452 =( NAMED_UNIT ( * ) PLANE_ANGLE_UNIT ( ) SI_UNIT ( $, .RADIAN. ) );
#453 = VECTOR ( 'NONE', #81, 1000.000000000000000 ) ;
#454 = VERTEX_POINT ( 'NONE', #604 ) ;
#455 = DIRECTION ( 'NONE',  ( -1.000000000000000000, 0.000000000000000000, 0.000000000000000000 ) ) ;
#456 = DIRECTION ( 'NONE',  ( -1.000000000000000000, 0.000000000000000000, 0.000000000000000000 ) ) ;
#457 = EDGE_CURVE ( 'NONE', #82, #147, #259, .T. ) ;
#458 = DIRECTION ( 'NONE',  ( 0.000000000000000000, -0.000000000000000000, 1.000000000000000000 ) ) ;
#459 = ORIENTED_EDGE ( 'NONE', *, *, #114, .T. ) ;
#460 = AXIS2_PLACEMENT_3D ( 'NONE', #554, #618, #826 ) ;
#461 = FACE_OUTER_BOUND ( 'NONE', #652, .T. ) ;
#462 = SURFACE_SIDE_STYLE ('',( #64 ) ) ;
#463 = PRODUCT_DEFINITION_FORMATION_WITH_SPECIFIED_SOURCE ( 'ANY', '', #439, .NOT_KNOWN. ) ;
#464 = VERTEX_POINT ( 'NONE', #397 ) ;
#465 = DIRECTION ( 'NONE',  ( -0.000000000000000000, -0.000000000000000000, -1.000000000000000000 ) ) ;
#466 = SURFACE_STYLE_USAGE ( .BOTH. , #462 ) ;
#467 = ORIENTED_EDGE ( 'NONE', *, *, #353, .F. ) ;
#468 = ADVANCED_FACE ( 'NONE', ( #739 ), #5, .F. ) ;
#469 = CARTESIAN_POINT ( 'NONE',  ( 11.19999999999999751, 1.371604415045035316E-15, 13.70000000000000107 ) ) ;
#470 = ORIENTED_EDGE ( 'NONE', *, *, #750, .T. ) ;
#471 = EDGE_CURVE ( 'NONE', #497, #254, #536, .T. ) ;
#472 = VECTOR ( 'NONE', #805, 1000.000000000000000 ) ;
#473 = DIRECTION ( 'NONE',  ( -1.000000000000000000, 0.000000000000000000, 0.000000000000000000 ) ) ;
#474 = CARTESIAN_POINT ( 'NONE',  ( -12.50000000000000711, -9.999999999999998224, 27.75000000000000355 ) ) ;
#475 = EDGE_LOOP ( 'NONE', ( #414, #137, #501, #677, #514, #798, #260 ) ) ;
#476 = LINE ( 'NONE', #411, #656 ) ;
#477 = DIRECTION ( 'NONE',  ( -1.000000000000000000, 1.156482317317871478E-16, 0.000000000000000000 ) ) ;
#478 = ORIENTED_EDGE ( 'NONE', *, *, #690, .F. ) ;
#479 = FACE_BOUND ( 'NONE', #149, .T. ) ;
#480 = EDGE_LOOP ( 'NONE', ( #519, #809 ) ) ;
#481 = CIRCLE ( 'NONE', #597, 1.750000000000001554 ) ;
#482 = DIRECTION ( 'NONE',  ( -1.000000000000000000, 0.000000000000000000, 0.000000000000000000 ) ) ;
#483 = ADVANCED_FACE ( 'NONE', ( #146 ), #401, .T. ) ;
#484 = VERTEX_POINT ( 'NONE', #92 ) ;
#485 = CARTESIAN_POINT ( 'NONE',  ( -11.19999999999999751, 0.000000000000000000, 13.70000000000000107 ) ) ;
#486 = CARTESIAN_POINT ( 'NONE',  ( -12.50000000000000711, -9.999999999999998224, 24.25000000000000000 ) ) ;
#487 = VECTOR ( 'NONE', #688, 1000.000000000000000 ) ;
#488 = AXIS2_PLACEMENT_3D ( 'NONE', #651, #191, #443 ) ;
#489 = ORIENTED_EDGE ( 'NONE', *, *, #808, .F. ) ;
#490 = CARTESIAN_POINT ( 'NONE',  ( -12.00000000000000000, -9.999999999999998224, 30.00000000000000000 ) ) ;
#491 = CARTESIAN_POINT ( 'NONE',  ( -15.00000000000000000, -9.999999999999998224, 27.00000000000000000 ) ) ;
#492 = EDGE_LOOP ( 'NONE', ( #859, #45, #733, #109 ) ) ;
#493 = EDGE_CURVE ( 'NONE', #484, #336, #694, .T. ) ;
#494 = CARTESIAN_POINT ( 'NONE',  ( 15.00000000000000000, 15.00000000000000000, 20.00000000000000000 ) ) ;
#495 = DIRECTION ( 'NONE',  ( 0.000000000000000000, -1.000000000000000000, 0.000000000000000000 ) ) ;
#496 = AXIS2_PLACEMENT_3D ( 'NONE', #729, #266, #473 ) ;
#497 = VERTEX_POINT ( 'NONE', #351 ) ;
#498 = DIRECTION ( 'NONE',  ( 1.000000000000000000, 0.000000000000000000, 0.000000000000000000 ) ) ;
#499 = FACE_OUTER_BOUND ( 'NONE', #272, .T. ) ;
#500 = AXIS2_PLACEMENT_3D ( 'NONE', #22, #700, #547 ) ;
#501 = ORIENTED_EDGE ( 'NONE', *, *, #445, .T. ) ;
#502 = DIRECTION ( 'NONE',  ( 0.000000000000000000, 0.000000000000000000, 1.000000000000000000 ) ) ;
#503 = VECTOR ( 'NONE', #852, 1000.000000000000000 ) ;
#504 = DIRECTION ( 'NONE',  ( 0.000000000000000000, -1.000000000000000000, 0.000000000000000000 ) ) ;
#505 = VERTEX_POINT ( 'NONE', #148 ) ;
#506 = DIRECTION ( 'NONE',  ( 0.000000000000000000, 0.000000000000000000, -1.000000000000000000 ) ) ;
#507 = CARTESIAN_POINT ( 'NONE',  ( -11.19999999991705408, -291580.7500000000582, 13.70000000000000107 ) ) ;
#508 = EDGE_CURVE ( 'NONE', #99, #8, #747, .T. ) ;
#509 = AXIS2_PLACEMENT_3D ( 'NONE', #819, #622, #630 ) ;
#510 = DIRECTION ( 'NONE',  ( 0.000000000000000000, 0.000000000000000000, -1.000000000000000000 ) ) ;
#511 = CARTESIAN_POINT ( 'NONE',  ( 11.19999999997389750, 14.99999999998635758, 15.69999999999999929 ) ) ;
#512 = DIRECTION ( 'NONE',  ( -0.000000000000000000, -0.000000000000000000, -1.000000000000000000 ) ) ;
#513 =( GEOMETRIC_REPRESENTATION_CONTEXT ( 3 ) GLOBAL_UNCERTAINTY_ASSIGNED_CONTEXT ( ( #230 ) ) GLOBAL_UNIT_ASSIGNED_CONTEXT ( ( #537, #740, #14 ) ) REPRESENTATION_CONTEXT ( 'NONE', 'WORKASPACE' ) );
#514 = ORIENTED_EDGE ( 'NONE', *, *, #326, .F. ) ;
#515 = CARTESIAN_POINT ( 'NONE',  ( 11.19999999997389750, 14.99999999998635758, 4.299999999999999822 ) ) ;
#516 = VECTOR ( 'NONE', #606, 1000.000000000000000 ) ;
#517 = CARTESIAN_POINT ( 'NONE',  ( -11.19999999995077644, 15.00000000000000000, 15.69999999999999929 ) ) ;
#518 =( LENGTH_UNIT ( ) NAMED_UNIT ( * ) SI_UNIT ( .MILLI., .METRE. ) );
#519 = ORIENTED_EDGE ( 'NONE', *, *, #615, .F. ) ;
#520 = EDGE_CURVE ( 'NONE', #454, #36, #476, .T. ) ;
#521 = FACE_OUTER_BOUND ( 'NONE', #131, .T. ) ;
#522 = ORIENTED_EDGE ( 'NONE', *, *, #555, .T. ) ;
#523 = DIRECTION ( 'NONE',  ( 1.000000000000000000, 0.000000000000000000, 0.000000000000000000 ) ) ;
#524 = ORIENTED_EDGE ( 'NONE', *, *, #744, .T. ) ;
#525 = DIRECTION ( 'NONE',  ( -1.000000000000000000, -1.156482317317871478E-16, -0.000000000000000000 ) ) ;
#526 = VERTEX_POINT ( 'NONE', #24 ) ;
#527 = CARTESIAN_POINT ( 'NONE',  ( 11.19999999999999751, 1.371604415045035316E-15, 6.299999999999999822 ) ) ;
#528 = VERTEX_POINT ( 'NONE', #490 ) ;
#529 = VECTOR ( 'NONE', #354, 1000.000000000000000 ) ;
#530 = DIRECTION ( 'NONE',  ( -1.000000000000000000, 0.000000000000000000, -0.000000000000000000 ) ) ;
#531 = CARTESIAN_POINT ( 'NONE',  ( 15.00000000000000000, -15.00000000000000000, 0.000000000000000000 ) ) ;
#532 = SHAPE_DEFINITION_REPRESENTATION ( #844, #810 ) ;
#533 = EDGE_CURVE ( 'NONE', #347, #821, #274, .T. ) ;
#534 = AXIS2_PLACEMENT_3D ( 'NONE', #2, #329, #244 ) ;
#535 = ORIENTED_EDGE ( 'NONE', *, *, #737, .F. ) ;
#536 = LINE ( 'NONE', #811, #167 ) ;
#537 =( LENGTH_UNIT ( ) NAMED_UNIT ( * ) SI_UNIT ( .MILLI., .METRE. ) );
#538 = VECTOR ( 'NONE', #792, 1000.000000000000000 ) ;
#539 = ORIENTED_EDGE ( 'NONE', *, *, #801, .F. ) ;
#540 = DIRECTION ( 'NONE',  ( 0.000000000000000000, -1.000000000000000000, 0.000000000000000000 ) ) ;
#541 = ORIENTED_EDGE ( 'NONE', *, *, #73, .T. ) ;
#542 = VERTEX_POINT ( 'NONE', #691 ) ;
#543 = AXIS2_PLACEMENT_3D ( 'NONE', #257, #584, #458 ) ;
#544 = AXIS2_PLACEMENT_3D ( 'NONE', #843, #571, #712 ) ;
#545 = FACE_BOUND ( 'NONE', #569, .T. ) ;
#546 = ORIENTED_EDGE ( 'NONE', *, *, #776, .F. ) ;
#547 = DIRECTION ( 'NONE',  ( 0.000000000000000000, 0.000000000000000000, -1.000000000000000000 ) ) ;
#548 = ORIENTED_EDGE ( 'NONE', *, *, #580, .T. ) ;
#549 = CARTESIAN_POINT ( 'NONE',  ( 11.19999999991705408, -291580.7499999999418, 13.70000000000000107 ) ) ;
#550 = EDGE_CURVE ( 'NONE', #157, #277, #833, .T. ) ;
#551 = CARTESIAN_POINT ( 'NONE',  ( -12.00000000000000000, -9.999999999999998224, 27.00000000000000000 ) ) ;
#552 = VERTEX_POINT ( 'NONE', #485 ) ;
#553 = DIRECTION ( 'NONE',  ( 0.000000000000000000, 0.000000000000000000, 1.000000000000000000 ) ) ;
#554 = CARTESIAN_POINT ( 'NONE',  ( 15.00000000000000000, -15.00000000000000000, 20.00000000000000000 ) ) ;
#555 = EDGE_CURVE ( 'NONE', #561, #542, #758, .T. ) ;
#556 = VERTEX_POINT ( 'NONE', #557 ) ;
#557 = CARTESIAN_POINT ( 'NONE',  ( 5.000000000000000000, 6.123233995736766282E-16, 6.299999999999999822 ) ) ;
#558 = DIRECTION ( 'NONE',  ( 0.000000000000000000, 0.000000000000000000, -1.000000000000000000 ) ) ;
#559 = MECHANICAL_DESIGN_GEOMETRIC_PRESENTATION_REPRESENTATION (  '', ( #220 ), #513 ) ;
#560 = ADVANCED_FACE ( 'NONE', ( #348 ), #612, .F. ) ;
#561 = VERTEX_POINT ( 'NONE', #494 ) ;
#562 = DIRECTION ( 'NONE',  ( 0.000000000000000000, 0.000000000000000000, -1.000000000000000000 ) ) ;
#563 = CARTESIAN_POINT ( 'NONE',  ( -15.00000000000000000, -9.999999999999998224, 27.00000000000000000 ) ) ;
#564 = EDGE_LOOP ( 'NONE', ( #76, #636, #681, #535 ) ) ;
#565 = EDGE_CURVE ( 'NONE', #708, #730, #152, .T. ) ;
#566 = AXIS2_PLACEMENT_3D ( 'NONE', #710, #502, #498 ) ;
#567 = CARTESIAN_POINT ( 'NONE',  ( -15.00000000000000000, -9.999999999999998224, 30.00000000000000000 ) ) ;
#568 = CARTESIAN_POINT ( 'NONE',  ( -15.00000000000000000, 15.00000000000000000, 20.00000000000000000 ) ) ;
#569 = EDGE_LOOP ( 'NONE', ( #629, #620 ) ) ;
#570 = FACE_OUTER_BOUND ( 'NONE', #660, .T. ) ;
#571 = DIRECTION ( 'NONE',  ( 0.000000000000000000, 0.000000000000000000, -1.000000000000000000 ) ) ;
#572 = CIRCLE ( 'NONE', #631, 1.750000000000001554 ) ;
#573 = VERTEX_POINT ( 'NONE', #683 ) ;
#574 = DIRECTION ( 'NONE',  ( -0.000000000000000000, 1.000000000000000000, -0.000000000000000000 ) ) ;
#575 = DIRECTION ( 'NONE',  ( 0.000000000000000000, 0.000000000000000000, -1.000000000000000000 ) ) ;
#576 = ADVANCED_FACE ( 'NONE', ( #829, #479, #617 ), #678, .F. ) ;
#577 = CARTESIAN_POINT ( 'NONE',  ( 11.19999999997389750, 13.00000000000000000, 13.70000000000000107 ) ) ;
#578 = DIRECTION ( 'NONE',  ( 1.000000000000000000, 0.000000000000000000, 0.000000000000000000 ) ) ;
#579 = CARTESIAN_POINT ( 'NONE',  ( -11.19999999995077644, 14.99999999998635758, 13.70000000000000107 ) ) ;
#580 = EDGE_CURVE ( 'NONE', #708, #171, #83, .T. ) ;
#581 = ORIENTED_EDGE ( 'NONE', *, *, #633, .F. ) ;
#582 = DIRECTION ( 'NONE',  ( 0.000000000000000000, 0.000000000000000000, -1.000000000000000000 ) ) ;
#583 = FACE_OUTER_BOUND ( 'NONE', #492, .T. ) ;
#584 = DIRECTION ( 'NONE',  ( 0.000000000000000000, 1.000000000000000000, 0.000000000000000000 ) ) ;
#585 = AXIS2_PLACEMENT_3D ( 'NONE', #421, #159, #558 ) ;
#586 = ADVANCED_FACE ( 'NONE', ( #545, #415 ), #13, .F. ) ;
#587 = ORIENTED_EDGE ( 'NONE', *, *, #409, .T. ) ;
#588 = VECTOR ( 'NONE', #275, 1000.000000000000000 ) ;
#589 = LINE ( 'NONE', #327, #58 ) ;
#590 = ORIENTED_EDGE ( 'NONE', *, *, #615, .T. ) ;
#591 = DIRECTION ( 'NONE',  ( 0.000000000000000000, 0.000000000000000000, -1.000000000000000000 ) ) ;
#592 = EDGE_CURVE ( 'NONE', #440, #147, #296, .T. ) ;
#593 = ORIENTED_EDGE ( 'NONE', *, *, #592, .T. ) ;
#594 = CARTESIAN_POINT ( 'NONE',  ( 0.000000000000000000, -8.999999999999998224, 21.00000000000000000 ) ) ;
#595 = ORIENTED_EDGE ( 'NONE', *, *, #508, .F. ) ;
#596 = PRODUCT_CONTEXT ( 'NONE', #312, 'mechanical' ) ;
#597 = AXIS2_PLACEMENT_3D ( 'NONE', #218, #158, #298 ) ;
#598 = VERTEX_POINT ( 'NONE', #753 ) ;
#599 = LINE ( 'NONE', #204, #144 ) ;
#600 = ORIENTED_EDGE ( 'NONE', *, *, #761, .T. ) ;
#601 = DIRECTION ( 'NONE',  ( -1.000000000000000000, -0.000000000000000000, 0.000000000000000000 ) ) ;
#602 = ORIENTED_EDGE ( 'NONE', *, *, #380, .F. ) ;
#603 = CIRCLE ( 'NONE', #585, 1.750000000000001554 ) ;
#604 = CARTESIAN_POINT ( 'NONE',  ( 15.00000000000000000, -15.00000000000000000, 27.00000000000000000 ) ) ;
#605 = CIRCLE ( 'NONE', #488, 5.000000000000000000 ) ;
#606 = DIRECTION ( 'NONE',  ( -0.000000000000000000, -0.000000000000000000, -1.000000000000000000 ) ) ;
#607 = ADVANCED_FACE ( 'NONE', ( #30 ), #20, .T. ) ;
#608 = EDGE_LOOP ( 'NONE', ( #425, #489, #611, #126 ) ) ;
#609 = DIRECTION ( 'NONE',  ( -0.000000000000000000, -0.000000000000000000, -1.000000000000000000 ) ) ;
#610 = EDGE_LOOP ( 'NONE', ( #344, #239, #371, #751 ) ) ;
#611 = ORIENTED_EDGE ( 'NONE', *, *, #395, .F. ) ;
#612 = CYLINDRICAL_SURFACE ( 'NONE', #682, 1.750000000000001554 ) ;
#613 = ORIENTED_EDGE ( 'NONE', *, *, #374, .T. ) ;
#614 = ORIENTED_EDGE ( 'NONE', *, *, #457, .T. ) ;
#615 = EDGE_CURVE ( 'NONE', #777, #171, #481, .T. ) ;
#616 = AXIS2_PLACEMENT_3D ( 'NONE', #196, #725, #320 ) ;
#617 = FACE_OUTER_BOUND ( 'NONE', #265, .T. ) ;
#618 = DIRECTION ( 'NONE',  ( -1.000000000000000000, 0.000000000000000000, 0.000000000000000000 ) ) ;
#619 = VECTOR ( 'NONE', #512, 1000.000000000000000 ) ;
#620 = ORIENTED_EDGE ( 'NONE', *, *, #91, .T. ) ;
#621 = ADVANCED_FACE ( 'NONE', ( #570 ), #841, .F. ) ;
#622 = DIRECTION ( 'NONE',  ( 0.000000000000000000, 0.000000000000000000, -1.000000000000000000 ) ) ;
#623 = DIRECTION ( 'NONE',  ( 1.156482317317871478E-16, -1.000000000000000000, 0.000000000000000000 ) ) ;
#624 = EDGE_LOOP ( 'NONE', ( #285, #853, #746, #435 ) ) ;
#625 = CARTESIAN_POINT ( 'NONE',  ( -15.00000000000000000, -15.00000000000000000, 30.00000000000000000 ) ) ;
#626 = CARTESIAN_POINT ( 'NONE',  ( 12.50000000000000711, -9.999999999999998224, 24.25000000000000355 ) ) ;
#627 = EDGE_CURVE ( 'NONE', #526, #861, #314, .T. ) ;
#628 = FACE_BOUND ( 'NONE', #480, .T. ) ;
#629 = ORIENTED_EDGE ( 'NONE', *, *, #32, .T. ) ;
#630 = DIRECTION ( 'NONE',  ( -1.000000000000000000, 0.000000000000000000, -0.000000000000000000 ) ) ;
#631 = AXIS2_PLACEMENT_3D ( 'NONE', #658, #504, #121 ) ;
#632 = LINE ( 'NONE', #150, #529 ) ;
#633 = EDGE_CURVE ( 'NONE', #454, #99, #352, .T. ) ;
#634 = CIRCLE ( 'NONE', #102, 5.000000000000000000 ) ;
#635 = VECTOR ( 'NONE', #465, 1000.000000000000000 ) ;
#636 = ORIENTED_EDGE ( 'NONE', *, *, #761, .F. ) ;
#637 = LINE ( 'NONE', #373, #330 ) ;
#638 = CARTESIAN_POINT ( 'NONE',  ( 11.19999999995077644, 13.00000000000000000, 15.69999999999999929 ) ) ;
#639 = ORIENTED_EDGE ( 'NONE', *, *, #633, .T. ) ;
#640 = DIRECTION ( 'NONE',  ( -1.000000000000000000, 0.000000000000000000, 0.000000000000000000 ) ) ;
#641 = DIRECTION ( 'NONE',  ( -1.000000000000000000, 0.000000000000000000, 0.000000000000000000 ) ) ;
#642 = ORIENTED_EDGE ( 'NONE', *, *, #864, .T. ) ;
#643 = EDGE_CURVE ( 'NONE', #36, #542, #360, .T. ) ;
#644 = DIRECTION ( 'NONE',  ( 0.000000000000000000, 0.000000000000000000, 1.000000000000000000 ) ) ;
#645 = DIRECTION ( 'NONE',  ( 0.000000000000000000, 1.000000000000000000, 0.000000000000000000 ) ) ;
#646 = AXIS2_PLACEMENT_3D ( 'NONE', #250, #190, #645 ) ;
#647 = VECTOR ( 'NONE', #719, 1000.000000000000000 ) ;
#648 = EDGE_LOOP ( 'NONE', ( #335, #866, #359, #657 ) ) ;
#649 = DIRECTION ( 'NONE',  ( -1.000000000000000000, -0.000000000000000000, -0.000000000000000000 ) ) ;
#650 = DIRECTION ( 'NONE',  ( -1.000000000000000000, 0.000000000000000000, -0.000000000000000000 ) ) ;
#651 = CARTESIAN_POINT ( 'NONE',  ( 0.000000000000000000, 0.000000000000000000, 20.00000000000000000 ) ) ;
#652 = EDGE_LOOP ( 'NONE', ( #745, #602, #824, #590 ) ) ;
#653 = DIRECTION ( 'NONE',  ( 0.000000000000000000, 0.000000000000000000, 1.000000000000000000 ) ) ;
#654 = FACE_BOUND ( 'NONE', #832, .T. ) ;
#655 = ADVANCED_FACE ( 'NONE', ( #240 ), #231, .F. ) ;
#656 = VECTOR ( 'NONE', #88, 1000.000000000000000 ) ;
#657 = ORIENTED_EDGE ( 'NONE', *, *, #7, .F. ) ;
#658 = CARTESIAN_POINT ( 'NONE',  ( -12.50000000000000711, -9.999999999999998224, 26.00000000000000355 ) ) ;
#659 = PRODUCT_RELATED_PRODUCT_CATEGORY ( 'part', '', ( #439 ) ) ;
#660 = EDGE_LOOP ( 'NONE', ( #281, #738, #105, #541 ) ) ;
#661 = DIRECTION ( 'NONE',  ( 0.000000000000000000, -1.000000000000000000, 0.000000000000000000 ) ) ;
#662 = CARTESIAN_POINT ( 'NONE',  ( -15.00000000000000000, -15.00000000000000000, 0.000000000000000000 ) ) ;
#663 = APPLICATION_PROTOCOL_DEFINITION ( 'draft international standard', 'automotive_design', 1998, #312 ) ;
#664 = ORIENTED_EDGE ( 'NONE', *, *, #297, .T. ) ;
#665 = LINE ( 'NONE', #132, #185 ) ;
#666 = ORIENTED_EDGE ( 'NONE', *, *, #550, .F. ) ;
#667 = DIRECTION ( 'NONE',  ( 0.000000000000000000, 0.000000000000000000, 1.000000000000000000 ) ) ;
#668 = VECTOR ( 'NONE', #822, 1000.000000000000000 ) ;
#669 = EDGE_LOOP ( 'NONE', ( #70, #639, #145, #470, #674, #600 ) ) ;
#670 = EDGE_CURVE ( 'NONE', #328, #295, #178, .T. ) ;
#671 = DIRECTION ( 'NONE',  ( 0.000000000000000000, 0.000000000000000000, -1.000000000000000000 ) ) ;
#672 = DIRECTION ( 'NONE',  ( 0.000000000000000000, -1.000000000000000000, 0.000000000000000000 ) ) ;
#673 = AXIS2_PLACEMENT_3D ( 'NONE', #567, #837, #173 ) ;
#674 = ORIENTED_EDGE ( 'NONE', *, *, #11, .T. ) ;
#675 = LINE ( 'NONE', #743, #472 ) ;
#676 = CLOSED_SHELL ( 'NONE', ( #169, #560, #60, #468, #310, #655, #253, #340, #98, #732, #785, #268, #120, #333, #621, #246, #586, #717, #576, #273, #418, #607, #104, #434, #483, #722 ) ) ;
#677 = ORIENTED_EDGE ( 'NONE', *, *, #211, .T. ) ;
#678 = PLANE ( 'NONE',  #368 ) ;
#679 = DIRECTION ( 'NONE',  ( -1.000000000000000000, 0.000000000000000000, 0.000000000000000000 ) ) ;
#680 = EDGE_CURVE ( 'NONE', #347, #552, #437, .T. ) ;
#681 = ORIENTED_EDGE ( 'NONE', *, *, #37, .F. ) ;
#682 = AXIS2_PLACEMENT_3D ( 'NONE', #687, #168, #562 ) ;
#683 = CARTESIAN_POINT ( 'NONE',  ( -15.00000000000000000, -15.00000000000000000, 0.000000000000000000 ) ) ;
#684 = FACE_OUTER_BOUND ( 'NONE', #803, .T. ) ;
#685 = ORIENTED_EDGE ( 'NONE', *, *, #73, .F. ) ;
#686 = VECTOR ( 'NONE', #361, 1000.000000000000000 ) ;
#687 = CARTESIAN_POINT ( 'NONE',  ( -12.50000000000000711, -9.999999999999998224, 26.00000000000000355 ) ) ;
#688 = DIRECTION ( 'NONE',  ( 0.000000000000000000, -1.000000000000000000, 0.000000000000000000 ) ) ;
#689 = ORIENTED_EDGE ( 'NONE', *, *, #21, .T. ) ;
#690 = EDGE_CURVE ( 'NONE', #82, #226, #862, .T. ) ;
#691 = CARTESIAN_POINT ( 'NONE',  ( 15.00000000000000000, 15.00000000000000000, 0.000000000000000000 ) ) ;
#692 = CARTESIAN_POINT ( 'NONE',  ( 12.00000000000000000, -15.00000000000000000, 30.00000000000000000 ) ) ;
#693 = ORIENTED_EDGE ( 'NONE', *, *, #48, .F. ) ;
#694 = LINE ( 'NONE', #210, #668 ) ;
#695 = LINE ( 'NONE', #626, #686 ) ;
#696 = DIRECTION ( 'NONE',  ( 1.000000000000000000, 0.000000000000000000, 0.000000000000000000 ) ) ;
#697 = ORIENTED_EDGE ( 'NONE', *, *, #429, .T. ) ;
#698 = CARTESIAN_POINT ( 'NONE',  ( 0.000000000000000000, 13.00000000000000000, 4.299999999999999822 ) ) ;
#699 = AXIS2_PLACEMENT_3D ( 'NONE', #393, #323, #530 ) ;
#700 = DIRECTION ( 'NONE',  ( 0.000000000000000000, -1.000000000000000000, 0.000000000000000000 ) ) ;
#701 = ORIENTED_EDGE ( 'NONE', *, *, #237, .T. ) ;
#702 = CARTESIAN_POINT ( 'NONE',  ( 12.00000000000000000, -15.00000000000000000, 27.00000000000000000 ) ) ;
#703 = DIRECTION ( 'NONE',  ( 0.000000000000000000, 0.000000000000000000, -1.000000000000000000 ) ) ;
#704 = EDGE_CURVE ( 'NONE', #292, #861, #72, .T. ) ;
#705 = ORIENTED_EDGE ( 'NONE', *, *, #202, .T. ) ;
#706 = DIRECTION ( 'NONE',  ( -1.000000000000000000, 0.000000000000000000, 0.000000000000000000 ) ) ;
#707 = DIRECTION ( 'NONE',  ( 0.000000000000000000, 1.000000000000000000, 0.000000000000000000 ) ) ;
#708 = VERTEX_POINT ( 'NONE', #176 ) ;
#709 = EDGE_CURVE ( 'NONE', #292, #528, #249, .T. ) ;
#710 = CARTESIAN_POINT ( 'NONE',  ( 0.000000000000000000, 0.000000000000000000, 20.00000000000000000 ) ) ;
#711 = AXIS2_PLACEMENT_3D ( 'NONE', #698, #101, #644 ) ;
#712 = DIRECTION ( 'NONE',  ( -1.000000000000000000, 0.000000000000000000, -0.000000000000000000 ) ) ;
#713 = AXIS2_PLACEMENT_3D ( 'NONE', #551, #357, #97 ) ;
#714 = CARTESIAN_POINT ( 'NONE',  ( 5.000000000000000000, 6.123233995736766282E-16, 20.00000000000000000 ) ) ;
#715 = AXIS2_PLACEMENT_3D ( 'NONE', #731, #390, #311 ) ;
#716 = LINE ( 'NONE', #378, #161 ) ;
#717 = ADVANCED_FACE ( 'NONE', ( #854 ), #426, .T. ) ;
#718 = CARTESIAN_POINT ( 'NONE',  ( 15.00000000000000000, -8.999999999999998224, 20.00000000000000000 ) ) ;
#719 = DIRECTION ( 'NONE',  ( 1.000000000000000000, -0.000000000000000000, -0.000000000000000000 ) ) ;
#720 = EDGE_LOOP ( 'NONE', ( #389, #835, #539, #522 ) ) ;
#721 = CYLINDRICAL_SURFACE ( 'NONE', #142, 1.750000000000001554 ) ;
#722 = ADVANCED_FACE ( 'NONE', ( #184 ), #781, .T. ) ;
#723 = CARTESIAN_POINT ( 'NONE',  ( -15.00000000000000000, 15.00000000000000000, 20.00000000000000000 ) ) ;
#724 = ORIENTED_EDGE ( 'NONE', *, *, #409, .F. ) ;
#725 = DIRECTION ( 'NONE',  ( 1.000000000000000000, -1.156482317317871478E-16, -0.000000000000000000 ) ) ;
#726 = LINE ( 'NONE', #662, #588 ) ;
#727 = CIRCLE ( 'NONE', #842, 1.750000000000001554 ) ;
#728 = ORIENTED_EDGE ( 'NONE', *, *, #627, .F. ) ;
#729 = CARTESIAN_POINT ( 'NONE',  ( 0.000000000000000000, 0.000000000000000000, 20.00000000000000000 ) ) ;
#730 = VERTEX_POINT ( 'NONE', #34 ) ;
#731 = CARTESIAN_POINT ( 'NONE',  ( 0.000000000000000000, 0.000000000000000000, 0.000000000000000000 ) ) ;
#732 = ADVANCED_FACE ( 'NONE', ( #778 ), #436, .F. ) ;
#733 = ORIENTED_EDGE ( 'NONE', *, *, #221, .T. ) ;
#734 = CYLINDRICAL_SURFACE ( 'NONE', #405, 1.750000000000001554 ) ;
#735 = EDGE_LOOP ( 'NONE', ( #392, #406 ) ) ;
#736 = PRESENTATION_STYLE_ASSIGNMENT (( #466 ) ) ;
#737 = EDGE_CURVE ( 'NONE', #542, #254, #637, .T. ) ;
#738 = ORIENTED_EDGE ( 'NONE', *, *, #814, .F. ) ;
#739 = FACE_OUTER_BOUND ( 'NONE', #771, .T. ) ;
#740 =( NAMED_UNIT ( * ) PLANE_ANGLE_UNIT ( ) SI_UNIT ( $, .RADIAN. ) );
#741 = ORIENTED_EDGE ( 'NONE', *, *, #744, .F. ) ;
#742 = VECTOR ( 'NONE', #799, 1000.000000000000000 ) ;
#743 = CARTESIAN_POINT ( 'NONE',  ( 5.000000000000000000, 6.123233995736766282E-16, 20.00000000000000000 ) ) ;
#744 = EDGE_CURVE ( 'NONE', #203, #269, #26, .T. ) ;
#745 = ORIENTED_EDGE ( 'NONE', *, *, #580, .F. ) ;
#746 = ORIENTED_EDGE ( 'NONE', *, *, #836, .F. ) ;
#747 = LINE ( 'NONE', #625, #752 ) ;
#748 = ORIENTED_EDGE ( 'NONE', *, *, #790, .F. ) ;
#749 = CARTESIAN_POINT ( 'NONE',  ( -11.19999999995077644, 15.00000000000000000, 4.299999999999999822 ) ) ;
#750 = EDGE_CURVE ( 'NONE', #8, #598, #15, .T. ) ;
#751 = ORIENTED_EDGE ( 'NONE', *, *, #79, .F. ) ;
#752 = VECTOR ( 'NONE', #290, 1000.000000000000000 ) ;
#753 = CARTESIAN_POINT ( 'NONE',  ( -15.00000000000000000, -15.00000000000000000, 27.00000000000000000 ) ) ;
#754 = ORIENTED_EDGE ( 'NONE', *, *, #493, .F. ) ;
#755 = DIRECTION ( 'NONE',  ( 1.000000000000000000, -1.156482317317871478E-16, -0.000000000000000000 ) ) ;
#756 = ORIENTED_EDGE ( 'NONE', *, *, #48, .T. ) ;
#757 = CIRCLE ( 'NONE', #616, 2.000000000000000000 ) ;
#758 = LINE ( 'NONE', #227, #769 ) ;
#759 = CARTESIAN_POINT ( 'NONE',  ( -5.000000000000000000, 0.000000000000000000, 13.70000000000000107 ) ) ;
#760 = VERTEX_POINT ( 'NONE', #515 ) ;
#761 = EDGE_CURVE ( 'NONE', #573, #36, #716, .T. ) ;
#762 = UNCERTAINTY_MEASURE_WITH_UNIT (LENGTH_MEASURE( 1.000000000000000082E-05 ), #518, 'distance_accuracy_value', 'NONE');
#763 = CARTESIAN_POINT ( 'NONE',  ( 12.50000000000000711, -9.999999999999998224, 26.00000000000000711 ) ) ;
#764 = VECTOR ( 'NONE', #849, 1000.000000000000000 ) ;
#765 = DIRECTION ( 'NONE',  ( -0.000000000000000000, 1.000000000000000000, -0.000000000000000000 ) ) ;
#766 = AXIS2_PLACEMENT_3D ( 'NONE', #432, #181, #706 ) ;
#767 = EDGE_LOOP ( 'NONE', ( #840, #863, #80, #301 ) ) ;
#768 = DIRECTION ( 'NONE',  ( 1.156482317317871478E-16, -1.000000000000000000, 0.000000000000000000 ) ) ;
#769 = VECTOR ( 'NONE', #420, 1000.000000000000000 ) ;
#770 = CARTESIAN_POINT ( 'NONE',  ( -11.19999999991705408, -291580.7500000000582, 13.70000000000000107 ) ) ;
#771 = EDGE_LOOP ( 'NONE', ( #233, #136, #593, #51 ) ) ;
#772 = AXIS2_PLACEMENT_3D ( 'NONE', #303, #846, #506 ) ;
#773 = CARTESIAN_POINT ( 'NONE',  ( 12.00000000000000000, -9.999999999999998224, 27.00000000000000000 ) ) ;
#774 = VECTOR ( 'NONE', #305, 1000.000000000000000 ) ;
#775 = CYLINDRICAL_SURFACE ( 'NONE', #172, 5.000000000000000000 ) ;
#776 = EDGE_CURVE ( 'NONE', #505, #821, #306, .T. ) ;
#777 = VERTEX_POINT ( 'NONE', #784 ) ;
#778 = FACE_OUTER_BOUND ( 'NONE', #475, .T. ) ;
#779 = CARTESIAN_POINT ( 'NONE',  ( 15.00000000000000000, -15.00000000000000000, 20.00000000000000000 ) ) ;
#780 = ORIENTED_EDGE ( 'NONE', *, *, #403, .T. ) ;
#781 = CYLINDRICAL_SURFACE ( 'NONE', #711, 2.000000000000000000 ) ;
#782 = DIRECTION ( 'NONE',  ( 1.000000000000000000, 1.156482317317871478E-16, 0.000000000000000000 ) ) ;
#783 = AXIS2_PLACEMENT_3D ( 'NONE', #763, #223, #825 ) ;
#784 = CARTESIAN_POINT ( 'NONE',  ( 12.50000000000000711, -15.00000000000000000, 24.25000000000000355 ) ) ;
#785 = ADVANCED_FACE ( 'NONE', ( #183, #628, #225 ), #165, .F. ) ;
#786 = DIRECTION ( 'NONE',  ( -0.000000000000000000, -1.000000000000000000, -0.000000000000000000 ) ) ;
#787 = DIRECTION ( 'NONE',  ( -0.000000000000000000, -0.000000000000000000, -1.000000000000000000 ) ) ;
#788 = CIRCLE ( 'NONE', #802, 5.000000000000000000 ) ;
#789 = LINE ( 'NONE', #187, #337 ) ;
#790 = EDGE_CURVE ( 'NONE', #526, #23, #789, .T. ) ;
#791 = ORIENTED_EDGE ( 'NONE', *, *, #237, .F. ) ;
#792 = DIRECTION ( 'NONE',  ( 0.000000000000000000, 1.000000000000000000, 0.000000000000000000 ) ) ;
#793 = CARTESIAN_POINT ( 'NONE',  ( 0.000000000000000000, 0.000000000000000000, 20.00000000000000000 ) ) ;
#794 = LINE ( 'NONE', #714, #619 ) ;
#795 = EDGE_LOOP ( 'NONE', ( #307, #383 ) ) ;
#796 = DIRECTION ( 'NONE',  ( 0.000000000000000000, 0.000000000000000000, -1.000000000000000000 ) ) ;
#797 = FILL_AREA_STYLE ('',( #201 ) ) ;
#798 = ORIENTED_EDGE ( 'NONE', *, *, #471, .T. ) ;
#799 = DIRECTION ( 'NONE',  ( -0.000000000000000000, -0.000000000000000000, -1.000000000000000000 ) ) ;
#800 = CARTESIAN_POINT ( 'NONE',  ( 0.000000000000000000, 0.000000000000000000, 6.299999999999999822 ) ) ;
#801 = EDGE_CURVE ( 'NONE', #561, #497, #118, .T. ) ;
#802 = AXIS2_PLACEMENT_3D ( 'NONE', #155, #18, #482 ) ;
#803 = EDGE_LOOP ( 'NONE', ( #350, #548, #134, #86 ) ) ;
#804 = PRODUCT_DEFINITION_CONTEXT ( 'detailed design', #366, 'design' ) ;
#805 = DIRECTION ( 'NONE',  ( -0.000000000000000000, -0.000000000000000000, -1.000000000000000000 ) ) ;
#806 = CYLINDRICAL_SURFACE ( 'NONE', #402, 5.000000000000000000 ) ;
#807 = LINE ( 'NONE', #321, #647 ) ;
#808 = EDGE_CURVE ( 'NONE', #138, #760, #807, .T. ) ;
#809 = ORIENTED_EDGE ( 'NONE', *, *, #162, .F. ) ;
#810 = ADVANCED_BREP_SHAPE_REPRESENTATION ( 'BearingHolder', ( #54, #715 ), #376 ) ;
#811 = CARTESIAN_POINT ( 'NONE',  ( -15.00000000000000000, 15.00000000000000000, 20.00000000000000000 ) ) ;
#812 = VERTEX_POINT ( 'NONE', #527 ) ;
#813 = ORIENTED_EDGE ( 'NONE', *, *, #79, .T. ) ;
#814 = EDGE_CURVE ( 'NONE', #552, #277, #261, .T. ) ;
#815 = CARTESIAN_POINT ( 'NONE',  ( -15.00000000000000000, 13.00000000000000000, 15.69999999999999929 ) ) ;
#816 = CIRCLE ( 'NONE', #500, 1.750000000000001554 ) ;
#817 = ORIENTED_EDGE ( 'NONE', *, *, #445, .F. ) ;
#818 = EDGE_CURVE ( 'NONE', #336, #526, #304, .T. ) ;
#819 = CARTESIAN_POINT ( 'NONE',  ( 0.000000000000000000, 0.000000000000000000, 6.299999999999999822 ) ) ;
#820 = FACE_OUTER_BOUND ( 'NONE', #450, .T. ) ;
#821 = VERTEX_POINT ( 'NONE', #59 ) ;
#822 = DIRECTION ( 'NONE',  ( 1.000000000000000000, 0.000000000000000000, 0.000000000000000000 ) ) ;
#823 = CARTESIAN_POINT ( 'NONE',  ( -12.50000000000000711, -15.00000000000000000, 27.75000000000000355 ) ) ;
#824 = ORIENTED_EDGE ( 'NONE', *, *, #139, .T. ) ;
#825 = DIRECTION ( 'NONE',  ( 0.000000000000000000, 0.000000000000000000, -1.000000000000000000 ) ) ;
#826 = DIRECTION ( 'NONE',  ( 0.000000000000000000, 0.000000000000000000, 1.000000000000000000 ) ) ;
#827 = EDGE_CURVE ( 'NONE', #226, #440, #794, .T. ) ;
#828 = ORIENTED_EDGE ( 'NONE', *, *, #395, .T. ) ;
#829 = FACE_BOUND ( 'NONE', #795, .T. ) ;
#830 = CARTESIAN_POINT ( 'NONE',  ( 12.50000000000000711, -9.999999999999998224, 26.00000000000000711 ) ) ;
#831 = EDGE_CURVE ( 'NONE', #188, #153, #238, .T. ) ;
#832 = EDGE_LOOP ( 'NONE', ( #199, #524 ) ) ;
#833 = LINE ( 'NONE', #342, #39 ) ;
#834 = DIRECTION ( 'NONE',  ( -0.000000000000000000, 1.000000000000000000, -0.000000000000000000 ) ) ;
#835 = ORIENTED_EDGE ( 'NONE', *, *, #471, .F. ) ;
#836 = EDGE_CURVE ( 'NONE', #269, #203, #78, .T. ) ;
#837 = DIRECTION ( 'NONE',  ( -0.000000000000000000, 0.000000000000000000, 1.000000000000000000 ) ) ;
#838 = AXIS2_PLACEMENT_3D ( 'NONE', #815, #207, #423 ) ;
#839 = CARTESIAN_POINT ( 'NONE',  ( 12.00000000000000000, -9.999999999999998224, 30.00000000000000000 ) ) ;
#840 = ORIENTED_EDGE ( 'NONE', *, *, #189, .F. ) ;
#841 = CYLINDRICAL_SURFACE ( 'NONE', #766, 11.19999999999999751 ) ;
#842 = AXIS2_PLACEMENT_3D ( 'NONE', #332, #540, #193 ) ;
#843 = CARTESIAN_POINT ( 'NONE',  ( 0.000000000000000000, 0.000000000000000000, 13.70000000000000107 ) ) ;
#844 = PRODUCT_DEFINITION_SHAPE ( 'NONE', 'NONE',  #317 ) ;
#845 = ORIENTED_EDGE ( 'NONE', *, *, #704, .F. ) ;
#846 = DIRECTION ( 'NONE',  ( 1.000000000000000000, 0.000000000000000000, 0.000000000000000000 ) ) ;
#847 = CARTESIAN_POINT ( 'NONE',  ( -12.50000000000000711, -9.999999999999998224, 26.00000000000000355 ) ) ;
#848 = EDGE_CURVE ( 'NONE', #812, #410, #316, .T. ) ;
#849 = DIRECTION ( 'NONE',  ( 1.000000000000000000, -0.000000000000000000, -0.000000000000000000 ) ) ;
#850 = DIRECTION ( 'NONE',  ( -1.000000000000000000, -0.000000000000000000, -0.000000000000000000 ) ) ;
#851 = PLANE ( 'NONE',  #544 ) ;
#852 = DIRECTION ( 'NONE',  ( 1.156482317317871478E-16, 1.000000000000000000, 0.000000000000000000 ) ) ;
#853 = ORIENTED_EDGE ( 'NONE', *, *, #362, .T. ) ;
#854 = FACE_OUTER_BOUND ( 'NONE', #867, .T. ) ;
#855 = FACE_BOUND ( 'NONE', #431, .T. ) ;
#856 = AXIS2_PLACEMENT_3D ( 'NONE', #568, #44, #186 ) ;
#857 = CARTESIAN_POINT ( 'NONE',  ( -11.19999999999999751, 0.000000000000000000, 13.70000000000000107 ) ) ;
#858 = CIRCLE ( 'NONE', #404, 11.19999999999999751 ) ;
#859 = ORIENTED_EDGE ( 'NONE', *, *, #326, .T. ) ;
#860 = CARTESIAN_POINT ( 'NONE',  ( -11.19999999995077644, 13.00000000000000000, 4.299999999999999822 ) ) ;
#861 = VERTEX_POINT ( 'NONE', #385 ) ;
#862 = CIRCLE ( 'NONE', #566, 5.000000000000000000 ) ;
#863 = ORIENTED_EDGE ( 'NONE', *, *, #776, .T. ) ;
#864 = EDGE_CURVE ( 'NONE', #226, #82, #605, .T. ) ;
#865 = DIRECTION ( 'NONE',  ( 0.000000000000000000, 0.000000000000000000, 1.000000000000000000 ) ) ;
#866 = ORIENTED_EDGE ( 'NONE', *, *, #151, .T. ) ;
#867 = EDGE_LOOP ( 'NONE', ( #595, #689, #396, #813 ) ) ;
#868 = CYLINDRICAL_SURFACE ( 'NONE', #251, 1.000000000000000888 ) ;
ENDSEC;
END-ISO-10303-21;
