ISO-10303-21;
HEADER;
FILE_DESCRIPTION (( 'STEP AP214' ),
    '1' );
FILE_NAME ('BodyTop.STEP',
    '2026-04-06T02:30:57',
    ( '' ),
    ( '' ),
    'SwSTEP 2.0',
    'SolidWorks 2025',
    '' );
FILE_SCHEMA (( 'AUTOMOTIVE_DESIGN' ));
ENDSEC;

DATA;
#1 = ORIENTED_EDGE ( 'NONE', *, *, #44, .T. ) ;
#2 = CARTESIAN_POINT ( 'NONE',  ( 94.74999999999998579, 0.000000000000000000, -119.7499999999999858 ) ) ;
#3 = ADVANCED_FACE ( 'NONE', ( #201 ), #141, .F. ) ;
#4 = VERTEX_POINT ( 'NONE', #21 ) ;
#5 = ADVANCED_BREP_SHAPE_REPRESENTATION ( 'BodyTop', ( #530, #540 ), #206 ) ;
#6 = DIRECTION ( 'NONE',  ( 1.000000000000000000, -0.000000000000000000, 0.000000000000000000 ) ) ;
#7 = FACE_OUTER_BOUND ( 'NONE', #59, .T. ) ;
#8 = DIRECTION ( 'NONE',  ( 5.562239602330444217E-17, 0.000000000000000000, 1.000000000000000000 ) ) ;
#9 = DIRECTION ( 'NONE',  ( 1.000000000000000000, 0.000000000000000000, 0.000000000000000000 ) ) ;
#10 = DIRECTION ( 'NONE',  ( 0.000000000000000000, 0.000000000000000000, -1.000000000000000000 ) ) ;
#11 = VECTOR ( 'NONE', #464, 1000.000000000000000 ) ;
#12 = DIRECTION ( 'NONE',  ( 0.000000000000000000, 1.000000000000000000, 0.000000000000000000 ) ) ;
#13 = ORIENTED_EDGE ( 'NONE', *, *, #678, .F. ) ;
#14 = CARTESIAN_POINT ( 'NONE',  ( 0.000000000000000000, 0.000000000000000000, 0.000000000000000000 ) ) ;
#15 = CLOSED_SHELL ( 'NONE', ( #244, #179, #227, #527, #440, #502, #412, #128, #461, #363, #176, #58, #629, #420, #19, #144, #594, #304, #729, #734, #763, #447, #582, #3 ) ) ;
#16 = VECTOR ( 'NONE', #473, 1000.000000000000000 ) ;
#17 = DIRECTION ( 'NONE',  ( -0.000000000000000000, -0.000000000000000000, 1.000000000000000000 ) ) ;
#18 = VERTEX_POINT ( 'NONE', #138 ) ;
#19 = ADVANCED_FACE ( 'NONE', ( #82, #439, #426 ), #67, .F. ) ;
#20 = CARTESIAN_POINT ( 'NONE',  ( -78.30000000000003979, -8.000000000000010658, 114.7500000000000284 ) ) ;
#21 = CARTESIAN_POINT ( 'NONE',  ( 78.30000000000003979, -7.999999999999991118, -119.7499999999999858 ) ) ;
#22 = ORIENTED_EDGE ( 'NONE', *, *, #61, .F. ) ;
#23 = DIRECTION ( 'NONE',  ( 0.000000000000000000, 1.000000000000000000, -0.000000000000000000 ) ) ;
#24 = DIRECTION ( 'NONE',  ( 1.000000000000000000, 0.000000000000000000, 0.000000000000000000 ) ) ;
#25 = CARTESIAN_POINT ( 'NONE',  ( -89.75000000000001421, -15.00000000000000000, 114.7500000000000284 ) ) ;
#26 = VERTEX_POINT ( 'NONE', #660 ) ;
#27 = DIRECTION ( 'NONE',  ( 0.000000000000000000, 1.000000000000000000, -0.000000000000000000 ) ) ;
#28 = CARTESIAN_POINT ( 'NONE',  ( -99.75000000000002842, 5.000000000000000000, 124.7500000000000426 ) ) ;
#29 = FACE_BOUND ( 'NONE', #135, .T. ) ;
#30 = UNCERTAINTY_MEASURE_WITH_UNIT (LENGTH_MEASURE( 1.000000000000000082E-05 ), #46, 'distance_accuracy_value', 'NONE');
#31 = ORIENTED_EDGE ( 'NONE', *, *, #639, .T. ) ;
#32 = CARTESIAN_POINT ( 'NONE',  ( 94.75000000000002842, -15.00000000000000000, 119.7500000000000142 ) ) ;
#33 = CARTESIAN_POINT ( 'NONE',  ( 99.75000000000000000, 5.000000000000000000, -5.548334003324618038E-15 ) ) ;
#34 = ORIENTED_EDGE ( 'NONE', *, *, #234, .F. ) ;
#35 = CIRCLE ( 'NONE', #171, 1.699999999999965539 ) ;
#36 = DIRECTION ( 'NONE',  ( -0.000000000000000000, -0.000000000000000000, -1.000000000000000000 ) ) ;
#37 = VECTOR ( 'NONE', #8, 1000.000000000000000 ) ;
#38 = ORIENTED_EDGE ( 'NONE', *, *, #109, .F. ) ;
#39 = CARTESIAN_POINT ( 'NONE',  ( 80.00000000000000000, -7.999999999999991118, -114.7499999999999716 ) ) ;
#40 = EDGE_CURVE ( 'NONE', #745, #679, #658, .T. ) ;
#41 = FACE_OUTER_BOUND ( 'NONE', #375, .T. ) ;
#42 = VERTEX_POINT ( 'NONE', #616 ) ;
#43 = CARTESIAN_POINT ( 'NONE',  ( 0.000000000000000000, 5.000000000000000000, -124.7499999999999858 ) ) ;
#44 = EDGE_CURVE ( 'NONE', #26, #56, #305, .T. ) ;
#45 = ORIENTED_EDGE ( 'NONE', *, *, #317, .T. ) ;
#46 =( LENGTH_UNIT ( ) NAMED_UNIT ( * ) SI_UNIT ( .MILLI., .METRE. ) );
#47 = CARTESIAN_POINT ( 'NONE',  ( 80.00000000000000000, -7.999999999999991118, 119.7500000000000142 ) ) ;
#48 = EDGE_CURVE ( 'NONE', #103, #42, #494, .T. ) ;
#49 = ORIENTED_EDGE ( 'NONE', *, *, #285, .T. ) ;
#50 = VECTOR ( 'NONE', #6, 1000.000000000000000 ) ;
#51 = STYLED_ITEM ( 'NONE', ( #344 ), #530 ) ;
#52 = DIRECTION ( 'NONE',  ( -5.562239602330442984E-17, 0.000000000000000000, 1.000000000000000000 ) ) ;
#53 = EDGE_CURVE ( 'NONE', #679, #745, #672, .T. ) ;
#54 = VERTEX_POINT ( 'NONE', #430 ) ;
#55 = CARTESIAN_POINT ( 'NONE',  ( 80.00000000000000000, -7.999999999999991118, 114.7500000000000000 ) ) ;
#56 = VERTEX_POINT ( 'NONE', #722 ) ;
#57 = LINE ( 'NONE', #469, #347 ) ;
#58 = ADVANCED_FACE ( 'NONE', ( #668 ), #188, .T. ) ;
#59 = EDGE_LOOP ( 'NONE', ( #445, #427, #735, #419 ) ) ;
#60 = DIRECTION ( 'NONE',  ( -0.000000000000000000, -0.000000000000000000, -1.000000000000000000 ) ) ;
#61 = EDGE_CURVE ( 'NONE', #18, #673, #247, .T. ) ;
#62 = DIRECTION ( 'NONE',  ( -1.000000000000000000, 0.000000000000000000, 0.000000000000000000 ) ) ;
#63 = EDGE_LOOP ( 'NONE', ( #645, #340, #688, #121 ) ) ;
#64 = CARTESIAN_POINT ( 'NONE',  ( -81.69999999999996021, -8.000000000000010658, 0.000000000000000000 ) ) ;
#65 = AXIS2_PLACEMENT_3D ( 'NONE', #684, #560, #437 ) ;
#66 = CARTESIAN_POINT ( 'NONE',  ( -80.00000000000000000, -8.000000000000010658, 0.000000000000000000 ) ) ;
#67 = PLANE ( 'NONE',  #372 ) ;
#68 = DIRECTION ( 'NONE',  ( -0.000000000000000000, 0.000000000000000000, 1.000000000000000000 ) ) ;
#69 = CARTESIAN_POINT ( 'NONE',  ( 94.75000000000002842, 0.000000000000000000, 119.7500000000000142 ) ) ;
#70 = VECTOR ( 'NONE', #623, 1000.000000000000000 ) ;
#71 = CARTESIAN_POINT ( 'NONE',  ( 0.000000000000000000, -15.00000000000000000, -119.7499999999999858 ) ) ;
#72 = ORIENTED_EDGE ( 'NONE', *, *, #163, .T. ) ;
#73 = AXIS2_PLACEMENT_3D ( 'NONE', #294, #421, #190 ) ;
#74 = PLANE ( 'NONE',  #572 ) ;
#75 = ORIENTED_EDGE ( 'NONE', *, *, #717, .F. ) ;
#76 = EDGE_CURVE ( 'NONE', #139, #356, #730, .T. ) ;
#77 = VERTEX_POINT ( 'NONE', #378 ) ;
#78 = PLANE ( 'NONE',  #583 ) ;
#79 = EDGE_LOOP ( 'NONE', ( #490, #554, #1, #281 ) ) ;
#80 = ORIENTED_EDGE ( 'NONE', *, *, #285, .F. ) ;
#81 = CARTESIAN_POINT ( 'NONE',  ( -80.00000000000000000, -8.000000000000010658, -119.7499999999999858 ) ) ;
#82 = FACE_BOUND ( 'NONE', #405, .T. ) ;
#83 = VECTOR ( 'NONE', #435, 1000.000000000000000 ) ;
#84 = DIRECTION ( 'NONE',  ( 1.000000000000000000, -0.000000000000000000, 0.000000000000000000 ) ) ;
#85 = EDGE_CURVE ( 'NONE', #361, #295, #558, .T. ) ;
#86 = PRODUCT ( 'BodyTop', 'BodyTop', '', ( #617 ) ) ;
#87 = CARTESIAN_POINT ( 'NONE',  ( 81.69999999999996021, -7.999999999999991118, 0.000000000000000000 ) ) ;
#88 = EDGE_LOOP ( 'NONE', ( #297, #306, #193, #383 ) ) ;
#89 = DIRECTION ( 'NONE',  ( -0.000000000000000000, -1.000000000000000000, -0.000000000000000000 ) ) ;
#90 = LINE ( 'NONE', #733, #604 ) ;
#91 = FACE_OUTER_BOUND ( 'NONE', #653, .T. ) ;
#92 = EDGE_LOOP ( 'NONE', ( #300, #310, #621, #436 ) ) ;
#93 = DIRECTION ( 'NONE',  ( -0.000000000000000000, -0.000000000000000000, -1.000000000000000000 ) ) ;
#94 = DIRECTION ( 'NONE',  ( -0.000000000000000000, 0.000000000000000000, 1.000000000000000000 ) ) ;
#95 = CIRCLE ( 'NONE', #278, 1.699999999999965539 ) ;
#96 = EDGE_CURVE ( 'NONE', #358, #103, #207, .T. ) ;
#97 = ORIENTED_EDGE ( 'NONE', *, *, #478, .F. ) ;
#98 =( NAMED_UNIT ( * ) PLANE_ANGLE_UNIT ( ) SI_UNIT ( $, .RADIAN. ) );
#99 = CIRCLE ( 'NONE', #632, 1.699999999999965539 ) ;
#100 = ORIENTED_EDGE ( 'NONE', *, *, #470, .T. ) ;
#101 = DIRECTION ( 'NONE',  ( -0.000000000000000000, 0.000000000000000000, 1.000000000000000000 ) ) ;
#102 = DIRECTION ( 'NONE',  ( 0.000000000000000000, 0.000000000000000000, -1.000000000000000000 ) ) ;
#103 = VERTEX_POINT ( 'NONE', #330 ) ;
#104 = SURFACE_STYLE_USAGE ( .BOTH. , #452 ) ;
#105 = EDGE_CURVE ( 'NONE', #745, #343, #386, .T. ) ;
#106 = DIRECTION ( 'NONE',  ( -0.000000000000000000, -0.000000000000000000, -1.000000000000000000 ) ) ;
#107 = ORIENTED_EDGE ( 'NONE', *, *, #202, .F. ) ;
#108 = CARTESIAN_POINT ( 'NONE',  ( 0.000000000000000000, 0.000000000000000000, -124.7499999999999858 ) ) ;
#109 = EDGE_CURVE ( 'NONE', #731, #741, #211, .T. ) ;
#110 = AXIS2_PLACEMENT_3D ( 'NONE', #33, #393, #748 ) ;
#111 = CIRCLE ( 'NONE', #647, 1.699999999999965539 ) ;
#112 = EDGE_LOOP ( 'NONE', ( #159, #588 ) ) ;
#113 = CARTESIAN_POINT ( 'NONE',  ( -94.75000000000002842, 0.000000000000000000, 119.7500000000000426 ) ) ;
#114 = PRODUCT_DEFINITION_SHAPE ( 'NONE', 'NONE',  #132 ) ;
#115 = ORIENTED_EDGE ( 'NONE', *, *, #234, .T. ) ;
#116 = DIRECTION ( 'NONE',  ( 1.000000000000000000, 0.000000000000000000, 0.000000000000000000 ) ) ;
#117 = ORIENTED_EDGE ( 'NONE', *, *, #342, .F. ) ;
#118 = EDGE_CURVE ( 'NONE', #356, #243, #565, .T. ) ;
#119 = LINE ( 'NONE', #238, #50 ) ;
#120 = VECTOR ( 'NONE', #625, 1000.000000000000000 ) ;
#121 = ORIENTED_EDGE ( 'NONE', *, *, #551, .T. ) ;
#122 = DIRECTION ( 'NONE',  ( -1.000000000000000000, 0.000000000000000000, 0.000000000000000000 ) ) ;
#123 = CYLINDRICAL_SURFACE ( 'NONE', #707, 1.699999999999965539 ) ;
#124 = CARTESIAN_POINT ( 'NONE',  ( -80.00000000000000000, -8.000000000000010658, 114.7500000000000284 ) ) ;
#125 = ORIENTED_EDGE ( 'NONE', *, *, #350, .F. ) ;
#126 = DIRECTION ( 'NONE',  ( 0.000000000000000000, 0.000000000000000000, -1.000000000000000000 ) ) ;
#127 = PLANE ( 'NONE',  #510 ) ;
#128 = ADVANCED_FACE ( 'NONE', ( #91 ), #682, .T. ) ;
#129 = DIRECTION ( 'NONE',  ( 6.046966365060766585E-17, 0.000000000000000000, 1.000000000000000000 ) ) ;
#130 = CYLINDRICAL_SURFACE ( 'NONE', #65, 1.699999999999965539 ) ;
#131 = PLANE ( 'NONE',  #133 ) ;
#132 = PRODUCT_DEFINITION ( 'UNKNOWN', '', #638, #168 ) ;
#133 = AXIS2_PLACEMENT_3D ( 'NONE', #615, #137, #605 ) ;
#134 = DIRECTION ( 'NONE',  ( -0.000000000000000000, 0.000000000000000000, 1.000000000000000000 ) ) ;
#135 = EDGE_LOOP ( 'NONE', ( #706, #498, #630, #80 ) ) ;
#136 = VECTOR ( 'NONE', #182, 1000.000000000000000 ) ;
#137 = DIRECTION ( 'NONE',  ( 0.000000000000000000, 1.000000000000000000, -0.000000000000000000 ) ) ;
#138 = CARTESIAN_POINT ( 'NONE',  ( 78.30000000000003979, -7.999999999999991118, 114.7500000000000000 ) ) ;
#139 = VERTEX_POINT ( 'NONE', #457 ) ;
#140 = CARTESIAN_POINT ( 'NONE',  ( 1.735593011553737793E-14, 5.000000000000000000, 124.7500000000000284 ) ) ;
#141 = CYLINDRICAL_SURFACE ( 'NONE', #586, 1.699999999999965539 ) ;
#142 = ORIENTED_EDGE ( 'NONE', *, *, #562, .T. ) ;
#143 = CARTESIAN_POINT ( 'NONE',  ( 0.000000000000000000, 0.000000000000000000, 0.000000000000000000 ) ) ;
#144 = ADVANCED_FACE ( 'NONE', ( #41 ), #450, .F. ) ;
#145 = CARTESIAN_POINT ( 'NONE',  ( -99.75000000000001421, 5.000000000000000000, -124.7499999999999858 ) ) ;
#146 = AXIS2_PLACEMENT_3D ( 'NONE', #370, #84, #313 ) ;
#147 = VERTEX_POINT ( 'NONE', #155 ) ;
#148 = LINE ( 'NONE', #680, #505 ) ;
#149 = DIRECTION ( 'NONE',  ( -0.000000000000000000, -0.000000000000000000, -1.000000000000000000 ) ) ;
#150 = AXIS2_PLACEMENT_3D ( 'NONE', #170, #68, #116 ) ;
#151 = MECHANICAL_DESIGN_GEOMETRIC_PRESENTATION_REPRESENTATION (  '', ( #51 ), #453 ) ;
#152 = ORIENTED_EDGE ( 'NONE', *, *, #767, .F. ) ;
#153 = LINE ( 'NONE', #341, #217 ) ;
#154 = EDGE_CURVE ( 'NONE', #54, #596, #214, .T. ) ;
#155 = CARTESIAN_POINT ( 'NONE',  ( -94.75000000000002842, -15.00000000000000000, 119.7500000000000426 ) ) ;
#156 = ORIENTED_EDGE ( 'NONE', *, *, #76, .F. ) ;
#157 = DIRECTION ( 'NONE',  ( -1.000000000000000000, 0.000000000000000000, -0.000000000000000000 ) ) ;
#158 = EDGE_CURVE ( 'NONE', #358, #240, #511, .T. ) ;
#159 = ORIENTED_EDGE ( 'NONE', *, *, #407, .T. ) ;
#160 = LINE ( 'NONE', #108, #392 ) ;
#161 = CARTESIAN_POINT ( 'NONE',  ( 80.00000000000000000, -7.999999999999991118, 0.000000000000000000 ) ) ;
#162 = ORIENTED_EDGE ( 'NONE', *, *, #96, .F. ) ;
#163 = EDGE_CURVE ( 'NONE', #335, #596, #219, .T. ) ;
#164 = FILL_AREA_STYLE_COLOUR ( '', #352 ) ;
#165 = CARTESIAN_POINT ( 'NONE',  ( -80.00000000000000000, -8.000000000000010658, 0.000000000000000000 ) ) ;
#166 = ORIENTED_EDGE ( 'NONE', *, *, #492, .F. ) ;
#167 = EDGE_CURVE ( 'NONE', #423, #332, #398, .T. ) ;
#168 = PRODUCT_DEFINITION_CONTEXT ( 'detailed design', #302, 'design' ) ;
#169 = ORIENTED_EDGE ( 'NONE', *, *, #690, .F. ) ;
#170 = CARTESIAN_POINT ( 'NONE',  ( 0.000000000000000000, -15.00000000000000000, -114.7499999999999716 ) ) ;
#171 = AXIS2_PLACEMENT_3D ( 'NONE', #81, #377, #24 ) ;
#172 = VECTOR ( 'NONE', #481, 1000.000000000000000 ) ;
#173 = AXIS2_PLACEMENT_3D ( 'NONE', #14, #27, #316 ) ;
#174 = ORIENTED_EDGE ( 'NONE', *, *, #557, .F. ) ;
#175 = LINE ( 'NONE', #532, #251 ) ;
#176 = ADVANCED_FACE ( 'NONE', ( #460, #515, #401 ), #693, .T. ) ;
#177 = ORIENTED_EDGE ( 'NONE', *, *, #576, .T. ) ;
#178 = DIRECTION ( 'NONE',  ( -1.000000000000000000, 0.000000000000000000, 1.546271622040608067E-16 ) ) ;
#179 = ADVANCED_FACE ( 'NONE', ( #755 ), #740, .F. ) ;
#180 = ORIENTED_EDGE ( 'NONE', *, *, #350, .T. ) ;
#181 = DIRECTION ( 'NONE',  ( -1.000000000000000000, 0.000000000000000000, 1.464674174967224685E-16 ) ) ;
#182 = DIRECTION ( 'NONE',  ( 1.000000000000000000, -0.000000000000000000, 0.000000000000000000 ) ) ;
#183 = VECTOR ( 'NONE', #696, 1000.000000000000000 ) ;
#184 = EDGE_LOOP ( 'NONE', ( #220, #431, #570, #249 ) ) ;
#185 = FACE_OUTER_BOUND ( 'NONE', #641, .T. ) ;
#186 = EDGE_CURVE ( 'NONE', #528, #54, #543, .T. ) ;
#187 = DIRECTION ( 'NONE',  ( 1.000000000000000000, -0.000000000000000000, 0.000000000000000000 ) ) ;
#188 = PLANE ( 'NONE',  #199 ) ;
#189 = ORIENTED_EDGE ( 'NONE', *, *, #44, .F. ) ;
#190 = DIRECTION ( 'NONE',  ( 1.000000000000000000, 0.000000000000000000, 0.000000000000000000 ) ) ;
#191 = EDGE_CURVE ( 'NONE', #147, #737, #584, .T. ) ;
#192 = DIRECTION ( 'NONE',  ( 5.562239602330444217E-17, 0.000000000000000000, 1.000000000000000000 ) ) ;
#193 = ORIENTED_EDGE ( 'NONE', *, *, #569, .T. ) ;
#194 = EDGE_LOOP ( 'NONE', ( #726, #203 ) ) ;
#195 = CARTESIAN_POINT ( 'NONE',  ( -80.00000000000000000, -8.000000000000010658, -114.7499999999999716 ) ) ;
#196 = EDGE_CURVE ( 'NONE', #479, #343, #606, .T. ) ;
#197 = CARTESIAN_POINT ( 'NONE',  ( 94.75000000000000000, -15.00000000000000000, -1.647081914142488380E-14 ) ) ;
#198 = CARTESIAN_POINT ( 'NONE',  ( -94.75000000000002842, -15.00000000000000000, -119.7499999999999858 ) ) ;
#199 = AXIS2_PLACEMENT_3D ( 'NONE', #716, #664, #129 ) ;
#200 = DIRECTION ( 'NONE',  ( 1.000000000000000000, 0.000000000000000000, 0.000000000000000000 ) ) ;
#201 = FACE_OUTER_BOUND ( 'NONE', #458, .T. ) ;
#202 = EDGE_CURVE ( 'NONE', #240, #42, #715, .T. ) ;
#203 = ORIENTED_EDGE ( 'NONE', *, *, #154, .F. ) ;
#204 =( NAMED_UNIT ( * ) SI_UNIT ( $, .STERADIAN. ) SOLID_ANGLE_UNIT ( ) );
#205 = DIRECTION ( 'NONE',  ( 6.046966365060766585E-17, 0.000000000000000000, 1.000000000000000000 ) ) ;
#206 =( GEOMETRIC_REPRESENTATION_CONTEXT ( 3 ) GLOBAL_UNCERTAINTY_ASSIGNED_CONTEXT ( ( #643 ) ) GLOBAL_UNIT_ASSIGNED_CONTEXT ( ( #666, #384, #204 ) ) REPRESENTATION_CONTEXT ( 'NONE', 'WORKASPACE' ) );
#207 = LINE ( 'NONE', #628, #120 ) ;
#208 = ORIENTED_EDGE ( 'NONE', *, *, #118, .T. ) ;
#209 = LINE ( 'NONE', #198, #216 ) ;
#210 = DIRECTION ( 'NONE',  ( -0.000000000000000000, -1.000000000000000000, -0.000000000000000000 ) ) ;
#211 = LINE ( 'NONE', #568, #686 ) ;
#212 = VECTOR ( 'NONE', #10, 1000.000000000000000 ) ;
#213 = EDGE_LOOP ( 'NONE', ( #166, #394, #495, #520 ) ) ;
#214 = CIRCLE ( 'NONE', #324, 1.699999999999965539 ) ;
#215 = LINE ( 'NONE', #567, #70 ) ;
#216 = VECTOR ( 'NONE', #491, 1000.000000000000000 ) ;
#217 = VECTOR ( 'NONE', #627, 1000.000000000000000 ) ;
#218 = ORIENTED_EDGE ( 'NONE', *, *, #379, .T. ) ;
#219 = LINE ( 'NONE', #395, #512 ) ;
#220 = ORIENTED_EDGE ( 'NONE', *, *, #191, .T. ) ;
#221 = SURFACE_STYLE_FILL_AREA ( #637 ) ;
#222 = EDGE_CURVE ( 'NONE', #335, #528, #646, .T. ) ;
#223 = ORIENTED_EDGE ( 'NONE', *, *, #690, .T. ) ;
#224 = DIRECTION ( 'NONE',  ( -1.000000000000000000, 0.000000000000000000, -5.562239602330442984E-17 ) ) ;
#225 = AXIS2_PLACEMENT_3D ( 'NONE', #339, #578, #519 ) ;
#226 = CYLINDRICAL_SURFACE ( 'NONE', #409, 1.699999999999965539 ) ;
#227 = ADVANCED_FACE ( 'NONE', ( #725 ), #123, .F. ) ;
#228 = ORIENTED_EDGE ( 'NONE', *, *, #736, .F. ) ;
#229 = CARTESIAN_POINT ( 'NONE',  ( 78.30000000000003979, -7.999999999999991118, 0.000000000000000000 ) ) ;
#230 = ORIENTED_EDGE ( 'NONE', *, *, #186, .F. ) ;
#231 = DIRECTION ( 'NONE',  ( 0.000000000000000000, 1.000000000000000000, 0.000000000000000000 ) ) ;
#232 = ORIENTED_EDGE ( 'NONE', *, *, #167, .T. ) ;
#233 = PLANE ( 'NONE',  #749 ) ;
#234 = EDGE_CURVE ( 'NONE', #396, #399, #99, .T. ) ;
#235 = VECTOR ( 'NONE', #12, 1000.000000000000000 ) ;
#236 = EDGE_LOOP ( 'NONE', ( #661, #169 ) ) ;
#237 = VECTOR ( 'NONE', #400, 1000.000000000000000 ) ;
#238 = CARTESIAN_POINT ( 'NONE',  ( 0.000000000000000000, 5.000000000000000000, -124.7499999999999858 ) ) ;
#239 = EDGE_CURVE ( 'NONE', #756, #731, #289, .T. ) ;
#240 = VERTEX_POINT ( 'NONE', #429 ) ;
#241 = DIRECTION ( 'NONE',  ( 1.000000000000000000, -0.000000000000000000, 0.000000000000000000 ) ) ;
#242 = DIRECTION ( 'NONE',  ( -0.000000000000000000, -0.000000000000000000, 1.000000000000000000 ) ) ;
#243 = VERTEX_POINT ( 'NONE', #69 ) ;
#244 = ADVANCED_FACE ( 'NONE', ( #7 ), #226, .F. ) ;
#245 = FACE_OUTER_BOUND ( 'NONE', #531, .T. ) ;
#246 = CIRCLE ( 'NONE', #449, 1.699999999999965539 ) ;
#247 = CIRCLE ( 'NONE', #434, 1.699999999999965539 ) ;
#248 = DIRECTION ( 'NONE',  ( -1.464674174967224685E-16, 0.000000000000000000, -1.000000000000000000 ) ) ;
#249 = ORIENTED_EDGE ( 'NONE', *, *, #539, .T. ) ;
#250 = CARTESIAN_POINT ( 'NONE',  ( 78.30000000000003979, -7.999999999999991118, -114.7499999999999716 ) ) ;
#251 = VECTOR ( 'NONE', #231, 1000.000000000000000 ) ;
#252 = VECTOR ( 'NONE', #456, 1000.000000000000000 ) ;
#253 = CARTESIAN_POINT ( 'NONE',  ( 0.000000000000000000, 0.000000000000000000, -114.7499999999999716 ) ) ;
#254 = DIRECTION ( 'NONE',  ( 1.000000000000000000, 0.000000000000000000, 0.000000000000000000 ) ) ;
#255 = DIRECTION ( 'NONE',  ( 0.000000000000000000, 0.000000000000000000, 1.000000000000000000 ) ) ;
#256 = CARTESIAN_POINT ( 'NONE',  ( -89.75000000000001421, -15.00000000000000000, -114.7499999999999716 ) ) ;
#257 = VERTEX_POINT ( 'NONE', #659 ) ;
#258 = EDGE_LOOP ( 'NONE', ( #75, #100, #223, #563 ) ) ;
#259 = LINE ( 'NONE', #622, #549 ) ;
#260 = FACE_OUTER_BOUND ( 'NONE', #712, .T. ) ;
#261 = EDGE_CURVE ( 'NONE', #741, #77, #364, .T. ) ;
#262 = DIRECTION ( 'NONE',  ( 0.000000000000000000, 1.000000000000000000, 0.000000000000000000 ) ) ;
#263 = ORIENTED_EDGE ( 'NONE', *, *, #261, .F. ) ;
#264 = DIRECTION ( 'NONE',  ( -1.546271622040608067E-16, 0.000000000000000000, -1.000000000000000000 ) ) ;
#265 = DIRECTION ( 'NONE',  ( -0.000000000000000000, -1.000000000000000000, -0.000000000000000000 ) ) ;
#266 = AXIS2_PLACEMENT_3D ( 'NONE', #39, #101, #397 ) ;
#267 = CARTESIAN_POINT ( 'NONE',  ( -89.75000000000001421, -15.00000000000000000, -114.7499999999999716 ) ) ;
#268 = FACE_BOUND ( 'NONE', #451, .T. ) ;
#269 = CARTESIAN_POINT ( 'NONE',  ( 81.69999999999996021, -7.999999999999991118, 119.7500000000000142 ) ) ;
#270 = DIRECTION ( 'NONE',  ( -1.000000000000000000, 0.000000000000000000, 1.391256923089168273E-16 ) ) ;
#271 = ORIENTED_EDGE ( 'NONE', *, *, #109, .T. ) ;
#272 = CARTESIAN_POINT ( 'NONE',  ( 89.75000000000000000, 0.000000000000000000, -5.427152312642037385E-15 ) ) ;
#273 = CARTESIAN_POINT ( 'NONE',  ( 94.75000000000000000, -15.00000000000000000, -1.647081914142488380E-14 ) ) ;
#274 = VECTOR ( 'NONE', #561, 1000.000000000000000 ) ;
#275 = ORIENTED_EDGE ( 'NONE', *, *, #562, .F. ) ;
#276 = EDGE_CURVE ( 'NONE', #295, #240, #303, .T. ) ;
#277 = CARTESIAN_POINT ( 'NONE',  ( 78.30000000000003979, -7.999999999999991118, 0.000000000000000000 ) ) ;
#278 = AXIS2_PLACEMENT_3D ( 'NONE', #354, #591, #480 ) ;
#279 = VECTOR ( 'NONE', #178, 1000.000000000000000 ) ;
#280 = DIRECTION ( 'NONE',  ( 0.000000000000000000, 1.000000000000000000, 0.000000000000000000 ) ) ;
#281 = ORIENTED_EDGE ( 'NONE', *, *, #342, .T. ) ;
#282 = DIRECTION ( 'NONE',  ( -1.000000000000000000, 0.000000000000000000, 0.000000000000000000 ) ) ;
#283 = ORIENTED_EDGE ( 'NONE', *, *, #196, .F. ) ;
#284 = CYLINDRICAL_SURFACE ( 'NONE', #486, 1.699999999999965539 ) ;
#285 = EDGE_CURVE ( 'NONE', #522, #613, #484, .T. ) ;
#286 = CARTESIAN_POINT ( 'NONE',  ( -99.75000000000001421, 5.000000000000000000, -5.548334003324617250E-15 ) ) ;
#287 = EDGE_LOOP ( 'NONE', ( #117, #125, #271, #218 ) ) ;
#288 = VECTOR ( 'NONE', #102, 1000.000000000000000 ) ;
#289 = LINE ( 'NONE', #526, #719 ) ;
#290 = AXIS2_PLACEMENT_3D ( 'NONE', #448, #149, #764 ) ;
#291 = ORIENTED_EDGE ( 'NONE', *, *, #40, .T. ) ;
#292 = DIRECTION ( 'NONE',  ( -1.000000000000000000, 0.000000000000000000, 1.464674174967224685E-16 ) ) ;
#293 = ORIENTED_EDGE ( 'NONE', *, *, #276, .F. ) ;
#294 = CARTESIAN_POINT ( 'NONE',  ( 80.00000000000000000, -7.999999999999991118, -119.7499999999999858 ) ) ;
#295 = VERTEX_POINT ( 'NONE', #425 ) ;
#296 = CARTESIAN_POINT ( 'NONE',  ( 80.00000000000000000, -7.999999999999991118, 119.7500000000000142 ) ) ;
#297 = ORIENTED_EDGE ( 'NONE', *, *, #336, .F. ) ;
#298 = CARTESIAN_POINT ( 'NONE',  ( 81.69999999999996021, -7.999999999999991118, 114.7500000000000000 ) ) ;
#299 = DIRECTION ( 'NONE',  ( 1.000000000000000000, 0.000000000000000000, 0.000000000000000000 ) ) ;
#300 = ORIENTED_EDGE ( 'NONE', *, *, #40, .F. ) ;
#301 = CARTESIAN_POINT ( 'NONE',  ( 1.774346686291597951E-14, 0.000000000000000000, 114.7500000000000142 ) ) ;
#302 = APPLICATION_CONTEXT ( 'automotive_design' ) ;
#303 = LINE ( 'NONE', #761, #212 ) ;
#304 = ADVANCED_FACE ( 'NONE', ( #663 ), #127, .T. ) ;
#305 = LINE ( 'NONE', #544, #37 ) ;
#306 = ORIENTED_EDGE ( 'NONE', *, *, #48, .F. ) ;
#307 = DIRECTION ( 'NONE',  ( -0.000000000000000000, -0.000000000000000000, -1.000000000000000000 ) ) ;
#308 = VECTOR ( 'NONE', #205, 1000.000000000000000 ) ;
#309 = AXIS2_PLACEMENT_3D ( 'NONE', #640, #701, #360 ) ;
#310 = ORIENTED_EDGE ( 'NONE', *, *, #105, .T. ) ;
#311 = CIRCLE ( 'NONE', #607, 1.699999999999965539 ) ;
#312 = AXIS2_PLACEMENT_3D ( 'NONE', #483, #704, #9 ) ;
#313 = DIRECTION ( 'NONE',  ( 0.000000000000000000, 0.000000000000000000, -1.000000000000000000 ) ) ;
#314 = CARTESIAN_POINT ( 'NONE',  ( -80.00000000000000000, -8.000000000000010658, 119.7500000000000426 ) ) ;
#315 = ORIENTED_EDGE ( 'NONE', *, *, #48, .T. ) ;
#316 = DIRECTION ( 'NONE',  ( 0.000000000000000000, 0.000000000000000000, 1.000000000000000000 ) ) ;
#317 = EDGE_CURVE ( 'NONE', #528, #335, #35, .T. ) ;
#318 = CARTESIAN_POINT ( 'NONE',  ( 0.000000000000000000, 0.000000000000000000, 0.000000000000000000 ) ) ;
#319 = CARTESIAN_POINT ( 'NONE',  ( -80.00000000000000000, -8.000000000000010658, 0.000000000000000000 ) ) ;
#320 = CARTESIAN_POINT ( 'NONE',  ( -94.75000000000002842, -15.00000000000000000, -119.7499999999999858 ) ) ;
#321 = EDGE_CURVE ( 'NONE', #596, #54, #246, .T. ) ;
#322 = LINE ( 'NONE', #145, #274 ) ;
#323 = DIRECTION ( 'NONE',  ( -0.000000000000000000, -0.000000000000000000, 1.000000000000000000 ) ) ;
#324 = AXIS2_PLACEMENT_3D ( 'NONE', #751, #94, #691 ) ;
#325 = ORIENTED_EDGE ( 'NONE', *, *, #470, .F. ) ;
#326 = APPLICATION_PROTOCOL_DEFINITION ( 'draft international standard', 'automotive_design', 1998, #714 ) ;
#327 = DIRECTION ( 'NONE',  ( -0.000000000000000000, 0.000000000000000000, 1.000000000000000000 ) ) ;
#328 = EDGE_LOOP ( 'NONE', ( #626, #408, #468, #388 ) ) ;
#329 = LINE ( 'NONE', #272, #308 ) ;
#330 = CARTESIAN_POINT ( 'NONE',  ( 89.74999999999998579, -15.00000000000000000, -114.7499999999999716 ) ) ;
#331 = EDGE_CURVE ( 'NONE', #257, #414, #215, .T. ) ;
#332 = VERTEX_POINT ( 'NONE', #390 ) ;
#333 = LINE ( 'NONE', #631, #475 ) ;
#334 = DIRECTION ( 'NONE',  ( -1.000000000000000000, 0.000000000000000000, 1.738345028118721253E-16 ) ) ;
#335 = VERTEX_POINT ( 'NONE', #671 ) ;
#336 = EDGE_CURVE ( 'NONE', #42, #414, #329, .T. ) ;
#337 =( NAMED_UNIT ( * ) SI_UNIT ( $, .STERADIAN. ) SOLID_ANGLE_UNIT ( ) );
#338 = CIRCLE ( 'NONE', #266, 1.699999999999965539 ) ;
#339 = CARTESIAN_POINT ( 'NONE',  ( 1.774346686291597951E-14, -15.00000000000000000, 114.7500000000000142 ) ) ;
#340 = ORIENTED_EDGE ( 'NONE', *, *, #754, .F. ) ;
#341 = CARTESIAN_POINT ( 'NONE',  ( -94.75000000000002842, -15.00000000000000000, 119.7500000000000426 ) ) ;
#342 = EDGE_CURVE ( 'NONE', #56, #536, #681, .T. ) ;
#343 = VERTEX_POINT ( 'NONE', #20 ) ;
#344 = PRESENTATION_STYLE_ASSIGNMENT (( #104 ) ) ;
#345 = DIRECTION ( 'NONE',  ( -1.000000000000000000, 0.000000000000000000, 0.000000000000000000 ) ) ;
#346 = ORIENTED_EDGE ( 'NONE', *, *, #61, .T. ) ;
#347 = VECTOR ( 'NONE', #241, 1000.000000000000000 ) ;
#348 = CARTESIAN_POINT ( 'NONE',  ( -81.69999999999996021, -8.000000000000010658, -119.7499999999999858 ) ) ;
#349 = AXIS2_PLACEMENT_3D ( 'NONE', #124, #595, #655 ) ;
#350 = EDGE_CURVE ( 'NONE', #731, #56, #90, .T. ) ;
#351 = VECTOR ( 'NONE', #60, 1000.000000000000000 ) ;
#352 = COLOUR_RGB ( '',0.7921568627450980005, 0.8196078431372548767, 0.9333333333333333481 ) ;
#353 = ORIENTED_EDGE ( 'NONE', *, *, #478, .T. ) ;
#354 = CARTESIAN_POINT ( 'NONE',  ( 80.00000000000000000, -7.999999999999991118, -114.7499999999999716 ) ) ;
#355 = PRODUCT_RELATED_PRODUCT_CATEGORY ( 'part', '', ( #86 ) ) ;
#356 = VERTEX_POINT ( 'NONE', #32 ) ;
#357 = LINE ( 'NONE', #64, #351 ) ;
#358 = VERTEX_POINT ( 'NONE', #256 ) ;
#359 = FACE_BOUND ( 'NONE', #759, .T. ) ;
#360 = DIRECTION ( 'NONE',  ( 1.000000000000000000, 0.000000000000000000, 0.000000000000000000 ) ) ;
#361 = VERTEX_POINT ( 'NONE', #501 ) ;
#362 = CARTESIAN_POINT ( 'NONE',  ( -94.75000000000002842, 0.000000000000000000, -0.000000000000000000 ) ) ;
#363 = ADVANCED_FACE ( 'NONE', ( #747 ), #131, .T. ) ;
#364 = LINE ( 'NONE', #286, #11 ) ;
#365 = ORIENTED_EDGE ( 'NONE', *, *, #539, .F. ) ;
#366 = ORIENTED_EDGE ( 'NONE', *, *, #466, .T. ) ;
#367 = PLANE ( 'NONE',  #150 ) ;
#368 = CARTESIAN_POINT ( 'NONE',  ( -89.75000000000001421, -15.00000000000000000, 0.000000000000000000 ) ) ;
#369 = CARTESIAN_POINT ( 'NONE',  ( 80.00000000000000000, -7.999999999999991118, 114.7500000000000000 ) ) ;
#370 = CARTESIAN_POINT ( 'NONE',  ( -94.75000000000002842, -15.00000000000000000, 0.000000000000000000 ) ) ;
#371 = CIRCLE ( 'NONE', #472, 1.699999999999965539 ) ;
#372 = AXIS2_PLACEMENT_3D ( 'NONE', #71, #134, #254 ) ;
#373 = DIRECTION ( 'NONE',  ( -1.000000000000000000, 0.000000000000000000, 0.000000000000000000 ) ) ;
#374 = EDGE_CURVE ( 'NONE', #77, #516, #322, .T. ) ;
#375 = EDGE_LOOP ( 'NONE', ( #366, #581, #156, #592 ) ) ;
#376 = VECTOR ( 'NONE', #657, 1000.000000000000000 ) ;
#377 = DIRECTION ( 'NONE',  ( -0.000000000000000000, 0.000000000000000000, 1.000000000000000000 ) ) ;
#378 = CARTESIAN_POINT ( 'NONE',  ( -99.75000000000001421, 5.000000000000000000, -124.7499999999999858 ) ) ;
#379 = EDGE_CURVE ( 'NONE', #741, #536, #385, .T. ) ;
#380 = EDGE_LOOP ( 'NONE', ( #22, #656 ) ) ;
#381 = CYLINDRICAL_SURFACE ( 'NONE', #290, 1.699999999999965539 ) ;
#382 = DIRECTION ( 'NONE',  ( -1.000000000000000000, 0.000000000000000000, 0.000000000000000000 ) ) ;
#383 = ORIENTED_EDGE ( 'NONE', *, *, #331, .T. ) ;
#384 =( NAMED_UNIT ( * ) PLANE_ANGLE_UNIT ( ) SI_UNIT ( $, .RADIAN. ) );
#385 = LINE ( 'NONE', #28, #705 ) ;
#386 = LINE ( 'NONE', #444, #523 ) ;
#387 = VECTOR ( 'NONE', #573, 1000.000000000000000 ) ;
#388 = ORIENTED_EDGE ( 'NONE', *, *, #374, .T. ) ;
#389 = CARTESIAN_POINT ( 'NONE',  ( -78.30000000000003979, -8.000000000000010658, 119.7500000000000426 ) ) ;
#390 = CARTESIAN_POINT ( 'NONE',  ( 81.69999999999996021, -7.999999999999991118, -114.7499999999999716 ) ) ;
#391 = VECTOR ( 'NONE', #126, 1000.000000000000000 ) ;
#392 = VECTOR ( 'NONE', #695, 1000.000000000000000 ) ;
#393 = DIRECTION ( 'NONE',  ( 1.000000000000000000, 0.000000000000000000, -5.562239602330444217E-17 ) ) ;
#394 = ORIENTED_EDGE ( 'NONE', *, *, #374, .F. ) ;
#395 = CARTESIAN_POINT ( 'NONE',  ( -78.30000000000003979, -8.000000000000010658, 0.000000000000000000 ) ) ;
#396 = VERTEX_POINT ( 'NONE', #269 ) ;
#397 = DIRECTION ( 'NONE',  ( 1.000000000000000000, 0.000000000000000000, 0.000000000000000000 ) ) ;
#398 = LINE ( 'NONE', #87, #387 ) ;
#399 = VERTEX_POINT ( 'NONE', #509 ) ;
#400 = DIRECTION ( 'NONE',  ( 1.738345028118721253E-16, 0.000000000000000000, 1.000000000000000000 ) ) ;
#401 = FACE_OUTER_BOUND ( 'NONE', #675, .T. ) ;
#402 = EDGE_LOOP ( 'NONE', ( #293, #465, #142, #727 ) ) ;
#403 = FACE_OUTER_BOUND ( 'NONE', #703, .T. ) ;
#404 = CARTESIAN_POINT ( 'NONE',  ( -94.75000000000002842, -15.00000000000000000, -0.000000000000000000 ) ) ;
#405 = EDGE_LOOP ( 'NONE', ( #533, #45 ) ) ;
#406 = CARTESIAN_POINT ( 'NONE',  ( -99.75000000000002842, 0.000000000000000000, 124.7500000000000426 ) ) ;
#407 = EDGE_CURVE ( 'NONE', #423, #4, #371, .T. ) ;
#408 = ORIENTED_EDGE ( 'NONE', *, *, #379, .F. ) ;
#409 = AXIS2_PLACEMENT_3D ( 'NONE', #66, #242, #422 ) ;
#410 = FACE_BOUND ( 'NONE', #559, .T. ) ;
#411 = CIRCLE ( 'NONE', #73, 1.699999999999965539 ) ;
#412 = ADVANCED_FACE ( 'NONE', ( #676 ), #74, .T. ) ;
#413 = CIRCLE ( 'NONE', #721, 1.699999999999965539 ) ;
#414 = VERTEX_POINT ( 'NONE', #618 ) ;
#415 = LINE ( 'NONE', #417, #687 ) ;
#416 = ORIENTED_EDGE ( 'NONE', *, *, #239, .F. ) ;
#417 = CARTESIAN_POINT ( 'NONE',  ( 81.69999999999996021, -7.999999999999991118, 0.000000000000000000 ) ) ;
#418 = CARTESIAN_POINT ( 'NONE',  ( -81.69999999999996021, -8.000000000000010658, 0.000000000000000000 ) ) ;
#419 = ORIENTED_EDGE ( 'NONE', *, *, #163, .F. ) ;
#420 = ADVANCED_FACE ( 'NONE', ( #611 ), #667, .F. ) ;
#421 = DIRECTION ( 'NONE',  ( -0.000000000000000000, 0.000000000000000000, 1.000000000000000000 ) ) ;
#422 = DIRECTION ( 'NONE',  ( 1.000000000000000000, 0.000000000000000000, 0.000000000000000000 ) ) ;
#423 = VERTEX_POINT ( 'NONE', #564 ) ;
#424 = FACE_BOUND ( 'NONE', #194, .T. ) ;
#425 = CARTESIAN_POINT ( 'NONE',  ( -89.75000000000001421, 0.000000000000000000, 114.7500000000000284 ) ) ;
#426 = FACE_OUTER_BOUND ( 'NONE', #694, .T. ) ;
#427 = ORIENTED_EDGE ( 'NONE', *, *, #186, .T. ) ;
#428 = CARTESIAN_POINT ( 'NONE',  ( 0.000000000000000000, -15.00000000000000000, 0.000000000000000000 ) ) ;
#429 = CARTESIAN_POINT ( 'NONE',  ( -89.75000000000001421, 0.000000000000000000, -114.7499999999999716 ) ) ;
#430 = CARTESIAN_POINT ( 'NONE',  ( -81.69999999999996021, -8.000000000000010658, -114.7499999999999716 ) ) ;
#431 = ORIENTED_EDGE ( 'NONE', *, *, #678, .T. ) ;
#432 = CARTESIAN_POINT ( 'NONE',  ( -80.00000000000000000, -8.000000000000010658, 114.7500000000000284 ) ) ;
#433 = DIRECTION ( 'NONE',  ( -0.000000000000000000, 0.000000000000000000, 1.000000000000000000 ) ) ;
#434 = AXIS2_PLACEMENT_3D ( 'NONE', #369, #601, #373 ) ;
#435 = DIRECTION ( 'NONE',  ( 1.738345028118721253E-16, 0.000000000000000000, 1.000000000000000000 ) ) ;
#436 = ORIENTED_EDGE ( 'NONE', *, *, #650, .F. ) ;
#437 = DIRECTION ( 'NONE',  ( -1.000000000000000000, 0.000000000000000000, 0.000000000000000000 ) ) ;
#438 = CARTESIAN_POINT ( 'NONE',  ( 80.00000000000000000, -7.999999999999991118, -119.7499999999999858 ) ) ;
#439 = FACE_BOUND ( 'NONE', #112, .T. ) ;
#440 = ADVANCED_FACE ( 'NONE', ( #553, #29 ), #78, .F. ) ;
#441 = ORIENTED_EDGE ( 'NONE', *, *, #624, .F. ) ;
#442 = DIRECTION ( 'NONE',  ( 1.000000000000000000, 0.000000000000000000, 0.000000000000000000 ) ) ;
#443 = DIRECTION ( 'NONE',  ( -1.000000000000000000, 0.000000000000000000, 1.391256923089168273E-16 ) ) ;
#444 = CARTESIAN_POINT ( 'NONE',  ( -78.30000000000003979, -8.000000000000010658, 0.000000000000000000 ) ) ;
#445 = ORIENTED_EDGE ( 'NONE', *, *, #317, .F. ) ;
#446 = FACE_OUTER_BOUND ( 'NONE', #503, .T. ) ;
#447 = ADVANCED_FACE ( 'NONE', ( #260 ), #381, .F. ) ;
#448 = CARTESIAN_POINT ( 'NONE',  ( -80.00000000000000000, -8.000000000000010658, 0.000000000000000000 ) ) ;
#449 = AXIS2_PLACEMENT_3D ( 'NONE', #195, #433, #497 ) ;
#450 = PLANE ( 'NONE',  #548 ) ;
#451 = EDGE_LOOP ( 'NONE', ( #545, #585, #162, #275 ) ) ;
#452 = SURFACE_SIDE_STYLE ('',( #221 ) ) ;
#453 =( GEOMETRIC_REPRESENTATION_CONTEXT ( 3 ) GLOBAL_UNCERTAINTY_ASSIGNED_CONTEXT ( ( #30 ) ) GLOBAL_UNIT_ASSIGNED_CONTEXT ( ( #46, #98, #337 ) ) REPRESENTATION_CONTEXT ( 'NONE', 'WORKASPACE' ) );
#454 = CARTESIAN_POINT ( 'NONE',  ( 94.75000000000002842, -15.00000000000000000, 119.7500000000000142 ) ) ;
#455 = ORIENTED_EDGE ( 'NONE', *, *, #222, .F. ) ;
#456 = DIRECTION ( 'NONE',  ( -0.000000000000000000, -0.000000000000000000, 1.000000000000000000 ) ) ;
#457 = CARTESIAN_POINT ( 'NONE',  ( 94.74999999999997158, -15.00000000000000000, -119.7499999999999858 ) ) ;
#458 = EDGE_LOOP ( 'NONE', ( #230, #455, #72, #508 ) ) ;
#459 = LINE ( 'NONE', #463, #237 ) ;
#460 = FACE_BOUND ( 'NONE', #566, .T. ) ;
#461 = ADVANCED_FACE ( 'NONE', ( #524 ), #529, .T. ) ;
#462 = ORIENTED_EDGE ( 'NONE', *, *, #202, .T. ) ;
#463 = CARTESIAN_POINT ( 'NONE',  ( 94.75000000000000000, 0.000000000000000000, -1.647081914142488380E-14 ) ) ;
#464 = DIRECTION ( 'NONE',  ( 5.562239602330442984E-17, 0.000000000000000000, -1.000000000000000000 ) ) ;
#465 = ORIENTED_EDGE ( 'NONE', *, *, #85, .F. ) ;
#466 = EDGE_CURVE ( 'NONE', #613, #243, #459, .T. ) ;
#467 = PLANE ( 'NONE',  #674 ) ;
#468 = ORIENTED_EDGE ( 'NONE', *, *, #261, .T. ) ;
#469 = CARTESIAN_POINT ( 'NONE',  ( 0.000000000000000000, -15.00000000000000000, -119.7499999999999858 ) ) ;
#470 = EDGE_CURVE ( 'NONE', #4, #752, #760, .T. ) ;
#471 = ORIENTED_EDGE ( 'NONE', *, *, #196, .T. ) ;
#472 = AXIS2_PLACEMENT_3D ( 'NONE', #438, #327, #200 ) ;
#473 = DIRECTION ( 'NONE',  ( 0.000000000000000000, 0.000000000000000000, -1.000000000000000000 ) ) ;
#474 = AXIS2_PLACEMENT_3D ( 'NONE', #161, #323, #299 ) ;
#475 = VECTOR ( 'NONE', #642, 1000.000000000000000 ) ;
#476 = ORIENTED_EDGE ( 'NONE', *, *, #639, .F. ) ;
#477 = CARTESIAN_POINT ( 'NONE',  ( 1.774346686291597951E-14, -15.00000000000000000, 114.7500000000000142 ) ) ;
#478 = EDGE_CURVE ( 'NONE', #399, #18, #689, .T. ) ;
#479 = VERTEX_POINT ( 'NONE', #757 ) ;
#480 = DIRECTION ( 'NONE',  ( 1.000000000000000000, 0.000000000000000000, 0.000000000000000000 ) ) ;
#481 = DIRECTION ( 'NONE',  ( -0.000000000000000000, -0.000000000000000000, 1.000000000000000000 ) ) ;
#482 = DIRECTION ( 'NONE',  ( 1.000000000000000000, 0.000000000000000000, 0.000000000000000000 ) ) ;
#483 = CARTESIAN_POINT ( 'NONE',  ( 80.00000000000000000, -7.999999999999991118, 0.000000000000000000 ) ) ;
#484 = LINE ( 'NONE', #720, #644 ) ;
#485 = DIRECTION ( 'NONE',  ( -1.000000000000000000, 0.000000000000000000, 0.000000000000000000 ) ) ;
#486 = AXIS2_PLACEMENT_3D ( 'NONE', #700, #36, #282 ) ;
#487 = CARTESIAN_POINT ( 'NONE',  ( 99.74999999999998579, 5.000000000000000000, -124.7499999999999858 ) ) ;
#488 = EDGE_CURVE ( 'NONE', #536, #516, #333, .T. ) ;
#489 = CARTESIAN_POINT ( 'NONE',  ( 89.74999999999998579, -15.00000000000000000, -114.7499999999999716 ) ) ;
#490 = ORIENTED_EDGE ( 'NONE', *, *, #488, .T. ) ;
#491 = DIRECTION ( 'NONE',  ( 0.000000000000000000, 1.000000000000000000, 0.000000000000000000 ) ) ;
#492 = EDGE_CURVE ( 'NONE', #516, #26, #160, .T. ) ;
#493 = DIRECTION ( 'NONE',  ( 0.000000000000000000, 0.000000000000000000, -1.000000000000000000 ) ) ;
#494 = LINE ( 'NONE', #489, #235 ) ;
#495 = ORIENTED_EDGE ( 'NONE', *, *, #624, .T. ) ;
#496 = CARTESIAN_POINT ( 'NONE',  ( 99.75000000000001421, 5.000000000000000000, 124.7500000000000142 ) ) ;
#497 = DIRECTION ( 'NONE',  ( 1.000000000000000000, 0.000000000000000000, 0.000000000000000000 ) ) ;
#498 = ORIENTED_EDGE ( 'NONE', *, *, #746, .F. ) ;
#499 = ORIENTED_EDGE ( 'NONE', *, *, #105, .F. ) ;
#500 = DIRECTION ( 'NONE',  ( 0.000000000000000000, 0.000000000000000000, 1.000000000000000000 ) ) ;
#501 = CARTESIAN_POINT ( 'NONE',  ( -89.75000000000001421, -15.00000000000000000, 114.7500000000000284 ) ) ;
#502 = ADVANCED_FACE ( 'NONE', ( #753 ), #467, .T. ) ;
#503 = EDGE_LOOP ( 'NONE', ( #476, #579, #353, #346 ) ) ;
#504 = FACE_OUTER_BOUND ( 'NONE', #184, .T. ) ;
#505 = VECTOR ( 'NONE', #89, 1000.000000000000000 ) ;
#506 = DIRECTION ( 'NONE',  ( 1.391256923089168273E-16, -0.000000000000000000, 1.000000000000000000 ) ) ;
#507 = DIRECTION ( 'NONE',  ( -0.000000000000000000, -0.000000000000000000, -1.000000000000000000 ) ) ;
#508 = ORIENTED_EDGE ( 'NONE', *, *, #321, .T. ) ;
#509 = CARTESIAN_POINT ( 'NONE',  ( 78.30000000000003979, -7.999999999999991118, 119.7500000000000142 ) ) ;
#510 = AXIS2_PLACEMENT_3D ( 'NONE', #368, #728, #493 ) ;
#511 = LINE ( 'NONE', #267, #183 ) ;
#512 = VECTOR ( 'NONE', #744, 1000.000000000000000 ) ;
#513 = ORIENTED_EDGE ( 'NONE', *, *, #557, .T. ) ;
#514 = AXIS2_PLACEMENT_3D ( 'NONE', #428, #23, #500 ) ;
#515 = FACE_BOUND ( 'NONE', #380, .T. ) ;
#516 = VERTEX_POINT ( 'NONE', #580 ) ;
#517 = LINE ( 'NONE', #301, #279 ) ;
#518 = EDGE_CURVE ( 'NONE', #332, #752, #338, .T. ) ;
#519 = DIRECTION ( 'NONE',  ( -1.000000000000000000, 0.000000000000000000, 1.546271622040608067E-16 ) ) ;
#520 = ORIENTED_EDGE ( 'NONE', *, *, #767, .T. ) ;
#521 = DIRECTION ( 'NONE',  ( 0.000000000000000000, 0.000000000000000000, -1.000000000000000000 ) ) ;
#522 = VERTEX_POINT ( 'NONE', #571 ) ;
#523 = VECTOR ( 'NONE', #507, 1000.000000000000000 ) ;
#524 = FACE_OUTER_BOUND ( 'NONE', #213, .T. ) ;
#525 = VECTOR ( 'NONE', #93, 1000.000000000000000 ) ;
#526 = CARTESIAN_POINT ( 'NONE',  ( 99.75000000000000000, 5.000000000000000000, -5.548334003324618038E-15 ) ) ;
#527 = ADVANCED_FACE ( 'NONE', ( #403 ), #284, .F. ) ;
#528 = VERTEX_POINT ( 'NONE', #348 ) ;
#529 = PLANE ( 'NONE',  #609 ) ;
#530 = MANIFOLD_SOLID_BREP ( 'Mirror1', #15 ) ;
#531 = EDGE_LOOP ( 'NONE', ( #325, #683, #232, #669 ) ) ;
#532 = CARTESIAN_POINT ( 'NONE',  ( 94.74999999999997158, -15.00000000000000000, -119.7499999999999858 ) ) ;
#533 = ORIENTED_EDGE ( 'NONE', *, *, #222, .T. ) ;
#534 = DIRECTION ( 'NONE',  ( -1.546271622040608067E-16, 0.000000000000000000, -1.000000000000000000 ) ) ;
#535 = AXIS2_PLACEMENT_3D ( 'NONE', #608, #248, #485 ) ;
#536 = VERTEX_POINT ( 'NONE', #406 ) ;
#537 = CARTESIAN_POINT ( 'NONE',  ( -78.30000000000003979, -8.000000000000010658, -114.7499999999999716 ) ) ;
#538 = DIRECTION ( 'NONE',  ( -1.464674174967224685E-16, 0.000000000000000000, -1.000000000000000000 ) ) ;
#539 = EDGE_CURVE ( 'NONE', #356, #147, #577, .T. ) ;
#540 = AXIS2_PLACEMENT_3D ( 'NONE', #143, #255, #442 ) ;
#541 = ORIENTED_EDGE ( 'NONE', *, *, #551, .F. ) ;
#542 = CARTESIAN_POINT ( 'NONE',  ( -89.75000000000001421, -15.00000000000000000, -0.000000000000000000 ) ) ;
#543 = LINE ( 'NONE', #418, #172 ) ;
#544 = CARTESIAN_POINT ( 'NONE',  ( 99.75000000000000000, 0.000000000000000000, -5.548334003324618038E-15 ) ) ;
#545 = ORIENTED_EDGE ( 'NONE', *, *, #576, .F. ) ;
#546 = CARTESIAN_POINT ( 'NONE',  ( -81.69999999999996021, -8.000000000000010658, 119.7500000000000426 ) ) ;
#547 = VECTOR ( 'NONE', #443, 1000.000000000000000 ) ;
#548 = AXIS2_PLACEMENT_3D ( 'NONE', #273, #334, #620 ) ;
#549 = VECTOR ( 'NONE', #724, 1000.000000000000000 ) ;
#550 = ORIENTED_EDGE ( 'NONE', *, *, #53, .T. ) ;
#551 = EDGE_CURVE ( 'NONE', #147, #575, #153, .T. ) ;
#552 = SHAPE_DEFINITION_REPRESENTATION ( #114, #5 ) ;
#553 = FACE_OUTER_BOUND ( 'NONE', #79, .T. ) ;
#554 = ORIENTED_EDGE ( 'NONE', *, *, #492, .T. ) ;
#555 = FACE_OUTER_BOUND ( 'NONE', #612, .T. ) ;
#556 = DIRECTION ( 'NONE',  ( 0.000000000000000000, 1.000000000000000000, -0.000000000000000000 ) ) ;
#557 = EDGE_CURVE ( 'NONE', #414, #295, #517, .T. ) ;
#558 = LINE ( 'NONE', #25, #758 ) ;
#559 = EDGE_LOOP ( 'NONE', ( #550, #291 ) ) ;
#560 = DIRECTION ( 'NONE',  ( -0.000000000000000000, -0.000000000000000000, -1.000000000000000000 ) ) ;
#561 = DIRECTION ( 'NONE',  ( -0.000000000000000000, -1.000000000000000000, -0.000000000000000000 ) ) ;
#562 = EDGE_CURVE ( 'NONE', #361, #358, #652, .T. ) ;
#563 = ORIENTED_EDGE ( 'NONE', *, *, #167, .F. ) ;
#564 = CARTESIAN_POINT ( 'NONE',  ( 81.69999999999996021, -7.999999999999991118, -119.7499999999999858 ) ) ;
#565 = LINE ( 'NONE', #454, #574 ) ;
#566 = EDGE_LOOP ( 'NONE', ( #283, #228 ) ) ;
#567 = CARTESIAN_POINT ( 'NONE',  ( 89.75000000000001421, -15.00000000000000000, 114.7500000000000000 ) ) ;
#568 = CARTESIAN_POINT ( 'NONE',  ( 1.735593011553737793E-14, 5.000000000000000000, 124.7500000000000284 ) ) ;
#569 = EDGE_CURVE ( 'NONE', #103, #257, #648, .T. ) ;
#570 = ORIENTED_EDGE ( 'NONE', *, *, #76, .T. ) ;
#571 = CARTESIAN_POINT ( 'NONE',  ( -94.75000000000002842, 0.000000000000000000, -119.7499999999999858 ) ) ;
#572 = AXIS2_PLACEMENT_3D ( 'NONE', #140, #506, #685 ) ;
#573 = DIRECTION ( 'NONE',  ( -0.000000000000000000, -0.000000000000000000, 1.000000000000000000 ) ) ;
#574 = VECTOR ( 'NONE', #280, 1000.000000000000000 ) ;
#575 = VERTEX_POINT ( 'NONE', #113 ) ;
#576 = EDGE_CURVE ( 'NONE', #257, #361, #711, .T. ) ;
#577 = LINE ( 'NONE', #587, #709 ) ;
#578 = DIRECTION ( 'NONE',  ( -1.546271622040608067E-16, 0.000000000000000000, -1.000000000000000000 ) ) ;
#579 = ORIENTED_EDGE ( 'NONE', *, *, #600, .F. ) ;
#580 = CARTESIAN_POINT ( 'NONE',  ( -99.75000000000001421, 0.000000000000000000, -124.7499999999999858 ) ) ;
#581 = ORIENTED_EDGE ( 'NONE', *, *, #118, .F. ) ;
#582 = ADVANCED_FACE ( 'NONE', ( #245 ), #597, .F. ) ;
#583 = AXIS2_PLACEMENT_3D ( 'NONE', #318, #556, #743 ) ;
#584 = LINE ( 'NONE', #404, #288 ) ;
#585 = ORIENTED_EDGE ( 'NONE', *, *, #569, .F. ) ;
#586 = AXIS2_PLACEMENT_3D ( 'NONE', #319, #17, #482 ) ;
#587 = CARTESIAN_POINT ( 'NONE',  ( 1.753947324523251795E-14, -15.00000000000000000, 119.7500000000000284 ) ) ;
#588 = ORIENTED_EDGE ( 'NONE', *, *, #717, .T. ) ;
#589 = FACE_BOUND ( 'NONE', #236, .T. ) ;
#590 = ORIENTED_EDGE ( 'NONE', *, *, #697, .T. ) ;
#591 = DIRECTION ( 'NONE',  ( -0.000000000000000000, 0.000000000000000000, 1.000000000000000000 ) ) ;
#592 = ORIENTED_EDGE ( 'NONE', *, *, #634, .T. ) ;
#593 = LINE ( 'NONE', #362, #391 ) ;
#594 = ADVANCED_FACE ( 'NONE', ( #410, #359, #185 ), #233, .F. ) ;
#595 = DIRECTION ( 'NONE',  ( -1.546271622040608067E-16, 0.000000000000000000, -1.000000000000000000 ) ) ;
#596 = VERTEX_POINT ( 'NONE', #537 ) ;
#597 = CYLINDRICAL_SURFACE ( 'NONE', #312, 1.699999999999965539 ) ;
#598 = ORIENTED_EDGE ( 'NONE', *, *, #276, .T. ) ;
#599 = CARTESIAN_POINT ( 'NONE',  ( 89.75000000000000000, -15.00000000000000000, -5.427152312642037385E-15 ) ) ;
#600 = EDGE_CURVE ( 'NONE', #399, #396, #413, .T. ) ;
#601 = DIRECTION ( 'NONE',  ( -1.546271622040608067E-16, 0.000000000000000000, -1.000000000000000000 ) ) ;
#602 = ORIENTED_EDGE ( 'NONE', *, *, #336, .T. ) ;
#603 = DIRECTION ( 'NONE',  ( -1.000000000000000000, 0.000000000000000000, 0.000000000000000000 ) ) ;
#604 = VECTOR ( 'NONE', #210, 1000.000000000000000 ) ;
#605 = DIRECTION ( 'NONE',  ( 0.000000000000000000, 0.000000000000000000, 1.000000000000000000 ) ) ;
#606 = CIRCLE ( 'NONE', #349, 1.699999999999965539 ) ;
#607 = AXIS2_PLACEMENT_3D ( 'NONE', #55, #534, #713 ) ;
#608 = CARTESIAN_POINT ( 'NONE',  ( -80.00000000000000000, -8.000000000000010658, 119.7500000000000426 ) ) ;
#609 = AXIS2_PLACEMENT_3D ( 'NONE', #43, #521, #157 ) ;
#610 = EDGE_LOOP ( 'NONE', ( #263, #38, #416, #441 ) ) ;
#611 = FACE_OUTER_BOUND ( 'NONE', #63, .T. ) ;
#612 = EDGE_LOOP ( 'NONE', ( #602, #513, #598, #462 ) ) ;
#613 = VERTEX_POINT ( 'NONE', #2 ) ;
#614 = EDGE_CURVE ( 'NONE', #575, #522, #593, .T. ) ;
#615 = CARTESIAN_POINT ( 'NONE',  ( 0.000000000000000000, 5.000000000000000000, 0.000000000000000000 ) ) ;
#616 = CARTESIAN_POINT ( 'NONE',  ( 89.74999999999998579, 0.000000000000000000, -114.7499999999999716 ) ) ;
#617 = PRODUCT_CONTEXT ( 'NONE', #714, 'mechanical' ) ;
#618 = CARTESIAN_POINT ( 'NONE',  ( 89.75000000000001421, 0.000000000000000000, 114.7500000000000000 ) ) ;
#619 = AXIS2_PLACEMENT_3D ( 'NONE', #314, #677, #382 ) ;
#620 = DIRECTION ( 'NONE',  ( 1.738345028118721253E-16, 0.000000000000000000, 1.000000000000000000 ) ) ;
#621 = ORIENTED_EDGE ( 'NONE', *, *, #736, .T. ) ;
#622 = CARTESIAN_POINT ( 'NONE',  ( 1.753947324523251795E-14, 0.000000000000000000, 119.7500000000000284 ) ) ;
#623 = DIRECTION ( 'NONE',  ( 0.000000000000000000, 1.000000000000000000, 0.000000000000000000 ) ) ;
#624 = EDGE_CURVE ( 'NONE', #77, #756, #119, .T. ) ;
#625 = DIRECTION ( 'NONE',  ( 1.000000000000000000, -0.000000000000000000, 0.000000000000000000 ) ) ;
#626 = ORIENTED_EDGE ( 'NONE', *, *, #488, .F. ) ;
#627 = DIRECTION ( 'NONE',  ( 0.000000000000000000, 1.000000000000000000, 0.000000000000000000 ) ) ;
#628 = CARTESIAN_POINT ( 'NONE',  ( 0.000000000000000000, -15.00000000000000000, -114.7499999999999716 ) ) ;
#629 = ADVANCED_FACE ( 'NONE', ( #424, #589, #662 ), #367, .T. ) ;
#630 = ORIENTED_EDGE ( 'NONE', *, *, #466, .F. ) ;
#631 = CARTESIAN_POINT ( 'NONE',  ( -99.75000000000001421, 0.000000000000000000, -5.548334003324617250E-15 ) ) ;
#632 = AXIS2_PLACEMENT_3D ( 'NONE', #47, #538, #345 ) ;
#633 = ORIENTED_EDGE ( 'NONE', *, *, #158, .F. ) ;
#634 = EDGE_CURVE ( 'NONE', #139, #613, #175, .T. ) ;
#635 = CARTESIAN_POINT ( 'NONE',  ( -99.75000000000001421, 5.000000000000000000, -5.548334003324617250E-15 ) ) ;
#636 = ORIENTED_EDGE ( 'NONE', *, *, #746, .T. ) ;
#637 = FILL_AREA_STYLE ('',( #164 ) ) ;
#638 = PRODUCT_DEFINITION_FORMATION_WITH_SPECIFIED_SOURCE ( 'ANY', '', #86, .NOT_KNOWN. ) ;
#639 = EDGE_CURVE ( 'NONE', #396, #673, #415, .T. ) ;
#640 = CARTESIAN_POINT ( 'NONE',  ( -80.00000000000000000, -8.000000000000010658, -119.7499999999999858 ) ) ;
#641 = EDGE_LOOP ( 'NONE', ( #636, #541, #365, #208 ) ) ;
#642 = DIRECTION ( 'NONE',  ( 5.562239602330442984E-17, 0.000000000000000000, -1.000000000000000000 ) ) ;
#643 = UNCERTAINTY_MEASURE_WITH_UNIT (LENGTH_MEASURE( 1.000000000000000082E-05 ), #666, 'distance_accuracy_value', 'NONE');
#644 = VECTOR ( 'NONE', #187, 1000.000000000000000 ) ;
#645 = ORIENTED_EDGE ( 'NONE', *, *, #614, .T. ) ;
#646 = CIRCLE ( 'NONE', #309, 1.699999999999965539 ) ;
#647 = AXIS2_PLACEMENT_3D ( 'NONE', #432, #264, #603 ) ;
#648 = LINE ( 'NONE', #599, #649 ) ;
#649 = VECTOR ( 'NONE', #766, 1000.000000000000000 ) ;
#650 = EDGE_CURVE ( 'NONE', #679, #479, #357, .T. ) ;
#651 = ORIENTED_EDGE ( 'NONE', *, *, #239, .T. ) ;
#652 = LINE ( 'NONE', #542, #16 ) ;
#653 = EDGE_LOOP ( 'NONE', ( #189, #152, #651, #180 ) ) ;
#654 = DIRECTION ( 'NONE',  ( -1.464674174967224685E-16, 0.000000000000000000, -1.000000000000000000 ) ) ;
#655 = DIRECTION ( 'NONE',  ( -1.000000000000000000, 0.000000000000000000, 0.000000000000000000 ) ) ;
#656 = ORIENTED_EDGE ( 'NONE', *, *, #697, .F. ) ;
#657 = DIRECTION ( 'NONE',  ( -1.000000000000000000, 0.000000000000000000, 1.546271622040608067E-16 ) ) ;
#658 = CIRCLE ( 'NONE', #619, 1.699999999999965539 ) ;
#659 = CARTESIAN_POINT ( 'NONE',  ( 89.75000000000001421, -15.00000000000000000, 114.7500000000000000 ) ) ;
#660 = CARTESIAN_POINT ( 'NONE',  ( 99.74999999999998579, 0.000000000000000000, -124.7499999999999858 ) ) ;
#661 = ORIENTED_EDGE ( 'NONE', *, *, #518, .F. ) ;
#662 = FACE_OUTER_BOUND ( 'NONE', #765, .T. ) ;
#663 = FACE_OUTER_BOUND ( 'NONE', #402, .T. ) ;
#664 = DIRECTION ( 'NONE',  ( -1.000000000000000000, 0.000000000000000000, 6.046966365060766585E-17 ) ) ;
#665 = ORIENTED_EDGE ( 'NONE', *, *, #85, .T. ) ;
#666 =( LENGTH_UNIT ( ) NAMED_UNIT ( * ) SI_UNIT ( .MILLI., .METRE. ) );
#667 = PLANE ( 'NONE',  #146 ) ;
#668 = FACE_OUTER_BOUND ( 'NONE', #88, .T. ) ;
#669 = ORIENTED_EDGE ( 'NONE', *, *, #518, .T. ) ;
#670 = APPLICATION_PROTOCOL_DEFINITION ( 'draft international standard', 'automotive_design', 1998, #302 ) ;
#671 = CARTESIAN_POINT ( 'NONE',  ( -78.30000000000003979, -8.000000000000010658, -119.7499999999999858 ) ) ;
#672 = CIRCLE ( 'NONE', #535, 1.699999999999965539 ) ;
#673 = VERTEX_POINT ( 'NONE', #298 ) ;
#674 = AXIS2_PLACEMENT_3D ( 'NONE', #635, #224, #52 ) ;
#675 = EDGE_LOOP ( 'NONE', ( #174, #710, #177, #665 ) ) ;
#676 = FACE_OUTER_BOUND ( 'NONE', #287, .T. ) ;
#677 = DIRECTION ( 'NONE',  ( -1.464674174967224685E-16, 0.000000000000000000, -1.000000000000000000 ) ) ;
#678 = EDGE_CURVE ( 'NONE', #737, #139, #57, .T. ) ;
#679 = VERTEX_POINT ( 'NONE', #546 ) ;
#680 = CARTESIAN_POINT ( 'NONE',  ( 99.74999999999998579, 5.000000000000000000, -124.7499999999999858 ) ) ;
#681 = LINE ( 'NONE', #739, #547 ) ;
#682 = PLANE ( 'NONE',  #110 ) ;
#683 = ORIENTED_EDGE ( 'NONE', *, *, #407, .F. ) ;
#684 = CARTESIAN_POINT ( 'NONE',  ( 80.00000000000000000, -7.999999999999991118, 0.000000000000000000 ) ) ;
#685 = DIRECTION ( 'NONE',  ( 1.000000000000000000, 0.000000000000000000, -1.391256923089168273E-16 ) ) ;
#686 = VECTOR ( 'NONE', #270, 1000.000000000000000 ) ;
#687 = VECTOR ( 'NONE', #307, 1000.000000000000000 ) ;
#688 = ORIENTED_EDGE ( 'NONE', *, *, #191, .F. ) ;
#689 = LINE ( 'NONE', #277, #525 ) ;
#690 = EDGE_CURVE ( 'NONE', #752, #332, #95, .T. ) ;
#691 = DIRECTION ( 'NONE',  ( 1.000000000000000000, 0.000000000000000000, 0.000000000000000000 ) ) ;
#692 = ORIENTED_EDGE ( 'NONE', *, *, #600, .T. ) ;
#693 = PLANE ( 'NONE',  #225 ) ;
#694 = EDGE_LOOP ( 'NONE', ( #49, #702, #13, #723 ) ) ;
#695 = DIRECTION ( 'NONE',  ( 1.000000000000000000, -0.000000000000000000, 0.000000000000000000 ) ) ;
#696 = DIRECTION ( 'NONE',  ( 0.000000000000000000, 1.000000000000000000, 0.000000000000000000 ) ) ;
#697 = EDGE_CURVE ( 'NONE', #673, #18, #311, .T. ) ;
#698 = ORIENTED_EDGE ( 'NONE', *, *, #53, .F. ) ;
#699 = PRESENTATION_LAYER_ASSIGNMENT (  '', '', ( #51 ) ) ;
#700 = CARTESIAN_POINT ( 'NONE',  ( 80.00000000000000000, -7.999999999999991118, 0.000000000000000000 ) ) ;
#701 = DIRECTION ( 'NONE',  ( -0.000000000000000000, 0.000000000000000000, 1.000000000000000000 ) ) ;
#702 = ORIENTED_EDGE ( 'NONE', *, *, #634, .F. ) ;
#703 = EDGE_LOOP ( 'NONE', ( #34, #31, #590, #97 ) ) ;
#704 = DIRECTION ( 'NONE',  ( -0.000000000000000000, -0.000000000000000000, 1.000000000000000000 ) ) ;
#705 = VECTOR ( 'NONE', #265, 1000.000000000000000 ) ;
#706 = ORIENTED_EDGE ( 'NONE', *, *, #614, .F. ) ;
#707 = AXIS2_PLACEMENT_3D ( 'NONE', #165, #106, #62 ) ;
#708 = CARTESIAN_POINT ( 'NONE',  ( 1.753947324523251795E-14, -15.00000000000000000, 119.7500000000000284 ) ) ;
#709 = VECTOR ( 'NONE', #292, 1000.000000000000000 ) ;
#710 = ORIENTED_EDGE ( 'NONE', *, *, #331, .F. ) ;
#711 = LINE ( 'NONE', #477, #376 ) ;
#712 = EDGE_LOOP ( 'NONE', ( #499, #698, #750, #471 ) ) ;
#713 = DIRECTION ( 'NONE',  ( -1.000000000000000000, 0.000000000000000000, 0.000000000000000000 ) ) ;
#714 = APPLICATION_CONTEXT ( 'automotive_design' ) ;
#715 = LINE ( 'NONE', #253, #136 ) ;
#716 = CARTESIAN_POINT ( 'NONE',  ( 89.75000000000000000, -15.00000000000000000, -5.427152312642037385E-15 ) ) ;
#717 = EDGE_CURVE ( 'NONE', #4, #423, #411, .T. ) ;
#718 = DIRECTION ( 'NONE',  ( -1.464674174967224685E-16, 0.000000000000000000, -1.000000000000000000 ) ) ;
#719 = VECTOR ( 'NONE', #192, 1000.000000000000000 ) ;
#720 = CARTESIAN_POINT ( 'NONE',  ( 0.000000000000000000, 0.000000000000000000, -119.7499999999999858 ) ) ;
#721 = AXIS2_PLACEMENT_3D ( 'NONE', #296, #654, #122 ) ;
#722 = CARTESIAN_POINT ( 'NONE',  ( 99.75000000000001421, 0.000000000000000000, 124.7500000000000142 ) ) ;
#723 = ORIENTED_EDGE ( 'NONE', *, *, #754, .T. ) ;
#724 = DIRECTION ( 'NONE',  ( -1.000000000000000000, 0.000000000000000000, 1.464674174967224685E-16 ) ) ;
#725 = FACE_OUTER_BOUND ( 'NONE', #92, .T. ) ;
#726 = ORIENTED_EDGE ( 'NONE', *, *, #321, .F. ) ;
#727 = ORIENTED_EDGE ( 'NONE', *, *, #158, .T. ) ;
#728 = DIRECTION ( 'NONE',  ( 1.000000000000000000, -0.000000000000000000, 0.000000000000000000 ) ) ;
#729 = ADVANCED_FACE ( 'NONE', ( #504, #268 ), #742, .F. ) ;
#730 = LINE ( 'NONE', #197, #83 ) ;
#731 = VERTEX_POINT ( 'NONE', #496 ) ;
#732 = CARTESIAN_POINT ( 'NONE',  ( -99.75000000000002842, 5.000000000000000000, 124.7500000000000426 ) ) ;
#733 = CARTESIAN_POINT ( 'NONE',  ( 99.75000000000001421, 5.000000000000000000, 124.7500000000000142 ) ) ;
#734 = ADVANCED_FACE ( 'NONE', ( #555 ), #738, .F. ) ;
#735 = ORIENTED_EDGE ( 'NONE', *, *, #154, .T. ) ;
#736 = EDGE_CURVE ( 'NONE', #343, #479, #111, .T. ) ;
#737 = VERTEX_POINT ( 'NONE', #320 ) ;
#738 = PLANE ( 'NONE',  #173 ) ;
#739 = CARTESIAN_POINT ( 'NONE',  ( 1.735593011553737793E-14, 0.000000000000000000, 124.7500000000000284 ) ) ;
#740 = CYLINDRICAL_SURFACE ( 'NONE', #474, 1.699999999999965539 ) ;
#741 = VERTEX_POINT ( 'NONE', #732 ) ;
#742 = PLANE ( 'NONE',  #514 ) ;
#743 = DIRECTION ( 'NONE',  ( 0.000000000000000000, 0.000000000000000000, 1.000000000000000000 ) ) ;
#744 = DIRECTION ( 'NONE',  ( -0.000000000000000000, -0.000000000000000000, 1.000000000000000000 ) ) ;
#745 = VERTEX_POINT ( 'NONE', #389 ) ;
#746 = EDGE_CURVE ( 'NONE', #243, #575, #259, .T. ) ;
#747 = FACE_OUTER_BOUND ( 'NONE', #610, .T. ) ;
#748 = DIRECTION ( 'NONE',  ( -5.562239602330444217E-17, 0.000000000000000000, -1.000000000000000000 ) ) ;
#749 = AXIS2_PLACEMENT_3D ( 'NONE', #708, #718, #181 ) ;
#750 = ORIENTED_EDGE ( 'NONE', *, *, #650, .T. ) ;
#751 = CARTESIAN_POINT ( 'NONE',  ( -80.00000000000000000, -8.000000000000010658, -114.7499999999999716 ) ) ;
#752 = VERTEX_POINT ( 'NONE', #250 ) ;
#753 = FACE_OUTER_BOUND ( 'NONE', #328, .T. ) ;
#754 = EDGE_CURVE ( 'NONE', #737, #522, #209, .T. ) ;
#755 = FACE_OUTER_BOUND ( 'NONE', #258, .T. ) ;
#756 = VERTEX_POINT ( 'NONE', #487 ) ;
#757 = CARTESIAN_POINT ( 'NONE',  ( -81.69999999999996021, -8.000000000000010658, 114.7500000000000284 ) ) ;
#758 = VECTOR ( 'NONE', #262, 1000.000000000000000 ) ;
#759 = EDGE_LOOP ( 'NONE', ( #692, #115 ) ) ;
#760 = LINE ( 'NONE', #229, #252 ) ;
#761 = CARTESIAN_POINT ( 'NONE',  ( -89.75000000000001421, 0.000000000000000000, -0.000000000000000000 ) ) ;
#762 = ORIENTED_EDGE ( 'NONE', *, *, #96, .T. ) ;
#763 = ADVANCED_FACE ( 'NONE', ( #446 ), #130, .F. ) ;
#764 = DIRECTION ( 'NONE',  ( -1.000000000000000000, 0.000000000000000000, 0.000000000000000000 ) ) ;
#765 = EDGE_LOOP ( 'NONE', ( #107, #633, #762, #315 ) ) ;
#766 = DIRECTION ( 'NONE',  ( 6.046966365060766585E-17, 0.000000000000000000, 1.000000000000000000 ) ) ;
#767 = EDGE_CURVE ( 'NONE', #756, #26, #148, .T. ) ;
ENDSEC;
END-ISO-10303-21;
