ISO-10303-21;
HEADER;
FILE_DESCRIPTION (( 'STEP AP214' ),
    '1' );
FILE_NAME ('GearSpacer.STEP',
    '2026-04-10T23:58:57',
    ( '' ),
    ( '' ),
    'SwSTEP 2.0',
    'SolidWorks 2025',
    '' );
FILE_SCHEMA (( 'AUTOMOTIVE_DESIGN' ));
ENDSEC;

DATA;
#1 = MECHANICAL_DESIGN_GEOMETRIC_PRESENTATION_REPRESENTATION (  '', ( #36 ), #157 ) ;
#2 = CARTESIAN_POINT ( 'NONE',  ( 0.000000000000000000, 0.000000000000000000, 0.000000000000000000 ) ) ;
#3 = MANIFOLD_SOLID_BREP ( 'Boss-Extrude1', #135 ) ;
#4 = DIRECTION ( 'NONE',  ( 0.000000000000000000, 0.000000000000000000, 1.000000000000000000 ) ) ;
#5 = VERTEX_POINT ( 'NONE', #154 ) ;
#6 = PRODUCT_DEFINITION_CONTEXT ( 'detailed design', #54, 'design' ) ;
#7 = ADVANCED_FACE ( 'NONE', ( #152 ), #113, .T. ) ;
#8 = EDGE_LOOP ( 'NONE', ( #161, #81, #162, #83 ) ) ;
#9 = AXIS2_PLACEMENT_3D ( 'NONE', #118, #185, #15 ) ;
#10 = ORIENTED_EDGE ( 'NONE', *, *, #150, .T. ) ;
#11 = ORIENTED_EDGE ( 'NONE', *, *, #191, .T. ) ;
#12 = CARTESIAN_POINT ( 'NONE',  ( -10.20000000000000284, 0.000000000000000000, 10.00000000000000000 ) ) ;
#13 = DIRECTION ( 'NONE',  ( 1.000000000000000000, 0.000000000000000000, 0.000000000000000000 ) ) ;
#14 =( NAMED_UNIT ( * ) PLANE_ANGLE_UNIT ( ) SI_UNIT ( $, .RADIAN. ) );
#15 = DIRECTION ( 'NONE',  ( 1.000000000000000000, 0.000000000000000000, 0.000000000000000000 ) ) ;
#16 = CIRCLE ( 'NONE', #82, 10.20000000000000284 ) ;
#17 = CARTESIAN_POINT ( 'NONE',  ( -6.200000000000000178, 0.000000000000000000, 0.000000000000000000 ) ) ;
#18 = SHAPE_DEFINITION_REPRESENTATION ( #34, #138 ) ;
#19 =( NAMED_UNIT ( * ) SI_UNIT ( $, .STERADIAN. ) SOLID_ANGLE_UNIT ( ) );
#20 = EDGE_CURVE ( 'NONE', #84, #38, #121, .T. ) ;
#21 = AXIS2_PLACEMENT_3D ( 'NONE', #31, #141, #123 ) ;
#22 = ORIENTED_EDGE ( 'NONE', *, *, #51, .T. ) ;
#23 = ORIENTED_EDGE ( 'NONE', *, *, #163, .T. ) ;
#24 = VERTEX_POINT ( 'NONE', #17 ) ;
#25 = ORIENTED_EDGE ( 'NONE', *, *, #67, .T. ) ;
#26 = UNCERTAINTY_MEASURE_WITH_UNIT (LENGTH_MEASURE( 1.000000000000000082E-05 ), #72, 'distance_accuracy_value', 'NONE');
#27 = CARTESIAN_POINT ( 'NONE',  ( 10.20000000000000284, 1.249139735130300562E-15, 0.000000000000000000 ) ) ;
#28 = CARTESIAN_POINT ( 'NONE',  ( 6.200000000000000178, 7.592810154713589835E-16, 10.00000000000000000 ) ) ;
#29 = LINE ( 'NONE', #116, #108 ) ;
#30 = CARTESIAN_POINT ( 'NONE',  ( 0.000000000000000000, 0.000000000000000000, 10.00000000000000000 ) ) ;
#31 = CARTESIAN_POINT ( 'NONE',  ( 0.000000000000000000, 0.000000000000000000, 10.00000000000000000 ) ) ;
#32 = PRODUCT_RELATED_PRODUCT_CATEGORY ( 'part', '', ( #166 ) ) ;
#33 = CARTESIAN_POINT ( 'NONE',  ( 0.000000000000000000, 0.000000000000000000, 0.000000000000000000 ) ) ;
#34 = PRODUCT_DEFINITION_SHAPE ( 'NONE', 'NONE',  #115 ) ;
#35 = CIRCLE ( 'NONE', #149, 10.20000000000000284 ) ;
#36 = STYLED_ITEM ( 'NONE', ( #197 ), #3 ) ;
#37 = EDGE_LOOP ( 'NONE', ( #22, #165, #111, #192 ) ) ;
#38 = VERTEX_POINT ( 'NONE', #85 ) ;
#39 = DIRECTION ( 'NONE',  ( -0.000000000000000000, -0.000000000000000000, -1.000000000000000000 ) ) ;
#40 = AXIS2_PLACEMENT_3D ( 'NONE', #151, #136, #125 ) ;
#41 = DIRECTION ( 'NONE',  ( -0.000000000000000000, -0.000000000000000000, -1.000000000000000000 ) ) ;
#42 = DIRECTION ( 'NONE',  ( -0.000000000000000000, -0.000000000000000000, -1.000000000000000000 ) ) ;
#43 = AXIS2_PLACEMENT_3D ( 'NONE', #2, #63, #199 ) ;
#44 = COLOUR_RGB ( '',0.7921568627450980005, 0.8196078431372548767, 0.9333333333333333481 ) ;
#45 = EDGE_CURVE ( 'NONE', #66, #167, #57, .T. ) ;
#46 = PLANE ( 'NONE',  #43 ) ;
#47 = CARTESIAN_POINT ( 'NONE',  ( 0.000000000000000000, 0.000000000000000000, 10.00000000000000000 ) ) ;
#48 = PRODUCT_DEFINITION_FORMATION_WITH_SPECIFIED_SOURCE ( 'ANY', '', #166, .NOT_KNOWN. ) ;
#49 = EDGE_LOOP ( 'NONE', ( #146, #23 ) ) ;
#50 = EDGE_LOOP ( 'NONE', ( #11, #98 ) ) ;
#51 = EDGE_CURVE ( 'NONE', #38, #84, #56, .T. ) ;
#52 = ORIENTED_EDGE ( 'NONE', *, *, #67, .F. ) ;
#53 = DIRECTION ( 'NONE',  ( -0.000000000000000000, -0.000000000000000000, -1.000000000000000000 ) ) ;
#54 = APPLICATION_CONTEXT ( 'automotive_design' ) ;
#55 = DIRECTION ( 'NONE',  ( 0.000000000000000000, 0.000000000000000000, 1.000000000000000000 ) ) ;
#56 = CIRCLE ( 'NONE', #133, 6.200000000000000178 ) ;
#57 = LINE ( 'NONE', #12, #105 ) ;
#58 = DIRECTION ( 'NONE',  ( 0.000000000000000000, 0.000000000000000000, 1.000000000000000000 ) ) ;
#59 = CYLINDRICAL_SURFACE ( 'NONE', #60, 10.20000000000000284 ) ;
#60 = AXIS2_PLACEMENT_3D ( 'NONE', #73, #41, #106 ) ;
#61 = DIRECTION ( 'NONE',  ( 0.000000000000000000, 0.000000000000000000, 1.000000000000000000 ) ) ;
#62 = PRESENTATION_LAYER_ASSIGNMENT (  '', '', ( #36 ) ) ;
#63 = DIRECTION ( 'NONE',  ( 0.000000000000000000, 0.000000000000000000, 1.000000000000000000 ) ) ;
#64 = APPLICATION_PROTOCOL_DEFINITION ( 'draft international standard', 'automotive_design', 1998, #168 ) ;
#65 = ORIENTED_EDGE ( 'NONE', *, *, #131, .F. ) ;
#66 = VERTEX_POINT ( 'NONE', #194 ) ;
#67 = EDGE_CURVE ( 'NONE', #167, #100, #35, .T. ) ;
#68 = ORIENTED_EDGE ( 'NONE', *, *, #187, .F. ) ;
#69 = AXIS2_PLACEMENT_3D ( 'NONE', #189, #156, #122 ) ;
#70 = DIRECTION ( 'NONE',  ( -0.000000000000000000, -0.000000000000000000, -1.000000000000000000 ) ) ;
#71 = LINE ( 'NONE', #90, #159 ) ;
#72 =( LENGTH_UNIT ( ) NAMED_UNIT ( * ) SI_UNIT ( .MILLI., .METRE. ) );
#73 = CARTESIAN_POINT ( 'NONE',  ( 0.000000000000000000, 0.000000000000000000, 10.00000000000000000 ) ) ;
#74 = DIRECTION ( 'NONE',  ( 1.000000000000000000, 0.000000000000000000, 0.000000000000000000 ) ) ;
#75 = FACE_OUTER_BOUND ( 'NONE', #128, .T. ) ;
#76 = AXIS2_PLACEMENT_3D ( 'NONE', #30, #70, #196 ) ;
#77 = DIRECTION ( 'NONE',  ( 1.000000000000000000, 0.000000000000000000, 0.000000000000000000 ) ) ;
#78 = CARTESIAN_POINT ( 'NONE',  ( 10.20000000000000284, 1.249139735130300562E-15, 10.00000000000000000 ) ) ;
#79 = ORIENTED_EDGE ( 'NONE', *, *, #124, .F. ) ;
#80 = EDGE_LOOP ( 'NONE', ( #65, #102, #10, #145 ) ) ;
#81 = ORIENTED_EDGE ( 'NONE', *, *, #124, .T. ) ;
#82 = AXIS2_PLACEMENT_3D ( 'NONE', #47, #61, #77 ) ;
#83 = ORIENTED_EDGE ( 'NONE', *, *, #45, .F. ) ;
#84 = VERTEX_POINT ( 'NONE', #28 ) ;
#85 = CARTESIAN_POINT ( 'NONE',  ( -6.200000000000000178, 0.000000000000000000, 10.00000000000000000 ) ) ;
#86 = CIRCLE ( 'NONE', #69, 10.20000000000000284 ) ;
#87 = CYLINDRICAL_SURFACE ( 'NONE', #40, 6.200000000000000178 ) ;
#88 = FACE_OUTER_BOUND ( 'NONE', #132, .T. ) ;
#89 = EDGE_CURVE ( 'NONE', #24, #5, #178, .T. ) ;
#90 = CARTESIAN_POINT ( 'NONE',  ( 6.200000000000000178, 7.592810154713589835E-16, 10.00000000000000000 ) ) ;
#91 = DIRECTION ( 'NONE',  ( 1.000000000000000000, 0.000000000000000000, 0.000000000000000000 ) ) ;
#92 = PRODUCT_CONTEXT ( 'NONE', #168, 'mechanical' ) ;
#93 = CARTESIAN_POINT ( 'NONE',  ( -10.20000000000000284, 0.000000000000000000, 0.000000000000000000 ) ) ;
#94 = DIRECTION ( 'NONE',  ( 1.000000000000000000, 0.000000000000000000, 0.000000000000000000 ) ) ;
#95 = DIRECTION ( 'NONE',  ( 0.000000000000000000, 0.000000000000000000, 1.000000000000000000 ) ) ;
#96 =( GEOMETRIC_REPRESENTATION_CONTEXT ( 3 ) GLOBAL_UNCERTAINTY_ASSIGNED_CONTEXT ( ( #104 ) ) GLOBAL_UNIT_ASSIGNED_CONTEXT ( ( #120, #110, #19 ) ) REPRESENTATION_CONTEXT ( 'NONE', 'WORKASPACE' ) );
#97 = FILL_AREA_STYLE ('',( #130 ) ) ;
#98 = ORIENTED_EDGE ( 'NONE', *, *, #177, .T. ) ;
#99 = ADVANCED_FACE ( 'NONE', ( #88 ), #59, .T. ) ;
#100 = VERTEX_POINT ( 'NONE', #27 ) ;
#101 = ORIENTED_EDGE ( 'NONE', *, *, #51, .F. ) ;
#102 = ORIENTED_EDGE ( 'NONE', *, *, #20, .T. ) ;
#103 = FACE_OUTER_BOUND ( 'NONE', #80, .T. ) ;
#104 = UNCERTAINTY_MEASURE_WITH_UNIT (LENGTH_MEASURE( 1.000000000000000082E-05 ), #120, 'distance_accuracy_value', 'NONE');
#105 = VECTOR ( 'NONE', #42, 1000.000000000000000 ) ;
#106 = DIRECTION ( 'NONE',  ( -1.000000000000000000, 0.000000000000000000, 0.000000000000000000 ) ) ;
#107 = FACE_BOUND ( 'NONE', #148, .T. ) ;
#108 = VECTOR ( 'NONE', #182, 1000.000000000000000 ) ;
#109 = CARTESIAN_POINT ( 'NONE',  ( 0.000000000000000000, 0.000000000000000000, 0.000000000000000000 ) ) ;
#110 =( NAMED_UNIT ( * ) PLANE_ANGLE_UNIT ( ) SI_UNIT ( $, .RADIAN. ) );
#111 = ORIENTED_EDGE ( 'NONE', *, *, #89, .F. ) ;
#112 = AXIS2_PLACEMENT_3D ( 'NONE', #169, #58, #119 ) ;
#113 = CYLINDRICAL_SURFACE ( 'NONE', #76, 10.20000000000000284 ) ;
#114 = CARTESIAN_POINT ( 'NONE',  ( 0.000000000000000000, 0.000000000000000000, 0.000000000000000000 ) ) ;
#115 = PRODUCT_DEFINITION ( 'UNKNOWN', '', #48, #6 ) ;
#116 = CARTESIAN_POINT ( 'NONE',  ( 10.20000000000000284, 1.249139735130300562E-15, 10.00000000000000000 ) ) ;
#117 = VECTOR ( 'NONE', #39, 1000.000000000000000 ) ;
#118 = CARTESIAN_POINT ( 'NONE',  ( 0.000000000000000000, 0.000000000000000000, 10.00000000000000000 ) ) ;
#119 = DIRECTION ( 'NONE',  ( 1.000000000000000000, 0.000000000000000000, -0.000000000000000000 ) ) ;
#120 =( LENGTH_UNIT ( ) NAMED_UNIT ( * ) SI_UNIT ( .MILLI., .METRE. ) );
#121 = CIRCLE ( 'NONE', #9, 6.200000000000000178 ) ;
#122 = DIRECTION ( 'NONE',  ( 1.000000000000000000, 0.000000000000000000, 0.000000000000000000 ) ) ;
#123 = DIRECTION ( 'NONE',  ( -1.000000000000000000, 0.000000000000000000, 0.000000000000000000 ) ) ;
#124 = EDGE_CURVE ( 'NONE', #180, #100, #29, .T. ) ;
#125 = DIRECTION ( 'NONE',  ( -1.000000000000000000, 0.000000000000000000, 0.000000000000000000 ) ) ;
#126 = ORIENTED_EDGE ( 'NONE', *, *, #20, .F. ) ;
#127 = CIRCLE ( 'NONE', #153, 6.200000000000000178 ) ;
#128 = EDGE_LOOP ( 'NONE', ( #52, #68 ) ) ;
#129 = ORIENTED_EDGE ( 'NONE', *, *, #45, .T. ) ;
#130 = FILL_AREA_STYLE_COLOUR ( '', #44 ) ;
#131 = EDGE_CURVE ( 'NONE', #84, #5, #71, .T. ) ;
#132 = EDGE_LOOP ( 'NONE', ( #79, #144, #129, #25 ) ) ;
#133 = AXIS2_PLACEMENT_3D ( 'NONE', #175, #134, #13 ) ;
#134 = DIRECTION ( 'NONE',  ( 0.000000000000000000, 0.000000000000000000, 1.000000000000000000 ) ) ;
#135 = CLOSED_SHELL ( 'NONE', ( #184, #7, #147, #174, #99, #158 ) ) ;
#136 = DIRECTION ( 'NONE',  ( -0.000000000000000000, -0.000000000000000000, -1.000000000000000000 ) ) ;
#137 = FACE_OUTER_BOUND ( 'NONE', #50, .T. ) ;
#138 = ADVANCED_BREP_SHAPE_REPRESENTATION ( 'GearSpacer', ( #3, #190 ), #96 ) ;
#139 = LINE ( 'NONE', #198, #117 ) ;
#140 = FACE_BOUND ( 'NONE', #49, .T. ) ;
#141 = DIRECTION ( 'NONE',  ( -0.000000000000000000, -0.000000000000000000, -1.000000000000000000 ) ) ;
#142 = CYLINDRICAL_SURFACE ( 'NONE', #21, 6.200000000000000178 ) ;
#143 = DIRECTION ( 'NONE',  ( 0.000000000000000000, 0.000000000000000000, 1.000000000000000000 ) ) ;
#144 = ORIENTED_EDGE ( 'NONE', *, *, #191, .F. ) ;
#145 = ORIENTED_EDGE ( 'NONE', *, *, #163, .F. ) ;
#146 = ORIENTED_EDGE ( 'NONE', *, *, #89, .T. ) ;
#147 = ADVANCED_FACE ( 'NONE', ( #137, #107 ), #195, .T. ) ;
#148 = EDGE_LOOP ( 'NONE', ( #101, #126 ) ) ;
#149 = AXIS2_PLACEMENT_3D ( 'NONE', #170, #55, #91 ) ;
#150 = EDGE_CURVE ( 'NONE', #38, #24, #139, .T. ) ;
#151 = CARTESIAN_POINT ( 'NONE',  ( 0.000000000000000000, 0.000000000000000000, 10.00000000000000000 ) ) ;
#152 = FACE_OUTER_BOUND ( 'NONE', #8, .T. ) ;
#153 = AXIS2_PLACEMENT_3D ( 'NONE', #155, #143, #176 ) ;
#154 = CARTESIAN_POINT ( 'NONE',  ( 6.200000000000000178, 7.592810154713589835E-16, 0.000000000000000000 ) ) ;
#155 = CARTESIAN_POINT ( 'NONE',  ( 0.000000000000000000, 0.000000000000000000, 0.000000000000000000 ) ) ;
#156 = DIRECTION ( 'NONE',  ( 0.000000000000000000, 0.000000000000000000, 1.000000000000000000 ) ) ;
#157 =( GEOMETRIC_REPRESENTATION_CONTEXT ( 3 ) GLOBAL_UNCERTAINTY_ASSIGNED_CONTEXT ( ( #26 ) ) GLOBAL_UNIT_ASSIGNED_CONTEXT ( ( #72, #14, #172 ) ) REPRESENTATION_CONTEXT ( 'NONE', 'WORKASPACE' ) );
#158 = ADVANCED_FACE ( 'NONE', ( #103 ), #87, .F. ) ;
#159 = VECTOR ( 'NONE', #53, 1000.000000000000000 ) ;
#160 = SURFACE_STYLE_FILL_AREA ( #97 ) ;
#161 = ORIENTED_EDGE ( 'NONE', *, *, #177, .F. ) ;
#162 = ORIENTED_EDGE ( 'NONE', *, *, #187, .T. ) ;
#163 = EDGE_CURVE ( 'NONE', #5, #24, #127, .T. ) ;
#164 = AXIS2_PLACEMENT_3D ( 'NONE', #109, #4, #94 ) ;
#165 = ORIENTED_EDGE ( 'NONE', *, *, #131, .T. ) ;
#166 = PRODUCT ( 'GearSpacer', 'GearSpacer', '', ( #92 ) ) ;
#167 = VERTEX_POINT ( 'NONE', #93 ) ;
#168 = APPLICATION_CONTEXT ( 'automotive_design' ) ;
#169 = CARTESIAN_POINT ( 'NONE',  ( 0.000000000000000000, 0.000000000000000000, 10.00000000000000000 ) ) ;
#170 = CARTESIAN_POINT ( 'NONE',  ( 0.000000000000000000, 0.000000000000000000, 0.000000000000000000 ) ) ;
#171 = CIRCLE ( 'NONE', #164, 10.20000000000000284 ) ;
#172 =( NAMED_UNIT ( * ) SI_UNIT ( $, .STERADIAN. ) SOLID_ANGLE_UNIT ( ) );
#173 = SURFACE_STYLE_USAGE ( .BOTH. , #193 ) ;
#174 = ADVANCED_FACE ( 'NONE', ( #75, #140 ), #46, .F. ) ;
#175 = CARTESIAN_POINT ( 'NONE',  ( 0.000000000000000000, 0.000000000000000000, 10.00000000000000000 ) ) ;
#176 = DIRECTION ( 'NONE',  ( 1.000000000000000000, 0.000000000000000000, 0.000000000000000000 ) ) ;
#177 = EDGE_CURVE ( 'NONE', #180, #66, #86, .T. ) ;
#178 = CIRCLE ( 'NONE', #181, 6.200000000000000178 ) ;
#179 = FACE_OUTER_BOUND ( 'NONE', #37, .T. ) ;
#180 = VERTEX_POINT ( 'NONE', #78 ) ;
#181 = AXIS2_PLACEMENT_3D ( 'NONE', #114, #183, #74 ) ;
#182 = DIRECTION ( 'NONE',  ( -0.000000000000000000, -0.000000000000000000, -1.000000000000000000 ) ) ;
#183 = DIRECTION ( 'NONE',  ( 0.000000000000000000, 0.000000000000000000, 1.000000000000000000 ) ) ;
#184 = ADVANCED_FACE ( 'NONE', ( #179 ), #142, .F. ) ;
#185 = DIRECTION ( 'NONE',  ( 0.000000000000000000, 0.000000000000000000, 1.000000000000000000 ) ) ;
#186 = DIRECTION ( 'NONE',  ( 1.000000000000000000, 0.000000000000000000, 0.000000000000000000 ) ) ;
#187 = EDGE_CURVE ( 'NONE', #100, #167, #171, .T. ) ;
#188 = APPLICATION_PROTOCOL_DEFINITION ( 'draft international standard', 'automotive_design', 1998, #54 ) ;
#189 = CARTESIAN_POINT ( 'NONE',  ( 0.000000000000000000, 0.000000000000000000, 10.00000000000000000 ) ) ;
#190 = AXIS2_PLACEMENT_3D ( 'NONE', #33, #95, #186 ) ;
#191 = EDGE_CURVE ( 'NONE', #66, #180, #16, .T. ) ;
#192 = ORIENTED_EDGE ( 'NONE', *, *, #150, .F. ) ;
#193 = SURFACE_SIDE_STYLE ('',( #160 ) ) ;
#194 = CARTESIAN_POINT ( 'NONE',  ( -10.20000000000000284, 0.000000000000000000, 10.00000000000000000 ) ) ;
#195 = PLANE ( 'NONE',  #112 ) ;
#196 = DIRECTION ( 'NONE',  ( -1.000000000000000000, 0.000000000000000000, 0.000000000000000000 ) ) ;
#197 = PRESENTATION_STYLE_ASSIGNMENT (( #173 ) ) ;
#198 = CARTESIAN_POINT ( 'NONE',  ( -6.200000000000000178, 0.000000000000000000, 10.00000000000000000 ) ) ;
#199 = DIRECTION ( 'NONE',  ( 1.000000000000000000, 0.000000000000000000, -0.000000000000000000 ) ) ;
ENDSEC;
END-ISO-10303-21;
