ISO-10303-21;
HEADER;
FILE_DESCRIPTION (( 'STEP AP214' ),
    '1' );
FILE_NAME ('Idler Gear Shaft.STEP',
    '2026-02-05T02:21:48',
    ( '' ),
    ( '' ),
    'SwSTEP 2.0',
    'SolidWorks 2025',
    '' );
FILE_SCHEMA (( 'AUTOMOTIVE_DESIGN' ));
ENDSEC;

DATA;
#1 = CARTESIAN_POINT ( 'NONE',  ( -3.999999999999999112, 0.000000000000000000, 130.0000000000000000 ) ) ;
#2 = ORIENTED_EDGE ( 'NONE', *, *, #192, .T. ) ;
#3 = AXIS2_PLACEMENT_3D ( 'NONE', #187, #116, #21 ) ;
#4 = CYLINDRICAL_SURFACE ( 'NONE', #163, 3.999999999999999112 ) ;
#5 = CARTESIAN_POINT ( 'NONE',  ( 0.000000000000000000, 0.000000000000000000, 130.0000000000000000 ) ) ;
#6 = DIRECTION ( 'NONE',  ( 0.000000000000000000, 0.000000000000000000, 1.000000000000000000 ) ) ;
#7 = CARTESIAN_POINT ( 'NONE',  ( -3.130999282975304165, 2.489345996443268039, 0.000000000000000000 ) ) ;
#8 = DIRECTION ( 'NONE',  ( -0.000000000000000000, -0.000000000000000000, 1.000000000000000000 ) ) ;
#9 = CARTESIAN_POINT ( 'NONE',  ( 3.130999282975303721, 2.489345996443268039, 0.000000000000000000 ) ) ;
#10 = DIRECTION ( 'NONE',  ( 1.000000000000000000, 0.000000000000000000, 0.000000000000000000 ) ) ;
#11 = CIRCLE ( 'NONE', #159, 3.999999999999999112 ) ;
#12 = VERTEX_POINT ( 'NONE', #189 ) ;
#13 =( GEOMETRIC_REPRESENTATION_CONTEXT ( 3 ) GLOBAL_UNCERTAINTY_ASSIGNED_CONTEXT ( ( #63 ) ) GLOBAL_UNIT_ASSIGNED_CONTEXT ( ( #26, #75, #59 ) ) REPRESENTATION_CONTEXT ( 'NONE', 'WORKASPACE' ) );
#14 = ADVANCED_FACE ( 'NONE', ( #174 ), #145, .T. ) ;
#15 = ORIENTED_EDGE ( 'NONE', *, *, #30, .F. ) ;
#16 = COLOUR_RGB ( '',0.7921568627450980005, 0.8196078431372548767, 0.9333333333333333481 ) ;
#17 = CYLINDRICAL_SURFACE ( 'NONE', #112, 3.999999999999999112 ) ;
#18 = ORIENTED_EDGE ( 'NONE', *, *, #86, .F. ) ;
#19 = LINE ( 'NONE', #57, #35 ) ;
#20 = LINE ( 'NONE', #83, #118 ) ;
#21 = DIRECTION ( 'NONE',  ( 1.000000000000000000, 0.000000000000000000, 0.000000000000000000 ) ) ;
#22 = DIRECTION ( 'NONE',  ( 0.000000000000000000, 0.000000000000000000, 1.000000000000000000 ) ) ;
#23 = CARTESIAN_POINT ( 'NONE',  ( 0.000000000000000000, 0.000000000000000000, 0.000000000000000000 ) ) ;
#24 = EDGE_CURVE ( 'NONE', #171, #80, #113, .T. ) ;
#25 = CARTESIAN_POINT ( 'NONE',  ( -3.999999999999999112, 0.000000000000000000, 130.0000000000000000 ) ) ;
#26 =( LENGTH_UNIT ( ) NAMED_UNIT ( * ) SI_UNIT ( .MILLI., .METRE. ) );
#27 = CLOSED_SHELL ( 'NONE', ( #76, #111, #14, #54, #138, #130 ) ) ;
#28 = PRODUCT_DEFINITION_CONTEXT ( 'detailed design', #141, 'design' ) ;
#29 = ORIENTED_EDGE ( 'NONE', *, *, #158, .F. ) ;
#30 = EDGE_CURVE ( 'NONE', #80, #12, #20, .T. ) ;
#31 = PRESENTATION_LAYER_ASSIGNMENT (  '', '', ( #51 ) ) ;
#32 = ORIENTED_EDGE ( 'NONE', *, *, #86, .T. ) ;
#33 = ORIENTED_EDGE ( 'NONE', *, *, #92, .F. ) ;
#34 = FACE_OUTER_BOUND ( 'NONE', #110, .T. ) ;
#35 = VECTOR ( 'NONE', #186, 1000.000000000000000 ) ;
#36 = DIRECTION ( 'NONE',  ( -0.000000000000000000, -0.000000000000000000, 1.000000000000000000 ) ) ;
#37 = DIRECTION ( 'NONE',  ( 0.000000000000000000, 0.000000000000000000, 1.000000000000000000 ) ) ;
#38 = VECTOR ( 'NONE', #8, 1000.000000000000000 ) ;
#39 = FILL_AREA_STYLE ('',( #177 ) ) ;
#40 = LINE ( 'NONE', #9, #38 ) ;
#41 = DIRECTION ( 'NONE',  ( 0.000000000000000000, 0.000000000000000000, 1.000000000000000000 ) ) ;
#42 = APPLICATION_PROTOCOL_DEFINITION ( 'draft international standard', 'automotive_design', 1998, #140 ) ;
#43 = DIRECTION ( 'NONE',  ( -0.000000000000000000, -0.000000000000000000, -1.000000000000000000 ) ) ;
#44 = DIRECTION ( 'NONE',  ( 0.000000000000000000, 0.000000000000000000, 1.000000000000000000 ) ) ;
#45 = CIRCLE ( 'NONE', #64, 3.999999999999999112 ) ;
#46 = ORIENTED_EDGE ( 'NONE', *, *, #120, .T. ) ;
#47 = VERTEX_POINT ( 'NONE', #72 ) ;
#48 = ORIENTED_EDGE ( 'NONE', *, *, #92, .T. ) ;
#49 = ORIENTED_EDGE ( 'NONE', *, *, #134, .F. ) ;
#50 = DIRECTION ( 'NONE',  ( -0.000000000000000000, -0.000000000000000000, -1.000000000000000000 ) ) ;
#51 = STYLED_ITEM ( 'NONE', ( #128 ), #106 ) ;
#52 = EDGE_CURVE ( 'NONE', #171, #139, #136, .T. ) ;
#53 = DIRECTION ( 'NONE',  ( -1.000000000000000000, 0.000000000000000000, 0.000000000000000000 ) ) ;
#54 = ADVANCED_FACE ( 'NONE', ( #56 ), #69, .T. ) ;
#55 =( NAMED_UNIT ( * ) PLANE_ANGLE_UNIT ( ) SI_UNIT ( $, .RADIAN. ) );
#56 = FACE_OUTER_BOUND ( 'NONE', #185, .T. ) ;
#57 = CARTESIAN_POINT ( 'NONE',  ( -3.130999282975304165, 2.489345996443268039, 0.000000000000000000 ) ) ;
#58 = CARTESIAN_POINT ( 'NONE',  ( 3.130999282975303721, 2.489345996443268039, 0.000000000000000000 ) ) ;
#59 =( NAMED_UNIT ( * ) SI_UNIT ( $, .STERADIAN. ) SOLID_ANGLE_UNIT ( ) );
#60 = MECHANICAL_DESIGN_GEOMETRIC_PRESENTATION_REPRESENTATION (  '', ( #51 ), #144 ) ;
#61 = LINE ( 'NONE', #105, #152 ) ;
#62 = CARTESIAN_POINT ( 'NONE',  ( 0.000000000000000000, 0.000000000000000000, 0.000000000000000000 ) ) ;
#63 = UNCERTAINTY_MEASURE_WITH_UNIT (LENGTH_MEASURE( 1.000000000000000082E-05 ), #26, 'distance_accuracy_value', 'NONE');
#64 = AXIS2_PLACEMENT_3D ( 'NONE', #162, #6, #68 ) ;
#65 = VERTEX_POINT ( 'NONE', #84 ) ;
#66 = VECTOR ( 'NONE', #36, 1000.000000000000000 ) ;
#67 = ORIENTED_EDGE ( 'NONE', *, *, #52, .T. ) ;
#68 = DIRECTION ( 'NONE',  ( 1.000000000000000000, 0.000000000000000000, 0.000000000000000000 ) ) ;
#69 = PLANE ( 'NONE',  #107 ) ;
#70 = SURFACE_SIDE_STYLE ('',( #164 ) ) ;
#71 = FACE_OUTER_BOUND ( 'NONE', #108, .T. ) ;
#72 = CARTESIAN_POINT ( 'NONE',  ( 3.999999999999999112, 4.898587196589411843E-16, 0.000000000000000000 ) ) ;
#73 = PRODUCT_CONTEXT ( 'NONE', #140, 'mechanical' ) ;
#74 = DIRECTION ( 'NONE',  ( 0.000000000000000000, 0.000000000000000000, 1.000000000000000000 ) ) ;
#75 =( NAMED_UNIT ( * ) PLANE_ANGLE_UNIT ( ) SI_UNIT ( $, .RADIAN. ) );
#76 = ADVANCED_FACE ( 'NONE', ( #71 ), #17, .T. ) ;
#77 = ORIENTED_EDGE ( 'NONE', *, *, #30, .T. ) ;
#78 = CIRCLE ( 'NONE', #102, 3.999999999999999112 ) ;
#79 = ORIENTED_EDGE ( 'NONE', *, *, #24, .F. ) ;
#80 = VERTEX_POINT ( 'NONE', #99 ) ;
#81 = AXIS2_PLACEMENT_3D ( 'NONE', #23, #101, #166 ) ;
#82 = DIRECTION ( 'NONE',  ( -0.000000000000000000, -0.000000000000000000, -1.000000000000000000 ) ) ;
#83 = CARTESIAN_POINT ( 'NONE',  ( -3.130999282975304165, 2.489345996443268039, 130.0000000000000000 ) ) ;
#84 = CARTESIAN_POINT ( 'NONE',  ( 3.999999999999999112, 4.898587196589411843E-16, 130.0000000000000000 ) ) ;
#85 = AXIS2_PLACEMENT_3D ( 'NONE', #193, #44, #103 ) ;
#86 = EDGE_CURVE ( 'NONE', #171, #157, #19, .T. ) ;
#87 = DIRECTION ( 'NONE',  ( -1.000000000000000000, 0.000000000000000000, 0.000000000000000000 ) ) ;
#88 = CARTESIAN_POINT ( 'NONE',  ( 0.000000000000000000, 0.000000000000000000, 130.0000000000000000 ) ) ;
#89 = SHAPE_DEFINITION_REPRESENTATION ( #127, #188 ) ;
#90 = AXIS2_PLACEMENT_3D ( 'NONE', #126, #82, #53 ) ;
#91 = CARTESIAN_POINT ( 'NONE',  ( -3.999999999999999112, 0.000000000000000000, 0.000000000000000000 ) ) ;
#92 = EDGE_CURVE ( 'NONE', #65, #12, #148, .T. ) ;
#93 = LINE ( 'NONE', #1, #176 ) ;
#94 = ORIENTED_EDGE ( 'NONE', *, *, #190, .T. ) ;
#95 = EDGE_CURVE ( 'NONE', #139, #47, #45, .T. ) ;
#96 = ORIENTED_EDGE ( 'NONE', *, *, #95, .T. ) ;
#97 = DIRECTION ( 'NONE',  ( 1.000000000000000000, 0.000000000000000000, 0.000000000000000000 ) ) ;
#98 = CARTESIAN_POINT ( 'NONE',  ( 0.000000000000000000, 0.000000000000000000, 0.000000000000000000 ) ) ;
#99 = CARTESIAN_POINT ( 'NONE',  ( -3.130999282975303721, 2.489345996443268039, 130.0000000000000000 ) ) ;
#100 = SURFACE_STYLE_USAGE ( .BOTH. , #70 ) ;
#101 = DIRECTION ( 'NONE',  ( 0.000000000000000000, 0.000000000000000000, 1.000000000000000000 ) ) ;
#102 = AXIS2_PLACEMENT_3D ( 'NONE', #168, #41, #104 ) ;
#103 = DIRECTION ( 'NONE',  ( 1.000000000000000000, 0.000000000000000000, -0.000000000000000000 ) ) ;
#104 = DIRECTION ( 'NONE',  ( 1.000000000000000000, 0.000000000000000000, 0.000000000000000000 ) ) ;
#105 = CARTESIAN_POINT ( 'NONE',  ( 3.999999999999999112, 4.898587196589411843E-16, 130.0000000000000000 ) ) ;
#106 = MANIFOLD_SOLID_BREP ( 'Cut-Extrude1', #27 ) ;
#107 = AXIS2_PLACEMENT_3D ( 'NONE', #88, #37, #143 ) ;
#108 = EDGE_LOOP ( 'NONE', ( #33, #121, #2, #156 ) ) ;
#109 = AXIS2_PLACEMENT_3D ( 'NONE', #98, #161, #97 ) ;
#110 = EDGE_LOOP ( 'NONE', ( #29, #154, #46, #96 ) ) ;
#111 = ADVANCED_FACE ( 'NONE', ( #34 ), #4, .T. ) ;
#112 = AXIS2_PLACEMENT_3D ( 'NONE', #5, #115, #114 ) ;
#113 = LINE ( 'NONE', #7, #66 ) ;
#114 = DIRECTION ( 'NONE',  ( -1.000000000000000000, 0.000000000000000000, 0.000000000000000000 ) ) ;
#115 = DIRECTION ( 'NONE',  ( -0.000000000000000000, -0.000000000000000000, -1.000000000000000000 ) ) ;
#116 = DIRECTION ( 'NONE',  ( 0.000000000000000000, 0.000000000000000000, 1.000000000000000000 ) ) ;
#117 = DIRECTION ( 'NONE',  ( 0.000000000000000000, -1.000000000000000000, 0.000000000000000000 ) ) ;
#118 = VECTOR ( 'NONE', #175, 1000.000000000000000 ) ;
#119 = FACE_OUTER_BOUND ( 'NONE', #129, .T. ) ;
#120 = EDGE_CURVE ( 'NONE', #146, #139, #93, .T. ) ;
#121 = ORIENTED_EDGE ( 'NONE', *, *, #158, .T. ) ;
#122 = ORIENTED_EDGE ( 'NONE', *, *, #125, .F. ) ;
#123 = ORIENTED_EDGE ( 'NONE', *, *, #125, .T. ) ;
#124 = CARTESIAN_POINT ( 'NONE',  ( 0.000000000000000000, 0.000000000000000000, 130.0000000000000000 ) ) ;
#125 = EDGE_CURVE ( 'NONE', #80, #146, #133, .T. ) ;
#126 = CARTESIAN_POINT ( 'NONE',  ( 0.000000000000000000, 0.000000000000000000, 130.0000000000000000 ) ) ;
#127 = PRODUCT_DEFINITION_SHAPE ( 'NONE', 'NONE',  #178 ) ;
#128 = PRESENTATION_STYLE_ASSIGNMENT (( #100 ) ) ;
#129 = EDGE_LOOP ( 'NONE', ( #173, #32, #160, #170 ) ) ;
#130 = ADVANCED_FACE ( 'NONE', ( #131 ), #191, .F. ) ;
#131 = FACE_OUTER_BOUND ( 'NONE', #135, .T. ) ;
#132 = PLANE ( 'NONE',  #85 ) ;
#133 = CIRCLE ( 'NONE', #149, 3.999999999999999112 ) ;
#134 = EDGE_CURVE ( 'NONE', #157, #12, #40, .T. ) ;
#135 = EDGE_LOOP ( 'NONE', ( #77, #49, #18, #155 ) ) ;
#136 = CIRCLE ( 'NONE', #109, 3.999999999999999112 ) ;
#137 = ORIENTED_EDGE ( 'NONE', *, *, #120, .F. ) ;
#138 = ADVANCED_FACE ( 'NONE', ( #119 ), #132, .F. ) ;
#139 = VERTEX_POINT ( 'NONE', #91 ) ;
#140 = APPLICATION_CONTEXT ( 'automotive_design' ) ;
#141 = APPLICATION_CONTEXT ( 'automotive_design' ) ;
#142 = PRODUCT ( 'Idler Gear Shaft', 'Idler Gear Shaft', '', ( #73 ) ) ;
#143 = DIRECTION ( 'NONE',  ( 1.000000000000000000, 0.000000000000000000, -0.000000000000000000 ) ) ;
#144 =( GEOMETRIC_REPRESENTATION_CONTEXT ( 3 ) GLOBAL_UNCERTAINTY_ASSIGNED_CONTEXT ( ( #169 ) ) GLOBAL_UNIT_ASSIGNED_CONTEXT ( ( #165, #55, #147 ) ) REPRESENTATION_CONTEXT ( 'NONE', 'WORKASPACE' ) );
#145 = CYLINDRICAL_SURFACE ( 'NONE', #90, 3.999999999999999112 ) ;
#146 = VERTEX_POINT ( 'NONE', #25 ) ;
#147 =( NAMED_UNIT ( * ) SI_UNIT ( $, .STERADIAN. ) SOLID_ANGLE_UNIT ( ) );
#148 = CIRCLE ( 'NONE', #3, 3.999999999999999112 ) ;
#149 = AXIS2_PLACEMENT_3D ( 'NONE', #167, #74, #181 ) ;
#150 = APPLICATION_PROTOCOL_DEFINITION ( 'draft international standard', 'automotive_design', 1998, #141 ) ;
#151 = DIRECTION ( 'NONE',  ( 0.000000000000000000, -0.000000000000000000, -1.000000000000000000 ) ) ;
#152 = VECTOR ( 'NONE', #43, 1000.000000000000000 ) ;
#153 = CARTESIAN_POINT ( 'NONE',  ( -3.130999282975304165, 2.489345996443268039, 0.000000000000000000 ) ) ;
#154 = ORIENTED_EDGE ( 'NONE', *, *, #190, .F. ) ;
#155 = ORIENTED_EDGE ( 'NONE', *, *, #24, .T. ) ;
#156 = ORIENTED_EDGE ( 'NONE', *, *, #134, .T. ) ;
#157 = VERTEX_POINT ( 'NONE', #58 ) ;
#158 = EDGE_CURVE ( 'NONE', #65, #47, #61, .T. ) ;
#159 = AXIS2_PLACEMENT_3D ( 'NONE', #62, #22, #10 ) ;
#160 = ORIENTED_EDGE ( 'NONE', *, *, #192, .F. ) ;
#161 = DIRECTION ( 'NONE',  ( 0.000000000000000000, 0.000000000000000000, 1.000000000000000000 ) ) ;
#162 = CARTESIAN_POINT ( 'NONE',  ( 0.000000000000000000, 0.000000000000000000, 0.000000000000000000 ) ) ;
#163 = AXIS2_PLACEMENT_3D ( 'NONE', #124, #50, #87 ) ;
#164 = SURFACE_STYLE_FILL_AREA ( #39 ) ;
#165 =( LENGTH_UNIT ( ) NAMED_UNIT ( * ) SI_UNIT ( .MILLI., .METRE. ) );
#166 = DIRECTION ( 'NONE',  ( 1.000000000000000000, 0.000000000000000000, 0.000000000000000000 ) ) ;
#167 = CARTESIAN_POINT ( 'NONE',  ( 0.000000000000000000, 0.000000000000000000, 130.0000000000000000 ) ) ;
#168 = CARTESIAN_POINT ( 'NONE',  ( 0.000000000000000000, 0.000000000000000000, 130.0000000000000000 ) ) ;
#169 = UNCERTAINTY_MEASURE_WITH_UNIT (LENGTH_MEASURE( 1.000000000000000082E-05 ), #165, 'distance_accuracy_value', 'NONE');
#170 = ORIENTED_EDGE ( 'NONE', *, *, #95, .F. ) ;
#171 = VERTEX_POINT ( 'NONE', #179 ) ;
#172 = AXIS2_PLACEMENT_3D ( 'NONE', #153, #117, #151 ) ;
#173 = ORIENTED_EDGE ( 'NONE', *, *, #52, .F. ) ;
#174 = FACE_OUTER_BOUND ( 'NONE', #183, .T. ) ;
#175 = DIRECTION ( 'NONE',  ( 1.000000000000000000, 0.000000000000000000, 0.000000000000000000 ) ) ;
#176 = VECTOR ( 'NONE', #182, 1000.000000000000000 ) ;
#177 = FILL_AREA_STYLE_COLOUR ( '', #16 ) ;
#178 = PRODUCT_DEFINITION ( 'UNKNOWN', '', #180, #28 ) ;
#179 = CARTESIAN_POINT ( 'NONE',  ( -3.130999282975304165, 2.489345996443268039, 0.000000000000000000 ) ) ;
#180 = PRODUCT_DEFINITION_FORMATION_WITH_SPECIFIED_SOURCE ( 'ANY', '', #142, .NOT_KNOWN. ) ;
#181 = DIRECTION ( 'NONE',  ( 1.000000000000000000, 0.000000000000000000, 0.000000000000000000 ) ) ;
#182 = DIRECTION ( 'NONE',  ( -0.000000000000000000, -0.000000000000000000, -1.000000000000000000 ) ) ;
#183 = EDGE_LOOP ( 'NONE', ( #137, #122, #79, #67 ) ) ;
#184 = PRODUCT_RELATED_PRODUCT_CATEGORY ( 'part', '', ( #142 ) ) ;
#185 = EDGE_LOOP ( 'NONE', ( #15, #123, #94, #48 ) ) ;
#186 = DIRECTION ( 'NONE',  ( 1.000000000000000000, 0.000000000000000000, 0.000000000000000000 ) ) ;
#187 = CARTESIAN_POINT ( 'NONE',  ( 0.000000000000000000, 0.000000000000000000, 130.0000000000000000 ) ) ;
#188 = ADVANCED_BREP_SHAPE_REPRESENTATION ( 'Idler Gear Shaft', ( #106, #81 ), #13 ) ;
#189 = CARTESIAN_POINT ( 'NONE',  ( 3.130999282975303721, 2.489345996443268039, 130.0000000000000000 ) ) ;
#190 = EDGE_CURVE ( 'NONE', #146, #65, #78, .T. ) ;
#191 = PLANE ( 'NONE',  #172 ) ;
#192 = EDGE_CURVE ( 'NONE', #47, #157, #11, .T. ) ;
#193 = CARTESIAN_POINT ( 'NONE',  ( 0.000000000000000000, 0.000000000000000000, 0.000000000000000000 ) ) ;
ENDSEC;
END-ISO-10303-21;
