ISO-10303-21;
HEADER;
FILE_DESCRIPTION (( 'STEP AP214' ),
    '1' );
FILE_NAME ('shaft collar 12mm.STEP',
    '2026-04-10T04:45:54',
    ( '' ),
    ( '' ),
    'SwSTEP 2.0',
    'SolidWorks 2025',
    '' );
FILE_SCHEMA (( 'AUTOMOTIVE_DESIGN' ));
ENDSEC;

DATA;
#1 = ORIENTED_EDGE ( 'NONE', *, *, #748, .T. ) ;
#2 = CARTESIAN_POINT ( 'NONE',  ( 7.306748988974532288, -6.000000000000000000, 7.516666666666676377 ) ) ;
#3 = PLANE ( 'NONE',  #679 ) ;
#4 = ORIENTED_EDGE ( 'NONE', *, *, #485, .T. ) ;
#5 = ADVANCED_FACE ( 'NONE', ( #645 ), #185, .F. ) ;
#6 = VERTEX_POINT ( 'NONE', #299 ) ;
#7 = DIRECTION ( 'NONE',  ( 0.000000000000000000, 0.000000000000000000, 1.000000000000000000 ) ) ;
#8 = PLANE ( 'NONE',  #49 ) ;
#9 = ADVANCED_FACE ( 'NONE', ( #649, #422 ), #540, .T. ) ;
#10 = AXIS2_PLACEMENT_3D ( 'NONE', #181, #347, #587 ) ;
#11 = AXIS2_PLACEMENT_3D ( 'NONE', #72, #143, #667 ) ;
#12 = AXIS2_PLACEMENT_3D ( 'NONE', #184, #350, #641 ) ;
#13 = DIRECTION ( 'NONE',  ( -1.000000000000000000, 0.000000000000000000, 0.000000000000000000 ) ) ;
#14 = CARTESIAN_POINT ( 'NONE',  ( 6.345247112792387512, -0.8353676302083319349, 11.00000000000000000 ) ) ;
#15 = ORIENTED_EDGE ( 'NONE', *, *, #121, .F. ) ;
#16 = EDGE_CURVE ( 'NONE', #64, #512, #110, .T. ) ;
#17 = FACE_OUTER_BOUND ( 'NONE', #382, .T. ) ;
#18 = EDGE_LOOP ( 'NONE', ( #396, #426, #59, #603 ) ) ;
#19 = DIRECTION ( 'NONE',  ( -0.9914448613738104932, 0.1305261922200516012, -0.000000000000000000 ) ) ;
#20 = VERTEX_POINT ( 'NONE', #416 ) ;
#21 = CARTESIAN_POINT ( 'NONE',  ( 14.25599602156291290, 5.824906622606525808, 4.886166768859924403 ) ) ;
#22 = ORIENTED_EDGE ( 'NONE', *, *, #280, .F. ) ;
#23 = CARTESIAN_POINT ( 'NONE',  ( 0.000000000000000000, 0.000000000000000000, 11.00000000000000000 ) ) ;
#24 = DIRECTION ( 'NONE',  ( 0.000000000000000000, -1.000000000000000000, 0.000000000000000000 ) ) ;
#25 = ORIENTED_EDGE ( 'NONE', *, *, #527, .T. ) ;
#26 = DIRECTION ( 'NONE',  ( 0.000000000000000000, 0.000000000000000000, 1.000000000000000000 ) ) ;
#27 = CARTESIAN_POINT ( 'NONE',  ( 10.80674898897453140, 10.97151659021203685, 9.000000000000001776 ) ) ;
#28 = ORIENTED_EDGE ( 'NONE', *, *, #523, .F. ) ;
#29 = EDGE_CURVE ( 'NONE', #620, #720, #377, .T. ) ;
#30 = CARTESIAN_POINT ( 'NONE',  ( 8.882289137359043352, 12.58257879257084433, 8.431753999408881484 ) ) ;
#31 = EDGE_CURVE ( 'NONE', #269, #84, #311, .T. ) ;
#32 = EDGE_LOOP ( 'NONE', ( #319, #76, #736, #193 ) ) ;
#33 = CARTESIAN_POINT ( 'NONE',  ( 7.406748988974533709, 0.9751170034014211563, 3.800000000000001599 ) ) ;
#34 = CARTESIAN_POINT ( 'NONE',  ( 10.80674898897453140, -6.000000000000000000, 3.800000000000000711 ) ) ;
#35 = AXIS2_PLACEMENT_3D ( 'NONE', #535, #7, #528 ) ;
#36 = VECTOR ( 'NONE', #356, 1000.000000000000000 ) ;
#37 = CIRCLE ( 'NONE', #162, 6.400000000000001243 ) ;
#38 = ORIENTED_EDGE ( 'NONE', *, *, #589, .T. ) ;
#39 = PLANE ( 'NONE',  #727 ) ;
#40 = CARTESIAN_POINT ( 'NONE',  ( 7.344269855801767832, -8.185708281600735603, 11.00000000000000000 ) ) ;
#41 = ADVANCED_FACE ( 'NONE', ( #389 ), #616, .F. ) ;
#42 = CARTESIAN_POINT ( 'NONE',  ( 6.345247112792387512, 0.8353676302083319349, 11.00000000000000000 ) ) ;
#43 = CARTESIAN_POINT ( 'NONE',  ( 7.426761503020239630, -7.571179878199522761, 11.00000000000000000 ) ) ;
#44 = ADVANCED_FACE ( 'NONE', ( #90 ), #132, .F. ) ;
#45 = CARTESIAN_POINT ( 'NONE',  ( 8.886622975471363262, 12.57947917039044050, 2.565561434399451723 ) ) ;
#46 = CARTESIAN_POINT ( 'NONE',  ( 7.932623379508988215, -6.217781123447901237, 11.00000000000000000 ) ) ;
#47 = DIRECTION ( 'NONE',  ( 1.000000000000000000, 0.000000000000000000, 0.000000000000000000 ) ) ;
#48 = B_SPLINE_CURVE_WITH_KNOTS ( 'NONE', 3,
 ( #276, #52, #226, #747 ),
 .UNSPECIFIED., .F., .F.,
 ( 4, 4 ),
 ( 0.000000000000000000, 1.000000000000000000 ),
 .UNSPECIFIED. ) ;
#49 = AXIS2_PLACEMENT_3D ( 'NONE', #119, #651, #296 ) ;
#50 = CARTESIAN_POINT ( 'NONE',  ( 14.20674898897452998, -1.870353986995711981, 3.800000000000000711 ) ) ;
#51 = CARTESIAN_POINT ( 'NONE',  ( 7.643315971007733189, -6.751553746115834365, 10.99999999999999645 ) ) ;
#52 = CARTESIAN_POINT ( 'NONE',  ( 7.306748988974529624, -9.000000000000000000, 3.666666666666667407 ) ) ;
#53 = DIRECTION ( 'NONE',  ( 0.000000000000000000, -1.000000000000000000, 0.000000000000000000 ) ) ;
#54 = CARTESIAN_POINT ( 'NONE',  ( 8.306748988974533177, -6.000000000000000000, 11.00000000000000000 ) ) ;
#55 = CARTESIAN_POINT ( 'NONE',  ( 7.306748988974530512, -6.000000000000000000, -0.5500000000000049294 ) ) ;
#56 = CARTESIAN_POINT ( 'NONE',  ( 15.26825086515667884, -2.010103360188796096, 0.000000000000000000 ) ) ;
#57 = CARTESIAN_POINT ( 'NONE',  ( 10.80674898897453140, -15.40000000000000036, 3.800000000000001155 ) ) ;
#58 = CARTESIAN_POINT ( 'NONE',  ( 7.816452490866413250, -6.379935661774421618, 11.00000000000000355 ) ) ;
#59 = ORIENTED_EDGE ( 'NONE', *, *, #485, .F. ) ;
#60 = CYLINDRICAL_SURFACE ( 'NONE', #509, 15.40000000000000036 ) ;
#61 = LINE ( 'NONE', #57, #543 ) ;
#62 = EDGE_CURVE ( 'NONE', #207, #6, #381, .T. ) ;
#63 = ADVANCED_BREP_SHAPE_REPRESENTATION ( 'shaft collar 12mm', ( #216, #334 ), #233 ) ;
#64 = VERTEX_POINT ( 'NONE', #192 ) ;
#65 = DIRECTION ( 'NONE',  ( -0.000000000000000000, -0.000000000000000000, -1.000000000000000000 ) ) ;
#66 = DIRECTION ( 'NONE',  ( -0.000000000000000000, -0.000000000000000000, -1.000000000000000000 ) ) ;
#67 = CARTESIAN_POINT ( 'NONE',  ( 0.000000000000000000, 0.000000000000000000, 0.000000000000000000 ) ) ;
#68 = FACE_BOUND ( 'NONE', #628, .T. ) ;
#69 = SHAPE_DEFINITION_REPRESENTATION ( #537, #63 ) ;
#70 = DIRECTION ( 'NONE',  ( -0.000000000000000000, -0.000000000000000000, -1.000000000000000000 ) ) ;
#71 = FACE_OUTER_BOUND ( 'NONE', #724, .T. ) ;
#72 = CARTESIAN_POINT ( 'NONE',  ( 10.80674898897453140, -15.40000000000000036, 5.500000000000000888 ) ) ;
#73 =( BOUNDED_CURVE ( )  B_SPLINE_CURVE ( 3, ( #384, #737, #212, #556 ),
 .UNSPECIFIED., .F., .F. ) 
 B_SPLINE_CURVE_WITH_KNOTS ( ( 4, 4 ),
 ( 4.712388980384689674, 7.853981633974482790 ),
 .UNSPECIFIED. ) 
 CURVE ( )  GEOMETRIC_REPRESENTATION_ITEM ( )  RATIONAL_B_SPLINE_CURVE ( ( 1.000000000000000000, 0.3333333333333333703, 0.3333333333333333703, 1.000000000000000000 ) ) 
 REPRESENTATION_ITEM ( '' )  );
#74 = ADVANCED_FACE ( 'NONE', ( #498 ), #730, .F. ) ;
#75 = COLOUR_RGB ( '',0.7921568627450980005, 0.8196078431372548767, 0.9333333333333333481 ) ;
#76 = ORIENTED_EDGE ( 'NONE', *, *, #280, .T. ) ;
#77 = DIRECTION ( 'NONE',  ( 0.000000000000000000, 0.000000000000000000, 1.000000000000000000 ) ) ;
#78 = ORIENTED_EDGE ( 'NONE', *, *, #92, .F. ) ;
#79 = DIRECTION ( 'NONE',  ( -1.000000000000000000, 0.000000000000000000, 0.000000000000000000 ) ) ;
#80 = EDGE_LOOP ( 'NONE', ( #297, #274 ) ) ;
#81 = CARTESIAN_POINT ( 'NONE',  ( 10.80674898897453140, -15.40000000000000036, 7.200000000000000178 ) ) ;
#82 = ORIENTED_EDGE ( 'NONE', *, *, #558, .F. ) ;
#83 = LINE ( 'NONE', #267, #302 ) ;
#84 = VERTEX_POINT ( 'NONE', #723 ) ;
#85 = CARTESIAN_POINT ( 'NONE',  ( 0.000000000000000000, -6.000000000000000000, 0.000000000000000000 ) ) ;
#86 = CARTESIAN_POINT ( 'NONE',  ( 7.531344164448499967, 13.43333840146531699, 6.759780600970284326 ) ) ;
#87 = AXIS2_PLACEMENT_3D ( 'NONE', #42, #252, #277 ) ;
#88 = VERTEX_POINT ( 'NONE', #608 ) ;
#89 = ADVANCED_FACE ( 'NONE', ( #613, #196 ), #370, .F. ) ;
#90 = FACE_OUTER_BOUND ( 'NONE', #596, .T. ) ;
#91 = CARTESIAN_POINT ( 'NONE',  ( 10.80674898897453140, -6.000000000000000000, 5.500000000000000888 ) ) ;
#92 = EDGE_CURVE ( 'NONE', #129, #64, #200, .T. ) ;
#93 = EDGE_LOOP ( 'NONE', ( #710, #492 ) ) ;
#94 = CARTESIAN_POINT ( 'NONE',  ( 14.24920786041348819, 5.841529198652816390, 6.150443255000742404 ) ) ;
#95 = CARTESIAN_POINT ( 'NONE',  ( 9.460427536982669139, 12.15415460746934251, 8.737343395882099628 ) ) ;
#96 = EDGE_LOOP ( 'NONE', ( #555, #126 ) ) ;
#97 = FACE_BOUND ( 'NONE', #718, .T. ) ;
#98 = CARTESIAN_POINT ( 'NONE',  ( 10.62253867911731042, 11.15296047387568024, 9.000000000000001776 ) ) ;
#99 = DIRECTION ( 'NONE',  ( -1.000000000000000000, 0.000000000000000000, 0.000000000000000000 ) ) ;
#100 = CARTESIAN_POINT ( 'NONE',  ( 7.342816177823159762, -8.201356233770825455, 11.00000000000000000 ) ) ;
#101 = CARTESIAN_POINT ( 'NONE',  ( 10.43443307087422234, 11.33824115726953963, 2.000000000000000444 ) ) ;
#102 = DIRECTION ( 'NONE',  ( 1.000000000000000000, 0.000000000000000000, 0.000000000000000000 ) ) ;
#103 = CARTESIAN_POINT ( 'NONE',  ( 7.353157583670329345, -8.096431716626732111, -0.000000000000000000 ) ) ;
#104 = CARTESIAN_POINT ( 'NONE',  ( 8.182460604234131907, 13.04749831038671282, 3.171605541759979552 ) ) ;
#105 = CARTESIAN_POINT ( 'NONE',  ( 12.80585377617113885, 8.559338446015861024, 8.380104028922239934 ) ) ;
#106 = CARTESIAN_POINT ( 'NONE',  ( 7.319787433995717407, -8.440577797338418620, -0.000000000000000000 ) ) ;
#107 = MECHANICAL_DESIGN_GEOMETRIC_PRESENTATION_REPRESENTATION (  '', ( #321 ), #358 ) ;
#108 = AXIS2_PLACEMENT_3D ( 'NONE', #413, #339, #634 ) ;
#109 = VECTOR ( 'NONE', #454, 1000.000000000000000 ) ;
#110 = CIRCLE ( 'NONE', #187, 15.40000000000000036 ) ;
#111 = AXIS2_PLACEMENT_3D ( 'NONE', #114, #586, #529 ) ;
#112 = CARTESIAN_POINT ( 'NONE',  ( 10.80674898897453140, -15.40000000000000036, 7.200000000000000178 ) ) ;
#113 = CARTESIAN_POINT ( 'NONE',  ( 11.88993018958207415, 9.792155696485533412, 8.834608325473455537 ) ) ;
#114 = CARTESIAN_POINT ( 'NONE',  ( 0.000000000000000000, 0.000000000000000000, 11.00000000000000000 ) ) ;
#115 = LINE ( 'NONE', #169, #211 ) ;
#116 = CARTESIAN_POINT ( 'NONE',  ( 7.306748988974532288, -13.55623174824477672, 11.00000000000000000 ) ) ;
#117 = ORIENTED_EDGE ( 'NONE', *, *, #527, .F. ) ;
#118 = CARTESIAN_POINT ( 'NONE',  ( 8.306748988974529624, -6.000000000000000000, -6.067338007567390476E-15 ) ) ;
#119 = CARTESIAN_POINT ( 'NONE',  ( 0.000000000000000000, 0.000000000000000000, 11.00000000000000000 ) ) ;
#120 = DIRECTION ( 'NONE',  ( -0.000000000000000000, 1.000000000000000000, -0.000000000000000000 ) ) ;
#121 = EDGE_CURVE ( 'NONE', #323, #195, #440, .T. ) ;
#122 = CARTESIAN_POINT ( 'NONE',  ( 10.80674898897453140, 5.000000000000000000, 5.500000000000000888 ) ) ;
#123 = CARTESIAN_POINT ( 'NONE',  ( 7.306748988974533177, -9.000000000000001776, 11.54999999999999893 ) ) ;
#124 =( BOUNDED_SURFACE ( )  B_SPLINE_SURFACE ( 2, 3, ( 
 ( #232, #355, #427, #477 ),
 ( #304, #2, #349, #55 ),
 ( #123, #235, #691, #637 ) ),
 .UNSPECIFIED., .F., .F., .F. ) 
 B_SPLINE_SURFACE_WITH_KNOTS ( ( 3, 3 ),
 ( 4, 4 ),
 ( 0.000000000000000000, 1.000000000000000000 ),
 ( -0.01155000000000000644, 0.0005499999999999990574 ),
 .UNSPECIFIED. ) 
 GEOMETRIC_REPRESENTATION_ITEM ( )  RATIONAL_B_SPLINE_SURFACE ( (
 ( 1.000000000000000000, 1.000000000000000000, 1.000000000000000000, 1.000000000000000000),
 ( 0.7071067811865475727, 0.7071067811865475727, 0.7071067811865475727, 0.7071067811865475727),
 ( 1.000000000000000000, 1.000000000000000000, 1.000000000000000000, 1.000000000000000000) ) ) 
 REPRESENTATION_ITEM ( '' )  SURFACE ( )  );
#125 = PRODUCT_RELATED_PRODUCT_CATEGORY ( 'part', '', ( #415 ) ) ;
#126 = ORIENTED_EDGE ( 'NONE', *, *, #668, .T. ) ;
#127 = FACE_OUTER_BOUND ( 'NONE', #439, .T. ) ;
#128 = B_SPLINE_CURVE_WITH_KNOTS ( 'NONE', 3,
 ( #559, #374, #546, #604 ),
 .UNSPECIFIED., .F., .F.,
 ( 4, 4 ),
 ( 0.000000000000000000, 1.000000000000000000 ),
 .UNSPECIFIED. ) ;
#129 = VERTEX_POINT ( 'NONE', #305 ) ;
#130 = CARTESIAN_POINT ( 'NONE',  ( 8.306748988974533177, -6.000000000000000000, 11.00000000000000000 ) ) ;
#131 = ORIENTED_EDGE ( 'NONE', *, *, #16, .F. ) ;
#132 = CYLINDRICAL_SURFACE ( 'NONE', #308, 6.400000000000001243 ) ;
#133 = VECTOR ( 'NONE', #526, 1000.000000000000000 ) ;
#134 = ORIENTED_EDGE ( 'NONE', *, *, #655, .T. ) ;
#135 = AXIS2_PLACEMENT_3D ( 'NONE', #85, #487, #436 ) ;
#136 = CARTESIAN_POINT ( 'NONE',  ( 14.01213117991654222, 6.393945768828394272, 6.924339750961870266 ) ) ;
#137 = VERTEX_POINT ( 'NONE', #660 ) ;
#138 = DIRECTION ( 'NONE',  ( 0.000000000000000000, 1.000000000000000000, -0.000000000000000000 ) ) ;
#139 = ORIENTED_EDGE ( 'NONE', *, *, #401, .T. ) ;
#140 = DIRECTION ( 'NONE',  ( 0.000000000000000000, 0.000000000000000000, 1.000000000000000000 ) ) ;
#141 = DIRECTION ( 'NONE',  ( -0.000000000000000000, -0.000000000000000000, -1.000000000000000000 ) ) ;
#142 = VERTEX_POINT ( 'NONE', #386 ) ;
#143 = DIRECTION ( 'NONE',  ( -0.000000000000000000, 1.000000000000000000, -0.000000000000000000 ) ) ;
#144 = CARTESIAN_POINT ( 'NONE',  ( 10.80674898897453140, 15.40000000000000036, 9.000000000000001776 ) ) ;
#145 = EDGE_CURVE ( 'NONE', #549, #446, #717, .T. ) ;
#146 = ORIENTED_EDGE ( 'NONE', *, *, #451, .T. ) ;
#147 = DIRECTION ( 'NONE',  ( 0.000000000000000000, 0.000000000000000000, 1.000000000000000000 ) ) ;
#148 = CARTESIAN_POINT ( 'NONE',  ( 8.694949965431682415, 12.71229092484092682, 8.300751647306084280 ) ) ;
#149 = CIRCLE ( 'NONE', #726, 15.40000000000000036 ) ;
#150 = AXIS2_PLACEMENT_3D ( 'NONE', #67, #294, #599 ) ;
#151 = CIRCLE ( 'NONE', #581, 6.400000000000001243 ) ;
#152 = ORIENTED_EDGE ( 'NONE', *, *, #326, .T. ) ;
#153 = B_SPLINE_CURVE_WITH_KNOTS ( 'NONE', 3,
 ( #639, #285, #579, #692, #113, #635, #702, #105, #288, #176, #588, #236, #740, #136, #515, #331, #94, #460, #194, #379, #453, #21, #214, #270, #743, #219, #434, #159, #671, #336, #606, #508, #682, #719, #621, #400 ),
 .UNSPECIFIED., .F., .F.,
 ( 4, 2, 2, 2, 2, 2, 2, 2, 2, 2, 2, 2, 2, 2, 2, 2, 2, 4 ),
 ( 0.01238935914013720302, 0.01335129407669022675, 0.01431322901324325048, 0.01527516394979627247, 0.01623709888634929793, 0.01719903382290231819, 0.01816096875945534192, 0.01912290369600836565, 0.01960387116428487925, 0.02008483863256138938, 0.02056580610083789951, 0.02104677356911441310, 0.02200870850566743683, 0.02297064344222046056, 0.02393257837877348082, 0.02585644825187952828, 0.02681838318843255201, 0.02778031812498557573 ),
 .UNSPECIFIED. ) ;
#154 = CARTESIAN_POINT ( 'NONE',  ( 7.306093417839099935, 13.55658509891872754, 5.750218391261761930 ) ) ;
#155 = EDGE_CURVE ( 'NONE', #269, #195, #128, .T. ) ;
#156 = ORIENTED_EDGE ( 'NONE', *, *, #191, .T. ) ;
#157 = CARTESIAN_POINT ( 'NONE',  ( 0.000000000000000000, 0.000000000000000000, 11.00000000000000000 ) ) ;
#158 = EDGE_LOOP ( 'NONE', ( #432, #481, #354, #507 ) ) ;
#159 = CARTESIAN_POINT ( 'NONE',  ( 13.42770601778577166, 7.545481775772894473, 3.170556574710371223 ) ) ;
#160 = CARTESIAN_POINT ( 'NONE',  ( 7.502642303572121030, -7.215312895926243364, -0.000000000000000000 ) ) ;
#161 = VECTOR ( 'NONE', #462, 1000.000000000000000 ) ;
#162 = AXIS2_PLACEMENT_3D ( 'NONE', #753, #410, #102 ) ;
#163 = VECTOR ( 'NONE', #65, 1000.000000000000000 ) ;
#164 = CARTESIAN_POINT ( 'NONE',  ( 6.345247112792387512, 0.8353676302083319349, 11.00000000000000000 ) ) ;
#165 = CARTESIAN_POINT ( 'NONE',  ( 7.473450539110725543, -7.341502589569180337, 0.000000000000000000 ) ) ;
#166 = CARTESIAN_POINT ( 'NONE',  ( 14.20674898897452998, -1.870353986995711981, 7.200000000000000178 ) ) ;
#167 = CARTESIAN_POINT ( 'NONE',  ( 7.717625423457132428, -6.575812599290363103, 11.00000000000000000 ) ) ;
#168 = CARTESIAN_POINT ( 'NONE',  ( 7.486948674264626291, -7.281724200035808892, -0.000000000000000000 ) ) ;
#169 = CARTESIAN_POINT ( 'NONE',  ( 7.306748988974528736, 0.000000000000000000, 0.000000000000000000 ) ) ;
#170 = CARTESIAN_POINT ( 'NONE',  ( 7.725517110662392106, -6.558778372422857217, 11.00000000000000178 ) ) ;
#171 = CARTESIAN_POINT ( 'NONE',  ( 7.476013128369444871, -7.329954639852654275, -0.000000000000000000 ) ) ;
#172 = EDGE_CURVE ( 'NONE', #20, #452, #729, .T. ) ;
#173 = AXIS2_PLACEMENT_3D ( 'NONE', #201, #221, #491 ) ;
#174 = CARTESIAN_POINT ( 'NONE',  ( 10.80674898897453140, -15.40000000000000036, 5.500000000000000888 ) ) ;
#175 = DIRECTION ( 'NONE',  ( 1.000000000000000000, 0.000000000000000000, 0.000000000000000000 ) ) ;
#176 = CARTESIAN_POINT ( 'NONE',  ( 13.27651102647165615, 7.808937981387463090, 7.988337836681756343 ) ) ;
#177 = DIRECTION ( 'NONE',  ( 0.000000000000000000, 0.000000000000000000, 1.000000000000000000 ) ) ;
#178 = DIRECTION ( 'NONE',  ( -0.9914448613738104932, 0.1305261922200516012, -0.000000000000000000 ) ) ;
#179 =( NAMED_UNIT ( * ) PLANE_ANGLE_UNIT ( ) SI_UNIT ( $, .RADIAN. ) );
#180 = EDGE_CURVE ( 'NONE', #142, #549, #550, .T. ) ;
#181 = CARTESIAN_POINT ( 'NONE',  ( 10.80674898897453140, 15.40000000000000036, 5.500000000000000888 ) ) ;
#182 = VERTEX_POINT ( 'NONE', #676 ) ;
#183 = SURFACE_STYLE_USAGE ( .BOTH. , #646 ) ;
#184 = CARTESIAN_POINT ( 'NONE',  ( 10.80674898897453140, 5.000000000000000000, 5.500000000000000888 ) ) ;
#185 = PLANE ( 'NONE',  #150 ) ;
#186 = PLANE ( 'NONE',  #268 ) ;
#187 = AXIS2_PLACEMENT_3D ( 'NONE', #704, #177, #534 ) ;
#188 = ORIENTED_EDGE ( 'NONE', *, *, #589, .F. ) ;
#189 = SURFACE_STYLE_FILL_AREA ( #361 ) ;
#190 = DIRECTION ( 'NONE',  ( 1.000000000000000000, 0.000000000000000000, 0.000000000000000000 ) ) ;
#191 = EDGE_CURVE ( 'NONE', #551, #88, #254, .T. ) ;
#192 = CARTESIAN_POINT ( 'NONE',  ( -15.40000000000000036, 0.000000000000000000, 0.000000000000000000 ) ) ;
#193 = ORIENTED_EDGE ( 'NONE', *, *, #191, .F. ) ;
#194 = CARTESIAN_POINT ( 'NONE',  ( 14.30573044015482509, 5.701410638269965858, 5.682595166501943851 ) ) ;
#195 = VERTEX_POINT ( 'NONE', #118 ) ;
#196 = FACE_OUTER_BOUND ( 'NONE', #231, .T. ) ;
#197 = AXIS2_PLACEMENT_3D ( 'NONE', #91, #199, #391 ) ;
#198 = VERTEX_POINT ( 'NONE', #708 ) ;
#199 = DIRECTION ( 'NONE',  ( -0.000000000000000000, -1.000000000000000000, 0.000000000000000000 ) ) ;
#200 = CIRCLE ( 'NONE', #630, 15.40000000000000036 ) ;
#201 = CARTESIAN_POINT ( 'NONE',  ( 10.80674898897453140, 5.000000000000000000, 5.500000000000000888 ) ) ;
#202 = ORIENTED_EDGE ( 'NONE', *, *, #459, .F. ) ;
#203 = DIRECTION ( 'NONE',  ( 1.000000000000000000, 0.000000000000000000, 0.000000000000000000 ) ) ;
#204 = ADVANCED_FACE ( 'NONE', ( #369 ), #60, .T. ) ;
#205 = CARTESIAN_POINT ( 'NONE',  ( 8.244936618048066990, -6.000000000000000888, 0.000000000000000000 ) ) ;
#206 =( BOUNDED_CURVE ( )  B_SPLINE_CURVE ( 3, ( #469, #50, #166, #223 ),
 .UNSPECIFIED., .F., .F. ) 
 B_SPLINE_CURVE_WITH_KNOTS ( ( 4, 4 ),
 ( 1.570796326794896558, 4.712388980384689674 ),
 .UNSPECIFIED. ) 
 CURVE ( )  GEOMETRIC_REPRESENTATION_ITEM ( )  RATIONAL_B_SPLINE_CURVE ( ( 1.000000000000000000, 0.3333333333333333703, 0.3333333333333333703, 1.000000000000000000 ) ) 
 REPRESENTATION_ITEM ( '' )  );
#207 = VERTEX_POINT ( 'NONE', #298 ) ;
#208 = CARTESIAN_POINT ( 'NONE',  ( 0.000000000000000000, 0.000000000000000000, 11.00000000000000000 ) ) ;
#209 = CARTESIAN_POINT ( 'NONE',  ( 7.973505105027372863, -6.171283339768626419, -0.000000000000000000 ) ) ;
#210 = ORIENTED_EDGE ( 'NONE', *, *, #264, .T. ) ;
#211 = VECTOR ( 'NONE', #53, 1000.000000000000000 ) ;
#212 = CARTESIAN_POINT ( 'NONE',  ( 14.20674898897452998, 1.870353986995714202, 3.800000000000001599 ) ) ;
#213 = ORIENTED_EDGE ( 'NONE', *, *, #689, .F. ) ;
#214 = CARTESIAN_POINT ( 'NONE',  ( 14.22606412650786467, 5.898088596351607649, 4.740011274183653533 ) ) ;
#215 = LINE ( 'NONE', #506, #109 ) ;
#216 = MANIFOLD_SOLID_BREP ( 'Fillet1', #335 ) ;
#217 = ADVANCED_FACE ( 'NONE', ( #68, #71 ), #186, .F. ) ;
#218 = ORIENTED_EDGE ( 'NONE', *, *, #346, .F. ) ;
#219 = CARTESIAN_POINT ( 'NONE',  ( 13.81154918759153105, 6.816387722664792648, 3.690204887195805306 ) ) ;
#220 = CARTESIAN_POINT ( 'NONE',  ( 7.306748988974527848, -8.717526638625031410, 0.000000000000000000 ) ) ;
#221 = DIRECTION ( 'NONE',  ( 0.000000000000000000, 1.000000000000000000, -0.000000000000000000 ) ) ;
#222 = CARTESIAN_POINT ( 'NONE',  ( 0.000000000000000000, 0.000000000000000000, 11.00000000000000000 ) ) ;
#223 = CARTESIAN_POINT ( 'NONE',  ( 10.80674898897453140, -1.422735495198565792, 7.200000000000000178 ) ) ;
#224 = CARTESIAN_POINT ( 'NONE',  ( 7.763049375509985417, -6.478993612400861579, 11.00000000000000178 ) ) ;
#225 = EDGE_CURVE ( 'NONE', #757, #446, #365, .T. ) ;
#226 = CARTESIAN_POINT ( 'NONE',  ( 7.306748988974531400, -9.000000000000000000, 7.333333333333333925 ) ) ;
#227 = CARTESIAN_POINT ( 'NONE',  ( 7.537242571227321442, 13.43002906059900958, 4.225449469782226686 ) ) ;
#228 = CARTESIAN_POINT ( 'NONE',  ( 7.946171265959315555, -6.201788709377678899, 10.99999999999999822 ) ) ;
#229 = CARTESIAN_POINT ( 'NONE',  ( 7.335295785254726475, -8.286636488929740807, 11.00000000000000178 ) ) ;
#230 = CARTESIAN_POINT ( 'NONE',  ( 7.722355618793019794, -6.565578059898949270, 10.99999999999999822 ) ) ;
#231 = EDGE_LOOP ( 'NONE', ( #315, #590, #15, #250 ) ) ;
#232 = CARTESIAN_POINT ( 'NONE',  ( 8.306748988974533177, -6.000000000000000888, 11.54999999999999893 ) ) ;
#233 =( GEOMETRIC_REPRESENTATION_CONTEXT ( 3 ) GLOBAL_UNCERTAINTY_ASSIGNED_CONTEXT ( ( #357 ) ) GLOBAL_UNIT_ASSIGNED_CONTEXT ( ( #234, #179, #598 ) ) REPRESENTATION_CONTEXT ( 'NONE', 'WORKASPACE' ) );
#234 =( LENGTH_UNIT ( ) NAMED_UNIT ( * ) SI_UNIT ( .MILLI., .METRE. ) );
#235 = CARTESIAN_POINT ( 'NONE',  ( 7.306748988974532288, -9.000000000000001776, 7.516666666666668384 ) ) ;
#236 = CARTESIAN_POINT ( 'NONE',  ( 13.67818459552912991, 7.081120737209297467, 7.512142433136181907 ) ) ;
#237 = VERTEX_POINT ( 'NONE', #300 ) ;
#238 = CARTESIAN_POINT ( 'NONE',  ( 6.345247112792387512, 0.8353676302083319349, 11.00000000000000000 ) ) ;
#239 = DIRECTION ( 'NONE',  ( -1.000000000000000000, 0.000000000000000000, 3.154042683594193148E-16 ) ) ;
#240 = EDGE_LOOP ( 'NONE', ( #399, #317, #202, #656 ) ) ;
#241 =( NAMED_UNIT ( * ) SI_UNIT ( $, .STERADIAN. ) SOLID_ANGLE_UNIT ( ) );
#242 = CARTESIAN_POINT ( 'NONE',  ( 0.000000000000000000, 0.000000000000000000, 0.000000000000000000 ) ) ;
#243 = ORIENTED_EDGE ( 'NONE', *, *, #145, .F. ) ;
#244 = LINE ( 'NONE', #472, #626 ) ;
#245 = DIRECTION ( 'NONE',  ( 0.000000000000000000, 0.000000000000000000, 1.000000000000000000 ) ) ;
#246 = CIRCLE ( 'NONE', #197, 1.699999999999999289 ) ;
#247 = VECTOR ( 'NONE', #19, 999.9999999999998863 ) ;
#248 = ORIENTED_EDGE ( 'NONE', *, *, #180, .F. ) ;
#249 = DIRECTION ( 'NONE',  ( -0.000000000000000000, -0.000000000000000000, -1.000000000000000000 ) ) ;
#250 = ORIENTED_EDGE ( 'NONE', *, *, #326, .F. ) ;
#251 = ORIENTED_EDGE ( 'NONE', *, *, #532, .F. ) ;
#252 = DIRECTION ( 'NONE',  ( -0.1305261922200518510, 0.9914448613738104932, 0.000000000000000000 ) ) ;
#253 = EDGE_LOOP ( 'NONE', ( #494, #25, #553, #675, #662, #742, #1, #486, #607, #378 ) ) ;
#254 = LINE ( 'NONE', #238, #163 ) ;
#255 = ORIENTED_EDGE ( 'NONE', *, *, #289, .F. ) ;
#256 = CYLINDRICAL_SURFACE ( 'NONE', #520, 3.500000000000000000 ) ;
#257 = CARTESIAN_POINT ( 'NONE',  ( 7.306748988974532288, -9.000000000000001776, 11.00000000000000000 ) ) ;
#258 = EDGE_LOOP ( 'NONE', ( #544, #306, #501, #262 ) ) ;
#259 = EDGE_CURVE ( 'NONE', #323, #757, #371, .T. ) ;
#260 = DIRECTION ( 'NONE',  ( 1.000000000000000000, -0.000000000000000000, -0.000000000000000000 ) ) ;
#261 = CARTESIAN_POINT ( 'NONE',  ( 7.366531548869438062, 13.52387876906278841, 4.843054692269363137 ) ) ;
#262 = ORIENTED_EDGE ( 'NONE', *, *, #92, .T. ) ;
#263 = DIRECTION ( 'NONE',  ( -0.000000000000000000, -0.000000000000000000, -1.000000000000000000 ) ) ;
#264 = EDGE_CURVE ( 'NONE', #88, #129, #244, .T. ) ;
#265 = CARTESIAN_POINT ( 'NONE',  ( -6.400000000000001243, 0.000000000000000000, 11.00000000000000000 ) ) ;
#266 = ORIENTED_EDGE ( 'NONE', *, *, #338, .T. ) ;
#267 = CARTESIAN_POINT ( 'NONE',  ( 10.80674898897453140, -15.40000000000000036, 3.800000000000001155 ) ) ;
#268 = AXIS2_PLACEMENT_3D ( 'NONE', #290, #423, #653 ) ;
#269 = VERTEX_POINT ( 'NONE', #130 ) ;
#270 = CARTESIAN_POINT ( 'NONE',  ( 14.11957597091691596, 6.150688814207163624, 4.337084319374478802 ) ) ;
#271 = FACE_OUTER_BOUND ( 'NONE', #372, .T. ) ;
#272 = ADVANCED_FACE ( 'NONE', ( #482 ), #124, .T. ) ;
#273 = AXIS2_PLACEMENT_3D ( 'NONE', #360, #70, #13 ) ;
#274 = ORIENTED_EDGE ( 'NONE', *, *, #455, .F. ) ;
#275 = DIRECTION ( 'NONE',  ( 0.9914448613738104932, 0.1305261922200518510, 0.000000000000000000 ) ) ;
#276 = CARTESIAN_POINT ( 'NONE',  ( 7.306748988974528736, -9.000000000000001776, 0.000000000000000000 ) ) ;
#277 = DIRECTION ( 'NONE',  ( -0.9914448613738104932, -0.1305261922200518510, 0.000000000000000000 ) ) ;
#278 = CARTESIAN_POINT ( 'NONE',  ( 7.955420862238217872, -6.191216616989618338, -0.000000000000000000 ) ) ;
#279 =( BOUNDED_CURVE ( )  B_SPLINE_CURVE ( 3, ( #449, #732, #614, #677 ),
 .UNSPECIFIED., .F., .F. ) 
 B_SPLINE_CURVE_WITH_KNOTS ( ( 4, 4 ),
 ( 4.712388980384689674, 7.853981633974482790 ),
 .UNSPECIFIED. ) 
 CURVE ( )  GEOMETRIC_REPRESENTATION_ITEM ( )  RATIONAL_B_SPLINE_CURVE ( ( 1.000000000000000000, 0.3333333333333333703, 0.3333333333333333703, 1.000000000000000000 ) ) 
 REPRESENTATION_ITEM ( '' )  );
#280 = EDGE_CURVE ( 'NONE', #456, #669, #525, .T. ) ;
#281 = CARTESIAN_POINT ( 'NONE',  ( 8.701600659465869469, 12.70777697396726680, 2.694075613848601947 ) ) ;
#282 = CARTESIAN_POINT ( 'NONE',  ( 15.26825086515667884, 2.010103360188798316, 11.00000000000000000 ) ) ;
#283 = CARTESIAN_POINT ( 'NONE',  ( 7.962649743237430577, -6.183165391011105072, -0.000000000000000000 ) ) ;
#284 = CARTESIAN_POINT ( 'NONE',  ( 9.463744145763529403, 12.15156870851984472, 2.261295720585879021 ) ) ;
#285 = CARTESIAN_POINT ( 'NONE',  ( 11.03558837376674262, 10.74611386034267468, 9.000000000000001776 ) ) ;
#286 = CARTESIAN_POINT ( 'NONE',  ( 7.606287804286652410, -6.844301005756274314, -0.000000000000000000 ) ) ;
#287 = CARTESIAN_POINT ( 'NONE',  ( 10.80674898897453140, 10.97151659021203685, 2.000000000000000444 ) ) ;
#288 = CARTESIAN_POINT ( 'NONE',  ( 12.97095548712260360, 8.306598051203829769, 8.258216805238060232 ) ) ;
#289 = EDGE_CURVE ( 'NONE', #137, #6, #206, .T. ) ;
#290 = CARTESIAN_POINT ( 'NONE',  ( 6.345247112792387512, -0.8353676302083319349, 11.00000000000000000 ) ) ;
#291 = DIRECTION ( 'NONE',  ( -0.000000000000000000, 1.000000000000000000, -0.000000000000000000 ) ) ;
#292 = CARTESIAN_POINT ( 'NONE',  ( 8.064704587409014636, -6.065890190817203376, 11.00000000000000178 ) ) ;
#293 = VECTOR ( 'NONE', #755, 1000.000000000000000 ) ;
#294 = DIRECTION ( 'NONE',  ( 0.000000000000000000, 0.000000000000000000, 1.000000000000000000 ) ) ;
#295 = PRESENTATION_STYLE_ASSIGNMENT (( #183 ) ) ;
#296 = DIRECTION ( 'NONE',  ( 1.000000000000000000, 0.000000000000000000, -0.000000000000000000 ) ) ;
#297 = ORIENTED_EDGE ( 'NONE', *, *, #367, .F. ) ;
#298 = CARTESIAN_POINT ( 'NONE',  ( 10.80674898897453140, -6.000000000000000000, 7.200000000000000178 ) ) ;
#299 = CARTESIAN_POINT ( 'NONE',  ( 10.80674898897453140, -1.422735495198565792, 7.200000000000000178 ) ) ;
#300 = CARTESIAN_POINT ( 'NONE',  ( 10.80674898897453140, 1.422735495198567568, 7.200000000000000178 ) ) ;
#301 = APPLICATION_PROTOCOL_DEFINITION ( 'draft international standard', 'automotive_design', 1998, #572 ) ;
#302 = VECTOR ( 'NONE', #322, 1000.000000000000000 ) ;
#303 = ORIENTED_EDGE ( 'NONE', *, *, #225, .F. ) ;
#304 = CARTESIAN_POINT ( 'NONE',  ( 7.306748988974532288, -6.000000000000000000, 11.54999999999999893 ) ) ;
#305 = CARTESIAN_POINT ( 'NONE',  ( 15.26825086515667884, 2.010103360188798316, 0.000000000000000000 ) ) ;
#306 = ORIENTED_EDGE ( 'NONE', *, *, #172, .F. ) ;
#307 = EDGE_CURVE ( 'NONE', #237, #681, #648, .T. ) ;
#308 = AXIS2_PLACEMENT_3D ( 'NONE', #23, #263, #324 ) ;
#309 = CARTESIAN_POINT ( 'NONE',  ( 0.000000000000000000, 5.000000000000000000, 0.000000000000000000 ) ) ;
#310 = ORIENTED_EDGE ( 'NONE', *, *, #62, .T. ) ;
#311 = LINE ( 'NONE', #554, #545 ) ;
#312 = EDGE_LOOP ( 'NONE', ( #623, #505, #310, #255 ) ) ;
#313 = EDGE_CURVE ( 'NONE', #182, #512, #115, .T. ) ;
#314 = CYLINDRICAL_SURFACE ( 'NONE', #424, 15.40000000000000036 ) ;
#315 = ORIENTED_EDGE ( 'NONE', *, *, #31, .F. ) ;
#316 = CARTESIAN_POINT ( 'NONE',  ( 0.000000000000000000, 0.000000000000000000, 0.000000000000000000 ) ) ;
#317 = ORIENTED_EDGE ( 'NONE', *, *, #523, .T. ) ;
#318 = CARTESIAN_POINT ( 'NONE',  ( 8.306748988974529624, -6.000000000000000000, -6.067338007567390476E-15 ) ) ;
#319 = ORIENTED_EDGE ( 'NONE', *, *, #748, .F. ) ;
#320 = CARTESIAN_POINT ( 'NONE',  ( 6.345247112792387512, -0.8353676302083319349, 11.00000000000000000 ) ) ;
#321 = STYLED_ITEM ( 'NONE', ( #295 ), #216 ) ;
#322 = DIRECTION ( 'NONE',  ( -0.000000000000000000, 1.000000000000000000, -0.000000000000000000 ) ) ;
#323 = VERTEX_POINT ( 'NONE', #465 ) ;
#324 = DIRECTION ( 'NONE',  ( -1.000000000000000000, 0.000000000000000000, 0.000000000000000000 ) ) ;
#325 = CARTESIAN_POINT ( 'NONE',  ( 9.265880483342257889, 12.30283740684713401, 8.650309743799878603 ) ) ;
#326 = EDGE_CURVE ( 'NONE', #84, #323, #705, .T. ) ;
#327 = EDGE_LOOP ( 'NONE', ( #714, #443, #38, #490 ) ) ;
#328 = CARTESIAN_POINT ( 'NONE',  ( 15.26825086515667884, -2.010103360188796096, 11.00000000000000000 ) ) ;
#329 = CARTESIAN_POINT ( 'NONE',  ( 7.344222979877768509, 13.53597696338216316, 4.972836152014178168 ) ) ;
#330 = ORIENTED_EDGE ( 'NONE', *, *, #503, .T. ) ;
#331 = CARTESIAN_POINT ( 'NONE',  ( 14.21811795148737545, 5.917256891124490714, 6.294738694899881359 ) ) ;
#332 = CARTESIAN_POINT ( 'NONE',  ( 7.307094161870022475, 13.55604570120540409, 5.361379082076756397 ) ) ;
#333 = VECTOR ( 'NONE', #624, 1000.000000000000000 ) ;
#334 = AXIS2_PLACEMENT_3D ( 'NONE', #242, #711, #425 ) ;
#335 = CLOSED_SHELL ( 'NONE', ( #430, #468, #582, #712, #204, #9, #619, #74, #44, #642, #217, #697, #5, #41, #363, #611, #731, #89, #272 ) ) ;
#336 = CARTESIAN_POINT ( 'NONE',  ( 12.82692608345575813, 8.542316808482476986, 2.612865345305027898 ) ) ;
#337 = CARTESIAN_POINT ( 'NONE',  ( 7.358911704749315774, -8.042283038912552584, -0.000000000000000000 ) ) ;
#338 = EDGE_CURVE ( 'NONE', #512, #547, #700, .T. ) ;
#339 = DIRECTION ( 'NONE',  ( -0.000000000000000000, -1.000000000000000000, 0.000000000000000000 ) ) ;
#340 = CARTESIAN_POINT ( 'NONE',  ( 7.460845055940804826, -7.399770549960487998, 11.00000000000000000 ) ) ;
#341 = CARTESIAN_POINT ( 'NONE',  ( 7.728779719716538210, -6.551817425292107977, 0.000000000000000000 ) ) ;
#342 = CYLINDRICAL_SURFACE ( 'NONE', #10, 3.500000000000000000 ) ;
#343 = CARTESIAN_POINT ( 'NONE',  ( 8.183699855470107920, -6.000000000000001776, 10.99999999999999822 ) ) ;
#344 = CARTESIAN_POINT ( 'NONE',  ( 7.306748988974528736, -9.000000000000001776, 0.000000000000000000 ) ) ;
#345 = CIRCLE ( 'NONE', #173, 1.699999999999999289 ) ;
#346 = EDGE_CURVE ( 'NONE', #446, #669, #390, .T. ) ;
#347 = DIRECTION ( 'NONE',  ( 0.000000000000000000, -1.000000000000000000, 0.000000000000000000 ) ) ;
#348 = CARTESIAN_POINT ( 'NONE',  ( 7.685104137046612216, -6.649169775716726960, 11.00000000000000000 ) ) ;
#349 = CARTESIAN_POINT ( 'NONE',  ( 7.306748988974530512, -6.000000000000000000, 3.483333333333320514 ) ) ;
#350 = DIRECTION ( 'NONE',  ( 0.000000000000000000, 1.000000000000000000, -0.000000000000000000 ) ) ;
#351 = CARTESIAN_POINT ( 'NONE',  ( 14.18308852119311858, -6.000000000000000000, 11.00000000000000000 ) ) ;
#352 = CARTESIAN_POINT ( 'NONE',  ( 10.80674898897453140, 1.422735495198567568, 3.800000000000001155 ) ) ;
#353 = EDGE_CURVE ( 'NONE', #84, #142, #149, .T. ) ;
#354 = ORIENTED_EDGE ( 'NONE', *, *, #307, .T. ) ;
#355 = CARTESIAN_POINT ( 'NONE',  ( 8.306748988974533177, -6.000000000000000888, 7.516666666666675489 ) ) ;
#356 = DIRECTION ( 'NONE',  ( 0.000000000000000000, 0.000000000000000000, 1.000000000000000000 ) ) ;
#357 = UNCERTAINTY_MEASURE_WITH_UNIT (LENGTH_MEASURE( 1.000000000000000082E-05 ), #234, 'distance_accuracy_value', 'NONE');
#358 =( GEOMETRIC_REPRESENTATION_CONTEXT ( 3 ) GLOBAL_UNCERTAINTY_ASSIGNED_CONTEXT ( ( #489 ) ) GLOBAL_UNIT_ASSIGNED_CONTEXT ( ( #597, #600, #241 ) ) REPRESENTATION_CONTEXT ( 'NONE', 'WORKASPACE' ) );
#359 = VECTOR ( 'NONE', #24, 1000.000000000000000 ) ;
#360 = CARTESIAN_POINT ( 'NONE',  ( 0.000000000000000000, 0.000000000000000000, 11.00000000000000000 ) ) ;
#361 = FILL_AREA_STYLE ('',( #591 ) ) ;
#362 = PRODUCT_CONTEXT ( 'NONE', #572, 'mechanical' ) ;
#363 = ADVANCED_FACE ( 'NONE', ( #592 ), #342, .F. ) ;
#364 = VERTEX_POINT ( 'NONE', #287 ) ;
#365 = LINE ( 'NONE', #541, #698 ) ;
#366 = B_SPLINE_CURVE_WITH_KNOTS ( 'NONE', 3,
 ( #404, #631, #464, #524, #229, #696, #100, #40, #514, #744, #43, #516, #340, #584, #695, #761, #644, #522, #51, #348, #414, #167, #230, #170, #407, #224, #58, #463, #706, #46, #576, #475, #228, #292, #343, #54 ),
 .UNSPECIFIED., .F., .F.,
 ( 4, 1, 1, 1, 2, 2, 1, 1, 1, 1, 2, 2, 1, 1, 1, 1, 1, 2, 2, 1, 1, 1, 1, 2, 2, 4 ),
 ( 0.000000000000000000, 0.1250000000000115463, 0.1875000000000173472, 0.2187500000000202616, 0.2343750000000209277, 0.2500000000000215938, 0.3750000000000239808, 0.4375000000000255351, 0.4687500000000267009, 0.4843750000000272005, 0.4921875000000270339, 0.5000000000000268674, 0.6250000000000179856, 0.6875000000000139888, 0.7187500000000115463, 0.7343750000000105471, 0.7421875000000097700, 0.7460937500000096589, 0.7500000000000094369, 0.8125000000000037748, 0.8437500000000015543, 0.8593750000000007772, 0.8671874999999997780, 0.8710937499999997780, 0.8749999999999996669, 1.000000000000000000 ),
 .UNSPECIFIED. ) ;
#367 = EDGE_CURVE ( 'NONE', #207, #429, #447, .T. ) ;
#368 = ORIENTED_EDGE ( 'NONE', *, *, #121, .T. ) ;
#369 = FACE_OUTER_BOUND ( 'NONE', #733, .T. ) ;
#370 = PLANE ( 'NONE',  #135 ) ;
#371 = CIRCLE ( 'NONE', #35, 15.40000000000000036 ) ;
#372 = EDGE_LOOP ( 'NONE', ( #139, #146, #684, #188 ) ) ;
#373 = AXIS2_PLACEMENT_3D ( 'NONE', #222, #458, #47 ) ;
#374 = CARTESIAN_POINT ( 'NONE',  ( 8.306748988974531400, -6.000000000000000000, 7.333333333333330373 ) ) ;
#375 = CIRCLE ( 'NONE', #392, 1.699999999999999289 ) ;
#376 = EDGE_CURVE ( 'NONE', #557, #419, #61, .T. ) ;
#377 = CIRCLE ( 'NONE', #448, 3.500000000000000444 ) ;
#378 = ORIENTED_EDGE ( 'NONE', *, *, #511, .T. ) ;
#379 = CARTESIAN_POINT ( 'NONE',  ( 14.30764515590510655, 5.696603969494062447, 5.358797241866716909 ) ) ;
#380 = ORIENTED_EDGE ( 'NONE', *, *, #376, .T. ) ;
#381 = LINE ( 'NONE', #81, #703 ) ;
#382 = EDGE_LOOP ( 'NONE', ( #210, #82, #728, #156 ) ) ;
#383 = PRODUCT_DEFINITION ( 'UNKNOWN', '', #665, #661 ) ;
#384 = CARTESIAN_POINT ( 'NONE',  ( 10.80674898897453140, 1.422735495198567568, 7.200000000000000178 ) ) ;
#385 = ORIENTED_EDGE ( 'NONE', *, *, #503, .F. ) ;
#386 = CARTESIAN_POINT ( 'NONE',  ( 15.26825086515667884, -2.010103360188796096, 11.00000000000000000 ) ) ;
#387 = CARTESIAN_POINT ( 'NONE',  ( 10.80674898897453140, -15.40000000000000036, 5.500000000000000888 ) ) ;
#388 = ORIENTED_EDGE ( 'NONE', *, *, #346, .T. ) ;
#389 = FACE_OUTER_BOUND ( 'NONE', #312, .T. ) ;
#390 = CIRCLE ( 'NONE', #566, 6.400000000000001243 ) ;
#391 = DIRECTION ( 'NONE',  ( 0.000000000000000000, 0.000000000000000000, 1.000000000000000000 ) ) ;
#392 = AXIS2_PLACEMENT_3D ( 'NONE', #420, #595, #245 ) ;
#393 = ORIENTED_EDGE ( 'NONE', *, *, #564, .T. ) ;
#394 = CARTESIAN_POINT ( 'NONE',  ( 10.80674898897453140, 1.422735495198567568, 3.800000000000001155 ) ) ;
#395 = CARTESIAN_POINT ( 'NONE',  ( 10.80674898897453140, 5.000000000000000000, 3.800000000000000711 ) ) ;
#396 = ORIENTED_EDGE ( 'NONE', *, *, #367, .T. ) ;
#397 = LINE ( 'NONE', #629, #333 ) ;
#398 = CARTESIAN_POINT ( 'NONE',  ( 7.448094430467699034, 13.47924504503628818, 6.517988449451622479 ) ) ;
#399 = ORIENTED_EDGE ( 'NONE', *, *, #313, .F. ) ;
#400 = CARTESIAN_POINT ( 'NONE',  ( 10.80674898897453140, 10.97151659021203685, 2.000000000000000444 ) ) ;
#401 = EDGE_CURVE ( 'NONE', #364, #198, #722, .T. ) ;
#402 = CARTESIAN_POINT ( 'NONE',  ( 7.950662379515353706, -6.196630000412900685, 0.000000000000000000 ) ) ;
#403 = CARTESIAN_POINT ( 'NONE',  ( 10.80674898897453140, 5.000000000000000000, 9.000000000000001776 ) ) ;
#404 = CARTESIAN_POINT ( 'NONE',  ( 7.306748988974532288, -9.000000000000001776, 11.00000000000000000 ) ) ;
#405 = B_SPLINE_CURVE_WITH_KNOTS ( 'NONE', 3,
 ( #318, #205, #441, #504, #735, #209, #283, #278, #402, #686, #580, #574, #754, #461, #408, #690, #341, #411, #286, #577, #160, #168, #467, #171, #165, #693, #751, #519, #337, #103, #633, #636, #106, #220, #344 ),
 .UNSPECIFIED., .F., .F.,
 ( 4, 1, 1, 1, 1, 2, 2, 1, 1, 1, 1, 2, 2, 1, 1, 1, 1, 2, 2, 1, 1, 1, 2, 2, 4 ),
 ( 0.000000000000000000, 0.06249999999999494849, 0.09374999999999222844, 0.1093749999999914096, 0.1171874999999907574, 0.1210937499999904521, 0.1249999999999901190, 0.1874999999999931721, 0.2187499999999950318, 0.2343749999999959477, 0.2421874999999959754, 0.2460937499999961142, 0.2499999999999962808, 0.3749999999999870104, 0.4374999999999824030, 0.4687499999999800715, 0.4843749999999790168, 0.4921874999999784617, 0.4999999999999779066, 0.6249999999999785727, 0.6874999999999789058, 0.7187499999999791278, 0.7343749999999799050, 0.7499999999999807931, 1.000000000000000000 ),
 .UNSPECIFIED. ) ;
#406 = DIRECTION ( 'NONE',  ( 0.000000000000000000, 0.000000000000000000, 1.000000000000000000 ) ) ;
#407 = CARTESIAN_POINT ( 'NONE',  ( 7.726543224343068950, -6.556577448169240263, 11.00000000000000178 ) ) ;
#408 = CARTESIAN_POINT ( 'NONE',  ( 7.735799727101639434, -6.537028542600810788, -0.000000000000000000 ) ) ;
#409 = DIRECTION ( 'NONE',  ( -0.000000000000000000, -0.000000000000000000, -1.000000000000000000 ) ) ;
#410 = DIRECTION ( 'NONE',  ( -0.000000000000000000, -0.000000000000000000, -1.000000000000000000 ) ) ;
#411 = CARTESIAN_POINT ( 'NONE',  ( 7.676352347403017085, -6.663672422216225577, 0.000000000000000000 ) ) ;
#412 = DIRECTION ( 'NONE',  ( 0.000000000000000000, 0.000000000000000000, 1.000000000000000000 ) ) ;
#413 = CARTESIAN_POINT ( 'NONE',  ( 10.80674898897453140, -6.000000000000000000, 5.500000000000000888 ) ) ;
#414 = CARTESIAN_POINT ( 'NONE',  ( 7.706672598283972775, -6.599938248444582101, 11.00000000000000000 ) ) ;
#415 = PRODUCT ( 'shaft collar 12mm', 'shaft collar 12mm', '', ( #362 ) ) ;
#416 = CARTESIAN_POINT ( 'NONE',  ( 15.26825086515667884, 2.010103360188798316, 11.00000000000000000 ) ) ;
#417 = DIRECTION ( 'NONE',  ( 0.9914448613738104932, 0.1305261922200518510, 0.000000000000000000 ) ) ;
#418 = CARTESIAN_POINT ( 'NONE',  ( 7.306748988974532288, -13.55623174824477672, 10.99999999999999822 ) ) ;
#419 = VERTEX_POINT ( 'NONE', #395 ) ;
#420 = CARTESIAN_POINT ( 'NONE',  ( 10.80674898897453140, 5.000000000000000000, 5.500000000000000888 ) ) ;
#421 = EDGE_CURVE ( 'NONE', #429, #137, #83, .T. ) ;
#422 = FACE_BOUND ( 'NONE', #659, .T. ) ;
#423 = DIRECTION ( 'NONE',  ( -0.1305261922200516012, -0.9914448613738104932, 0.000000000000000000 ) ) ;
#424 = AXIS2_PLACEMENT_3D ( 'NONE', #548, #141, #99 ) ;
#425 = DIRECTION ( 'NONE',  ( 1.000000000000000000, 0.000000000000000000, 0.000000000000000000 ) ) ;
#426 = ORIENTED_EDGE ( 'NONE', *, *, #421, .T. ) ;
#427 = CARTESIAN_POINT ( 'NONE',  ( 8.306748988974529624, -6.000000000000000888, 3.483333333333321846 ) ) ;
#428 = CARTESIAN_POINT ( 'NONE',  ( 7.306748988974528736, -15.40000000000000036, -6.938893903907228378E-15 ) ) ;
#429 = VERTEX_POINT ( 'NONE', #34 ) ;
#430 = ADVANCED_FACE ( 'NONE', ( #271 ), #256, .F. ) ;
#431 = CARTESIAN_POINT ( 'NONE',  ( 10.80674898897453140, -15.40000000000000036, 5.500000000000000888 ) ) ;
#432 = ORIENTED_EDGE ( 'NONE', *, *, #376, .F. ) ;
#433 = EDGE_LOOP ( 'NONE', ( #368, #330, #561, #131, #78, #435, #707, #218, #303, #678 ) ) ;
#434 = CARTESIAN_POINT ( 'NONE',  ( 13.69178393771830926, 7.054972482684818580, 3.506938093528676248 ) ) ;
#435 = ORIENTED_EDGE ( 'NONE', *, *, #264, .F. ) ;
#436 = DIRECTION ( 'NONE',  ( 0.000000000000000000, 0.000000000000000000, 1.000000000000000000 ) ) ;
#437 = ORIENTED_EDGE ( 'NONE', *, *, #289, .T. ) ;
#438 = DIRECTION ( 'NONE',  ( -0.000000000000000000, 1.000000000000000000, -0.000000000000000000 ) ) ;
#439 = EDGE_LOOP ( 'NONE', ( #605, #380, #134, #479 ) ) ;
#440 = LINE ( 'NONE', #601, #713 ) ;
#441 = CARTESIAN_POINT ( 'NONE',  ( 8.153759218922669305, -6.024932828836676357, -0.000000000000000000 ) ) ;
#442 =( BOUNDED_CURVE ( )  B_SPLINE_CURVE ( 3, ( #394, #33, #709, #536 ),
 .UNSPECIFIED., .F., .F. ) 
 B_SPLINE_CURVE_WITH_KNOTS ( ( 4, 4 ),
 ( 1.570796326794896558, 4.712388980384689674 ),
 .UNSPECIFIED. ) 
 CURVE ( )  GEOMETRIC_REPRESENTATION_ITEM ( )  RATIONAL_B_SPLINE_CURVE ( ( 1.000000000000000000, 0.3333333333333333703, 0.3333333333333333703, 1.000000000000000000 ) ) 
 REPRESENTATION_ITEM ( '' )  );
#443 = ORIENTED_EDGE ( 'NONE', *, *, #571, .T. ) ;
#444 = DIRECTION ( 'NONE',  ( 1.000000000000000000, 0.000000000000000000, 0.000000000000000000 ) ) ;
#445 = CARTESIAN_POINT ( 'NONE',  ( 7.334960279949380713, 13.54114158115423550, 6.013365451195451072 ) ) ;
#446 = VERTEX_POINT ( 'NONE', #725 ) ;
#447 = CIRCLE ( 'NONE', #108, 1.699999999999999289 ) ;
#448 = AXIS2_PLACEMENT_3D ( 'NONE', #122, #138, #147 ) ;
#449 = CARTESIAN_POINT ( 'NONE',  ( 10.80674898897453140, -1.422735495198565792, 7.200000000000000178 ) ) ;
#450 = CIRCLE ( 'NONE', #111, 6.400000000000001243 ) ;
#451 = EDGE_CURVE ( 'NONE', #198, #620, #683, .T. ) ;
#452 = VERTEX_POINT ( 'NONE', #622 ) ;
#453 = CARTESIAN_POINT ( 'NONE',  ( 14.29679483802473605, 5.724038529598852953, 5.193934159045710430 ) ) ;
#454 = DIRECTION ( 'NONE',  ( -0.000000000000000000, 1.000000000000000000, -0.000000000000000000 ) ) ;
#455 = EDGE_CURVE ( 'NONE', #429, #207, #246, .T. ) ;
#456 = VERTEX_POINT ( 'NONE', #265 ) ;
#457 = DIRECTION ( 'NONE',  ( 0.000000000000000000, 0.000000000000000000, 1.000000000000000000 ) ) ;
#458 = DIRECTION ( 'NONE',  ( 0.000000000000000000, 0.000000000000000000, 1.000000000000000000 ) ) ;
#459 = EDGE_CURVE ( 'NONE', #547, #593, #215, .T. ) ;
#460 = CARTESIAN_POINT ( 'NONE',  ( 14.29295810427900193, 5.733649505969839133, 5.846331508662964360 ) ) ;
#461 = CARTESIAN_POINT ( 'NONE',  ( 7.742281880405486483, -6.523537954674425876, -0.000000000000000000 ) ) ;
#462 = DIRECTION ( 'NONE',  ( -0.000000000000000000, -0.000000000000000000, -1.000000000000000000 ) ) ;
#463 = CARTESIAN_POINT ( 'NONE',  ( 7.882019909733802621, -6.282694351012318101, 10.99999999999999822 ) ) ;
#464 = CARTESIAN_POINT ( 'NONE',  ( 7.311660265753920029, -8.648189782525520286, 11.00000000000000178 ) ) ;
#465 = CARTESIAN_POINT ( 'NONE',  ( 14.18308852119311858, -6.000000000000000000, -9.457796393674006299E-16 ) ) ;
#466 = LINE ( 'NONE', #282, #133 ) ;
#467 = CARTESIAN_POINT ( 'NONE',  ( 7.480367992186969239, -7.310606431406555750, -0.000000000000000000 ) ) ;
#468 = ADVANCED_FACE ( 'NONE', ( #610 ), #618, .F. ) ;
#469 = CARTESIAN_POINT ( 'NONE',  ( 10.80674898897453140, -1.422735495198565792, 3.800000000000001155 ) ) ;
#470 = CARTESIAN_POINT ( 'NONE',  ( 6.345247112792387512, -0.8353676302083319349, 11.00000000000000000 ) ) ;
#471 = CARTESIAN_POINT ( 'NONE',  ( 7.453170377187900542, 13.47644565201794187, 4.465493748314006694 ) ) ;
#472 = CARTESIAN_POINT ( 'NONE',  ( 6.345247112792387512, 0.8353676302083319349, 0.000000000000000000 ) ) ;
#473 = FACE_OUTER_BOUND ( 'NONE', #253, .T. ) ;
#474 = CARTESIAN_POINT ( 'NONE',  ( 0.000000000000000000, 0.000000000000000000, 11.00000000000000000 ) ) ;
#475 = CARTESIAN_POINT ( 'NONE',  ( 7.944851527102098743, -6.203334630333126043, 11.00000000000000000 ) ) ;
#476 = ORIENTED_EDGE ( 'NONE', *, *, #259, .T. ) ;
#477 = CARTESIAN_POINT ( 'NONE',  ( 8.306748988974529624, -6.000000000000000888, -0.5500000000000052625 ) ) ;
#478 = EDGE_CURVE ( 'NONE', #237, #557, #73, .T. ) ;
#479 = ORIENTED_EDGE ( 'NONE', *, *, #307, .F. ) ;
#480 = CARTESIAN_POINT ( 'NONE',  ( 10.80674898897453140, 5.000000000000000000, 7.200000000000000178 ) ) ;
#481 = ORIENTED_EDGE ( 'NONE', *, *, #478, .F. ) ;
#482 = FACE_OUTER_BOUND ( 'NONE', #716, .T. ) ;
#483 = AXIS2_PLACEMENT_3D ( 'NONE', #174, #484, #412 ) ;
#484 = DIRECTION ( 'NONE',  ( -0.000000000000000000, 1.000000000000000000, -0.000000000000000000 ) ) ;
#485 = EDGE_CURVE ( 'NONE', #6, #137, #279, .T. ) ;
#486 = ORIENTED_EDGE ( 'NONE', *, *, #602, .T. ) ;
#487 = DIRECTION ( 'NONE',  ( 0.000000000000000000, 1.000000000000000000, -0.000000000000000000 ) ) ;
#488 = ORIENTED_EDGE ( 'NONE', *, *, #155, .F. ) ;
#489 = UNCERTAINTY_MEASURE_WITH_UNIT (LENGTH_MEASURE( 1.000000000000000082E-05 ), #597, 'distance_accuracy_value', 'NONE');
#490 = ORIENTED_EDGE ( 'NONE', *, *, #29, .F. ) ;
#491 = DIRECTION ( 'NONE',  ( 0.000000000000000000, 0.000000000000000000, 1.000000000000000000 ) ) ;
#492 = ORIENTED_EDGE ( 'NONE', *, *, #29, .T. ) ;
#493 = DIRECTION ( 'NONE',  ( -0.000000000000000000, 1.000000000000000000, -0.000000000000000000 ) ) ;
#494 = ORIENTED_EDGE ( 'NONE', *, *, #459, .T. ) ;
#495 = DIRECTION ( 'NONE',  ( 0.000000000000000000, -1.000000000000000000, 0.000000000000000000 ) ) ;
#496 = LINE ( 'NONE', #328, #617 ) ;
#497 = EDGE_LOOP ( 'NONE', ( #568, #152, #476, #562 ) ) ;
#498 = FACE_OUTER_BOUND ( 'NONE', #158, .T. ) ;
#499 = AXIS2_PLACEMENT_3D ( 'NONE', #208, #502, #444 ) ;
#500 = CARTESIAN_POINT ( 'NONE',  ( 10.43423695261590467, 11.32929742352804325, 8.985568423632656732 ) ) ;
#501 = ORIENTED_EDGE ( 'NONE', *, *, #558, .T. ) ;
#502 = DIRECTION ( 'NONE',  ( 0.000000000000000000, 0.000000000000000000, 1.000000000000000000 ) ) ;
#503 = EDGE_CURVE ( 'NONE', #195, #182, #405, .T. ) ;
#504 = CARTESIAN_POINT ( 'NONE',  ( 8.050082611822228174, -6.097653579610317287, -0.000000000000000000 ) ) ;
#505 = ORIENTED_EDGE ( 'NONE', *, *, #455, .T. ) ;
#506 = CARTESIAN_POINT ( 'NONE',  ( 7.306748988974532288, -15.40000000000000036, 11.00000000000000000 ) ) ;
#507 = ORIENTED_EDGE ( 'NONE', *, *, #689, .T. ) ;
#508 = CARTESIAN_POINT ( 'NONE',  ( 11.89530039682583329, 9.785791380085356650, 2.166933926441263925 ) ) ;
#509 = AXIS2_PLACEMENT_3D ( 'NONE', #594, #585, #650 ) ;
#510 = CARTESIAN_POINT ( 'NONE',  ( 10.80674898897453140, 15.40000000000000036, 5.500000000000000888 ) ) ;
#511 = EDGE_CURVE ( 'NONE', #452, #547, #701, .T. ) ;
#512 = VERTEX_POINT ( 'NONE', #640 ) ;
#513 = CYLINDRICAL_SURFACE ( 'NONE', #760, 6.400000000000001243 ) ;
#514 = CARTESIAN_POINT ( 'NONE',  ( 7.360193982472578611, -8.020352175731241928, 11.00000000000000178 ) ) ;
#515 = CARTESIAN_POINT ( 'NONE',  ( 14.10835978952087011, 6.176521095349880142, 6.693967038064395858 ) ) ;
#516 = CARTESIAN_POINT ( 'NONE',  ( 7.449101022124372307, -7.456375977185631498, 11.00000000000000000 ) ) ;
#517 = CARTESIAN_POINT ( 'NONE',  ( 8.346494389279957460, 12.94378155975400446, 2.999598341323158834 ) ) ;
#518 = LINE ( 'NONE', #750, #567 ) ;
#519 = CARTESIAN_POINT ( 'NONE',  ( 7.373474692686241561, -7.917506691929731666, -0.000000000000000000 ) ) ;
#520 = AXIS2_PLACEMENT_3D ( 'NONE', #510, #495, #560 ) ;
#521 = CARTESIAN_POINT ( 'NONE',  ( 7.761387223919408385, 13.30137538114916040, 3.770491878239312200 ) ) ;
#522 = CARTESIAN_POINT ( 'NONE',  ( 7.565134664673331955, -6.972005350333309259, 11.00000000000000000 ) ) ;
#523 = EDGE_CURVE ( 'NONE', #182, #593, #48, .T. ) ;
#524 = CARTESIAN_POINT ( 'NONE',  ( 7.325984823027135384, -8.406545925186286183, 11.00000000000000178 ) ) ;
#525 = LINE ( 'NONE', #583, #293 ) ;
#526 = DIRECTION ( 'NONE',  ( -0.000000000000000000, -0.000000000000000000, -1.000000000000000000 ) ) ;
#527 = EDGE_CURVE ( 'NONE', #593, #269, #366, .T. ) ;
#528 = DIRECTION ( 'NONE',  ( 1.000000000000000000, 0.000000000000000000, 0.000000000000000000 ) ) ;
#529 = DIRECTION ( 'NONE',  ( 1.000000000000000000, 0.000000000000000000, 0.000000000000000000 ) ) ;
#530 = CARTESIAN_POINT ( 'NONE',  ( 10.05055190185021630, 11.67898573531211071, 2.057670027589033168 ) ) ;
#531 = CARTESIAN_POINT ( 'NONE',  ( 6.345247112792387512, 0.8353676302083319349, 11.00000000000000000 ) ) ;
#532 = EDGE_CURVE ( 'NONE', #549, #456, #37, .T. ) ;
#533 = AXIS2_PLACEMENT_3D ( 'NONE', #431, #734, #77 ) ;
#534 = DIRECTION ( 'NONE',  ( 1.000000000000000000, 0.000000000000000000, 0.000000000000000000 ) ) ;
#535 = CARTESIAN_POINT ( 'NONE',  ( 0.000000000000000000, 0.000000000000000000, 0.000000000000000000 ) ) ;
#536 = CARTESIAN_POINT ( 'NONE',  ( 10.80674898897453140, 1.422735495198567568, 7.200000000000000178 ) ) ;
#537 = PRODUCT_DEFINITION_SHAPE ( 'NONE', 'NONE',  #383 ) ;
#538 = ORIENTED_EDGE ( 'NONE', *, *, #16, .T. ) ;
#539 = CYLINDRICAL_SURFACE ( 'NONE', #483, 1.699999999999999289 ) ;
#540 = CYLINDRICAL_SURFACE ( 'NONE', #273, 15.40000000000000036 ) ;
#541 = CARTESIAN_POINT ( 'NONE',  ( 6.345247112792387512, -0.8353676302083319349, 0.000000000000000000 ) ) ;
#542 = CARTESIAN_POINT ( 'NONE',  ( -6.400000000000001243, 0.000000000000000000, 0.000000000000000000 ) ) ;
#543 = VECTOR ( 'NONE', #291, 1000.000000000000000 ) ;
#544 = ORIENTED_EDGE ( 'NONE', *, *, #564, .F. ) ;
#545 = VECTOR ( 'NONE', #260, 1000.000000000000000 ) ;
#546 = CARTESIAN_POINT ( 'NONE',  ( 8.306748988974531400, -6.000000000000000000, 3.666666666666662966 ) ) ;
#547 = VERTEX_POINT ( 'NONE', #116 ) ;
#548 = CARTESIAN_POINT ( 'NONE',  ( 0.000000000000000000, 0.000000000000000000, 11.00000000000000000 ) ) ;
#549 = VERTEX_POINT ( 'NONE', #470 ) ;
#550 = LINE ( 'NONE', #14, #247 ) ;
#551 = VERTEX_POINT ( 'NONE', #531 ) ;
#552 = DIRECTION ( 'NONE',  ( -0.000000000000000000, -0.000000000000000000, -1.000000000000000000 ) ) ;
#553 = ORIENTED_EDGE ( 'NONE', *, *, #31, .T. ) ;
#554 = CARTESIAN_POINT ( 'NONE',  ( 15.26825086515667884, -6.000000000000000000, 11.00000000000000000 ) ) ;
#555 = ORIENTED_EDGE ( 'NONE', *, *, #478, .T. ) ;
#556 = CARTESIAN_POINT ( 'NONE',  ( 10.80674898897453140, 1.422735495198567568, 3.800000000000001155 ) ) ;
#557 = VERTEX_POINT ( 'NONE', #352 ) ;
#558 = EDGE_CURVE ( 'NONE', #20, #129, #466, .T. ) ;
#559 = CARTESIAN_POINT ( 'NONE',  ( 8.306748988974533177, -6.000000000000000000, 11.00000000000000000 ) ) ;
#560 = DIRECTION ( 'NONE',  ( 0.000000000000000000, 0.000000000000000000, -1.000000000000000000 ) ) ;
#561 = ORIENTED_EDGE ( 'NONE', *, *, #313, .T. ) ;
#562 = ORIENTED_EDGE ( 'NONE', *, *, #658, .F. ) ;
#563 = DIRECTION ( 'NONE',  ( -0.000000000000000000, -0.000000000000000000, -1.000000000000000000 ) ) ;
#564 = EDGE_CURVE ( 'NONE', #452, #64, #518, .T. ) ;
#565 = CARTESIAN_POINT ( 'NONE',  ( 10.04971523397656874, 11.67173957086405345, 8.922696648382792972 ) ) ;
#566 = AXIS2_PLACEMENT_3D ( 'NONE', #643, #409, #694 ) ;
#567 = VECTOR ( 'NONE', #756, 1000.000000000000000 ) ;
#568 = ORIENTED_EDGE ( 'NONE', *, *, #353, .F. ) ;
#569 = FACE_OUTER_BOUND ( 'NONE', #93, .T. ) ;
#570 = CARTESIAN_POINT ( 'NONE',  ( 7.749105049529609879, 13.30891041607125302, 7.222247794797596931 ) ) ;
#571 = EDGE_CURVE ( 'NONE', #198, #364, #153, .T. ) ;
#572 = APPLICATION_CONTEXT ( 'automotive_design' ) ;
#573 = PLANE ( 'NONE',  #87 ) ;
#574 = CARTESIAN_POINT ( 'NONE',  ( 7.788374217662569876, -6.433114366356251779, -0.000000000000000000 ) ) ;
#575 = CARTESIAN_POINT ( 'NONE',  ( 10.80674898897453140, 10.97151659021203685, 2.000000000000000444 ) ) ;
#576 = CARTESIAN_POINT ( 'NONE',  ( 7.939954439878632364, -6.209080502046355754, 11.00000000000000000 ) ) ;
#577 = CARTESIAN_POINT ( 'NONE',  ( 7.535384380025623052, -7.086412564062454678, -0.000000000000000000 ) ) ;
#578 = CARTESIAN_POINT ( 'NONE',  ( 7.961286811535189578, 13.18276832570924206, 3.458450939452172079 ) ) ;
#579 = CARTESIAN_POINT ( 'NONE',  ( 11.25953004159642035, 10.51121938632053165, 8.977416814722984029 ) ) ;
#580 = CARTESIAN_POINT ( 'NONE',  ( 7.851743371685735440, -6.323244321042735372, -0.000000000000000000 ) ) ;
#581 = AXIS2_PLACEMENT_3D ( 'NONE', #758, #66, #190 ) ;
#582 = ADVANCED_FACE ( 'NONE', ( #664 ), #513, .F. ) ;
#583 = CARTESIAN_POINT ( 'NONE',  ( -6.400000000000001243, 0.000000000000000000, 11.00000000000000000 ) ) ;
#584 = CARTESIAN_POINT ( 'NONE',  ( 7.466001272061641103, -7.375681764710100730, 11.00000000000000000 ) ) ;
#585 = DIRECTION ( 'NONE',  ( -0.000000000000000000, -0.000000000000000000, -1.000000000000000000 ) ) ;
#586 = DIRECTION ( 'NONE',  ( -0.000000000000000000, -0.000000000000000000, -1.000000000000000000 ) ) ;
#587 = DIRECTION ( 'NONE',  ( 0.000000000000000000, 0.000000000000000000, -1.000000000000000000 ) ) ;
#588 = CARTESIAN_POINT ( 'NONE',  ( 13.41775727209438251, 7.562988464321778181, 7.840191308268687820 ) ) ;
#589 = EDGE_CURVE ( 'NONE', #364, #720, #397, .T. ) ;
#590 = ORIENTED_EDGE ( 'NONE', *, *, #155, .T. ) ;
#591 = FILL_AREA_STYLE_COLOUR ( '', #75 ) ;
#592 = FACE_OUTER_BOUND ( 'NONE', #327, .T. ) ;
#593 = VERTEX_POINT ( 'NONE', #257 ) ;
#594 = CARTESIAN_POINT ( 'NONE',  ( 0.000000000000000000, 0.000000000000000000, 11.00000000000000000 ) ) ;
#595 = DIRECTION ( 'NONE',  ( 0.000000000000000000, 1.000000000000000000, -0.000000000000000000 ) ) ;
#596 = EDGE_LOOP ( 'NONE', ( #22, #251, #612, #388 ) ) ;
#597 =( LENGTH_UNIT ( ) NAMED_UNIT ( * ) SI_UNIT ( .MILLI., .METRE. ) );
#598 =( NAMED_UNIT ( * ) SI_UNIT ( $, .STERADIAN. ) SOLID_ANGLE_UNIT ( ) );
#599 = DIRECTION ( 'NONE',  ( 1.000000000000000000, 0.000000000000000000, -0.000000000000000000 ) ) ;
#600 =( NAMED_UNIT ( * ) PLANE_ANGLE_UNIT ( ) SI_UNIT ( $, .RADIAN. ) );
#601 = CARTESIAN_POINT ( 'NONE',  ( 7.306748988974528736, -6.000000000000000000, -6.938893903907228378E-15 ) ) ;
#602 = EDGE_CURVE ( 'NONE', #551, #20, #688, .T. ) ;
#603 = ORIENTED_EDGE ( 'NONE', *, *, #62, .F. ) ;
#604 = CARTESIAN_POINT ( 'NONE',  ( 8.306748988974529624, -6.000000000000000000, -6.067338007567390476E-15 ) ) ;
#605 = ORIENTED_EDGE ( 'NONE', *, *, #668, .F. ) ;
#606 = CARTESIAN_POINT ( 'NONE',  ( 12.48250720577845385, 9.041379967615483793, 2.398560193750844505 ) ) ;
#607 = ORIENTED_EDGE ( 'NONE', *, *, #172, .T. ) ;
#608 = CARTESIAN_POINT ( 'NONE',  ( 6.345247112792387512, 0.8353676302083319349, 0.000000000000000000 ) ) ;
#609 = ORIENTED_EDGE ( 'NONE', *, *, #225, .T. ) ;
#610 = FACE_OUTER_BOUND ( 'NONE', #18, .T. ) ;
#611 = ADVANCED_FACE ( 'NONE', ( #97, #569 ), #39, .T. ) ;
#612 = ORIENTED_EDGE ( 'NONE', *, *, #145, .T. ) ;
#613 = FACE_BOUND ( 'NONE', #80, .T. ) ;
#614 = CARTESIAN_POINT ( 'NONE',  ( 7.406748988974533709, -0.9751170034014201571, 3.800000000000000711 ) ) ;
#615 = ORIENTED_EDGE ( 'NONE', *, *, #401, .F. ) ;
#616 = CYLINDRICAL_SURFACE ( 'NONE', #11, 1.699999999999999289 ) ;
#617 = VECTOR ( 'NONE', #563, 1000.000000000000000 ) ;
#618 = CYLINDRICAL_SURFACE ( 'NONE', #638, 1.699999999999999289 ) ;
#619 = ADVANCED_FACE ( 'NONE', ( #685 ), #314, .T. ) ;
#620 = VERTEX_POINT ( 'NONE', #403 ) ;
#621 = CARTESIAN_POINT ( 'NONE',  ( 11.03800788461522409, 10.74373068512704954, 2.000000000000001332 ) ) ;
#622 = CARTESIAN_POINT ( 'NONE',  ( -15.40000000000000036, 0.000000000000000000, 11.00000000000000000 ) ) ;
#623 = ORIENTED_EDGE ( 'NONE', *, *, #421, .F. ) ;
#624 = DIRECTION ( 'NONE',  ( 0.000000000000000000, -1.000000000000000000, 0.000000000000000000 ) ) ;
#625 = CARTESIAN_POINT ( 'NONE',  ( 9.851988212970296033, 11.83898186738465341, 8.873633882856692523 ) ) ;
#626 = VECTOR ( 'NONE', #417, 999.9999999999998863 ) ;
#627 = VECTOR ( 'NONE', #275, 999.9999999999998863 ) ;
#628 = EDGE_LOOP ( 'NONE', ( #4, #437 ) ) ;
#629 = CARTESIAN_POINT ( 'NONE',  ( 10.80674898897453140, 15.40000000000000036, 2.000000000000000444 ) ) ;
#630 = AXIS2_PLACEMENT_3D ( 'NONE', #316, #26, #203 ) ;
#631 = CARTESIAN_POINT ( 'NONE',  ( 7.306748988974533177, -8.858441634232550044, 11.00000000000000000 ) ) ;
#632 = DIRECTION ( 'NONE',  ( 0.000000000000000000, 1.000000000000000000, -0.000000000000000000 ) ) ;
#633 = CARTESIAN_POINT ( 'NONE',  ( 7.349429760609980988, -8.132680412977471462, -0.000000000000000000 ) ) ;
#634 = DIRECTION ( 'NONE',  ( 0.000000000000000000, 0.000000000000000000, 1.000000000000000000 ) ) ;
#635 = CARTESIAN_POINT ( 'NONE',  ( 12.27563844392246928, 9.304055776458032057, 8.683591991259122622 ) ) ;
#636 = CARTESIAN_POINT ( 'NONE',  ( 7.347494129665745888, -8.152189456065267237, 0.000000000000000000 ) ) ;
#637 = CARTESIAN_POINT ( 'NONE',  ( 7.306748988974529624, -9.000000000000001776, -0.5500000000000049294 ) ) ;
#638 = AXIS2_PLACEMENT_3D ( 'NONE', #387, #438, #140 ) ;
#639 = CARTESIAN_POINT ( 'NONE',  ( 10.80674898897453140, 10.97151659021203685, 9.000000000000001776 ) ) ;
#640 = CARTESIAN_POINT ( 'NONE',  ( 7.306748988974528736, -13.55623174824477850, -6.938893903907228378E-15 ) ) ;
#641 = DIRECTION ( 'NONE',  ( 0.000000000000000000, 0.000000000000000000, 1.000000000000000000 ) ) ;
#642 = ADVANCED_FACE ( 'NONE', ( #746, #17 ), #573, .F. ) ;
#643 = CARTESIAN_POINT ( 'NONE',  ( 0.000000000000000000, 0.000000000000000000, 0.000000000000000000 ) ) ;
#644 = CARTESIAN_POINT ( 'NONE',  ( 7.507370731946747533, -7.187850148381306425, 11.00000000000000000 ) ) ;
#645 = FACE_OUTER_BOUND ( 'NONE', #433, .T. ) ;
#646 = SURFACE_SIDE_STYLE ('',( #189 ) ) ;
#647 = APPLICATION_CONTEXT ( 'automotive_design' ) ;
#648 = LINE ( 'NONE', #112, #663 ) ;
#649 = FACE_OUTER_BOUND ( 'NONE', #258, .T. ) ;
#650 = DIRECTION ( 'NONE',  ( -1.000000000000000000, 0.000000000000000000, 0.000000000000000000 ) ) ;
#651 = DIRECTION ( 'NONE',  ( 0.000000000000000000, 0.000000000000000000, 1.000000000000000000 ) ) ;
#652 = ORIENTED_EDGE ( 'NONE', *, *, #511, .F. ) ;
#653 = DIRECTION ( 'NONE',  ( 0.9914448613738104932, -0.1305261922200516012, 0.000000000000000000 ) ) ;
#654 = APPLICATION_PROTOCOL_DEFINITION ( 'draft international standard', 'automotive_design', 1998, #647 ) ;
#655 = EDGE_CURVE ( 'NONE', #419, #681, #345, .T. ) ;
#656 = ORIENTED_EDGE ( 'NONE', *, *, #338, .F. ) ;
#657 = FACE_OUTER_BOUND ( 'NONE', #240, .T. ) ;
#658 = EDGE_CURVE ( 'NONE', #142, #757, #496, .T. ) ;
#659 = EDGE_LOOP ( 'NONE', ( #615, #672 ) ) ;
#660 = CARTESIAN_POINT ( 'NONE',  ( 10.80674898897453140, -1.422735495198565792, 3.800000000000001155 ) ) ;
#661 = PRODUCT_DEFINITION_CONTEXT ( 'detailed design', #647, 'design' ) ;
#662 = ORIENTED_EDGE ( 'NONE', *, *, #180, .T. ) ;
#663 = VECTOR ( 'NONE', #120, 1000.000000000000000 ) ;
#664 = FACE_OUTER_BOUND ( 'NONE', #32, .T. ) ;
#665 = PRODUCT_DEFINITION_FORMATION_WITH_SPECIFIED_SOURCE ( 'ANY', '', #415, .NOT_KNOWN. ) ;
#666 = ORIENTED_EDGE ( 'NONE', *, *, #655, .F. ) ;
#667 = DIRECTION ( 'NONE',  ( 0.000000000000000000, 0.000000000000000000, 1.000000000000000000 ) ) ;
#668 = EDGE_CURVE ( 'NONE', #557, #237, #442, .T. ) ;
#669 = VERTEX_POINT ( 'NONE', #542 ) ;
#670 = CARTESIAN_POINT ( 'NONE',  ( 8.176212388101866679, 13.05142926198276854, 7.821614812575800713 ) ) ;
#671 = CARTESIAN_POINT ( 'NONE',  ( 13.28460860948211320, 7.795157239889624279, 3.019702194713338006 ) ) ;
#672 = ORIENTED_EDGE ( 'NONE', *, *, #571, .F. ) ;
#673 = DIRECTION ( 'NONE',  ( -1.000000000000000000, -0.000000000000000000, -8.715558963398370138E-16 ) ) ;
#674 = CARTESIAN_POINT ( 'NONE',  ( 8.343503391602608232, 12.94567289149039091, 7.997263709092837125 ) ) ;
#675 = ORIENTED_EDGE ( 'NONE', *, *, #353, .T. ) ;
#676 = CARTESIAN_POINT ( 'NONE',  ( 7.306748988974528736, -9.000000000000001776, 0.000000000000000000 ) ) ;
#677 = CARTESIAN_POINT ( 'NONE',  ( 10.80674898897453140, -1.422735495198565792, 3.800000000000001155 ) ) ;
#678 = ORIENTED_EDGE ( 'NONE', *, *, #259, .F. ) ;
#679 = AXIS2_PLACEMENT_3D ( 'NONE', #428, #239, #699 ) ;
#680 = CARTESIAN_POINT ( 'NONE',  ( 7.879339056115748363, 13.23277260571871139, 7.433879321855895839 ) ) ;
#681 = VERTEX_POINT ( 'NONE', #480 ) ;
#682 = CARTESIAN_POINT ( 'NONE',  ( 11.68984971100605819, 10.03046755429426717, 2.106239256999276055 ) ) ;
#683 = LINE ( 'NONE', #144, #359 ) ;
#684 = ORIENTED_EDGE ( 'NONE', *, *, #745, .F. ) ;
#685 = FACE_OUTER_BOUND ( 'NONE', #497, .T. ) ;
#686 = CARTESIAN_POINT ( 'NONE',  ( 7.908870293766587345, -6.244784715181594059, 0.000000000000000000 ) ) ;
#687 = PRESENTATION_LAYER_ASSIGNMENT (  '', '', ( #321 ) ) ;
#688 = LINE ( 'NONE', #164, #627 ) ;
#689 = EDGE_CURVE ( 'NONE', #681, #419, #375, .T. ) ;
#690 = CARTESIAN_POINT ( 'NONE',  ( 7.731488050261387635, -6.546076832880530993, -0.000000000000000000 ) ) ;
#691 = CARTESIAN_POINT ( 'NONE',  ( 7.306748988974530512, -9.000000000000001776, 3.483333333333328952 ) ) ;
#692 = CARTESIAN_POINT ( 'NONE',  ( 11.68716362182276747, 10.03359139200492223, 8.894452600817727372 ) ) ;
#693 = CARTESIAN_POINT ( 'NONE',  ( 7.443804439584466692, -7.476488370044830134, 0.000000000000000000 ) ) ;
#694 = DIRECTION ( 'NONE',  ( 1.000000000000000000, 0.000000000000000000, 0.000000000000000000 ) ) ;
#695 = CARTESIAN_POINT ( 'NONE',  ( 7.469466095869075950, -7.359660504223263011, 11.00000000000000355 ) ) ;
#696 = CARTESIAN_POINT ( 'NONE',  ( 7.339746629836045422, -8.235442264622585995, 11.00000000000000000 ) ) ;
#697 = ADVANCED_FACE ( 'NONE', ( #473 ), #8, .T. ) ;
#698 = VECTOR ( 'NONE', #178, 999.9999999999998863 ) ;
#699 = DIRECTION ( 'NONE',  ( 3.154042683594193148E-16, 0.000000000000000000, 1.000000000000000000 ) ) ;
#700 = LINE ( 'NONE', #418, #36 ) ;
#701 = CIRCLE ( 'NONE', #373, 15.40000000000000036 ) ;
#702 = CARTESIAN_POINT ( 'NONE',  ( 12.45856651076072552, 9.057388479416848881, 8.592396811912506038 ) ) ;
#703 = VECTOR ( 'NONE', #493, 1000.000000000000000 ) ;
#704 = CARTESIAN_POINT ( 'NONE',  ( 0.000000000000000000, 0.000000000000000000, 0.000000000000000000 ) ) ;
#705 = LINE ( 'NONE', #351, #161 ) ;
#706 = CARTESIAN_POINT ( 'NONE',  ( 7.915619565238722899, -6.238655270206789005, 11.00000000000000000 ) ) ;
#707 = ORIENTED_EDGE ( 'NONE', *, *, #721, .F. ) ;
#708 = CARTESIAN_POINT ( 'NONE',  ( 10.80674898897453140, 10.97151659021203685, 9.000000000000001776 ) ) ;
#709 = CARTESIAN_POINT ( 'NONE',  ( 7.406748988974533709, 0.9751170034014211563, 7.199999999999999289 ) ) ;
#710 = ORIENTED_EDGE ( 'NONE', *, *, #745, .T. ) ;
#711 = DIRECTION ( 'NONE',  ( 0.000000000000000000, 0.000000000000000000, 1.000000000000000000 ) ) ;
#712 = ADVANCED_FACE ( 'NONE', ( #127 ), #539, .F. ) ;
#713 = VECTOR ( 'NONE', #673, 1000.000000000000000 ) ;
#714 = ORIENTED_EDGE ( 'NONE', *, *, #451, .F. ) ;
#715 = CARTESIAN_POINT ( 'NONE',  ( 10.80674898897453140, 5.000000000000000000, 2.000000000000000444 ) ) ;
#716 = EDGE_LOOP ( 'NONE', ( #385, #488, #117, #28 ) ) ;
#717 = LINE ( 'NONE', #320, #738 ) ;
#718 = EDGE_LOOP ( 'NONE', ( #213, #666 ) ) ;
#719 = CARTESIAN_POINT ( 'NONE',  ( 11.26209729180703079, 10.50847420958586120, 2.022912599733364125 ) ) ;
#720 = VERTEX_POINT ( 'NONE', #715 ) ;
#721 = EDGE_CURVE ( 'NONE', #669, #88, #151, .T. ) ;
#722 = B_SPLINE_CURVE_WITH_KNOTS ( 'NONE', 3,
 ( #575, #101, #530, #284, #759, #45, #281, #517, #104, #578, #749, #521, #752, #227, #471, #261, #329, #741, #332, #154, #445, #398, #86, #570, #680, #670, #674, #148, #30, #325, #95, #625, #565, #500, #98, #27 ),
 .UNSPECIFIED., .F., .F.,
 ( 4, 2, 2, 2, 2, 2, 2, 2, 2, 2, 2, 2, 2, 2, 2, 2, 2, 4 ),
 ( 0.000000000000000000, 0.001548669892517151028, 0.002323004838775726867, 0.003097339785034302923, 0.003871674731292879413, 0.004258842204422168091, 0.004646009677551454602, 0.005420344623810025020, 0.005807512096939311530, 0.006194679570068598040, 0.006969014516327173663, 0.007743349462585749285, 0.008517684408844325775, 0.009292019355102900530, 0.01006635430136147528, 0.01084068924762005177, 0.01161502419387862826, 0.01238935914013720302 ),
 .UNSPECIFIED. ) ;
#723 = CARTESIAN_POINT ( 'NONE',  ( 14.18308852119311858, -6.000000000000000000, 11.00000000000000000 ) ) ;
#724 = EDGE_LOOP ( 'NONE', ( #609, #243, #248, #739 ) ) ;
#725 = CARTESIAN_POINT ( 'NONE',  ( 6.345247112792387512, -0.8353676302083319349, 0.000000000000000000 ) ) ;
#726 = AXIS2_PLACEMENT_3D ( 'NONE', #474, #406, #175 ) ;
#727 = AXIS2_PLACEMENT_3D ( 'NONE', #309, #632, #457 ) ;
#728 = ORIENTED_EDGE ( 'NONE', *, *, #602, .F. ) ;
#729 = CIRCLE ( 'NONE', #499, 15.40000000000000036 ) ;
#730 = CYLINDRICAL_SURFACE ( 'NONE', #533, 1.699999999999999289 ) ;
#731 = ADVANCED_FACE ( 'NONE', ( #657 ), #3, .F. ) ;
#732 = CARTESIAN_POINT ( 'NONE',  ( 7.406748988974533709, -0.9751170034014201571, 7.200000000000001954 ) ) ;
#733 = EDGE_LOOP ( 'NONE', ( #652, #393, #538, #266 ) ) ;
#734 = DIRECTION ( 'NONE',  ( -0.000000000000000000, 1.000000000000000000, -0.000000000000000000 ) ) ;
#735 = CARTESIAN_POINT ( 'NONE',  ( 7.998918564575142831, -6.144922067613182826, -0.000000000000000000 ) ) ;
#736 = ORIENTED_EDGE ( 'NONE', *, *, #721, .T. ) ;
#737 = CARTESIAN_POINT ( 'NONE',  ( 14.20674898897452998, 1.870353986995714202, 7.200000000000001954 ) ) ;
#738 = VECTOR ( 'NONE', #249, 1000.000000000000000 ) ;
#739 = ORIENTED_EDGE ( 'NONE', *, *, #658, .T. ) ;
#740 = CARTESIAN_POINT ( 'NONE',  ( 13.79745098727402031, 6.844903867234291006, 7.332735734781680392 ) ) ;
#741 = CARTESIAN_POINT ( 'NONE',  ( 7.314604927706374937, 13.55200495435826902, 5.231824793009659302 ) ) ;
#742 = ORIENTED_EDGE ( 'NONE', *, *, #532, .T. ) ;
#743 = CARTESIAN_POINT ( 'NONE',  ( 14.02475032567303259, 6.366192806496669299, 4.104059463678553676 ) ) ;
#744 = CARTESIAN_POINT ( 'NONE',  ( 7.386676658926931260, -7.807159866481736543, 11.00000000000000000 ) ) ;
#745 = EDGE_CURVE ( 'NONE', #720, #620, #762, .T. ) ;
#746 = FACE_BOUND ( 'NONE', #96, .T. ) ;
#747 = CARTESIAN_POINT ( 'NONE',  ( 7.306748988974532288, -9.000000000000001776, 11.00000000000000000 ) ) ;
#748 = EDGE_CURVE ( 'NONE', #456, #551, #450, .T. ) ;
#749 = CARTESIAN_POINT ( 'NONE',  ( 7.891642911787675629, 13.22451098614583209, 3.558973678168146915 ) ) ;
#750 = CARTESIAN_POINT ( 'NONE',  ( -15.40000000000000036, 0.000000000000000000, 11.00000000000000000 ) ) ;
#751 = CARTESIAN_POINT ( 'NONE',  ( 7.407147490237188769, -7.674236268698452434, -0.000000000000000000 ) ) ;
#752 = CARTESIAN_POINT ( 'NONE',  ( 7.700422032339917067, 13.33669475771143809, 3.882356449669061682 ) ) ;
#753 = CARTESIAN_POINT ( 'NONE',  ( 0.000000000000000000, 0.000000000000000000, 11.00000000000000000 ) ) ;
#754 = CARTESIAN_POINT ( 'NONE',  ( 7.757509371085439476, -6.492632848631886944, -0.000000000000000000 ) ) ;
#755 = DIRECTION ( 'NONE',  ( -0.000000000000000000, -0.000000000000000000, -1.000000000000000000 ) ) ;
#756 = DIRECTION ( 'NONE',  ( -0.000000000000000000, -0.000000000000000000, -1.000000000000000000 ) ) ;
#757 = VERTEX_POINT ( 'NONE', #56 ) ;
#758 = CARTESIAN_POINT ( 'NONE',  ( 0.000000000000000000, 0.000000000000000000, 0.000000000000000000 ) ) ;
#759 = CARTESIAN_POINT ( 'NONE',  ( 9.266787523446424757, 12.30211417203401680, 2.349391759087797293 ) ) ;
#760 = AXIS2_PLACEMENT_3D ( 'NONE', #157, #552, #79 ) ;
#761 = CARTESIAN_POINT ( 'NONE',  ( 7.470822014724322280, -7.353436512623753529, 11.00000000000000000 ) ) ;
#762 = CIRCLE ( 'NONE', #12, 3.500000000000000444 ) ;
ENDSEC;
END-ISO-10303-21;
