ISO-10303-21;
HEADER;
FILE_DESCRIPTION (( 'STEP AP214' ),
    '1' );
FILE_NAME ('Spacer.STEP',
    '2026-04-09T02:43:10',
    ( '' ),
    ( '' ),
    'SwSTEP 2.0',
    'SolidWorks 2025',
    '' );
FILE_SCHEMA (( 'AUTOMOTIVE_DESIGN' ));
ENDSEC;

DATA;
#1 = ORIENTED_EDGE ( 'NONE', *, *, #195, .T. ) ;
#2 = AXIS2_PLACEMENT_3D ( 'NONE', #155, #91, #143 ) ;
#3 = CARTESIAN_POINT ( 'NONE',  ( -10.00000000000000000, 0.000000000000000000, 0.000000000000000000 ) ) ;
#4 =( NAMED_UNIT ( * ) SI_UNIT ( $, .STERADIAN. ) SOLID_ANGLE_UNIT ( ) );
#5 = ORIENTED_EDGE ( 'NONE', *, *, #195, .F. ) ;
#6 = EDGE_CURVE ( 'NONE', #125, #51, #33, .T. ) ;
#7 =( NAMED_UNIT ( * ) PLANE_ANGLE_UNIT ( ) SI_UNIT ( $, .RADIAN. ) );
#8 = VERTEX_POINT ( 'NONE', #16 ) ;
#9 = PRESENTATION_STYLE_ASSIGNMENT (( #72 ) ) ;
#10 = PRODUCT_DEFINITION ( 'UNKNOWN', '', #136, #67 ) ;
#11 = CARTESIAN_POINT ( 'NONE',  ( 0.000000000000000000, 0.000000000000000000, 3.000000000000000000 ) ) ;
#12 = FACE_OUTER_BOUND ( 'NONE', #95, .T. ) ;
#13 = DIRECTION ( 'NONE',  ( 0.000000000000000000, 0.000000000000000000, 1.000000000000000000 ) ) ;
#14 = DIRECTION ( 'NONE',  ( -0.000000000000000000, -0.000000000000000000, -1.000000000000000000 ) ) ;
#15 = DIRECTION ( 'NONE',  ( 1.000000000000000000, 0.000000000000000000, 0.000000000000000000 ) ) ;
#16 = CARTESIAN_POINT ( 'NONE',  ( 6.300000000000000711, 7.715274834628326364E-16, 3.000000000000000000 ) ) ;
#17 = CIRCLE ( 'NONE', #66, 6.300000000000000711 ) ;
#18 = EDGE_CURVE ( 'NONE', #51, #147, #169, .T. ) ;
#19 =( NAMED_UNIT ( * ) SI_UNIT ( $, .STERADIAN. ) SOLID_ANGLE_UNIT ( ) );
#20 = ORIENTED_EDGE ( 'NONE', *, *, #46, .F. ) ;
#21 = SHAPE_DEFINITION_REPRESENTATION ( #151, #122 ) ;
#22 = DIRECTION ( 'NONE',  ( -1.000000000000000000, 0.000000000000000000, 0.000000000000000000 ) ) ;
#23 =( GEOMETRIC_REPRESENTATION_CONTEXT ( 3 ) GLOBAL_UNCERTAINTY_ASSIGNED_CONTEXT ( ( #61 ) ) GLOBAL_UNIT_ASSIGNED_CONTEXT ( ( #163, #140, #19 ) ) REPRESENTATION_CONTEXT ( 'NONE', 'WORKASPACE' ) );
#24 = CARTESIAN_POINT ( 'NONE',  ( 0.000000000000000000, 0.000000000000000000, 3.000000000000000000 ) ) ;
#25 = DIRECTION ( 'NONE',  ( 1.000000000000000000, 0.000000000000000000, 0.000000000000000000 ) ) ;
#26 = EDGE_CURVE ( 'NONE', #120, #147, #181, .T. ) ;
#27 = ORIENTED_EDGE ( 'NONE', *, *, #6, .F. ) ;
#28 = FACE_OUTER_BOUND ( 'NONE', #189, .T. ) ;
#29 = ORIENTED_EDGE ( 'NONE', *, *, #183, .T. ) ;
#30 = DIRECTION ( 'NONE',  ( -0.000000000000000000, -0.000000000000000000, -1.000000000000000000 ) ) ;
#31 = CARTESIAN_POINT ( 'NONE',  ( 0.000000000000000000, 0.000000000000000000, 3.000000000000000000 ) ) ;
#32 = APPLICATION_CONTEXT ( 'automotive_design' ) ;
#33 = LINE ( 'NONE', #47, #57 ) ;
#34 = CARTESIAN_POINT ( 'NONE',  ( 10.00000000000000000, 1.224646799147353256E-15, 3.000000000000000000 ) ) ;
#35 = CARTESIAN_POINT ( 'NONE',  ( 0.000000000000000000, 0.000000000000000000, 3.000000000000000000 ) ) ;
#36 = FACE_OUTER_BOUND ( 'NONE', #50, .T. ) ;
#37 = ADVANCED_FACE ( 'NONE', ( #139, #76 ), #77, .F. ) ;
#38 = CARTESIAN_POINT ( 'NONE',  ( 0.000000000000000000, 0.000000000000000000, 0.000000000000000000 ) ) ;
#39 = ORIENTED_EDGE ( 'NONE', *, *, #26, .F. ) ;
#40 = DIRECTION ( 'NONE',  ( 0.000000000000000000, 0.000000000000000000, 1.000000000000000000 ) ) ;
#41 = ORIENTED_EDGE ( 'NONE', *, *, #171, .F. ) ;
#42 = DIRECTION ( 'NONE',  ( 1.000000000000000000, 0.000000000000000000, 0.000000000000000000 ) ) ;
#43 = SURFACE_SIDE_STYLE ('',( #173 ) ) ;
#44 = CIRCLE ( 'NONE', #156, 6.300000000000000711 ) ;
#45 = VECTOR ( 'NONE', #30, 1000.000000000000000 ) ;
#46 = EDGE_CURVE ( 'NONE', #132, #165, #118, .T. ) ;
#47 = CARTESIAN_POINT ( 'NONE',  ( -10.00000000000000000, 0.000000000000000000, 3.000000000000000000 ) ) ;
#48 = LINE ( 'NONE', #186, #137 ) ;
#49 = DIRECTION ( 'NONE',  ( -1.000000000000000000, 0.000000000000000000, 0.000000000000000000 ) ) ;
#50 = EDGE_LOOP ( 'NONE', ( #29, #149 ) ) ;
#51 = VERTEX_POINT ( 'NONE', #3 ) ;
#52 = CARTESIAN_POINT ( 'NONE',  ( 0.000000000000000000, 0.000000000000000000, 3.000000000000000000 ) ) ;
#53 = ORIENTED_EDGE ( 'NONE', *, *, #74, .F. ) ;
#54 = FILL_AREA_STYLE ('',( #148 ) ) ;
#55 = DIRECTION ( 'NONE',  ( 1.000000000000000000, 0.000000000000000000, 0.000000000000000000 ) ) ;
#56 = AXIS2_PLACEMENT_3D ( 'NONE', #105, #65, #25 ) ;
#57 = VECTOR ( 'NONE', #182, 1000.000000000000000 ) ;
#58 = AXIS2_PLACEMENT_3D ( 'NONE', #35, #99, #22 ) ;
#59 = EDGE_CURVE ( 'NONE', #8, #175, #44, .T. ) ;
#60 = ORIENTED_EDGE ( 'NONE', *, *, #178, .F. ) ;
#61 = UNCERTAINTY_MEASURE_WITH_UNIT (LENGTH_MEASURE( 1.000000000000000082E-05 ), #163, 'distance_accuracy_value', 'NONE');
#62 = DIRECTION ( 'NONE',  ( 0.000000000000000000, 0.000000000000000000, 1.000000000000000000 ) ) ;
#63 = ORIENTED_EDGE ( 'NONE', *, *, #129, .T. ) ;
#64 = AXIS2_PLACEMENT_3D ( 'NONE', #197, #62, #142 ) ;
#65 = DIRECTION ( 'NONE',  ( 0.000000000000000000, 0.000000000000000000, 1.000000000000000000 ) ) ;
#66 = AXIS2_PLACEMENT_3D ( 'NONE', #38, #192, #42 ) ;
#67 = PRODUCT_DEFINITION_CONTEXT ( 'detailed design', #32, 'design' ) ;
#68 = DIRECTION ( 'NONE',  ( 0.000000000000000000, 0.000000000000000000, 1.000000000000000000 ) ) ;
#69 = ORIENTED_EDGE ( 'NONE', *, *, #129, .F. ) ;
#70 = DIRECTION ( 'NONE',  ( -1.000000000000000000, 0.000000000000000000, 0.000000000000000000 ) ) ;
#71 = EDGE_LOOP ( 'NONE', ( #53, #84, #63, #20 ) ) ;
#72 = SURFACE_STYLE_USAGE ( .BOTH. , #43 ) ;
#73 = CARTESIAN_POINT ( 'NONE',  ( 10.00000000000000000, 1.224646799147353256E-15, 0.000000000000000000 ) ) ;
#74 = EDGE_CURVE ( 'NONE', #8, #132, #48, .T. ) ;
#75 = CIRCLE ( 'NONE', #184, 10.00000000000000000 ) ;
#76 = FACE_BOUND ( 'NONE', #123, .T. ) ;
#77 = PLANE ( 'NONE',  #2 ) ;
#78 = ADVANCED_FACE ( 'NONE', ( #36, #110 ), #100, .T. ) ;
#79 = PRODUCT_RELATED_PRODUCT_CATEGORY ( 'part', '', ( #193 ) ) ;
#80 = AXIS2_PLACEMENT_3D ( 'NONE', #128, #68, #131 ) ;
#81 = DIRECTION ( 'NONE',  ( 0.000000000000000000, 0.000000000000000000, 1.000000000000000000 ) ) ;
#82 = CARTESIAN_POINT ( 'NONE',  ( 0.000000000000000000, 0.000000000000000000, 3.000000000000000000 ) ) ;
#83 = AXIS2_PLACEMENT_3D ( 'NONE', #52, #135, #70 ) ;
#84 = ORIENTED_EDGE ( 'NONE', *, *, #59, .T. ) ;
#85 = ORIENTED_EDGE ( 'NONE', *, *, #74, .T. ) ;
#86 = CYLINDRICAL_SURFACE ( 'NONE', #119, 10.00000000000000000 ) ;
#87 = FACE_OUTER_BOUND ( 'NONE', #117, .T. ) ;
#88 = ADVANCED_FACE ( 'NONE', ( #12 ), #159, .F. ) ;
#89 = CARTESIAN_POINT ( 'NONE',  ( 0.000000000000000000, 0.000000000000000000, 0.000000000000000000 ) ) ;
#90 = CARTESIAN_POINT ( 'NONE',  ( 0.000000000000000000, 0.000000000000000000, 3.000000000000000000 ) ) ;
#91 = DIRECTION ( 'NONE',  ( 0.000000000000000000, 0.000000000000000000, 1.000000000000000000 ) ) ;
#92 = VECTOR ( 'NONE', #121, 1000.000000000000000 ) ;
#93 = AXIS2_PLACEMENT_3D ( 'NONE', #82, #160, #55 ) ;
#94 = ADVANCED_FACE ( 'NONE', ( #194 ), #180, .F. ) ;
#95 = EDGE_LOOP ( 'NONE', ( #115, #85, #41, #69 ) ) ;
#96 = MANIFOLD_SOLID_BREP ( 'Boss-Extrude1', #144 ) ;
#97 = APPLICATION_PROTOCOL_DEFINITION ( 'draft international standard', 'automotive_design', 1998, #106 ) ;
#98 = ORIENTED_EDGE ( 'NONE', *, *, #6, .T. ) ;
#99 = DIRECTION ( 'NONE',  ( -0.000000000000000000, -0.000000000000000000, -1.000000000000000000 ) ) ;
#100 = PLANE ( 'NONE',  #109 ) ;
#101 = CARTESIAN_POINT ( 'NONE',  ( -6.300000000000000711, 0.000000000000000000, 3.000000000000000000 ) ) ;
#102 = ORIENTED_EDGE ( 'NONE', *, *, #46, .T. ) ;
#103 = AXIS2_PLACEMENT_3D ( 'NONE', #90, #14, #167 ) ;
#104 = EDGE_LOOP ( 'NONE', ( #60, #185 ) ) ;
#105 = CARTESIAN_POINT ( 'NONE',  ( 0.000000000000000000, 0.000000000000000000, 3.000000000000000000 ) ) ;
#106 = APPLICATION_CONTEXT ( 'automotive_design' ) ;
#107 = CARTESIAN_POINT ( 'NONE',  ( 10.00000000000000000, 1.224646799147353256E-15, 3.000000000000000000 ) ) ;
#108 = ORIENTED_EDGE ( 'NONE', *, *, #183, .F. ) ;
#109 = AXIS2_PLACEMENT_3D ( 'NONE', #31, #13, #153 ) ;
#110 = FACE_BOUND ( 'NONE', #104, .T. ) ;
#111 = DIRECTION ( 'NONE',  ( 1.000000000000000000, 0.000000000000000000, 0.000000000000000000 ) ) ;
#112 = LINE ( 'NONE', #188, #45 ) ;
#113 = ADVANCED_FACE ( 'NONE', ( #28 ), #150, .T. ) ;
#114 = DIRECTION ( 'NONE',  ( 1.000000000000000000, 0.000000000000000000, 0.000000000000000000 ) ) ;
#115 = ORIENTED_EDGE ( 'NONE', *, *, #178, .T. ) ;
#116 = CARTESIAN_POINT ( 'NONE',  ( 0.000000000000000000, 0.000000000000000000, 3.000000000000000000 ) ) ;
#117 = EDGE_LOOP ( 'NONE', ( #39, #108, #98, #172 ) ) ;
#118 = CIRCLE ( 'NONE', #126, 6.300000000000000711 ) ;
#119 = AXIS2_PLACEMENT_3D ( 'NONE', #11, #133, #49 ) ;
#120 = VERTEX_POINT ( 'NONE', #107 ) ;
#121 = DIRECTION ( 'NONE',  ( -0.000000000000000000, -0.000000000000000000, -1.000000000000000000 ) ) ;
#122 = ADVANCED_BREP_SHAPE_REPRESENTATION ( 'Spacer', ( #96, #64 ), #23 ) ;
#123 = EDGE_LOOP ( 'NONE', ( #190, #102 ) ) ;
#124 = CIRCLE ( 'NONE', #56, 10.00000000000000000 ) ;
#125 = VERTEX_POINT ( 'NONE', #164 ) ;
#126 = AXIS2_PLACEMENT_3D ( 'NONE', #158, #146, #127 ) ;
#127 = DIRECTION ( 'NONE',  ( 1.000000000000000000, 0.000000000000000000, 0.000000000000000000 ) ) ;
#128 = CARTESIAN_POINT ( 'NONE',  ( 0.000000000000000000, 0.000000000000000000, 0.000000000000000000 ) ) ;
#129 = EDGE_CURVE ( 'NONE', #175, #165, #112, .T. ) ;
#130 = DIRECTION ( 'NONE',  ( -0.000000000000000000, -0.000000000000000000, -1.000000000000000000 ) ) ;
#131 = DIRECTION ( 'NONE',  ( 1.000000000000000000, 0.000000000000000000, 0.000000000000000000 ) ) ;
#132 = VERTEX_POINT ( 'NONE', #191 ) ;
#133 = DIRECTION ( 'NONE',  ( -0.000000000000000000, -0.000000000000000000, -1.000000000000000000 ) ) ;
#134 = ORIENTED_EDGE ( 'NONE', *, *, #26, .T. ) ;
#135 = DIRECTION ( 'NONE',  ( -0.000000000000000000, -0.000000000000000000, -1.000000000000000000 ) ) ;
#136 = PRODUCT_DEFINITION_FORMATION_WITH_SPECIFIED_SOURCE ( 'ANY', '', #193, .NOT_KNOWN. ) ;
#137 = VECTOR ( 'NONE', #130, 1000.000000000000000 ) ;
#138 = ADVANCED_FACE ( 'NONE', ( #87 ), #86, .T. ) ;
#139 = FACE_OUTER_BOUND ( 'NONE', #198, .T. ) ;
#140 =( NAMED_UNIT ( * ) PLANE_ANGLE_UNIT ( ) SI_UNIT ( $, .RADIAN. ) );
#141 = PRODUCT_CONTEXT ( 'NONE', #106, 'mechanical' ) ;
#142 = DIRECTION ( 'NONE',  ( 1.000000000000000000, 0.000000000000000000, 0.000000000000000000 ) ) ;
#143 = DIRECTION ( 'NONE',  ( 1.000000000000000000, 0.000000000000000000, -0.000000000000000000 ) ) ;
#144 = CLOSED_SHELL ( 'NONE', ( #88, #113, #78, #37, #138, #94 ) ) ;
#145 = COLOUR_RGB ( '',0.7921568627450980005, 0.8196078431372548767, 0.9333333333333333481 ) ;
#146 = DIRECTION ( 'NONE',  ( 0.000000000000000000, 0.000000000000000000, 1.000000000000000000 ) ) ;
#147 = VERTEX_POINT ( 'NONE', #73 ) ;
#148 = FILL_AREA_STYLE_COLOUR ( '', #145 ) ;
#149 = ORIENTED_EDGE ( 'NONE', *, *, #152, .T. ) ;
#150 = CYLINDRICAL_SURFACE ( 'NONE', #83, 10.00000000000000000 ) ;
#151 = PRODUCT_DEFINITION_SHAPE ( 'NONE', 'NONE',  #10 ) ;
#152 = EDGE_CURVE ( 'NONE', #120, #125, #75, .T. ) ;
#153 = DIRECTION ( 'NONE',  ( 1.000000000000000000, 0.000000000000000000, -0.000000000000000000 ) ) ;
#154 = ORIENTED_EDGE ( 'NONE', *, *, #18, .F. ) ;
#155 = CARTESIAN_POINT ( 'NONE',  ( 0.000000000000000000, 0.000000000000000000, 0.000000000000000000 ) ) ;
#156 = AXIS2_PLACEMENT_3D ( 'NONE', #24, #81, #111 ) ;
#157 = PRESENTATION_LAYER_ASSIGNMENT (  '', '', ( #161 ) ) ;
#158 = CARTESIAN_POINT ( 'NONE',  ( 0.000000000000000000, 0.000000000000000000, 0.000000000000000000 ) ) ;
#159 = CYLINDRICAL_SURFACE ( 'NONE', #58, 6.300000000000000711 ) ;
#160 = DIRECTION ( 'NONE',  ( 0.000000000000000000, 0.000000000000000000, 1.000000000000000000 ) ) ;
#161 = STYLED_ITEM ( 'NONE', ( #9 ), #96 ) ;
#162 =( LENGTH_UNIT ( ) NAMED_UNIT ( * ) SI_UNIT ( .MILLI., .METRE. ) );
#163 =( LENGTH_UNIT ( ) NAMED_UNIT ( * ) SI_UNIT ( .MILLI., .METRE. ) );
#164 = CARTESIAN_POINT ( 'NONE',  ( -10.00000000000000000, 0.000000000000000000, 3.000000000000000000 ) ) ;
#165 = VERTEX_POINT ( 'NONE', #174 ) ;
#166 = DIRECTION ( 'NONE',  ( 0.000000000000000000, 0.000000000000000000, 1.000000000000000000 ) ) ;
#167 = DIRECTION ( 'NONE',  ( -1.000000000000000000, 0.000000000000000000, 0.000000000000000000 ) ) ;
#168 = CIRCLE ( 'NONE', #80, 10.00000000000000000 ) ;
#169 = CIRCLE ( 'NONE', #177, 10.00000000000000000 ) ;
#170 =( GEOMETRIC_REPRESENTATION_CONTEXT ( 3 ) GLOBAL_UNCERTAINTY_ASSIGNED_CONTEXT ( ( #196 ) ) GLOBAL_UNIT_ASSIGNED_CONTEXT ( ( #162, #7, #4 ) ) REPRESENTATION_CONTEXT ( 'NONE', 'WORKASPACE' ) );
#171 = EDGE_CURVE ( 'NONE', #165, #132, #17, .T. ) ;
#172 = ORIENTED_EDGE ( 'NONE', *, *, #18, .T. ) ;
#173 = SURFACE_STYLE_FILL_AREA ( #54 ) ;
#174 = CARTESIAN_POINT ( 'NONE',  ( -6.300000000000000711, 0.000000000000000000, 0.000000000000000000 ) ) ;
#175 = VERTEX_POINT ( 'NONE', #101 ) ;
#176 = ORIENTED_EDGE ( 'NONE', *, *, #152, .F. ) ;
#177 = AXIS2_PLACEMENT_3D ( 'NONE', #89, #166, #15 ) ;
#178 = EDGE_CURVE ( 'NONE', #175, #8, #179, .T. ) ;
#179 = CIRCLE ( 'NONE', #93, 6.300000000000000711 ) ;
#180 = CYLINDRICAL_SURFACE ( 'NONE', #103, 6.300000000000000711 ) ;
#181 = LINE ( 'NONE', #34, #92 ) ;
#182 = DIRECTION ( 'NONE',  ( -0.000000000000000000, -0.000000000000000000, -1.000000000000000000 ) ) ;
#183 = EDGE_CURVE ( 'NONE', #125, #120, #124, .T. ) ;
#184 = AXIS2_PLACEMENT_3D ( 'NONE', #116, #40, #114 ) ;
#185 = ORIENTED_EDGE ( 'NONE', *, *, #59, .F. ) ;
#186 = CARTESIAN_POINT ( 'NONE',  ( 6.300000000000000711, 7.715274834628326364E-16, 3.000000000000000000 ) ) ;
#187 = MECHANICAL_DESIGN_GEOMETRIC_PRESENTATION_REPRESENTATION (  '', ( #161 ), #170 ) ;
#188 = CARTESIAN_POINT ( 'NONE',  ( -6.300000000000000711, 0.000000000000000000, 3.000000000000000000 ) ) ;
#189 = EDGE_LOOP ( 'NONE', ( #176, #134, #1, #27 ) ) ;
#190 = ORIENTED_EDGE ( 'NONE', *, *, #171, .T. ) ;
#191 = CARTESIAN_POINT ( 'NONE',  ( 6.300000000000000711, 7.715274834628326364E-16, 0.000000000000000000 ) ) ;
#192 = DIRECTION ( 'NONE',  ( 0.000000000000000000, 0.000000000000000000, 1.000000000000000000 ) ) ;
#193 = PRODUCT ( 'Spacer', 'Spacer', '', ( #141 ) ) ;
#194 = FACE_OUTER_BOUND ( 'NONE', #71, .T. ) ;
#195 = EDGE_CURVE ( 'NONE', #147, #51, #168, .T. ) ;
#196 = UNCERTAINTY_MEASURE_WITH_UNIT (LENGTH_MEASURE( 1.000000000000000082E-05 ), #162, 'distance_accuracy_value', 'NONE');
#197 = CARTESIAN_POINT ( 'NONE',  ( 0.000000000000000000, 0.000000000000000000, 0.000000000000000000 ) ) ;
#198 = EDGE_LOOP ( 'NONE', ( #154, #5 ) ) ;
#199 = APPLICATION_PROTOCOL_DEFINITION ( 'draft international standard', 'automotive_design', 1998, #32 ) ;
ENDSEC;
END-ISO-10303-21;
