ISO-10303-21;
HEADER;
FILE_DESCRIPTION (( 'STEP AP203' ),
    '1' );
FILE_NAME ('Lower Arm Connector V.3.STEP',
    '2026-02-07T05:23:19',
    ( '' ),
    ( '' ),
    'SwSTEP 2.0',
    'SolidWorks 2025',
    '' );
FILE_SCHEMA (( 'CONFIG_CONTROL_DESIGN' ));
ENDSEC;

DATA;
#1 = EDGE_CURVE ( 'NONE', #343, #535, #441, .T. ) ;
#2 = ORIENTED_EDGE ( 'NONE', *, *, #204, .F. ) ;
#3 = CARTESIAN_POINT ( 'NONE',  ( 20.80912086321459498, 0.2821007244075257603, 5.197754811396936070 ) ) ;
#4 = EDGE_CURVE ( 'NONE', #100, #914, #948, .T. ) ;
#5 = APPROVAL_STATUS ( 'not_yet_approved' ) ;
#6 = DIRECTION ( 'NONE',  ( -0.000000000000000000, -0.000000000000000000, -1.000000000000000000 ) ) ;
#7 = VERTEX_POINT ( 'NONE', #731 ) ;
#8 = VERTEX_POINT ( 'NONE', #980 ) ;
#9 = CARTESIAN_POINT ( 'NONE',  ( -20.40163884000437378, 1.663278118507379277, 6.499945338236438275 ) ) ;
#10 = CARTESIAN_POINT ( 'NONE',  ( 8.660254037844383745, -14.99999999999999822, 0.000000000000000000 ) ) ;
#11 = VERTEX_POINT ( 'NONE', #970 ) ;
#12 = ORIENTED_EDGE ( 'NONE', *, *, #1065, .F. ) ;
#13 = CARTESIAN_POINT ( 'NONE',  ( -20.24829565592234104, 1.920286370126934150, 6.490000665275182712 ) ) ;
#14 = EDGE_CURVE ( 'NONE', #240, #595, #363, .T. ) ;
#15 = LINE ( 'NONE', #116, #895 ) ;
#16 = CIRCLE ( 'NONE', #682, 3.499999999999999556 ) ;
#17 = CIRCLE ( 'NONE', #777, 3.499999999999999556 ) ;
#18 = ORIENTED_EDGE ( 'NONE', *, *, #1073, .F. ) ;
#19 = LINE ( 'NONE', #1050, #248 ) ;
#20 = VECTOR ( 'NONE', #609, 1000.000000000000000 ) ;
#21 = MANIFOLD_SOLID_BREP ( 'Cut-Extrude2', #178 ) ;
#22 = DIRECTION ( 'NONE',  ( -0.5000000000000002220, -0.8660254037844384856, 0.000000000000000000 ) ) ;
#23 = CARTESIAN_POINT ( 'NONE',  ( 11.12500000000000178, 1.362419564051430495E-15, 8.000000000000000000 ) ) ;
#24 = ORIENTED_EDGE ( 'NONE', *, *, #353, .T. ) ;
#25 = CARTESIAN_POINT ( 'NONE',  ( -20.13661521989371295, 2.080629240387299017, 3.549243206962089836 ) ) ;
#26 = CARTESIAN_POINT ( 'NONE',  ( 20.78460969082653165, 5.999999999999986677, 8.000000000000000000 ) ) ;
#27 = DIRECTION ( 'NONE',  ( 1.000000000000000000, 0.000000000000000000, 0.000000000000000000 ) ) ;
#28 = VERTEX_POINT ( 'NONE', #42 ) ;
#29 = DIRECTION ( 'NONE',  ( 0.000000000000000000, 0.000000000000000000, 1.000000000000000000 ) ) ;
#30 = CARTESIAN_POINT ( 'NONE',  ( 24.24871130596427804, -1.482509621968736587E-14, 10.00000000000000000 ) ) ;
#31 = CARTESIAN_POINT ( 'NONE',  ( -8.660254037844383745, 15.00000000000000000, 10.00000000000000000 ) ) ;
#32 = CARTESIAN_POINT ( 'NONE',  ( 17.32050807568876039, -1.734723475976805517E-15, 0.000000000000000000 ) ) ;
#33 = AXIS2_PLACEMENT_3D ( 'NONE', #991, #221, #569 ) ;
#34 = CARTESIAN_POINT ( 'NONE',  ( -11.12500000000000178, 0.000000000000000000, 8.000000000000000000 ) ) ;
#35 = APPROVAL ( #5, 'UNSPECIFIED' ) ;
#36 = CIRCLE ( 'NONE', #180, 3.499999999999999556 ) ;
#37 = ORIENTED_EDGE ( 'NONE', *, *, #397, .F. ) ;
#38 = DIRECTION ( 'NONE',  ( -0.8660254037844385966, 0.5000000000000003331, 0.000000000000000000 ) ) ;
#39 = EDGE_CURVE ( 'NONE', #584, #593, #627, .T. ) ;
#40 = CARTESIAN_POINT ( 'NONE',  ( 20.78460969082653165, 5.999999999999986677, 10.00000000000000000 ) ) ;
#41 = DIRECTION ( 'NONE',  ( 1.000000000000000000, 0.000000000000000000, 0.000000000000000000 ) ) ;
#42 = CARTESIAN_POINT ( 'NONE',  ( 9.000000000000000000, 1.102182119232617714E-15, 8.000000000000000000 ) ) ;
#43 = LINE ( 'NONE', #308, #289 ) ;
#44 = CARTESIAN_POINT ( 'NONE',  ( 13.85640646055102287, 5.999999999999993783, 0.000000000000000000 ) ) ;
#45 = DATE_AND_TIME ( #928, #907 ) ;
#46 = DIRECTION ( 'NONE',  ( -1.000000000000000000, 1.001543065824772950E-15, 0.000000000000000000 ) ) ;
#47 = ADVANCED_FACE ( 'NONE', ( #454 ), #202, .F. ) ;
#48 = DIRECTION ( 'NONE',  ( 0.5000000000000002220, 0.8660254037844384856, 0.000000000000000000 ) ) ;
#49 = ADVANCED_FACE ( 'NONE', ( #802 ), #279, .F. ) ;
#50 = CIRCLE ( 'NONE', #573, 9.000000000000000000 ) ;
#51 = AXIS2_PLACEMENT_3D ( 'NONE', #662, #476, #402 ) ;
#52 = ORIENTED_EDGE ( 'NONE', *, *, #449, .F. ) ;
#53 = APPROVAL_ROLE ( '' ) ;
#54 = CARTESIAN_POINT ( 'NONE',  ( 20.25286754886200313, 1.921043569446426291, 3.499954309787554951 ) ) ;
#55 = EDGE_CURVE ( 'NONE', #436, #667, #374, .T. ) ;
#56 = CARTESIAN_POINT ( 'NONE',  ( -22.51666049839540307, 2.999999999999994671, 5.000000000000000888 ) ) ;
#57 = APPLICATION_CONTEXT ( 'configuration controlled 3d designs of mechanical parts and assemblies' ) ;
#58 = VERTEX_POINT ( 'NONE', #1057 ) ;
#59 = CARTESIAN_POINT ( 'NONE',  ( 19.96271091607130899, 2.297210809295181289, 3.653549112900533302 ) ) ;
#60 = LINE ( 'NONE', #898, #791 ) ;
#61 = ADVANCED_BREP_SHAPE_REPRESENTATION ( 'Lower Arm Connector V.3', ( #21, #107 ), #262 ) ;
#62 = ORIENTED_EDGE ( 'NONE', *, *, #286, .F. ) ;
#63 = DIRECTION ( 'NONE',  ( 0.8660254037844390407, 0.4999999999999992784, 0.000000000000000000 ) ) ;
#64 = ORIENTED_EDGE ( 'NONE', *, *, #815, .F. ) ;
#65 = CARTESIAN_POINT ( 'NONE',  ( 20.78460969082653165, 5.999999999999986677, 0.000000000000000000 ) ) ;
#66 = LOCAL_TIME ( 22, 23, 19.00000000000000000, #405 ) ;
#67 = FACE_OUTER_BOUND ( 'NONE', #845, .T. ) ;
#68 = DIRECTION ( 'NONE',  ( 0.000000000000000000, 0.000000000000000000, 1.000000000000000000 ) ) ;
#69 = ORIENTED_EDGE ( 'NONE', *, *, #414, .T. ) ;
#70 = EDGE_CURVE ( 'NONE', #233, #655, #195, .T. ) ;
#71 = ORIENTED_EDGE ( 'NONE', *, *, #565, .F. ) ;
#72 = VECTOR ( 'NONE', #936, 1000.000000000000000 ) ;
#73 = CALENDAR_DATE ( 2026, 6, 2 ) ;
#74 = CARTESIAN_POINT ( 'NONE',  ( 20.63164208043811598, 1.137968890696167801, 6.345670898870579002 ) ) ;
#75 = CIRCLE ( 'NONE', #646, 3.499999999999999556 ) ;
#76 = APPLICATION_PROTOCOL_DEFINITION ( 'international standard', 'config_control_design', 1994, #714 ) ;
#77 = DIRECTION ( 'NONE',  ( -0.8660254037844391517, -0.4999999999999990563, 0.000000000000000000 ) ) ;
#78 = EDGE_LOOP ( 'NONE', ( #344, #795 ) ) ;
#79 = VERTEX_POINT ( 'NONE', #471 ) ;
#80 = DIRECTION ( 'NONE',  ( -1.000000000000000000, 0.000000000000000000, 0.000000000000000000 ) ) ;
#81 = DIRECTION ( 'NONE',  ( -0.4999999999999990563, -0.8660254037844391517, -0.000000000000000000 ) ) ;
#82 = CARTESIAN_POINT ( 'NONE',  ( 20.78460969082653165, 5.999999999999986677, 10.00000000000000000 ) ) ;
#83 = ORIENTED_EDGE ( 'NONE', *, *, #204, .T. ) ;
#84 = EDGE_LOOP ( 'NONE', ( #241, #108 ) ) ;
#85 = FACE_OUTER_BOUND ( 'NONE', #760, .T. ) ;
#86 = DIRECTION ( 'NONE',  ( 0.000000000000000000, 0.000000000000000000, 1.000000000000000000 ) ) ;
#87 = EDGE_CURVE ( 'NONE', #236, #328, #16, .T. ) ;
#88 = SECURITY_CLASSIFICATION ( '', '', #993 ) ;
#89 = ORIENTED_EDGE ( 'NONE', *, *, #952, .F. ) ;
#90 = EDGE_CURVE ( 'NONE', #143, #924, #198, .T. ) ;
#91 = ORIENTED_EDGE ( 'NONE', *, *, #601, .T. ) ;
#92 = FACE_BOUND ( 'NONE', #1010, .T. ) ;
#93 = VECTOR ( 'NONE', #48, 1000.000000000000227 ) ;
#94 = DIRECTION ( 'NONE',  ( -0.5000000000000005551, -0.8660254037844383745, 0.000000000000000000 ) ) ;
#95 = DIRECTION ( 'NONE',  ( -1.000000000000000000, -1.001543065824772950E-15, -0.000000000000000000 ) ) ;
#96 = EDGE_LOOP ( 'NONE', ( #672, #485, #160, #172 ) ) ;
#97 = ORIENTED_EDGE ( 'NONE', *, *, #829, .F. ) ;
#98 = DIRECTION ( 'NONE',  ( -1.000000000000000000, 0.000000000000000000, 0.000000000000000000 ) ) ;
#99 = CARTESIAN_POINT ( 'NONE',  ( 8.660254037844383745, -14.99999999999999822, 8.000000000000000000 ) ) ;
#100 = VERTEX_POINT ( 'NONE', #1079 ) ;
#101 = ORIENTED_EDGE ( 'NONE', *, *, #327, .F. ) ;
#102 = ADVANCED_FACE ( 'NONE', ( #997 ), #1026, .F. ) ;
#103 = CARTESIAN_POINT ( 'NONE',  ( -20.80135609710410804, 0.3679573458300858246, 5.488061774185617914 ) ) ;
#104 = CARTESIAN_POINT ( 'NONE',  ( 20.80139047639001504, 0.3676410352355466982, 4.512731030665351639 ) ) ;
#105 = ORIENTED_EDGE ( 'NONE', *, *, #604, .F. ) ;
#106 = CARTESIAN_POINT ( 'NONE',  ( -20.65887346986010797, 1.054624596826245098, 3.700709730653537033 ) ) ;
#107 = AXIS2_PLACEMENT_3D ( 'NONE', #1102, #415, #763 ) ;
#108 = ORIENTED_EDGE ( 'NONE', *, *, #1087, .F. ) ;
#109 = CARTESIAN_POINT ( 'NONE',  ( -20.80827618150225788, 0.2931415869052905188, 5.198927637564871418 ) ) ;
#110 = DIRECTION ( 'NONE',  ( -0.8660254037844389297, 0.4999999999999993894, -0.000000000000000000 ) ) ;
#111 = AXIS2_PLACEMENT_3D ( 'NONE', #608, #754, #80 ) ;
#112 = VERTEX_POINT ( 'NONE', #427 ) ;
#113 = LINE ( 'NONE', #554, #592 ) ;
#114 = DIRECTION ( 'NONE',  ( -0.4999999999999990563, 0.8660254037844391517, 0.000000000000000000 ) ) ;
#115 = CYLINDRICAL_SURFACE ( 'NONE', #811, 1.499999999999999778 ) ;
#116 = CARTESIAN_POINT ( 'NONE',  ( -13.82050807568877282, -3.091198618385168271E-15, 8.000000000000000000 ) ) ;
#117 = ORIENTED_EDGE ( 'NONE', *, *, #400, .F. ) ;
#118 = CARTESIAN_POINT ( 'NONE',  ( 24.24871130596427804, -1.482509621968736587E-14, 0.000000000000000000 ) ) ;
#119 = UNCERTAINTY_MEASURE_WITH_UNIT (LENGTH_MEASURE( 1.000000000000000082E-05 ), #432, 'distance_accuracy_value', 'NONE');
#120 = CARTESIAN_POINT ( 'NONE',  ( -13.85640646055101222, -6.000000000000007105, 8.000000000000000000 ) ) ;
#121 = CARTESIAN_POINT ( 'NONE',  ( 11.12500000000000178, 1.362419564051430495E-15, 8.000000000000000000 ) ) ;
#122 = CARTESIAN_POINT ( 'NONE',  ( -19.90302301739502155, 2.363788421009538343, 3.700725749026849254 ) ) ;
#123 = EDGE_CURVE ( 'NONE', #11, #361, #613, .T. ) ;
#124 = FACE_OUTER_BOUND ( 'NONE', #411, .T. ) ;
#125 = DIRECTION ( 'NONE',  ( 1.000000000000000000, 0.000000000000000000, 0.000000000000000000 ) ) ;
#126 = VECTOR ( 'NONE', #379, 1000.000000000000000 ) ;
#127 = DIRECTION ( 'NONE',  ( -0.5000000000000003331, -0.8660254037844383745, 0.000000000000000000 ) ) ;
#128 = VECTOR ( 'NONE', #856, 1000.000000000000000 ) ;
#129 = DIRECTION ( 'NONE',  ( 0.5000000000000004441, 0.8660254037844384856, 0.000000000000000000 ) ) ;
#130 = VECTOR ( 'NONE', #81, 1000.000000000000000 ) ;
#131 = DIRECTION ( 'NONE',  ( -0.5000000000000003331, -0.8660254037844383745, 0.000000000000000000 ) ) ;
#132 = FACE_BOUND ( 'NONE', #1038, .T. ) ;
#133 = ADVANCED_FACE ( 'NONE', ( #257 ), #235, .F. ) ;
#134 = DIRECTION ( 'NONE',  ( 0.8660254037844384856, 0.5000000000000004441, -0.000000000000000000 ) ) ;
#135 = EDGE_CURVE ( 'NONE', #546, #354, #841, .T. ) ;
#136 = FACE_BOUND ( 'NONE', #903, .T. ) ;
#137 = ORIENTED_EDGE ( 'NONE', *, *, #972, .T. ) ;
#138 = CC_DESIGN_DATE_AND_TIME_ASSIGNMENT ( #45, #571, ( #88 ) ) ;
#139 = CARTESIAN_POINT ( 'NONE',  ( -13.85640646055101222, -6.000000000000007105, 10.00000000000000000 ) ) ;
#140 = LINE ( 'NONE', #320, #93 ) ;
#141 = VECTOR ( 'NONE', #463, 1000.000000000000000 ) ;
#142 = VECTOR ( 'NONE', #966, 1000.000000000000000 ) ;
#143 = VERTEX_POINT ( 'NONE', #469 ) ;
#144 = DIRECTION ( 'NONE',  ( -0.5000000000000003331, 0.8660254037844383745, 0.000000000000000000 ) ) ;
#145 = LINE ( 'NONE', #987, #822 ) ;
#146 = CARTESIAN_POINT ( 'NONE',  ( -19.47856887612225663, 2.756734019602789409, 4.240495350974646804 ) ) ;
#147 = VERTEX_POINT ( 'NONE', #194 ) ;
#148 = PERSON_AND_ORGANIZATION ( #619, #872 ) ;
#149 = CARTESIAN_POINT ( 'NONE',  ( 20.35278000163621925, -21.75068301270186666, 5.000000000000000888 ) ) ;
#150 = LINE ( 'NONE', #44, #840 ) ;
#151 = EDGE_CURVE ( 'NONE', #611, #607, #213, .T. ) ;
#152 = ORIENTED_EDGE ( 'NONE', *, *, #972, .F. ) ;
#153 = VERTEX_POINT ( 'NONE', #1060 ) ;
#154 = EDGE_CURVE ( 'NONE', #256, #678, #209, .T. ) ;
#155 = PERSON_AND_ORGANIZATION_ROLE ( 'classification_officer' ) ;
#156 = CARTESIAN_POINT ( 'NONE',  ( 20.80614079076888245, 0.3271665268075506505, 5.397385348099112967 ) ) ;
#157 = DIRECTION ( 'NONE',  ( -0.8660254037844390407, 0.4999999999999994449, -0.000000000000000000 ) ) ;
#158 = LINE ( 'NONE', #842, #128 ) ;
#159 = ORIENTED_EDGE ( 'NONE', *, *, #369, .T. ) ;
#160 = ORIENTED_EDGE ( 'NONE', *, *, #484, .F. ) ;
#161 = VECTOR ( 'NONE', #968, 1000.000000000000000 ) ;
#162 = CIRCLE ( 'NONE', #378, 9.000000000000000000 ) ;
#163 = CYLINDRICAL_SURFACE ( 'NONE', #111, 11.12500000000000178 ) ;
#164 = DIRECTION ( 'NONE',  ( 1.001543065824772950E-15, 1.000000000000000000, -0.000000000000000000 ) ) ;
#165 = ORIENTED_EDGE ( 'NONE', *, *, #503, .F. ) ;
#166 = EDGE_LOOP ( 'NONE', ( #1091, #700, #89, #509 ) ) ;
#167 = CARTESIAN_POINT ( 'NONE',  ( 20.24873029639993049, 1.919641112287199025, 6.490127266337312406 ) ) ;
#168 = EDGE_CURVE ( 'NONE', #7, #1094, #113, .T. ) ;
#169 = CARTESIAN_POINT ( 'NONE',  ( -24.24871130596427804, -1.482509621968736587E-14, 0.000000000000000000 ) ) ;
#170 = CARTESIAN_POINT ( 'NONE',  ( -19.30912086321460208, 2.880176935760843993, 5.000000000000000888 ) ) ;
#171 = EDGE_CURVE ( 'NONE', #593, #1094, #984, .T. ) ;
#172 = ORIENTED_EDGE ( 'NONE', *, *, #1014, .T. ) ;
#173 = DIRECTION ( 'NONE',  ( 1.000000000000000000, 1.001543065824772950E-15, 0.000000000000000000 ) ) ;
#174 = CARTESIAN_POINT ( 'NONE',  ( -20.78460969082653165, 5.999999999999986677, 0.000000000000000000 ) ) ;
#175 = ORIENTED_EDGE ( 'NONE', *, *, #368, .F. ) ;
#176 = CARTESIAN_POINT ( 'NONE',  ( -19.35352338785416393, 2.849090016968920391, 4.606584198012656728 ) ) ;
#177 = ORIENTED_EDGE ( 'NONE', *, *, #1009, .F. ) ;
#178 = CLOSED_SHELL ( 'NONE', ( #382, #1075, #133, #102, #568, #687, #386, #581, #557, #49, #47, #849, #705, #882, #963, #268, #1045, #438, #720, #472, #698, #803, #493, #832, #912, #296, #801, #756, #933 ) ) ;
#179 = DIRECTION ( 'NONE',  ( -1.000000000000000000, 0.000000000000000000, 0.000000000000000000 ) ) ;
#180 = AXIS2_PLACEMENT_3D ( 'NONE', #939, #516, #861 ) ;
#181 = CIRCLE ( 'NONE', #986, 1.500000000000000666 ) ;
#182 = CARTESIAN_POINT ( 'NONE',  ( 0.000000000000000000, 0.000000000000000000, 0.000000000000000000 ) ) ;
#183 = ORIENTED_EDGE ( 'NONE', *, *, #829, .T. ) ;
#184 = EDGE_CURVE ( 'NONE', #761, #143, #708, .T. ) ;
#185 = ORIENTED_EDGE ( 'NONE', *, *, #4, .T. ) ;
#186 = CARTESIAN_POINT ( 'NONE',  ( -20.35278000163621570, -21.75068301270185955, 5.000000000000000000 ) ) ;
#187 = DIRECTION ( 'NONE',  ( 0.000000000000000000, -0.000000000000000000, -1.000000000000000000 ) ) ;
#188 = EDGE_LOOP ( 'NONE', ( #588, #1033, #193, #578, #304, #844, #956, #674, #253, #492, #458, #1074, #766, #24 ) ) ;
#189 = APPROVAL ( #311, 'UNSPECIFIED' ) ;
#190 = ORIENTED_EDGE ( 'NONE', *, *, #151, .T. ) ;
#191 = CARTESIAN_POINT ( 'NONE',  ( -19.30912086321460563, 2.880176935760848878, 5.197754811396939623 ) ) ;
#192 = CARTESIAN_POINT ( 'NONE',  ( 17.32050807568876039, -1.734723475976805517E-15, 8.000000000000000000 ) ) ;
#193 = ORIENTED_EDGE ( 'NONE', *, *, #456, .T. ) ;
#194 = CARTESIAN_POINT ( 'NONE',  ( -24.24871130596427804, -1.482509621968736587E-14, 0.000000000000000000 ) ) ;
#195 = LINE ( 'NONE', #727, #808 ) ;
#196 = CARTESIAN_POINT ( 'NONE',  ( -19.96158504612274243, 2.298541718099353925, 6.345670898870579002 ) ) ;
#197 = CARTESIAN_POINT ( 'NONE',  ( -20.78460969082652099, -6.000000000000014211, 0.000000000000000000 ) ) ;
#198 = CIRCLE ( 'NONE', #301, 1.499999999999998890 ) ;
#199 = AXIS2_PLACEMENT_3D ( 'NONE', #218, #1077, #131 ) ;
#200 = ORIENTED_EDGE ( 'NONE', *, *, #995, .T. ) ;
#201 = CARTESIAN_POINT ( 'NONE',  ( -19.73230952490952816, 2.537407022280431246, 3.870269613594417457 ) ) ;
#202 = PLANE ( 'NONE',  #909 ) ;
#203 = CARTESIAN_POINT ( 'NONE',  ( 20.78460969082652099, -6.000000000000014211, 0.000000000000000000 ) ) ;
#204 = EDGE_CURVE ( 'NONE', #607, #361, #362, .T. ) ;
#205 = DIRECTION ( 'NONE',  ( -0.000000000000000000, -0.000000000000000000, -1.000000000000000000 ) ) ;
#206 = CARTESIAN_POINT ( 'NONE',  ( -20.07937666665015541, 2.155701928695318514, 3.578034041414565714 ) ) ;
#207 = CARTESIAN_POINT ( 'NONE',  ( -20.77008324321487009, 0.6090827158596039403, 5.924005342320866951 ) ) ;
#208 = CARTESIAN_POINT ( 'NONE',  ( -8.660254037844383745, 15.00000000000000000, 8.000000000000000000 ) ) ;
#209 = LINE ( 'NONE', #445, #126 ) ;
#210 = DIRECTION ( 'NONE',  ( 1.001543065824772950E-15, -1.000000000000000000, 0.000000000000000000 ) ) ;
#211 = DIRECTION ( 'NONE',  ( 1.000000000000000000, -1.001543065824772950E-15, 0.000000000000000000 ) ) ;
#212 = CARTESIAN_POINT ( 'NONE',  ( -20.78460969082653165, 5.999999999999986677, 0.000000000000000000 ) ) ;
#213 = CIRCLE ( 'NONE', #522, 11.12500000000000178 ) ;
#214 = LINE ( 'NONE', #278, #161 ) ;
#215 = AXIS2_PLACEMENT_3D ( 'NONE', #192, #545, #360 ) ;
#216 = EDGE_CURVE ( 'NONE', #546, #524, #452, .T. ) ;
#217 = AXIS2_PLACEMENT_3D ( 'NONE', #120, #1047, #866 ) ;
#218 = CARTESIAN_POINT ( 'NONE',  ( 20.78460969082652099, -6.000000000000014211, 8.000000000000000000 ) ) ;
#219 = CARTESIAN_POINT ( 'NONE',  ( -13.85640646055101222, -6.000000000000007105, 8.000000000000000000 ) ) ;
#220 = ORIENTED_EDGE ( 'NONE', *, *, #435, .T. ) ;
#221 = DIRECTION ( 'NONE',  ( 0.000000000000000000, 0.000000000000000000, 1.000000000000000000 ) ) ;
#222 = ORIENTED_EDGE ( 'NONE', *, *, #1073, .T. ) ;
#223 = CARTESIAN_POINT ( 'NONE',  ( 19.73191127362803243, 2.537785460790465741, 3.870728700428305746 ) ) ;
#224 = DIRECTION ( 'NONE',  ( 0.000000000000000000, 0.000000000000000000, 1.000000000000000000 ) ) ;
#225 = VECTOR ( 'NONE', #1083, 1000.000000000000114 ) ;
#226 = VECTOR ( 'NONE', #376, 1000.000000000000000 ) ;
#227 = DIRECTION ( 'NONE',  ( -0.4999999999999985012, 0.8660254037844394848, 0.000000000000000000 ) ) ;
#228 = EDGE_LOOP ( 'NONE', ( #440, #393, #336, #942 ) ) ;
#229 = EDGE_CURVE ( 'NONE', #742, #1061, #19, .T. ) ;
#230 = COORDINATED_UNIVERSAL_TIME_OFFSET ( 7, 0, .BEHIND. ) ;
#231 = FACE_OUTER_BOUND ( 'NONE', #228, .T. ) ;
#232 = DIRECTION ( 'NONE',  ( -0.000000000000000000, -0.000000000000000000, -1.000000000000000000 ) ) ;
#233 = VERTEX_POINT ( 'NONE', #1044 ) ;
#234 = EDGE_CURVE ( 'NONE', #343, #584, #214, .T. ) ;
#235 = CYLINDRICAL_SURFACE ( 'NONE', #701, 9.000000000000000000 ) ;
#236 = VERTEX_POINT ( 'NONE', #459 ) ;
#237 = CARTESIAN_POINT ( 'NONE',  ( 20.30151456203275018, 1.836698455025380872, 6.499945338236439163 ) ) ;
#238 = CARTESIAN_POINT ( 'NONE',  ( 8.660254037844383745, -14.99999999999999822, 0.000000000000000000 ) ) ;
#239 = DIRECTION ( 'NONE',  ( 0.8660254037844390407, 0.4999999999999993339, -0.000000000000000000 ) ) ;
#240 = VERTEX_POINT ( 'NONE', #283 ) ;
#241 = ORIENTED_EDGE ( 'NONE', *, *, #878, .F. ) ;
#242 = FACE_OUTER_BOUND ( 'NONE', #694, .T. ) ;
#243 = CARTESIAN_POINT ( 'NONE',  ( -13.85640646055102287, 5.999999999999993783, 0.000000000000000000 ) ) ;
#244 = LINE ( 'NONE', #10, #1085 ) ;
#245 = ORIENTED_EDGE ( 'NONE', *, *, #724, .T. ) ;
#246 = EDGE_CURVE ( 'NONE', #914, #100, #50, .T. ) ;
#247 = ORIENTED_EDGE ( 'NONE', *, *, #481, .F. ) ;
#248 = VECTOR ( 'NONE', #634, 1000.000000000000000 ) ;
#249 = AXIS2_PLACEMENT_3D ( 'NONE', #425, #77, #947 ) ;
#250 = CARTESIAN_POINT ( 'NONE',  ( -17.32050807568877460, -3.519824998086741684E-15, 8.000000000000000000 ) ) ;
#251 = EDGE_CURVE ( 'NONE', #683, #488, #1056, .T. ) ;
#252 = CARTESIAN_POINT ( 'NONE',  ( 9.000000000000000000, 1.102182119232617714E-15, 10.00000000000000000 ) ) ;
#253 = ORIENTED_EDGE ( 'NONE', *, *, #286, .T. ) ;
#254 = CARTESIAN_POINT ( 'NONE',  ( 20.56680954590539301, 1.311529015336344361, 6.422080469500406785 ) ) ;
#255 = CARTESIAN_POINT ( 'NONE',  ( -17.32050807568877460, -3.519824998086741684E-15, 0.000000000000000000 ) ) ;
#256 = VERTEX_POINT ( 'NONE', #718 ) ;
#257 = FACE_OUTER_BOUND ( 'NONE', #799, .T. ) ;
#258 = ORIENTED_EDGE ( 'NONE', *, *, #453, .T. ) ;
#259 = FACE_BOUND ( 'NONE', #417, .T. ) ;
#260 = CALENDAR_DATE ( 2026, 6, 2 ) ;
#261 = CARTESIAN_POINT ( 'NONE',  ( -13.82050807568877282, -3.091198618385168271E-15, 10.00000000000000000 ) ) ;
#262 =( GEOMETRIC_REPRESENTATION_CONTEXT ( 3 ) GLOBAL_UNCERTAINTY_ASSIGNED_CONTEXT ( ( #119 ) ) GLOBAL_UNIT_ASSIGNED_CONTEXT ( ( #432, #518, #407 ) ) REPRESENTATION_CONTEXT ( 'NONE', 'WORKASPACE' ) );
#263 = ORIENTED_EDGE ( 'NONE', *, *, #312, .F. ) ;
#264 = DIRECTION ( 'NONE',  ( 1.000000000000000000, 0.000000000000000000, 0.000000000000000000 ) ) ;
#265 = EDGE_LOOP ( 'NONE', ( #850, #97, #854, #950 ) ) ;
#266 = CIRCLE ( 'NONE', #985, 3.499999999999999556 ) ;
#267 = CARTESIAN_POINT ( 'NONE',  ( 0.000000000000000000, 0.000000000000000000, 8.000000000000000000 ) ) ;
#268 = ADVANCED_FACE ( 'NONE', ( #290 ), #726, .F. ) ;
#269 = CARTESIAN_POINT ( 'NONE',  ( 22.51666049839539951, 2.999999999999993339, 5.000000000000000000 ) ) ;
#270 = VECTOR ( 'NONE', #512, 1000.000000000000000 ) ;
#271 = CARTESIAN_POINT ( 'NONE',  ( 20.53043942582335291, 1.398505706466665721, 3.549243206962087616 ) ) ;
#272 = ORIENTED_EDGE ( 'NONE', *, *, #135, .T. ) ;
#273 = EDGE_CURVE ( 'NONE', #765, #233, #60, .T. ) ;
#274 = EDGE_LOOP ( 'NONE', ( #821, #52, #582, #315 ) ) ;
#275 = LINE ( 'NONE', #1034, #951 ) ;
#276 = LINE ( 'NONE', #457, #410 ) ;
#277 = ORIENTED_EDGE ( 'NONE', *, *, #523, .F. ) ;
#278 = CARTESIAN_POINT ( 'NONE',  ( 8.660254037844380193, 15.00000000000000000, 8.000000000000000000 ) ) ;
#279 = PLANE ( 'NONE',  #857 ) ;
#280 = DIRECTION ( 'NONE',  ( -0.5000000000000005551, 0.8660254037844383745, 0.000000000000000000 ) ) ;
#281 = DIRECTION ( 'NONE',  ( 0.000000000000000000, 0.000000000000000000, 1.000000000000000000 ) ) ;
#282 = EDGE_LOOP ( 'NONE', ( #247, #185, #222, #1049 ) ) ;
#283 = CARTESIAN_POINT ( 'NONE',  ( 24.24871130596427804, -1.482509621968736587E-14, 10.00000000000000000 ) ) ;
#284 = EDGE_CURVE ( 'NONE', #426, #584, #150, .T. ) ;
#285 = CARTESIAN_POINT ( 'NONE',  ( -9.000000000000000000, 0.000000000000000000, 10.00000000000000000 ) ) ;
#286 = EDGE_CURVE ( 'NONE', #678, #1105, #140, .T. ) ;
#287 = CARTESIAN_POINT ( 'NONE',  ( 20.80912086321459142, 0.2821007244075214859, 5.000000000000000000 ) ) ;
#288 = VECTOR ( 'NONE', #1064, 1000.000000000000000 ) ;
#289 = VECTOR ( 'NONE', #486, 1000.000000000000000 ) ;
#290 = FACE_OUTER_BOUND ( 'NONE', #404, .T. ) ;
#291 = CARTESIAN_POINT ( 'NONE',  ( -20.80912086321461274, 0.2821007244075356968, 5.100442972728289170 ) ) ;
#292 = CARTESIAN_POINT ( 'NONE',  ( 20.72386774133501319, 0.8199778127690675600, 3.870269613594413904 ) ) ;
#293 = CARTESIAN_POINT ( 'NONE',  ( -20.30195524657324313, 1.835962386905049204, 3.500022905214493996 ) ) ;
#294 = CARTESIAN_POINT ( 'NONE',  ( 8.660254037844383745, -14.99999999999999822, 8.000000000000000000 ) ) ;
#295 = CARTESIAN_POINT ( 'NONE',  ( 19.30912086321460208, 2.880176935760845325, 5.000000000000000000 ) ) ;
#296 = ADVANCED_FACE ( 'NONE', ( #491, #1003, #132, #647 ), #820, .T. ) ;
#297 = CARTESIAN_POINT ( 'NONE',  ( 21.10278000163621925, -20.45164490702520865, 5.000000000000000888 ) ) ;
#298 = DIRECTION ( 'NONE',  ( 1.000000000000000000, 0.000000000000000000, 0.000000000000000000 ) ) ;
#299 = CARTESIAN_POINT ( 'NONE',  ( 0.000000000000000000, 0.000000000000000000, 8.000000000000000000 ) ) ;
#300 = CC_DESIGN_DATE_AND_TIME_ASSIGNMENT ( #401, #743, ( #1051 ) ) ;
#301 = AXIS2_PLACEMENT_3D ( 'NONE', #269, #63, #227 ) ;
#302 = DIRECTION ( 'NONE',  ( -0.5000000000000006661, 0.8660254037844382635, 0.000000000000000000 ) ) ;
#303 = VECTOR ( 'NONE', #352, 1000.000000000000000 ) ;
#304 = ORIENTED_EDGE ( 'NONE', *, *, #273, .T. ) ;
#305 = CARTESIAN_POINT ( 'NONE',  ( -24.24871130596427804, -1.482509621968736587E-14, 10.00000000000000000 ) ) ;
#306 = FACE_BOUND ( 'NONE', #685, .T. ) ;
#307 = ORIENTED_EDGE ( 'NONE', *, *, #650, .T. ) ;
#308 = CARTESIAN_POINT ( 'NONE',  ( -20.82050807568877104, -3.519824998086741684E-15, 8.000000000000000000 ) ) ;
#309 = CARTESIAN_POINT ( 'NONE',  ( 17.32050807568876039, -1.734723475976805517E-15, 10.00000000000000000 ) ) ;
#310 = ORIENTED_EDGE ( 'NONE', *, *, #604, .T. ) ;
#311 = APPROVAL_STATUS ( 'not_yet_approved' ) ;
#312 = EDGE_CURVE ( 'NONE', #147, #655, #913, .T. ) ;
#313 = CARTESIAN_POINT ( 'NONE',  ( -20.82050807568877104, -3.519824998086741684E-15, 10.00000000000000000 ) ) ;
#314 = CIRCLE ( 'NONE', #465, 1.500000000000000666 ) ;
#315 = ORIENTED_EDGE ( 'NONE', *, *, #503, .T. ) ;
#316 = VECTOR ( 'NONE', #205, 1000.000000000000000 ) ;
#317 = VECTOR ( 'NONE', #977, 1000.000000000000000 ) ;
#318 = ORIENTED_EDGE ( 'NONE', *, *, #55, .F. ) ;
#319 = CARTESIAN_POINT ( 'NONE',  ( -24.24871130596427804, -1.482509621968736587E-14, 8.000000000000000000 ) ) ;
#320 = CARTESIAN_POINT ( 'NONE',  ( 8.660254037844383745, -14.99999999999999822, 10.00000000000000000 ) ) ;
#321 = ORIENTED_EDGE ( 'NONE', *, *, #368, .T. ) ;
#322 = ORIENTED_EDGE ( 'NONE', *, *, #369, .F. ) ;
#323 = PRODUCT ( 'Lower Arm Connector V.3', 'Lower Arm Connector V.3', '', ( #325 ) ) ;
#324 = CARTESIAN_POINT ( 'NONE',  ( 20.44741864487647831, 1.575395236303361646, 6.490000665275180047 ) ) ;
#325 = MECHANICAL_CONTEXT ( 'NONE', #714, 'mechanical' ) ;
#326 = LINE ( 'NONE', #421, #575 ) ;
#327 = EDGE_CURVE ( 'NONE', #1100, #924, #145, .T. ) ;
#328 = VERTEX_POINT ( 'NONE', #734 ) ;
#329 = EDGE_CURVE ( 'NONE', #79, #426, #403, .T. ) ;
#330 = EDGE_LOOP ( 'NONE', ( #771, #781, #478, #101 ) ) ;
#331 = CARTESIAN_POINT ( 'NONE',  ( 20.72432510340988543, 0.8180370635121042566, 6.128009155048674828 ) ) ;
#332 = APPROVAL_PERSON_ORGANIZATION ( #489, #946, #589 ) ;
#333 = CYLINDRICAL_SURFACE ( 'NONE', #1039, 1.499999999999999778 ) ;
#334 = CARTESIAN_POINT ( 'NONE',  ( 13.85640646055102287, 5.999999999999993783, 0.000000000000000000 ) ) ;
#335 = CC_DESIGN_PERSON_AND_ORGANIZATION_ASSIGNMENT ( #818, #989, ( #805 ) ) ;
#336 = ORIENTED_EDGE ( 'NONE', *, *, #273, .F. ) ;
#337 = VERTEX_POINT ( 'NONE', #313 ) ;
#338 = VECTOR ( 'NONE', #114, 1000.000000000000000 ) ;
#339 = VECTOR ( 'NONE', #1020, 1000.000000000000000 ) ;
#340 = PLANE ( 'NONE',  #664 ) ;
#341 = PERSON_AND_ORGANIZATION ( #619, #872 ) ;
#342 = PLANE ( 'NONE',  #703 ) ;
#343 = VERTEX_POINT ( 'NONE', #835 ) ;
#344 = ORIENTED_EDGE ( 'NONE', *, *, #893, .T. ) ;
#345 = CARTESIAN_POINT ( 'NONE',  ( -17.32050807568877460, -3.519824998086741684E-15, 0.000000000000000000 ) ) ;
#346 = CARTESIAN_POINT ( 'NONE',  ( 19.30912086321460208, 2.880176935760845325, 5.000000000000000000 ) ) ;
#347 = CARTESIAN_POINT ( 'NONE',  ( -13.85640646055102287, 5.999999999999993783, 10.00000000000000000 ) ) ;
#348 = EDGE_LOOP ( 'NONE', ( #695, #689, #919, #830 ) ) ;
#349 = VERTEX_POINT ( 'NONE', #750 ) ;
#350 = EDGE_CURVE ( 'NONE', #349, #742, #1072, .T. ) ;
#351 = FACE_OUTER_BOUND ( 'NONE', #874, .T. ) ;
#352 = DIRECTION ( 'NONE',  ( -1.000000000000000000, 1.001543065824772950E-15, 0.000000000000000000 ) ) ;
#353 = EDGE_CURVE ( 'NONE', #79, #343, #474, .T. ) ;
#354 = VERTEX_POINT ( 'NONE', #487 ) ;
#355 = DIRECTION ( 'NONE',  ( -0.000000000000000000, -0.000000000000000000, -1.000000000000000000 ) ) ;
#356 = ORIENTED_EDGE ( 'NONE', *, *, #246, .T. ) ;
#357 = AXIS2_PLACEMENT_3D ( 'NONE', #1008, #239, #825 ) ;
#358 = CARTESIAN_POINT ( 'NONE',  ( -19.78786026831773270, 2.483764123741571517, 6.190785493858315114 ) ) ;
#359 = CIRCLE ( 'NONE', #930, 1.499999999999998890 ) ;
#360 = DIRECTION ( 'NONE',  ( -1.000000000000000000, 0.000000000000000000, 0.000000000000000000 ) ) ;
#361 = VERTEX_POINT ( 'NONE', #671 ) ;
#362 = LINE ( 'NONE', #34, #288 ) ;
#363 = LINE ( 'NONE', #30, #338 ) ;
#364 = CARTESIAN_POINT ( 'NONE',  ( 0.000000000000000000, 0.000000000000000000, 8.000000000000000000 ) ) ;
#365 = CYLINDRICAL_SURFACE ( 'NONE', #215, 3.499999999999999556 ) ;
#366 = ORIENTED_EDGE ( 'NONE', *, *, #1009, .T. ) ;
#367 = DIRECTION ( 'NONE',  ( -0.000000000000000000, -0.000000000000000000, -1.000000000000000000 ) ) ;
#368 = EDGE_CURVE ( 'NONE', #236, #153, #477, .T. ) ;
#369 = EDGE_CURVE ( 'NONE', #58, #349, #917, .T. ) ;
#370 = CARTESIAN_POINT ( 'NONE',  ( -19.90300119139764234, 2.363819022720010210, 6.299270061725624537 ) ) ;
#371 = CARTESIAN_POINT ( 'NONE',  ( 20.78460969082652099, -6.000000000000014211, 8.000000000000000000 ) ) ;
#372 = EDGE_LOOP ( 'NONE', ( #505, #321, #944, #863 ) ) ;
#373 = DIRECTION ( 'NONE',  ( -0.4999999999999990563, 0.8660254037844391517, 0.000000000000000000 ) ) ;
#374 = LINE ( 'NONE', #887, #500 ) ;
#375 = DIRECTION ( 'NONE',  ( 0.5000000000000003331, 0.8660254037844383745, 0.000000000000000000 ) ) ;
#376 = DIRECTION ( 'NONE',  ( -0.000000000000000000, -0.000000000000000000, -1.000000000000000000 ) ) ;
#377 = AXIS2_PLACEMENT_3D ( 'NONE', #534, #1005, #264 ) ;
#378 = AXIS2_PLACEMENT_3D ( 'NONE', #901, #641, #1082 ) ;
#379 = DIRECTION ( 'NONE',  ( 1.000000000000000000, 1.001543065824773222E-16, 0.000000000000000000 ) ) ;
#380 = CARTESIAN_POINT ( 'NONE',  ( 8.660254037844380193, 15.00000000000000000, 0.000000000000000000 ) ) ;
#381 = DIRECTION ( 'NONE',  ( -0.000000000000000000, -0.000000000000000000, -1.000000000000000000 ) ) ;
#382 = ADVANCED_FACE ( 'NONE', ( #563 ), #1089, .F. ) ;
#383 = CARTESIAN_POINT ( 'NONE',  ( 20.63104368630924768, 1.139631817030182681, 3.653540097433213507 ) ) ;
#384 = CARTESIAN_POINT ( 'NONE',  ( -20.70519676422056321, 0.8948737491717132508, 3.809237704951368819 ) ) ;
#385 = DIRECTION ( 'NONE',  ( 0.000000000000000000, 0.000000000000000000, 1.000000000000000000 ) ) ;
#386 = ADVANCED_FACE ( 'NONE', ( #902, #136, #741, #306 ), #653, .F. ) ;
#387 = DIRECTION ( 'NONE',  ( 0.5000000000000003331, -0.8660254037844384856, 0.000000000000000000 ) ) ;
#388 = DIRECTION ( 'NONE',  ( -0.000000000000000000, -0.000000000000000000, -1.000000000000000000 ) ) ;
#389 = CARTESIAN_POINT ( 'NONE',  ( 19.57172969366937210, 2.683818723174402621, 4.077396330418736170 ) ) ;
#390 = VECTOR ( 'NONE', #388, 1000.000000000000000 ) ;
#391 = DIRECTION ( 'NONE',  ( -0.000000000000000000, -0.000000000000000000, -1.000000000000000000 ) ) ;
#392 = VECTOR ( 'NONE', #6, 1000.000000000000000 ) ;
#393 = ORIENTED_EDGE ( 'NONE', *, *, #70, .F. ) ;
#394 = SHAPE_DEFINITION_REPRESENTATION ( #735, #61 ) ;
#395 = DIRECTION ( 'NONE',  ( -1.000000000000000000, 0.000000000000000000, 0.000000000000000000 ) ) ;
#396 = CARTESIAN_POINT ( 'NONE',  ( -20.78460969082652099, -6.000000000000014211, 0.000000000000000000 ) ) ;
#397 = EDGE_CURVE ( 'NONE', #622, #524, #314, .T. ) ;
#398 = CARTESIAN_POINT ( 'NONE',  ( -19.30912086321460208, 2.880176935760843993, 5.000000000000000888 ) ) ;
#399 = ORIENTED_EDGE ( 'NONE', *, *, #673, .T. ) ;
#400 = EDGE_CURVE ( 'NONE', #328, #236, #266, .T. ) ;
#401 = DATE_AND_TIME ( #904, #66 ) ;
#402 = DIRECTION ( 'NONE',  ( 1.000000000000000000, -1.001543065824772950E-15, 0.000000000000000000 ) ) ;
#403 = LINE ( 'NONE', #817, #390 ) ;
#404 = EDGE_LOOP ( 'NONE', ( #753, #958, #530, #307 ) ) ;
#405 = COORDINATED_UNIVERSAL_TIME_OFFSET ( 7, 0, .BEHIND. ) ;
#406 = PLANE ( 'NONE',  #51 ) ;
#407 =( NAMED_UNIT ( * ) SI_UNIT ( $, .STERADIAN. ) SOLID_ANGLE_UNIT ( ) );
#408 = DIRECTION ( 'NONE',  ( 1.000000000000000000, 0.000000000000000000, -0.000000000000000000 ) ) ;
#409 = ORIENTED_EDGE ( 'NONE', *, *, #684, .T. ) ;
#410 = VECTOR ( 'NONE', #110, 1000.000000000000114 ) ;
#411 = EDGE_LOOP ( 'NONE', ( #1032, #937, #62, #258 ) ) ;
#412 = DATE_AND_TIME ( #73, #752 ) ;
#413 = DIRECTION ( 'NONE',  ( -0.000000000000000000, -0.000000000000000000, -1.000000000000000000 ) ) ;
#414 = EDGE_CURVE ( 'NONE', #361, #11, #894, .T. ) ;
#415 = DIRECTION ( 'NONE',  ( 0.000000000000000000, 0.000000000000000000, 1.000000000000000000 ) ) ;
#416 = DIRECTION ( 'NONE',  ( -1.000000000000000000, 0.000000000000000000, 0.000000000000000000 ) ) ;
#417 = EDGE_LOOP ( 'NONE', ( #137, #272 ) ) ;
#418 = ORIENTED_EDGE ( 'NONE', *, *, #251, .F. ) ;
#419 = CARTESIAN_POINT ( 'NONE',  ( 20.80912086321459142, 0.2821007244075214859, 5.000000000000000000 ) ) ;
#420 = PERSON_AND_ORGANIZATION_ROLE ( 'design_owner' ) ;
#421 = CARTESIAN_POINT ( 'NONE',  ( 24.24871130596427804, -1.482509621968736587E-14, 8.000000000000000000 ) ) ;
#422 = VERTEX_POINT ( 'NONE', #261 ) ;
#423 = ORIENTED_EDGE ( 'NONE', *, *, #284, .F. ) ;
#424 = CARTESIAN_POINT ( 'NONE',  ( 19.90431326976808180, 2.367983830845553417, 6.308562877966213733 ) ) ;
#425 = CARTESIAN_POINT ( 'NONE',  ( 24.24871130596427804, -1.482509621968736587E-14, 8.000000000000000000 ) ) ;
#426 = VERTEX_POINT ( 'NONE', #334 ) ;
#427 = CARTESIAN_POINT ( 'NONE',  ( 13.82050807568876039, -1.734723475976805517E-15, 0.000000000000000000 ) ) ;
#428 = ORIENTED_EDGE ( 'NONE', *, *, #520, .T. ) ;
#429 = VECTOR ( 'NONE', #373, 1000.000000000000000 ) ;
#430 = AXIS2_PLACEMENT_3D ( 'NONE', #319, #929, #506 ) ;
#431 = CARTESIAN_POINT ( 'NONE',  ( 19.30912086321460208, 2.880176935760845325, 5.000000000000000000 ) ) ;
#432 =( LENGTH_UNIT ( ) NAMED_UNIT ( * ) SI_UNIT ( .MILLI., .METRE. ) );
#433 = CARTESIAN_POINT ( 'NONE',  ( 20.78460969082653165, 5.999999999999986677, 0.000000000000000000 ) ) ;
#434 = ORIENTED_EDGE ( 'NONE', *, *, #246, .F. ) ;
#435 = EDGE_CURVE ( 'NONE', #1105, #436, #941, .T. ) ;
#436 = VERTEX_POINT ( 'NONE', #610 ) ;
#437 = LINE ( 'NONE', #203, #560 ) ;
#438 = ADVANCED_FACE ( 'NONE', ( #519 ), #528, .F. ) ;
#439 = LINE ( 'NONE', #252, #72 ) ;
#440 = ORIENTED_EDGE ( 'NONE', *, *, #312, .T. ) ;
#441 = LINE ( 'NONE', #541, #1036 ) ;
#442 = CARTESIAN_POINT ( 'NONE',  ( -20.52997583744767240, 1.399579958444764571, 6.451081402107609719 ) ) ;
#443 = DIRECTION ( 'NONE',  ( 0.000000000000000000, -1.000000000000000000, 0.000000000000000000 ) ) ;
#444 = EDGE_LOOP ( 'NONE', ( #399, #245 ) ) ;
#445 = CARTESIAN_POINT ( 'NONE',  ( -8.660254037844381969, -15.00000000000000000, 10.00000000000000000 ) ) ;
#446 = DIRECTION ( 'NONE',  ( 1.000000000000000000, 1.001543065824772950E-15, 0.000000000000000000 ) ) ;
#447 = CARTESIAN_POINT ( 'NONE',  ( -19.34665895671211189, 2.855063216117728953, 5.397385348099114744 ) ) ;
#448 = CIRCLE ( 'NONE', #483, 3.499999999999999556 ) ;
#449 = EDGE_CURVE ( 'NONE', #765, #147, #768, .T. ) ;
#450 = CARTESIAN_POINT ( 'NONE',  ( 13.82050807568876039, -1.734723475976805517E-15, 8.000000000000000000 ) ) ;
#451 = EDGE_LOOP ( 'NONE', ( #649, #165, #865, #668 ) ) ;
#452 = LINE ( 'NONE', #297, #736 ) ;
#453 = EDGE_CURVE ( 'NONE', #678, #1061, #513, .T. ) ;
#454 = FACE_OUTER_BOUND ( 'NONE', #451, .T. ) ;
#455 = DIRECTION ( 'NONE',  ( 1.000000000000000000, 0.000000000000000000, 0.000000000000000000 ) ) ;
#456 = EDGE_CURVE ( 'NONE', #7, #1027, #923, .T. ) ;
#457 = CARTESIAN_POINT ( 'NONE',  ( 19.60278000163621925, -23.04972111837852466, 5.000000000000000888 ) ) ;
#458 = ORIENTED_EDGE ( 'NONE', *, *, #952, .T. ) ;
#459 = CARTESIAN_POINT ( 'NONE',  ( 20.82050807568876039, -1.306097096275231709E-15, 10.00000000000000000 ) ) ;
#460 = CARTESIAN_POINT ( 'NONE',  ( 21.76666049839539951, 4.299038105676650012, 5.000000000000000000 ) ) ;
#461 = PLANE ( 'NONE',  #544 ) ;
#462 = CARTESIAN_POINT ( 'NONE',  ( -20.80912086321460563, 0.2821007244075355302, 4.799297612748957498 ) ) ;
#463 = DIRECTION ( 'NONE',  ( -1.000000000000000000, 0.000000000000000000, 0.000000000000000000 ) ) ;
#464 = LINE ( 'NONE', #558, #504 ) ;
#465 = AXIS2_PLACEMENT_3D ( 'NONE', #56, #745, #1078 ) ;
#466 = CARTESIAN_POINT ( 'NONE',  ( 20.65886636830765610, 1.054629334665722507, 3.700725749026847033 ) ) ;
#467 = CIRCLE ( 'NONE', #1058, 3.499999999999999556 ) ;
#468 = AXIS2_PLACEMENT_3D ( 'NONE', #364, #1052, #455 ) ;
#469 = CARTESIAN_POINT ( 'NONE',  ( 23.26666049839539241, 1.700961894323332446, 5.000000000000000000 ) ) ;
#470 = EDGE_CURVE ( 'NONE', #1061, #436, #244, .T. ) ;
#471 = CARTESIAN_POINT ( 'NONE',  ( 13.85640646055102287, 5.999999999999993783, 10.00000000000000000 ) ) ;
#472 = ADVANCED_FACE ( 'NONE', ( #508, #848 ), #853, .F. ) ;
#473 = CARTESIAN_POINT ( 'NONE',  ( 20.40122172858348293, 1.664027796574658824, 3.500022905214491775 ) ) ;
#474 = LINE ( 'NONE', #1068, #525 ) ;
#475 = B_SPLINE_CURVE_WITH_KNOTS ( 'NONE', 3,
 ( #287, #885, #633, #725, #104, #636, #1059, #292, #978, #466, #383, #729, #271, #618, #473, #54, #749, #59, #897, #905, #223, #389, #490, #819, #644, #295 ),
 .UNSPECIFIED., .F., .F.,
 ( 4, 2, 2, 2, 2, 2, 2, 2, 2, 2, 2, 2, 4 ),
 ( 0.004747570850518852831, 0.005044022899832503216, 0.005340474949146153602, 0.005933379047773452639, 0.006229831097087102157, 0.006526283146400752543, 0.006822735195714402928, 0.007119187245028052446, 0.007712091343655351483, 0.008008543392969001001, 0.008304995442282650520, 0.008897899540909949556, 0.009490803639537248593 ),
 .UNSPECIFIED. ) ;
#476 = DIRECTION ( 'NONE',  ( -1.001543065824772950E-15, -1.000000000000000000, 0.000000000000000000 ) ) ;
#477 = LINE ( 'NONE', #665, #999 ) ;
#478 = ORIENTED_EDGE ( 'NONE', *, *, #90, .T. ) ;
#479 = COORDINATED_UNIVERSAL_TIME_OFFSET ( 7, 0, .BEHIND. ) ;
#480 = FACE_OUTER_BOUND ( 'NONE', #96, .T. ) ;
#481 = EDGE_CURVE ( 'NONE', #100, #28, #439, .T. ) ;
#482 = DIRECTION ( 'NONE',  ( -1.000000000000000000, -1.001543065824773222E-16, 0.000000000000000000 ) ) ;
#483 = AXIS2_PLACEMENT_3D ( 'NONE', #345, #762, #98 ) ;
#484 = EDGE_CURVE ( 'NONE', #595, #79, #693, .T. ) ;
#485 = ORIENTED_EDGE ( 'NONE', *, *, #329, .F. ) ;
#486 = DIRECTION ( 'NONE',  ( -0.000000000000000000, -0.000000000000000000, -1.000000000000000000 ) ) ;
#487 = CARTESIAN_POINT ( 'NONE',  ( -20.80912086321460919, 0.2821007244075356413, 5.000000000000000888 ) ) ;
#488 = VERTEX_POINT ( 'NONE', #433 ) ;
#489 = PERSON_AND_ORGANIZATION ( #619, #872 ) ;
#490 = CARTESIAN_POINT ( 'NONE',  ( 19.47887512810855526, 2.756504888096922290, 4.239676128403758071 ) ) ;
#491 = FACE_BOUND ( 'NONE', #84, .T. ) ;
#492 = ORIENTED_EDGE ( 'NONE', *, *, #1031, .T. ) ;
#493 = ADVANCED_FACE ( 'NONE', ( #591, #783 ), #1093, .F. ) ;
#494 = ORIENTED_EDGE ( 'NONE', *, *, #847, .T. ) ;
#495 = CC_DESIGN_APPROVAL ( #35, ( #1051 ) ) ;
#496 = PERSON_AND_ORGANIZATION ( #619, #872 ) ;
#497 = CARTESIAN_POINT ( 'NONE',  ( 20.07873305564874400, 2.156512030096071175, 6.421592821964651421 ) ) ;
#498 = CARTESIAN_POINT ( 'NONE',  ( -17.32050807568877460, -3.519824998086741684E-15, 10.00000000000000000 ) ) ;
#499 = CARTESIAN_POINT ( 'NONE',  ( -24.24871130596427804, -1.482509621968736587E-14, 8.000000000000000000 ) ) ;
#500 = VECTOR ( 'NONE', #719, 1000.000000000000000 ) ;
#501 = ORIENTED_EDGE ( 'NONE', *, *, #87, .T. ) ;
#502 = VECTOR ( 'NONE', #960, 1000.000000000000000 ) ;
#503 = EDGE_CURVE ( 'NONE', #1027, #717, #158, .T. ) ;
#504 = VECTOR ( 'NONE', #211, 1000.000000000000000 ) ;
#505 = ORIENTED_EDGE ( 'NONE', *, *, #400, .T. ) ;
#506 = DIRECTION ( 'NONE',  ( 0.4999999999999990563, 0.8660254037844391517, 0.000000000000000000 ) ) ;
#507 = CARTESIAN_POINT ( 'NONE',  ( 13.85640646055101222, -6.000000000000007105, 10.00000000000000000 ) ) ;
#508 = FACE_BOUND ( 'NONE', #831, .T. ) ;
#509 = ORIENTED_EDGE ( 'NONE', *, *, #621, .T. ) ;
#510 = VERTEX_POINT ( 'NONE', #597 ) ;
#511 = DIRECTION ( 'NONE',  ( 1.000000000000000000, 0.000000000000000000, 0.000000000000000000 ) ) ;
#512 = DIRECTION ( 'NONE',  ( -0.000000000000000000, -0.000000000000000000, -1.000000000000000000 ) ) ;
#513 = LINE ( 'NONE', #99, #392 ) ;
#514 = ORIENTED_EDGE ( 'NONE', *, *, #123, .T. ) ;
#515 = ORIENTED_EDGE ( 'NONE', *, *, #1, .F. ) ;
#516 = DIRECTION ( 'NONE',  ( 0.000000000000000000, 0.000000000000000000, 1.000000000000000000 ) ) ;
#517 = LOCAL_TIME ( 22, 23, 19.00000000000000000, #1029 ) ;
#518 =( NAMED_UNIT ( * ) PLANE_ANGLE_UNIT ( ) SI_UNIT ( $, .RADIAN. ) );
#519 = FACE_OUTER_BOUND ( 'NONE', #564, .T. ) ;
#520 = EDGE_CURVE ( 'NONE', #880, #510, #723, .T. ) ;
#521 = ORIENTED_EDGE ( 'NONE', *, *, #733, .T. ) ;
#522 = AXIS2_PLACEMENT_3D ( 'NONE', #813, #561, #41 ) ;
#523 = EDGE_CURVE ( 'NONE', #1094, #717, #603, .T. ) ;
#524 = VERTEX_POINT ( 'NONE', #773 ) ;
#525 = VECTOR ( 'NONE', #302, 1000.000000000000114 ) ;
#526 = AXIS2_PLACEMENT_3D ( 'NONE', #688, #164, #862 ) ;
#527 = DIRECTION ( 'NONE',  ( -1.001543065824772950E-15, 1.000000000000000000, 0.000000000000000000 ) ) ;
#528 = PLANE ( 'NONE',  #526 ) ;
#529 = ORIENTED_EDGE ( 'NONE', *, *, #847, .F. ) ;
#530 = ORIENTED_EDGE ( 'NONE', *, *, #154, .F. ) ;
#531 = CARTESIAN_POINT ( 'NONE',  ( -20.78460969082653165, 5.999999999999986677, 10.00000000000000000 ) ) ;
#532 = DIRECTION ( 'NONE',  ( -0.8660254037844382635, -0.5000000000000006661, 0.000000000000000000 ) ) ;
#533 = EDGE_LOOP ( 'NONE', ( #117, #988 ) ) ;
#534 = CARTESIAN_POINT ( 'NONE',  ( 0.000000000000000000, 0.000000000000000000, 0.000000000000000000 ) ) ;
#535 = VERTEX_POINT ( 'NONE', #764 ) ;
#536 = EDGE_CURVE ( 'NONE', #240, #683, #326, .T. ) ;
#537 = CARTESIAN_POINT ( 'NONE',  ( -19.30912086321460208, 2.880176935760843993, 5.000000000000000888 ) ) ;
#538 = DIRECTION ( 'NONE',  ( -0.000000000000000000, -0.000000000000000000, -1.000000000000000000 ) ) ;
#539 = ORIENTED_EDGE ( 'NONE', *, *, #251, .T. ) ;
#540 = CARTESIAN_POINT ( 'NONE',  ( -20.72399635305775334, 0.8194436977872078254, 3.870728700428307079 ) ) ;
#541 = CARTESIAN_POINT ( 'NONE',  ( 8.660254037844380193, 15.00000000000000000, 10.00000000000000000 ) ) ;
#542 = AXIS2_PLACEMENT_3D ( 'NONE', #900, #639, #298 ) ;
#543 = CARTESIAN_POINT ( 'NONE',  ( -20.44707715543409776, 1.576094274918355298, 6.490127266337314182 ) ) ;
#544 = AXIS2_PLACEMENT_3D ( 'NONE', #549, #532, #706 ) ;
#545 = DIRECTION ( 'NONE',  ( -0.000000000000000000, -0.000000000000000000, -1.000000000000000000 ) ) ;
#546 = VERTEX_POINT ( 'NONE', #170 ) ;
#547 = CARTESIAN_POINT ( 'NONE',  ( -20.80624606003367916, 0.3263406740947932261, 4.604173159091564216 ) ) ;
#548 = DIRECTION ( 'NONE',  ( -0.5000000000000003331, -0.8660254037844383745, 0.000000000000000000 ) ) ;
#549 = CARTESIAN_POINT ( 'NONE',  ( 13.85640646055102287, 5.999999999999993783, 8.000000000000000000 ) ) ;
#550 = CARTESIAN_POINT ( 'NONE',  ( -20.78689486064659064, 0.4909482540384189631, 4.239676128403758071 ) ) ;
#551 = DIRECTION ( 'NONE',  ( -1.000000000000000000, 0.000000000000000000, 0.000000000000000000 ) ) ;
#552 = CARTESIAN_POINT ( 'NONE',  ( -20.70871794284956735, 0.8891481807020712447, 6.197248842548861880 ) ) ;
#553 = LINE ( 'NONE', #208, #316 ) ;
#554 = CARTESIAN_POINT ( 'NONE',  ( -13.85640646055102287, 5.999999999999993783, 8.000000000000000000 ) ) ;
#555 = LOCAL_TIME ( 22, 23, 19.00000000000000000, #230 ) ;
#556 = CARTESIAN_POINT ( 'NONE',  ( -8.660254037844383745, 15.00000000000000000, 8.000000000000000000 ) ) ;
#557 = ADVANCED_FACE ( 'NONE', ( #1104 ), #342, .F. ) ;
#558 = CARTESIAN_POINT ( 'NONE',  ( 13.85640646055101222, -6.000000000000007105, 10.00000000000000000 ) ) ;
#559 = LINE ( 'NONE', #139, #824 ) ;
#560 = VECTOR ( 'NONE', #375, 1000.000000000000114 ) ;
#561 = DIRECTION ( 'NONE',  ( 0.000000000000000000, 0.000000000000000000, 1.000000000000000000 ) ) ;
#562 = CARTESIAN_POINT ( 'NONE',  ( -8.660254037844381969, -15.00000000000000000, 0.000000000000000000 ) ) ;
#563 = FACE_OUTER_BOUND ( 'NONE', #330, .T. ) ;
#564 = EDGE_LOOP ( 'NONE', ( #1043, #625, #836, #220 ) ) ;
#565 = EDGE_CURVE ( 'NONE', #422, #880, #15, .T. ) ;
#566 = PERSON_AND_ORGANIZATION_ROLE ( 'creator' ) ;
#567 = CARTESIAN_POINT ( 'NONE',  ( -9.000000000000000000, 0.000000000000000000, 8.000000000000000000 ) ) ;
#568 = ADVANCED_FACE ( 'NONE', ( #788 ), #365, .F. ) ;
#569 = DIRECTION ( 'NONE',  ( 1.000000000000000000, 0.000000000000000000, -0.000000000000000000 ) ) ;
#570 = ORIENTED_EDGE ( 'NONE', *, *, #414, .F. ) ;
#571 = DATE_TIME_ROLE ( 'classification_date' ) ;
#572 = CYLINDRICAL_SURFACE ( 'NONE', #809, 1.499999999999999778 ) ;
#573 = AXIS2_PLACEMENT_3D ( 'NONE', #631, #29, #881 ) ;
#574 = DIRECTION ( 'NONE',  ( 1.000000000000000000, 0.000000000000000000, 0.000000000000000000 ) ) ;
#575 = VECTOR ( 'NONE', #1098, 1000.000000000000000 ) ;
#576 = ORIENTED_EDGE ( 'NONE', *, *, #168, .F. ) ;
#577 = CARTESIAN_POINT ( 'NONE',  ( -17.32050807568877460, -3.519824998086741684E-15, 8.000000000000000000 ) ) ;
#578 = ORIENTED_EDGE ( 'NONE', *, *, #926, .T. ) ;
#579 = PLANE ( 'NONE',  #859 ) ;
#580 = DIRECTION ( 'NONE',  ( -0.5000000000000006661, 0.8660254037844382635, 0.000000000000000000 ) ) ;
#581 = ADVANCED_FACE ( 'NONE', ( #955 ), #461, .F. ) ;
#582 = ORIENTED_EDGE ( 'NONE', *, *, #926, .F. ) ;
#583 = CARTESIAN_POINT ( 'NONE',  ( 0.000000000000000000, 0.000000000000000000, 10.00000000000000000 ) ) ;
#584 = VERTEX_POINT ( 'NONE', #879 ) ;
#585 = CARTESIAN_POINT ( 'NONE',  ( 19.31826018976116899, 2.873924988690956361, 5.198927637564869642 ) ) ;
#586 = LINE ( 'NONE', #169, #130 ) ;
#587 = CARTESIAN_POINT ( 'NONE',  ( 13.85640646055101222, -6.000000000000007105, 8.000000000000000000 ) ) ;
#588 = ORIENTED_EDGE ( 'NONE', *, *, #1, .T. ) ;
#589 = APPROVAL_ROLE ( '' ) ;
#590 = CYLINDRICAL_SURFACE ( 'NONE', #1069, 3.499999999999999556 ) ;
#591 = FACE_OUTER_BOUND ( 'NONE', #707, .T. ) ;
#592 = VECTOR ( 'NONE', #367, 1000.000000000000000 ) ;
#593 = VERTEX_POINT ( 'NONE', #812 ) ;
#594 = CIRCLE ( 'NONE', #615, 9.000000000000000000 ) ;
#595 = VERTEX_POINT ( 'NONE', #40 ) ;
#596 = CARTESIAN_POINT ( 'NONE',  ( 19.35326833729205376, 2.849270795966852177, 5.392240114014518859 ) ) ;
#597 = CARTESIAN_POINT ( 'NONE',  ( -20.82050807568877104, -3.519824998086741684E-15, 0.000000000000000000 ) ) ;
#598 = ORIENTED_EDGE ( 'NONE', *, *, #234, .T. ) ;
#599 = ORIENTED_EDGE ( 'NONE', *, *, #470, .F. ) ;
#600 = DIRECTION ( 'NONE',  ( -1.000000000000000000, -1.001543065824772950E-15, 0.000000000000000000 ) ) ;
#601 = EDGE_CURVE ( 'NONE', #328, #112, #1042, .T. ) ;
#602 = PERSON_AND_ORGANIZATION ( #619, #872 ) ;
#603 = LINE ( 'NONE', #174, #1037 ) ;
#604 = EDGE_CURVE ( 'NONE', #354, #622, #276, .T. ) ;
#605 = ORIENTED_EDGE ( 'NONE', *, *, #648, .F. ) ;
#606 = DIRECTION ( 'NONE',  ( -1.000000000000000000, 0.000000000000000000, 0.000000000000000000 ) ) ;
#607 = VERTEX_POINT ( 'NONE', #794 ) ;
#608 = CARTESIAN_POINT ( 'NONE',  ( 0.000000000000000000, 0.000000000000000000, 8.000000000000000000 ) ) ;
#609 = DIRECTION ( 'NONE',  ( 1.000000000000000000, 1.001543065824772950E-15, -0.000000000000000000 ) ) ;
#610 = CARTESIAN_POINT ( 'NONE',  ( 13.85640646055101222, -6.000000000000007105, 0.000000000000000000 ) ) ;
#611 = VERTEX_POINT ( 'NONE', #23 ) ;
#612 = DIRECTION ( 'NONE',  ( -1.000000000000000000, 0.000000000000000000, 0.000000000000000000 ) ) ;
#613 = CIRCLE ( 'NONE', #377, 11.12500000000000178 ) ;
#614 = EDGE_LOOP ( 'NONE', ( #938, #190, #83, #784 ) ) ;
#615 = AXIS2_PLACEMENT_3D ( 'NONE', #806, #798, #27 ) ;
#616 = AXIS2_PLACEMENT_3D ( 'NONE', #294, #38, #728 ) ;
#617 = PLANE ( 'NONE',  #217 ) ;
#618 = CARTESIAN_POINT ( 'NONE',  ( 20.44773777380238045, 1.574773602405408202, 3.510079067876213266 ) ) ;
#619 = PERSON ( 'UNSPECIFIED', 'UNSPECIFIED', 'UNSPECIFIED', ('UNSPECIFIED'), ('UNSPECIFIED'), ('UNSPECIFIED') ) ;
#620 = ORIENTED_EDGE ( 'NONE', *, *, #995, .F. ) ;
#621 = EDGE_CURVE ( 'NONE', #8, #667, #624, .T. ) ;
#622 = VERTEX_POINT ( 'NONE', #711 ) ;
#623 = FACE_OUTER_BOUND ( 'NONE', #1004, .T. ) ;
#624 = LINE ( 'NONE', #371, #502 ) ;
#625 = ORIENTED_EDGE ( 'NONE', *, *, #621, .F. ) ;
#626 = CARTESIAN_POINT ( 'NONE',  ( -19.78815632833847715, 2.483463554117446570, 3.808919231778694847 ) ) ;
#627 = LINE ( 'NONE', #380, #141 ) ;
#628 = CARTESIAN_POINT ( 'NONE',  ( -20.80442909805882934, 0.3357866283685270736, 5.392240114014521524 ) ) ;
#629 = LINE ( 'NONE', #974, #142 ) ;
#630 = ORIENTED_EDGE ( 'NONE', *, *, #965, .F. ) ;
#631 = CARTESIAN_POINT ( 'NONE',  ( 0.000000000000000000, 0.000000000000000000, 10.00000000000000000 ) ) ;
#632 = DIRECTION ( 'NONE',  ( 1.000000000000000000, 0.000000000000000000, -0.000000000000000000 ) ) ;
#633 = CARTESIAN_POINT ( 'NONE',  ( 20.80827760845578212, 0.2931362662534541808, 4.800862836909716158 ) ) ;
#634 = DIRECTION ( 'NONE',  ( 1.000000000000000000, 1.001543065824773222E-16, 0.000000000000000000 ) ) ;
#635 = CARTESIAN_POINT ( 'NONE',  ( -20.78692577313738354, 0.4906430199041789120, 5.759484351326916496 ) ) ;
#636 = CARTESIAN_POINT ( 'NONE',  ( 20.78694016835830638, 0.4905684662853765365, 4.240495350974647693 ) ) ;
#637 = CARTESIAN_POINT ( 'NONE',  ( -20.63105241457788708, 1.139609377075089691, 3.653549112900535523 ) ) ;
#638 = EDGE_CURVE ( 'NONE', #153, #112, #17, .T. ) ;
#639 = DIRECTION ( 'NONE',  ( 0.000000000000000000, 0.000000000000000000, 1.000000000000000000 ) ) ;
#640 = LINE ( 'NONE', #1062, #20 ) ;
#641 = DIRECTION ( 'NONE',  ( 0.000000000000000000, 0.000000000000000000, 1.000000000000000000 ) ) ;
#642 = CARTESIAN_POINT ( 'NONE',  ( -20.53470044241256787, 1.397362099803555191, 3.540247972326673320 ) ) ;
#643 = VECTOR ( 'NONE', #127, 1000.000000000000227 ) ;
#644 = CARTESIAN_POINT ( 'NONE',  ( 19.30912086321460208, 2.880176935760844881, 4.799297612748957498 ) ) ;
#645 = AXIS2_PLACEMENT_3D ( 'NONE', #299, #816, #990 ) ;
#646 = AXIS2_PLACEMENT_3D ( 'NONE', #498, #757, #676 ) ;
#647 = FACE_BOUND ( 'NONE', #533, .T. ) ;
#648 = EDGE_CURVE ( 'NONE', #535, #593, #553, .T. ) ;
#649 = ORIENTED_EDGE ( 'NONE', *, *, #523, .T. ) ;
#650 = EDGE_CURVE ( 'NONE', #256, #742, #629, .T. ) ;
#651 = APPROVAL_DATE_TIME ( #1081, #946 ) ;
#652 = FACE_OUTER_BOUND ( 'NONE', #166, .T. ) ;
#653 = PLANE ( 'NONE',  #33 ) ;
#654 = B_SPLINE_CURVE_WITH_KNOTS ( 'NONE', 3,
 ( #431, #855, #585, #596, #1023, #935, #686, #921, #424, #497, #1017, #167, #237, #779, #324, #839, #254, #74, #1012, #1101, #331, #675, #772, #156, #3, #419 ),
 .UNSPECIFIED., .F., .F.,
 ( 4, 2, 2, 2, 2, 2, 2, 2, 2, 2, 2, 2, 4 ),
 ( 0.000000000000000000, 0.0002967231781574285730, 0.0005934463563148571459, 0.001186892712629714509, 0.001780339068944571980, 0.002077062247102000499, 0.002373785425259428584, 0.002670508603416856235, 0.002967231781574284754, 0.003263954959731712405, 0.003560678137889140490, 0.004154124494203996661, 0.004747570850518852831 ),
 .UNSPECIFIED. ) ;
#655 = VERTEX_POINT ( 'NONE', #197 ) ;
#656 = PERSON_AND_ORGANIZATION_ROLE ( 'design_supplier' ) ;
#657 = CYLINDRICAL_SURFACE ( 'NONE', #645, 11.12500000000000178 ) ;
#658 = CARTESIAN_POINT ( 'NONE',  ( 0.000000000000000000, 0.000000000000000000, 10.00000000000000000 ) ) ;
#659 = CC_DESIGN_APPROVAL ( #189, ( #88 ) ) ;
#660 = CARTESIAN_POINT ( 'NONE',  ( -19.37933575202699643, 2.830712068975664852, 4.512731030665350751 ) ) ;
#661 = EDGE_LOOP ( 'NONE', ( #976, #605, #515, #598 ) ) ;
#662 = CARTESIAN_POINT ( 'NONE',  ( 20.78460969082653165, 5.999999999999986677, 8.000000000000000000 ) ) ;
#663 = VECTOR ( 'NONE', #232, 1000.000000000000000 ) ;
#664 = AXIS2_PLACEMENT_3D ( 'NONE', #1028, #527, #600 ) ;
#665 = CARTESIAN_POINT ( 'NONE',  ( 20.82050807568876039, -1.306097096275231907E-15, 8.000000000000000000 ) ) ;
#666 = AXIS2_PLACEMENT_3D ( 'NONE', #1024, #699, #1030 ) ;
#667 = VERTEX_POINT ( 'NONE', #868 ) ;
#668 = ORIENTED_EDGE ( 'NONE', *, *, #168, .T. ) ;
#669 = EDGE_CURVE ( 'NONE', #611, #11, #890, .T. ) ;
#670 = CARTESIAN_POINT ( 'NONE',  ( -20.78460969082652099, -6.000000000000014211, 10.00000000000000000 ) ) ;
#671 = CARTESIAN_POINT ( 'NONE',  ( -11.12500000000000178, 0.000000000000000000, 0.000000000000000000 ) ) ;
#672 = ORIENTED_EDGE ( 'NONE', *, *, #740, .T. ) ;
#673 = EDGE_CURVE ( 'NONE', #769, #28, #594, .T. ) ;
#674 = ORIENTED_EDGE ( 'NONE', *, *, #154, .T. ) ;
#675 = CARTESIAN_POINT ( 'NONE',  ( 20.77035173729090900, 0.6076172252650308137, 5.922293346026616945 ) ) ;
#676 = DIRECTION ( 'NONE',  ( 1.000000000000000000, 0.000000000000000000, 0.000000000000000000 ) ) ;
#677 = DIRECTION ( 'NONE',  ( 0.000000000000000000, 0.000000000000000000, 1.000000000000000000 ) ) ;
#678 = VERTEX_POINT ( 'NONE', #716 ) ;
#679 = EDGE_LOOP ( 'NONE', ( #539, #953, #932, #927 ) ) ;
#680 = LINE ( 'NONE', #670, #758 ) ;
#681 = DIRECTION ( 'NONE',  ( 0.5000000000000002220, 0.8660254037844384856, 0.000000000000000000 ) ) ;
#682 = AXIS2_PLACEMENT_3D ( 'NONE', #814, #385, #1066 ) ;
#683 = VERTEX_POINT ( 'NONE', #1055 ) ;
#684 = EDGE_CURVE ( 'NONE', #761, #1100, #475, .T. ) ;
#685 = EDGE_LOOP ( 'NONE', ( #494, #428 ) ) ;
#686 = CARTESIAN_POINT ( 'NONE',  ( 19.57277676439224479, 2.682878369411750175, 5.924005342320866951 ) ) ;
#687 = ADVANCED_FACE ( 'NONE', ( #827 ), #657, .F. ) ;
#688 = CARTESIAN_POINT ( 'NONE',  ( 13.85640646055101222, -6.000000000000007105, 8.000000000000000000 ) ) ;
#689 = ORIENTED_EDGE ( 'NONE', *, *, #234, .F. ) ;
#690 = ORIENTED_EDGE ( 'NONE', *, *, #4, .F. ) ;
#691 = CARTESIAN_POINT ( 'NONE',  ( 22.51666049839539951, 2.999999999999993339, 5.000000000000000000 ) ) ;
#692 = APPROVAL_ROLE ( '' ) ;
#693 = LINE ( 'NONE', #82, #303 ) ;
#694 = EDGE_LOOP ( 'NONE', ( #71, #751, #521, #747 ) ) ;
#695 = ORIENTED_EDGE ( 'NONE', *, *, #284, .T. ) ;
#696 = LINE ( 'NONE', #531, #317 ) ;
#697 = CC_DESIGN_APPROVAL ( #946, ( #805 ) ) ;
#698 = ADVANCED_FACE ( 'NONE', ( #480 ), #406, .F. ) ;
#699 = DIRECTION ( 'NONE',  ( -0.000000000000000000, -0.000000000000000000, -1.000000000000000000 ) ) ;
#700 = ORIENTED_EDGE ( 'NONE', *, *, #536, .F. ) ;
#701 = AXIS2_PLACEMENT_3D ( 'NONE', #583, #355, #606 ) ;
#702 = ORIENTED_EDGE ( 'NONE', *, *, #867, .F. ) ;
#703 = AXIS2_PLACEMENT_3D ( 'NONE', #1048, #443, #187 ) ;
#704 = CARTESIAN_POINT ( 'NONE',  ( -19.73085746778804150, 2.538773484084479559, 6.128009155048673939 ) ) ;
#705 = ADVANCED_FACE ( 'NONE', ( #231 ), #579, .F. ) ;
#706 = DIRECTION ( 'NONE',  ( 0.5000000000000006661, -0.8660254037844382635, 0.000000000000000000 ) ) ;
#707 = EDGE_LOOP ( 'NONE', ( #175, #501, #91, #1022 ) ) ;
#708 = LINE ( 'NONE', #790, #775 ) ;
#709 = DIRECTION ( 'NONE',  ( 0.8660254037844384856, -0.5000000000000004441, 0.000000000000000000 ) ) ;
#710 = DIRECTION ( 'NONE',  ( 0.8660254037844390407, 0.4999999999999993339, -0.000000000000000000 ) ) ;
#711 = CARTESIAN_POINT ( 'NONE',  ( -23.26666049839540307, 1.700961894323337553, 5.000000000000000888 ) ) ;
#712 = ORIENTED_EDGE ( 'NONE', *, *, #216, .F. ) ;
#713 = DIRECTION ( 'NONE',  ( -0.8660254037844389297, 0.4999999999999993894, -0.000000000000000000 ) ) ;
#714 = APPLICATION_CONTEXT ( 'configuration controlled 3d designs of mechanical parts and assemblies' ) ;
#715 = CARTESIAN_POINT ( 'NONE',  ( -20.07947625587875606, 2.155615033882192222, 6.422080469500406785 ) ) ;
#716 = CARTESIAN_POINT ( 'NONE',  ( 8.660254037844383745, -14.99999999999999822, 10.00000000000000000 ) ) ;
#717 = VERTEX_POINT ( 'NONE', #212 ) ;
#718 = CARTESIAN_POINT ( 'NONE',  ( -8.660254037844381969, -15.00000000000000000, 10.00000000000000000 ) ) ;
#719 = DIRECTION ( 'NONE',  ( 1.000000000000000000, -1.001543065824772950E-15, 0.000000000000000000 ) ) ;
#720 = ADVANCED_FACE ( 'NONE', ( #652 ), #994, .F. ) ;
#721 = VECTOR ( 'NONE', #996, 1000.000000000000114 ) ;
#722 = FACE_OUTER_BOUND ( 'NONE', #265, .T. ) ;
#723 = CIRCLE ( 'NONE', #1103, 3.499999999999999556 ) ;
#724 = EDGE_CURVE ( 'NONE', #28, #769, #162, .T. ) ;
#725 = CARTESIAN_POINT ( 'NONE',  ( 20.80440006413518006, 0.3360978981335118188, 4.606584198012658504 ) ) ;
#726 = PLANE ( 'NONE',  #755 ) ;
#727 = CARTESIAN_POINT ( 'NONE',  ( -20.78460969082652099, -6.000000000000014211, 8.000000000000000000 ) ) ;
#728 = DIRECTION ( 'NONE',  ( -0.5000000000000002220, -0.8660254037844384856, 0.000000000000000000 ) ) ;
#729 = CARTESIAN_POINT ( 'NONE',  ( 20.56683500440670187, 1.311399321127858064, 3.578034041414563493 ) ) ;
#730 = DIRECTION ( 'NONE',  ( 0.8660254037844390407, 0.4999999999999993339, -0.000000000000000000 ) ) ;
#731 = CARTESIAN_POINT ( 'NONE',  ( -13.85640646055102287, 5.999999999999993783, 10.00000000000000000 ) ) ;
#732 = FACE_OUTER_BOUND ( 'NONE', #282, .T. ) ;
#733 = EDGE_CURVE ( 'NONE', #337, #510, #43, .T. ) ;
#734 = CARTESIAN_POINT ( 'NONE',  ( 13.82050807568876039, -1.734723475976805517E-15, 10.00000000000000000 ) ) ;
#735 = PRODUCT_DEFINITION_SHAPE ( 'NONE', 'NONE',  #1051 ) ;
#736 = VECTOR ( 'NONE', #713, 1000.000000000000114 ) ;
#737 = APPROVAL_STATUS ( 'not_yet_approved' ) ;
#738 = FACE_OUTER_BOUND ( 'NONE', #785, .T. ) ;
#739 = VECTOR ( 'NONE', #1013, 1000.000000000000000 ) ;
#740 = EDGE_CURVE ( 'NONE', #488, #426, #916, .T. ) ;
#741 = FACE_BOUND ( 'NONE', #78, .T. ) ;
#742 = VERTEX_POINT ( 'NONE', #562 ) ;
#743 = DATE_TIME_ROLE ( 'creation_date' ) ;
#744 = FACE_OUTER_BOUND ( 'NONE', #614, .T. ) ;
#745 = DIRECTION ( 'NONE',  ( -0.8660254037844390407, 0.4999999999999994449, 0.000000000000000000 ) ) ;
#746 = CARTESIAN_POINT ( 'NONE',  ( -19.31825629541830835, 2.873928884794891392, 4.800862836909717046 ) ) ;
#747 = ORIENTED_EDGE ( 'NONE', *, *, #520, .F. ) ;
#748 = DATE_AND_TIME ( #260, #517 ) ;
#749 = CARTESIAN_POINT ( 'NONE',  ( 20.13775533576611565, 2.084891192331053134, 3.540247972326672432 ) ) ;
#750 = CARTESIAN_POINT ( 'NONE',  ( -13.85640646055101222, -6.000000000000007105, 0.000000000000000000 ) ) ;
#751 = ORIENTED_EDGE ( 'NONE', *, *, #1087, .T. ) ;
#752 = LOCAL_TIME ( 22, 23, 19.00000000000000000, #479 ) ;
#753 = ORIENTED_EDGE ( 'NONE', *, *, #229, .T. ) ;
#754 = DIRECTION ( 'NONE',  ( -0.000000000000000000, -0.000000000000000000, -1.000000000000000000 ) ) ;
#755 = AXIS2_PLACEMENT_3D ( 'NONE', #975, #886, #482 ) ;
#756 = ADVANCED_FACE ( 'NONE', ( #738 ), #572, .F. ) ;
#757 = DIRECTION ( 'NONE',  ( 0.000000000000000000, 0.000000000000000000, 1.000000000000000000 ) ) ;
#758 = VECTOR ( 'NONE', #173, 1000.000000000000000 ) ;
#759 = CARTESIAN_POINT ( 'NONE',  ( -13.85640646055101222, -6.000000000000007105, 0.000000000000000000 ) ) ;
#760 = EDGE_LOOP ( 'NONE', ( #1070, #322, #702, #837 ) ) ;
#761 = VERTEX_POINT ( 'NONE', #1071 ) ;
#762 = DIRECTION ( 'NONE',  ( 0.000000000000000000, 0.000000000000000000, 1.000000000000000000 ) ) ;
#763 = DIRECTION ( 'NONE',  ( 1.000000000000000000, 0.000000000000000000, 0.000000000000000000 ) ) ;
#764 = CARTESIAN_POINT ( 'NONE',  ( -8.660254037844383745, 15.00000000000000000, 10.00000000000000000 ) ) ;
#765 = VERTEX_POINT ( 'NONE', #305 ) ;
#766 = ORIENTED_EDGE ( 'NONE', *, *, #484, .T. ) ;
#767 = FACE_OUTER_BOUND ( 'NONE', #274, .T. ) ;
#768 = LINE ( 'NONE', #499, #911 ) ;
#769 = VERTEX_POINT ( 'NONE', #567 ) ;
#770 = EDGE_CURVE ( 'NONE', #58, #256, #559, .T. ) ;
#771 = ORIENTED_EDGE ( 'NONE', *, *, #684, .F. ) ;
#772 = CARTESIAN_POINT ( 'NONE',  ( 20.78708122516578172, 0.4894322833907752135, 5.757236063133579052 ) ) ;
#773 = CARTESIAN_POINT ( 'NONE',  ( -21.76666049839541373, 4.299038105676658894, 5.000000000000000888 ) ) ;
#774 = PRODUCT_RELATED_PRODUCT_CATEGORY ( 'detail', '', ( #323 ) ) ;
#775 = VECTOR ( 'NONE', #730, 1000.000000000000000 ) ;
#776 = ORIENTED_EDGE ( 'NONE', *, *, #565, .T. ) ;
#777 = AXIS2_PLACEMENT_3D ( 'NONE', #32, #281, #125 ) ;
#778 = ORIENTED_EDGE ( 'NONE', *, *, #770, .F. ) ;
#779 = CARTESIAN_POINT ( 'NONE',  ( 20.40085696335564691, 1.664725688084038424, 6.500054210994926862 ) ) ;
#780 = ORIENTED_EDGE ( 'NONE', *, *, #171, .T. ) ;
#781 = ORIENTED_EDGE ( 'NONE', *, *, #184, .T. ) ;
#782 = CARTESIAN_POINT ( 'NONE',  ( -20.56721476729871867, 1.310436886950123725, 6.421592821964654085 ) ) ;
#783 = FACE_BOUND ( 'NONE', #1021, .T. ) ;
#784 = ORIENTED_EDGE ( 'NONE', *, *, #123, .F. ) ;
#785 = EDGE_LOOP ( 'NONE', ( #712, #152, #310, #1016 ) ) ;
#786 = CC_DESIGN_PERSON_AND_ORGANIZATION_ASSIGNMENT ( #496, #566, ( #1051 ) ) ;
#787 = CARTESIAN_POINT ( 'NONE',  ( -20.30237725573552510, 1.835297545196636237, 6.500054210994927750 ) ) ;
#788 = FACE_OUTER_BOUND ( 'NONE', #372, .T. ) ;
#789 = ORIENTED_EDGE ( 'NONE', *, *, #669, .T. ) ;
#790 = CARTESIAN_POINT ( 'NONE',  ( -19.60278000163621570, -23.04972111837851756, 5.000000000000000000 ) ) ;
#791 = VECTOR ( 'NONE', #828, 1000.000000000000114 ) ;
#792 = AXIS2_PLACEMENT_3D ( 'NONE', #910, #1067, #395 ) ;
#793 = DIRECTION ( 'NONE',  ( -0.8660254037844390407, 0.4999999999999994449, 0.000000000000000000 ) ) ;
#794 = CARTESIAN_POINT ( 'NONE',  ( -11.12500000000000178, 0.000000000000000000, 8.000000000000000000 ) ) ;
#795 = ORIENTED_EDGE ( 'NONE', *, *, #638, .T. ) ;
#796 = CARTESIAN_POINT ( 'NONE',  ( -20.80912086321460919, 0.2821007244075356413, 5.000000000000000888 ) ) ;
#797 = LINE ( 'NONE', #26, #1088 ) ;
#798 = DIRECTION ( 'NONE',  ( 0.000000000000000000, 0.000000000000000000, 1.000000000000000000 ) ) ;
#799 = EDGE_LOOP ( 'NONE', ( #356, #869, #1040, #18 ) ) ;
#800 = CARTESIAN_POINT ( 'NONE',  ( -20.45036034519273471, 1.578976012072755841, 3.499954309787555840 ) ) ;
#801 = ADVANCED_FACE ( 'NONE', ( #732 ), #823, .F. ) ;
#802 = FACE_OUTER_BOUND ( 'NONE', #1095, .T. ) ;
#803 = ADVANCED_FACE ( 'NONE', ( #744 ), #163, .F. ) ;
#804 = FACE_BOUND ( 'NONE', #444, .T. ) ;
#805 = PRODUCT_DEFINITION_FORMATION_WITH_SPECIFIED_SOURCE ( 'ANY', '', #323, .NOT_KNOWN. ) ;
#806 = CARTESIAN_POINT ( 'NONE',  ( 0.000000000000000000, 0.000000000000000000, 8.000000000000000000 ) ) ;
#807 = CARTESIAN_POINT ( 'NONE',  ( -20.24791686963781245, 1.920873560832826010, 3.510079067876214154 ) ) ;
#808 = VECTOR ( 'NONE', #892, 1000.000000000000000 ) ;
#809 = AXIS2_PLACEMENT_3D ( 'NONE', #149, #982, #1063 ) ;
#810 = PLANE ( 'NONE',  #616 ) ;
#811 = AXIS2_PLACEMENT_3D ( 'NONE', #186, #710, #280 ) ;
#812 = CARTESIAN_POINT ( 'NONE',  ( -8.660254037844383745, 15.00000000000000000, 0.000000000000000000 ) ) ;
#813 = CARTESIAN_POINT ( 'NONE',  ( 0.000000000000000000, 0.000000000000000000, 8.000000000000000000 ) ) ;
#814 = CARTESIAN_POINT ( 'NONE',  ( 17.32050807568876039, -1.734723475976805517E-15, 10.00000000000000000 ) ) ;
#815 = EDGE_CURVE ( 'NONE', #924, #143, #359, .T. ) ;
#816 = DIRECTION ( 'NONE',  ( -0.000000000000000000, -0.000000000000000000, -1.000000000000000000 ) ) ;
#817 = CARTESIAN_POINT ( 'NONE',  ( 13.85640646055102287, 5.999999999999993783, 8.000000000000000000 ) ) ;
#818 = PERSON_AND_ORGANIZATION ( #619, #872 ) ;
#819 = CARTESIAN_POINT ( 'NONE',  ( 19.34599638191545168, 2.855567308331655951, 4.604173159091565104 ) ) ;
#820 = PLANE ( 'NONE',  #876 ) ;
#821 = ORIENTED_EDGE ( 'NONE', *, *, #1065, .T. ) ;
#822 = VECTOR ( 'NONE', #906, 1000.000000000000000 ) ;
#823 = CYLINDRICAL_SURFACE ( 'NONE', #792, 9.000000000000000000 ) ;
#824 = VECTOR ( 'NONE', #387, 1000.000000000000114 ) ;
#825 = DIRECTION ( 'NONE',  ( -0.5000000000000005551, 0.8660254037844383745, 0.000000000000000000 ) ) ;
#826 = ORIENTED_EDGE ( 'NONE', *, *, #648, .T. ) ;
#827 = FACE_OUTER_BOUND ( 'NONE', #908, .T. ) ;
#828 = DIRECTION ( 'NONE',  ( 0.5000000000000003331, -0.8660254037844383745, 0.000000000000000000 ) ) ;
#829 = EDGE_CURVE ( 'NONE', #1100, #761, #654, .T. ) ;
#830 = ORIENTED_EDGE ( 'NONE', *, *, #329, .T. ) ;
#831 = EDGE_LOOP ( 'NONE', ( #64, #934 ) ) ;
#832 = ADVANCED_FACE ( 'NONE', ( #242, #259 ), #590, .F. ) ;
#833 = APPROVAL_DATE_TIME ( #412, #189 ) ;
#834 = CARTESIAN_POINT ( 'NONE',  ( -20.78460969082652099, -6.000000000000014211, 8.000000000000000000 ) ) ;
#835 = CARTESIAN_POINT ( 'NONE',  ( 8.660254037844380193, 15.00000000000000000, 10.00000000000000000 ) ) ;
#836 = ORIENTED_EDGE ( 'NONE', *, *, #1031, .F. ) ;
#837 = ORIENTED_EDGE ( 'NONE', *, *, #70, .T. ) ;
#838 = PERSON_AND_ORGANIZATION ( #619, #872 ) ;
#839 = CARTESIAN_POINT ( 'NONE',  ( 20.53000079122477572, 1.399498612784733531, 6.451035253566248073 ) ) ;
#840 = VECTOR ( 'NONE', #580, 1000.000000000000114 ) ;
#841 = B_SPLINE_CURVE_WITH_KNOTS ( 'NONE', 3,
 ( #398, #943, #746, #176, #660, #146, #875, #201, #626, #122, #962, #206, #25, #807, #293, #800, #642, #637, #106, #384, #540, #979, #550, #547, #462, #796 ),
 .UNSPECIFIED., .F., .F.,
 ( 4, 2, 2, 2, 2, 2, 2, 2, 2, 2, 2, 2, 4 ),
 ( 0.004747570850518854566, 0.005044022899832504084, 0.005340474949146153602, 0.005933379047773452639, 0.006229831097087102157, 0.006526283146400751675, 0.006822735195714401193, 0.007119187245028050712, 0.007712091343655348014, 0.008008543392968999267, 0.008304995442282650520, 0.008897899540909954760, 0.009490803639537259001 ),
 .UNSPECIFIED. ) ;
#842 = CARTESIAN_POINT ( 'NONE',  ( -20.78460969082653165, 5.999999999999986677, 8.000000000000000000 ) ) ;
#843 = AXIS2_PLACEMENT_3D ( 'NONE', #267, #1041, #632 ) ;
#844 = ORIENTED_EDGE ( 'NONE', *, *, #867, .T. ) ;
#845 = EDGE_LOOP ( 'NONE', ( #915, #1099, #200, #105 ) ) ;
#846 = CARTESIAN_POINT ( 'NONE',  ( -17.32050807568877460, -3.519824998086741684E-15, 10.00000000000000000 ) ) ;
#847 = EDGE_CURVE ( 'NONE', #510, #880, #448, .T. ) ;
#848 = FACE_OUTER_BOUND ( 'NONE', #679, .T. ) ;
#849 = ADVANCED_FACE ( 'NONE', ( #92, #767 ), #1092, .F. ) ;
#850 = ORIENTED_EDGE ( 'NONE', *, *, #184, .F. ) ;
#851 = CC_DESIGN_PERSON_AND_ORGANIZATION_ASSIGNMENT ( #838, #656, ( #805 ) ) ;
#852 = CARTESIAN_POINT ( 'NONE',  ( -13.82050807568877282, -3.091198618385168271E-15, 0.000000000000000000 ) ) ;
#853 = PLANE ( 'NONE',  #249 ) ;
#854 = ORIENTED_EDGE ( 'NONE', *, *, #327, .T. ) ;
#855 = CARTESIAN_POINT ( 'NONE',  ( 19.30912086321460208, 2.880176935760845769, 5.100442972728288282 ) ) ;
#856 = DIRECTION ( 'NONE',  ( -0.000000000000000000, -0.000000000000000000, -1.000000000000000000 ) ) ;
#857 = AXIS2_PLACEMENT_3D ( 'NONE', #556, #709, #129 ) ;
#858 = ORIENTED_EDGE ( 'NONE', *, *, #151, .F. ) ;
#859 = AXIS2_PLACEMENT_3D ( 'NONE', #834, #134, #144 ) ;
#860 = ORIENTED_EDGE ( 'NONE', *, *, #350, .F. ) ;
#861 = DIRECTION ( 'NONE',  ( 1.000000000000000000, 0.000000000000000000, 0.000000000000000000 ) ) ;
#862 = DIRECTION ( 'NONE',  ( -1.000000000000000000, 1.001543065824772950E-15, 0.000000000000000000 ) ) ;
#863 = ORIENTED_EDGE ( 'NONE', *, *, #601, .F. ) ;
#864 = CC_DESIGN_PERSON_AND_ORGANIZATION_ASSIGNMENT ( #920, #155, ( #88 ) ) ;
#865 = ORIENTED_EDGE ( 'NONE', *, *, #456, .F. ) ;
#866 = DIRECTION ( 'NONE',  ( -0.5000000000000003331, 0.8660254037844384856, 0.000000000000000000 ) ) ;
#867 = EDGE_CURVE ( 'NONE', #233, #58, #680, .T. ) ;
#868 = CARTESIAN_POINT ( 'NONE',  ( 20.78460969082652099, -6.000000000000014211, 0.000000000000000000 ) ) ;
#869 = ORIENTED_EDGE ( 'NONE', *, *, #481, .T. ) ;
#870 = ORIENTED_EDGE ( 'NONE', *, *, #1046, .F. ) ;
#871 = CARTESIAN_POINT ( 'NONE',  ( -22.51666049839540307, 2.999999999999994671, 5.000000000000000888 ) ) ;
#872 = ORGANIZATION ( 'UNSPECIFIED', 'UNSPECIFIED', '' ) ;
#873 = DIRECTION ( 'NONE',  ( -0.000000000000000000, -0.000000000000000000, -1.000000000000000000 ) ) ;
#874 = EDGE_LOOP ( 'NONE', ( #177, #858 ) ) ;
#875 = CARTESIAN_POINT ( 'NONE',  ( -19.57214775196554513, 2.683468143455671306, 4.076748087833498957 ) ) ;
#876 = AXIS2_PLACEMENT_3D ( 'NONE', #658, #68, #408 ) ;
#877 = CARTESIAN_POINT ( 'NONE',  ( -19.47765544127592108, 2.757424269828733010, 5.757236063133577275 ) ) ;
#878 = EDGE_CURVE ( 'NONE', #337, #422, #467, .T. ) ;
#879 = CARTESIAN_POINT ( 'NONE',  ( 8.660254037844380193, 15.00000000000000000, 0.000000000000000000 ) ) ;
#880 = VERTEX_POINT ( 'NONE', #852 ) ;
#881 = DIRECTION ( 'NONE',  ( 1.000000000000000000, 0.000000000000000000, 0.000000000000000000 ) ) ;
#882 = ADVANCED_FACE ( 'NONE', ( #85 ), #340, .F. ) ;
#883 = CARTESIAN_POINT ( 'NONE',  ( -20.78460969082653165, 5.999999999999986677, 8.000000000000000000 ) ) ;
#884 = DIRECTION ( 'NONE',  ( 0.5000000000000003331, 0.8660254037844383745, 0.000000000000000000 ) ) ;
#885 = CARTESIAN_POINT ( 'NONE',  ( 20.80912086321459498, 0.2821007244075256493, 4.901212942877769763 ) ) ;
#886 = DIRECTION ( 'NONE',  ( -1.001543065824773222E-16, 1.000000000000000000, 0.000000000000000000 ) ) ;
#887 = CARTESIAN_POINT ( 'NONE',  ( 13.85640646055101222, -6.000000000000007105, 0.000000000000000000 ) ) ;
#888 = CARTESIAN_POINT ( 'NONE',  ( -20.66314482599147340, 1.053649021080093284, 6.308562877966215510 ) ) ;
#889 = CC_DESIGN_SECURITY_CLASSIFICATION ( #88, ( #805 ) ) ;
#890 = LINE ( 'NONE', #121, #226 ) ;
#891 = CARTESIAN_POINT ( 'NONE',  ( -8.660254037844383745, 15.00000000000000000, 0.000000000000000000 ) ) ;
#892 = DIRECTION ( 'NONE',  ( -0.000000000000000000, -0.000000000000000000, -1.000000000000000000 ) ) ;
#893 = EDGE_CURVE ( 'NONE', #112, #153, #36, .T. ) ;
#894 = CIRCLE ( 'NONE', #1019, 11.12500000000000178 ) ;
#895 = VECTOR ( 'NONE', #538, 1000.000000000000000 ) ;
#896 = CIRCLE ( 'NONE', #468, 11.12500000000000178 ) ;
#897 = CARTESIAN_POINT ( 'NONE',  ( 19.90302246508188233, 2.363796940054100126, 3.700709730653535257 ) ) ;
#898 = CARTESIAN_POINT ( 'NONE',  ( -24.24871130596427804, -1.482509621968736587E-14, 10.00000000000000000 ) ) ;
#899 = EDGE_CURVE ( 'NONE', #535, #7, #1086, .T. ) ;
#900 = CARTESIAN_POINT ( 'NONE',  ( 0.000000000000000000, 0.000000000000000000, 10.00000000000000000 ) ) ;
#901 = CARTESIAN_POINT ( 'NONE',  ( 0.000000000000000000, 0.000000000000000000, 8.000000000000000000 ) ) ;
#902 = FACE_OUTER_BOUND ( 'NONE', #1090, .T. ) ;
#903 = EDGE_LOOP ( 'NONE', ( #69, #514 ) ) ;
#904 = CALENDAR_DATE ( 2026, 6, 2 ) ;
#905 = CARTESIAN_POINT ( 'NONE',  ( 19.78783581991719132, 2.483789513584501840, 3.809237704951367931 ) ) ;
#906 = DIRECTION ( 'NONE',  ( 0.8660254037844390407, 0.4999999999999993339, -0.000000000000000000 ) ) ;
#907 = LOCAL_TIME ( 22, 23, 19.00000000000000000, #1011 ) ;
#908 = EDGE_LOOP ( 'NONE', ( #366, #789, #570, #2 ) ) ;
#909 = AXIS2_PLACEMENT_3D ( 'NONE', #883, #210, #446 ) ;
#910 = CARTESIAN_POINT ( 'NONE',  ( 0.000000000000000000, 0.000000000000000000, 10.00000000000000000 ) ) ;
#911 = VECTOR ( 'NONE', #931, 1000.000000000000000 ) ;
#912 = ADVANCED_FACE ( 'NONE', ( #804, #351 ), #973, .F. ) ;
#913 = LINE ( 'NONE', #396, #721 ) ;
#914 = VERTEX_POINT ( 'NONE', #285 ) ;
#915 = ORIENTED_EDGE ( 'NONE', *, *, #135, .F. ) ;
#916 = LINE ( 'NONE', #65, #1002 ) ;
#917 = LINE ( 'NONE', #219, #663 ) ;
#918 = ORIENTED_EDGE ( 'NONE', *, *, #350, .T. ) ;
#919 = ORIENTED_EDGE ( 'NONE', *, *, #353, .F. ) ;
#920 = PERSON_AND_ORGANIZATION ( #619, #872 ) ;
#921 = CARTESIAN_POINT ( 'NONE',  ( 19.78463792148587430, 2.489701727963305355, 6.197248842548862768 ) ) ;
#922 = CARTESIAN_POINT ( 'NONE',  ( -9.000000000000000000, 0.000000000000000000, 10.00000000000000000 ) ) ;
#923 = LINE ( 'NONE', #347, #339 ) ;
#924 = VERTEX_POINT ( 'NONE', #460 ) ;
#925 = APPROVAL_PERSON_ORGANIZATION ( #602, #35, #692 ) ;
#926 = EDGE_CURVE ( 'NONE', #1027, #765, #696, .T. ) ;
#927 = ORIENTED_EDGE ( 'NONE', *, *, #536, .T. ) ;
#928 = CALENDAR_DATE ( 2026, 6, 2 ) ;
#929 = DIRECTION ( 'NONE',  ( 0.8660254037844391517, -0.4999999999999990563, 0.000000000000000000 ) ) ;
#930 = AXIS2_PLACEMENT_3D ( 'NONE', #691, #945, #1096 ) ;
#931 = DIRECTION ( 'NONE',  ( -0.000000000000000000, -0.000000000000000000, -1.000000000000000000 ) ) ;
#932 = ORIENTED_EDGE ( 'NONE', *, *, #14, .F. ) ;
#933 = ADVANCED_FACE ( 'NONE', ( #722 ), #115, .F. ) ;
#934 = ORIENTED_EDGE ( 'NONE', *, *, #90, .F. ) ;
#935 = CARTESIAN_POINT ( 'NONE',  ( 19.47862624383960650, 2.756684276166371461, 5.759484351326917384 ) ) ;
#936 = DIRECTION ( 'NONE',  ( -0.000000000000000000, -0.000000000000000000, -1.000000000000000000 ) ) ;
#937 = ORIENTED_EDGE ( 'NONE', *, *, #435, .F. ) ;
#938 = ORIENTED_EDGE ( 'NONE', *, *, #669, .F. ) ;
#939 = CARTESIAN_POINT ( 'NONE',  ( 17.32050807568876039, -1.734723475976805517E-15, 0.000000000000000000 ) ) ;
#940 = LINE ( 'NONE', #922, #270 ) ;
#941 = LINE ( 'NONE', #587, #739 ) ;
#942 = ORIENTED_EDGE ( 'NONE', *, *, #449, .T. ) ;
#943 = CARTESIAN_POINT ( 'NONE',  ( -19.30912086321459853, 2.880176935760848433, 4.901212942877771539 ) ) ;
#944 = ORIENTED_EDGE ( 'NONE', *, *, #893, .F. ) ;
#945 = DIRECTION ( 'NONE',  ( 0.8660254037844390407, 0.4999999999999992784, 0.000000000000000000 ) ) ;
#946 = APPROVAL ( #737, 'UNSPECIFIED' ) ;
#947 = DIRECTION ( 'NONE',  ( 0.4999999999999990563, -0.8660254037844391517, 0.000000000000000000 ) ) ;
#948 = CIRCLE ( 'NONE', #542, 9.000000000000000000 ) ;
#949 = VECTOR ( 'NONE', #548, 1000.000000000000227 ) ;
#950 = ORIENTED_EDGE ( 'NONE', *, *, #815, .T. ) ;
#951 = VECTOR ( 'NONE', #884, 1000.000000000000114 ) ;
#952 = EDGE_CURVE ( 'NONE', #8, #240, #275, .T. ) ;
#953 = ORIENTED_EDGE ( 'NONE', *, *, #1014, .F. ) ;
#954 = CARTESIAN_POINT ( 'NONE',  ( -20.80912086321460919, 0.2821007244075356413, 5.000000000000000888 ) ) ;
#955 = FACE_OUTER_BOUND ( 'NONE', #348, .T. ) ;
#956 = ORIENTED_EDGE ( 'NONE', *, *, #770, .T. ) ;
#957 = DIRECTION ( 'NONE',  ( -0.000000000000000000, -0.000000000000000000, -1.000000000000000000 ) ) ;
#958 = ORIENTED_EDGE ( 'NONE', *, *, #453, .F. ) ;
#959 = CARTESIAN_POINT ( 'NONE',  ( -19.57164185934637857, 2.683843637399659698, 5.922293346026614280 ) ) ;
#960 = DIRECTION ( 'NONE',  ( -0.000000000000000000, -0.000000000000000000, -1.000000000000000000 ) ) ;
#961 = ORIENTED_EDGE ( 'NONE', *, *, #171, .F. ) ;
#962 = CARTESIAN_POINT ( 'NONE',  ( -19.96272598550818245, 2.297192030415272868, 3.653540097433216616 ) ) ;
#963 = ADVANCED_FACE ( 'NONE', ( #623 ), #617, .F. ) ;
#964 = CARTESIAN_POINT ( 'NONE',  ( -20.13725578468945088, 2.079752918522923988, 6.451035253566248073 ) ) ;
#965 = EDGE_CURVE ( 'NONE', #667, #683, #437, .T. ) ;
#966 = DIRECTION ( 'NONE',  ( -0.000000000000000000, -0.000000000000000000, -1.000000000000000000 ) ) ;
#967 = ORIENTED_EDGE ( 'NONE', *, *, #39, .F. ) ;
#968 = DIRECTION ( 'NONE',  ( -0.000000000000000000, -0.000000000000000000, -1.000000000000000000 ) ) ;
#969 = DESIGN_CONTEXT ( 'detailed design', #57, 'design' ) ;
#970 = CARTESIAN_POINT ( 'NONE',  ( 11.12500000000000178, 1.362419564051430495E-15, 0.000000000000000000 ) ) ;
#971 = VECTOR ( 'NONE', #873, 1000.000000000000000 ) ;
#972 = EDGE_CURVE ( 'NONE', #354, #546, #1054, .T. ) ;
#973 = PLANE ( 'NONE',  #843 ) ;
#974 = CARTESIAN_POINT ( 'NONE',  ( -8.660254037844381969, -15.00000000000000000, 8.000000000000000000 ) ) ;
#975 = CARTESIAN_POINT ( 'NONE',  ( -8.660254037844381969, -15.00000000000000000, 8.000000000000000000 ) ) ;
#976 = ORIENTED_EDGE ( 'NONE', *, *, #39, .T. ) ;
#977 = DIRECTION ( 'NONE',  ( -0.4999999999999990563, -0.8660254037844391517, 0.000000000000000000 ) ) ;
#978 = CARTESIAN_POINT ( 'NONE',  ( 20.70507472925211445, 0.8953142973401925220, 3.808919231778691739 ) ) ;
#979 = CARTESIAN_POINT ( 'NONE',  ( -20.77037407810042779, 0.6077057491327154670, 4.077396330418737058 ) ) ;
#980 = CARTESIAN_POINT ( 'NONE',  ( 20.78460969082652099, -6.000000000000014211, 10.00000000000000000 ) ) ;
#981 = CARTESIAN_POINT ( 'NONE',  ( -20.78460969082653165, 5.999999999999986677, 10.00000000000000000 ) ) ;
#982 = DIRECTION ( 'NONE',  ( -0.8660254037844390407, 0.4999999999999994449, -0.000000000000000000 ) ) ;
#983 = CC_DESIGN_PERSON_AND_ORGANIZATION_ASSIGNMENT ( #341, #420, ( #323 ) ) ;
#984 = LINE ( 'NONE', #891, #643 ) ;
#985 = AXIS2_PLACEMENT_3D ( 'NONE', #309, #224, #574 ) ;
#986 = AXIS2_PLACEMENT_3D ( 'NONE', #871, #793, #22 ) ;
#987 = CARTESIAN_POINT ( 'NONE',  ( -21.10278000163621570, -20.45164490702520155, 5.000000000000000000 ) ) ;
#988 = ORIENTED_EDGE ( 'NONE', *, *, #87, .F. ) ;
#989 = PERSON_AND_ORGANIZATION_ROLE ( 'creator' ) ;
#990 = DIRECTION ( 'NONE',  ( -1.000000000000000000, 0.000000000000000000, 0.000000000000000000 ) ) ;
#991 = CARTESIAN_POINT ( 'NONE',  ( 0.000000000000000000, 0.000000000000000000, 0.000000000000000000 ) ) ;
#992 = ORIENTED_EDGE ( 'NONE', *, *, #650, .F. ) ;
#993 = SECURITY_CLASSIFICATION_LEVEL ( 'unclassified' ) ;
#994 = PLANE ( 'NONE',  #199 ) ;
#995 = EDGE_CURVE ( 'NONE', #524, #622, #181, .T. ) ;
#996 = DIRECTION ( 'NONE',  ( 0.5000000000000003331, -0.8660254037844383745, -0.000000000000000000 ) ) ;
#997 = FACE_OUTER_BOUND ( 'NONE', #1015, .T. ) ;
#998 = ORIENTED_EDGE ( 'NONE', *, *, #899, .F. ) ;
#999 = VECTOR ( 'NONE', #391, 1000.000000000000000 ) ;
#1000 = AXIS2_PLACEMENT_3D ( 'NONE', #577, #957, #612 ) ;
#1001 = APPROVAL_DATE_TIME ( #748, #35 ) ;
#1002 = VECTOR ( 'NONE', #46, 1000.000000000000000 ) ;
#1003 = FACE_OUTER_BOUND ( 'NONE', #188, .T. ) ;
#1004 = EDGE_LOOP ( 'NONE', ( #918, #992, #778, #159 ) ) ;
#1005 = DIRECTION ( 'NONE',  ( 0.000000000000000000, 0.000000000000000000, 1.000000000000000000 ) ) ;
#1006 = ORIENTED_EDGE ( 'NONE', *, *, #878, .T. ) ;
#1007 = DIRECTION ( 'NONE',  ( 0.000000000000000000, 0.000000000000000000, 1.000000000000000000 ) ) ;
#1008 = CARTESIAN_POINT ( 'NONE',  ( -20.35278000163621570, -21.75068301270185955, 5.000000000000000000 ) ) ;
#1009 = EDGE_CURVE ( 'NONE', #607, #611, #896, .T. ) ;
#1010 = EDGE_LOOP ( 'NONE', ( #37, #620 ) ) ;
#1011 = COORDINATED_UNIVERSAL_TIME_OFFSET ( 7, 0, .BEHIND. ) ;
#1012 = CARTESIAN_POINT ( 'NONE',  ( 20.65888195716763320, 1.054595131942292374, 6.299270061725621872 ) ) ;
#1013 = DIRECTION ( 'NONE',  ( -0.000000000000000000, -0.000000000000000000, -1.000000000000000000 ) ) ;
#1014 = EDGE_CURVE ( 'NONE', #595, #488, #797, .T. ) ;
#1015 = EDGE_LOOP ( 'NONE', ( #1006, #776, #529, #1084 ) ) ;
#1016 = ORIENTED_EDGE ( 'NONE', *, *, #397, .T. ) ;
#1017 = CARTESIAN_POINT ( 'NONE',  ( 20.13731375520894318, 2.079690635088001116, 6.451081402107606166 ) ) ;
#1018 = CARTESIAN_POINT ( 'NONE',  ( 20.35278000163621925, -21.75068301270186666, 5.000000000000000888 ) ) ;
#1019 = AXIS2_PLACEMENT_3D ( 'NONE', #182, #677, #1035 ) ;
#1020 = DIRECTION ( 'NONE',  ( -1.000000000000000000, -1.001543065824772950E-15, 0.000000000000000000 ) ) ;
#1021 = EDGE_LOOP ( 'NONE', ( #183, #409 ) ) ;
#1022 = ORIENTED_EDGE ( 'NONE', *, *, #638, .F. ) ;
#1023 = CARTESIAN_POINT ( 'NONE',  ( 19.37959249539438389, 2.830524140343438244, 5.488061774185618802 ) ) ;
#1024 = CARTESIAN_POINT ( 'NONE',  ( 17.32050807568876039, -1.734723475976805517E-15, 8.000000000000000000 ) ) ;
#1025 = ORIENTED_EDGE ( 'NONE', *, *, #740, .F. ) ;
#1026 = CYLINDRICAL_SURFACE ( 'NONE', #1000, 3.499999999999999556 ) ;
#1027 = VERTEX_POINT ( 'NONE', #981 ) ;
#1028 = CARTESIAN_POINT ( 'NONE',  ( -13.85640646055101222, -6.000000000000007105, 8.000000000000000000 ) ) ;
#1029 = COORDINATED_UNIVERSAL_TIME_OFFSET ( 7, 0, .BEHIND. ) ;
#1030 = DIRECTION ( 'NONE',  ( -1.000000000000000000, 0.000000000000000000, 0.000000000000000000 ) ) ;
#1031 = EDGE_CURVE ( 'NONE', #1105, #8, #464, .T. ) ;
#1032 = ORIENTED_EDGE ( 'NONE', *, *, #470, .T. ) ;
#1033 = ORIENTED_EDGE ( 'NONE', *, *, #899, .T. ) ;
#1034 = CARTESIAN_POINT ( 'NONE',  ( 20.78460969082652099, -6.000000000000014211, 10.00000000000000000 ) ) ;
#1035 = DIRECTION ( 'NONE',  ( 1.000000000000000000, 0.000000000000000000, 0.000000000000000000 ) ) ;
#1036 = VECTOR ( 'NONE', #551, 1000.000000000000000 ) ;
#1037 = VECTOR ( 'NONE', #95, 1000.000000000000000 ) ;
#1038 = EDGE_LOOP ( 'NONE', ( #434, #690 ) ) ;
#1039 = AXIS2_PLACEMENT_3D ( 'NONE', #1018, #157, #94 ) ;
#1040 = ORIENTED_EDGE ( 'NONE', *, *, #673, .F. ) ;
#1041 = DIRECTION ( 'NONE',  ( 0.000000000000000000, 0.000000000000000000, 1.000000000000000000 ) ) ;
#1042 = LINE ( 'NONE', #450, #971 ) ;
#1043 = ORIENTED_EDGE ( 'NONE', *, *, #55, .T. ) ;
#1044 = CARTESIAN_POINT ( 'NONE',  ( -20.78460969082652099, -6.000000000000014211, 10.00000000000000000 ) ) ;
#1045 = ADVANCED_FACE ( 'NONE', ( #124 ), #810, .F. ) ;
#1046 = EDGE_CURVE ( 'NONE', #655, #349, #640, .T. ) ;
#1047 = DIRECTION ( 'NONE',  ( 0.8660254037844384856, 0.5000000000000003331, -0.000000000000000000 ) ) ;
#1048 = CARTESIAN_POINT ( 'NONE',  ( 8.660254037844380193, 15.00000000000000000, 8.000000000000000000 ) ) ;
#1049 = ORIENTED_EDGE ( 'NONE', *, *, #724, .F. ) ;
#1050 = CARTESIAN_POINT ( 'NONE',  ( -8.660254037844381969, -15.00000000000000000, 0.000000000000000000 ) ) ;
#1051 = PRODUCT_DEFINITION ( 'UNKNOWN', '', #805, #969 ) ;
#1052 = DIRECTION ( 'NONE',  ( 0.000000000000000000, 0.000000000000000000, 1.000000000000000000 ) ) ;
#1053 = APPROVAL_PERSON_ORGANIZATION ( #148, #189, #53 ) ;
#1054 = B_SPLINE_CURVE_WITH_KNOTS ( 'NONE', 3,
 ( #954, #291, #109, #628, #103, #635, #207, #552, #888, #782, #442, #543, #9, #787, #13, #964, #715, #196, #370, #358, #704, #959, #877, #447, #191, #537 ),
 .UNSPECIFIED., .F., .F.,
 ( 4, 2, 2, 2, 2, 2, 2, 2, 2, 2, 2, 2, 4 ),
 ( 0.000000000000000000, 0.0002967231781574290609, 0.0005934463563148581217, 0.001186892712629716243, 0.001780339068944574365, 0.002077062247102001366, 0.002373785425259428150, 0.002670508603416855368, 0.002967231781574282152, 0.003263954959731709370, 0.003560678137889136154, 0.004154124494203994926, 0.004747570850518854566 ),
 .UNSPECIFIED. ) ;
#1055 = CARTESIAN_POINT ( 'NONE',  ( 24.24871130596427804, -1.482509621968736587E-14, 0.000000000000000000 ) ) ;
#1056 = LINE ( 'NONE', #118, #429 ) ;
#1057 = CARTESIAN_POINT ( 'NONE',  ( -13.85640646055101222, -6.000000000000007105, 10.00000000000000000 ) ) ;
#1058 = AXIS2_PLACEMENT_3D ( 'NONE', #846, #1007, #511 ) ;
#1059 = CARTESIAN_POINT ( 'NONE',  ( 20.77027949630602066, 0.6082430880968067166, 4.076748087833494516 ) ) ;
#1060 = CARTESIAN_POINT ( 'NONE',  ( 20.82050807568876039, -1.306097096275231709E-15, 0.000000000000000000 ) ) ;
#1061 = VERTEX_POINT ( 'NONE', #238 ) ;
#1062 = CARTESIAN_POINT ( 'NONE',  ( -13.85640646055101222, -6.000000000000007105, 0.000000000000000000 ) ) ;
#1063 = DIRECTION ( 'NONE',  ( -0.5000000000000005551, -0.8660254037844383745, 0.000000000000000000 ) ) ;
#1064 = DIRECTION ( 'NONE',  ( -0.000000000000000000, -0.000000000000000000, -1.000000000000000000 ) ) ;
#1065 = EDGE_CURVE ( 'NONE', #717, #147, #586, .T. ) ;
#1066 = DIRECTION ( 'NONE',  ( 1.000000000000000000, 0.000000000000000000, 0.000000000000000000 ) ) ;
#1067 = DIRECTION ( 'NONE',  ( -0.000000000000000000, -0.000000000000000000, -1.000000000000000000 ) ) ;
#1068 = CARTESIAN_POINT ( 'NONE',  ( 13.85640646055102287, 5.999999999999993783, 10.00000000000000000 ) ) ;
#1069 = AXIS2_PLACEMENT_3D ( 'NONE', #250, #413, #179 ) ;
#1070 = ORIENTED_EDGE ( 'NONE', *, *, #1046, .T. ) ;
#1071 = CARTESIAN_POINT ( 'NONE',  ( 20.80912086321459142, 0.2821007244075214859, 5.000000000000000000 ) ) ;
#1072 = LINE ( 'NONE', #759, #225 ) ;
#1073 = EDGE_CURVE ( 'NONE', #914, #769, #940, .T. ) ;
#1074 = ORIENTED_EDGE ( 'NONE', *, *, #14, .T. ) ;
#1075 = ADVANCED_FACE ( 'NONE', ( #67 ), #333, .F. ) ;
#1076 = CALENDAR_DATE ( 2026, 6, 2 ) ;
#1077 = DIRECTION ( 'NONE',  ( -0.8660254037844384856, 0.5000000000000004441, 0.000000000000000000 ) ) ;
#1078 = DIRECTION ( 'NONE',  ( -0.5000000000000002220, -0.8660254037844384856, 0.000000000000000000 ) ) ;
#1079 = CARTESIAN_POINT ( 'NONE',  ( 9.000000000000000000, 1.102182119232617714E-15, 10.00000000000000000 ) ) ;
#1080 = ORIENTED_EDGE ( 'NONE', *, *, #229, .F. ) ;
#1081 = DATE_AND_TIME ( #1076, #555 ) ;
#1082 = DIRECTION ( 'NONE',  ( 1.000000000000000000, 0.000000000000000000, 0.000000000000000000 ) ) ;
#1083 = DIRECTION ( 'NONE',  ( 0.5000000000000003331, -0.8660254037844384856, 0.000000000000000000 ) ) ;
#1084 = ORIENTED_EDGE ( 'NONE', *, *, #733, .F. ) ;
#1085 = VECTOR ( 'NONE', #681, 1000.000000000000227 ) ;
#1086 = LINE ( 'NONE', #31, #949 ) ;
#1087 = EDGE_CURVE ( 'NONE', #422, #337, #75, .T. ) ;
#1088 = VECTOR ( 'NONE', #381, 1000.000000000000000 ) ;
#1089 = CYLINDRICAL_SURFACE ( 'NONE', #357, 1.499999999999999778 ) ;
#1090 = EDGE_LOOP ( 'NONE', ( #423, #1025, #418, #630, #318, #599, #1080, #860, #870, #263, #12, #277, #961, #967 ) ) ;
#1091 = ORIENTED_EDGE ( 'NONE', *, *, #965, .T. ) ;
#1092 = PLANE ( 'NONE',  #430 ) ;
#1093 = CYLINDRICAL_SURFACE ( 'NONE', #666, 3.499999999999999556 ) ;
#1094 = VERTEX_POINT ( 'NONE', #243 ) ;
#1095 = EDGE_LOOP ( 'NONE', ( #780, #576, #998, #826 ) ) ;
#1096 = DIRECTION ( 'NONE',  ( -0.4999999999999985012, 0.8660254037844394848, 0.000000000000000000 ) ) ;
#1097 = APPLICATION_PROTOCOL_DEFINITION ( 'international standard', 'config_control_design', 1994, #57 ) ;
#1098 = DIRECTION ( 'NONE',  ( -0.000000000000000000, -0.000000000000000000, -1.000000000000000000 ) ) ;
#1099 = ORIENTED_EDGE ( 'NONE', *, *, #216, .T. ) ;
#1100 = VERTEX_POINT ( 'NONE', #346 ) ;
#1101 = CARTESIAN_POINT ( 'NONE',  ( 20.70518700017183988, 0.8949076170291222487, 6.190785493858315114 ) ) ;
#1102 = CARTESIAN_POINT ( 'NONE',  ( 0.000000000000000000, 0.000000000000000000, 0.000000000000000000 ) ) ;
#1103 = AXIS2_PLACEMENT_3D ( 'NONE', #255, #86, #416 ) ;
#1104 = FACE_OUTER_BOUND ( 'NONE', #661, .T. ) ;
#1105 = VERTEX_POINT ( 'NONE', #507 ) ;
ENDSEC;
END-ISO-10303-21;
