ISO-10303-21;
HEADER;
FILE_DESCRIPTION (( 'STEP AP203' ),
    '1' );
FILE_NAME ('Lower Leg Shaft V.3.STEP',
    '2026-02-08T17:11:55',
    ( '' ),
    ( '' ),
    'SwSTEP 2.0',
    'SolidWorks 2025',
    '' );
FILE_SCHEMA (( 'CONFIG_CONTROL_DESIGN' ));
ENDSEC;

DATA;
#1 = DATE_AND_TIME ( #146, #170 ) ;
#2 = DIRECTION ( 'NONE',  ( 1.000000000000000000, 0.000000000000000000, 0.000000000000000000 ) ) ;
#3 = APPLICATION_PROTOCOL_DEFINITION ( 'international standard', 'config_control_design', 1994, #51 ) ;
#4 = CYLINDRICAL_SURFACE ( 'NONE', #20, 5.000000000000000000 ) ;
#5 = CALENDAR_DATE ( 2026, 8, 2 ) ;
#6 = APPROVAL ( #154, 'UNSPECIFIED' ) ;
#7 = EDGE_LOOP ( 'NONE', ( #8, #59, #30, #108 ) ) ;
#8 = ORIENTED_EDGE ( 'NONE', *, *, #143, .F. ) ;
#9 = COORDINATED_UNIVERSAL_TIME_OFFSET ( 7, 0, .BEHIND. ) ;
#10 = ORGANIZATION ( 'UNSPECIFIED', 'UNSPECIFIED', '' ) ;
#11 = PRODUCT_DEFINITION_SHAPE ( 'NONE', 'NONE',  #100 ) ;
#12 = DIRECTION ( 'NONE',  ( 1.000000000000000000, 0.000000000000000000, -0.000000000000000000 ) ) ;
#13 = DIRECTION ( 'NONE',  ( 1.000000000000000000, 0.000000000000000000, 0.000000000000000000 ) ) ;
#14 = FACE_OUTER_BOUND ( 'NONE', #7, .T. ) ;
#15 = APPROVAL_DATE_TIME ( #69, #21 ) ;
#16 = CARTESIAN_POINT ( 'NONE',  ( 0.000000000000000000, 0.000000000000000000, 0.000000000000000000 ) ) ;
#17 = EDGE_CURVE ( 'NONE', #125, #140, #169, .T. ) ;
#18 = CARTESIAN_POINT ( 'NONE',  ( -5.000000000000000000, 0.000000000000000000, 25.00000000000000000 ) ) ;
#19 = EDGE_LOOP ( 'NONE', ( #45, #126 ) ) ;
#20 = AXIS2_PLACEMENT_3D ( 'NONE', #56, #42, #95 ) ;
#21 = APPROVAL ( #137, 'UNSPECIFIED' ) ;
#22 = PERSON_AND_ORGANIZATION ( #91, #10 ) ;
#23 = PERSON_AND_ORGANIZATION ( #91, #10 ) ;
#24 = CC_DESIGN_APPROVAL ( #21, ( #100 ) ) ;
#25 = DIRECTION ( 'NONE',  ( -0.000000000000000000, -0.000000000000000000, -1.000000000000000000 ) ) ;
#26 = CARTESIAN_POINT ( 'NONE',  ( 0.000000000000000000, 0.000000000000000000, 25.00000000000000000 ) ) ;
#27 = DIRECTION ( 'NONE',  ( 0.000000000000000000, 0.000000000000000000, 1.000000000000000000 ) ) ;
#28 = CARTESIAN_POINT ( 'NONE',  ( 0.000000000000000000, 0.000000000000000000, 25.00000000000000000 ) ) ;
#29 = APPROVAL_ROLE ( '' ) ;
#30 = ORIENTED_EDGE ( 'NONE', *, *, #173, .T. ) ;
#31 = VERTEX_POINT ( 'NONE', #60 ) ;
#32 = SECURITY_CLASSIFICATION ( '', '', #144 ) ;
#33 = CIRCLE ( 'NONE', #58, 5.000000000000000000 ) ;
#34 = CC_DESIGN_PERSON_AND_ORGANIZATION_ASSIGNMENT ( #23, #76, ( #48 ) ) ;
#35 = PERSON_AND_ORGANIZATION ( #91, #10 ) ;
#36 = COORDINATED_UNIVERSAL_TIME_OFFSET ( 7, 0, .BEHIND. ) ;
#37 =( NAMED_UNIT ( * ) SI_UNIT ( $, .STERADIAN. ) SOLID_ANGLE_UNIT ( ) );
#38 = DIRECTION ( 'NONE',  ( 1.000000000000000000, 0.000000000000000000, 0.000000000000000000 ) ) ;
#39 = ADVANCED_FACE ( 'NONE', ( #89 ), #141, .F. ) ;
#40 = DIRECTION ( 'NONE',  ( 0.000000000000000000, 0.000000000000000000, 1.000000000000000000 ) ) ;
#41 = PERSON_AND_ORGANIZATION_ROLE ( 'design_owner' ) ;
#42 = DIRECTION ( 'NONE',  ( -0.000000000000000000, -0.000000000000000000, -1.000000000000000000 ) ) ;
#43 = APPLICATION_PROTOCOL_DEFINITION ( 'international standard', 'config_control_design', 1994, #116 ) ;
#44 = VERTEX_POINT ( 'NONE', #54 ) ;
#45 = ORIENTED_EDGE ( 'NONE', *, *, #53, .T. ) ;
#46 = CC_DESIGN_SECURITY_CLASSIFICATION ( #32, ( #48 ) ) ;
#47 = CC_DESIGN_PERSON_AND_ORGANIZATION_ASSIGNMENT ( #81, #41, ( #80 ) ) ;
#48 = PRODUCT_DEFINITION_FORMATION_WITH_SPECIFIED_SOURCE ( 'ANY', '', #80, .NOT_KNOWN. ) ;
#49 = AXIS2_PLACEMENT_3D ( 'NONE', #68, #93, #164 ) ;
#50 = APPROVAL_STATUS ( 'not_yet_approved' ) ;
#51 = APPLICATION_CONTEXT ( 'configuration controlled 3d designs of mechanical parts and assemblies' ) ;
#52 = CARTESIAN_POINT ( 'NONE',  ( 0.000000000000000000, 0.000000000000000000, 0.000000000000000000 ) ) ;
#53 = EDGE_CURVE ( 'NONE', #125, #31, #87, .T. ) ;
#54 = CARTESIAN_POINT ( 'NONE',  ( 5.000000000000000000, 6.123233995736766282E-16, 0.000000000000000000 ) ) ;
#55 = COORDINATED_UNIVERSAL_TIME_OFFSET ( 7, 0, .BEHIND. ) ;
#56 = CARTESIAN_POINT ( 'NONE',  ( 0.000000000000000000, 0.000000000000000000, 25.00000000000000000 ) ) ;
#57 = DATE_AND_TIME ( #5, #124 ) ;
#58 = AXIS2_PLACEMENT_3D ( 'NONE', #16, #119, #2 ) ;
#59 = ORIENTED_EDGE ( 'NONE', *, *, #65, .T. ) ;
#60 = CARTESIAN_POINT ( 'NONE',  ( 5.000000000000000000, 6.123233995736766282E-16, 25.00000000000000000 ) ) ;
#61 = PRODUCT_RELATED_PRODUCT_CATEGORY ( 'detail', '', ( #80 ) ) ;
#62 = APPROVAL_DATE_TIME ( #128, #167 ) ;
#63 = AXIS2_PLACEMENT_3D ( 'NONE', #26, #25, #118 ) ;
#64 = DESIGN_CONTEXT ( 'detailed design', #116, 'design' ) ;
#65 = EDGE_CURVE ( 'NONE', #31, #44, #121, .T. ) ;
#66 = DIRECTION ( 'NONE',  ( 0.000000000000000000, 0.000000000000000000, 1.000000000000000000 ) ) ;
#67 = COORDINATED_UNIVERSAL_TIME_OFFSET ( 7, 0, .BEHIND. ) ;
#68 = CARTESIAN_POINT ( 'NONE',  ( 0.000000000000000000, 0.000000000000000000, 0.000000000000000000 ) ) ;
#69 = DATE_AND_TIME ( #94, #147 ) ;
#70 = PLANE ( 'NONE',  #92 ) ;
#71 = APPROVAL_PERSON_ORGANIZATION ( #96, #6, #29 ) ;
#72 = VECTOR ( 'NONE', #156, 1000.000000000000000 ) ;
#73 = CC_DESIGN_PERSON_AND_ORGANIZATION_ASSIGNMENT ( #35, #115, ( #48 ) ) ;
#74 = ORIENTED_EDGE ( 'NONE', *, *, #111, .T. ) ;
#75 = ORIENTED_EDGE ( 'NONE', *, *, #65, .F. ) ;
#76 = PERSON_AND_ORGANIZATION_ROLE ( 'creator' ) ;
#77 = CALENDAR_DATE ( 2026, 8, 2 ) ;
#78 = ADVANCED_FACE ( 'NONE', ( #14 ), #4, .T. ) ;
#79 = AXIS2_PLACEMENT_3D ( 'NONE', #52, #102, #134 ) ;
#80 = PRODUCT ( 'Lower Leg Shaft V.3', 'Lower Leg Shaft V.3', '', ( #166 ) ) ;
#81 = PERSON_AND_ORGANIZATION ( #91, #10 ) ;
#82 = CARTESIAN_POINT ( 'NONE',  ( 5.000000000000000000, 6.123233995736766282E-16, 25.00000000000000000 ) ) ;
#83 = PERSON_AND_ORGANIZATION ( #91, #10 ) ;
#84 = DIRECTION ( 'NONE',  ( 1.000000000000000000, 0.000000000000000000, 0.000000000000000000 ) ) ;
#85 = APPROVAL_ROLE ( '' ) ;
#86 = CC_DESIGN_DATE_AND_TIME_ASSIGNMENT ( #129, #90, ( #32 ) ) ;
#87 = CIRCLE ( 'NONE', #149, 5.000000000000000000 ) ;
#88 = ORIENTED_EDGE ( 'NONE', *, *, #17, .T. ) ;
#89 = FACE_OUTER_BOUND ( 'NONE', #155, .T. ) ;
#90 = DATE_TIME_ROLE ( 'classification_date' ) ;
#91 = PERSON ( 'UNSPECIFIED', 'UNSPECIFIED', 'UNSPECIFIED', ('UNSPECIFIED'), ('UNSPECIFIED'), ('UNSPECIFIED') ) ;
#92 = AXIS2_PLACEMENT_3D ( 'NONE', #28, #138, #12 ) ;
#93 = DIRECTION ( 'NONE',  ( 0.000000000000000000, 0.000000000000000000, 1.000000000000000000 ) ) ;
#94 = CALENDAR_DATE ( 2026, 8, 2 ) ;
#95 = DIRECTION ( 'NONE',  ( -1.000000000000000000, 0.000000000000000000, 0.000000000000000000 ) ) ;
#96 = PERSON_AND_ORGANIZATION ( #91, #10 ) ;
#97 = ORIENTED_EDGE ( 'NONE', *, *, #53, .F. ) ;
#98 = ORIENTED_EDGE ( 'NONE', *, *, #173, .F. ) ;
#99 = APPROVAL_PERSON_ORGANIZATION ( #83, #21, #85 ) ;
#100 = PRODUCT_DEFINITION ( 'UNKNOWN', '', #48, #64 ) ;
#101 = SHAPE_DEFINITION_REPRESENTATION ( #11, #157 ) ;
#102 = DIRECTION ( 'NONE',  ( 0.000000000000000000, 0.000000000000000000, 1.000000000000000000 ) ) ;
#103 = CARTESIAN_POINT ( 'NONE',  ( -5.000000000000000000, 0.000000000000000000, 25.00000000000000000 ) ) ;
#104 = DIRECTION ( 'NONE',  ( -0.000000000000000000, -0.000000000000000000, -1.000000000000000000 ) ) ;
#105 = AXIS2_PLACEMENT_3D ( 'NONE', #162, #27, #13 ) ;
#106 = ADVANCED_FACE ( 'NONE', ( #153 ), #70, .T. ) ;
#107 = DATE_TIME_ROLE ( 'creation_date' ) ;
#108 = ORIENTED_EDGE ( 'NONE', *, *, #17, .F. ) ;
#109 = EDGE_LOOP ( 'NONE', ( #75, #97, #88, #74 ) ) ;
#110 = CC_DESIGN_APPROVAL ( #167, ( #32 ) ) ;
#111 = EDGE_CURVE ( 'NONE', #140, #44, #33, .T. ) ;
#112 = CC_DESIGN_APPROVAL ( #6, ( #48 ) ) ;
#113 = CLOSED_SHELL ( 'NONE', ( #78, #127, #106, #39 ) ) ;
#114 = PERSON_AND_ORGANIZATION ( #91, #10 ) ;
#115 = PERSON_AND_ORGANIZATION_ROLE ( 'design_supplier' ) ;
#116 = APPLICATION_CONTEXT ( 'configuration controlled 3d designs of mechanical parts and assemblies' ) ;
#117 = UNCERTAINTY_MEASURE_WITH_UNIT (LENGTH_MEASURE( 1.000000000000000082E-05 ), #174, 'distance_accuracy_value', 'NONE');
#118 = DIRECTION ( 'NONE',  ( -1.000000000000000000, 0.000000000000000000, 0.000000000000000000 ) ) ;
#119 = DIRECTION ( 'NONE',  ( 0.000000000000000000, 0.000000000000000000, 1.000000000000000000 ) ) ;
#120 = PERSON_AND_ORGANIZATION_ROLE ( 'creator' ) ;
#121 = LINE ( 'NONE', #82, #139 ) ;
#122 = PERSON_AND_ORGANIZATION ( #91, #10 ) ;
#123 = LOCAL_TIME ( 10, 11, 55.00000000000000000, #36 ) ;
#124 = LOCAL_TIME ( 10, 11, 55.00000000000000000, #55 ) ;
#125 = VERTEX_POINT ( 'NONE', #103 ) ;
#126 = ORIENTED_EDGE ( 'NONE', *, *, #143, .T. ) ;
#127 = ADVANCED_FACE ( 'NONE', ( #163 ), #152, .T. ) ;
#128 = DATE_AND_TIME ( #130, #131 ) ;
#129 = DATE_AND_TIME ( #77, #123 ) ;
#130 = CALENDAR_DATE ( 2026, 8, 2 ) ;
#131 = LOCAL_TIME ( 10, 11, 55.00000000000000000, #9 ) ;
#132 = CIRCLE ( 'NONE', #79, 5.000000000000000000 ) ;
#133 = CC_DESIGN_PERSON_AND_ORGANIZATION_ASSIGNMENT ( #122, #120, ( #100 ) ) ;
#134 = DIRECTION ( 'NONE',  ( 1.000000000000000000, 0.000000000000000000, 0.000000000000000000 ) ) ;
#135 = COORDINATED_UNIVERSAL_TIME_OFFSET ( 7, 0, .BEHIND. ) ;
#136 = CARTESIAN_POINT ( 'NONE',  ( 0.000000000000000000, 0.000000000000000000, 25.00000000000000000 ) ) ;
#137 = APPROVAL_STATUS ( 'not_yet_approved' ) ;
#138 = DIRECTION ( 'NONE',  ( 0.000000000000000000, 0.000000000000000000, 1.000000000000000000 ) ) ;
#139 = VECTOR ( 'NONE', #104, 1000.000000000000000 ) ;
#140 = VERTEX_POINT ( 'NONE', #175 ) ;
#141 = PLANE ( 'NONE',  #49 ) ;
#142 =( GEOMETRIC_REPRESENTATION_CONTEXT ( 3 ) GLOBAL_UNCERTAINTY_ASSIGNED_CONTEXT ( ( #117 ) ) GLOBAL_UNIT_ASSIGNED_CONTEXT ( ( #174, #150, #37 ) ) REPRESENTATION_CONTEXT ( 'NONE', 'WORKASPACE' ) );
#143 = EDGE_CURVE ( 'NONE', #31, #125, #158, .T. ) ;
#144 = SECURITY_CLASSIFICATION_LEVEL ( 'unclassified' ) ;
#145 = APPROVAL_PERSON_ORGANIZATION ( #22, #167, #159 ) ;
#146 = CALENDAR_DATE ( 2026, 8, 2 ) ;
#147 = LOCAL_TIME ( 10, 11, 55.00000000000000000, #135 ) ;
#148 = CC_DESIGN_PERSON_AND_ORGANIZATION_ASSIGNMENT ( #114, #171, ( #32 ) ) ;
#149 = AXIS2_PLACEMENT_3D ( 'NONE', #136, #40, #84 ) ;
#150 =( NAMED_UNIT ( * ) PLANE_ANGLE_UNIT ( ) SI_UNIT ( $, .RADIAN. ) );
#151 = MANIFOLD_SOLID_BREP ( 'Boss-Extrude1', #113 ) ;
#152 = CYLINDRICAL_SURFACE ( 'NONE', #63, 5.000000000000000000 ) ;
#153 = FACE_OUTER_BOUND ( 'NONE', #19, .T. ) ;
#154 = APPROVAL_STATUS ( 'not_yet_approved' ) ;
#155 = EDGE_LOOP ( 'NONE', ( #168, #98 ) ) ;
#156 = DIRECTION ( 'NONE',  ( -0.000000000000000000, -0.000000000000000000, -1.000000000000000000 ) ) ;
#157 = ADVANCED_BREP_SHAPE_REPRESENTATION ( 'Lower Leg Shaft V.3', ( #151, #105 ), #142 ) ;
#158 = CIRCLE ( 'NONE', #165, 5.000000000000000000 ) ;
#159 = APPROVAL_ROLE ( '' ) ;
#160 = CARTESIAN_POINT ( 'NONE',  ( 0.000000000000000000, 0.000000000000000000, 25.00000000000000000 ) ) ;
#161 = CC_DESIGN_DATE_AND_TIME_ASSIGNMENT ( #57, #107, ( #100 ) ) ;
#162 = CARTESIAN_POINT ( 'NONE',  ( 0.000000000000000000, 0.000000000000000000, 0.000000000000000000 ) ) ;
#163 = FACE_OUTER_BOUND ( 'NONE', #109, .T. ) ;
#164 = DIRECTION ( 'NONE',  ( 1.000000000000000000, 0.000000000000000000, -0.000000000000000000 ) ) ;
#165 = AXIS2_PLACEMENT_3D ( 'NONE', #160, #66, #38 ) ;
#166 = MECHANICAL_CONTEXT ( 'NONE', #51, 'mechanical' ) ;
#167 = APPROVAL ( #50, 'UNSPECIFIED' ) ;
#168 = ORIENTED_EDGE ( 'NONE', *, *, #111, .F. ) ;
#169 = LINE ( 'NONE', #18, #72 ) ;
#170 = LOCAL_TIME ( 10, 11, 55.00000000000000000, #67 ) ;
#171 = PERSON_AND_ORGANIZATION_ROLE ( 'classification_officer' ) ;
#172 = APPROVAL_DATE_TIME ( #1, #6 ) ;
#173 = EDGE_CURVE ( 'NONE', #44, #140, #132, .T. ) ;
#174 =( LENGTH_UNIT ( ) NAMED_UNIT ( * ) SI_UNIT ( .MILLI., .METRE. ) );
#175 = CARTESIAN_POINT ( 'NONE',  ( -5.000000000000000000, 0.000000000000000000, 0.000000000000000000 ) ) ;
ENDSEC;
END-ISO-10303-21;
