ISO-10303-21;
HEADER;
FILE_DESCRIPTION (( 'STEP AP203' ),
    '1' );
FILE_NAME ('Lower Arm Rod V.3.STEP',
    '2026-02-08T17:07:57',
    ( '' ),
    ( '' ),
    'SwSTEP 2.0',
    'SolidWorks 2025',
    '' );
FILE_SCHEMA (( 'CONFIG_CONTROL_DESIGN' ));
ENDSEC;

DATA;
#1 = PERSON_AND_ORGANIZATION ( #138, #161 ) ;
#2 = ORIENTED_EDGE ( 'NONE', *, *, #122, .F. ) ;
#3 = PRODUCT_DEFINITION ( 'UNKNOWN', '', #10, #173 ) ;
#4 =( NAMED_UNIT ( * ) SI_UNIT ( $, .STERADIAN. ) SOLID_ANGLE_UNIT ( ) );
#5 = AXIS2_PLACEMENT_3D ( 'NONE', #46, #97, #110 ) ;
#6 = CARTESIAN_POINT ( 'NONE',  ( 0.000000000000000000, 0.000000000000000000, 0.000000000000000000 ) ) ;
#7 = EDGE_CURVE ( 'NONE', #118, #80, #19, .T. ) ;
#8 = VERTEX_POINT ( 'NONE', #38 ) ;
#9 = COORDINATED_UNIVERSAL_TIME_OFFSET ( 7, 0, .BEHIND. ) ;
#10 = PRODUCT_DEFINITION_FORMATION_WITH_SPECIFIED_SOURCE ( 'ANY', '', #165, .NOT_KNOWN. ) ;
#11 = CARTESIAN_POINT ( 'NONE',  ( -3.500000000000000444, 0.000000000000000000, 25.00000000000000000 ) ) ;
#12 = LOCAL_TIME ( 10, 7, 57.00000000000000000, #40 ) ;
#13 = ORIENTED_EDGE ( 'NONE', *, *, #166, .T. ) ;
#14 = CYLINDRICAL_SURFACE ( 'NONE', #44, 3.500000000000000444 ) ;
#15 = ORIENTED_EDGE ( 'NONE', *, *, #45, .T. ) ;
#16 = CARTESIAN_POINT ( 'NONE',  ( 0.000000000000000000, 0.000000000000000000, 25.00000000000000000 ) ) ;
#17 = ADVANCED_FACE ( 'NONE', ( #106 ), #14, .T. ) ;
#18 = PLANE ( 'NONE',  #123 ) ;
#19 = CIRCLE ( 'NONE', #155, 3.500000000000000444 ) ;
#20 = EDGE_LOOP ( 'NONE', ( #2, #114 ) ) ;
#21 = CC_DESIGN_PERSON_AND_ORGANIZATION_ASSIGNMENT ( #129, #91, ( #54 ) ) ;
#22 = AXIS2_PLACEMENT_3D ( 'NONE', #125, #115, #33 ) ;
#23 = APPROVAL_STATUS ( 'not_yet_approved' ) ;
#24 = DIRECTION ( 'NONE',  ( 1.000000000000000000, 0.000000000000000000, 0.000000000000000000 ) ) ;
#25 = CALENDAR_DATE ( 2026, 8, 2 ) ;
#26 = ORIENTED_EDGE ( 'NONE', *, *, #122, .T. ) ;
#27 = VECTOR ( 'NONE', #162, 1000.000000000000000 ) ;
#28 = CARTESIAN_POINT ( 'NONE',  ( 0.000000000000000000, 0.000000000000000000, 25.00000000000000000 ) ) ;
#29 = ORIENTED_EDGE ( 'NONE', *, *, #154, .F. ) ;
#30 = CC_DESIGN_DATE_AND_TIME_ASSIGNMENT ( #149, #119, ( #3 ) ) ;
#31 = LOCAL_TIME ( 10, 7, 57.00000000000000000, #73 ) ;
#32 = PERSON_AND_ORGANIZATION_ROLE ( 'design_owner' ) ;
#33 = DIRECTION ( 'NONE',  ( 1.000000000000000000, 0.000000000000000000, 0.000000000000000000 ) ) ;
#34 = EDGE_LOOP ( 'NONE', ( #126, #29, #13, #26 ) ) ;
#35 = DATE_AND_TIME ( #25, #12 ) ;
#36 = ADVANCED_BREP_SHAPE_REPRESENTATION ( 'Lower Arm Rod V.3', ( #152, #170 ), #70 ) ;
#37 = DATE_AND_TIME ( #132, #79 ) ;
#38 = CARTESIAN_POINT ( 'NONE',  ( -3.500000000000000444, 0.000000000000000000, 0.000000000000000000 ) ) ;
#39 = APPROVAL ( #142, 'UNSPECIFIED' ) ;
#40 = COORDINATED_UNIVERSAL_TIME_OFFSET ( 7, 0, .BEHIND. ) ;
#41 = CC_DESIGN_PERSON_AND_ORGANIZATION_ASSIGNMENT ( #1, #160, ( #10 ) ) ;
#42 = LINE ( 'NONE', #136, #104 ) ;
#43 = APPROVAL_PERSON_ORGANIZATION ( #78, #169, #51 ) ;
#44 = AXIS2_PLACEMENT_3D ( 'NONE', #28, #148, #94 ) ;
#45 = EDGE_CURVE ( 'NONE', #139, #8, #100, .T. ) ;
#46 = CARTESIAN_POINT ( 'NONE',  ( 0.000000000000000000, 0.000000000000000000, 25.00000000000000000 ) ) ;
#47 = AXIS2_PLACEMENT_3D ( 'NONE', #120, #65, #107 ) ;
#48 = APPROVAL_DATE_TIME ( #35, #39 ) ;
#49 = UNCERTAINTY_MEASURE_WITH_UNIT (LENGTH_MEASURE( 1.000000000000000082E-05 ), #101, 'distance_accuracy_value', 'NONE');
#50 = DATE_AND_TIME ( #77, #31 ) ;
#51 = APPROVAL_ROLE ( '' ) ;
#52 = EDGE_CURVE ( 'NONE', #118, #139, #67, .T. ) ;
#53 = SHAPE_DEFINITION_REPRESENTATION ( #135, #36 ) ;
#54 = SECURITY_CLASSIFICATION ( '', '', #63 ) ;
#55 = ORIENTED_EDGE ( 'NONE', *, *, #7, .F. ) ;
#56 = DIRECTION ( 'NONE',  ( 0.000000000000000000, 0.000000000000000000, 1.000000000000000000 ) ) ;
#57 = CC_DESIGN_PERSON_AND_ORGANIZATION_ASSIGNMENT ( #58, #32, ( #165 ) ) ;
#58 = PERSON_AND_ORGANIZATION ( #138, #161 ) ;
#59 = ORIENTED_EDGE ( 'NONE', *, *, #154, .T. ) ;
#60 = APPLICATION_PROTOCOL_DEFINITION ( 'international standard', 'config_control_design', 1994, #121 ) ;
#61 = EDGE_LOOP ( 'NONE', ( #55, #124, #15, #163 ) ) ;
#62 = CIRCLE ( 'NONE', #22, 3.500000000000000444 ) ;
#63 = SECURITY_CLASSIFICATION_LEVEL ( 'unclassified' ) ;
#64 = COORDINATED_UNIVERSAL_TIME_OFFSET ( 7, 0, .BEHIND. ) ;
#65 = DIRECTION ( 'NONE',  ( 0.000000000000000000, 0.000000000000000000, 1.000000000000000000 ) ) ;
#66 = DIRECTION ( 'NONE',  ( 0.000000000000000000, 0.000000000000000000, 1.000000000000000000 ) ) ;
#67 = LINE ( 'NONE', #108, #27 ) ;
#68 = CC_DESIGN_SECURITY_CLASSIFICATION ( #54, ( #10 ) ) ;
#69 = DIRECTION ( 'NONE',  ( 1.000000000000000000, 0.000000000000000000, -0.000000000000000000 ) ) ;
#70 =( GEOMETRIC_REPRESENTATION_CONTEXT ( 3 ) GLOBAL_UNCERTAINTY_ASSIGNED_CONTEXT ( ( #49 ) ) GLOBAL_UNIT_ASSIGNED_CONTEXT ( ( #101, #85, #4 ) ) REPRESENTATION_CONTEXT ( 'NONE', 'WORKASPACE' ) );
#71 = MECHANICAL_CONTEXT ( 'NONE', #131, 'mechanical' ) ;
#72 = COORDINATED_UNIVERSAL_TIME_OFFSET ( 7, 0, .BEHIND. ) ;
#73 = COORDINATED_UNIVERSAL_TIME_OFFSET ( 7, 0, .BEHIND. ) ;
#74 = APPROVAL_PERSON_ORGANIZATION ( #171, #39, #90 ) ;
#75 = ADVANCED_FACE ( 'NONE', ( #96 ), #82, .T. ) ;
#76 = DIRECTION ( 'NONE',  ( -1.000000000000000000, 0.000000000000000000, 0.000000000000000000 ) ) ;
#77 = CALENDAR_DATE ( 2026, 8, 2 ) ;
#78 = PERSON_AND_ORGANIZATION ( #138, #161 ) ;
#79 = LOCAL_TIME ( 10, 7, 57.00000000000000000, #64 ) ;
#80 = VERTEX_POINT ( 'NONE', #11 ) ;
#81 = CARTESIAN_POINT ( 'NONE',  ( 0.000000000000000000, 0.000000000000000000, 25.00000000000000000 ) ) ;
#82 = CYLINDRICAL_SURFACE ( 'NONE', #175, 3.500000000000000444 ) ;
#83 = APPROVAL_STATUS ( 'not_yet_approved' ) ;
#84 = ADVANCED_FACE ( 'NONE', ( #102 ), #18, .F. ) ;
#85 =( NAMED_UNIT ( * ) PLANE_ANGLE_UNIT ( ) SI_UNIT ( $, .RADIAN. ) );
#86 = LOCAL_TIME ( 10, 7, 57.00000000000000000, #9 ) ;
#87 = CARTESIAN_POINT ( 'NONE',  ( 3.500000000000000444, 4.286263797015737088E-16, 0.000000000000000000 ) ) ;
#88 = PRODUCT_RELATED_PRODUCT_CATEGORY ( 'detail', '', ( #165 ) ) ;
#89 = CARTESIAN_POINT ( 'NONE',  ( 0.000000000000000000, 0.000000000000000000, 25.00000000000000000 ) ) ;
#90 = APPROVAL_ROLE ( '' ) ;
#91 = PERSON_AND_ORGANIZATION_ROLE ( 'classification_officer' ) ;
#92 = PERSON_AND_ORGANIZATION ( #138, #161 ) ;
#93 = ORIENTED_EDGE ( 'NONE', *, *, #7, .T. ) ;
#94 = DIRECTION ( 'NONE',  ( -1.000000000000000000, 0.000000000000000000, 0.000000000000000000 ) ) ;
#95 = PERSON_AND_ORGANIZATION_ROLE ( 'creator' ) ;
#96 = FACE_OUTER_BOUND ( 'NONE', #61, .T. ) ;
#97 = DIRECTION ( 'NONE',  ( 0.000000000000000000, 0.000000000000000000, 1.000000000000000000 ) ) ;
#98 = APPROVAL_PERSON_ORGANIZATION ( #116, #153, #134 ) ;
#99 = PLANE ( 'NONE',  #5 ) ;
#100 = CIRCLE ( 'NONE', #47, 3.500000000000000444 ) ;
#101 =( LENGTH_UNIT ( ) NAMED_UNIT ( * ) SI_UNIT ( .MILLI., .METRE. ) );
#102 = FACE_OUTER_BOUND ( 'NONE', #20, .T. ) ;
#103 = APPLICATION_PROTOCOL_DEFINITION ( 'international standard', 'config_control_design', 1994, #131 ) ;
#104 = VECTOR ( 'NONE', #167, 1000.000000000000000 ) ;
#105 = APPROVAL_DATE_TIME ( #50, #169 ) ;
#106 = FACE_OUTER_BOUND ( 'NONE', #34, .T. ) ;
#107 = DIRECTION ( 'NONE',  ( 1.000000000000000000, 0.000000000000000000, 0.000000000000000000 ) ) ;
#108 = CARTESIAN_POINT ( 'NONE',  ( 3.500000000000000444, 4.286263797015737088E-16, 25.00000000000000000 ) ) ;
#109 = DIRECTION ( 'NONE',  ( -0.000000000000000000, -0.000000000000000000, -1.000000000000000000 ) ) ;
#110 = DIRECTION ( 'NONE',  ( 1.000000000000000000, 0.000000000000000000, -0.000000000000000000 ) ) ;
#111 = CC_DESIGN_APPROVAL ( #39, ( #54 ) ) ;
#112 = ADVANCED_FACE ( 'NONE', ( #127 ), #99, .T. ) ;
#113 = CALENDAR_DATE ( 2026, 8, 2 ) ;
#114 = ORIENTED_EDGE ( 'NONE', *, *, #45, .F. ) ;
#115 = DIRECTION ( 'NONE',  ( 0.000000000000000000, 0.000000000000000000, 1.000000000000000000 ) ) ;
#116 = PERSON_AND_ORGANIZATION ( #138, #161 ) ;
#117 = AXIS2_PLACEMENT_3D ( 'NONE', #89, #168, #150 ) ;
#118 = VERTEX_POINT ( 'NONE', #156 ) ;
#119 = DATE_TIME_ROLE ( 'creation_date' ) ;
#120 = CARTESIAN_POINT ( 'NONE',  ( 0.000000000000000000, 0.000000000000000000, 0.000000000000000000 ) ) ;
#121 = APPLICATION_CONTEXT ( 'configuration controlled 3d designs of mechanical parts and assemblies' ) ;
#122 = EDGE_CURVE ( 'NONE', #8, #139, #62, .T. ) ;
#123 = AXIS2_PLACEMENT_3D ( 'NONE', #6, #56, #69 ) ;
#124 = ORIENTED_EDGE ( 'NONE', *, *, #52, .T. ) ;
#125 = CARTESIAN_POINT ( 'NONE',  ( 0.000000000000000000, 0.000000000000000000, 0.000000000000000000 ) ) ;
#126 = ORIENTED_EDGE ( 'NONE', *, *, #52, .F. ) ;
#127 = FACE_OUTER_BOUND ( 'NONE', #145, .T. ) ;
#128 = DIRECTION ( 'NONE',  ( 1.000000000000000000, 0.000000000000000000, 0.000000000000000000 ) ) ;
#129 = PERSON_AND_ORGANIZATION ( #138, #161 ) ;
#130 = CC_DESIGN_APPROVAL ( #169, ( #10 ) ) ;
#131 = APPLICATION_CONTEXT ( 'configuration controlled 3d designs of mechanical parts and assemblies' ) ;
#132 = CALENDAR_DATE ( 2026, 8, 2 ) ;
#133 = CALENDAR_DATE ( 2026, 8, 2 ) ;
#134 = APPROVAL_ROLE ( '' ) ;
#135 = PRODUCT_DEFINITION_SHAPE ( 'NONE', 'NONE',  #3 ) ;
#136 = CARTESIAN_POINT ( 'NONE',  ( -3.500000000000000444, 0.000000000000000000, 25.00000000000000000 ) ) ;
#137 = DIRECTION ( 'NONE',  ( 0.000000000000000000, 0.000000000000000000, 1.000000000000000000 ) ) ;
#138 = PERSON ( 'UNSPECIFIED', 'UNSPECIFIED', 'UNSPECIFIED', ('UNSPECIFIED'), ('UNSPECIFIED'), ('UNSPECIFIED') ) ;
#139 = VERTEX_POINT ( 'NONE', #87 ) ;
#140 = CARTESIAN_POINT ( 'NONE',  ( 0.000000000000000000, 0.000000000000000000, 0.000000000000000000 ) ) ;
#141 = PERSON_AND_ORGANIZATION_ROLE ( 'design_supplier' ) ;
#142 = APPROVAL_STATUS ( 'not_yet_approved' ) ;
#143 = LOCAL_TIME ( 10, 7, 57.00000000000000000, #72 ) ;
#144 = PERSON_AND_ORGANIZATION ( #138, #161 ) ;
#145 = EDGE_LOOP ( 'NONE', ( #59, #93 ) ) ;
#146 = CC_DESIGN_PERSON_AND_ORGANIZATION_ASSIGNMENT ( #144, #141, ( #10 ) ) ;
#147 = DATE_TIME_ROLE ( 'classification_date' ) ;
#148 = DIRECTION ( 'NONE',  ( -0.000000000000000000, -0.000000000000000000, -1.000000000000000000 ) ) ;
#149 = DATE_AND_TIME ( #133, #86 ) ;
#150 = DIRECTION ( 'NONE',  ( 1.000000000000000000, 0.000000000000000000, 0.000000000000000000 ) ) ;
#151 = CC_DESIGN_APPROVAL ( #153, ( #3 ) ) ;
#152 = MANIFOLD_SOLID_BREP ( 'Boss-Extrude1', #164 ) ;
#153 = APPROVAL ( #83, 'UNSPECIFIED' ) ;
#154 = EDGE_CURVE ( 'NONE', #80, #118, #157, .T. ) ;
#155 = AXIS2_PLACEMENT_3D ( 'NONE', #81, #66, #24 ) ;
#156 = CARTESIAN_POINT ( 'NONE',  ( 3.500000000000000444, 4.286263797015737088E-16, 25.00000000000000000 ) ) ;
#157 = CIRCLE ( 'NONE', #117, 3.500000000000000444 ) ;
#158 = DATE_AND_TIME ( #113, #143 ) ;
#159 = CC_DESIGN_DATE_AND_TIME_ASSIGNMENT ( #37, #147, ( #54 ) ) ;
#160 = PERSON_AND_ORGANIZATION_ROLE ( 'creator' ) ;
#161 = ORGANIZATION ( 'UNSPECIFIED', 'UNSPECIFIED', '' ) ;
#162 = DIRECTION ( 'NONE',  ( -0.000000000000000000, -0.000000000000000000, -1.000000000000000000 ) ) ;
#163 = ORIENTED_EDGE ( 'NONE', *, *, #166, .F. ) ;
#164 = CLOSED_SHELL ( 'NONE', ( #75, #17, #112, #84 ) ) ;
#165 = PRODUCT ( 'Lower Arm Rod V.3', 'Lower Arm Rod V.3', '', ( #71 ) ) ;
#166 = EDGE_CURVE ( 'NONE', #80, #8, #42, .T. ) ;
#167 = DIRECTION ( 'NONE',  ( -0.000000000000000000, -0.000000000000000000, -1.000000000000000000 ) ) ;
#168 = DIRECTION ( 'NONE',  ( 0.000000000000000000, 0.000000000000000000, 1.000000000000000000 ) ) ;
#169 = APPROVAL ( #23, 'UNSPECIFIED' ) ;
#170 = AXIS2_PLACEMENT_3D ( 'NONE', #140, #137, #128 ) ;
#171 = PERSON_AND_ORGANIZATION ( #138, #161 ) ;
#172 = CC_DESIGN_PERSON_AND_ORGANIZATION_ASSIGNMENT ( #92, #95, ( #3 ) ) ;
#173 = DESIGN_CONTEXT ( 'detailed design', #121, 'design' ) ;
#174 = APPROVAL_DATE_TIME ( #158, #153 ) ;
#175 = AXIS2_PLACEMENT_3D ( 'NONE', #16, #109, #76 ) ;
ENDSEC;
END-ISO-10303-21;
