ISO-10303-21;
HEADER;
FILE_DESCRIPTION (( 'STEP AP203' ),
    '1' );
FILE_NAME ('Upper Leg Rod V.3.STEP',
    '2026-02-08T17:08:12',
    ( '' ),
    ( '' ),
    'SwSTEP 2.0',
    'SolidWorks 2025',
    '' );
FILE_SCHEMA (( 'CONFIG_CONTROL_DESIGN' ));
ENDSEC;

DATA;
#1 = DIRECTION ( 'NONE',  ( -0.000000000000000000, -0.000000000000000000, -1.000000000000000000 ) ) ;
#2 = APPROVAL_STATUS ( 'not_yet_approved' ) ;
#3 = PRODUCT_DEFINITION_FORMATION_WITH_SPECIFIED_SOURCE ( 'ANY', '', #83, .NOT_KNOWN. ) ;
#4 = ORIENTED_EDGE ( 'NONE', *, *, #67, .T. ) ;
#5 = APPROVAL_DATE_TIME ( #154, #103 ) ;
#6 = CALENDAR_DATE ( 2026, 8, 2 ) ;
#7 = DIRECTION ( 'NONE',  ( -0.000000000000000000, -0.000000000000000000, -1.000000000000000000 ) ) ;
#8 = ADVANCED_FACE ( 'NONE', ( #11 ), #9, .T. ) ;
#9 = CYLINDRICAL_SURFACE ( 'NONE', #53, 3.500000000000000444 ) ;
#10 =( GEOMETRIC_REPRESENTATION_CONTEXT ( 3 ) GLOBAL_UNCERTAINTY_ASSIGNED_CONTEXT ( ( #135 ) ) GLOBAL_UNIT_ASSIGNED_CONTEXT ( ( #123, #148, #54 ) ) REPRESENTATION_CONTEXT ( 'NONE', 'WORKASPACE' ) );
#11 = FACE_OUTER_BOUND ( 'NONE', #139, .T. ) ;
#12 = CARTESIAN_POINT ( 'NONE',  ( 0.000000000000000000, 0.000000000000000000, 0.000000000000000000 ) ) ;
#13 = CIRCLE ( 'NONE', #111, 3.500000000000000444 ) ;
#14 = DIRECTION ( 'NONE',  ( 1.000000000000000000, 0.000000000000000000, -0.000000000000000000 ) ) ;
#15 = EDGE_CURVE ( 'NONE', #78, #116, #142, .T. ) ;
#16 = APPLICATION_CONTEXT ( 'configuration controlled 3d designs of mechanical parts and assemblies' ) ;
#17 = DIRECTION ( 'NONE',  ( 0.000000000000000000, 0.000000000000000000, 1.000000000000000000 ) ) ;
#18 = MANIFOLD_SOLID_BREP ( 'Boss-Extrude1', #19 ) ;
#19 = CLOSED_SHELL ( 'NONE', ( #155, #8, #99, #113 ) ) ;
#20 = CARTESIAN_POINT ( 'NONE',  ( 0.000000000000000000, 0.000000000000000000, 0.000000000000000000 ) ) ;
#21 = COORDINATED_UNIVERSAL_TIME_OFFSET ( 7, 0, .BEHIND. ) ;
#22 = APPROVAL_STATUS ( 'not_yet_approved' ) ;
#23 = CC_DESIGN_SECURITY_CLASSIFICATION ( #63, ( #3 ) ) ;
#24 = APPROVAL_ROLE ( '' ) ;
#25 = ORIENTED_EDGE ( 'NONE', *, *, #67, .F. ) ;
#26 = APPROVAL_DATE_TIME ( #100, #110 ) ;
#27 = CARTESIAN_POINT ( 'NONE',  ( 3.500000000000000444, 4.286263797015737088E-16, 75.00000000000000000 ) ) ;
#28 = CARTESIAN_POINT ( 'NONE',  ( -3.500000000000000444, 0.000000000000000000, 0.000000000000000000 ) ) ;
#29 = CIRCLE ( 'NONE', #119, 3.500000000000000444 ) ;
#30 = APPROVAL ( #45, 'UNSPECIFIED' ) ;
#31 = DIRECTION ( 'NONE',  ( 0.000000000000000000, 0.000000000000000000, 1.000000000000000000 ) ) ;
#32 = LOCAL_TIME ( 10, 8, 12.00000000000000000, #136 ) ;
#33 = SECURITY_CLASSIFICATION_LEVEL ( 'unclassified' ) ;
#34 = PERSON_AND_ORGANIZATION ( #167, #101 ) ;
#35 = ORIENTED_EDGE ( 'NONE', *, *, #76, .T. ) ;
#36 = APPLICATION_PROTOCOL_DEFINITION ( 'international standard', 'config_control_design', 1994, #46 ) ;
#37 = COORDINATED_UNIVERSAL_TIME_OFFSET ( 7, 0, .BEHIND. ) ;
#38 = AXIS2_PLACEMENT_3D ( 'NONE', #62, #141, #117 ) ;
#39 = CALENDAR_DATE ( 2026, 8, 2 ) ;
#40 = EDGE_LOOP ( 'NONE', ( #35, #58 ) ) ;
#41 = PRODUCT_RELATED_PRODUCT_CATEGORY ( 'detail', '', ( #83 ) ) ;
#42 = MECHANICAL_CONTEXT ( 'NONE', #16, 'mechanical' ) ;
#43 = CARTESIAN_POINT ( 'NONE',  ( 0.000000000000000000, 0.000000000000000000, 75.00000000000000000 ) ) ;
#44 = DIRECTION ( 'NONE',  ( -1.000000000000000000, 0.000000000000000000, 0.000000000000000000 ) ) ;
#45 = APPROVAL_STATUS ( 'not_yet_approved' ) ;
#46 = APPLICATION_CONTEXT ( 'configuration controlled 3d designs of mechanical parts and assemblies' ) ;
#47 = PERSON_AND_ORGANIZATION ( #167, #101 ) ;
#48 = CARTESIAN_POINT ( 'NONE',  ( 3.500000000000000444, 4.286263797015737088E-16, 75.00000000000000000 ) ) ;
#49 = CC_DESIGN_DATE_AND_TIME_ASSIGNMENT ( #108, #137, ( #63 ) ) ;
#50 = CARTESIAN_POINT ( 'NONE',  ( 3.500000000000000444, 4.286263797015737088E-16, 0.000000000000000000 ) ) ;
#51 = PRODUCT_DEFINITION ( 'UNKNOWN', '', #3, #106 ) ;
#52 = DIRECTION ( 'NONE',  ( -0.000000000000000000, -0.000000000000000000, -1.000000000000000000 ) ) ;
#53 = AXIS2_PLACEMENT_3D ( 'NONE', #118, #52, #91 ) ;
#54 =( NAMED_UNIT ( * ) SI_UNIT ( $, .STERADIAN. ) SOLID_ANGLE_UNIT ( ) );
#55 = EDGE_CURVE ( 'NONE', #78, #61, #94, .T. ) ;
#56 = LOCAL_TIME ( 10, 8, 12.00000000000000000, #109 ) ;
#57 = PERSON_AND_ORGANIZATION ( #167, #101 ) ;
#58 = ORIENTED_EDGE ( 'NONE', *, *, #15, .T. ) ;
#59 = PERSON_AND_ORGANIZATION_ROLE ( 'creator' ) ;
#60 = DATE_AND_TIME ( #6, #170 ) ;
#61 = VERTEX_POINT ( 'NONE', #50 ) ;
#62 = CARTESIAN_POINT ( 'NONE',  ( 0.000000000000000000, 0.000000000000000000, 75.00000000000000000 ) ) ;
#63 = SECURITY_CLASSIFICATION ( '', '', #33 ) ;
#64 = ORIENTED_EDGE ( 'NONE', *, *, #143, .T. ) ;
#65 = DIRECTION ( 'NONE',  ( 1.000000000000000000, 0.000000000000000000, -0.000000000000000000 ) ) ;
#66 = PLANE ( 'NONE',  #125 ) ;
#67 = EDGE_CURVE ( 'NONE', #116, #87, #129, .T. ) ;
#68 = APPROVAL_PERSON_ORGANIZATION ( #57, #30, #89 ) ;
#69 = CARTESIAN_POINT ( 'NONE',  ( -3.500000000000000444, 0.000000000000000000, 75.00000000000000000 ) ) ;
#70 = APPROVAL_DATE_TIME ( #140, #30 ) ;
#71 = CC_DESIGN_PERSON_AND_ORGANIZATION_ASSIGNMENT ( #112, #127, ( #83 ) ) ;
#72 = ORIENTED_EDGE ( 'NONE', *, *, #15, .F. ) ;
#73 = AXIS2_PLACEMENT_3D ( 'NONE', #134, #1, #44 ) ;
#74 = CALENDAR_DATE ( 2026, 8, 2 ) ;
#75 = SHAPE_DEFINITION_REPRESENTATION ( #162, #81 ) ;
#76 = EDGE_CURVE ( 'NONE', #116, #78, #92, .T. ) ;
#77 = DIRECTION ( 'NONE',  ( -0.000000000000000000, -0.000000000000000000, -1.000000000000000000 ) ) ;
#78 = VERTEX_POINT ( 'NONE', #48 ) ;
#79 = ORIENTED_EDGE ( 'NONE', *, *, #55, .T. ) ;
#80 = ORIENTED_EDGE ( 'NONE', *, *, #143, .F. ) ;
#81 = ADVANCED_BREP_SHAPE_REPRESENTATION ( 'Upper Leg Rod V.3', ( #18, #174 ), #10 ) ;
#82 = CYLINDRICAL_SURFACE ( 'NONE', #73, 3.500000000000000444 ) ;
#83 = PRODUCT ( 'Upper Leg Rod V.3', 'Upper Leg Rod V.3', '', ( #42 ) ) ;
#84 = DIRECTION ( 'NONE',  ( 0.000000000000000000, 0.000000000000000000, 1.000000000000000000 ) ) ;
#85 = CC_DESIGN_APPROVAL ( #103, ( #51 ) ) ;
#86 = PERSON_AND_ORGANIZATION ( #167, #101 ) ;
#87 = VERTEX_POINT ( 'NONE', #28 ) ;
#88 = PERSON_AND_ORGANIZATION ( #167, #101 ) ;
#89 = APPROVAL_ROLE ( '' ) ;
#90 = CC_DESIGN_PERSON_AND_ORGANIZATION_ASSIGNMENT ( #86, #163, ( #51 ) ) ;
#91 = DIRECTION ( 'NONE',  ( -1.000000000000000000, 0.000000000000000000, 0.000000000000000000 ) ) ;
#92 = CIRCLE ( 'NONE', #147, 3.500000000000000444 ) ;
#93 = ORIENTED_EDGE ( 'NONE', *, *, #76, .F. ) ;
#94 = LINE ( 'NONE', #27, #164 ) ;
#95 = CC_DESIGN_APPROVAL ( #30, ( #63 ) ) ;
#96 = APPLICATION_PROTOCOL_DEFINITION ( 'international standard', 'config_control_design', 1994, #16 ) ;
#97 = AXIS2_PLACEMENT_3D ( 'NONE', #43, #17, #65 ) ;
#98 = COORDINATED_UNIVERSAL_TIME_OFFSET ( 7, 0, .BEHIND. ) ;
#99 = ADVANCED_FACE ( 'NONE', ( #156 ), #175, .T. ) ;
#100 = DATE_AND_TIME ( #74, #172 ) ;
#101 = ORGANIZATION ( 'UNSPECIFIED', 'UNSPECIFIED', '' ) ;
#102 = PERSON_AND_ORGANIZATION_ROLE ( 'classification_officer' ) ;
#103 = APPROVAL ( #2, 'UNSPECIFIED' ) ;
#104 = EDGE_CURVE ( 'NONE', #87, #61, #13, .T. ) ;
#105 = CC_DESIGN_APPROVAL ( #110, ( #3 ) ) ;
#106 = DESIGN_CONTEXT ( 'detailed design', #46, 'design' ) ;
#107 = LOCAL_TIME ( 10, 8, 12.00000000000000000, #21 ) ;
#108 = DATE_AND_TIME ( #39, #107 ) ;
#109 = COORDINATED_UNIVERSAL_TIME_OFFSET ( 7, 0, .BEHIND. ) ;
#110 = APPROVAL ( #22, 'UNSPECIFIED' ) ;
#111 = AXIS2_PLACEMENT_3D ( 'NONE', #122, #84, #146 ) ;
#112 = PERSON_AND_ORGANIZATION ( #167, #101 ) ;
#113 = ADVANCED_FACE ( 'NONE', ( #120 ), #66, .F. ) ;
#114 = PERSON_AND_ORGANIZATION ( #167, #101 ) ;
#115 = EDGE_LOOP ( 'NONE', ( #72, #79, #64, #25 ) ) ;
#116 = VERTEX_POINT ( 'NONE', #69 ) ;
#117 = DIRECTION ( 'NONE',  ( 1.000000000000000000, 0.000000000000000000, 0.000000000000000000 ) ) ;
#118 = CARTESIAN_POINT ( 'NONE',  ( 0.000000000000000000, 0.000000000000000000, 75.00000000000000000 ) ) ;
#119 = AXIS2_PLACEMENT_3D ( 'NONE', #160, #173, #149 ) ;
#120 = FACE_OUTER_BOUND ( 'NONE', #130, .T. ) ;
#121 = CC_DESIGN_PERSON_AND_ORGANIZATION_ASSIGNMENT ( #168, #102, ( #63 ) ) ;
#122 = CARTESIAN_POINT ( 'NONE',  ( 0.000000000000000000, 0.000000000000000000, 0.000000000000000000 ) ) ;
#123 =( LENGTH_UNIT ( ) NAMED_UNIT ( * ) SI_UNIT ( .MILLI., .METRE. ) );
#124 = DIRECTION ( 'NONE',  ( 0.000000000000000000, 0.000000000000000000, 1.000000000000000000 ) ) ;
#125 = AXIS2_PLACEMENT_3D ( 'NONE', #12, #31, #14 ) ;
#126 = APPROVAL_ROLE ( '' ) ;
#127 = PERSON_AND_ORGANIZATION_ROLE ( 'design_owner' ) ;
#128 = PERSON_AND_ORGANIZATION_ROLE ( 'design_supplier' ) ;
#129 = LINE ( 'NONE', #171, #153 ) ;
#130 = EDGE_LOOP ( 'NONE', ( #166, #80 ) ) ;
#131 = FACE_OUTER_BOUND ( 'NONE', #115, .T. ) ;
#132 = CC_DESIGN_PERSON_AND_ORGANIZATION_ASSIGNMENT ( #47, #59, ( #3 ) ) ;
#133 = APPROVAL_PERSON_ORGANIZATION ( #34, #103, #126 ) ;
#134 = CARTESIAN_POINT ( 'NONE',  ( 0.000000000000000000, 0.000000000000000000, 75.00000000000000000 ) ) ;
#135 = UNCERTAINTY_MEASURE_WITH_UNIT (LENGTH_MEASURE( 1.000000000000000082E-05 ), #123, 'distance_accuracy_value', 'NONE');
#136 = COORDINATED_UNIVERSAL_TIME_OFFSET ( 7, 0, .BEHIND. ) ;
#137 = DATE_TIME_ROLE ( 'classification_date' ) ;
#138 = DATE_TIME_ROLE ( 'creation_date' ) ;
#139 = EDGE_LOOP ( 'NONE', ( #157, #93, #4, #152 ) ) ;
#140 = DATE_AND_TIME ( #150, #32 ) ;
#141 = DIRECTION ( 'NONE',  ( 0.000000000000000000, 0.000000000000000000, 1.000000000000000000 ) ) ;
#142 = CIRCLE ( 'NONE', #38, 3.500000000000000444 ) ;
#143 = EDGE_CURVE ( 'NONE', #61, #87, #29, .T. ) ;
#144 = DIRECTION ( 'NONE',  ( 1.000000000000000000, 0.000000000000000000, 0.000000000000000000 ) ) ;
#145 = APPROVAL_PERSON_ORGANIZATION ( #114, #110, #24 ) ;
#146 = DIRECTION ( 'NONE',  ( 1.000000000000000000, 0.000000000000000000, 0.000000000000000000 ) ) ;
#147 = AXIS2_PLACEMENT_3D ( 'NONE', #158, #169, #144 ) ;
#148 =( NAMED_UNIT ( * ) PLANE_ANGLE_UNIT ( ) SI_UNIT ( $, .RADIAN. ) );
#149 = DIRECTION ( 'NONE',  ( 1.000000000000000000, 0.000000000000000000, 0.000000000000000000 ) ) ;
#150 = CALENDAR_DATE ( 2026, 8, 2 ) ;
#151 = CC_DESIGN_PERSON_AND_ORGANIZATION_ASSIGNMENT ( #88, #128, ( #3 ) ) ;
#152 = ORIENTED_EDGE ( 'NONE', *, *, #104, .T. ) ;
#153 = VECTOR ( 'NONE', #7, 1000.000000000000000 ) ;
#154 = DATE_AND_TIME ( #161, #56 ) ;
#155 = ADVANCED_FACE ( 'NONE', ( #131 ), #82, .T. ) ;
#156 = FACE_OUTER_BOUND ( 'NONE', #40, .T. ) ;
#157 = ORIENTED_EDGE ( 'NONE', *, *, #55, .F. ) ;
#158 = CARTESIAN_POINT ( 'NONE',  ( 0.000000000000000000, 0.000000000000000000, 75.00000000000000000 ) ) ;
#159 = DIRECTION ( 'NONE',  ( 1.000000000000000000, 0.000000000000000000, 0.000000000000000000 ) ) ;
#160 = CARTESIAN_POINT ( 'NONE',  ( 0.000000000000000000, 0.000000000000000000, 0.000000000000000000 ) ) ;
#161 = CALENDAR_DATE ( 2026, 8, 2 ) ;
#162 = PRODUCT_DEFINITION_SHAPE ( 'NONE', 'NONE',  #51 ) ;
#163 = PERSON_AND_ORGANIZATION_ROLE ( 'creator' ) ;
#164 = VECTOR ( 'NONE', #77, 1000.000000000000000 ) ;
#165 = CC_DESIGN_DATE_AND_TIME_ASSIGNMENT ( #60, #138, ( #51 ) ) ;
#166 = ORIENTED_EDGE ( 'NONE', *, *, #104, .F. ) ;
#167 = PERSON ( 'UNSPECIFIED', 'UNSPECIFIED', 'UNSPECIFIED', ('UNSPECIFIED'), ('UNSPECIFIED'), ('UNSPECIFIED') ) ;
#168 = PERSON_AND_ORGANIZATION ( #167, #101 ) ;
#169 = DIRECTION ( 'NONE',  ( 0.000000000000000000, 0.000000000000000000, 1.000000000000000000 ) ) ;
#170 = LOCAL_TIME ( 10, 8, 12.00000000000000000, #37 ) ;
#171 = CARTESIAN_POINT ( 'NONE',  ( -3.500000000000000444, 0.000000000000000000, 75.00000000000000000 ) ) ;
#172 = LOCAL_TIME ( 10, 8, 12.00000000000000000, #98 ) ;
#173 = DIRECTION ( 'NONE',  ( 0.000000000000000000, 0.000000000000000000, 1.000000000000000000 ) ) ;
#174 = AXIS2_PLACEMENT_3D ( 'NONE', #20, #124, #159 ) ;
#175 = PLANE ( 'NONE',  #97 ) ;
ENDSEC;
END-ISO-10303-21;
