ISO-10303-21;
HEADER;
FILE_DESCRIPTION (( 'STEP AP203' ),
    '1' );
FILE_NAME ('Upper Leg Shaft V.3.STEP',
    '2026-02-08T17:12:10',
    ( '' ),
    ( '' ),
    'SwSTEP 2.0',
    'SolidWorks 2025',
    '' );
FILE_SCHEMA (( 'CONFIG_CONTROL_DESIGN' ));
ENDSEC;

DATA;
#1 = AXIS2_PLACEMENT_3D ( 'NONE', #244, #13, #151 ) ;
#2 = APPROVAL_STATUS ( 'not_yet_approved' ) ;
#3 = VERTEX_POINT ( 'NONE', #138 ) ;
#4 = COORDINATED_UNIVERSAL_TIME_OFFSET ( 7, 0, .BEHIND. ) ;
#5 = EDGE_CURVE ( 'NONE', #3, #154, #250, .T. ) ;
#6 =( NAMED_UNIT ( * ) SI_UNIT ( $, .STERADIAN. ) SOLID_ANGLE_UNIT ( ) );
#7 = CIRCLE ( 'NONE', #152, 4.999999999999999112 ) ;
#8 = CC_DESIGN_PERSON_AND_ORGANIZATION_ASSIGNMENT ( #228, #58, ( #59 ) ) ;
#9 = CARTESIAN_POINT ( 'NONE',  ( 2.250000000000000000, 0.000000000000000000, 63.00000000000000000 ) ) ;
#10 = FACE_OUTER_BOUND ( 'NONE', #163, .T. ) ;
#11 = DIRECTION ( 'NONE',  ( 0.000000000000000000, 0.000000000000000000, 1.000000000000000000 ) ) ;
#12 = ADVANCED_FACE ( 'NONE', ( #76 ), #77, .T. ) ;
#13 = DIRECTION ( 'NONE',  ( -0.000000000000000000, -0.000000000000000000, -1.000000000000000000 ) ) ;
#14 = CARTESIAN_POINT ( 'NONE',  ( 0.000000000000000000, 0.000000000000000000, 0.000000000000000000 ) ) ;
#15 = ORIENTED_EDGE ( 'NONE', *, *, #202, .F. ) ;
#16 = CC_DESIGN_PERSON_AND_ORGANIZATION_ASSIGNMENT ( #61, #183, ( #210 ) ) ;
#17 = DATE_TIME_ROLE ( 'creation_date' ) ;
#18 = CIRCLE ( 'NONE', #119, 2.250000000000000000 ) ;
#19 = ORIENTED_EDGE ( 'NONE', *, *, #57, .F. ) ;
#20 = ORIENTED_EDGE ( 'NONE', *, *, #57, .T. ) ;
#21 = APPLICATION_PROTOCOL_DEFINITION ( 'international standard', 'config_control_design', 1994, #89 ) ;
#22 = APPROVAL_DATE_TIME ( #212, #134 ) ;
#23 = APPROVAL_ROLE ( '' ) ;
#24 = PRODUCT_DEFINITION_SHAPE ( 'NONE', 'NONE',  #59 ) ;
#25 = ORIENTED_EDGE ( 'NONE', *, *, #120, .T. ) ;
#26 = CYLINDRICAL_SURFACE ( 'NONE', #175, 2.250000000000000000 ) ;
#27 = DIRECTION ( 'NONE',  ( 0.000000000000000000, 0.000000000000000000, 1.000000000000000000 ) ) ;
#28 = MANIFOLD_SOLID_BREP ( 'Cut-Extrude1', #171 ) ;
#29 = EDGE_CURVE ( 'NONE', #184, #125, #207, .T. ) ;
#30 = AXIS2_PLACEMENT_3D ( 'NONE', #201, #232, #177 ) ;
#31 = CARTESIAN_POINT ( 'NONE',  ( 0.000000000000000000, 0.000000000000000000, 75.00000000000000000 ) ) ;
#32 = EDGE_CURVE ( 'NONE', #135, #252, #107, .T. ) ;
#33 = CARTESIAN_POINT ( 'NONE',  ( -2.250000000000000000, 2.755455298081544285E-16, 63.00000000000000000 ) ) ;
#34 = DIRECTION ( 'NONE',  ( 1.000000000000000000, 0.000000000000000000, 0.000000000000000000 ) ) ;
#35 = ADVANCED_FACE ( 'NONE', ( #10 ), #92, .F. ) ;
#36 = CIRCLE ( 'NONE', #116, 4.999999999999999112 ) ;
#37 = COORDINATED_UNIVERSAL_TIME_OFFSET ( 7, 0, .BEHIND. ) ;
#38 = APPROVAL ( #199, 'UNSPECIFIED' ) ;
#39 = PERSON_AND_ORGANIZATION ( #91, #215 ) ;
#40 = ORIENTED_EDGE ( 'NONE', *, *, #29, .F. ) ;
#41 = AXIS2_PLACEMENT_3D ( 'NONE', #143, #67, #71 ) ;
#42 = CALENDAR_DATE ( 2026, 8, 2 ) ;
#43 =( GEOMETRIC_REPRESENTATION_CONTEXT ( 3 ) GLOBAL_UNCERTAINTY_ASSIGNED_CONTEXT ( ( #114 ) ) GLOBAL_UNIT_ASSIGNED_CONTEXT ( ( #103, #253, #6 ) ) REPRESENTATION_CONTEXT ( 'NONE', 'WORKASPACE' ) );
#44 = EDGE_LOOP ( 'NONE', ( #197, #140 ) ) ;
#45 = DIRECTION ( 'NONE',  ( 1.000000000000000000, 0.000000000000000000, 0.000000000000000000 ) ) ;
#46 = ORIENTED_EDGE ( 'NONE', *, *, #32, .F. ) ;
#47 = CARTESIAN_POINT ( 'NONE',  ( 4.999999999999999112, 6.123233995736765296E-16, 75.00000000000000000 ) ) ;
#48 = DESIGN_CONTEXT ( 'detailed design', #98, 'design' ) ;
#49 = ORIENTED_EDGE ( 'NONE', *, *, #84, .F. ) ;
#50 = AXIS2_PLACEMENT_3D ( 'NONE', #189, #131, #110 ) ;
#51 = CARTESIAN_POINT ( 'NONE',  ( -2.250000000000000000, 2.755455298081544285E-16, 63.00000000000000000 ) ) ;
#52 = CC_DESIGN_PERSON_AND_ORGANIZATION_ASSIGNMENT ( #213, #242, ( #166 ) ) ;
#53 = DIRECTION ( 'NONE',  ( -0.000000000000000000, -0.000000000000000000, -1.000000000000000000 ) ) ;
#54 = LOCAL_TIME ( 10, 12, 10.00000000000000000, #4 ) ;
#55 = DIRECTION ( 'NONE',  ( -0.000000000000000000, -0.000000000000000000, 1.000000000000000000 ) ) ;
#56 = CARTESIAN_POINT ( 'NONE',  ( 4.999999999999999112, 6.123233995736765296E-16, 75.00000000000000000 ) ) ;
#57 = EDGE_CURVE ( 'NONE', #81, #252, #74, .T. ) ;
#58 = PERSON_AND_ORGANIZATION_ROLE ( 'creator' ) ;
#59 = PRODUCT_DEFINITION ( 'UNKNOWN', '', #166, #48 ) ;
#60 = ORIENTED_EDGE ( 'NONE', *, *, #73, .F. ) ;
#61 = PERSON_AND_ORGANIZATION ( #91, #215 ) ;
#62 = EDGE_LOOP ( 'NONE', ( #60, #68, #160, #96 ) ) ;
#63 = FACE_OUTER_BOUND ( 'NONE', #62, .T. ) ;
#64 = AXIS2_PLACEMENT_3D ( 'NONE', #226, #55, #208 ) ;
#65 = DATE_TIME_ROLE ( 'classification_date' ) ;
#66 = ORIENTED_EDGE ( 'NONE', *, *, #126, .F. ) ;
#67 = DIRECTION ( 'NONE',  ( 0.000000000000000000, 0.000000000000000000, 1.000000000000000000 ) ) ;
#68 = ORIENTED_EDGE ( 'NONE', *, *, #29, .T. ) ;
#69 = DATE_AND_TIME ( #161, #54 ) ;
#70 = DATE_AND_TIME ( #238, #233 ) ;
#71 = DIRECTION ( 'NONE',  ( 1.000000000000000000, 0.000000000000000000, -0.000000000000000000 ) ) ;
#72 = DIRECTION ( 'NONE',  ( 1.000000000000000000, 0.000000000000000000, -0.000000000000000000 ) ) ;
#73 = EDGE_CURVE ( 'NONE', #184, #3, #95, .T. ) ;
#74 = LINE ( 'NONE', #51, #205 ) ;
#75 = DIRECTION ( 'NONE',  ( 0.000000000000000000, 0.000000000000000000, 1.000000000000000000 ) ) ;
#76 = FACE_OUTER_BOUND ( 'NONE', #218, .T. ) ;
#77 = CYLINDRICAL_SURFACE ( 'NONE', #1, 4.999999999999999112 ) ;
#78 = CARTESIAN_POINT ( 'NONE',  ( -4.999999999999999112, 0.000000000000000000, 75.00000000000000000 ) ) ;
#79 = ORIENTED_EDGE ( 'NONE', *, *, #239, .F. ) ;
#80 = DATE_AND_TIME ( #42, #146 ) ;
#81 = VERTEX_POINT ( 'NONE', #33 ) ;
#82 = PERSON_AND_ORGANIZATION ( #91, #215 ) ;
#83 = AXIS2_PLACEMENT_3D ( 'NONE', #190, #11, #247 ) ;
#84 = EDGE_CURVE ( 'NONE', #252, #135, #128, .T. ) ;
#85 = APPROVAL_ROLE ( '' ) ;
#86 = DIRECTION ( 'NONE',  ( 1.000000000000000000, 0.000000000000000000, 0.000000000000000000 ) ) ;
#87 = DIRECTION ( 'NONE',  ( 1.000000000000000000, 0.000000000000000000, 0.000000000000000000 ) ) ;
#88 = DATE_AND_TIME ( #117, #172 ) ;
#89 = APPLICATION_CONTEXT ( 'configuration controlled 3d designs of mechanical parts and assemblies' ) ;
#90 = APPROVAL_PERSON_ORGANIZATION ( #230, #134, #85 ) ;
#91 = PERSON ( 'UNSPECIFIED', 'UNSPECIFIED', 'UNSPECIFIED', ('UNSPECIFIED'), ('UNSPECIFIED'), ('UNSPECIFIED') ) ;
#92 = CYLINDRICAL_SURFACE ( 'NONE', #64, 2.250000000000000000 ) ;
#93 = DIRECTION ( 'NONE',  ( 0.000000000000000000, 0.000000000000000000, 1.000000000000000000 ) ) ;
#94 = DIRECTION ( 'NONE',  ( 1.000000000000000000, 0.000000000000000000, -0.000000000000000000 ) ) ;
#95 = CIRCLE ( 'NONE', #224, 4.999999999999999112 ) ;
#96 = ORIENTED_EDGE ( 'NONE', *, *, #5, .F. ) ;
#97 = AXIS2_PLACEMENT_3D ( 'NONE', #200, #158, #155 ) ;
#98 = APPLICATION_CONTEXT ( 'configuration controlled 3d designs of mechanical parts and assemblies' ) ;
#99 = PERSON_AND_ORGANIZATION ( #91, #215 ) ;
#100 = EDGE_LOOP ( 'NONE', ( #46, #49 ) ) ;
#101 = APPROVAL_PERSON_ORGANIZATION ( #118, #38, #162 ) ;
#102 = ORIENTED_EDGE ( 'NONE', *, *, #113, .F. ) ;
#103 =( LENGTH_UNIT ( ) NAMED_UNIT ( * ) SI_UNIT ( .MILLI., .METRE. ) );
#104 = APPROVAL ( #198, 'UNSPECIFIED' ) ;
#105 = COORDINATED_UNIVERSAL_TIME_OFFSET ( 7, 0, .BEHIND. ) ;
#106 = DIRECTION ( 'NONE',  ( 0.000000000000000000, 0.000000000000000000, 1.000000000000000000 ) ) ;
#107 = CIRCLE ( 'NONE', #248, 2.250000000000000000 ) ;
#108 = AXIS2_PLACEMENT_3D ( 'NONE', #139, #106, #72 ) ;
#109 = CC_DESIGN_APPROVAL ( #134, ( #166 ) ) ;
#110 = DIRECTION ( 'NONE',  ( 1.000000000000000000, 0.000000000000000000, 0.000000000000000000 ) ) ;
#111 = CARTESIAN_POINT ( 'NONE',  ( 0.000000000000000000, 0.000000000000000000, 0.000000000000000000 ) ) ;
#112 = FACE_OUTER_BOUND ( 'NONE', #179, .T. ) ;
#113 = EDGE_CURVE ( 'NONE', #125, #154, #36, .T. ) ;
#114 = UNCERTAINTY_MEASURE_WITH_UNIT (LENGTH_MEASURE( 1.000000000000000082E-05 ), #103, 'distance_accuracy_value', 'NONE');
#115 = DIRECTION ( 'NONE',  ( 1.000000000000000000, 0.000000000000000000, 0.000000000000000000 ) ) ;
#116 = AXIS2_PLACEMENT_3D ( 'NONE', #111, #148, #115 ) ;
#117 = CALENDAR_DATE ( 2026, 8, 2 ) ;
#118 = PERSON_AND_ORGANIZATION ( #91, #215 ) ;
#119 = AXIS2_PLACEMENT_3D ( 'NONE', #221, #27, #45 ) ;
#120 = EDGE_CURVE ( 'NONE', #81, #122, #194, .T. ) ;
#121 = CALENDAR_DATE ( 2026, 8, 2 ) ;
#122 = VERTEX_POINT ( 'NONE', #9 ) ;
#123 = DIRECTION ( 'NONE',  ( 0.000000000000000000, 0.000000000000000000, 1.000000000000000000 ) ) ;
#124 = DIRECTION ( 'NONE',  ( 1.000000000000000000, 0.000000000000000000, 0.000000000000000000 ) ) ;
#125 = VERTEX_POINT ( 'NONE', #192 ) ;
#126 = EDGE_CURVE ( 'NONE', #122, #135, #170, .T. ) ;
#127 = CARTESIAN_POINT ( 'NONE',  ( 0.000000000000000000, 0.000000000000000000, 75.00000000000000000 ) ) ;
#128 = CIRCLE ( 'NONE', #50, 2.250000000000000000 ) ;
#129 = ADVANCED_FACE ( 'NONE', ( #112 ), #191, .F. ) ;
#130 = CC_DESIGN_DATE_AND_TIME_ASSIGNMENT ( #80, #65, ( #210 ) ) ;
#131 = DIRECTION ( 'NONE',  ( 0.000000000000000000, 0.000000000000000000, 1.000000000000000000 ) ) ;
#132 = APPROVAL_PERSON_ORGANIZATION ( #82, #104, #23 ) ;
#133 = SECURITY_CLASSIFICATION_LEVEL ( 'unclassified' ) ;
#134 = APPROVAL ( #2, 'UNSPECIFIED' ) ;
#135 = VERTEX_POINT ( 'NONE', #153 ) ;
#136 = CARTESIAN_POINT ( 'NONE',  ( 0.000000000000000000, 0.000000000000000000, 63.00000000000000000 ) ) ;
#137 = VECTOR ( 'NONE', #216, 1000.000000000000000 ) ;
#138 = CARTESIAN_POINT ( 'NONE',  ( -4.999999999999999112, 0.000000000000000000, 75.00000000000000000 ) ) ;
#139 = CARTESIAN_POINT ( 'NONE',  ( 0.000000000000000000, 0.000000000000000000, 63.00000000000000000 ) ) ;
#140 = ORIENTED_EDGE ( 'NONE', *, *, #73, .T. ) ;
#141 = APPROVAL_DATE_TIME ( #69, #104 ) ;
#142 = PERSON_AND_ORGANIZATION_ROLE ( 'design_supplier' ) ;
#143 = CARTESIAN_POINT ( 'NONE',  ( 0.000000000000000000, 0.000000000000000000, 75.00000000000000000 ) ) ;
#144 = CARTESIAN_POINT ( 'NONE',  ( -2.250000000000000000, 2.755455298081544285E-16, 75.00000000000000000 ) ) ;
#145 = ORIENTED_EDGE ( 'NONE', *, *, #84, .T. ) ;
#146 = LOCAL_TIME ( 10, 12, 10.00000000000000000, #105 ) ;
#147 = VECTOR ( 'NONE', #209, 1000.000000000000000 ) ;
#148 = DIRECTION ( 'NONE',  ( 0.000000000000000000, 0.000000000000000000, 1.000000000000000000 ) ) ;
#149 = DIRECTION ( 'NONE',  ( 1.000000000000000000, 0.000000000000000000, 0.000000000000000000 ) ) ;
#150 = CC_DESIGN_DATE_AND_TIME_ASSIGNMENT ( #88, #17, ( #59 ) ) ;
#151 = DIRECTION ( 'NONE',  ( -1.000000000000000000, 0.000000000000000000, 0.000000000000000000 ) ) ;
#152 = AXIS2_PLACEMENT_3D ( 'NONE', #127, #243, #124 ) ;
#153 = CARTESIAN_POINT ( 'NONE',  ( 2.250000000000000000, 0.000000000000000000, 75.00000000000000000 ) ) ;
#154 = VERTEX_POINT ( 'NONE', #227 ) ;
#155 = DIRECTION ( 'NONE',  ( -1.000000000000000000, 0.000000000000000000, 0.000000000000000000 ) ) ;
#156 = CC_DESIGN_SECURITY_CLASSIFICATION ( #210, ( #166 ) ) ;
#157 = ORIENTED_EDGE ( 'NONE', *, *, #173, .F. ) ;
#158 = DIRECTION ( 'NONE',  ( -0.000000000000000000, -0.000000000000000000, -1.000000000000000000 ) ) ;
#159 = SHAPE_DEFINITION_REPRESENTATION ( #24, #251 ) ;
#160 = ORIENTED_EDGE ( 'NONE', *, *, #113, .T. ) ;
#161 = CALENDAR_DATE ( 2026, 8, 2 ) ;
#162 = APPROVAL_ROLE ( '' ) ;
#163 = EDGE_LOOP ( 'NONE', ( #19, #15, #231, #240 ) ) ;
#164 = COORDINATED_UNIVERSAL_TIME_OFFSET ( 7, 0, .BEHIND. ) ;
#165 = PLANE ( 'NONE',  #108 ) ;
#166 = PRODUCT_DEFINITION_FORMATION_WITH_SPECIFIED_SOURCE ( 'ANY', '', #236, .NOT_KNOWN. ) ;
#167 = ADVANCED_FACE ( 'NONE', ( #206, #180 ), #214, .T. ) ;
#168 = DIRECTION ( 'NONE',  ( 0.000000000000000000, 0.000000000000000000, 1.000000000000000000 ) ) ;
#169 = DIRECTION ( 'NONE',  ( -0.000000000000000000, -0.000000000000000000, 1.000000000000000000 ) ) ;
#170 = LINE ( 'NONE', #246, #147 ) ;
#171 = CLOSED_SHELL ( 'NONE', ( #193, #186, #12, #167, #129, #35, #222 ) ) ;
#172 = LOCAL_TIME ( 10, 12, 10.00000000000000000, #37 ) ;
#173 = EDGE_CURVE ( 'NONE', #154, #125, #187, .T. ) ;
#174 = ORIENTED_EDGE ( 'NONE', *, *, #173, .T. ) ;
#175 = AXIS2_PLACEMENT_3D ( 'NONE', #136, #217, #86 ) ;
#176 = ORIENTED_EDGE ( 'NONE', *, *, #5, .T. ) ;
#177 = DIRECTION ( 'NONE',  ( 1.000000000000000000, 0.000000000000000000, 0.000000000000000000 ) ) ;
#178 = COORDINATED_UNIVERSAL_TIME_OFFSET ( 7, 0, .BEHIND. ) ;
#179 = EDGE_LOOP ( 'NONE', ( #157, #102 ) ) ;
#180 = FACE_OUTER_BOUND ( 'NONE', #44, .T. ) ;
#181 = CARTESIAN_POINT ( 'NONE',  ( 0.000000000000000000, 0.000000000000000000, 0.000000000000000000 ) ) ;
#182 = AXIS2_PLACEMENT_3D ( 'NONE', #14, #93, #94 ) ;
#183 = PERSON_AND_ORGANIZATION_ROLE ( 'classification_officer' ) ;
#184 = VERTEX_POINT ( 'NONE', #47 ) ;
#185 = FACE_OUTER_BOUND ( 'NONE', #237, .T. ) ;
#186 = ADVANCED_FACE ( 'NONE', ( #63 ), #223, .T. ) ;
#187 = CIRCLE ( 'NONE', #30, 4.999999999999999112 ) ;
#188 = AXIS2_PLACEMENT_3D ( 'NONE', #181, #123, #87 ) ;
#189 = CARTESIAN_POINT ( 'NONE',  ( 0.000000000000000000, 0.000000000000000000, 75.00000000000000000 ) ) ;
#190 = CARTESIAN_POINT ( 'NONE',  ( 0.000000000000000000, 0.000000000000000000, 63.00000000000000000 ) ) ;
#191 = PLANE ( 'NONE',  #182 ) ;
#192 = CARTESIAN_POINT ( 'NONE',  ( 4.999999999999999112, 6.123233995736765296E-16, 0.000000000000000000 ) ) ;
#193 = ADVANCED_FACE ( 'NONE', ( #185 ), #26, .F. ) ;
#194 = CIRCLE ( 'NONE', #83, 2.250000000000000000 ) ;
#195 = CC_DESIGN_PERSON_AND_ORGANIZATION_ASSIGNMENT ( #99, #241, ( #236 ) ) ;
#196 = LOCAL_TIME ( 10, 12, 10.00000000000000000, #164 ) ;
#197 = ORIENTED_EDGE ( 'NONE', *, *, #239, .T. ) ;
#198 = APPROVAL_STATUS ( 'not_yet_approved' ) ;
#199 = APPROVAL_STATUS ( 'not_yet_approved' ) ;
#200 = CARTESIAN_POINT ( 'NONE',  ( 0.000000000000000000, 0.000000000000000000, 75.00000000000000000 ) ) ;
#201 = CARTESIAN_POINT ( 'NONE',  ( 0.000000000000000000, 0.000000000000000000, 0.000000000000000000 ) ) ;
#202 = EDGE_CURVE ( 'NONE', #122, #81, #18, .T. ) ;
#203 = MECHANICAL_CONTEXT ( 'NONE', #89, 'mechanical' ) ;
#204 = CC_DESIGN_APPROVAL ( #38, ( #210 ) ) ;
#205 = VECTOR ( 'NONE', #169, 1000.000000000000000 ) ;
#206 = FACE_BOUND ( 'NONE', #100, .T. ) ;
#207 = LINE ( 'NONE', #56, #234 ) ;
#208 = DIRECTION ( 'NONE',  ( 1.000000000000000000, 0.000000000000000000, 0.000000000000000000 ) ) ;
#209 = DIRECTION ( 'NONE',  ( -0.000000000000000000, -0.000000000000000000, 1.000000000000000000 ) ) ;
#210 = SECURITY_CLASSIFICATION ( '', '', #133 ) ;
#211 = CC_DESIGN_PERSON_AND_ORGANIZATION_ASSIGNMENT ( #39, #142, ( #166 ) ) ;
#212 = DATE_AND_TIME ( #121, #196 ) ;
#213 = PERSON_AND_ORGANIZATION ( #91, #215 ) ;
#214 = PLANE ( 'NONE',  #41 ) ;
#215 = ORGANIZATION ( 'UNSPECIFIED', 'UNSPECIFIED', '' ) ;
#216 = DIRECTION ( 'NONE',  ( -0.000000000000000000, -0.000000000000000000, -1.000000000000000000 ) ) ;
#217 = DIRECTION ( 'NONE',  ( -0.000000000000000000, -0.000000000000000000, 1.000000000000000000 ) ) ;
#218 = EDGE_LOOP ( 'NONE', ( #40, #79, #176, #174 ) ) ;
#219 = FACE_OUTER_BOUND ( 'NONE', #235, .T. ) ;
#220 = APPROVAL_DATE_TIME ( #70, #38 ) ;
#221 = CARTESIAN_POINT ( 'NONE',  ( 0.000000000000000000, 0.000000000000000000, 63.00000000000000000 ) ) ;
#222 = ADVANCED_FACE ( 'NONE', ( #219 ), #165, .T. ) ;
#223 = CYLINDRICAL_SURFACE ( 'NONE', #97, 4.999999999999999112 ) ;
#224 = AXIS2_PLACEMENT_3D ( 'NONE', #245, #75, #149 ) ;
#225 = PRODUCT_RELATED_PRODUCT_CATEGORY ( 'detail', '', ( #236 ) ) ;
#226 = CARTESIAN_POINT ( 'NONE',  ( 0.000000000000000000, 0.000000000000000000, 63.00000000000000000 ) ) ;
#227 = CARTESIAN_POINT ( 'NONE',  ( -4.999999999999999112, 0.000000000000000000, 0.000000000000000000 ) ) ;
#228 = PERSON_AND_ORGANIZATION ( #91, #215 ) ;
#229 = ORIENTED_EDGE ( 'NONE', *, *, #202, .T. ) ;
#230 = PERSON_AND_ORGANIZATION ( #91, #215 ) ;
#231 = ORIENTED_EDGE ( 'NONE', *, *, #126, .T. ) ;
#232 = DIRECTION ( 'NONE',  ( 0.000000000000000000, 0.000000000000000000, 1.000000000000000000 ) ) ;
#233 = LOCAL_TIME ( 10, 12, 10.00000000000000000, #178 ) ;
#234 = VECTOR ( 'NONE', #53, 1000.000000000000000 ) ;
#235 = EDGE_LOOP ( 'NONE', ( #229, #25 ) ) ;
#236 = PRODUCT ( 'Upper Leg Shaft V.3', 'Upper Leg Shaft V.3', '', ( #203 ) ) ;
#237 = EDGE_LOOP ( 'NONE', ( #254, #20, #145, #66 ) ) ;
#238 = CALENDAR_DATE ( 2026, 8, 2 ) ;
#239 = EDGE_CURVE ( 'NONE', #3, #184, #7, .T. ) ;
#240 = ORIENTED_EDGE ( 'NONE', *, *, #32, .T. ) ;
#241 = PERSON_AND_ORGANIZATION_ROLE ( 'design_owner' ) ;
#242 = PERSON_AND_ORGANIZATION_ROLE ( 'creator' ) ;
#243 = DIRECTION ( 'NONE',  ( 0.000000000000000000, 0.000000000000000000, 1.000000000000000000 ) ) ;
#244 = CARTESIAN_POINT ( 'NONE',  ( 0.000000000000000000, 0.000000000000000000, 75.00000000000000000 ) ) ;
#245 = CARTESIAN_POINT ( 'NONE',  ( 0.000000000000000000, 0.000000000000000000, 75.00000000000000000 ) ) ;
#246 = CARTESIAN_POINT ( 'NONE',  ( 2.250000000000000000, 0.000000000000000000, 63.00000000000000000 ) ) ;
#247 = DIRECTION ( 'NONE',  ( 1.000000000000000000, 0.000000000000000000, 0.000000000000000000 ) ) ;
#248 = AXIS2_PLACEMENT_3D ( 'NONE', #31, #168, #34 ) ;
#249 = CC_DESIGN_APPROVAL ( #104, ( #59 ) ) ;
#250 = LINE ( 'NONE', #78, #137 ) ;
#251 = ADVANCED_BREP_SHAPE_REPRESENTATION ( 'Upper Leg Shaft V.3', ( #28, #188 ), #43 ) ;
#252 = VERTEX_POINT ( 'NONE', #144 ) ;
#253 =( NAMED_UNIT ( * ) PLANE_ANGLE_UNIT ( ) SI_UNIT ( $, .RADIAN. ) );
#254 = ORIENTED_EDGE ( 'NONE', *, *, #120, .F. ) ;
#255 = APPLICATION_PROTOCOL_DEFINITION ( 'international standard', 'config_control_design', 1994, #98 ) ;
ENDSEC;
END-ISO-10303-21;
